<svg xmlns="http://www.w3.org/2000/svg" width="25" height="24" viewBox="0 0 25 24" fill="none">
  <path fill-rule="evenodd" clip-rule="evenodd" d="M7.25 2.25C7.66421 2.25 8 2.58579 8 3V4.5H17V3C17 2.58579 17.3358 2.25 17.75 2.25C18.1642 2.25 18.5 2.58579 18.5 3V4.5H19.25C20.9069 4.5 22.25 5.84315 22.25 7.5V18.75C22.25 20.4069 20.9069 21.75 19.25 21.75H5.75C4.09315 21.75 2.75 20.4069 2.75 18.75V7.5C2.75 5.84315 4.09315 4.5 5.75 4.5H6.5V3C6.5 2.58579 6.83579 2.25 7.25 2.25ZM5.75 6C4.92157 6 4.25 6.67157 4.25 7.5V8.65135C4.69126 8.39609 5.20357 8.25 5.75 8.25H19.25C19.7964 8.25 20.3087 8.39609 20.75 8.65135V7.5C20.75 6.67157 20.0784 6 19.25 6H5.75ZM20.75 11.25C20.75 10.4216 20.0784 9.75 19.25 9.75H5.75C4.92157 9.75 4.25 10.4216 4.25 11.25V18.75C4.25 19.5784 4.92157 20.25 5.75 20.25H19.25C20.0784 20.25 20.75 19.5784 20.75 18.75V11.25Z" fill="currentColor" style="fill:currentColor;fill:color(currentColor);fill-opacity:1;"/>
</svg>