<svg width="19" height="18" viewBox="0 0 19 18" fill="none" xmlns="http://www.w3.org/2000/svg">
<path fill-rule="evenodd" clip-rule="evenodd" d="M10.125 4.625C10.125 2.20875 12.0838 0.25 14.5 0.25C16.9162 0.25 18.875 2.20875 18.875 4.625V7.75C18.875 8.09518 18.5952 8.375 18.25 8.375C17.9048 8.375 17.625 8.09518 17.625 7.75V4.625C17.625 2.89911 16.2259 1.5 14.5 1.5C12.7741 1.5 11.375 2.89911 11.375 4.625V7.125C12.7557 7.125 13.875 8.24429 13.875 9.625V15.25C13.875 16.6307 12.7557 17.75 11.375 17.75H2.625C1.24429 17.75 0.125 16.6307 0.125 15.25V9.625C0.125 8.24429 1.24429 7.125 2.625 7.125H10.125V4.625ZM2.625 8.375C1.93464 8.375 1.375 8.93464 1.375 9.625V15.25C1.375 15.9404 1.93464 16.5 2.625 16.5H11.375C12.0654 16.5 12.625 15.9404 12.625 15.25V9.625C12.625 8.93464 12.0654 8.375 11.375 8.375H2.625Z" fill="currentColor" style="fill:currentColor;fill:currentColor;fill-opacity:1;"/>
</svg>
