<svg width="12" height="12" viewBox="0 0 12 12" fill="none" xmlns="http://www.w3.org/2000/svg">
<path fill-rule="evenodd" clip-rule="evenodd" d="M5.29311 0.871992C5.55464 0.24319 6.44541 0.24319 6.70694 0.871992L7.92144 3.79199L11.0738 4.04472C11.7527 4.09914 12.0279 4.94631 11.5107 5.38935L9.10894 7.44674L9.84272 10.5229C10.0007 11.1854 9.2801 11.7089 8.69891 11.354L6.00003 9.7055L3.30115 11.354C2.71996 11.7089 1.99931 11.1854 2.15733 10.5229L2.89111 7.44674L0.489329 5.38935C-0.0278777 4.94631 0.247382 4.09914 0.926228 4.04472L4.07861 3.79199L5.29311 0.871992ZM6.00003 1.45082L4.86086 4.1897C4.75061 4.45479 4.50131 4.63591 4.21513 4.65885L1.25828 4.8959L3.51109 6.82567C3.72913 7.01245 3.82435 7.30551 3.75774 7.58478L3.06947 10.4702L5.60094 8.92395C5.84595 8.77429 6.1541 8.77429 6.39911 8.92395L8.93059 10.4702L8.24232 7.58478C8.1757 7.30551 8.27093 7.01245 8.48897 6.82567L10.7418 4.8959L7.78493 4.65885C7.49874 4.63591 7.24945 4.45479 7.13919 4.1897L6.00003 1.45082Z" fill="currentColor" style="fill:currentColor;fill:currentColor;fill-opacity:1;"/>
</svg>
