<svg xmlns="http://www.w3.org/2000/svg" width="14" height="14" viewBox="0 0 14 14" fill="none">
  <path d="M4.39623 3.65377C4.19121 3.44874 3.85879 3.44874 3.65377 3.65377C3.44874 3.85879 3.44874 4.19121 3.65377 4.39623L6.25754 7L3.65377 9.60377C3.44874 9.80879 3.44874 10.1412 3.65377 10.3462C3.85879 10.5513 4.19121 10.5513 4.39623 10.3462L7 7.74246L9.60377 10.3462C9.80879 10.5513 10.1412 10.5513 10.3462 10.3462C10.5513 10.1412 10.5513 9.80879 10.3462 9.60377L7.74246 7L10.3462 4.39623C10.5513 4.19121 10.5513 3.85879 10.3462 3.65377C10.1412 3.44874 9.80879 3.44874 9.60377 3.65377L7 6.25754L4.39623 3.65377Z" fill="currentColor" style="fill:currentColor;fill:currentColor;fill-opacity:1;"/>
</svg>