<svg xmlns="http://www.w3.org/2000/svg" width="32" height="32" viewBox="0 0 32 32" fill="none">
  <path d="M8.00005 24.8334C8.00005 25.1095 8.22391 25.3334 8.50005 25.3334H23.5C23.7762 25.3334 24 25.1095 24 24.8334V22.14C24 21.8639 23.7762 21.64 23.5 21.64H8.50005C8.22391 21.64 8.00005 21.8639 8.00005 22.14V24.8334ZM8.00005 19.8067C8.00005 20.0829 8.22391 20.3067 8.50005 20.3067H23.5C23.7762 20.3067 24 20.0829 24 19.8067V17.116C24 16.8399 23.7762 16.616 23.5 16.616H8.50005C8.22391 16.616 8.00005 16.8399 8.00005 17.116V19.8067ZM8.00005 14.7814C8.00005 15.0575 8.22391 15.2814 8.50005 15.2814H23.5C23.7762 15.2814 24 15.0575 24 14.7814V13.7148C24 13.5585 23.9269 13.4112 23.8024 13.3166L21.6621 11.6912C21.5751 11.6251 21.4689 11.5894 21.3597 11.5894H10.6404C10.5312 11.5894 10.425 11.6251 10.338 11.6912L8.19765 13.3166C8.07316 13.4112 8.00005 13.5585 8.00005 13.7148V14.7814ZM13.3947 9.35885C13.0149 9.64929 13.2203 10.256 13.6984 10.256H18.32C18.7991 10.256 19.0039 9.64749 18.6224 9.35783L16.3035 7.5971C16.1242 7.46101 15.8762 7.46143 15.6974 7.59813L13.3947 9.35885ZM7.16671 26.6667C6.89057 26.6667 6.66671 26.4429 6.66671 26.1667V15.4911C6.66671 15.0761 6.19032 14.8417 5.86156 15.095L4.48608 16.1547C4.26657 16.3238 3.95139 16.2822 3.78335 16.0618L3.58453 15.8011C3.41762 15.5823 3.45899 15.2697 3.67709 15.1018L6.47174 12.9502C6.59468 12.8555 6.66671 12.7091 6.66671 12.554V9.78271C6.66671 9.50657 6.89057 9.28271 7.16671 9.28271H7.50005C7.77619 9.28271 8.00005 9.50657 8.00005 9.78271V10.7567C8.00005 11.1705 8.47412 11.4052 8.80322 11.1543L15.6962 5.89836C15.8756 5.76161 16.1243 5.76186 16.3034 5.89898L28.321 15.1008C28.5405 15.2689 28.5819 15.5833 28.4134 15.8025L28.2166 16.0585C28.0484 16.2774 27.7346 16.3185 27.5157 16.1504L26.1379 15.0924C25.809 14.8399 25.3334 15.0744 25.3334 15.489V26.1667C25.3334 26.4429 25.1095 26.6667 24.8334 26.6667H7.16671ZM7.16721 7.69288C6.89088 7.69315 6.66208 7.46797 6.70171 7.19449C6.78777 6.60055 7.03255 6.0784 7.43605 5.62804C7.94894 5.0556 8.68405 4.76938 9.64138 4.76938C10.2245 4.76938 10.6436 4.61604 10.8987 4.30938C11.0537 4.12311 11.1617 3.91093 11.2229 3.67285C11.2915 3.40577 11.506 3.17871 11.7817 3.17871H12.116C12.3922 3.17871 12.6207 3.40381 12.581 3.67709C12.4948 4.27066 12.2496 4.79298 11.8454 5.24404C11.3334 5.81649 10.5987 6.10271 9.64138 6.10271C9.05827 6.10271 8.63871 6.25604 8.38271 6.56271C8.22774 6.74835 8.11984 6.95957 8.05901 7.19635C7.99025 7.464 7.77589 7.69227 7.49955 7.69254L7.16721 7.69288Z" fill="currentColor" style="fill:currentColor;fill:currentColor;fill-opacity:1;"/>
</svg>