<svg xmlns="http://www.w3.org/2000/svg" width="32" height="32" viewBox="0 0 32 32" fill="none">
  <path d="M20.2192 18.2383C20.7715 18.2383 21.2192 18.686 21.2192 19.2383V28.7139H26.9575C26.9816 28.6069 27.0089 28.4832 27.0356 28.3418C27.1648 27.6595 27.2932 26.7297 27.4204 25.7578C27.5456 24.8009 27.6691 23.8022 27.7856 23.0264C27.8438 22.6392 27.9033 22.2847 27.9644 22.0068C27.9945 21.8698 28.0306 21.7293 28.0728 21.6035C28.0938 21.5407 28.1221 21.4635 28.1606 21.3848C28.1928 21.319 28.2641 21.1848 28.3921 21.0576L28.4653 20.9775C28.6264 20.7824 28.7144 20.5374 28.7144 20.2852C28.7142 17.0455 27.4586 13.9331 25.2134 11.5898L24.9927 11.3652C24.402 10.7786 23.759 10.2556 23.0747 9.80078L22.7788 9.60938C20.8913 8.42886 18.7105 7.75457 16.4526 7.6748L15.9995 7.66699C12.6254 7.6671 9.39109 8.99802 7.00732 11.3652C4.6238 13.7322 3.28576 16.9408 3.28564 20.2852C3.28564 20.5733 3.40062 20.8517 3.60791 21.0576L3.69385 21.1533C3.76923 21.2478 3.81524 21.3355 3.83936 21.3848C3.87787 21.4635 3.90616 21.5407 3.92725 21.6035C3.96943 21.7293 4.00458 21.8699 4.03467 22.0068C4.09571 22.2847 4.15618 22.6392 4.21436 23.0264C4.3309 23.8022 4.45436 24.8009 4.57959 25.7578C4.70678 26.7297 4.83524 27.6595 4.96436 28.3418C4.99112 28.4832 5.01839 28.6069 5.04248 28.7139H10.7798V19.2383C10.7798 18.6861 11.2277 18.2385 11.7798 18.2383H20.2192ZM12.7798 28.7139H19.2192V20.2383H12.7798V28.7139ZM30.7144 20.2852C30.7144 21.036 30.4391 21.7572 29.9478 22.3184C29.9398 22.3491 29.929 22.3876 29.9185 22.4355C29.8722 22.646 29.8207 22.947 29.7642 23.3232C29.6513 24.0742 29.5311 25.0372 29.4028 26.0176C29.2765 26.9833 29.1417 27.9675 29.0005 28.7139C28.931 29.0808 28.8521 29.4309 28.7612 29.7041C28.7181 29.8337 28.6541 30.004 28.5562 30.1602C28.507 30.2384 28.4222 30.3578 28.2905 30.4658C28.1537 30.578 27.9192 30.7139 27.604 30.7139H4.396C4.08053 30.7139 3.84531 30.5781 3.7085 30.4658C3.57695 30.3579 3.49293 30.2384 3.44385 30.1602C3.34592 30.004 3.28092 29.8337 3.23779 29.7041C3.14692 29.4309 3.06893 29.0807 2.99951 28.7139C2.85826 27.9675 2.72257 26.9833 2.59619 26.0176C2.4679 25.0372 2.34865 24.0741 2.23584 23.3232C2.17931 22.947 2.12777 22.646 2.08154 22.4355C2.07101 22.3876 2.06015 22.3491 2.05225 22.3184C1.56082 21.7572 1.28564 21.0361 1.28564 20.2852C1.28576 16.4059 2.83804 12.6872 5.59814 9.94629C8.35804 7.20556 12.0994 5.6671 15.9995 5.66699L16.5229 5.67578C18.5434 5.74711 20.5103 6.23182 22.3091 7.08008V4.57129C22.3091 4.019 22.7568 3.57129 23.3091 3.57129C23.8613 3.57139 24.3091 4.01907 24.3091 4.57129V8.22168C25.0534 8.72774 25.7548 9.30377 26.4019 9.94629L26.6577 10.2061C29.2579 12.9198 30.7142 16.5273 30.7144 20.2852Z" fill="currentColor" style="fill:currentColor;fill:currentColor;fill-opacity:1;"/>
</svg>