<svg xmlns="http://www.w3.org/2000/svg" width="32" height="32" viewBox="0 0 32 32" fill="none">
  <path d="M15.9998 16.334C18.6908 16.334 21.1073 18.0241 21.5847 20.4805H21.5837C21.8003 21.5921 20.8532 22.334 19.9998 22.334H19.6667V28.334H25.3337C25.5177 28.3338 25.6667 28.184 25.6667 28V4C25.6666 3.83891 25.5521 3.70473 25.4001 3.67383L25.3337 3.66699H6.66675C6.48276 3.66699 6.33392 3.81605 6.33374 4V28C6.33374 28.1841 6.48265 28.334 6.66675 28.334H12.3337V22.334H11.9998C11.1462 22.3338 10.1986 21.5914 10.4158 20.4795C10.8935 18.0227 13.3093 16.3341 15.9998 16.334ZM14.3337 28.334H17.6667V22.334H14.3337V28.334ZM15.9998 18.334C14.3239 18.3341 13.0321 19.2305 12.5466 20.334H19.4529C18.9672 19.2308 17.6754 18.334 15.9998 18.334ZM11.3337 11C11.8858 11.0002 12.3336 11.448 12.3337 12C12.3337 12.5522 11.8859 12.9998 11.3337 13H9.99976C9.44762 12.9998 8.99976 12.5522 8.99976 12C8.99993 11.448 9.44773 11.0002 9.99976 11H11.3337ZM16.6667 11L16.7693 11.0059C17.2733 11.0572 17.6666 11.4825 17.6667 12C17.6667 12.5177 17.2734 12.9438 16.7693 12.9951L16.6667 13H15.3337C14.7815 13 14.3337 12.5523 14.3337 12C14.3339 11.4479 14.7816 11 15.3337 11H16.6667ZM21.9998 11L22.1023 11.0059C22.6064 11.0571 22.9996 11.4824 22.9998 12C22.9998 12.5178 22.6066 12.9439 22.1023 12.9951L21.9998 13H20.6667C20.1145 13 19.6667 12.5523 19.6667 12C19.6669 11.4479 20.1146 11 20.6667 11H21.9998ZM11.3337 7L11.4353 7.00586C11.9396 7.05691 12.3336 7.48227 12.3337 8C12.3337 8.51789 11.9397 8.94407 11.4353 8.99512L11.3337 9H9.99976C9.44762 8.99982 8.99976 8.55218 8.99976 8C8.99993 7.44797 9.44773 7.00018 9.99976 7H11.3337ZM16.6667 7C17.2189 7 17.6666 7.44787 17.6667 8C17.6667 8.55228 17.219 9 16.6667 9H15.3337C14.7815 9 14.3337 8.55228 14.3337 8C14.3339 7.44787 14.7816 7 15.3337 7H16.6667ZM21.9998 7C22.5519 7 22.9996 7.44787 22.9998 8C22.9998 8.55228 22.552 9 21.9998 9H20.6667C20.1145 9 19.6667 8.55228 19.6667 8C19.6669 7.44787 20.1146 7 20.6667 7H21.9998ZM27.6667 28C27.6667 28.1134 27.656 28.2249 27.6404 28.334H29.3337C29.8859 28.3342 30.3337 28.7818 30.3337 29.334C30.3336 29.886 29.8858 30.3338 29.3337 30.334H2.66675C2.11457 30.334 1.66692 29.8861 1.66675 29.334C1.66675 28.7817 2.11446 28.334 2.66675 28.334H4.36011C4.34447 28.2249 4.33374 28.1134 4.33374 28V4C4.33376 3.88679 4.34451 3.77589 4.36011 3.66699H2.66675C2.11446 3.66699 1.66675 3.21928 1.66675 2.66699C1.66675 2.11471 2.11446 1.66699 2.66675 1.66699H29.3337C29.8859 1.66717 30.3337 2.11482 30.3337 2.66699C30.3337 3.21917 29.8859 3.66682 29.3337 3.66699H27.6404C27.656 3.77588 27.6667 3.88681 27.6667 4V28Z" fill="currentColor" style="fill:currentColor;fill:currentColor;fill-opacity:1;"/>
</svg>
