<svg xmlns="http://www.w3.org/2000/svg" width="32" height="32" viewBox="0 0 32 32" fill="none">
  <path fill-rule="evenodd" clip-rule="evenodd" d="M16.3536 4.76754C16.1583 4.57228 15.8417 4.57228 15.6464 4.76754L7 13.414V26.4998C7 26.7759 7.22386 26.9998 7.5 26.9998H12V21.4998C12 20.1191 13.1193 18.9998 14.5 18.9998H17.5C18.8807 18.9998 20 20.1191 20 21.4998V26.9998H24.5C24.7761 26.9998 25 26.7759 25 26.4998V13.414L16.3536 4.76754ZM27 15.414L28.2929 16.7069C28.6834 17.0974 29.3166 17.0974 29.7071 16.7069C30.0976 16.3164 30.0976 15.6832 29.7071 15.2927L17.7678 3.35333C16.7915 2.37702 15.2085 2.37702 14.2322 3.35333L2.29289 15.2927C1.90237 15.6832 1.90237 16.3164 2.29289 16.7069C2.68342 17.0974 3.31658 17.0974 3.70711 16.7069L5 15.414V26.4998C5 27.8805 6.11929 28.9998 7.5 28.9998H24.5C25.8807 28.9998 27 27.8805 27 26.4998V15.414ZM18 26.9998H14V21.4998C14 21.2236 14.2239 20.9998 14.5 20.9998H17.5C17.7761 20.9998 18 21.2236 18 21.4998V26.9998Z" fill="currentColor" style="fill:currentColor;fill:currentColor;fill-opacity:1;"/>
</svg>