<svg xmlns="http://www.w3.org/2000/svg" width="16" height="16" fill="none" viewBox="0 0 16 16">
    <path fill="currentColor" fill-rule="evenodd" d="M6 3.5a.5.5 0 1 0 0 1 .5.5 0 0 0 0-1m-1.415 0a1.5 1.5 0 0 1 2.83 0H13.5a.5.5 0 0 1 0 1H7.415a1.5 1.5 0 0 1-2.83 0H2.5a.5.5 0 0 1 0-1zM10 7.5a.5.5 0 1 0 0 1 .5.5 0 0 0 0-1m-1.415 0a1.5 1.5 0 0 1 2.83 0H13.5a.5.5 0 0 1 0 1h-2.085a1.5 1.5 0 0 1-2.83 0H2.5a.5.5 0 0 1 0-1zM6 11.5a.5.5 0 1 0 0 1 .5.5 0 0 0 0-1m-1.415 0a1.5 1.5 0 0 1 2.83 0H13.5a.5.5 0 0 1 0 1H7.415a1.5 1.5 0 0 1-2.83 0H2.5a.5.5 0 0 1 0-1z" clip-rule="evenodd" style="fill:currentColor;fill-opacity:1"/>
</svg>
