<svg xmlns="http://www.w3.org/2000/svg" width="16" height="16" fill="none" viewBox="0 0 16 16">
    <path fill="#f1f7fd" fill-rule="evenodd" d="M1 3.25C1 2.56 1.56 2 2.25 2h11.5c.69 0 1.25.56 1.25 1.25v1a1.25 1.25 0 0 1-1.027 1.23l-.39 6.637A2 2 0 0 1 11.585 14H4.414a2 2 0 0 1-1.996-1.883l-.39-6.637A1.25 1.25 0 0 1 1 4.25zM2.504 4.5H2.25A.25.25 0 0 1 2 4.25v-1A.25.25 0 0 1 2.25 3h11.5a.25.25 0 0 1 .25.25v1a.25.25 0 0 1-.25.25zm.526 1 .386 6.559a1 1 0 0 0 .998.941h7.172a1 1 0 0 0 .998-.941L12.97 5.5zM8 6.5a.5.5 0 0 1 .5.5v3.293l1.146-1.147a.5.5 0 0 1 .708.708l-2 2a.5.5 0 0 1-.708 0l-2-2a.5.5 0 1 1 .708-.708L7.5 10.293V7a.5.5 0 0 1 .5-.5" clip-rule="evenodd" style="fill:#f1f7fd;fill:color(display-p3 .9451 .9686 .9922);fill-opacity:1"/>
</svg>
