<svg xmlns="http://www.w3.org/2000/svg" width="15" height="15" fill="none" viewBox="0 0 15 15">
    <path fill="currentColor" fill-rule="evenodd" d="M3.574 6.666a4.375 4.375 0 0 1 7.32-1.962l1.11 1.11h-1.857a.438.438 0 1 0 0 .875h2.912a.437.437 0 0 0 .438-.438V3.34a.437.437 0 1 0-.875 0v1.855l-1.109-1.108A5.25 5.25 0 0 0 2.73 6.44a.437.437 0 1 0 .845.226m8.988 1.955a.437.437 0 0 0-.536.31 4.375 4.375 0 0 1-7.32 1.962l-1.11-1.11h1.857a.437.437 0 1 0 0-.876H2.541a.437.437 0 0 0-.437.438v2.912a.437.437 0 1 0 .875 0v-1.855l1.108 1.109a5.25 5.25 0 0 0 8.784-2.354.44.44 0 0 0-.31-.536" clip-rule="evenodd" style="fill:currentColor;fill-opacity:1"/>
</svg>
