<svg xmlns="http://www.w3.org/2000/svg" width="16" height="16" fill="none" viewBox="0 0 16 16">
    <path fill="#6d9e36" fill-rule="evenodd" d="M7.646 1.646a.5.5 0 0 1 .708 0l3 3a.5.5 0 0 1-.708.708L8.5 3.207V11a.5.5 0 0 1-1 0V3.207L5.354 5.354a.5.5 0 1 1-.708-.708zM2 10.5a.5.5 0 0 1 .5.5v1.5a1 1 0 0 0 1 1h9a1 1 0 0 0 1-1V11a.5.5 0 0 1 1 0v1.5a2 2 0 0 1-2 2h-9a2 2 0 0 1-2-2V11a.5.5 0 0 1 .5-.5" clip-rule="evenodd" style="fill:#6d9e36;fill:color(display-p3 .4275 .6196 .2118);fill-opacity:1"/>
</svg>
