<svg xmlns="http://www.w3.org/2000/svg" width="21" height="20" fill="none" viewBox="0 0 21 20">
    <path fill="#1f2d4c" fill-rule="evenodd" d="M6 3.25a3 3 0 0 1 3-3h3a3 3 0 0 1 3 3v.205q1.398.128 2.774.334c1.454.218 2.476 1.483 2.476 2.917v3.783a2.95 2.95 0 0 1-.75 1.975V16.4c0 1.452-1.047 2.728-2.523 2.923-2.12.282-4.282.427-6.477.427a49 49 0 0 1-6.477-.427C2.547 19.128 1.5 17.852 1.5 16.4v-3.935a2.95 2.95 0 0 1-.75-1.976V6.706c0-1.434 1.022-2.7 2.476-2.917A49 49 0 0 1 6 3.455zm1.5.09a50 50 0 0 1 6 0v-.09a1.5 1.5 0 0 0-1.5-1.5H9a1.5 1.5 0 0 0-1.5 1.5zM3 13.344V16.4c0 .737.527 1.344 1.22 1.437 2.055.272 4.15.413 6.28.413q3.196-.002 6.28-.413c.693-.093 1.22-.7 1.22-1.437v-3.057a24.7 24.7 0 0 1-7.5 1.157A24.7 24.7 0 0 1 3 13.343m7.5-8.593a48 48 0 0 0-7.052.523c-.684.102-1.198.705-1.198 1.433v3.783c0 .438.188.835.487 1.09q.183.158.422.239A23.2 23.2 0 0 0 10.5 13c2.566 0 5.034-.415 7.34-1.182q.24-.081.424-.239a1.43 1.43 0 0 0 .486-1.09V6.706c0-.728-.514-1.331-1.198-1.433A47.4 47.4 0 0 0 10.5 4.75m-.75 6a.75.75 0 0 1 .75-.75h.008a.75.75 0 0 1 .75.75v.008a.75.75 0 0 1-.75.75H10.5a.75.75 0 0 1-.75-.75z" clip-rule="evenodd" style="fill:#1f2d4c;fill:color(display-p3 .1216 .1765 .298);fill-opacity:1"/>
</svg>
