<svg xmlns="http://www.w3.org/2000/svg" width="25" height="24" fill="none" viewBox="0 0 25 24">
    <path fill="currentColor" fill-rule="evenodd" d="M7.25 2.25A.75.75 0 0 1 8 3v1.5h9V3a.75.75 0 0 1 1.5 0v1.5h.75a3 3 0 0 1 3 3v11.25a3 3 0 0 1-3 3H5.75a3 3 0 0 1-3-3V7.5a3 3 0 0 1 3-3h.75V3a.75.75 0 0 1 .75-.75M5.75 6a1.5 1.5 0 0 0-1.5 1.5v1.151a3 3 0 0 1 1.5-.401h13.5c.546 0 1.059.146 1.5.401V7.5a1.5 1.5 0 0 0-1.5-1.5zm15 5.25a1.5 1.5 0 0 0-1.5-1.5H5.75a1.5 1.5 0 0 0-1.5 1.5v7.5a1.5 1.5 0 0 0 1.5 1.5h13.5a1.5 1.5 0 0 0 1.5-1.5z" clip-rule="evenodd" style="fill:currentColor;fill:color(currentColor);fill-opacity:1"/>
</svg>
