<svg xmlns="http://www.w3.org/2000/svg" width="24" height="24" fill="none" viewBox="0 0 24 24">
    <path fill="currentColor" fill-rule="evenodd" d="M12 3.75a8.25 8.25 0 1 0 0 16.5 8.25 8.25 0 0 0 0-16.5M2.25 12c0-5.385 4.365-9.75 9.75-9.75s9.75 4.365 9.75 9.75-4.365 9.75-9.75 9.75S2.25 17.385 2.25 12m13.186-2.86a.75.75 0 0 1 .174 1.046l-3.75 5.25a.75.75 0 0 1-1.14.094l-2.25-2.25a.75.75 0 1 1 1.06-1.06l1.624 1.624 3.236-4.53a.75.75 0 0 1 1.046-.174" clip-rule="evenodd" style="fill:currentColor;fill-opacity:1"/>
</svg>
