<svg width="8" height="10" viewBox="0 0 8 10" fill="none" xmlns="http://www.w3.org/2000/svg">
<path fill-rule="evenodd" clip-rule="evenodd" d="M7.81586 0.167501C8.05473 0.397177 8.06218 0.777003 7.8325 1.01587L4.4325 4.61587C4.31938 4.73351 4.16321 4.8 4 4.8C3.83679 4.8 3.68062 4.73351 3.5675 4.61587L0.167499 1.01587C-0.0621767 0.777003 -0.0547288 0.397177 0.184134 0.167501C0.422997 -0.0621751 0.802823 -0.0547276 1.0325 0.184136L4 3.33434L6.9675 0.184135C7.19718 -0.0547276 7.577 -0.0621752 7.81586 0.167501ZM7.81586 4.9675C8.05473 5.19718 8.06217 5.577 7.8325 5.81587L4.4325 9.41587C4.31938 9.53351 4.16321 9.6 4 9.6C3.83679 9.6 3.68062 9.53351 3.5675 9.41587L0.167499 5.81587C-0.0621769 5.577 -0.054729 5.19718 0.184134 4.9675C0.422997 4.73783 0.802823 4.74527 1.0325 4.98414L4 8.13434L6.9675 4.98414C7.19718 4.74527 7.577 4.73783 7.81586 4.9675Z" fill="currentColor" style="fill:currentColor;fill-opacity:1"/>
</svg>
