<svg xmlns="http://www.w3.org/2000/svg" width="24" height="24" fill="none" viewBox="0 0 24 24">
    <path fill="currentColor" fill-rule="evenodd" d="M8.854 3.817a1.875 1.875 0 0 1 1.85-1.567h2.593c.917 0 1.699.663 1.85 1.567l.213 1.28a.5.5 0 0 0 .268.337q.124.069.244.142a.5.5 0 0 0 .425.063l1.217-.456a1.875 1.875 0 0 1 2.282.819l1.297 2.246a1.875 1.875 0 0 1-.432 2.385l-1.005.827a.5.5 0 0 0-.157.399 7 7 0 0 1 0 .282.5.5 0 0 0 .157.399l1.005.827c.707.582.89 1.591.432 2.385l-1.297 2.246a1.875 1.875 0 0 1-2.282.819l-1.217-.456a.5.5 0 0 0-.425.063q-.12.074-.244.142a.5.5 0 0 0-.268.336l-.213 1.281a1.875 1.875 0 0 1-1.85 1.567h-2.594a1.875 1.875 0 0 1-1.85-1.567l-.213-1.28a.5.5 0 0 0-.267-.337 7 7 0 0 1-.245-.142.5.5 0 0 0-.425-.063l-1.217.456a1.875 1.875 0 0 1-2.281-.819l-1.297-2.246a1.875 1.875 0 0 1 .432-2.385l.477.579-.477-.58 1.004-.826a.5.5 0 0 0 .158-.399 8 8 0 0 1 0-.282.5.5 0 0 0-.158-.399l-1.004-.827a1.875 1.875 0 0 1-.432-2.385l1.297-2.246a1.875 1.875 0 0 1 2.281-.819l1.217.456c.108.04.264.034.425-.063q.12-.073.245-.142a.5.5 0 0 0 .267-.336zm1.85-.067a.375.375 0 0 0-.37.313l-.214 1.281c-.106.635-.522 1.126-1.02 1.403a6 6 0 0 0-.196.113c-.49.295-1.124.41-1.727.184L5.96 6.588a.375.375 0 0 0-.456.164L4.207 8.998a.375.375 0 0 0 .086.477l1.005.827c.496.409.714 1.014.703 1.584a6 6 0 0 0 0 .228c.01.57-.207 1.175-.703 1.584l-1.005.827-.332-.404.332.404a.375.375 0 0 0-.086.477l1.297 2.246a.375.375 0 0 0 .456.164l1.217-.456c.603-.226 1.238-.111 1.727.184q.097.06.195.113c.5.277.915.768 1.02 1.403l.214 1.28c.03.181.187.314.37.314h2.594c.183 0 .34-.133.37-.313l.214-1.281c.105-.635.521-1.126 1.02-1.402q.099-.055.196-.114c.489-.295 1.123-.41 1.726-.184l1.217.456a.375.375 0 0 0 .457-.164l1.297-2.246a.375.375 0 0 0-.087-.477l-1.004-.827c-.496-.409-.714-1.014-.704-1.584a6 6 0 0 0 0-.228c-.01-.57.208-1.175.704-1.584l1.004-.827a.375.375 0 0 0 .087-.477l-1.297-2.246a.375.375 0 0 0-.457-.164l-1.216.456c-.604.226-1.238.111-1.727-.184a6 6 0 0 0-.196-.113c-.499-.277-.915-.768-1.02-1.403l-.214-1.28a.375.375 0 0 0-.37-.314zm1.296 6a2.25 2.25 0 1 0 0 4.5 2.25 2.25 0 0 0 0-4.5M8.25 12a3.75 3.75 0 1 1 7.5 0 3.75 3.75 0 0 1-7.5 0" clip-rule="evenodd" style="fill:currentColor;fill-opacity:1"/>
</svg>
