<svg xmlns="http://www.w3.org/2000/svg" width="16" height="16" fill="none" viewBox="0 0 16 16">
    <path fill="#6d9e36" fill-rule="evenodd" d="M3.75 2a.25.25 0 0 0-.25.25v11.5c0 .138.112.25.25.25h8.5a.25.25 0 0 0 .25-.25v-6A1.75 1.75 0 0 0 10.75 6h-1C9.06 6 8.5 5.44 8.5 4.75v-1A1.75 1.75 0 0 0 6.75 2zm0-1c-.69 0-1.25.56-1.25 1.25v11.5c0 .69.56 1.25 1.25 1.25h8.5c.69 0 1.25-.56 1.25-1.25V7.5A6.5 6.5 0 0 0 7 1zm5.421 1.445c.21.388.329.833.329 1.305v1c0 .138.112.25.25.25h1c.472 0 .916.119 1.305.329A5.52 5.52 0 0 0 9.17 2.445M8 7a.5.5 0 0 1 .5.5V9H10a.5.5 0 0 1 0 1H8.5v1.5a.5.5 0 0 1-1 0V10H6a.5.5 0 0 1 0-1h1.5V7.5A.5.5 0 0 1 8 7" clip-rule="evenodd" style="fill:#6d9e36;fill:color(display-p3 .4275 .6196 .2118);fill-opacity:1"/>
</svg>
