<svg xmlns="http://www.w3.org/2000/svg" width="24" height="24" fill="currentColor" viewBox="0 0 24 24">
    <path fill-rule="evenodd" d="M1.5 6.75a3 3 0 0 1 3-3h15a3 3 0 0 1 3 3v10.5a3 3 0 0 1-3 3h-15a3 3 0 0 1-3-3zm1.5 0v.243c0 .52.27 1.004.714 1.277l7.5 4.616a1.5 1.5 0 0 0 1.572 0l7.5-4.616A1.5 1.5 0 0 0 21 6.993V6.75a1.5 1.5 0 0 0-1.5-1.5h-15A1.5 1.5 0 0 0 3 6.75m18 2.842-7.428 4.571a3 3 0 0 1-3.144 0L3 9.593v7.657a1.5 1.5 0 0 0 1.5 1.5h15a1.5 1.5 0 0 0 1.5-1.5z" clip-rule="evenodd" style="fill:currentColor;fill-opacity:1"/>
</svg>
