<svg xmlns="http://www.w3.org/2000/svg" width="35" height="32" fill="none" viewBox="0 0 35 32">
    <path fill="currentColor" fill-rule="evenodd" d="M19.665 4.255c-.963-1.668-3.37-1.668-4.331 0L3.076 25.5c-.961 1.667.242 3.75 2.166 3.75h24.514c1.924 0 3.127-2.083 2.166-3.75zm-6.497-1.25c1.924-3.335 6.738-3.335 8.662 0l12.257 21.246c1.923 3.333-.483 7.499-4.33 7.499H5.241c-3.848 0-6.254-4.166-4.331-7.499zM17.5 11.75c.69 0 1.25.56 1.25 1.25v6.25a1.25 1.25 0 1 1-2.5 0V13c0-.69.56-1.25 1.25-1.25m-1.25 12.5c0-.69.56-1.25 1.25-1.25h.013c.69 0 1.25.56 1.25 1.25v.012c0 .69-.56 1.25-1.25 1.25H17.5c-.69 0-1.25-.56-1.25-1.25z" clip-rule="evenodd" style="fill:currentColor;fill-opacity:1"/>
</svg>
