<svg xmlns="http://www.w3.org/2000/svg" width="16" height="14" viewBox="0 0 16 14" fill="none">
  <path fill-rule="evenodd" clip-rule="evenodd" d="M1.64643 0.646447C1.84169 0.451184 2.15827 0.451184 2.35353 0.646447L4.22504 2.51795C5.33408 1.87078 6.62435 1.5 7.99997 1.5C11.3978 1.5 14.2667 3.75919 15.189 6.85632C15.2167 6.94938 15.2167 7.0485 15.189 7.14157C14.7395 8.65275 13.8273 9.96343 12.6172 10.9102L14.3535 12.6464C14.5488 12.8417 14.5488 13.1583 14.3535 13.3536C14.1583 13.5488 13.8417 13.5488 13.6464 13.3536L1.64643 1.35355C1.45116 1.15829 1.45116 0.841709 1.64643 0.646447ZM11.9041 10.197C12.9632 9.39984 13.7706 8.28683 14.1863 6.99909C13.3424 4.38785 10.891 2.5 7.99997 2.5C6.90112 2.5 5.86693 2.7723 4.96012 3.25304L6.62134 4.91425C7.01647 4.65267 7.49066 4.5 7.99998 4.5C9.38069 4.5 10.5 5.61929 10.5 7C10.5 7.50932 10.3473 7.98351 10.0857 8.37864L11.9041 10.197ZM9.35389 7.6468C9.44763 7.45099 9.49998 7.23176 9.49998 7C9.49998 6.17157 8.82841 5.5 7.99998 5.5C7.76822 5.5 7.54899 5.55235 7.35318 5.64609L9.35389 7.6468ZM2.97619 4.09998C3.18701 4.27832 3.21335 4.5938 3.03501 4.80463C2.4947 5.44336 2.07572 6.18727 1.81303 7.00091C2.65691 9.61215 5.10831 11.5 7.99938 11.5C8.61464 11.5 9.20914 11.4147 9.77209 11.2555C10.0378 11.1803 10.3141 11.3348 10.3893 11.6005C10.4644 11.8663 10.3099 12.1426 10.0442 12.2177C9.39359 12.4017 8.70755 12.5 7.99938 12.5C4.6015 12.5 1.73259 10.2408 0.810345 7.14368C0.782634 7.05062 0.782619 6.9515 0.810303 6.85843C1.10911 5.85387 1.61244 4.93793 2.27153 4.1588C2.44987 3.94797 2.76536 3.92163 2.97619 4.09998Z" fill="currentColor" style="fill:currentColor;fill:color(currentColor);fill-opacity:1;"/>
</svg>