<svg xmlns="http://www.w3.org/2000/svg" width="25" height="24" fill="none" viewBox="0 0 25 24">
    <path fill="currentColor" fill-rule="evenodd" d="M3.5 2.25a.75.75 0 0 1 .75.75v.54l1.838-.46a9.75 9.75 0 0 1 6.725.738l.108.054a8.25 8.25 0 0 0 5.58.652l3.109-.732a.75.75 0 0 1 .917.81 47.8 47.8 0 0 0 .005 10.337.75.75 0 0 1-.574.812l-3.114.733a9.75 9.75 0 0 1-6.594-.77l-.108-.054a8.25 8.25 0 0 0-5.69-.625l-2.202.55V21a.75.75 0 0 1-1.5 0V3a.75.75 0 0 1 .75-.75m.75 11.79 1.838-.46a9.75 9.75 0 0 1 6.725.738l.108.054a8.25 8.25 0 0 0 5.58.652l2.472-.582a49.3 49.3 0 0 1-.04-8.95l-2.09.492a9.75 9.75 0 0 1-6.593-.77l-.108-.054a8.25 8.25 0 0 0-5.69-.625l-2.202.55z" clip-rule="evenodd" style="fill:currentColor;fill:color(currentColor);fill-opacity:1"/>
</svg>
