<svg xmlns="http://www.w3.org/2000/svg" width="14" height="11" viewBox="0 0 14 11" fill="none">
  <path fill-rule="evenodd" clip-rule="evenodd" d="M0 1.5C0 0.671573 0.671573 0 1.5 0H12.5C13.3284 0 14 0.671573 14 1.5V9.5C14 10.3284 13.3284 11 12.5 11H1.5C0.671573 11 0 10.3284 0 9.5V1.5ZM1 8.20711V9.5C1 9.77614 1.22386 10 1.5 10H12.5C12.7761 10 13 9.77614 13 9.5V8.20711L11.2071 6.41421C10.8166 6.02369 10.1834 6.02369 9.79289 6.41421L9.20711 7L9.85355 7.64645C10.0488 7.84171 10.0488 8.15829 9.85355 8.35355C9.65829 8.54882 9.34171 8.54882 9.14645 8.35355L5.70711 4.91421C5.31658 4.52369 4.68342 4.52369 4.29289 4.91421L1 8.20711ZM8.5 6.29289L6.41421 4.20711C5.63317 3.42606 4.36684 3.42606 3.58579 4.20711L1 6.79289V1.5C1 1.22386 1.22386 1 1.5 1H12.5C12.7761 1 13 1.22386 13 1.5V6.79289L11.9142 5.70711C11.1332 4.92606 9.86684 4.92606 9.08579 5.70711L8.5 6.29289ZM7.75 3C7.75 2.58579 8.08579 2.25 8.5 2.25C8.91421 2.25 9.25 2.58579 9.25 3C9.25 3.41421 8.91421 3.75 8.5 3.75C8.08579 3.75 7.75 3.41421 7.75 3Z" fill="currentColor" style="fill:currentColor;fill:currentColor;fill-opacity:1;"/>
</svg>