<svg xmlns="http://www.w3.org/2000/svg" width="17" height="17" fill="none" viewBox="0 0 17 17">
    <path fill="currentColor" fill-rule="evenodd" d="M3.926 5.476a7.5 7.5 0 0 0 1.284.797c.16-.827.406-1.577.721-2.208q.144-.289.314-.552a5.5 5.5 0 0 0-2.319 1.963M8.5 2.03a6.498 6.498 0 0 0-6.295 8.127 6.503 6.503 0 0 0 12.59 0c.134-.52.205-1.066.205-1.627a6.5 6.5 0 0 0-6.5-6.5m0 1c-.537 0-1.158.449-1.674 1.481-.294.588-.527 1.32-.67 2.146A7.5 7.5 0 0 0 8.5 7.03c.819 0 1.607-.13 2.344-.373-.143-.826-.376-1.558-.67-2.146-.516-1.032-1.137-1.48-1.674-1.48m3.29 3.242c-.16-.827-.406-1.577-.721-2.208a6 6 0 0 0-.315-.552 5.5 5.5 0 0 1 2.32 1.963 7.5 7.5 0 0 1-1.284.797m-.822 1.394a8.5 8.5 0 0 1-2.468.364 8.5 8.5 0 0 1-2.468-.364Q6 8.09 6 8.531c0 .816.085 1.586.235 2.277a11.6 11.6 0 0 0 4.53 0c.15-.691.235-1.461.235-2.277q0-.442-.032-.864m.867 2.873a12.4 12.4 0 0 0 .105-3.234 8.5 8.5 0 0 0 1.617-.942 5.5 5.5 0 0 1 .319 3.336c-.646.342-1.329.625-2.04.84m-1.374 1.338a12.6 12.6 0 0 1-3.922 0q.131.36.287.672c.516 1.033 1.137 1.481 1.674 1.481s1.158-.448 1.674-1.48q.156-.312.287-.673m.294 1.671q.17-.263.313-.551c.203-.405.377-.859.518-1.35a12.4 12.4 0 0 0 1.813-.613 5.52 5.52 0 0 1-2.644 2.514m-4.51 0a6 6 0 0 1-.314-.551 8 8 0 0 1-.517-1.35 12.4 12.4 0 0 1-1.813-.613 5.52 5.52 0 0 0 2.644 2.514M3.125 9.7c.645.343 1.328.625 2.04.84a12.4 12.4 0 0 1-.105-3.234 8.5 8.5 0 0 1-1.617-.942A5.5 5.5 0 0 0 3.124 9.7" clip-rule="evenodd" style="fill:currentColor;fill-opacity:1"/>
</svg>
