<svg xmlns="http://www.w3.org/2000/svg" width="14" height="14" fill="none" viewBox="0 0 14 14">
    <path fill="currentColor" fill-rule="evenodd" d="M7.177 1.384a.25.25 0 0 0-.354 0L2.5 5.707v6.543c0 .138.112.25.25.25H5V9.75c0-.69.56-1.25 1.25-1.25h1.5C8.44 8.5 9 9.06 9 9.75v2.75h2.25a.25.25 0 0 0 .25-.25V5.707zM12.5 6.707l.646.646a.5.5 0 0 0 .708-.707L7.884.676a1.25 1.25 0 0 0-1.768 0l-5.97 5.97a.5.5 0 0 0 .708.707l.646-.646v5.543c0 .69.56 1.25 1.25 1.25h8.5c.69 0 1.25-.56 1.25-1.25zM8 12.5H6V9.75a.25.25 0 0 1 .25-.25h1.5a.25.25 0 0 1 .25.25z" clip-rule="evenodd" style="fill:currentColor;fill-opacity:1"/>
</svg>
