<svg xmlns="http://www.w3.org/2000/svg" width="26" height="26" fill="currentColor" viewBox="0 0 26 26">
    <path fill-rule="evenodd" d="M20.507 3.243a.79.79 0 0 1-.473 1.013l-1.06.386v5.417l4.203 1.4a.79.79 0 1 1-.5 1.5l-.54-.18v8.918h.79a.79.79 0 1 1 0 1.58H2.372a.79.79 0 0 1 0-1.58h.79V10.392l-.52.189a.79.79 0 0 1-.54-1.486l1.06-.386V3.513a.79.79 0 0 1 .791-.79h3.162a.79.79 0 0 1 .79.79v3.471l11.59-4.214a.79.79 0 0 1 1.012.473M6.325 7.56V4.304H4.744v3.83zM4.744 9.817v11.88h3.162v-4.349c0-1.091.885-1.976 1.976-1.976h2.372c1.092 0 1.976.885 1.976 1.976v4.349h3.163V5.217zm14.23 1.908v9.972h1.58v-9.444zm-9.487 9.972h3.162v-4.349a.395.395 0 0 0-.395-.395H9.882a.395.395 0 0 0-.395.395z" clip-rule="evenodd" style="fill:currentColor;fill-opacity:1"/>
</svg>
