<svg xmlns="http://www.w3.org/2000/svg" width="16" height="16" fill="none" viewBox="0 0 16 16">
    <path fill="currentColor" d="M7.646 2.56a.5.5 0 0 1 .708 0l5.792 5.793a.5.5 0 0 0 .708-.707L9.06 1.853a1.5 1.5 0 0 0-2.122 0L1.146 7.646a.5.5 0 1 0 .708.707z" style="fill:currentColor;fill-opacity:1"/>
    <path fill="currentColor" d="m8 3.621 5.44 5.44.06.057v4.132c0 .69-.56 1.25-1.25 1.25H10a.5.5 0 0 1-.5-.5v-3a.5.5 0 0 0-.5-.5H7a.5.5 0 0 0-.5.5v3a.5.5 0 0 1-.5.5H3.75c-.69 0-1.25-.56-1.25-1.25V9.118l.06-.057z" style="fill:currentColor;fill-opacity:1"/>
</svg>
