<svg xmlns="http://www.w3.org/2000/svg" width="33" height="32" fill="none" viewBox="0 0 33 32">
    <path fill="currentColor" fill-rule="evenodd" d="M2.5 9a4 4 0 0 1 4-4h20a4 4 0 0 1 4 4v14a4 4 0 0 1-4 4h-20a4 4 0 0 1-4-4zm4-2a2 2 0 0 0-2 2v14a2 2 0 0 0 2 2h20a2 2 0 0 0 2-2V9a2 2 0 0 0-2-2zm5.5 4a1.5 1.5 0 1 0 0 3 1.5 1.5 0 0 0 0-3m-3.5 1.5a3.5 3.5 0 1 1 7 0 3.5 3.5 0 0 1-7 0m11-.5a1 1 0 0 1 1-1h5a1 1 0 1 1 0 2h-5a1 1 0 0 1-1-1m0 4a1 1 0 0 1 1-1h5a1 1 0 1 1 0 2h-5a1 1 0 0 1-1-1M9.144 20.476A8 8 0 0 0 12 21c1.007 0 1.97-.186 2.855-.524A3.5 3.5 0 0 0 12 19a3.5 3.5 0 0 0-2.856 1.476m-2.308.128a5.502 5.502 0 0 1 10.328 0 1 1 0 0 1-.469 1.227A9.96 9.96 0 0 1 12 23a9.96 9.96 0 0 1-4.696-1.169 1 1 0 0 1-.468-1.227M19.5 20a1 1 0 0 1 1-1h5a1 1 0 1 1 0 2h-5a1 1 0 0 1-1-1" clip-rule="evenodd" style="fill:currentColor;fill-opacity:1"/>
</svg>
