<svg xmlns="http://www.w3.org/2000/svg" width="33" height="32" fill="none" viewBox="0 0 33 32">
    <path fill="currentColor" fill-rule="evenodd" d="M11.13 6a2 2 0 0 0-1.519.698L5.924 11h4.22a4 4 0 0 1 3.329 1.781l.218.328a2 2 0 0 0 1.665.891h2.788a2 2 0 0 0 1.665-.89l.218-.329A4 4 0 0 1 23.356 11h4.22l-3.687-4.302A2 2 0 0 0 22.37 6zm17.617 7h-5.391a2 2 0 0 0-1.665.89l-.218.329A4 4 0 0 1 18.144 16h-2.788a4 4 0 0 1-3.329-1.781l-.218-.328A2 2 0 0 0 10.144 13H4.753l-.003.11V16a2 2 0 0 0 2 2h20a2 2 0 0 0 2-2v-2.89q0-.055-.003-.11m1.078 5.558A3.98 3.98 0 0 0 30.75 16v-2.89a4 4 0 0 0-.963-2.603l-4.38-5.11A4 4 0 0 0 22.37 4H11.13a4 4 0 0 0-3.037 1.397l-4.38 5.11a4 4 0 0 0-.963 2.603V16c0 .973.347 1.865.925 2.558A2.5 2.5 0 0 0 2.75 20.5V24a4 4 0 0 0 4 4h20a4 4 0 0 0 4-4v-3.5c0-.784-.36-1.483-.925-1.942M5.25 20a.5.5 0 0 0-.5.5V24a2 2 0 0 0 2 2h20a2 2 0 0 0 2-2v-3.5a.5.5 0 0 0-.5-.5h-5.446l-1.325 2.12A4 4 0 0 1 18.087 24h-2.674a4 4 0 0 1-3.392-1.88L10.696 20zm7.804 0 .663 1.06a2 2 0 0 0 1.696.94h2.674a2 2 0 0 0 1.696-.94l.663-1.06z" clip-rule="evenodd" style="fill:currentColor;fill-opacity:1"/>
</svg>
