<svg xmlns="http://www.w3.org/2000/svg" width="25" height="24" fill="none" viewBox="0 0 25 24">
    <path fill="currentColor" fill-rule="evenodd" d="M2.34 12c0-5.385 4.365-9.75 9.75-9.75s9.75 4.365 9.75 9.75-4.365 9.75-9.75 9.75S2.34 17.385 2.34 12m8.706-1.442c1.147-.573 2.437.463 2.126 1.706l-.709 2.836.042-.02a.75.75 0 0 1 .67 1.34l-.04.022c-1.147.573-2.438-.463-2.127-1.706l.71-2.836-.042.02a.75.75 0 1 1-.671-1.34zM12.09 9a.75.75 0 1 0 0-1.5.75.75 0 0 0 0 1.5" clip-rule="evenodd" style="fill:currentColor;fill-opacity:1"/>
</svg>
