<svg xmlns="http://www.w3.org/2000/svg" width="41" height="40" fill="none" viewBox="0 0 41 40">
    <path fill="currentColor" fill-rule="evenodd" d="M20.5 6.25C12.906 6.25 6.75 12.406 6.75 20s6.156 13.75 13.75 13.75S34.25 27.594 34.25 20 28.094 6.25 20.5 6.25M4.25 20c0-8.975 7.275-16.25 16.25-16.25S36.75 11.025 36.75 20 29.475 36.25 20.5 36.25 4.25 28.975 4.25 20m15-6.25c0-.69.56-1.25 1.25-1.25h.012c.69 0 1.25.56 1.25 1.25v.012c0 .69-.56 1.25-1.25 1.25H20.5c-.69 0-1.25-.56-1.25-1.25zm-.49 3.847c1.91-.955 4.061.77 3.543 2.843l-1.181 4.726.069-.034a1.25 1.25 0 1 1 1.118 2.236l-.07.035c-1.91.955-4.06-.77-3.543-2.843l1.182-4.726-.069.034a1.25 1.25 0 1 1-1.118-2.236z" clip-rule="evenodd" style="fill:currentColor;fill-opacity:1"/>
</svg>
