<svg xmlns="http://www.w3.org/2000/svg" width="49" height="35" fill="none" viewBox="0 0 49 35">
    <path fill="#3674ce" d="M17 2.842v7.293l-8.297 8.162V2.842c0-1.527 1.26-2.759 2.804-2.759h2.69C15.747.083 17 1.315 17 2.842" style="fill:#3674ce;fill:color(display-p3 .2118 .4549 .8078);fill-opacity:1"/>
    <path fill="#ea8332" d="M17 24.54v7.618c0 1.52-1.252 2.759-2.804 2.759h-2.69c-1.367 0-2.52-.975-2.757-2.26z" style="fill:#ea8332;fill:color(display-p3 .9176 .5137 .1961);fill-opacity:1"/>
    <path fill="#ffd160" d="M39.596 32.657c-.238 1.285-1.383 2.26-2.758 2.26H34.15c-1.552 0-2.804-1.24-2.804-2.759V24.54z" style="fill:#ffd160;fill:color(display-p3 1 .8196 .3765);fill-opacity:1"/>
    <path fill="#3674ce" d="M39.643 2.842v15.455l-8.298-8.162V2.842c0-1.527 1.252-2.759 2.804-2.759h2.69c1.543 0 2.803 1.232 2.803 2.759" style="fill:#3674ce;fill:color(display-p3 .2118 .4549 .8078);fill-opacity:1"/>
    <path fill="#6d9e36" d="m47.233 31.092-1.897 1.875a2.853 2.853 0 0 1-3.972 0L26.159 18.003a2.843 2.843 0 0 0-3.965 0L6.982 32.967a2.843 2.843 0 0 1-3.965 0L1.12 31.092a2.72 2.72 0 0 1 0-3.9l17.188-16.906 3.887-3.824a2.83 2.83 0 0 1 3.965 0l21.074 20.73a2.73 2.73 0 0 1 0 3.9" style="fill:#6d9e36;fill:color(display-p3 .4275 .6196 .2118);fill-opacity:1"/>
</svg>
