<svg xmlns="http://www.w3.org/2000/svg" width="16" height="16" fill="none" viewBox="0 0 16 16">
    <path fill="currentColor" fill-rule="evenodd" d="M4.8 3.8a.6.6 0 0 1 .6-.6h8.4a.6.6 0 1 1 0 1.2H5.4a.6.6 0 0 1-.6-.6m0 4.2a.6.6 0 0 1 .6-.6h8.4a.6.6 0 1 1 0 1.2H5.4a.6.6 0 0 1-.6-.6m0 4.2a.6.6 0 0 1 .6-.6h8.4a.6.6 0 1 1 0 1.2H5.4a.6.6 0 0 1-.6-.6M1.592 3.8a.8.8 0 0 1 .8-.8H2.4a.8.8 0 0 1 .8.8v.008a.8.8 0 0 1-.8.8h-.008a.8.8 0 0 1-.8-.8zm0 8.4a.8.8 0 0 1 .8-.8H2.4a.8.8 0 0 1 .8.8v.008a.8.8 0 0 1-.8.8h-.008a.8.8 0 0 1-.8-.8zm0-4.2a.8.8 0 0 1 .8-.8H2.4a.8.8 0 0 1 .8.8v.008a.8.8 0 0 1-.8.8h-.008a.8.8 0 0 1-.8-.8z" clip-rule="evenodd" style="fill:currentColor;fill-opacity:1"/>
</svg>
