<svg xmlns="http://www.w3.org/2000/svg" width="102" height="27" fill="none" viewBox="0 0 102 27">
    <path fill="#606060" fill-rule="evenodd" d="M74.167 23.265v.016q.88 0 1.37.402.49.419.49 1.142 0 1.672-2.709 1.752-2.056.064-4.095 0V20.05a55 55 0 0 1 4.193 0q2.513.096 2.513 1.592 0 .755-.457 1.19-.473.417-1.305.433m-4.129-2.508v2.187h3.313q.456 0 .783-.08t.506-.178a.94.94 0 0 0 .293-.289 1.1 1.1 0 0 0 .131-.29q.016-.143.016-.305 0-.964-1.697-1.045a35 35 0 0 0-3.344 0m3.33 2.894h-3.33v2.219a35 35 0 0 0 3.345 0q1.812-.08 1.812-1.142 0-1.077-1.828-1.077m6.526 3.023h-.637q-.848 0-1.354-.129-.49-.129-.767-.45a1.6 1.6 0 0 1-.359-.707q-.081-.403-.081-1.158 0-.402.016-.788.082-.788.375-1.093.294-.29.8-.418.49-.129 1.37-.129h.637q1.63 0 2.17.547.164.177.26.482.132.466.131 1.399 0 .756-.097 1.157a1.45 1.45 0 0 1-.343.708q-.278.321-.783.45-.49.129-1.338.129m-.588-.676h.539q.653 0 .995-.08a1 1 0 0 0 .538-.305q.18-.226.245-.499.05-.29.05-.884 0-.322-.017-.595-.017-.563-.245-.788-.342-.37-1.566-.37h-.539q-.686 0-1.044.08a.9.9 0 0 0-.522.306q-.18.225-.212.53-.05.226-.05.837 0 .594.066.884a1.1 1.1 0 0 0 .229.498q.195.225.538.306.36.08.995.08m5.45-.016h.163v.692q-.978 0-1.289-.306-.31-.305-.31-1.35V20.05h.832v4.678q0 .773.05.933.098.29.554.321m1.779-6.318v.932h-.93v-.932zm-.066 2.25v4.663h-.816v-4.662zm.604 0h.914a41 41 0 0 0 2.235 3.779h.016a38 38 0 0 0 2.236-3.778h.897a53 53 0 0 1-2.725 4.662h-.848a62 62 0 0 1-2.725-4.662m7.8-2.25v.932h-.93v-.932zm-.066 2.25v4.663h-.816v-4.662zm.881 2.316q0-.402.016-.788.082-.788.376-1.093.293-.29.8-.418.489-.129 1.37-.129h.49q1.533 0 1.859.708l.115-.595h.718v4.662h-.767l-.066-.691a1.08 1.08 0 0 1-.62.595q-.44.193-1.24.193h-.49q-.847 0-1.353-.129-.49-.129-.767-.45a1.6 1.6 0 0 1-.36-.707q-.08-.403-.08-1.158m.783 0q0 .594.066.884a1.1 1.1 0 0 0 .228.498q.195.225.538.306.36.08.996.08h.506q.652 0 .995-.08a.9.9 0 0 0 .522-.305q.18-.226.245-.499.049-.273.049-.884 0-.306-.017-.595-.016-.578-.228-.788-.342-.37-1.566-.37H98.3q-.685 0-1.044.08a.9.9 0 0 0-.523.306q-.18.225-.212.53-.048.226-.049.837" clip-rule="evenodd" style="fill:#606060;fill:color(display-p3 .3765 .3765 .3765);fill-opacity:1"/>
    <path fill="#3674ce" d="M9.656 16.954v-5.59h-6.3v5.59H.216V2.981h3.14v5.49h6.3V2.98h3.14v13.973zm4.862-5.21c0-3.234 2.27-5.39 5.693-5.39 3.444 0 5.733 2.156 5.733 5.39 0 3.214-2.29 5.37-5.733 5.37-3.424 0-5.693-2.156-5.693-5.37m3.039 0c0 1.597 1.053 2.675 2.654 2.675 1.62 0 2.694-1.078 2.694-2.675 0-1.617-1.074-2.695-2.694-2.695-1.6 0-2.654 1.078-2.654 2.695m16.42-.758c1.256.518 2.107 1.676 2.107 2.854 0 1.956-1.783 3.274-4.457 3.274-2.208 0-4.234-.998-5.044-2.516l2.33-1.556c.627.818 1.843 1.377 3.038 1.377.648 0 1.094-.22 1.094-.559 0-.16-.243-.36-.608-.48-2.248-.778-3.585-1.217-3.383-1.117-1.195-.519-1.985-1.597-1.985-2.695 0-1.936 1.823-3.213 4.538-3.213 1.843 0 3.606.758 4.376 1.876l-2.006 1.896c-.628-.639-1.803-1.078-2.958-1.078-.547 0-.911.2-.911.5 0 .179.85.498 2.107.838.567.16 1.276.399 1.762.598m-4.923 1.277.142.06c-.142-.04-.203-.06-.142-.06m8.247 8.684V6.574h2.938v.539c.506-.46 1.438-.759 2.35-.759 3.12 0 5.186 2.096 5.186 5.25 0 3.314-2.107 5.51-5.267 5.51-1.094 0-2.006-.2-2.27-.52v4.352zM42.265 9.05c-.83 0-1.641.48-2.026 1.178v3.314c.385.519 1.134.878 1.864.878 1.58 0 2.633-1.038 2.633-2.595 0-1.657-.992-2.775-2.471-2.775m14.526-7.087-2.674 3.274-2.026-1.398L54.583.326zm.263 11.318 1.763 1.757c-1.074 1.337-2.37 2.076-4.538 2.076-3.647 0-5.693-1.298-5.693-5.37 0-3.453 1.317-5.39 5.47-5.39 3.221 0 5.024 1.138 5.024 4.771 0 .4-.04.879-.162 1.677h-7.252c.263 1.038.952 1.617 2.653 1.617 1.155 0 2.026-.28 2.735-1.138m-3.1-4.332c-1.073 0-1.802.32-2.228 1.358h4.315c-.243-.878-.77-1.358-2.086-1.358M67.5 16.954v-.818c-.567.618-1.317.978-2.654.978-3.18 0-4.963-1.278-4.963-5.33 0-3.473 1.236-5.43 5.146-5.43 1.073 0 1.863.12 2.471.5V2.382h2.938v14.572zm-2.026-2.535c.953 0 1.6-.3 2.026-1.218V9.848c-.405-.52-.932-.799-1.843-.799-1.743 0-2.735.64-2.735 2.695 0 1.717.608 2.675 2.552 2.675m8.244-4.372L72.32 7.951c.932-.958 2.796-1.596 4.64-1.596 2.593 0 4.315 1.716 4.315 4.311v6.288h-2.938v-.938c-.547.639-1.681 1.058-2.836 1.058-2.31 0-3.849-1.358-3.849-3.394 0-2.056 1.904-3.413 4.781-3.413.71 0 1.479.1 1.904.26.02-.879-.668-1.478-1.701-1.478-.892 0-2.046.4-2.918.998m2.39 4.532c.953 0 1.844-.48 2.23-1.178v-.48c-.426-.159-1.074-.259-1.601-.259-1.236 0-2.046.4-2.046 1.018 0 .54.567.899 1.418.899m6.123-5.31V6.574h2.005V4.16h2.938v2.415h3.221V9.27h-3.221v3.373c0 1.118.263 1.737 1.074 1.737.587 0 1.134-.16 1.803-.679l1.215 2.056c-.81.839-1.762 1.318-3.302 1.318-2.39 0-3.728-.859-3.728-3.573V9.269zm17.378 4.012 1.762 1.757c-.992 1.237-2.816 2.076-4.538 2.076-3.423 0-5.692-2.156-5.692-5.37 0-3.234 2.188-5.39 5.47-5.39 3.018 0 5.024 1.917 5.024 4.771 0 .36-.061 1.038-.162 1.677h-7.253c.243.978 1.317 1.617 2.654 1.617 1.074 0 2.168-.46 2.735-1.138m-3.1-4.332c-1.013 0-1.904.54-2.228 1.358h4.315c-.223-.819-1.054-1.358-2.087-1.358" style="fill:#3674ce;fill:color(display-p3 .2118 .4549 .8078);fill-opacity:1"/>
</svg>
