<svg xmlns="http://www.w3.org/2000/svg" width="16" height="16" fill="none" viewBox="0 0 16 16">
    <path fill="currentColor" fill-rule="evenodd" d="M6.112 2.615a.25.25 0 0 0-.224 0L2.638 4.24a.25.25 0 0 0-.138.223v8.323a.25.25 0 0 0 .362.224l2.579-1.29a1.25 1.25 0 0 1 1.118 0l3.33 1.665a.25.25 0 0 0 .223 0l3.25-1.625a.25.25 0 0 0 .138-.224V3.213a.25.25 0 0 0-.362-.223L10.56 4.28a1.25 1.25 0 0 1-1.118 0zM5.44 1.72a1.25 1.25 0 0 1 1.118 0l3.33 1.665a.25.25 0 0 0 .223 0l2.579-1.29a1.25 1.25 0 0 1 1.81 1.118v8.323c0 .474-.268.907-.691 1.118l-3.25 1.625a1.25 1.25 0 0 1-1.118 0l-3.33-1.664a.25.25 0 0 0-.223 0l-2.579 1.29a1.25 1.25 0 0 1-1.809-1.12V4.463c0-.473.268-.906.691-1.118zM6 4a.5.5 0 0 1 .5.5V10a.5.5 0 1 1-1 0V4.5A.5.5 0 0 1 6 4m4 1.5a.5.5 0 0 1 .5.5v5.5a.5.5 0 0 1-1 0V6a.5.5 0 0 1 .5-.5" clip-rule="evenodd" style="fill:currentColor;fill-opacity:1"/>
</svg>
