<svg xmlns="http://www.w3.org/2000/svg" width="32" height="32" fill="none" viewBox="0 0 32 32">
    <path fill="currentColor" fill-rule="evenodd" d="M3 6.5A2.5 2.5 0 0 1 5.5 4h15A2.5 2.5 0 0 1 23 6.5V9h3.5a2.5 2.5 0 0 1 2.5 2.5V24a4 4 0 0 1-4 4H7a4 4 0 0 1-4-4zM21.535 26H7a2 2 0 0 1-2-2V6.5a.5.5 0 0 1 .5-.5h15a.5.5 0 0 1 .5.5V24c0 .729.195 1.412.535 2M25 26a2 2 0 0 0 2-2V11.5a.5.5 0 0 0-.5-.5H23v13a2 2 0 0 0 2 2M7 10a1 1 0 0 1 1-1h4a1 1 0 0 1 1 1v4a1 1 0 0 1-1 1H8a1 1 0 0 1-1-1zm2 1v2h2v-2zm6-1a1 1 0 0 1 1-1h2a1 1 0 1 1 0 2h-2a1 1 0 0 1-1-1m0 4a1 1 0 0 1 1-1h2a1 1 0 1 1 0 2h-2a1 1 0 0 1-1-1m-8 4a1 1 0 0 1 1-1h10a1 1 0 1 1 0 2H8a1 1 0 0 1-1-1m0 4a1 1 0 0 1 1-1h10a1 1 0 1 1 0 2H8a1 1 0 0 1-1-1" clip-rule="evenodd" style="fill:currentColor;fill-opacity:1"/>
</svg>
