<svg xmlns="http://www.w3.org/2000/svg" width="16" height="16" fill="none" viewBox="0 0 16 16">
    <path fill="currentColor" fill-rule="evenodd" d="M3.86 1.627a.5.5 0 0 1 .04.706 5.5 5.5 0 0 0-1.325 2.75.5.5 0 0 1-.986-.166 6.5 6.5 0 0 1 1.565-3.25.5.5 0 0 1 .706-.04m8.278 0a.5.5 0 0 1 .706.04 6.5 6.5 0 0 1 1.565 3.25.5.5 0 1 1-.986.166 5.5 5.5 0 0 0-1.324-2.75.5.5 0 0 1 .039-.706M7.999 2.5A3.5 3.5 0 0 0 4.5 6v.5c0 1.406-.447 2.71-1.206 3.773A15.4 15.4 0 0 0 7.999 11q.937 0 1.846-.109a15.4 15.4 0 0 0 2.86-.618A6.47 6.47 0 0 1 11.5 6.5V6A3.5 3.5 0 0 0 8 2.5M3.5 6a4.5 4.5 0 0 1 9 0v.5a5.48 5.48 0 0 0 1.412 3.68.5.5 0 0 1-.198.804c-1.03.38-2.107.66-3.22.829q.006.093.006.187a2.5 2.5 0 1 1-4.993-.187 16.4 16.4 0 0 1-3.221-.83.5.5 0 0 1-.198-.803A5.48 5.48 0 0 0 3.499 6.5zm3.002 5.933L6.499 12a1.5 1.5 0 1 0 2.999-.067 16.7 16.7 0 0 1-2.997 0" clip-rule="evenodd" style="fill:currentColor;fill-opacity:1"/>
</svg>
