<svg xmlns="http://www.w3.org/2000/svg" width="16" height="16" fill="none" viewBox="0 0 16 16">
    <path fill="currentColor" fill-rule="evenodd" d="M13.78 2.22a.75.75 0 0 0-1.06 0l-.772.771 1.06 1.06.772-.77a.75.75 0 0 0 0-1.061m-1.478 2.539-1.06-1.06-5.601 5.6a2.5 2.5 0 0 0-.629 1.054l-.269.904.904-.27a2.5 2.5 0 0 0 1.054-.628zm-.29-3.246a1.75 1.75 0 1 1 2.475 2.474l-7.079 7.08a3.5 3.5 0 0 1-1.475.879l-1.79.533a.5.5 0 0 1-.622-.622l.533-1.79a3.5 3.5 0 0 1 .88-1.475zM3.5 4.5a1 1 0 0 0-1 1v7a1 1 0 0 0 1 1h7a1 1 0 0 0 1-1V9.333a.5.5 0 0 1 1 0V12.5a2 2 0 0 1-2 2h-7a2 2 0 0 1-2-2v-7a2 2 0 0 1 2-2h3.167a.5.5 0 0 1 0 1z" clip-rule="evenodd" style="fill:currentColor;fill-opacity:1"/>
</svg>
