<svg xmlns="http://www.w3.org/2000/svg" width="14" height="12" fill="none" viewBox="0 0 14 12">
    <path fill="currentColor" fill-rule="evenodd" d="M0 2A1.5 1.5 0 0 1 1.5.5h11A1.5 1.5 0 0 1 14 2v8a1.5 1.5 0 0 1-1.5 1.5h-11A1.5 1.5 0 0 1 0 10zm1 6.707V10a.5.5 0 0 0 .5.5h11a.5.5 0 0 0 .5-.5V8.707l-1.793-1.793a1 1 0 0 0-1.414 0l-.586.586.647.646a.5.5 0 0 1-.708.708l-3.439-3.44a1 1 0 0 0-1.414 0zm7.5-1.914L6.414 4.707a2 2 0 0 0-2.828 0L1 7.293V2a.5.5 0 0 1 .5-.5h11a.5.5 0 0 1 .5.5v5.293l-1.086-1.086a2 2 0 0 0-2.828 0zM7.75 3.5a.75.75 0 1 1 1.5 0 .75.75 0 0 1-1.5 0" clip-rule="evenodd" style="fill:currentColor;fill-opacity:1"/>
</svg>
