<svg xmlns="http://www.w3.org/2000/svg" width="16" height="16" fill="none" viewBox="0 0 16 16">
    <path fill="#1f2d4c" d="M14 3.636C14 2.733 13.267 2 12.364 2h-2.182a.545.545 0 0 0 0 1.09h2.182c.3 0 .545.245.545.546v2.182a.545.545 0 1 0 1.091 0zm0 6.546a.545.545 0 0 0-1.09 0v2.182a.545.545 0 0 1-.546.545h-2.182a.545.545 0 1 0 0 1.091h2.182c.903 0 1.636-.733 1.636-1.636zM3.636 12.91a.545.545 0 0 1-.545-.546v-2.182a.545.545 0 0 0-1.091 0v2.182C2 13.267 2.733 14 3.636 14h2.182a.545.545 0 0 0 0-1.09zM2 5.818a.545.545 0 1 0 1.09 0V3.636c0-.3.245-.545.546-.545h2.182a.545.545 0 1 0 0-1.091H3.636C2.733 2 2 2.733 2 3.636z" style="fill:#1f2d4c;fill:color(display-p3 .1216 .1765 .298);fill-opacity:1"/>
    <path fill="#1f2d4c" fill-rule="evenodd" d="M7.455 4.727a.545.545 0 0 0-.546-.545H4.727a.545.545 0 0 0-.545.545V6.91c0 .301.244.546.545.546H6.91a.545.545 0 0 0 .546-.546zm-1.091.818a.273.273 0 0 0-.273-.272h-.546a.273.273 0 0 0-.272.272v.546c0 .15.122.273.272.273h.546c.15 0 .273-.122.273-.273zm4.909 3c.301 0 .545.245.545.546v2.182a.545.545 0 0 1-.545.545H9.09a.545.545 0 0 1-.546-.545V9.09c0-.301.245-.546.546-.546zM9.636 9.91c0-.15.122-.273.273-.273h.545c.151 0 .273.122.273.273v.545a.273.273 0 0 1-.273.273H9.91a.273.273 0 0 1-.273-.273z" clip-rule="evenodd" style="fill:#1f2d4c;fill:color(display-p3 .1216 .1765 .298);fill-opacity:1"/>
    <path fill="#1f2d4c" d="M9.09 4.182a.545.545 0 1 0 0 1.09h1.364c.151 0 .273.123.273.273V6.91a.545.545 0 1 0 1.091 0V4.727a.545.545 0 0 0-.545-.545z" style="fill:#1f2d4c;fill:color(display-p3 .1216 .1765 .298);fill-opacity:1"/>
    <path fill="#1f2d4c" d="M9.09 5.818a.545.545 0 0 0-.545.546v.545a.545.545 0 1 0 1.091 0v-.545a.545.545 0 0 0-.545-.546M4.727 8.545a.545.545 0 0 0-.545.546v1.09a.545.545 0 1 0 1.09 0V9.91c0-.15.123-.273.273-.273H6.91a.545.545 0 1 0 0-1.09zm2.183 2.182a.545.545 0 1 0 0 1.091.545.545 0 0 0 0-1.09" style="fill:#1f2d4c;fill:color(display-p3 .1216 .1765 .298);fill-opacity:1"/>
</svg>
