<svg xmlns="http://www.w3.org/2000/svg" width="14" height="14" fill="none" viewBox="0 0 14 14">
    <path fill="currentColor" fill-rule="evenodd" d="M10.938 1.75a.875.875 0 1 0 0 1.75.875.875 0 0 0 0-1.75m-1.75.875a1.75 1.75 0 1 1 .48 1.205L4.757 6.56a1.75 1.75 0 0 1 0 .88l4.913 2.73a1.75 1.75 0 1 1-.425.765L4.33 8.204a1.75 1.75 0 1 1 0-2.41l4.913-2.73a1.8 1.8 0 0 1-.056-.44m-6.126 3.5a.875.875 0 1 0 0 1.75.875.875 0 0 0 0-1.75m7.876 4.375a.875.875 0 1 0-.001 1.75.875.875 0 0 0 0-1.75" clip-rule="evenodd" style="fill:currentColor;fill-opacity:1"/>
</svg>
