<svg xmlns="http://www.w3.org/2000/svg" width="25" height="24" fill="none" viewBox="0 0 25 24">
    <path fill="currentColor" fill-rule="evenodd" d="M11.984 2.17a.75.75 0 0 1 1.032 0 11.2 11.2 0 0 0 7.877 3.08.75.75 0 0 1 .722.515 12.7 12.7 0 0 1 .635 3.986c0 5.942-4.064 10.933-9.563 12.348a.75.75 0 0 1-.374 0C6.814 20.684 2.75 15.693 2.75 9.75c0-1.39.223-2.73.635-3.986a.75.75 0 0 1 .722-.515h.143c2.996 0 5.718-1.17 7.734-3.08M4.656 6.744a11.3 11.3 0 0 0-.406 3.007c0 5.173 3.493 9.533 8.25 10.845 4.757-1.312 8.25-5.672 8.25-10.845 0-1.042-.142-2.05-.406-3.007A12.7 12.7 0 0 1 12.5 3.722a12.7 12.7 0 0 1-7.844 3.022m11.28 2.396a.75.75 0 0 1 .174 1.047l-3.75 5.25a.75.75 0 0 1-1.14.094l-2.25-2.25a.75.75 0 1 1 1.06-1.06l1.624 1.623 3.236-4.53a.75.75 0 0 1 1.046-.174" clip-rule="evenodd" style="fill:currentColor;fill-opacity:1"/>
</svg>
