<svg xmlns="http://www.w3.org/2000/svg" width="24" height="24" fill="currentColor" viewBox="0 0 24 24">
    <path d="M6.97 11.463a.75.75 0 0 1 1.003.057l.051.057.139.179c.662.891.878 1.737.771 2.562-.106.816-.526 1.527-.844 2.08-.349.607-.596 1.057-.657 1.525-.049.378.02.845.491 1.478l.1.128.045.063a.75.75 0 0 1-1.162.936l-.052-.058-.138-.179c-.662-.891-.878-1.737-.771-2.562.106-.816.526-1.526.844-2.08.348-.606.596-1.056.657-1.524.049-.379-.02-.846-.491-1.479l-.1-.129-.045-.062a.75.75 0 0 1 .159-.992m4.56 0a.75.75 0 0 1 1.003.057l.052.057.138.179c.662.891.878 1.737.771 2.562-.106.816-.526 1.527-.844 2.08-.349.607-.596 1.057-.657 1.525-.049.378.02.845.491 1.478l.1.128.045.063a.75.75 0 0 1-1.162.936l-.052-.058-.138-.179c-.662-.891-.878-1.737-.771-2.562.106-.816.526-1.526.844-2.08.348-.606.596-1.056.657-1.524.049-.379-.02-.846-.491-1.479l-.1-.129-.045-.062a.75.75 0 0 1 .159-.992m4.56 0a.75.75 0 0 1 1.003.057l.052.057.138.179c.662.891.878 1.737.771 2.562-.106.816-.526 1.527-.844 2.08-.349.607-.596 1.057-.657 1.525-.049.378.02.845.491 1.478l.1.128.045.063a.75.75 0 0 1-1.162.936l-.051-.058-.139-.179c-.662-.891-.878-1.737-.771-2.562.106-.816.526-1.526.844-2.08.349-.606.596-1.056.657-1.524.049-.379-.02-.846-.491-1.479l-.1-.129-.045-.062a.75.75 0 0 1 .159-.992M18 3.25a.75.75 0 0 1 0 1.5h-.621c-.126 1.262-.573 2.465-1.339 3.412-.93 1.149-2.308 1.89-4.04 1.89s-3.11-.74-4.04-1.89c-.766-.947-1.213-2.15-1.339-3.412H6a.75.75 0 0 1 0-1.5zm-9.87 1.5c.12.95.465 1.813.996 2.469.654.809 1.61 1.333 2.874 1.333s2.22-.525 2.874-1.334c.53-.656.877-1.518.996-2.468z" style="fill:currentColor;fill-opacity:1"/>
</svg>
