<svg xmlns="http://www.w3.org/2000/svg" width="12" height="12" fill="none" viewBox="0 0 12 12">
    <path fill="currentColor" fill-rule="evenodd" d="M5.293.872a.766.766 0 0 1 1.414 0l1.214 2.92 3.153.253a.766.766 0 0 1 .437 1.344L9.109 7.447l.734 3.076a.766.766 0 0 1-1.144.831L6 9.706l-2.699 1.648a.766.766 0 0 1-1.144-.831l.734-3.076L.49 5.389a.766.766 0 0 1 .437-1.344l3.153-.253zM6 1.451 4.86 4.19a.77.77 0 0 1-.645.469l-2.957.237 2.253 1.93c.218.186.313.48.247.759l-.689 2.885 2.532-1.546a.77.77 0 0 1 .798 0l2.532 1.546-.689-2.885a.77.77 0 0 1 .247-.76l2.253-1.93-2.957-.236a.77.77 0 0 1-.646-.47z" clip-rule="evenodd" style="fill:currentColor;fill-opacity:1"/>
</svg>
