<svg xmlns="http://www.w3.org/2000/svg" width="22" height="20" fill="none" viewBox="0 0 22 20">
    <path fill="#1f2d4c" fill-rule="evenodd" d="M16.496 18.5c.425 0 .796-.17 1.02-.45A11.2 11.2 0 0 0 20 11q0-.612-.064-1.206c-.06-.572-.594-1.044-1.308-1.044H13.3a.75.75 0 0 1 0-1.5h.646a1.66 1.66 0 0 1 .153-.854A6.7 6.7 0 0 0 14.75 3.5a1.5 1.5 0 0 0-1.5-1.5v.633c0 .668-.127 1.33-.376 1.95-.389.973-1.17 1.66-1.996 2.1a8.3 8.3 0 0 0-2.624 2.2c-.586.746-1.48 1.335-2.534 1.366A8.2 8.2 0 0 0 5 13.625c0 1.204.257 2.346.72 3.375h.8c.564 0 1.125.091 1.66.27l3.114 1.038c.383.127.783.192 1.186.192zm-10.655 0h.679c.403 0 .803.065 1.186.192l3.114 1.039a5.3 5.3 0 0 0 1.66.269h4.016c.812 0 1.64-.326 2.19-1.008A12.7 12.7 0 0 0 21.5 11q0-.69-.072-1.365c-.157-1.469-1.461-2.385-2.8-2.385H15.5a.1.1 0 0 1-.034-.042.2.2 0 0 1-.012-.168 8.2 8.2 0 0 0 .796-3.54 3 3 0 0 0-3-3 1.5 1.5 0 0 0-1.5 1.5v.633c0 .477-.091.95-.268 1.393-.219.547-.69 1.003-1.309 1.332a9.8 9.8 0 0 0-3.099 2.599c-.2.256-.436.457-.688.593-.039-.666-.529-1.3-1.334-1.3H4c-1.089 0-2.18.597-2.615 1.702A12.7 12.7 0 0 0 .5 13.625c0 1.295.193 2.546.553 3.726.371 1.216 1.528 1.899 2.69 1.899h.908a1.3 1.3 0 0 0 1.19-.75m-1.428-.75a9.7 9.7 0 0 1-.913-4.125A9.7 9.7 0 0 1 4.805 8.75h-.806c-.574 0-1.045.31-1.22.752A11.2 11.2 0 0 0 2 13.625c0 1.145.17 2.249.488 3.288.147.484.64.837 1.255.837z" clip-rule="evenodd" style="fill:#1f2d4c;fill:color(display-p3 .1216 .1765 .298);fill-opacity:1"/>
</svg>
