<svg xmlns="http://www.w3.org/2000/svg" width="20" height="20" fill="none" viewBox="0 0 20 20">
    <path fill="currentColor" d="M10.41.644c1.022-.016 2.038-.008 3.053-.016a4.85 4.85 0 0 0 1.368 3.258l-.001-.001a5.48 5.48 0 0 0 3.294 1.397h.018V8.43a8.3 8.3 0 0 1-3.332-.779l.051.021a9.6 9.6 0 0 1-1.298-.747l.032.021c-.007 2.28.008 4.561-.015 6.834a5.95 5.95 0 0 1-1.067 3.096l.012-.02a5.82 5.82 0 0 1-4.607 2.508H7.91a5.67 5.67 0 0 1-3.212-.819l.025.014a5.9 5.9 0 0 1-2.849-4.434l-.002-.025a15 15 0 0 1-.008-1.164C2.17 9.95 4.673 7.64 7.714 7.64q.515 0 1.003.085l-.035-.005c.016 1.155-.031 2.311-.031 3.467a2.68 2.68 0 0 0-3.416 1.637l-.005.019a3 3 0 0 0-.108 1.272L5.12 14.1a2.66 2.66 0 0 0 2.74 2.241h-.007a2.62 2.62 0 0 0 2.157-1.246l.007-.011c.167-.233.28-.514.319-.82v-.008c.079-1.398.047-2.788.055-4.186.008-3.148-.008-6.288.016-9.427z" style="fill:currentColor;fill-opacity:1"/>
</svg>
