<svg xmlns="http://www.w3.org/2000/svg" width="49" height="48" fill="none" viewBox="0 0 49 48">
    <g filter="url(#a)">
        <path fill="currentColor" fill-rule="evenodd" d="M24.5 18q-.548 0-1.091.017a.953.953 0 0 0-.909.968v.076a33 33 0 0 1 4 0v-.076a.953.953 0 0 0-.909-.968 34 34 0 0 0-1.09-.017m3 1.137v-.152c0-1.043-.808-1.933-1.877-1.967a35 35 0 0 0-2.246 0c-1.069.034-1.877.924-1.877 1.967v.152a32 32 0 0 0-2.585.341.5.5 0 0 0 .17.985l.14-.023.67 8.713A2 2 0 0 0 21.889 31h5.222a2 2 0 0 0 1.994-1.847l.67-8.713.14.023a.5.5 0 1 0 .17-.985 33 33 0 0 0-2.585-.341m1.284 1.152A32 32 0 0 0 24.5 20a32 32 0 0 0-4.284.289l.676 8.788a1 1 0 0 0 .997.923h5.222a1 1 0 0 0 .997-.923zm-6.13 1.211a.5.5 0 0 1 .519.48l.23 6a.5.5 0 0 1-.999.04l-.23-6a.5.5 0 0 1 .48-.52m3.692 0a.5.5 0 0 1 .48.52l-.23 6a.5.5 0 1 1-1-.04l.231-6a.5.5 0 0 1 .52-.48" clip-rule="evenodd" style="fill:currentColor;fill-opacity:1"/>
    </g>
    <defs>
        <filter id="a" width="52" height="52" x="-1.5" y="-1" color-interpolation-filters="sRGB" filterUnits="userSpaceOnUse">
            <feFlood flood-opacity="0" result="BackgroundImageFix"/>
            <feColorMatrix in="SourceAlpha" result="hardAlpha" values="0 0 0 0 0 0 0 0 0 0 0 0 0 0 0 0 0 0 127 0"/>
            <feOffset dy="1"/>
            <feGaussianBlur stdDeviation="1"/>
            <feComposite in2="hardAlpha" operator="out"/>
            <feColorMatrix values="0 0 0 0 0 0 0 0 0 0 0 0 0 0 0 0 0 0 0.05 0"/>
            <feBlend in2="BackgroundImageFix" result="effect1_dropShadow_2485_33027"/>
            <feBlend in="SourceGraphic" in2="effect1_dropShadow_2485_33027" result="shape"/>
        </filter>
    </defs>
</svg>
