<svg xmlns="http://www.w3.org/2000/svg" width="14" height="14" fill="none" viewBox="0 0 14 14">
    <path fill="currentColor" fill-rule="evenodd" d="M7 1.75q-.48 0-.955.015a.834.834 0 0 0-.795.847v.066a29 29 0 0 1 3.5 0v-.066a.834.834 0 0 0-.795-.847Q7.48 1.75 7 1.75m2.625.995v-.133c0-.912-.707-1.691-1.642-1.721a31 31 0 0 0-1.966 0c-.935.03-1.642.809-1.642 1.721v.133a29 29 0 0 0-2.262.298.438.438 0 0 0 .15.863l.121-.021.587 7.624a1.75 1.75 0 0 0 1.744 1.616h4.57a1.75 1.75 0 0 0 1.745-1.616l.586-7.624.122.02a.438.438 0 1 0 .15-.862 28 28 0 0 0-2.263-.298m1.124 1.008A28 28 0 0 0 7 3.5a28 28 0 0 0-3.748.253l.591 7.69a.875.875 0 0 0 .872.807h4.57a.875.875 0 0 0 .872-.808zm-5.364 1.06a.44.44 0 0 1 .454.42l.202 5.25a.438.438 0 0 1-.875.034l-.202-5.25a.437.437 0 0 1 .42-.454m3.23 0c.242.01.43.212.42.454l-.201 5.25a.437.437 0 1 1-.874-.034l.201-5.25a.44.44 0 0 1 .454-.42" clip-rule="evenodd" style="fill:currentColor;fill-opacity:1"/>
</svg>
