<svg xmlns="http://www.w3.org/2000/svg" width="86" height="86" fill="none" viewBox="0 0 86 86">
    <path fill="currentColor" fill-rule="evenodd" d="M57.395 0c.974 0 1.461.1 2.452.504.655.285 1.512.756 1.881 1.041.37.303.857.773 1.092 1.042.236.268.588.806.807 1.176.218.386.503 1.142.638 1.696.134.588.235 1.898.235 5.291h1.982c1.075 0 2.385.067 2.89.168.503.1 1.326.37 1.813.588.47.235 1.293.823 1.814 1.31.571.52 1.126 1.26 1.428 1.881.269.555.554 1.428.655 1.932.118.605.168 11.59.168 31.746 0 20.66-.05 31.125-.168 31.746-.1.504-.37 1.327-.588 1.814a9 9 0 0 1-1.21 1.73c-.453.47-1.04.991-1.31 1.16-.268.184-.99.52-2.687 1.175H16.713l-1.092-.42c-.605-.235-1.31-.571-1.596-.756-.268-.168-.856-.688-1.293-1.159-.453-.47-.991-1.26-1.226-1.747a10 10 0 0 1-.588-1.797c-.118-.621-.168-11.086-.168-31.746s.05-31.125.168-31.746c.1-.504.37-1.327.588-1.814.235-.47.79-1.277 1.243-1.747a7 7 0 0 1 1.881-1.428c.588-.302 1.495-.621 1.999-.705s9.574-2.553 20.156-5.476S56.051.118 56.085.067c.033-.033.621-.067 1.31-.067m-13.22 7.139c-6.6 1.814-12.127 3.376-12.26 3.46-.135.084 6.197.151 14.41.151h14.648c0-2.738-.084-3.93-.202-4.418-.117-.554-.386-1.091-.722-1.46-.303-.32-.79-.706-1.109-.858-.319-.15-.806-.319-1.075-.352-.269-.05-.772-.034-1.092.033-.319.068-5.996 1.613-12.597 3.444m-28.739 8.297c-.604.605-.806.974-.957 1.663-.151.639-.202 8.852-.202 31.276s.05 30.638.202 31.293c.151.671.353 1.041.957 1.646.605.604.974.806 1.663.957.639.151 7.542.202 25.901.202s25.263-.05 25.918-.202c.671-.151 1.041-.353 1.646-.957.604-.605.806-.974.957-1.646.151-.656.202-8.87.202-31.293s-.05-30.637-.202-31.293c-.151-.672-.353-1.041-.957-1.646-.605-.604-.974-.806-1.646-.957-.656-.151-7.525-.202-26.036-.185-16.662.017-25.413.084-25.917.185-.538.134-.974.403-1.529.957m27.396 6.08c.79 0 2.15.102 3.023.22.874.133 2.235.453 3.024.688.79.252 2.217.857 3.191 1.36s2.42 1.445 3.242 2.083a26 26 0 0 1 2.604 2.503 26 26 0 0 1 1.915 2.654 21 21 0 0 1 1.326 2.57c.286.688.706 1.982.941 2.855.302 1.176.437 2.2.504 3.948.067 1.73.034 2.771-.168 3.947-.151.873-.47 2.2-.722 2.94a27 27 0 0 1-1.059 2.603c-.352.688-.89 1.68-1.226 2.183-.336.504-1.041 1.411-1.562 2.016-.52.605-1.41 1.495-1.982 1.982-.57.487-1.528 1.226-2.133 1.613-.605.403-1.461.923-1.932 1.142-.453.235-1.478.655-2.267.94-.79.269-2.1.639-2.94.79-.923.184-2.334.285-3.611.285s-2.687-.1-3.611-.285c-.823-.151-2.15-.521-2.94-.79-.79-.285-1.797-.705-2.267-.94-.454-.219-1.327-.74-1.932-1.142-.605-.387-1.579-1.143-2.184-1.663a22 22 0 0 1-1.982-1.983 26 26 0 0 1-1.511-1.965c-.336-.504-.874-1.495-1.227-2.183a27 27 0 0 1-1.058-2.604c-.252-.739-.57-2.066-.722-2.94-.201-1.175-.235-2.216-.168-3.947.067-1.746.202-2.771.504-3.947.235-.873.655-2.167.94-2.855a21 21 0 0 1 1.328-2.57A23.5 23.5 0 0 1 28.1 28.37a23 23 0 0 1 2.604-2.503c.806-.638 2.25-1.579 3.225-2.083.974-.503 2.402-1.108 3.191-1.36.79-.235 2.066-.538 2.856-.672a27 27 0 0 1 2.855-.235m-1.545 4.62c-.252.37-.722 1.142-1.042 1.747-.319.605-.806 1.83-1.091 2.738-.286.89-.672 2.486-.857 3.527-.185 1.025-.403 2.654-.47 3.611l-.118 1.714H48.29c-.185-2.671-.403-4.3-.588-5.325-.185-1.041-.571-2.637-.857-3.527-.285-.907-.739-2.066-.99-2.57-.27-.504-.706-1.243-.992-1.63-.285-.403-.688-.823-.89-.957a3.3 3.3 0 0 0-.722-.32c-.185-.066-.588 0-.907.119-.32.134-.79.52-1.058.873m-7.861 2.167c-.42.302-1.26 1.075-1.865 1.713-.604.622-1.427 1.63-1.83 2.234-.404.605-.992 1.63-1.294 2.268a18 18 0 0 0-.873 2.435 48 48 0 0 0-.42 1.898l-.101.622h7.055c.15-2.285.336-3.88.52-5.04.185-1.158.521-2.821.756-3.695.252-.873.571-1.931.74-2.351.167-.42.42-1.042.537-1.378.134-.352.201-.638.151-.638-.067 0-.672.32-1.36.689-.69.386-1.596.94-2.016 1.243m16.46.084c.169.42.488 1.478.74 2.351.235.874.57 2.537.756 3.696.184 1.159.37 2.754.42 3.577l.1 1.462h7.055a38 38 0 0 0-.52-2.52 18 18 0 0 0-.874-2.435 22 22 0 0 0-1.294-2.268c-.403-.605-1.226-1.613-1.83-2.25-.605-.622-1.562-1.462-2.117-1.865-.554-.387-1.478-.958-2.049-1.243-.588-.286-1.092-.52-1.142-.52s.033.285.185.637c.134.336.403.958.57 1.378m-22.74 15.166c.05.286.201.958.319 1.462s.453 1.528.739 2.267c.269.74.89 1.949 1.377 2.688s1.445 1.915 2.15 2.62c.706.689 1.73 1.562 2.285 1.948.554.37 1.394.84 1.847 1.042.47.201.89.353.975.353.067 0 0-.252-.152-.538a14 14 0 0 1-.52-1.226 43 43 0 0 1-.655-2.016c-.219-.739-.588-2.435-.824-3.779-.218-1.344-.436-3.09-.487-3.897l-.1-1.478H27.06zm10.666 1.008c.067.857.218 2.117.319 2.822.1.689.403 2.116.672 3.191.285 1.059.756 2.486 1.058 3.192.302.688.84 1.663 1.21 2.15.369.504.873 1.008 1.125 1.142.252.118.604.235.79.235.184 0 .553-.117.805-.235.252-.134.756-.638 1.126-1.142.353-.487.907-1.462 1.21-2.15.302-.706.772-2.133 1.04-3.192.286-1.075.589-2.502.69-3.191.1-.706.235-1.965.302-2.822l.117-1.545H37.692zm13.992-.084c-.05.806-.286 2.553-.504 3.897-.236 1.344-.588 3.04-.823 3.78a43 43 0 0 1-.656 2.015c-.134.37-.352.924-.503 1.226-.152.286-.202.538-.118.538.1 0 .52-.152.974-.353a14 14 0 0 0 1.797-1.042c.555-.386 1.58-1.26 2.285-1.948.705-.706 1.663-1.881 2.15-2.62s1.108-1.949 1.394-2.688c.269-.739.605-1.764.722-2.267.118-.504.27-1.176.32-1.462l.1-.554h-7.02zM24.02 64.685h37.104l.504.42c.269.218.537.621.588.873s-.017.74-.168 1.092c-.185.437-.437.705-.84.89-.52.219-2.973.252-18.645.252-15.688 0-18.14-.034-18.644-.252a1.54 1.54 0 0 1-.84-.84c-.168-.403-.219-.772-.134-1.125.067-.286.335-.706.604-.924zm18.493 7.055c8.583 0 10.985.05 11.422.218.302.117.672.403.84.638.168.218.285.622.285.907 0 .269-.151.756-.336 1.041-.218.387-.537.605-.957.723-.403.1-4.653.151-11.556.117-9.877-.033-10.952-.067-11.338-.319a2.3 2.3 0 0 1-.622-.705c-.117-.235-.218-.588-.218-.773s.117-.571.252-.84c.15-.285.504-.621.806-.756.453-.201 2.25-.235 11.422-.251" clip-rule="evenodd" style="fill:currentColor;fill-opacity:1"/>
</svg>
