<svg xmlns="http://www.w3.org/2000/svg" width="25" height="24" fill="none" viewBox="0 0 25 24">
    <path fill="currentColor" fill-rule="evenodd" d="M9.875 3.75a2.625 2.625 0 1 0 0 5.25 2.625 2.625 0 0 0 0-5.25M5.75 6.375a4.125 4.125 0 1 1 8.25 0 4.125 4.125 0 0 1-8.25 0m12.75.375a.75.75 0 0 1 .75.75v2.25h2.25a.75.75 0 0 1 0 1.5h-2.25v2.25a.75.75 0 0 1-1.5 0v-2.25H15.5a.75.75 0 0 1 0-1.5h2.25V7.5a.75.75 0 0 1 .75-.75M4.259 18.806a11.6 11.6 0 0 0 5.616 1.444 11.6 11.6 0 0 0 5.616-1.444 5.625 5.625 0 0 0-11.232 0m-1.509.319a7.125 7.125 0 0 1 14.25 0v.003l-.001.119a.75.75 0 0 1-.363.63 13.07 13.07 0 0 1-6.761 1.873c-2.472 0-4.786-.684-6.76-1.873a.75.75 0 0 1-.364-.63z" clip-rule="evenodd" style="fill:currentColor;fill:color(currentColor);fill-opacity:1"/>
</svg>
