<svg xmlns="http://www.w3.org/2000/svg" width="24" height="24" fill="currentColor" viewBox="0 0 24 24">
    <path fill-rule="evenodd" d="M8.625 3.75a2.625 2.625 0 1 0 0 5.25 2.625 2.625 0 0 0 0-5.25M4.5 6.375a4.125 4.125 0 1 1 8.25 0 4.125 4.125 0 0 1-8.25 0m13.125.375a1.875 1.875 0 1 0 0 3.75 1.875 1.875 0 0 0 0-3.75M14.25 8.625a3.375 3.375 0 1 1 6.75 0 3.375 3.375 0 0 1-6.75 0M3.009 18.806a11.6 11.6 0 0 0 5.616 1.444 11.6 11.6 0 0 0 5.616-1.444A5.623 5.623 0 0 0 8.625 13.5c-3 0-5.45 2.348-5.616 5.306m12.226 1.16a13.07 13.07 0 0 1-6.61 1.784c-2.472 0-4.786-.684-6.76-1.873a.75.75 0 0 1-.364-.63l-.001-.122a7.125 7.125 0 0 1 12.797-4.312 4.875 4.875 0 0 1 8.199 3.766.75.75 0 0 1-.42.642 10.1 10.1 0 0 1-4.451 1.029c-.823 0-1.623-.098-2.39-.284m.491-1.425c.61.137 1.246.209 1.899.209 1.194 0 2.33-.242 3.361-.68a3.375 3.375 0 0 0-5.89-1.93c.342.74.561 1.55.63 2.4" clip-rule="evenodd" style="fill:currentColor;fill-opacity:1"/>
</svg>
