<svg xmlns="http://www.w3.org/2000/svg" width="24" height="24" fill="none" viewBox="0 0 24 24">
    <path fill="currentColor" fill-rule="evenodd" d="M12 3.75a8.25 8.25 0 0 0-6.035 13.875A8.23 8.23 0 0 1 12 15a8.23 8.23 0 0 1 6.035 2.625A8.25 8.25 0 0 0 12 3.75m4.917 14.875A6.73 6.73 0 0 0 12 16.5a6.73 6.73 0 0 0-4.917 2.125A8.2 8.2 0 0 0 12 20.25a8.2 8.2 0 0 0 4.917-1.625M2.25 12A9.75 9.75 0 0 1 12 2.25a9.75 9.75 0 0 1 6.48 17.035A9.72 9.72 0 0 1 12 21.75a9.72 9.72 0 0 1-6.48-2.465A9.73 9.73 0 0 1 2.25 12M12 7.5a2.25 2.25 0 1 0 0 4.5 2.25 2.25 0 0 0 0-4.5M8.25 9.75a3.75 3.75 0 1 1 7.5 0 3.75 3.75 0 0 1-7.5 0" clip-rule="evenodd" style="fill:currentColor;fill-opacity:1"/>
</svg>
