<svg xmlns="http://www.w3.org/2000/svg" width="21" height="20" fill="none" viewBox="0 0 21 20">
    <path fill="currentColor" fill-rule="evenodd" d="M10.5 1.75a8.25 8.25 0 1 0 0 16.5 8.25 8.25 0 0 0 0-16.5M.75 10C.75 4.615 5.115.25 10.5.25s9.75 4.365 9.75 9.75-4.365 9.75-9.75 9.75S.75 15.385.75 10m9-3.75a.75.75 0 0 1 .75-.75h.008a.75.75 0 0 1 .75.75v.008a.75.75 0 0 1-.75.75H10.5a.75.75 0 0 1-.75-.75zm-.294 2.308c1.146-.573 2.437.463 2.126 1.706l-.709 2.836.042-.02a.75.75 0 1 1 .67 1.34l-.041.022c-1.146.573-2.437-.463-2.126-1.706l.709-2.836-.042.02a.75.75 0 1 1-.67-1.34z" clip-rule="evenodd" style="fill:currentColor;fill:color(currentColor);fill-opacity:1"/>
</svg>
