<svg xmlns="http://www.w3.org/2000/svg" width="25" height="24" fill="none" viewBox="0 0 25 24">
    <path fill="currentColor" fill-rule="evenodd" d="M12.5 3.75c-1.014 0-1.91.502-2.455 1.275a.75.75 0 0 1-.741.307 3 3 0 0 0-2.638.834 3 3 0 0 0-.834 2.638.75.75 0 0 1-.307.741A3 3 0 0 0 4.25 12c0 1.014.502 1.91 1.275 2.455a.75.75 0 0 1 .307.741c-.162.931.117 1.92.834 2.638a3 3 0 0 0 2.638.834.75.75 0 0 1 .741.307A3 3 0 0 0 12.5 20.25c1.014 0 1.91-.502 2.455-1.275a.75.75 0 0 1 .741-.307 3 3 0 0 0 2.637-.834 3 3 0 0 0 .835-2.638.75.75 0 0 1 .307-.741A3 3 0 0 0 20.75 12c0-1.014-.502-1.91-1.275-2.455a.75.75 0 0 1-.307-.741 3 3 0 0 0-.834-2.638 3 3 0 0 0-2.638-.834.75.75 0 0 1-.741-.307A3 3 0 0 0 12.5 3.75m-3.397.049A4.5 4.5 0 0 1 12.5 2.25c1.357 0 2.573.6 3.397 1.549a4.5 4.5 0 0 1 3.498 1.307 4.5 4.5 0 0 1 1.307 3.497A4.5 4.5 0 0 1 22.25 12a4.5 4.5 0 0 1-1.549 3.397 4.5 4.5 0 0 1-1.307 3.497 4.5 4.5 0 0 1-3.497 1.307A4.5 4.5 0 0 1 12.5 21.75a4.5 4.5 0 0 1-3.397-1.549 4.5 4.5 0 0 1-3.498-1.306 4.5 4.5 0 0 1-1.307-3.498A4.5 4.5 0 0 1 2.75 12c0-1.357.6-2.573 1.549-3.397a4.5 4.5 0 0 1 1.307-3.497 4.5 4.5 0 0 1 3.497-1.307m6.833 5.34a.75.75 0 0 1 .174 1.047l-3.75 5.25a.75.75 0 0 1-1.14.094l-2.25-2.25a.75.75 0 1 1 1.06-1.06l1.624 1.624 3.236-4.53a.75.75 0 0 1 1.046-.174" clip-rule="evenodd" style="fill:currentColor;fill:color(currentColor);fill-opacity:1"/>
</svg>
