<svg xmlns="http://www.w3.org/2000/svg" width="16" height="16" fill="none" viewBox="0 0 16 16">
    <path fill="#0e4595" d="m5.945 9.954.708-3.874h1.133l-.709 3.874zm5.225-3.791A3.1 3.1 0 0 0 10.155 6c-1.12 0-1.908.526-1.914 1.28-.007.556.562.867.992 1.052.44.19.589.311.587.48-.003.26-.352.379-.678.379-.453 0-.694-.059-1.066-.203l-.146-.062-.159.867c.265.109.754.202 1.262.207 1.19 0 1.963-.52 1.972-1.324.004-.44-.298-.776-.95-1.052-.397-.18-.64-.3-.636-.48 0-.162.205-.334.648-.334.37-.005.639.07.848.148l.101.045zm2.914-.083h-.875c-.272 0-.474.069-.593.32l-1.682 3.552h1.189l.238-.582 1.45.001c.034.136.138.581.138.581H15zm-1.389 2.502.451-1.084c-.006.01.093-.224.15-.37l.077.335.262 1.119zM1.014 6.08 1 6.16c.448.101.848.248 1.198.43l1.004 3.358 1.199-.001L6.184 6.08h-1.2L3.875 8.722l-.118-.537-.018-.05-.385-1.728c-.069-.246-.267-.319-.513-.327z" style="fill:#0e4595;fill:color(display-p3 .0549 .2706 .5843);fill-opacity:1"/>
</svg>
