<svg width="257" height="256" viewBox="0 0 257 256" fill="none" xmlns="http://www.w3.org/2000/svg">
<rect width="256" height="256" transform="translate(0.0390625)" fill="white" style="fill:white;fill-opacity:1;"/>
<path d="M96.7403 64.1154V95.9011L60.5352 131.475V64.1154C60.5352 57.4618 66.033 52.0928 72.7711 52.0928H84.5043C91.276 52.0928 96.7403 57.4618 96.7403 64.1154Z" fill="#3674CE" style="fill:#3674CE;fill:color(display-p3 0.2118 0.4549 0.8078);fill-opacity:1;"/>
<path d="M96.7403 158.682V191.884C96.7403 198.505 91.276 203.907 84.5043 203.907H72.7712C66.804 203.907 61.7755 199.658 60.7363 194.058L96.7403 158.682Z" fill="#EA8332" style="fill:#EA8332;fill:color(display-p3 0.9176 0.5137 0.1961);fill-opacity:1;"/>
<path d="M195.332 194.058C194.293 199.658 189.298 203.907 183.297 203.907H171.564C164.792 203.907 159.328 198.505 159.328 191.884V158.682L195.332 194.058Z" fill="#FFD160" style="fill:#FFD160;fill:color(display-p3 1.0000 0.8196 0.3765);fill-opacity:1;"/>
<path d="M195.533 64.1154V131.475L159.328 95.9011V64.1154C159.328 57.4618 164.792 52.0928 171.564 52.0928H183.297C190.035 52.0928 195.533 57.4618 195.533 64.1154Z" fill="#3674CE" style="fill:#3674CE;fill:color(display-p3 0.2118 0.4549 0.8078);fill-opacity:1;"/>
<path d="M228.654 187.24L220.374 195.409C215.58 200.086 207.836 200.086 203.043 195.409L136.7 130.19C131.94 125.513 124.162 125.513 119.402 130.19L53.0261 195.409C48.2658 200.086 40.522 200.086 35.7281 195.409L27.4479 187.24C22.6541 182.563 22.6541 174.954 27.4479 170.244L102.439 96.5599L119.402 79.893C124.162 75.1828 131.906 75.1828 136.7 79.893L228.654 170.244C233.415 174.954 233.415 182.563 228.654 187.24Z" fill="#6D9E36" style="fill:#6D9E36;fill:color(display-p3 0.4275 0.6196 0.2118);fill-opacity:1;"/>
</svg>
