<svg width="17" height="16" viewBox="0 0 17 16" fill="none" xmlns="http://www.w3.org/2000/svg">
<rect width="16" height="16" transform="translate(0.0390625)" fill="white" style="fill:white;fill-opacity:1;"/>
<path d="M6.08313 4.00727V5.99388L3.82031 8.21723V4.00727C3.82031 3.59142 4.16393 3.25586 4.58506 3.25586H5.31838C5.74161 3.25586 6.08313 3.59142 6.08313 4.00727Z" fill="#3674CE" style="fill:#3674CE;fill:color(display-p3 0.2118 0.4549 0.8078);fill-opacity:1;"/>
<path d="M6.08326 9.91772V11.9929C6.08326 12.4066 5.74174 12.7443 5.31851 12.7443H4.58519C4.21224 12.7443 3.89796 12.4787 3.83301 12.1287L6.08326 9.91772Z" fill="#EA8332" style="fill:#EA8332;fill:color(display-p3 0.9176 0.5137 0.1961);fill-opacity:1;"/>
<path d="M12.2444 12.1287C12.1794 12.4787 11.8673 12.7443 11.4922 12.7443H10.7589C10.3357 12.7443 9.99414 12.4066 9.99414 11.9929V9.91772L12.2444 12.1287Z" fill="#FFD160" style="fill:#FFD160;fill:color(display-p3 1.0000 0.8196 0.3765);fill-opacity:1;"/>
<path d="M12.257 4.00727V8.21723L9.99414 5.99388V4.00727C9.99414 3.59142 10.3357 3.25586 10.7589 3.25586H11.4922C11.9133 3.25586 12.257 3.59142 12.257 4.00727Z" fill="#3674CE" style="fill:#3674CE;fill:color(display-p3 0.2118 0.4549 0.8078);fill-opacity:1;"/>
<path d="M14.3275 11.7024L13.8099 12.213C13.5103 12.5053 13.0263 12.5053 12.7267 12.213L8.58032 8.13683C8.2828 7.8445 7.79671 7.8445 7.49919 8.13683L3.35069 12.213C3.05317 12.5053 2.56918 12.5053 2.26957 12.213L1.75205 11.7024C1.45244 11.4101 1.45244 10.9345 1.75205 10.6402L6.43902 6.03494L7.49919 4.99325C7.79671 4.69886 8.28071 4.69886 8.58032 4.99325L14.3275 10.6402C14.625 10.9345 14.625 11.4101 14.3275 11.7024Z" fill="#6D9E36" style="fill:#6D9E36;fill:color(display-p3 0.4275 0.6196 0.2118);fill-opacity:1;"/>
</svg>
