<svg width="32" height="32" viewBox="0 0 32 32" fill="none" xmlns="http://www.w3.org/2000/svg">
<path d="M26.2089 9.44656C26.6538 9.00166 27.3963 9.0729 27.699 9.62447C28.74 11.5213 29.333 13.6947 29.333 16.0002C29.333 23.3335 23.3334 29.3341 16 29.3341C13.6946 29.3341 11.5211 28.7404 9.62434 27.6992C9.07279 27.3964 9.00155 26.6539 9.44645 26.209L9.95954 25.6959C10.2845 25.3709 10.787 25.3139 11.197 25.5217C12.6414 26.2538 14.2734 26.6671 16 26.6671C21.88 26.6671 26.667 21.8802 26.667 16.0002C26.667 14.2736 26.2537 12.6415 25.5216 11.1971C25.3138 10.7871 25.3708 10.2846 25.6958 9.95964L26.2089 9.44656Z" fill="currentColor" style="fill:currentColor;fill:currentColor;fill-opacity:1;"/>
<path d="M16 2.66714C18.7631 2.66714 21.3364 3.51945 23.4712 4.97351C23.9618 5.30771 23.9969 6.00157 23.5772 6.42146L23.0892 6.90966C22.7347 7.26439 22.1748 7.29709 21.7531 7.02562C20.092 5.95626 18.1175 5.33414 16 5.33414C10.1202 5.33418 5.33322 10.1203 5.33305 16.0002C5.33305 18.1175 5.9554 20.0923 7.02472 21.7534C7.29612 22.175 7.26348 22.7348 6.90893 23.0893L6.42135 23.5769C6.0015 23.9967 5.30748 23.9618 4.97323 23.4711C3.51929 21.3363 2.66703 18.7631 2.66703 16.0002C2.66721 8.66699 8.66685 2.66719 16 2.66714Z" fill="currentColor" style="fill:currentColor;fill:currentColor;fill-opacity:1;"/>
<path d="M19.1905 21.8468C19.4745 21.692 19.8307 21.7247 20.0596 21.9533C20.3568 22.2504 20.3183 22.7456 19.9541 22.9552C18.7956 23.6213 17.4438 24.0002 16 24.0002C14.7299 24.0001 13.5314 23.7069 12.4727 23.1828L13.4893 22.1662C14.2707 22.4857 15.1233 22.6671 16 22.6671C17.1382 22.6671 18.2379 22.3662 19.1905 21.8468Z" fill="currentColor" style="fill:currentColor;fill:currentColor;fill-opacity:1;"/>
<path d="M23.7588 12.0002C24.09 12.0002 24.3811 12.0576 24.6319 12.171C24.8826 12.2845 25.0776 12.4394 25.2159 12.6369C25.3557 12.8343 25.4258 13.0602 25.4258 13.3136C25.4258 13.4829 25.39 13.6492 25.3194 13.8127C25.2486 13.9762 25.1238 14.1577 24.9454 14.3566C24.7685 14.5555 24.5201 14.7964 24.2002 15.0793L23.3487 15.8732V15.9044H25.5V16.589H22.3584C22.294 17.1806 22.1292 17.7031 21.8633 18.1564C21.5153 18.7521 21.0393 19.2087 20.4366 19.5255C19.8368 19.8422 19.1565 20.0001 18.3955 20.0002C17.6345 20.0002 16.9523 19.8423 16.3496 19.5255C16.3023 19.5003 16.2568 19.4714 16.211 19.4445L17.2022 18.4533C17.5507 18.6396 17.9481 18.7345 18.3955 18.7345C18.8679 18.7345 19.2854 18.6308 19.6475 18.423C20.0097 18.2126 20.2924 17.9038 20.4961 17.4982C20.7026 17.0901 20.8057 16.5907 20.8057 16.0002C20.8057 15.6212 20.7629 15.2805 20.6778 14.9777L21.8418 13.8136C21.8488 13.8253 21.8565 13.837 21.8633 13.8488C22.1793 14.3854 22.3506 15.0209 22.3819 15.755L23.8291 14.4562C23.9929 14.3046 24.1291 14.1697 24.2383 14.0519C24.3476 13.9341 24.4297 13.8196 24.4844 13.7091C24.5391 13.5987 24.5664 13.4808 24.5664 13.3556C24.5664 13.2127 24.5317 13.0901 24.461 12.9884C24.3903 12.8854 24.2927 12.8061 24.169 12.7502C24.0453 12.6942 23.9045 12.6662 23.7471 12.6662C23.5848 12.6662 23.4425 12.6971 23.3204 12.7589C23.1982 12.8194 23.1027 12.9057 23.0352 13.0177C22.9695 13.1296 22.9366 13.2627 22.9366 13.4171H22.2393L23.6504 12.005C23.6861 12.0036 23.7222 12.0002 23.7588 12.0002Z" fill="currentColor" style="fill:currentColor;fill:currentColor;fill-opacity:1;"/>
<path d="M10.4815 12.0002C10.9653 12.0002 11.4152 12.0612 11.8311 12.1828C12.247 12.3044 12.618 12.4832 12.9434 12.7189C13.2688 12.9521 13.5367 13.2386 13.7461 13.5783C13.9583 13.9154 14.0961 14.3011 14.1612 14.7345H12.5743C12.529 14.5013 12.445 14.2944 12.3233 14.1144C12.2016 13.932 12.0502 13.7772 11.8692 13.6505C11.6882 13.5239 11.4819 13.4287 11.25 13.3654C11.0208 13.2995 10.7729 13.2668 10.5069 13.2668C10.0345 13.2668 9.61595 13.3733 9.25102 13.5861C8.88602 13.7965 8.60016 14.1058 8.39359 14.5138C8.18706 14.9193 8.08309 15.4147 8.08305 16.0002C8.08305 16.5958 8.18702 17.0979 8.39359 17.506C8.60299 17.9116 8.88882 18.2181 9.25102 18.4259C9.61602 18.6312 10.0333 18.7345 10.503 18.7345C10.7631 18.7345 11.0062 18.7035 11.2325 18.6427C11.2952 18.6254 11.356 18.6049 11.4151 18.5832L10.0205 19.9787C9.44057 19.9269 8.91204 19.7772 8.43559 19.5255C7.83568 19.2087 7.36285 18.7507 7.01762 18.1525C6.67247 17.5543 6.50004 16.8366 6.50004 16.0002C6.50009 15.1613 6.67455 14.4444 7.0225 13.8488C7.37056 13.2506 7.84447 12.7926 8.44438 12.4757C9.04421 12.159 9.72323 12.0002 10.4815 12.0002Z" fill="currentColor" style="fill:currentColor;fill:currentColor;fill-opacity:1;"/>
<path d="M12.6895 17.3087L12.5323 17.4669C12.5482 17.4156 12.5628 17.363 12.5743 17.3087H12.6895Z" fill="currentColor" style="fill:currentColor;fill:currentColor;fill-opacity:1;"/>
<path d="M14.418 15.5812C14.4673 14.9202 14.6344 14.3426 14.9229 13.8488C15.2738 13.2506 15.7497 12.7926 16.3496 12.4757C16.8407 12.2177 17.3843 12.0665 17.9805 12.0187L14.418 15.5812Z" fill="currentColor" style="fill:currentColor;fill:currentColor;fill-opacity:1;"/>
<path d="M16 8.00113C17.3898 8.00113 18.7509 8.36408 19.9502 9.048C20.2169 9.20024 20.3095 9.50524 20.2246 9.77457L19.7862 10.213C19.5944 10.2755 19.3774 10.2569 19.1914 10.1554C18.2385 9.63553 17.1388 9.33414 16 9.33414C14.8613 9.33415 13.7616 9.6355 12.8086 10.1554C12.5255 10.3099 12.1696 10.2771 11.9414 10.049C11.6442 9.75176 11.6849 9.25642 12.0498 9.048C13.2491 8.36409 14.6103 8.00114 16 8.00113Z" fill="currentColor" style="fill:currentColor;fill:currentColor;fill-opacity:1;"/>
<path d="M3.56444 30.8498C3.17391 31.2403 2.54075 31.2403 2.15022 30.8498V30.8498C1.7597 30.4593 1.7597 29.8261 2.15022 29.4356L28.8787 2.70711C29.2692 2.31658 29.9024 2.31658 30.2929 2.70711V2.70711C30.6835 3.09763 30.6835 3.7308 30.2929 4.12132L3.56444 30.8498Z" fill="currentColor" style="fill:currentColor;fill:currentColor;fill-opacity:1;"/>
</svg>
