<svg width="32" height="32" viewBox="0 0 32 32" fill="none" xmlns="http://www.w3.org/2000/svg">
<path d="M16.0001 5.33366C21.8801 5.33366 26.6667 10.1203 26.6667 16.0003C26.6667 21.8803 21.8801 26.667 16.0001 26.667C10.1201 26.667 5.33341 21.8803 5.33341 16.0003C5.33341 10.1203 10.1201 5.33366 16.0001 5.33366ZM16.0001 2.66699C8.66675 2.66699 2.66675 8.66699 2.66675 16.0003C2.66675 23.3337 8.66675 29.3337 16.0001 29.3337C23.3334 29.3337 29.3334 23.3337 29.3334 16.0003C29.3334 8.66699 23.3334 2.66699 16.0001 2.66699ZM11.9416 10.0485C12.1697 10.2767 12.5251 10.3097 12.8083 10.1552C13.7613 9.6352 14.8612 9.33366 16.0001 9.33366C17.1389 9.33366 18.2389 9.6352 19.1919 10.1552C19.4751 10.3097 19.8304 10.2767 20.0585 10.0485C20.3558 9.75122 20.3152 9.25605 19.9499 9.04776C18.7506 8.36383 17.3898 8.00068 16.0001 8.00068C14.6103 8.00068 13.2495 8.36383 12.0503 9.04776C11.685 9.25605 11.6443 9.75122 11.9416 10.0485ZM20.06 21.9535C19.831 21.7246 19.4744 21.6914 19.1901 21.8464C18.2375 22.3658 17.1382 22.667 16.0001 22.667C14.8619 22.667 13.7627 22.3658 12.8101 21.8464C12.5258 21.6914 12.1691 21.7246 11.9402 21.9535C11.643 22.2507 11.6821 22.7455 12.0465 22.955C13.2051 23.6211 14.5563 24.0003 16.0001 24.0003C17.4438 24.0003 18.7951 23.6211 19.9537 22.955C20.3181 22.7455 20.3572 22.2507 20.06 21.9535Z" fill="currentColor" style="fill:currentColor;fill:currentColor;fill-opacity:1;"/>
<path d="M22.1139 16.5891V15.9967L23.8287 14.4561C23.9927 14.3043 24.1294 14.1695 24.2387 14.0516C24.3481 13.9337 24.4301 13.8195 24.4847 13.709C24.5394 13.5985 24.5667 13.4806 24.5667 13.3553C24.5667 13.2124 24.5313 13.0901 24.4606 12.9884C24.3899 12.8852 24.2926 12.8057 24.1688 12.7497C24.045 12.6937 23.9043 12.6657 23.7467 12.6657C23.5843 12.6657 23.442 12.6966 23.3198 12.7585C23.1976 12.8189 23.1028 12.9051 23.0352 13.0171C22.9693 13.1291 22.9363 13.2625 22.9363 13.4172H22.085C22.085 13.1298 22.1565 12.8801 22.2996 12.6679C22.4427 12.4557 22.6397 12.2914 22.8905 12.1749C23.143 12.0585 23.4324 12.0003 23.7588 12.0003C24.09 12.0003 24.381 12.0571 24.6318 12.1705C24.8827 12.284 25.0772 12.4395 25.2155 12.6369C25.3554 12.8344 25.4253 13.0598 25.4253 13.3133C25.4253 13.4828 25.3899 13.6493 25.3192 13.8129C25.2485 13.9764 25.1238 14.1577 24.9454 14.3566C24.7685 14.5556 24.5201 14.7965 24.2001 15.0794L23.3488 15.873V15.9039H25.5001V16.5891H22.1139Z" fill="currentColor" style="fill:currentColor;fill:currentColor;fill-opacity:1;"/>
<path d="M22.3894 16.0003C22.3894 16.8394 22.2139 17.558 21.8631 18.1562C21.515 18.7519 21.0396 19.2082 20.4369 19.525C19.837 19.8419 19.1564 20.0003 18.3952 20.0003C17.634 20.0003 16.952 19.8419 16.3493 19.525C15.7494 19.2056 15.274 18.7481 14.9231 18.1524C14.5751 17.5542 14.401 16.8368 14.401 16.0003C14.401 15.1613 14.5751 14.4439 14.9231 13.8482C15.274 13.25 15.7494 12.7925 16.3493 12.4756C16.952 12.1588 17.634 12.0003 18.3952 12.0003C19.1564 12.0003 19.837 12.1588 20.4369 12.4756C21.0396 12.7925 21.515 13.25 21.8631 13.8482C22.2139 14.4439 22.3894 15.1613 22.3894 16.0003ZM20.8061 16.0003C20.8061 15.4097 20.7029 14.9116 20.4963 14.506C20.2925 14.0979 20.0096 13.7899 19.6474 13.5821C19.2852 13.3717 18.8678 13.2665 18.3952 13.2665C17.9226 13.2665 17.5053 13.3717 17.143 13.5821C16.7808 13.7899 16.4965 14.0979 16.2899 14.506C16.0861 14.9116 15.9843 15.4097 15.9843 16.0003C15.9843 16.5909 16.0861 17.0903 16.2899 17.4984C16.4965 17.904 16.7808 18.212 17.143 18.4224C17.5053 18.6302 17.9226 18.7342 18.3952 18.7342C18.8678 18.7342 19.2852 18.6302 19.6474 18.4224C20.0096 18.212 20.2925 17.904 20.4963 17.4984C20.7029 17.0903 20.8061 16.5909 20.8061 16.0003Z" fill="currentColor" style="fill:currentColor;fill:currentColor;fill-opacity:1;"/>
<path d="M14.1616 14.7342H12.5741C12.5288 14.501 12.4454 14.2944 12.3237 14.1144C12.202 13.9319 12.0506 13.7773 11.8695 13.6505C11.6884 13.5238 11.4818 13.4287 11.2498 13.3653C11.0206 13.2994 10.773 13.2665 10.507 13.2665C10.0344 13.2665 9.61563 13.3729 9.25059 13.5859C8.88555 13.7963 8.59975 14.1055 8.39318 14.5136C8.18661 14.9192 8.08332 15.4148 8.08332 16.0003C8.08332 16.596 8.18661 17.0979 8.39318 17.506C8.60258 17.9116 8.88838 18.2183 9.25059 18.4262C9.61563 18.6315 10.033 18.7342 10.5028 18.7342C10.7631 18.7342 11.0064 18.7037 11.2328 18.6429C11.462 18.5795 11.6672 18.487 11.8483 18.3653C12.0322 18.2437 12.1864 18.0941 12.311 17.9167C12.4383 17.7392 12.526 17.5364 12.5741 17.3083L14.1616 17.3159C14.1022 17.686 13.9734 18.0333 13.7753 18.3577C13.5801 18.6822 13.324 18.9686 13.0071 19.2171C12.6901 19.4629 12.3194 19.6556 11.895 19.795C11.4705 19.9319 10.9994 20.0003 10.4815 20.0003C9.7175 20.0003 9.03553 19.8419 8.43562 19.525C7.83572 19.2082 7.36315 18.7506 7.01792 18.1524C6.6727 17.5542 6.50008 16.8368 6.50008 16.0003C6.50008 15.1613 6.67411 14.4439 7.02217 13.8482C7.37023 13.25 7.84421 12.7925 8.44411 12.4756C9.04402 12.1588 9.72316 12.0003 10.4815 12.0003C10.9654 12.0003 11.4153 12.0612 11.8313 12.1828C12.2473 12.3045 12.618 12.4832 12.9434 12.719C13.2688 12.9522 13.5362 13.2386 13.7456 13.5783C13.9579 13.9154 14.0965 14.3007 14.1616 14.7342Z" fill="currentColor" style="fill:currentColor;fill:currentColor;fill-opacity:1;"/>
</svg>
