<svg width="32" height="32" viewBox="0 0 32 32" fill="none" xmlns="http://www.w3.org/2000/svg">
<path fill-rule="evenodd" clip-rule="evenodd" d="M15.125 4.7283C15.4101 4.57155 15.7574 4.56174 16.0537 4.70974C16.3924 4.87908 16.6063 5.22564 16.6064 5.60427V26.6043C16.6064 26.983 16.3925 27.3294 16.0537 27.4988C15.715 27.6681 15.3098 27.6312 15.0068 27.4041L7.27344 21.6043H2.60645C2.05427 21.6041 1.60645 21.1565 1.60645 20.6043V11.6043L1.61133 11.5017C1.6628 10.9978 2.08899 10.6044 2.60645 10.6043H7.27344L15.0068 4.80447L15.125 4.7283ZM8.20605 12.4041C8.03299 12.5338 7.82275 12.6043 7.60645 12.6043H3.60645V19.6043H7.60645C7.82261 19.6043 8.03305 19.6749 8.20605 19.8045L14.6064 24.6043V7.6033L8.20605 12.4041Z" fill="currentColor" style="fill:currentColor;fill:currentColor;fill-opacity:1;"/>
<path d="M18.4355 18.2185C18.7419 17.759 19.3637 17.6348 19.8232 17.9412L28.8223 23.9402L28.9053 24.0017C29.2962 24.3241 29.3867 24.8962 29.0996 25.3269C28.8124 25.7577 28.2488 25.8941 27.8008 25.657L27.7129 25.6043L18.7129 19.6053C18.2537 19.299 18.1297 18.678 18.4355 18.2185Z" fill="currentColor" style="fill:currentColor;fill:currentColor;fill-opacity:1;"/>
<path d="M30.7139 14.6043C31.2658 14.6045 31.7136 15.0524 31.7139 15.6043C31.7139 16.1564 31.2659 16.604 30.7139 16.6043H19.7139C19.1616 16.6043 18.7139 16.1566 18.7139 15.6043C18.7141 15.0522 19.1617 14.6043 19.7139 14.6043H30.7139Z" fill="currentColor" style="fill:currentColor;fill:currentColor;fill-opacity:1;"/>
<path d="M27.5693 4.96756C27.9988 4.69833 28.5708 4.7932 28.8887 5.20193C29.2062 5.61058 29.1574 6.18795 28.791 6.53787L28.7129 6.60525L19.7129 13.6043C19.2769 13.9433 18.6486 13.8654 18.3096 13.4295C17.9706 12.9936 18.0495 12.3652 18.4854 12.0261L27.4854 5.02615L27.5693 4.96756Z" fill="currentColor" style="fill:currentColor;fill:currentColor;fill-opacity:1;"/>
</svg>
