<svg width="32" height="32" viewBox="0 0 32 32" fill="none" xmlns="http://www.w3.org/2000/svg">
<path d="M2.72006 22.5938C3.28706 22.3292 3.99263 22 5.28594 22C6.57925 22 7.28487 22.3293 7.85175 22.5938C8.33812 22.8207 8.72225 23 9.57194 23C10.4216 23 10.8056 22.8207 11.2919 22.5938C11.8589 22.3293 12.5644 22 13.8577 22C15.151 22 15.8565 22.3293 16.4234 22.5938C16.9097 22.8207 17.2937 23 18.1433 23C18.9929 23 19.3769 22.8207 19.8631 22.5938C20.43 22.3293 21.1355 22 22.4287 22C23.722 22 24.4276 22.3293 24.9944 22.5938C25.4808 22.8207 25.8648 23 26.7144 23C27.5639 23 27.948 22.8207 28.4343 22.5938C28.8351 22.4068 29.3053 22.1873 30.0036 22.0749C30.5488 21.987 31 22.4477 31 23C31 23.5523 30.5422 23.9694 30.0098 24.1163C29.7441 24.1896 29.5251 24.2919 29.2801 24.4062C28.7132 24.6707 28.0076 25 26.7144 25C25.4211 25 24.7156 24.6707 24.1487 24.4062C23.6624 24.1793 23.2783 24 22.4287 24C21.5792 24 21.1952 24.1793 20.7089 24.4062C20.1421 24.6707 19.4366 25 18.1433 25C16.8501 25 16.1445 24.6707 15.5776 24.4062C15.0913 24.1793 14.7072 24 13.8577 24C13.0082 24 12.624 24.1793 12.1377 24.4062C11.5708 24.6707 10.8653 25 9.57194 25C8.27863 25 7.573 24.6707 7.00606 24.4062C6.51975 24.1793 6.13556 24 5.28594 24C4.43631 24 4.05212 24.1793 3.56587 24.4062C3.16494 24.5933 2.69473 24.8127 1.99643 24.9252C1.45117 25.013 1 24.5523 1 24C1 23.4477 1.45777 23.0305 1.99017 22.8837C2.25596 22.8104 2.47505 22.7081 2.72006 22.5938Z" fill="currentColor" style="fill:currentColor;fill:currentColor;fill-opacity:1;"/>
<path d="M5.28594 28C6.57925 28 7.28487 28.3293 7.85175 28.5938C8.33812 28.8207 8.72225 29 9.57194 29C10.4216 29 10.8056 28.8207 11.2919 28.5938C11.8589 28.3293 12.5644 28 13.8577 28C15.151 28 15.8565 28.3293 16.4234 28.5938C16.9097 28.8207 17.2937 29 18.1433 29C18.9929 29 19.3769 28.8207 19.8631 28.5938C20.43 28.3293 21.1355 28 22.4287 28C23.722 28 24.4276 28.3293 24.9944 28.5938C25.4808 28.8207 25.8648 29 26.7144 29C27.5639 29 27.948 28.8207 28.4343 28.5938C28.8351 28.4068 29.3053 28.1873 30.0036 28.0749C30.5488 27.987 31 28.4477 31 29C31 29.5523 30.5422 29.9694 30.0098 30.1163C29.7441 30.1896 29.5251 30.2919 29.2801 30.4062C28.7132 30.6707 28.0076 31 26.7144 31C25.4211 31 24.7156 30.6707 24.1487 30.4062C23.6624 30.1793 23.2783 30 22.4287 30C21.5792 30 21.1952 30.1793 20.7089 30.4062C20.1421 30.6707 19.4366 31 18.1433 31C16.8501 31 16.1445 30.6707 15.5776 30.4062C15.0913 30.1793 14.7072 30 13.8577 30C13.0082 30 12.624 30.1793 12.1377 30.4062C11.5708 30.6707 10.8653 31 9.57194 31C8.27863 31 7.573 30.6707 7.00606 30.4062C6.51975 30.1793 6.13556 30 5.28594 30C4.43631 30 4.05212 30.1793 3.56587 30.4062C3.16494 30.5933 2.69473 30.8127 1.99643 30.9252C1.45117 31.013 1 30.5523 1 30C1 29.4477 1.45777 29.0305 1.99017 28.8837C2.25596 28.8104 2.47505 28.7081 2.72006 28.5938C3.28706 28.3293 3.99263 28 5.28594 28Z" fill="currentColor" style="fill:currentColor;fill:currentColor;fill-opacity:1;"/>
<path d="M24.1514 19.5C24.1514 20.0523 23.7037 20.5 23.1514 20.5C22.5991 20.5 22.1514 20.0523 22.1514 19.5V18C22.1514 17.4477 21.7037 17 21.1514 17H14.1514C13.5991 17 13.1514 17.4477 13.1514 18V19.5C13.1514 20.0523 12.7037 20.5 12.1514 20.5C11.5991 20.5 11.1514 20.0523 11.1514 19.5V18.0273L14.961 15H21.1514C21.7037 15 22.1514 14.5523 22.1514 14V13C22.1514 12.4477 21.7037 12 21.1514 12H18.7354L21.2578 9.99414C21.6478 9.95286 21.9698 9.68736 22.0948 9.3291L24.1514 7.69434V19.5Z" fill="currentColor" style="fill:currentColor;fill:currentColor;fill-opacity:1;"/>
<path d="M9.40042 1C9.72968 1 10.0381 1.16228 10.2246 1.43359L12.2715 4.41016C12.8455 5.24294 13.1527 6.23075 13.1514 7.24219V9C13.1514 9.55228 13.5991 10 14.1514 10H16.4297L13.8584 12.043C13.6159 12.1171 13.4136 12.2821 13.2881 12.4971L11.1514 14.1953V7.24219C11.1521 6.63529 10.9675 6.04264 10.6231 5.54297L8.57718 2.56641C8.12117 1.90306 8.59556 1.00029 9.40042 1Z" fill="currentColor" style="fill:currentColor;fill:currentColor;fill-opacity:1;"/>
<path d="M20.4004 1C20.7297 1 21.0381 1.16228 21.2246 1.43359L23.2715 4.41016C23.294 4.44283 23.3133 4.4776 23.335 4.51074L21.7598 5.7627C21.7172 5.68787 21.6722 5.61424 21.6231 5.54297L19.5772 2.56641C19.1212 1.90306 19.5956 1.00029 20.4004 1Z" fill="currentColor" style="fill:currentColor;fill:currentColor;fill-opacity:1;"/>
<path d="M26.0725 3.05658C26.5049 2.71292 27.134 2.78482 27.4776 3.21716C27.8213 3.6495 27.7494 4.27857 27.317 4.62223L8.08282 19.911C7.65048 20.2546 7.02141 20.1827 6.67776 19.7504C6.3341 19.318 6.40599 18.689 6.83834 18.3453L26.0725 3.05658Z" fill="currentColor" style="fill:currentColor;fill:currentColor;fill-opacity:1;"/>
</svg>
