<svg width="32" height="32" viewBox="0 0 32 32" fill="none" xmlns="http://www.w3.org/2000/svg">
<path d="M22.4 2.39961C22.4 2.18744 22.4842 1.98395 22.6343 1.83392C22.7843 1.68389 22.9878 1.59961 23.2 1.59961H29.6C29.8121 1.59961 30.0156 1.68389 30.1656 1.83392C30.3157 1.98395 30.4 2.18744 30.4 2.39961V10.3996C30.4 10.6118 30.3157 10.8153 30.1656 10.9653C30.0156 11.1153 29.8121 11.1996 29.6 11.1996H27.2V29.5996C27.2 29.8118 27.1157 30.0153 26.9656 30.1653C26.8156 30.3153 26.6121 30.3996 26.4 30.3996C26.1878 30.3996 25.9843 30.3153 25.8343 30.1653C25.6842 30.0153 25.6 29.8118 25.6 29.5996V11.1996H23.2C22.9878 11.1996 22.7843 11.1153 22.6343 10.9653C22.4842 10.8153 22.4 10.6118 22.4 10.3996V2.39961ZM20.8 4.79961H9.82395C8.89903 4.79943 8.00263 5.11978 7.28733 5.70614C6.57203 6.2925 6.08204 7.10863 5.90075 8.01561L5.58395 9.59961H4.39995C4.08169 9.59961 3.77647 9.72604 3.55142 9.95108C3.32638 10.1761 3.19995 10.4813 3.19995 10.7996C3.19995 11.1179 3.32638 11.4231 3.55142 11.6481C3.77647 11.8732 4.08169 11.9996 4.39995 11.9996H5.10395L4.92635 12.8956C4.42813 13.0413 3.99058 13.3446 3.67931 13.76C3.36805 14.1754 3.19985 14.6805 3.19995 15.1996V23.1996C3.19995 23.8361 3.45281 24.4466 3.9029 24.8967C4.35298 25.3468 4.96343 25.5996 5.59995 25.5996H6.39995V27.1996C6.39995 27.624 6.56852 28.0309 6.86858 28.331C7.16864 28.631 7.57561 28.7996 7.99995 28.7996C8.4243 28.7996 8.83126 28.631 9.13132 28.331C9.43138 28.0309 9.59995 27.624 9.59995 27.1996V25.5996H22.4V27.1996C22.4 27.624 22.5685 28.0309 22.8686 28.331C23.1686 28.631 23.5756 28.7996 24 28.7996V23.9996H5.59995C5.38778 23.9996 5.1843 23.9153 5.03427 23.7653C4.88424 23.6153 4.79995 23.4118 4.79995 23.1996V15.1996C4.79995 14.9874 4.88424 14.784 5.03427 14.6339C5.1843 14.4839 5.38778 14.3996 5.59995 14.3996H24V12.7996H6.57595L7.47035 8.32921C7.57906 7.78534 7.87277 7.29592 8.30156 6.94414C8.73034 6.59236 9.26773 6.39994 9.82235 6.39961H20.8V4.79961ZM24 19.1996C24 18.7753 23.8314 18.3683 23.5313 18.0682C23.2313 17.7682 22.8243 17.5996 22.4 17.5996C21.9756 17.5996 21.5686 17.7682 21.2686 18.0682C20.9685 18.3683 20.8 18.7753 20.8 19.1996C20.8 19.624 20.9685 20.0309 21.2686 20.331C21.5686 20.631 21.9756 20.7996 22.4 20.7996C22.8243 20.7996 23.2313 20.631 23.5313 20.331C23.8314 20.0309 24 19.624 24 19.1996ZM11.2 19.1996C11.2 18.7753 11.0314 18.3683 10.7313 18.0682C10.4313 17.7682 10.0243 17.5996 9.59995 17.5996C9.17561 17.5996 8.76864 17.7682 8.46858 18.0682C8.16852 18.3683 7.99995 18.7753 7.99995 19.1996C7.99995 19.624 8.16852 20.0309 8.46858 20.331C8.76864 20.631 9.17561 20.7996 9.59995 20.7996C10.0243 20.7996 10.4313 20.631 10.7313 20.331C11.0314 20.0309 11.2 19.624 11.2 19.1996Z" fill="currentColor" style="fill:currentColor;fill:currentColor;fill-opacity:1;"/>
</svg>
