<svg width="32" height="32" viewBox="0 0 32 32" fill="none" xmlns="http://www.w3.org/2000/svg">
<path d="M21.2226 29.4573C21.2346 29.4587 21.2468 29.4597 21.2588 29.4602L21.4111 29.4719C21.7553 29.509 22.0873 29.6225 22.3828 29.805C22.533 29.924 22.6444 30.0854 22.7012 30.2688C22.7594 30.4578 22.7575 30.6611 22.6953 30.8489C22.6329 31.0367 22.5132 31.2009 22.3535 31.3176C22.1943 31.4339 22.0027 31.4975 21.8056 31.5003C21.7615 31.5001 21.7173 31.4978 21.6738 31.4915L21.542 31.4622C21.4049 31.4219 21.2098 31.3686 20.9941 31.3645C20.8719 31.3493 20.7532 31.312 20.6455 31.2522C20.5353 31.191 20.4387 31.1077 20.3603 31.0091C20.282 30.9104 20.2231 30.7972 20.1885 30.676C20.1539 30.5549 20.1439 30.4272 20.1582 30.302C20.1726 30.177 20.2114 30.0556 20.2724 29.9456C20.3337 29.8354 20.4169 29.7378 20.5156 29.6594C20.6143 29.5812 20.7275 29.5232 20.8486 29.4885C20.9699 29.4539 21.0973 29.4429 21.2226 29.4573Z" fill="currentColor" style="fill:currentColor;fill:currentColor;fill-opacity:1;"/>
<path d="M14.1474 27.9417L14.1553 27.9426C14.7977 27.9975 15.4269 28.1567 16.0176 28.4153C16.2139 28.5056 16.3738 28.6605 16.4707 28.8538C16.5678 29.0478 16.5958 29.2697 16.5498 29.4817C16.5152 29.6406 16.4403 29.7877 16.334 29.9085L16.2168 30.0208C16.0911 30.1219 15.9423 30.1894 15.7851 30.2171L15.625 30.2307C15.5644 30.2311 15.5033 30.2379 15.4437 30.2269C15.4036 30.2194 15.364 30.2095 15.3252 30.1966L15.2314 30.1604L15.2187 30.1546L14.9101 30.0393C14.6012 29.9379 14.281 29.8737 13.956 29.8489C13.8309 29.8364 13.7095 29.8 13.5986 29.7405C13.4878 29.6811 13.3902 29.5995 13.3105 29.5022C13.2309 29.4049 13.1711 29.2925 13.1347 29.1721C13.0984 29.0518 13.0862 28.9251 13.0986 28.8001C13.1111 28.675 13.1486 28.5534 13.208 28.4426C13.2674 28.3319 13.348 28.2332 13.4453 28.1536L13.5215 28.0969C13.705 27.9749 13.9262 27.9196 14.1474 27.9417Z" fill="currentColor" style="fill:currentColor;fill:currentColor;fill-opacity:1;"/>
<path d="M25.7324 28.1966C25.9419 28.0678 26.1933 28.025 26.4336 28.0774C26.5778 28.1166 26.7256 28.1405 26.875 28.1468L26.8955 28.1477C27.1478 28.1477 27.3899 28.2477 27.5683 28.426C27.7466 28.6044 27.8467 28.8467 27.8467 29.0989C27.8464 29.3508 27.7464 29.5926 27.5683 29.7708C27.39 29.949 27.1476 30.0491 26.8955 30.0491C26.5781 30.0439 26.2625 29.9998 25.956 29.9173C25.7215 29.8465 25.5229 29.6882 25.4023 29.4749C25.2815 29.2607 25.2482 29.0069 25.3096 28.7688C25.3711 28.5309 25.5231 28.3254 25.7324 28.1966Z" fill="currentColor" style="fill:currentColor;fill:currentColor;fill-opacity:1;"/>
<path d="M6.29686 27.9446C6.50329 27.8118 6.7533 27.7628 6.99412 27.8098C7.47302 27.9191 7.95933 27.9931 8.4492 28.0296L8.46678 28.0305L8.56053 28.0393C8.77733 28.0697 8.97805 28.174 9.12791 28.3362C9.29913 28.5218 9.38996 28.7685 9.37986 29.0208C9.36959 29.2729 9.25963 29.5107 9.0742 29.6819C8.91715 29.8267 8.7169 29.9128 8.50616 29.9298C8.45988 29.9335 8.4136 29.9261 8.36717 29.926H8.27244C7.69237 29.88 7.11653 29.7905 6.54979 29.6585C6.31638 29.5917 6.11707 29.4378 5.99314 29.2288C5.86787 29.0172 5.8293 28.765 5.88572 28.5257C5.94236 28.2862 6.08999 28.0778 6.29686 27.9446Z" fill="currentColor" style="fill:currentColor;fill:currentColor;fill-opacity:1;"/>
<path d="M20.0986 24.427C20.3381 24.3931 20.5816 24.4513 20.7793 24.5901L21.0117 24.7903C21.1412 24.9093 21.5001 25.1945 21.9824 25.5384C22.1411 25.658 22.2591 25.8242 22.3183 26.0139C22.3777 26.2044 22.3756 26.4096 22.3125 26.5989C22.2651 26.7405 22.1851 26.8687 22.0801 26.9729L21.9658 27.0696C21.8462 27.1557 21.7085 27.2129 21.5644 27.2366L21.4189 27.2493C21.3492 27.2499 21.2787 27.2584 21.2108 27.2427C21.1331 27.2249 21.0579 27.1977 20.9873 27.1604L20.8625 27.0811C20.8617 27.0806 20.861 27.08 20.8603 27.0794L20.4638 26.7786C20.1003 26.4977 19.8383 26.281 19.7168 26.1692L19.6738 26.1331L19.5996 26.0735C19.529 26.0102 19.4679 25.9364 19.4189 25.8548C19.3537 25.7458 19.3107 25.6241 19.2929 25.4983C19.2752 25.3726 19.2829 25.2441 19.3154 25.1214C19.348 24.9988 19.4054 24.8833 19.483 24.783C19.4832 24.7827 19.4832 24.7823 19.4829 24.782C19.4826 24.7817 19.4826 24.7813 19.4828 24.781C19.6342 24.5879 19.8557 24.4616 20.0986 24.427Z" fill="currentColor" style="fill:currentColor;fill:currentColor;fill-opacity:1;"/>
<path d="M1.61424 24.261C1.70791 24.2731 1.79891 24.2996 1.88475 24.3382L1.97459 24.3831C2.15302 24.4824 2.32586 24.5917 2.49217 24.7102L2.70897 24.8714C2.86241 24.9936 2.97425 25.1605 3.02928 25.3489C3.08458 25.5385 3.07945 25.7414 3.01463 25.928C2.96594 26.0678 2.88524 26.1937 2.78025 26.2962L2.66795 26.3909C2.51469 26.4997 2.33199 26.5592 2.14451 26.5647L2.08885 26.5598C1.93174 26.5579 1.77791 26.5167 1.64158 26.4417L1.51072 26.3548L1.49705 26.344L1.38865 26.2649L1.36619 26.2493L1.18162 26.136C1.12677 26.1043 1.07098 26.0742 1.01463 26.0452C0.9054 25.9826 0.809392 25.8987 0.732403 25.7991C0.655524 25.6995 0.598413 25.5855 0.565411 25.4641C0.532508 25.3429 0.524132 25.2157 0.54002 25.0911C0.556042 24.9663 0.596655 24.8448 0.659161 24.7356C0.721726 24.6265 0.805739 24.5303 0.905254 24.4534C1.00479 24.3765 1.11887 24.3204 1.24022 24.2874C1.36178 24.2544 1.4893 24.245 1.61424 24.261Z" fill="currentColor" style="fill:currentColor;fill:currentColor;fill-opacity:1;"/>
<path d="M14.9346 23.6165C15.1542 23.6233 15.3663 23.706 15.5332 23.8518C15.7235 24.0183 15.8403 24.2538 15.8574 24.5061C15.8743 24.7584 15.7903 25.008 15.624 25.1985C15.4782 25.3652 15.279 25.4757 15.0625 25.512L14.9687 25.5227L14.1543 25.5803L13.3955 25.6233H13.3301C13.0779 25.6289 12.8327 25.5349 12.6504 25.3606C12.4681 25.1863 12.3632 24.9458 12.3574 24.6936C12.3517 24.4416 12.4461 24.1973 12.6201 24.0149C12.7945 23.8325 13.0348 23.7267 13.2871 23.721C13.2939 23.7208 13.3008 23.7204 13.3076 23.72L13.9892 23.676H13.9922L14.8408 23.6184L14.9346 23.6165Z" fill="currentColor" style="fill:currentColor;fill:currentColor;fill-opacity:1;"/>
<path d="M1.6699 12.5305C1.79229 12.5059 1.91847 12.5056 2.041 12.5296L2.04881 12.5315C2.95034 12.6934 3.81506 13.0181 4.59998 13.4901C4.60037 13.4904 4.60073 13.4907 4.60105 13.491C4.60138 13.4913 4.60174 13.4916 4.60214 13.4918C5.11046 13.7956 5.64665 14.0519 6.20213 14.2571L6.21775 14.262L6.48826 14.3577C7.11303 14.5891 7.70906 14.8926 8.26365 15.263C8.72905 15.613 9.16109 16.0058 9.55272 16.4368C9.79342 16.7031 10.0471 16.9588 10.3135 17.1995L10.3291 17.2122C11.7494 18.3969 13.8699 18.779 16.8359 18.5686H16.9619C16.9738 18.5686 16.9861 18.5685 16.998 18.5676L17.7773 18.5159C19.5464 18.4127 21.3882 18.4564 22.79 19.6301L22.9433 19.7649C23.2976 20.1095 23.6148 20.4909 23.8896 20.9016C23.8924 20.9057 23.8956 20.9103 23.8984 20.9143L24.0615 21.1419C24.1182 21.2197 24.1779 21.2991 24.2412 21.3782L24.2422 21.3792C24.7869 22.058 25.4752 22.6085 26.2578 22.9895C27.0406 23.3706 27.8989 23.5732 28.7695 23.5833H28.7754C29.0274 23.5834 29.269 23.6835 29.4472 23.8616C29.6255 24.04 29.7265 24.2822 29.7265 24.5344C29.7264 24.7865 29.6255 25.029 29.4472 25.2073C29.2941 25.3602 29.0939 25.4544 28.8809 25.4781C28.8543 25.4811 28.8274 25.4804 28.8008 25.4778C27.6466 25.4684 26.5086 25.202 25.4707 24.6966C24.5571 24.2516 23.7412 23.6312 23.0683 22.8733L22.789 22.5403C22.7245 22.4553 22.661 22.3697 22.5957 22.2815L22.3887 22.0042C22.241 21.7852 22.0793 21.5758 21.9033 21.3792C19.8577 19.094 14.1474 21.9485 9.15623 18.6731L8.91209 18.4632C8.75137 18.3209 8.59434 18.1742 8.44139 18.0237L8.2158 17.7952C7.90709 17.4524 7.56839 17.1378 7.20408 16.8548L7.17088 16.8303L6.78416 16.596C6.39399 16.3762 5.98328 16.1942 5.5576 16.053C5.07324 15.8778 4.60175 15.6711 4.14549 15.4329L3.69432 15.1839C3.075 14.7956 2.38733 14.5288 1.66795 14.3987C1.54814 14.3742 1.43298 14.3267 1.33104 14.2591C1.22687 14.1899 1.13716 14.1001 1.06736 13.9964C0.997685 13.8927 0.948589 13.776 0.923809 13.6536C0.899085 13.5311 0.89887 13.4042 0.922832 13.2815C0.94688 13.159 0.995397 13.0418 1.06443 12.9378C1.13355 12.8337 1.22254 12.7438 1.32615 12.6741C1.42994 12.6043 1.54732 12.5553 1.6699 12.5305Z" fill="currentColor" style="fill:currentColor;fill:currentColor;fill-opacity:1;"/>
<path d="M6.64451 21.9485C6.76959 21.941 6.89522 21.9584 7.01365 21.9993C7.13206 22.0402 7.24119 22.1046 7.33494 22.1878L7.33885 22.1907L7.44822 22.2854L7.45506 22.2913C7.75087 22.5385 8.07417 22.7515 8.41812 22.9256C8.41996 22.9266 8.42186 22.9274 8.42381 22.928C8.6144 23.023 8.7671 23.1799 8.85838 23.3723C8.94957 23.5648 8.97387 23.7828 8.92674 23.9905C8.87949 24.1981 8.76395 24.3846 8.59861 24.5188C8.43431 24.652 8.22991 24.7255 8.01854 24.7298C7.872 24.7278 7.72714 24.6931 7.59666 24.6262L7.58787 24.6223L7.23143 24.4348C6.88029 24.2378 6.54657 24.0102 6.23436 23.7551L6.06443 23.6126C5.9725 23.5302 5.89682 23.4306 5.84275 23.3196C5.78803 23.2071 5.7566 23.0841 5.749 22.9593C5.7415 22.8344 5.75805 22.7084 5.79881 22.5901C5.83967 22.4719 5.90435 22.3625 5.98729 22.2688C6.07038 22.1751 6.17154 22.0981 6.28416 22.0432C6.39682 21.9885 6.51948 21.956 6.64451 21.9485Z" fill="currentColor" style="fill:currentColor;fill:currentColor;fill-opacity:1;"/>
<path d="M1.31932 18.5628C1.54561 18.4686 1.79982 18.4656 2.0283 18.554L2.24607 18.6546C2.45864 18.7658 2.65493 18.9073 2.82811 19.0745L2.84959 19.094L2.91795 19.1594C2.98347 19.2281 3.03853 19.3066 3.08104 19.3919C3.13755 19.5054 3.17167 19.6295 3.17967 19.7561C3.18757 19.8827 3.16978 20.0104 3.12791 20.1301C3.09645 20.22 3.0514 20.3049 2.9951 20.3811L2.93455 20.4544L2.92967 20.4602C2.84068 20.5614 2.73106 20.6428 2.60838 20.6985C2.4855 20.7542 2.35166 20.7823 2.21678 20.7825C2.02302 20.782 1.83525 20.7194 1.68162 20.6038L1.61814 20.551C1.57394 20.5106 1.50532 20.5137 1.46496 20.558L1.20604 20.8421L1.41681 20.6088C1.48266 20.536 1.47711 20.4225 1.39451 20.3694L1.2617 20.2942C1.21508 20.2711 1.17004 20.2445 1.12791 20.2141L1.00975 20.1126C0.921088 20.0232 0.850067 19.9167 0.802715 19.8001C0.755441 19.6834 0.732052 19.5578 0.733379 19.4319C0.73479 19.3061 0.761724 19.1813 0.811504 19.0657C0.909164 18.839 1.0915 18.6578 1.31932 18.5628Z" fill="currentColor" style="fill:currentColor;fill:currentColor;fill-opacity:1;"/>
<path d="M26.6308 17.6643C26.8265 17.6271 27.0532 17.6766 27.2519 17.8128C27.4821 17.9705 27.7294 18.1035 27.9892 18.2093C28.4133 18.3818 28.8639 18.4773 29.3201 18.4939C29.3968 18.4966 29.4731 18.5106 29.5498 18.511L29.6426 18.5159C29.8586 18.5383 30.0617 18.6344 30.2168 18.7893L30.2803 18.8596C30.4187 19.0288 30.4951 19.2417 30.4951 19.4622C30.495 19.7143 30.3951 19.9568 30.2168 20.135C30.0608 20.2908 29.8561 20.3868 29.6387 20.4085L29.5439 20.4134H29.539C28.7178 20.4221 27.9037 20.2586 27.1494 19.9339C26.701 19.7408 26.2789 19.4932 25.8935 19.1975C25.8098 19.1332 25.7604 19.0363 25.7607 18.887C25.7613 18.7274 25.8232 18.5333 25.9394 18.3645L26.0429 18.2053C26.0764 18.1516 26.1096 18.0965 26.1406 18.0413C26.2398 17.8647 26.3875 17.7397 26.5488 17.6858L26.6308 17.6643Z" fill="currentColor" style="fill:currentColor;fill:currentColor;fill-opacity:1;"/>
<path d="M4.65916 6.07058L4.749 6.11257L4.82615 6.15652C4.85057 6.17347 4.87341 6.19303 4.89451 6.21413L5.06443 6.38406C5.30017 6.64366 5.54841 6.8921 5.80857 7.12722L5.82225 7.13894L6.09764 7.35378C7.51309 8.37582 9.57527 8.69841 12.3125 8.49734C12.3611 8.49952 12.3994 8.53958 12.3994 8.58825V9.46983C12.3994 10.0014 11.9889 10.4459 11.4576 10.4633C9.33574 10.5329 6.77971 10.2991 4.81932 8.79128L4.60057 8.6155C4.27753 8.33584 3.96949 8.03897 3.67772 7.72683C3.38764 7.37953 3.06744 7.05783 2.72166 6.76589C2.71992 6.76442 2.72166 6.99376 2.7158 6.76199C2.71075 6.56217 3.56665 6.34719 4.1462 6.08807C4.30873 6.0154 4.4952 6.00119 4.65916 6.07058Z" fill="currentColor" style="fill:currentColor;fill:currentColor;fill-opacity:1;"/>
<path d="M23.8657 13.6839L24.5718 14.3919L24.5639 14.3997C24.5609 14.4026 24.5575 14.4053 24.5542 14.4085C24.5476 14.4148 24.5405 14.4219 24.5327 14.429C24.5168 14.4434 24.498 14.4596 24.477 14.4768C24.4349 14.5115 24.3825 14.5516 24.3188 14.594C24.1912 14.6791 24.0201 14.7743 23.7993 14.8626C23.3559 15.0399 22.7282 15.1839 21.8657 15.1839C20.8966 15.1839 20.1015 14.8553 19.4946 14.6126C18.8515 14.3553 18.3964 14.1839 17.8657 14.1839C17.401 14.1839 17.0774 14.2405 16.8657 14.2991V17.1839C16.8657 17.7361 16.418 18.1839 15.8657 18.1839C15.3134 18.1839 14.8657 17.7361 14.8657 17.1839V7.68386C14.8657 7.41865 14.9711 7.16436 15.1587 6.97683L15.8657 7.68386C15.1901 7.00831 15.1605 6.97769 15.1596 6.97585L15.1675 6.96804C15.1705 6.96511 15.1739 6.9624 15.1772 6.95925C15.1839 6.95293 15.1909 6.94586 15.1987 6.93874C15.2146 6.92431 15.2334 6.90815 15.2544 6.89089C15.2965 6.85621 15.3489 6.81614 15.4126 6.7737C15.5402 6.6886 15.7113 6.59347 15.9321 6.50515C16.3755 6.32786 17.0032 6.18386 17.8657 6.18386C18.8348 6.18386 19.6299 6.5124 20.2368 6.75515C20.8799 7.01239 21.335 7.18386 21.8657 7.18386C22.503 7.18386 22.8755 7.0778 23.0571 7.00515C23.1486 6.96853 23.1965 6.93858 23.2095 6.92995C23.2161 6.92551 23.2145 6.92653 23.2055 6.93386C23.2011 6.93751 23.1947 6.94245 23.187 6.94949C23.1832 6.95297 23.1789 6.95683 23.1743 6.9612L23.1606 6.97488C23.4466 6.69044 23.8757 6.6056 24.2485 6.76003C24.6221 6.91484 24.8657 7.27944 24.8657 7.68386V13.6839C24.8657 13.9491 24.7603 14.2034 24.5727 14.3909L23.8657 13.6839ZM17.8657 8.18386C17.401 8.18386 17.0774 8.24045 16.8657 8.29909V12.2581C17.1571 12.2123 17.4889 12.1839 17.8657 12.1839C18.8348 12.1839 19.6299 12.5124 20.2368 12.7551C20.8799 13.0124 21.335 13.1839 21.8657 13.1839C22.3306 13.1839 22.654 13.1263 22.8657 13.0676V9.10867C22.5743 9.15443 22.2426 9.18386 21.8657 9.18386C20.8966 9.18386 20.1015 8.85532 19.4946 8.61257C18.8515 8.35533 18.3964 8.18386 17.8657 8.18386Z" fill="currentColor" style="fill:currentColor;fill:currentColor;fill-opacity:1;"/>
</svg>
