<svg width="32" height="32" viewBox="0 0 32 32" fill="none" xmlns="http://www.w3.org/2000/svg">
<path fill-rule="evenodd" clip-rule="evenodd" d="M16.709 5.88578C17.0091 5.64598 17.4203 5.59926 17.7666 5.76567C18.113 5.93217 18.333 6.28269 18.333 6.66703V12.836C20.3339 14.5363 20.3337 17.4636 18.333 19.1641V25.334C18.3329 25.7183 18.1129 26.0689 17.7666 26.2354C17.4635 26.381 17.1107 26.3629 16.8262 26.1954L16.709 26.1143L10.3154 21H4C3.44772 21 3 20.5523 3 20V12L3.00488 11.8985C3.05598 11.3941 3.48215 11 4 11H10.3164L16.709 5.88578ZM11.291 12.7813C11.1138 12.923 10.8938 13 10.667 13H5V19H10.667L10.835 19.0147C11.001 19.043 11.158 19.1134 11.291 19.2198L16.333 23.252V8.74809L11.291 12.7813Z" fill="currentColor" style="fill:currentColor;fill:currentColor;fill-opacity:1;"/>
<path d="M20.626 9.96C20.992 9.59397 21.5711 9.57151 21.9639 9.89164L22.04 9.96L22.3281 10.2647C25.2086 13.4877 25.1125 18.9685 22.04 22.0411C21.6495 22.4313 21.0164 22.4313 20.626 22.0411C20.2358 21.6506 20.2358 21.0175 20.626 20.627C22.9418 18.3111 23.0139 14.0425 20.8428 11.6045L20.626 11.3741L20.5576 11.2979C20.2375 10.9052 20.26 10.326 20.626 9.96Z" fill="currentColor" style="fill:currentColor;fill:currentColor;fill-opacity:1;"/>
</svg>
