<svg width="32" height="32" viewBox="0 0 32 32" fill="none" xmlns="http://www.w3.org/2000/svg">
<path d="M27.0704 7.71191H4.92914C4.63704 7.71658 4.3582 7.8347 4.15163 8.04128C3.94505 8.24785 3.82694 8.52668 3.82227 8.81879V15.3532C3.82677 15.6454 3.94482 15.9244 4.15141 16.1311C4.358 16.3378 4.63693 16.456 4.92914 16.4607H4.96852L3.86227 22.8869C3.74227 23.5844 4.15414 24.2882 4.92977 24.2882H9.87477C10.3248 24.2882 10.8566 23.9475 10.9423 23.4757C11.3673 21.1369 11.7925 18.7986 12.2179 16.4607H27.0704C27.3626 16.456 27.6415 16.3378 27.8481 16.1311C28.0547 15.9244 28.1728 15.6454 28.1773 15.3532V8.81879C28.1726 8.52668 28.0545 8.24785 27.8479 8.04128C27.6413 7.8347 27.3625 7.71658 27.0704 7.71191ZM8.95164 22.0744H6.23852C6.5606 20.2032 6.88289 18.3319 7.20539 16.4607H9.97289C9.63247 18.3319 9.29206 20.2032 8.95164 22.0744ZM11.301 14.2463H6.03602V9.92566H25.9635V14.2463H11.301Z" fill="currentColor" style="fill:currentColor;fill:currentColor;fill-opacity:1;"/>
</svg>
