<svg width="32" height="32" viewBox="0 0 32 32" fill="none" xmlns="http://www.w3.org/2000/svg">
<path fill-rule="evenodd" clip-rule="evenodd" d="M30.1016 13.7246C30.606 13.7756 31 14.2018 31 14.7197V30C30.9999 30.5521 30.5521 30.9999 30 31H2C1.44785 31 1.00023 30.5521 1 30V24.9062L1.00488 24.8037C1.05621 24.2996 1.48232 23.9062 2 23.9062H6.09375V19.8135L6.09863 19.7109C6.14999 19.2068 6.57609 18.8135 7.09375 18.8135H11.1865V14.7334L11.1914 14.6309C11.2427 14.1268 11.669 13.7335 12.1865 13.7334H24.7461C24.7983 13.725 24.8517 13.7197 24.9062 13.7197H30L30.1016 13.7246ZM3 29H13.7197V25.9072H7.09375C7.08706 25.9072 7.0799 25.9064 7.07324 25.9062H3V29ZM25.9199 19.8271C25.9197 20.3792 25.472 20.8271 24.9199 20.8271H20.8271V24.9072C20.8269 25.4591 20.379 25.9069 19.8271 25.9072H15.7334V29H29V15.7197H25.9199V19.8271ZM8.09375 23.9062H18.8135V20.8271H12.1865C12.133 20.8271 12.0806 20.8216 12.0293 20.8135H8.09375V23.9062ZM13.1865 18.8135H23.9062V15.7334H13.1865V18.8135Z" fill="currentColor" style="fill:currentColor;fill:currentColor;fill-opacity:1;"/>
<path d="M14.7412 1.00098C14.7673 1.00117 14.7933 1.00168 14.8193 1.00391L14.8223 1.00488H14.8242C15.049 1.02521 15.2683 1.12085 15.4404 1.29297C15.6745 1.52721 15.7676 1.84839 15.7207 2.15234V8.36035C15.7205 8.91228 15.2726 9.36003 14.7207 9.36035C14.1685 9.36035 13.7209 8.91247 13.7207 8.36035V4.42676L2.70703 15.4404C2.31657 15.8308 1.68347 15.8307 1.29297 15.4404C0.902482 15.0499 0.902557 14.4169 1.29297 14.0264L12.3193 3H8.36035C7.80807 3 7.36035 2.55228 7.36035 2C7.36035 1.44772 7.80807 1 8.36035 1H14.7207L14.7412 1.00098Z" fill="currentColor" style="fill:currentColor;fill:currentColor;fill-opacity:1;"/>
</svg>
