<svg width="32" height="32" viewBox="0 0 32 32" fill="none" xmlns="http://www.w3.org/2000/svg">
<path d="M31.334 5.50684H28.333C28.4438 5.81988 28.5068 6.15584 28.5068 6.50684V7.61328C28.5068 8.76496 27.8565 9.76283 26.9043 10.2656C27.1088 10.6711 27.2265 11.1281 27.2266 11.6133V17.3389C27.211 20.3061 26.0216 23.1465 23.918 25.2393C21.9457 27.2012 19.3202 28.3565 16.5547 28.4932L16 28.5068C13.0328 28.5068 10.1857 27.3319 8.08203 25.2393C5.97851 23.1466 4.78895 20.306 4.77344 17.3389V11.6133C4.77347 11.1263 4.89169 10.6674 5.09766 10.2607C4.1516 9.75603 3.50684 8.76043 3.50684 7.61328V6.50684C3.50684 6.15574 3.57081 5.81996 3.68164 5.50684H0.666992V3.50684H31.334V5.50684ZM7.67188 10.6191C7.16749 10.6702 6.77355 11.0955 6.77344 11.6133V17.3281L6.78711 17.7842C6.91133 20.0564 7.87227 22.2088 9.49316 23.8213C11.222 25.5411 13.5614 26.5068 16 26.5068L16.4561 26.4951C18.7289 26.3828 20.8869 25.4337 22.5078 23.8213C24.2352 22.1027 25.2124 19.7705 25.2266 17.334V11.6133C25.2265 11.0957 24.8332 10.6704 24.3291 10.6191L24.2266 10.6133H7.77344L7.67188 10.6191ZM16 16.2803C17.9659 16.2804 19.5604 17.8739 19.5605 19.8398C19.5605 21.8059 17.966 23.4003 16 23.4004C14.034 23.4002 12.4404 21.8059 12.4404 19.8398C12.4406 17.874 14.0341 16.2804 16 16.2803ZM16 18.2803C15.1387 18.2804 14.4406 18.9785 14.4404 19.8398C14.4404 20.7013 15.1386 21.4002 16 21.4004C16.8615 21.4003 17.5605 20.7013 17.5605 19.8398C17.5604 18.9785 16.8613 18.2804 16 18.2803ZM12.1738 13.7197C12.7258 13.72 13.1736 14.1678 13.1738 14.7197C13.1738 15.2719 12.7259 15.7195 12.1738 15.7197H9.61328C9.06117 15.7195 8.61328 15.2719 8.61328 14.7197C8.61352 14.1678 9.06132 13.7199 9.61328 13.7197H12.1738ZM6.4043 5.51172C5.90024 5.56312 5.50684 5.98921 5.50684 6.50684V7.61328C5.50684 8.16551 5.95462 8.6132 6.50684 8.61328H25.5068C26.059 8.61315 26.5068 8.16548 26.5068 7.61328V6.50684C26.5068 5.98919 26.1135 5.56309 25.6094 5.51172L25.5068 5.50684H6.50684L6.4043 5.51172Z" fill="currentColor" style="fill:currentColor;fill:currentColor;fill-opacity:1;"/>
</svg>
