<svg width="32" height="32" viewBox="0 0 32 32" fill="none" xmlns="http://www.w3.org/2000/svg">
<path d="M31 12C31.5523 12 32 12.4477 32 13C32 13.5523 31.5523 14 31 14H19.3369V17.8115C19.3368 18.3637 18.8891 18.8115 18.3369 18.8115H13.0586V22.9053C13.0586 23.4574 12.6107 23.905 12.0586 23.9053H7.12793V28C7.12793 28.5523 6.6802 29 6.12793 29H1C0.447715 29 0 28.5523 0 28C2.89917e-07 27.4477 0.447715 27 1 27H5.12793V22.9053C5.12814 22.3532 5.57577 21.9053 6.12793 21.9053H11.0586V17.8115C11.0586 17.2592 11.5063 16.8115 12.0586 16.8115H17.3369V13L17.3428 12.8975C17.3941 12.3935 17.8194 12.0001 18.3369 12H31Z" fill="currentColor" style="fill:currentColor;fill:currentColor;fill-opacity:1;"/>
<path d="M11.0703 3.25064C11.5032 2.92967 12.1614 2.91417 12.6152 3.22036L12.709 3.29068L12.7373 3.31607L15.6816 6.15786C15.8908 6.34465 16 6.58572 16 6.82876C16 7.0825 15.8809 7.3352 15.6533 7.52505L15.6523 7.52407L12.624 10.3961L12.6191 10.4001C12.1365 10.8023 11.347 10.7831 10.8916 10.3668C10.4706 9.98145 10.481 9.38712 10.9219 9.01333L11.9766 7.81607H5.25977C3.9231 7.81626 2.73246 8.78042 2.73242 10.0788C2.73227 10.3609 2.58677 10.605 2.34082 10.7721C2.10672 10.9311 1.81316 10.9996 1.54102 10.9997C1.26888 10.9996 0.975303 10.931 0.741211 10.7721C0.495257 10.605 0.349759 10.3609 0.349609 10.0788C0.349644 7.78805 2.489 5.84164 5.25977 5.84146H12.126L10.9844 4.65005C10.5726 4.27522 10.57 3.70054 10.9814 3.32388L11.0703 3.25064Z" fill="currentColor" style="fill:currentColor;fill:currentColor;fill-opacity:1;"/>
</svg>
