<svg width="32" height="32" viewBox="0 0 32 32" fill="none" xmlns="http://www.w3.org/2000/svg">
<path d="M10.6797 27.5C11.232 27.5 11.6797 27.9477 11.6797 28.5C11.6797 29.0523 11.232 29.5 10.6797 29.5H10.667C10.1147 29.5 9.66699 29.0523 9.66699 28.5C9.66699 27.9477 10.1147 27.5 10.667 27.5H10.6797ZM10.6797 23.333L10.7822 23.3389C11.2864 23.3901 11.6795 23.8154 11.6797 24.333C11.6797 24.8508 11.2865 25.2769 10.7822 25.3281L10.6797 25.333H10.667C10.1147 25.333 9.66699 24.8853 9.66699 24.333C9.66717 23.7809 10.1148 23.333 10.667 23.333H10.6797ZM16.0137 23.333L16.1152 23.3389C16.6195 23.3899 17.0135 23.8153 17.0137 24.333C17.0137 24.8509 16.6197 25.2771 16.1152 25.3281L16.0137 25.333H16C15.4477 25.333 15 24.8853 15 24.333C15.0002 23.7809 15.4478 23.333 16 23.333H16.0137ZM10.6797 19.333C11.2319 19.333 11.6795 19.7809 11.6797 20.333C11.6797 20.8853 11.232 21.333 10.6797 21.333H10.667C10.1147 21.333 9.66699 20.8853 9.66699 20.333C9.66717 19.7809 10.1148 19.333 10.667 19.333H10.6797ZM16.0137 19.333L16.1152 19.3389C16.6195 19.3899 17.0135 19.8153 17.0137 20.333C17.0137 20.8509 16.6197 21.2771 16.1152 21.3281L16.0137 21.333H16C15.4477 21.333 15 20.8853 15 20.333C15.0002 19.7809 15.4478 19.333 16 19.333H16.0137ZM21.3467 19.333L21.4492 19.3389C21.9532 19.3902 22.3465 19.8155 22.3467 20.333C22.3467 20.8507 21.9533 21.2768 21.4492 21.3281L21.3467 21.333H21.333C20.7809 21.3328 20.333 20.8852 20.333 20.333C20.3332 19.781 20.781 19.3332 21.333 19.333H21.3467ZM23 13.667C23 9.801 19.866 6.66699 16 6.66699C12.134 6.66699 9 9.801 9 13.667V14H23V13.667ZM25 15C25 15.5523 24.5523 16 24 16H8C7.44772 16 7 15.5523 7 15V13.667C7 9.03448 10.5001 5.22015 15 4.72266V3C15 2.44772 15.4477 2 16 2C16.5523 2 17 2.44772 17 3V4.72266C21.4999 5.22015 25 9.03448 25 13.667V15Z" fill="currentColor" style="fill:currentColor;fill:currentColor;fill-opacity:1;"/>
</svg>
