<svg width="32" height="32" viewBox="0 0 32 32" fill="none" xmlns="http://www.w3.org/2000/svg">
<path d="M29.4808 1.01946C29.8713 0.628931 30.5053 0.628931 30.8958 1.01946C31.286 1.40994 31.2861 2.04308 30.8958 2.43352L3.90071 29.4277C3.51018 29.8181 2.87715 29.8182 2.48665 29.4277C2.09632 29.0371 2.09626 28.4041 2.48665 28.0136L29.4808 1.01946Z" fill="currentColor" style="fill:currentColor;fill:currentColor;fill-opacity:1;"/>
<path d="M26.669 7.98633C26.8737 8.37551 27.0576 8.77865 27.2188 9.19434C27.3558 9.54783 27.6693 9.79942 28.0254 9.92969C29.1763 10.3506 30 11.4477 30 12.751C30 13.9178 29.3394 14.9246 28.3672 15.4209C28.0276 15.5943 27.744 15.883 27.6514 16.2529C27.3268 17.5488 26.7818 18.7811 26.0381 19.8945C25.4025 20.8461 24.6304 21.6967 23.75 22.4209C23.2665 22.8188 23.189 23.5523 23.5615 24.0557C24.7042 25.5989 25.331 27.4769 25.333 29.418C25.3328 29.9645 24.8796 30.418 24.333 30.418C23.7866 30.4178 23.3332 29.9644 23.333 29.418C23.3318 28.4178 23.117 27.4291 22.7031 26.5186C22.3765 25.7999 21.9317 25.143 21.3887 24.5742C21.1226 24.2955 20.7093 24.2382 20.3477 24.3711C19.0638 24.8433 17.7043 25.0852 16.333 25.084C14.7638 25.0857 13.2107 24.7691 11.7676 24.1533C11.7472 24.1446 11.7232 24.1489 11.707 24.1641C10.2004 25.4974 9.33302 27.418 9.33302 29.418C9.33284 29.9645 8.87958 30.418 8.33302 30.418C7.78664 30.4178 7.3332 29.9644 7.33302 29.418C7.33302 28.5893 7.4488 27.7713 7.66896 26.9863L12.4043 22.251C13.6093 22.7857 14.9399 23.083 16.333 23.083C21.213 23.083 25.3335 19.4431 25.9336 14.6299C26.0003 14.1233 26.4267 13.7501 26.9199 13.75C27.5465 13.75 27.9998 13.2965 28 12.75C28 12.2033 27.5467 11.75 27 11.75H26.667C26.6591 11.7499 26.6505 11.7493 26.6426 11.749C26.5477 11.7457 26.4524 11.7457 26.3574 11.749C26.3495 11.7493 26.3409 11.7499 26.333 11.75H24.333C23.8874 11.7495 23.4443 11.714 23.0069 11.6484L26.669 7.98633Z" fill="currentColor" style="fill:currentColor;fill:currentColor;fill-opacity:1;"/>
<path fill-rule="evenodd" clip-rule="evenodd" d="M16.333 1.75098C19.3223 1.75098 22.1014 2.88986 24.1992 4.7998L22.7793 6.21973C22.5791 6.04039 22.3737 5.8659 22.1582 5.70312C21.1238 4.92188 19.9466 4.35909 18.6983 4.04395C18.0599 3.8828 17.5117 4.45563 17.7315 5.07617C18.2387 6.50629 19.2002 7.72529 20.4395 8.55957L19.0029 9.99609C18.4077 9.55821 17.8688 9.05048 17.3994 8.4834C16.8815 7.85774 15.7856 7.85782 15.2676 8.4834C14.6337 9.24929 13.8739 9.90826 13.0176 10.4307C11.6067 11.2913 9.98573 11.7482 8.33302 11.75H6.33302C6.32619 11.7499 6.31934 11.7493 6.31252 11.749C6.21736 11.7457 6.12154 11.7457 6.02638 11.749C6.01762 11.7493 6.00879 11.7499 6.00002 11.75H5.00002C4.45338 11.75 4.00002 12.2034 4.00002 12.75C4.00021 13.2965 4.4535 13.75 5.00002 13.75H5.74709C6.25359 13.7502 6.68009 14.1233 6.73341 14.6299C6.98405 16.6457 7.8504 18.4507 9.12794 19.8711L7.71584 21.2832C6.47961 19.9318 5.57113 18.3013 5.07814 16.5176C4.95486 16.0718 4.55952 15.7573 4.1172 15.6221C3.63545 15.4748 3.19456 15.2066 2.83888 14.8379C2.29873 14.2778 1.99751 13.5291 2.00002 12.751C2.00002 11.1243 3.34671 9.75101 5.00002 9.75098C5.15125 9.75098 5.28528 9.65323 5.33595 9.51074C6.97752 4.89501 11.3525 1.75114 16.333 1.75098ZM14.9346 5.07617C15.1546 4.45561 14.6072 3.8831 13.9688 4.04395C12.7196 4.35869 11.541 4.92071 10.5059 5.70215C9.3745 6.55628 8.44808 7.64662 7.7881 8.89258C7.57681 9.2915 7.88168 9.74974 8.33302 9.75C11.3721 9.75 13.9711 7.79289 14.9346 5.07617Z" fill="currentColor" style="fill:currentColor;fill:currentColor;fill-opacity:1;"/>
<path d="M17.667 17.75C18.2135 17.7502 18.667 18.2034 18.667 18.75C18.6668 20.0298 17.6129 21.083 16.333 21.083C15.585 21.0829 14.9164 20.7215 14.4883 20.167L16.9063 17.75H17.667Z" fill="currentColor" style="fill:currentColor;fill:currentColor;fill-opacity:1;"/>
<path d="M12.333 12.0967C13.0664 12.0967 13.667 12.683 13.667 13.4297C13.667 14.1741 13.0701 14.7727 12.3399 14.7764C12.3363 14.7763 12.333 14.7731 12.333 14.7695C12.333 14.7661 12.3306 14.7629 12.3272 14.7627C11.5969 14.759 11 14.1608 11 13.4297C11 12.6965 11.5999 12.0969 12.333 12.0967Z" fill="currentColor" style="fill:currentColor;fill:currentColor;fill-opacity:1;"/>
<path d="M21.6104 13.0449C21.6465 13.1664 21.667 13.2954 21.667 13.4297C21.667 14.1741 21.0701 14.7727 20.3399 14.7764C20.3363 14.7763 20.333 14.7731 20.333 14.7695C20.333 14.7661 20.3306 14.7629 20.3272 14.7627C20.1964 14.762 20.0698 14.7412 19.9502 14.7051L21.6104 13.0449Z" fill="currentColor" style="fill:currentColor;fill:currentColor;fill-opacity:1;"/>
</svg>
