<svg width="32" height="32" viewBox="0 0 32 32" fill="none" xmlns="http://www.w3.org/2000/svg">
<path d="M28.1602 4.34065C28.5507 3.9502 29.1837 3.95015 29.5742 4.34065C29.9644 4.73118 29.9646 5.36429 29.5742 5.75471L5.98535 29.3436C5.59483 29.7341 4.96084 29.7341 4.57031 29.3436C4.18006 28.9531 4.18016 28.32 4.57031 27.9295L28.1602 4.34065Z" fill="currentColor" style="fill:currentColor;fill:currentColor;fill-opacity:1;"/>
<path d="M25.752 10.9032C25.9563 11.2296 26.1452 11.5664 26.3164 11.9129C26.4909 12.2662 26.8427 12.4965 27.2314 12.5604C28.1688 12.7145 29.0399 13.1625 29.7129 13.8485C30.5381 14.6895 31 15.8216 31 16.9998C30.9999 18.1779 30.5379 19.3093 29.7129 20.1502C29.0399 20.8362 28.1688 21.2841 27.2314 21.4383C26.8426 21.5023 26.4909 21.7325 26.3164 22.0858C25.4169 23.9087 24.0486 25.465 22.3467 26.5907C20.4642 27.8357 18.257 28.4998 16 28.4998C13.8425 28.4998 11.7316 27.891 9.90527 26.7498L11.3633 25.2918C12.7769 26.0819 14.3727 26.4998 16 26.4998C17.8646 26.4998 19.688 25.9514 21.2432 24.9227C22.7983 23.894 24.0165 22.4305 24.7461 20.7147L25 20.118C25.1544 19.7556 25.5075 19.5171 25.9014 19.5096L26.5488 19.4979C27.203 19.4867 27.8268 19.2177 28.2842 18.7498C28.6261 18.4017 28.8588 17.961 28.9531 17.4823C29.0474 17.0033 28.999 16.5065 28.8145 16.0545C28.6299 15.6027 28.3166 15.2143 27.9141 14.9383C27.5115 14.6624 27.0368 14.511 26.5488 14.5018L25.9014 14.4891C25.5073 14.4816 25.1543 14.2433 25 13.8807L24.7461 13.285C24.6115 12.9684 24.4599 12.6603 24.293 12.3621L25.752 10.9032Z" fill="currentColor" style="fill:currentColor;fill:currentColor;fill-opacity:1;"/>
<path d="M17.6221 2.81721C17.9149 2.34919 18.5318 2.20726 19 2.49983C19.4682 2.79255 19.6109 3.40949 19.3184 3.87776L18.9482 4.46956C18.5762 5.0648 18.9181 5.85196 19.585 6.07112C20.8418 6.48414 22.02 7.11344 23.0684 7.93049L21.6426 9.35628C21.512 9.25996 21.3789 9.16582 21.2432 9.076C19.688 8.04745 17.8645 7.49885 16 7.49885C14.1355 7.49886 12.312 8.04744 10.7568 9.076C9.20165 10.1047 7.98351 11.569 7.25391 13.285L7 13.8807C6.84572 14.2433 6.49265 14.4816 6.09863 14.4891L5.45117 14.5018C4.79691 14.514 4.17331 14.7819 3.71484 15.2489C3.25638 15.716 2.99907 16.3453 2.99902 16.9998C2.99911 17.6542 3.25647 18.2828 3.71484 18.7498C4.17333 19.2169 4.79679 19.4856 5.45117 19.4979L6.09863 19.5096C6.4925 19.5171 6.84562 19.7556 7 20.118L7.25391 20.7147C7.54606 21.4018 7.91733 22.048 8.35645 22.6424L6.92871 24.0701C6.44887 23.4549 6.03119 22.7902 5.68359 22.0858C5.50914 21.7325 5.15738 21.5023 4.76855 21.4383C3.83123 21.2841 2.96014 20.8362 2.28711 20.1502C1.46211 19.3093 1.00009 18.1779 1 16.9998C1.00005 15.8216 1.46192 14.6895 2.28711 13.8485C2.96012 13.1626 3.83127 12.7145 4.76855 12.5604C5.15744 12.4964 5.5092 12.2664 5.68359 11.9129C6.57903 10.0983 7.93935 8.54814 9.63086 7.42366C11.3493 6.28127 13.3405 5.62353 15.3945 5.51546C15.737 5.49741 16.0554 5.32372 16.2373 5.03303L17.6221 2.81721Z" fill="currentColor" style="fill:currentColor;fill:currentColor;fill-opacity:1;"/>
<path d="M20 18.9998C20.5522 18.9998 21.01 19.4518 20.9004 19.993C20.8367 20.3071 20.7424 20.6153 20.6191 20.9129C20.3679 21.5195 19.9994 22.0707 19.5352 22.535C19.0709 22.9992 18.5196 23.3677 17.9131 23.619C17.3065 23.8702 16.6565 23.9998 16 23.9998C15.0717 23.9998 14.1707 23.7401 13.3916 23.2635L17.6562 18.9998H20Z" fill="currentColor" style="fill:currentColor;fill:currentColor;fill-opacity:1;"/>
<path d="M11.0879 19.911C11.0408 19.4401 11.42 19.0536 11.8975 19.0047L12 18.9998L11.0879 19.911Z" fill="currentColor" style="fill:currentColor;fill:currentColor;fill-opacity:1;"/>
<path d="M12 14.4998C12.5522 14.4998 12.9999 14.9476 13 15.4998V15.9998C12.9998 16.552 12.5522 16.9998 12 16.9998H11.5C10.9478 16.9998 10.5002 16.552 10.5 15.9998V15.4998C10.5001 14.9476 10.9478 14.4998 11.5 14.4998H12Z" fill="currentColor" style="fill:currentColor;fill:currentColor;fill-opacity:1;"/>
<path d="M21.4541 15.201C21.4836 15.2953 21.5 15.3959 21.5 15.4998V15.9998C21.4998 16.552 21.0522 16.9998 20.5 16.9998H20C19.8959 16.9998 19.7955 16.9835 19.7012 16.9539L21.4541 15.201Z" fill="currentColor" style="fill:currentColor;fill:currentColor;fill-opacity:1;"/>
</svg>
