<svg width="32" height="32" viewBox="0 0 32 32" fill="none" xmlns="http://www.w3.org/2000/svg">
<path d="M15.9998 5.33366C21.8798 5.33366 26.6665 10.1203 26.6665 16.0003C26.6665 21.8803 21.8798 26.667 15.9998 26.667C10.1198 26.667 5.33317 21.8803 5.33317 16.0003C5.33317 10.1203 10.1198 5.33366 15.9998 5.33366ZM15.9998 2.66699C8.6665 2.66699 2.6665 8.66699 2.6665 16.0003C2.6665 23.3337 8.6665 29.3337 15.9998 29.3337C23.3332 29.3337 29.3332 23.3337 29.3332 16.0003C29.3332 8.66699 23.3332 2.66699 15.9998 2.66699ZM15.9998 14.667C15.2665 14.667 14.6665 15.267 14.6665 16.0003C14.6665 16.7337 15.2665 17.3337 15.9998 17.3337C16.7332 17.3337 17.3332 16.7337 17.3332 16.0003C17.3332 15.267 16.7332 14.667 15.9998 14.667ZM13.9461 12.0485C14.1535 12.2587 14.4702 12.3073 14.7494 12.211C15.1425 12.0754 15.5609 12.0003 15.9998 12.0003C16.4413 12.0003 16.8621 12.0763 17.2622 12.2134C17.542 12.3093 17.8585 12.2578 18.0647 12.0457C18.3733 11.7285 18.3071 11.2044 17.8968 11.0386C17.3153 10.8036 16.6731 10.667 15.9998 10.667C15.3282 10.667 14.6937 10.8029 14.113 11.0369C13.7002 11.2032 13.6336 11.7316 13.9461 12.0485ZM19.9998 16.0003C19.9998 16.4404 19.9243 16.8599 19.7881 17.2588C19.6917 17.541 19.7436 17.8601 19.9573 18.068C20.2746 18.3766 20.7983 18.3138 20.9649 17.9037C21.2018 17.3205 21.3332 16.676 21.3332 16.0003C21.3332 15.3262 21.2025 14.6895 20.9666 14.1071C20.7995 13.6945 20.2715 13.6312 19.9546 13.9437C19.7426 14.1529 19.6937 14.4721 19.7905 14.7537C19.9252 15.1457 19.9998 15.5628 19.9998 16.0003ZM11.9998 16.0003C11.9998 15.5614 12.075 15.1429 12.2105 14.7499C12.3068 14.4707 12.2582 14.154 12.048 13.9466C11.7311 13.6341 11.2027 13.7007 11.0364 14.1135C10.8024 14.6941 10.6665 15.3287 10.6665 16.0003C10.6665 16.6736 10.8031 17.3158 11.0381 17.8973C11.2039 18.3076 11.728 18.3738 12.0453 18.0652C12.2573 17.859 12.3088 17.5424 12.2129 17.2627C12.0758 16.8626 11.9998 16.4418 11.9998 16.0003ZM18.0675 19.9578C17.8596 19.7441 17.5405 19.6922 17.2583 19.7886C16.8594 19.9248 16.4399 20.0003 15.9998 20.0003C15.5623 20.0003 15.1452 19.9257 14.7532 19.791C14.4716 19.6942 14.1524 19.7431 13.9433 19.9551C13.6307 20.272 13.694 20.8 14.1066 20.9671C14.689 21.203 15.3258 21.3337 15.9998 21.3337C16.6756 21.3337 17.32 21.2023 17.9032 20.9654C18.3133 20.7988 18.3762 20.2751 18.0675 19.9578ZM22.9545 12.0467C22.745 11.6823 22.2503 11.6432 21.953 11.9405C21.7241 12.1694 21.6909 12.526 21.8459 12.8103C22.3653 13.7629 22.6665 14.8622 22.6665 16.0003C22.6665 17.1385 22.3653 18.2377 21.8459 19.1903C21.6909 19.4746 21.7241 19.8313 21.953 20.0602C22.2503 20.3574 22.745 20.3183 22.9545 19.9539C23.6206 18.7953 23.9998 17.4441 23.9998 16.0003C23.9998 14.5566 23.6206 13.2053 22.9545 12.0467ZM11.9414 10.0485C12.1695 10.2767 12.5249 10.3097 12.808 10.1552C13.7611 9.6352 14.861 9.33366 15.9998 9.33366C17.1387 9.33366 18.2386 9.6352 19.1916 10.1552C19.4748 10.3097 19.8302 10.2767 20.0583 10.0485C20.3556 9.75122 20.3149 9.25605 19.9497 9.04776C18.7504 8.36383 17.3896 8.00068 15.9998 8.00068C14.6101 8.00068 13.2493 8.36383 12.05 9.04776C11.6848 9.25605 11.6441 9.75122 11.9414 10.0485ZM20.0597 21.9535C19.8308 21.7246 19.4741 21.6914 19.1899 21.8464C18.2373 22.3658 17.138 22.667 15.9998 22.667C14.8617 22.667 13.7624 22.3658 12.8098 21.8464C12.5255 21.6914 12.1689 21.7246 11.94 21.9535C11.6427 22.2507 11.6818 22.7455 12.0462 22.955C13.2048 23.6211 14.5561 24.0003 15.9998 24.0003C17.4436 24.0003 18.7949 23.6211 19.9534 22.955C20.3178 22.7455 20.3569 22.2507 20.0597 21.9535ZM10.0481 20.0588C10.2762 19.8307 10.3092 19.4753 10.1547 19.1921C9.63471 18.2391 9.33317 17.1392 9.33317 16.0003C9.33317 14.8615 9.63471 13.7615 10.1547 12.8085C10.3092 12.5253 10.2762 12.17 10.0481 11.9419C9.75073 11.6446 9.25556 11.6852 9.04727 12.0505C8.36334 13.2498 8.00019 14.6106 8.00019 16.0003C8.00019 17.3901 8.36334 18.7509 9.04727 19.9501C9.25556 20.3154 9.75073 20.3561 10.0481 20.0588Z" fill="currentColor" style="fill:currentColor;fill:currentColor;fill-opacity:1;"/>
</svg>
