<svg width="32" height="32" viewBox="0 0 32 32" fill="none" xmlns="http://www.w3.org/2000/svg">
<path d="M30.5002 2.00026C30.8803 2.40085 30.8639 3.03388 30.4634 3.41405L2.41401 30.0372C2.01339 30.4174 1.38019 30.4007 1.00001 30C0.619905 29.5994 0.6363 28.9664 1.03683 28.5862L29.0862 1.96309C29.4868 1.58284 30.12 1.59958 30.5002 2.00026Z" fill="currentColor" style="fill:currentColor;fill:currentColor;fill-opacity:1;"/>
<path d="M25.9964 9.03117C26.4359 8.61391 27.1453 8.67933 27.4561 9.19957C28.6475 11.1938 29.3331 13.5207 29.3331 16.0001C29.3331 23.3335 23.3334 29.3341 16.0001 29.3341C13.2735 29.3341 10.7317 28.5038 8.61379 27.0845C8.1101 26.7469 8.08159 26.0346 8.52152 25.6173L9.02894 25.1361C9.38194 24.8013 9.9221 24.7737 10.3338 25.0329C11.9767 26.0677 13.9199 26.6671 16.0001 26.6671C21.8801 26.6671 26.6671 21.8801 26.6671 16.0001C26.6671 14.1185 26.1756 12.3495 25.3159 10.813C25.0782 10.3883 25.134 9.85002 25.4869 9.5149L25.9964 9.03117Z" fill="currentColor" style="fill:currentColor;fill:currentColor;fill-opacity:1;"/>
<path d="M20.0603 21.9539C20.3575 22.2511 20.3184 22.7458 19.954 22.9552C18.7954 23.6212 17.4439 24.0001 16.0001 24.0001C14.6822 24.0001 13.4416 23.684 12.3542 23.1222C11.9617 22.9194 11.9165 22.3951 12.2369 22.0909C12.4598 21.8794 12.7943 21.8445 13.0702 21.9798C13.9604 22.4167 14.964 22.6671 16.0001 22.6671C17.1383 22.6671 18.2378 22.3661 19.1905 21.8467C19.4747 21.6918 19.8314 21.7249 20.0603 21.9539Z" fill="currentColor" style="fill:currentColor;fill:currentColor;fill-opacity:1;"/>
<path d="M16.0001 2.66714C18.5911 2.66714 21.0152 3.41688 23.0673 4.70925C23.5891 5.03787 23.6281 5.7646 23.1809 6.18914L22.6641 6.67962C22.3201 7.00615 21.7965 7.0416 21.3877 6.80105C19.8054 5.86994 17.9644 5.33413 16.0001 5.33413C10.1203 5.33417 5.3333 10.1203 5.33312 16.0001C5.33312 17.7665 5.76636 19.4339 6.53054 20.9028C6.74949 21.3236 6.68687 21.8448 6.3428 22.1714L5.82576 22.6622C5.37865 23.0866 4.65521 23.01 4.35421 22.472C3.28031 20.5526 2.66711 18.3445 2.66711 16.0001C2.66728 8.66698 8.66693 2.66718 16.0001 2.66714Z" fill="currentColor" style="fill:currentColor;fill:currentColor;fill-opacity:1;"/>
<path d="M18.0674 19.9576C18.3763 20.2748 18.3136 20.7986 17.9035 20.9654C17.3202 21.2025 16.6757 21.3341 16.0001 21.3341C15.4981 21.3341 15.0171 21.2611 14.5637 21.1262C14.0973 20.9874 14.0135 20.4048 14.3665 20.0697C14.562 19.8841 14.8446 19.8307 15.1067 19.8939C15.3933 19.963 15.6916 20.0001 16.0001 20.0001C16.4402 20.0001 16.8598 19.9248 17.2587 19.7887C17.5407 19.6925 17.8596 19.7442 18.0674 19.9576Z" fill="currentColor" style="fill:currentColor;fill:currentColor;fill-opacity:1;"/>
<path d="M22.279 12.5597C22.5996 12.2553 23.1214 12.3282 23.3031 12.7312C23.751 13.725 24.0001 14.832 24.0001 16.0001C24.0001 17.4438 23.6211 18.7954 22.9552 19.954C22.7458 20.3184 22.251 20.3575 21.9538 20.0603C21.7249 19.8314 21.6917 19.4748 21.8467 19.1905C22.366 18.2378 22.6671 17.1382 22.6671 16.0001C22.6671 15.0849 22.4717 14.1949 22.125 13.386C22.0039 13.1036 22.0561 12.7713 22.279 12.5597Z" fill="currentColor" style="fill:currentColor;fill:currentColor;fill-opacity:1;"/>
<path d="M10.0488 11.9424C10.2769 12.1705 10.31 12.5258 10.1554 12.809C9.63529 13.7618 9.33318 14.8614 9.33312 16.0001C9.33312 16.7998 9.48244 17.5804 9.75127 18.3044C9.85352 18.5797 9.79568 18.8937 9.58272 19.096C9.252 19.4102 8.7121 19.3209 8.54621 18.8959C8.18788 17.9781 8.00012 16.9967 8.00012 16.0001C8.00017 14.6105 8.36392 13.2501 9.04798 12.051C9.25632 11.6857 9.75147 11.6451 10.0488 11.9424Z" fill="currentColor" style="fill:currentColor;fill:currentColor;fill-opacity:1;"/>
<path d="M20.1517 14.5786C20.5056 14.2426 21.0846 14.3577 21.1973 14.8325C21.2859 15.2058 21.3331 15.5962 21.3331 16.0001C21.3331 16.676 21.2019 17.3207 20.9649 17.904C20.7984 18.3141 20.2749 18.377 19.9575 18.0686C19.7436 17.8607 19.6916 17.5414 19.7881 17.2591C19.9244 16.86 20.0001 16.4402 20.0001 16.0001C20.0001 15.7638 19.9782 15.5334 19.9369 15.3097C19.8878 15.0442 19.9559 14.7645 20.1517 14.5786Z" fill="currentColor" style="fill:currentColor;fill:currentColor;fill-opacity:1;"/>
<path d="M12.0485 13.947C12.2588 14.1544 12.3075 14.4712 12.2111 14.7504C12.0755 15.1433 12.0002 15.5614 12.0001 16.0001C12.0001 16.1146 12.0053 16.2277 12.0153 16.3394C12.0375 16.5865 11.9624 16.8369 11.7825 17.0077C11.4053 17.3655 10.7896 17.2163 10.7166 16.7015C10.6842 16.4724 10.6671 16.2382 10.6671 16.0001C10.6672 15.3288 10.803 14.6945 11.0368 14.114C11.2031 13.7012 11.7315 13.6345 12.0485 13.947Z" fill="currentColor" style="fill:currentColor;fill:currentColor;fill-opacity:1;"/>
<path d="M16.0001 10.6671C16.3338 10.6671 16.6597 10.7009 16.9744 10.7636C17.4832 10.8649 17.5993 11.4863 17.2232 11.8434C17.0435 12.014 16.7898 12.0757 16.5447 12.0399C16.3668 12.0139 16.1853 12.0001 16.0001 12.0001C15.5612 12.0002 15.1426 12.0755 14.7494 12.2111C14.4702 12.3075 14.1534 12.2589 13.946 12.0485C13.6335 11.7315 13.7001 11.2032 14.113 11.0369C14.6938 10.803 15.3285 10.6671 16.0001 10.6671Z" fill="currentColor" style="fill:currentColor;fill:currentColor;fill-opacity:1;"/>
<path d="M16.0001 8.00112C17.1371 8.00112 18.2546 8.24419 19.2802 8.70711C19.696 8.89477 19.7573 9.43851 19.4265 9.75268C19.2134 9.95511 18.8967 9.99678 18.6267 9.88055C17.8145 9.53084 16.92 9.33413 16.0001 9.33413C14.8613 9.33414 13.7611 9.63553 12.808 10.1555C12.5248 10.31 12.1695 10.2769 11.9414 10.0488C11.644 9.7515 11.6847 9.25635 12.05 9.04808C13.2493 8.36419 14.6104 8.00113 16.0001 8.00112Z" fill="currentColor" style="fill:currentColor;fill:currentColor;fill-opacity:1;"/>
</svg>
