<svg width="32" height="32" viewBox="0 0 32 32" fill="none" xmlns="http://www.w3.org/2000/svg">
<path d="M15 26.666V21.333C15 20.7807 15.4477 20.333 16 20.333C16.5523 20.333 17 20.7807 17 21.333V26.666C17 27.2183 16.5523 27.666 16 27.666C15.4477 27.666 15 27.2183 15 26.666ZM9.66699 21.333C9.66699 20.7807 10.1147 20.333 10.667 20.333C11.2191 20.3332 11.667 20.7808 11.667 21.333C11.6669 22.659 11.1398 23.9306 10.2021 24.8682C9.26454 25.8058 7.99296 26.3329 6.66699 26.333C6.11482 26.333 5.66717 25.8851 5.66699 25.333C5.66699 24.7807 6.11471 24.333 6.66699 24.333C7.46252 24.3329 8.22555 24.0166 8.78809 23.4541C9.35062 22.8916 9.66691 22.1285 9.66699 21.333ZM20.333 21.333C20.333 20.7808 20.7809 20.3332 21.333 20.333C21.8853 20.333 22.333 20.7807 22.333 21.333C22.3331 22.1285 22.6494 22.8916 23.2119 23.4541C23.7043 23.9465 24.3502 24.2502 25.0371 24.3184L25.333 24.333L25.4355 24.3379C25.9398 24.3891 26.333 24.8152 26.333 25.333C26.3328 25.8506 25.9397 26.2759 25.4355 26.3271L25.333 26.333L25.085 26.3262C23.8493 26.2648 22.6768 25.7471 21.7979 24.8682C20.8602 23.9306 20.3331 22.659 20.333 21.333ZM21.667 13.333C21.667 13.2446 21.6318 13.1592 21.5693 13.0967C21.5068 13.0342 21.4214 12.999 21.333 12.999H10.667C10.5786 12.999 10.4932 13.0342 10.4307 13.0967C10.3682 13.1592 10.333 13.2446 10.333 13.333V16.333H21.667V13.333ZM23.667 16.333H25.333C25.775 16.333 26.1992 16.1572 26.5117 15.8447C26.8243 15.5322 27 15.108 27 14.666V9.33301C27 8.89098 26.8243 8.46686 26.5117 8.1543C26.1992 7.84174 25.775 7.66602 25.333 7.66602H6.66699C6.22496 7.66602 5.80084 7.84174 5.48828 8.1543C5.17572 8.46686 5 8.89098 5 9.33301V14.666L5.00781 14.8311C5.04575 15.2125 5.21486 15.5713 5.48828 15.8447C5.80083 16.1572 6.22504 16.333 6.66699 16.333H8.33301V13.333C8.33301 12.7142 8.57902 12.1202 9.0166 11.6826C9.45419 11.245 10.0482 10.999 10.667 10.999H21.333C21.9518 10.999 22.5458 11.245 22.9834 11.6826C23.421 12.1202 23.667 12.7142 23.667 13.333V16.333ZM29 14.666C29 15.6385 28.6134 16.5712 27.9258 17.2588C27.2382 17.9463 26.3054 18.333 25.333 18.333H6.66699C5.69461 18.333 4.76184 17.9463 4.07422 17.2588C3.38659 16.5712 3 15.6385 3 14.666V9.33301C3 8.36055 3.38659 7.42787 4.07422 6.74023C4.76185 6.0526 5.69453 5.66602 6.66699 5.66602H25.333C26.3055 5.66602 27.2381 6.0526 27.9258 6.74023C28.6134 7.42787 29 8.36055 29 9.33301V14.666Z" fill="currentColor" style="fill:currentColor;fill:currentColor;fill-opacity:1;"/>
</svg>
