<svg width="32" height="32" viewBox="0 0 32 32" fill="none" xmlns="http://www.w3.org/2000/svg">
<path d="M5.761 15.5238V1.6C5.761 1.42322 5.90422 1.28 6.081 1.28H23.1408C23.3176 1.28 23.4608 1.42322 23.4608 1.6V15C23.4608 15.3535 23.7474 15.64 24.1008 15.64C24.4543 15.64 24.7408 15.3535 24.7408 15V1.6C24.7408 0.716313 24.0245 0 23.1408 0H6.081C5.19731 0 4.481 0.716313 4.481 1.6V15.5238C4.481 15.8773 4.76753 16.1638 5.121 16.1638C5.47447 16.1638 5.761 15.8773 5.761 15.5238ZM26.2223 17.9434V30.3971C26.2223 30.5737 26.079 30.717 25.902 30.7171L8.73425 30.7197C8.55756 30.7197 8.41435 30.5765 8.41435 30.3997V18.8426C8.41435 18.4891 8.12781 18.2026 7.77435 18.2026C7.42088 18.2026 7.13435 18.4891 7.13435 18.8426V30.3997C7.13435 31.2834 7.85066 31.9997 8.73435 31.9997L25.9024 31.9971C26.7862 31.9966 27.5023 31.2804 27.5023 30.3971V17.9434C27.5023 17.5899 27.2158 17.3034 26.8623 17.3034C26.5089 17.3034 26.2223 17.5899 26.2223 17.9434Z" fill="currentColor" style="fill:currentColor;fill:currentColor;fill-opacity:1;"/>
<path d="M24.0605 15.6677C24.0518 15.6583 24.0312 15.6495 24.0059 15.6495H5.81163C5.7866 15.6495 5.77519 15.6473 5.769 15.6439L7.93431 17.9916C7.94297 18.001 7.96363 18.0098 7.98891 18.0098H26.1672C26.1928 18.0098 26.2042 18.0121 26.2101 18.0153L24.0605 15.6677ZM26.1671 19.2898H7.98888C7.61053 19.2898 7.24775 19.1349 6.99363 18.8597L4.81663 16.4994C4.0421 15.6595 4.68272 14.3695 5.8116 14.3695H24.0058C24.3842 14.3695 24.747 14.5244 25.0027 14.8013L27.1624 17.1599C27.937 17.9999 27.2959 19.2898 26.1671 19.2898ZM20.5774 11.8078C20.7542 11.8078 20.8974 11.6646 20.8974 11.4878V4.13938C20.8974 3.96259 20.7542 3.81938 20.5774 3.81938H8.60622C8.42963 3.81938 8.28622 3.96275 8.28622 4.13938V11.4878C8.28622 11.6645 8.42963 11.8078 8.60622 11.8078H20.5774ZM20.5774 13.0878H8.60622C7.72275 13.0878 7.00622 12.3715 7.00622 11.4878V4.13938C7.00622 3.25575 7.72275 2.53938 8.60622 2.53938H20.5774C21.4611 2.53938 22.1774 3.25569 22.1774 4.13938V11.4878C22.1774 12.3715 21.4611 13.0878 20.5774 13.0878Z" fill="currentColor" style="fill:currentColor;fill:currentColor;fill-opacity:1;"/>
<path d="M21.0454 17.4376H22.9654C23.3189 17.4376 23.6054 17.1511 23.6054 16.7976C23.6054 16.4442 23.3189 16.1576 22.9654 16.1576H21.0454C20.692 16.1576 20.4054 16.4442 20.4054 16.7976C20.4054 17.1511 20.692 17.4376 21.0454 17.4376ZM16.5974 17.4376H18.5174C18.8709 17.4376 19.1574 17.1511 19.1574 16.7976C19.1574 16.4442 18.8709 16.1576 18.5174 16.1576H16.5974C16.244 16.1576 15.9574 16.4442 15.9574 16.7976C15.9574 17.1511 16.244 17.4376 16.5974 17.4376Z" fill="currentColor" style="fill:currentColor;fill:currentColor;fill-opacity:1;"/>
</svg>
