<svg width="32" height="32" viewBox="0 0 32 32" fill="none" xmlns="http://www.w3.org/2000/svg">
<path d="M18 10C18.5523 10 19 10.4477 19 11V13C19 13.5523 18.5523 14 18 14C17.4477 14 17 13.5523 17 13V11C17 10.4477 17.4477 10 18 10Z" fill="currentColor" style="fill:currentColor;fill:currentColor;fill-opacity:1;"/>
<path d="M22 10C22.5523 10 23 10.4477 23 11V13C23 13.5523 22.5523 14 22 14C21.4477 14 21 13.5523 21 13V11C21 10.4477 21.4477 10 22 10Z" fill="currentColor" style="fill:currentColor;fill:currentColor;fill-opacity:1;"/>
<path fill-rule="evenodd" clip-rule="evenodd" d="M18 2C18.5523 2 19 2.44772 19 3C19 3.75978 19.406 4.41335 20.0781 4.69922L20.2158 4.75098L20.2939 4.78125L20.9512 5.0625C23.4025 5.38442 25.4043 6.93381 26.3799 9.02441C27.8539 9.21212 29 10.4764 29 12C29 13.5343 27.8377 14.8048 26.3486 14.9785C26.1705 15.3303 25.9634 15.6719 25.7324 16H29L29.1025 16.0049C29.6067 16.0562 30 16.4823 30 17V21.5996C30 23.8321 28.8739 25.7847 27.1562 26.9287L27.9102 28.5859L27.9482 28.6816C28.11 29.1617 27.8851 29.6959 27.4141 29.9102C26.9428 30.1244 26.3921 29.9425 26.1367 29.5049L26.0898 29.4141L25.3389 27.7617C24.7863 27.9158 24.2034 28 23.5996 28H8.40039C7.79627 28 7.213 27.9159 6.66016 27.7617L5.91016 29.4141C5.68147 29.9165 5.08857 30.1386 4.58594 29.9102C4.08336 29.6815 3.86135 29.0886 4.08984 28.5859L4.84277 26.9287C3.12551 25.7846 2 23.8318 2 21.5996V17L2.00488 16.8975C2.05621 16.3933 2.48232 16 3 16H4V5.7998C4.00011 3.74767 5.74767 2.00011 7.7998 2C8.85646 2 9.81341 2.39946 10.5068 3.09277L11.3789 3.96484L12.4004 3.2002C12.8422 2.86896 13.4685 2.95862 13.7998 3.40039C14.131 3.84221 14.0414 4.46847 13.5996 4.7998L9.59961 7.7998C9.15779 8.13104 8.53153 8.04138 8.2002 7.59961C7.86896 7.15779 7.95862 6.53153 8.40039 6.2002L9.76367 5.17773L9.09277 4.50684C8.78622 4.20038 8.34294 4 7.7998 4C6.85223 4.00012 6.00012 4.85223 6 5.7998V16H14.2051C13.9802 15.6785 13.7794 15.3368 13.6123 14.9736C12.1421 14.7824 11 13.5209 11 12C11 10.4693 12.1567 9.20102 13.6406 9.02246C14.4792 7.32772 15.9273 5.96703 17.7783 5.35352C17.2725 4.68277 17 3.85372 17 3C17 2.44772 17.4477 2 18 2ZM4 21.5996C4 24.0473 5.95268 26 8.40039 26H23.5996C26.0473 26 28 24.0473 28 21.5996V18H4V21.5996ZM20 7C17.9021 7 16.2223 8.22905 15.3867 10.0029L15.2314 10.3643C15.1002 10.6996 14.8007 10.9347 14.4521 10.9883L14.2998 11H14C13.4523 11 13 11.4523 13 12C13 12.5477 13.4523 13 14 13H14.2998L14.459 13.0127C14.8222 13.0711 15.1299 13.3264 15.249 13.6836L15.3135 13.8652C15.6113 14.644 16.1221 15.3221 16.7666 15.8486L16.9658 16H22.9902C23.767 15.4305 24.3738 14.5837 24.7773 13.6152L24.8447 13.4824C25.0239 13.1861 25.3468 13 25.7002 13H26C26.5477 13 27 12.5477 27 12C27 11.4523 26.5477 11 26 11H25.7002C25.2745 11 24.8957 10.7302 24.7559 10.3281C24.0918 8.41942 22.2629 7 20 7Z" fill="currentColor" style="fill:currentColor;fill:currentColor;fill-opacity:1;"/>
</svg>
