<svg width="32" height="32" viewBox="0 0 32 32" fill="none" xmlns="http://www.w3.org/2000/svg">
<g clip-path="url(#clip0_2989_43805)">
<path fill-rule="evenodd" clip-rule="evenodd" d="M15.9999 26.61C16.8225 26.61 17.4893 27.2621 17.4894 28.0632C17.4894 28.8645 16.8224 29.5176 15.9999 29.5176C15.1773 29.5175 14.5103 28.8644 14.5103 28.0632C14.5104 27.2622 15.1774 26.6101 15.9999 26.61ZM15.9987 28.0609L15.9963 28.0621L15.9987 28.0667L15.9999 28.0678L16.0034 28.0655V28.0632L16.0022 28.0609L15.9999 28.0598L15.9987 28.0609ZM17.107 27.8478C17.1213 27.9175 17.1282 27.9895 17.1282 28.0632L17.1235 27.9578C17.1199 27.9206 17.1144 27.8838 17.107 27.8478ZM15.1292 27.363C15.1099 27.3857 15.0924 27.4098 15.0751 27.434C15.1131 27.3809 15.1553 27.3308 15.2021 27.285L15.1292 27.363ZM15.4939 27.0787C15.4508 27.1 15.409 27.1235 15.3692 27.1498L15.4633 27.0948C15.4735 27.0894 15.4836 27.0838 15.4939 27.0787Z" fill="currentColor" style="fill:currentColor;fill:currentColor;fill-opacity:1;"/>
<path fill-rule="evenodd" clip-rule="evenodd" d="M12.7901 25.3115C13.1873 25.3115 13.5625 25.4629 13.8432 25.7367C14.124 26.0107 14.2796 26.3773 14.2797 26.7647C14.2797 27.1039 14.1612 27.4271 13.9432 27.6862L13.8443 27.7928C13.5635 28.0672 13.1875 28.2191 12.7901 28.2191C12.4425 28.2191 12.1117 28.1027 11.8465 27.8902L11.7359 27.7928C11.4551 27.5186 11.3005 27.152 11.3005 26.7647C11.3006 26.3775 11.4556 26.0118 11.7359 25.7378L11.8453 25.6404C12.1108 25.4273 12.4421 25.3115 12.7901 25.3115ZM12.6513 27.0925C12.6584 27.0952 12.6663 27.0959 12.6736 27.0982C12.6442 27.089 12.6151 27.078 12.5889 27.0616L12.6513 27.0925ZM13.0478 27.0169L13.0937 26.963C13.0986 26.9559 13.1011 26.9475 13.1054 26.9401C13.0894 26.9675 13.0712 26.9939 13.0478 27.0169ZM12.7877 26.7624L12.7866 26.7647L12.7901 26.7659L12.7936 26.7647L12.7913 26.7613H12.7889L12.7877 26.7624ZM13.0478 26.5137L12.9925 26.469C12.9857 26.4646 12.9783 26.4615 12.9713 26.4576C12.9987 26.473 13.0247 26.4913 13.0478 26.5137ZM12.6501 26.4358C12.6282 26.4447 12.6075 26.4561 12.5877 26.469C12.6273 26.4431 12.6716 26.4254 12.7183 26.4163L12.6501 26.4358ZM12.3583 25.7458C12.2933 25.772 12.2315 25.8053 12.1724 25.8433C12.2623 25.7855 12.3594 25.7406 12.4618 25.7103L12.3583 25.7458Z" fill="currentColor" style="fill:currentColor;fill:currentColor;fill-opacity:1;"/>
<path fill-rule="evenodd" clip-rule="evenodd" d="M15.9999 21.5775C17.1607 21.5775 18.1034 22.4987 18.1036 23.6302C18.1036 24.7617 17.1609 25.684 15.9999 25.684C14.8388 25.6838 13.8961 24.7618 13.8961 23.6302C13.8963 22.4987 14.8391 21.5776 15.9999 21.5775ZM15.9999 23.0273C15.6612 23.0274 15.3836 23.2973 15.3833 23.6302C15.3833 23.9634 15.661 24.234 15.9999 24.2341C16.2964 24.2341 16.5466 24.0275 16.6046 23.7528L16.6176 23.6302C16.6172 23.2971 16.3386 23.0273 15.9999 23.0273ZM16.9788 23.6302L16.9729 23.7287C16.9674 23.7814 16.9563 23.8325 16.9423 23.8823C16.9648 23.8019 16.9788 23.7174 16.9788 23.6302ZM15.0421 23.8227C15.045 23.8366 15.0492 23.8502 15.0527 23.864C15.0413 23.8199 15.0317 23.775 15.0268 23.7287L15.0421 23.8227ZM15.1398 23.1752C15.0976 23.2508 15.0668 23.3331 15.0468 23.4193C15.0739 23.3024 15.1226 23.1935 15.1892 23.0972L15.1398 23.1752ZM15.7092 22.7179C15.6479 22.7366 15.5894 22.7617 15.5339 22.7912L15.6198 22.7511C15.6784 22.7269 15.7397 22.7077 15.8034 22.6949L15.7092 22.7179ZM15.4822 22.0061C15.4433 22.018 15.4057 22.033 15.368 22.0474C15.4586 22.0128 15.5521 21.9832 15.6492 21.9637L15.4822 22.0061ZM14.2667 23.8044L14.2891 23.9522C14.2901 23.9576 14.2915 23.9629 14.2926 23.9683C14.2815 23.9145 14.2725 23.8598 14.2667 23.8044Z" fill="currentColor" style="fill:currentColor;fill:currentColor;fill-opacity:1;"/>
<path fill-rule="evenodd" clip-rule="evenodd" d="M11.4605 22.1769C12.2831 22.1769 12.9499 22.8291 12.9501 23.6302C12.9501 24.4314 12.2832 25.0845 11.4605 25.0845C10.6379 25.0845 9.97097 24.4313 9.97097 23.6302C9.97121 22.8292 10.6381 22.177 11.4605 22.1769ZM11.7841 24.6857C11.717 24.7053 11.6475 24.7198 11.5759 24.727L11.4605 24.7327C11.573 24.7327 11.6815 24.7158 11.7841 24.6857ZM11.4582 23.6279L11.457 23.629V23.6325L11.4582 23.6336L11.4605 23.6347L11.4629 23.6336L11.4641 23.6325V23.629L11.4629 23.6279L11.4605 23.6267L11.4582 23.6279ZM11.7347 22.562C11.6831 22.5494 11.63 22.5399 11.5759 22.5345L11.6876 22.5517C11.7034 22.5548 11.7191 22.5582 11.7347 22.562Z" fill="currentColor" style="fill:currentColor;fill:currentColor;fill-opacity:1;"/>
<path fill-rule="evenodd" clip-rule="evenodd" d="M12.7901 19.0424C13.1878 19.0424 13.5636 19.1946 13.8443 19.4687L13.9432 19.5753C14.161 19.8342 14.2795 20.1567 14.2797 20.4956C14.2797 20.8347 14.1611 21.158 13.9432 21.4171L13.8443 21.5236C13.5636 21.7978 13.1878 21.95 12.7901 21.95C12.4421 21.95 12.1107 21.834 11.8453 21.6211L11.7359 21.5236C11.1558 20.9568 11.1559 20.0356 11.7359 19.4687L11.8453 19.3713C12.1108 19.1582 12.4421 19.0424 12.7901 19.0424ZM12.9631 20.8062C12.9727 20.8013 12.9833 20.7982 12.9925 20.7924L12.9995 20.7867C12.988 20.7944 12.9753 20.7999 12.9631 20.8062ZM13.0478 20.7477L13.0937 20.6939C13.0986 20.6868 13.1011 20.6784 13.1054 20.6709C13.0894 20.6983 13.0713 20.7248 13.0478 20.7477ZM12.7877 20.4933L12.7866 20.4956L12.7901 20.4967L12.7936 20.4956L12.7913 20.4922H12.7889L12.7877 20.4933ZM13.0478 20.2446L12.9925 20.1999C12.9857 20.1955 12.9783 20.1924 12.9713 20.1884C12.9987 20.2039 13.0248 20.2221 13.0478 20.2446ZM12.6501 20.1667C12.6344 20.1731 12.6201 20.1822 12.6054 20.1907C12.6405 20.1704 12.6782 20.155 12.7183 20.1472L12.6501 20.1667Z" fill="currentColor" style="fill:currentColor;fill:currentColor;fill-opacity:1;"/>
<path fill-rule="evenodd" clip-rule="evenodd" d="M21.2828 6.38034C22.6088 6.54595 23.6358 7.6526 23.636 8.98999V17.3805C25.1618 19.1419 25.9998 21.3681 25.9998 23.6817C25.9996 26.4773 24.7952 29.0969 22.6759 30.9502L22.2394 31.3101C21.6705 31.7542 20.961 32.0001 20.2391 32.0001H11.7829C11.1611 32 10.5519 31.8231 10.0416 31.4958L9.8286 31.3468C7.62624 29.6511 6.26223 27.1761 6.03408 24.492L6.00349 23.9522C5.93648 21.5379 6.77367 19.2153 8.36374 17.3805V8.98999C8.36393 7.53866 9.57341 6.35748 11.0617 6.35742H18.0918L19.6873 6.36888L21.2828 6.38034ZM9.85096 8.98999C9.85115 8.33724 10.3954 7.80729 11.0617 7.80723H20.938C21.6043 7.80723 22.1486 8.3372 22.1488 8.98999V17.6487C22.1488 17.8271 22.2172 17.9994 22.3394 18.1324L22.5947 18.4235C23.8352 19.9056 24.5137 21.7584 24.5137 23.6817C24.5136 26.0633 23.4885 28.293 21.6828 29.8718L21.311 30.1778C21.0025 30.4185 20.6207 30.5502 20.2391 30.5503H11.7829C11.448 30.5502 11.1247 30.4555 10.8593 30.2855L10.7499 30.2087C8.87029 28.7616 7.70944 26.6542 7.51541 24.3717L7.48953 23.9132C7.43016 21.7744 8.2018 19.7219 9.66153 18.1324L9.74154 18.0258C9.81204 17.9129 9.85096 17.7828 9.85096 17.6487V8.98999Z" fill="currentColor" style="fill:currentColor;fill:currentColor;fill-opacity:1;"/>
<path fill-rule="evenodd" clip-rule="evenodd" d="M11.7053 9.90343C11.7055 9.79229 11.7984 9.70319 11.91 9.70286H20.0897C20.2014 9.703 20.2942 9.79217 20.2944 9.90343V13.9675C20.2944 14.0789 20.2016 14.169 20.0897 14.1692H11.91C11.7983 14.1688 11.7053 14.0788 11.7053 13.9675V9.90343ZM15.9963 19.1959V19.1994L15.9987 19.2005L15.9999 19.2017L16.0034 19.1994V19.1959L16.001 19.1936L15.9963 19.1959ZM15.8207 18.8894L15.814 18.8934C15.8314 18.8832 15.8495 18.874 15.8685 18.8663L15.9269 18.8487C15.9066 18.8527 15.8872 18.8588 15.8685 18.8663L15.8587 18.8693C15.8453 18.8748 15.833 18.8821 15.8207 18.8894ZM15.4622 18.2286C15.4303 18.2456 15.3991 18.2639 15.3692 18.2836L15.4622 18.2286ZM15.561 18.1828L15.4622 18.2286C15.4938 18.2118 15.5276 18.1966 15.561 18.1828ZM16.274 18.1289C16.2224 18.1163 16.1693 18.1068 16.1152 18.1014L16.2269 18.1186C16.2427 18.1218 16.2584 18.1251 16.274 18.1289ZM19.0859 20.8274L19.0836 20.8268L19.0815 20.8262L19.0767 20.825L19.072 20.8234L19.0632 20.8191C19.0693 20.8215 19.0753 20.8242 19.0815 20.8262C19.0849 20.8274 19.0885 20.828 19.092 20.8291L19.0859 20.8274ZM19.0084 20.7924C19.0257 20.8033 19.0442 20.8119 19.0632 20.8191L19.0084 20.7924ZM19.4673 20.7477L19.5009 20.7083C19.4909 20.7222 19.4798 20.7355 19.4673 20.7477ZM19.5009 20.7083C19.5081 20.6983 19.5152 20.6882 19.5215 20.6777L19.52 20.6809C19.518 20.6854 19.5159 20.6898 19.5132 20.6939L19.5009 20.7083ZM19.2073 20.4956V20.4933L19.2084 20.4922H19.212L19.2131 20.4956L19.2096 20.4967L19.2073 20.4956ZM19.4673 20.2446C19.4844 20.2613 19.5 20.2793 19.5132 20.2985L19.4673 20.2446ZM19.0425 20.1816C19.0461 20.1798 19.0496 20.1778 19.053 20.1758C19.0588 20.1725 19.0646 20.1692 19.0708 20.1667L19.0851 20.1625C19.0706 20.1681 19.0564 20.1745 19.0425 20.1816ZM19.1378 20.1472C19.1197 20.1507 19.1022 20.156 19.0851 20.1625L19.1378 20.1472ZM18.6017 19.5679C18.6579 19.5326 18.7164 19.5015 18.7778 19.4767L18.7913 19.4721C18.7253 19.498 18.6619 19.5301 18.6017 19.5679ZM18.8813 19.4412C18.8508 19.4502 18.8208 19.4605 18.7913 19.4721L18.8813 19.4412ZM20.5356 23.6302L20.5368 23.6325L20.5392 23.6347L20.5427 23.6325V23.629L20.5403 23.6267L20.5356 23.6302ZM20.211 23.7823L20.2156 23.7906C20.2102 23.7803 20.2052 23.7697 20.2007 23.7589L20.1827 23.7024C20.1868 23.722 20.193 23.7408 20.2007 23.7589L20.2038 23.7688C20.2059 23.7735 20.2084 23.7779 20.211 23.7823ZM19.4614 23.3035C19.4519 23.3335 19.4448 23.3642 19.4379 23.3952C19.4461 23.3586 19.4559 23.3226 19.4675 23.2875L19.5002 23.2015C19.488 23.2296 19.4772 23.2582 19.4675 23.2875L19.4614 23.3035ZM20.0015 22.6617C19.8417 22.7466 19.7052 22.8683 19.6038 23.0147L19.6697 22.9299C19.7647 22.8176 19.8819 22.724 20.0148 22.6555L20.1003 22.6159C20.0712 22.6279 20.0427 22.6412 20.0148 22.6555L20.0015 22.6617ZM20.8133 22.562C20.7617 22.5494 20.7086 22.5399 20.6545 22.5345L20.7663 22.5517C20.7821 22.5548 20.7978 22.5582 20.8133 22.562ZM19.0967 27.0982C19.0931 27.0971 19.0893 27.0965 19.0856 27.0958C19.081 27.095 19.0763 27.0942 19.072 27.0925L19.0532 27.083C19.0674 27.0888 19.082 27.0937 19.0967 27.0982ZM19.0084 27.0604C19.0227 27.0694 19.0377 27.0767 19.0532 27.083L19.0084 27.0604ZM19.4673 27.0169L19.4174 27.0561C19.4352 27.0449 19.4519 27.0319 19.4673 27.0169ZM19.4174 27.0561L19.412 27.0604C19.3847 27.0776 19.3545 27.0888 19.3237 27.0982C19.3568 27.0881 19.3884 27.0745 19.4174 27.0561ZM18.8849 26.924L18.8808 26.9165C18.8781 26.9114 18.8753 26.9064 18.8731 26.9011L18.8712 26.8951C18.8754 26.9049 18.88 26.9145 18.8849 26.924ZM18.8519 26.8346C18.8561 26.8555 18.8629 26.8756 18.8712 26.8951L18.8519 26.8346ZM19.2061 26.7647L19.2073 26.7624L19.2084 26.7613H19.212L19.2131 26.7624V26.7647L19.2096 26.7659L19.2061 26.7647ZM19.5497 26.6364C19.5333 26.5955 19.5091 26.5576 19.4779 26.5245C19.5071 26.5554 19.5312 26.5905 19.5473 26.6283L19.5497 26.6364ZM19.5673 26.6948C19.5632 26.6748 19.5573 26.6553 19.5497 26.6364L19.5673 26.6948ZM18.9061 26.5676L18.8731 26.6283C18.8776 26.6177 18.8827 26.607 18.8883 26.5967C18.8937 26.5867 18.8996 26.577 18.9061 26.5676ZM19.0072 26.469C19.0273 26.4559 19.0486 26.4447 19.0708 26.4358L19.0772 26.4339L19.0696 26.4369L19.0072 26.469ZM19.0772 26.4339L19.1378 26.4163C19.117 26.4204 19.0968 26.4264 19.0772 26.4339ZM18.6017 25.837C18.6578 25.8017 18.7164 25.7706 18.7778 25.7458L18.7913 25.7412C18.7253 25.7671 18.6619 25.7992 18.6017 25.837ZM18.8813 25.7103C18.8509 25.7193 18.8208 25.7296 18.7913 25.7412L18.8813 25.7103ZM15.9999 26.61C16.8225 26.61 17.4893 27.2621 17.4894 28.0632C17.4894 28.8645 16.8224 29.5176 15.9999 29.5176C15.1773 29.5175 14.5103 28.8644 14.5103 28.0632C14.5104 27.2622 15.1774 26.6101 15.9999 26.61ZM12.7901 25.3115C13.1873 25.3115 13.5625 25.4629 13.8432 25.7367C14.124 26.0107 14.2796 26.3773 14.2797 26.7647C14.2797 27.1039 14.1612 27.4271 13.9432 27.6862L13.8443 27.7928C13.5635 28.0672 13.1875 28.2191 12.7901 28.2191C12.4425 28.2191 12.1117 28.1027 11.8465 27.8902L11.7359 27.7928C11.4551 27.5186 11.3005 27.152 11.3005 26.7647C11.3006 26.3775 11.4556 26.0118 11.7359 25.7378L11.8453 25.6404C12.1108 25.4273 12.4421 25.3115 12.7901 25.3115ZM15.9999 21.5775C17.1607 21.5775 18.1034 22.4987 18.1036 23.6302C18.1036 24.7617 17.1609 25.684 15.9999 25.684C14.8388 25.6838 13.8961 24.7618 13.8961 23.6302C13.8963 22.4987 14.8391 21.5776 15.9999 21.5775ZM11.4605 22.1769C12.2831 22.1769 12.9499 22.8291 12.9501 23.6302C12.9501 24.4314 12.2832 25.0845 11.4605 25.0845C10.6379 25.0845 9.97097 24.4313 9.97097 23.6302C9.97121 22.8292 10.6381 22.177 11.4605 22.1769ZM12.7901 19.0424C13.1878 19.0424 13.5636 19.1946 13.8443 19.4687L13.9432 19.5753C14.161 19.8342 14.2795 20.1567 14.2797 20.4956C14.2797 20.8347 14.1611 21.158 13.9432 21.4171L13.8443 21.5236C13.5636 21.7978 13.1878 21.95 12.7901 21.95C12.4421 21.95 12.1107 21.834 11.8453 21.6211L11.7359 21.5236C11.1558 20.9568 11.1559 20.0356 11.7359 19.4687L11.8453 19.3713C12.1108 19.1582 12.4421 19.0424 12.7901 19.0424Z" fill="currentColor" style="fill:currentColor;fill:currentColor;fill-opacity:1;"/>
<path fill-rule="evenodd" clip-rule="evenodd" d="M20.5392 22.1769C21.3617 22.1769 22.0285 22.8291 22.0287 23.6302C22.0287 24.4314 21.3617 25.0845 20.5392 25.0845C19.7166 25.0844 19.0496 24.4313 19.0496 23.6302C19.0498 22.8292 19.7168 22.1771 20.5392 22.1769ZM20.5368 23.6325L20.5356 23.6302L20.5403 23.6267L20.5427 23.629V23.6325L20.5392 23.6347L20.5368 23.6325ZM19.4379 23.3952C19.4448 23.3642 19.4519 23.3335 19.4614 23.3035L19.4675 23.2875C19.4772 23.2582 19.488 23.2296 19.5002 23.2015L19.4675 23.2875C19.4559 23.3226 19.4461 23.3586 19.4379 23.3952ZM19.6038 23.0147C19.7052 22.8683 19.8417 22.7466 20.0015 22.6617L20.0148 22.6555C20.0427 22.6412 20.0712 22.6279 20.1003 22.6159L20.0148 22.6555C19.8819 22.724 19.7647 22.8176 19.6697 22.9299L19.6038 23.0147ZM20.6545 22.5345C20.7086 22.5399 20.7617 22.5494 20.8133 22.562C20.7978 22.5582 20.7821 22.5548 20.7663 22.5517L20.6545 22.5345ZM20.2156 23.7906L20.211 23.7823C20.2084 23.7779 20.2059 23.7735 20.2038 23.7688L20.2007 23.7589C20.193 23.7408 20.1868 23.722 20.1827 23.7024L20.2007 23.7589C20.2052 23.7697 20.2102 23.7803 20.2156 23.7906Z" fill="currentColor" style="fill:currentColor;fill:currentColor;fill-opacity:1;"/>
<path fill-rule="evenodd" clip-rule="evenodd" d="M19.2096 19.0424C19.6069 19.0424 19.982 19.1939 20.2627 19.4676C20.5436 19.7417 20.6991 20.1083 20.6992 20.4956C20.6992 20.8348 20.5806 21.158 20.3627 21.4171L20.2638 21.5236C19.9831 21.798 19.6073 21.95 19.2096 21.95C18.8619 21.9499 18.5312 21.8337 18.266 21.6211L18.1554 21.5236C17.8749 21.2496 17.72 20.883 17.72 20.4956C17.7201 20.1085 17.8752 19.7427 18.1554 19.4687L18.266 19.3713C18.5313 19.1585 18.8619 19.0424 19.2096 19.0424ZM19.2073 20.4956V20.4933L19.2084 20.4922H19.212L19.2131 20.4956L19.2096 20.4967L19.2073 20.4956ZM19.4673 20.2446C19.4844 20.2613 19.5 20.2793 19.5132 20.2985L19.4673 20.2446ZM19.0084 20.7924L19.0632 20.8191C19.0693 20.8215 19.0753 20.8242 19.0815 20.8262C19.0849 20.8274 19.0885 20.828 19.092 20.8291L19.0859 20.8274L19.0836 20.8268L19.0815 20.8262L19.0767 20.825L19.072 20.8234L19.0632 20.8191C19.0442 20.8119 19.0257 20.8033 19.0084 20.7924ZM19.4673 20.7477L19.5009 20.7083C19.5081 20.6983 19.5152 20.6882 19.5215 20.6777L19.52 20.6809C19.518 20.6854 19.5159 20.6898 19.5132 20.6939L19.5009 20.7083C19.4909 20.7222 19.4798 20.7355 19.4673 20.7477ZM19.0425 20.1816C19.0461 20.1798 19.0496 20.1778 19.053 20.1758C19.0588 20.1725 19.0646 20.1692 19.0708 20.1667L19.0851 20.1625C19.1022 20.156 19.1197 20.1507 19.1378 20.1472L19.0851 20.1625C19.0706 20.1681 19.0564 20.1745 19.0425 20.1816ZM18.6017 19.5679C18.6579 19.5326 18.7164 19.5015 18.7778 19.4767L18.7913 19.4721C18.8208 19.4605 18.8508 19.4502 18.8813 19.4412L18.7913 19.4721C18.7253 19.498 18.6619 19.5301 18.6017 19.5679Z" fill="currentColor" style="fill:currentColor;fill:currentColor;fill-opacity:1;"/>
<path fill-rule="evenodd" clip-rule="evenodd" d="M15.9999 17.7438C16.8224 17.7438 17.4891 18.3961 17.4894 19.1971C17.4894 19.9983 16.8224 20.6515 15.9999 20.6515C15.1773 20.6513 14.5103 19.9982 14.5103 19.1971C14.5106 18.3962 15.1775 17.744 15.9999 17.7438ZM15.9963 19.1994V19.1959L16.001 19.1936L16.0034 19.1959V19.1994L15.9999 19.2017L15.9987 19.2005L15.9963 19.1994ZM15.3692 18.2836C15.3991 18.2639 15.4303 18.2456 15.4622 18.2286C15.4938 18.2118 15.5276 18.1966 15.561 18.1828L15.4622 18.2286L15.3692 18.2836ZM16.1152 18.1014C16.1693 18.1068 16.2224 18.1163 16.274 18.1289C16.2584 18.1251 16.2427 18.1218 16.2269 18.1186L16.1152 18.1014ZM15.814 18.8934L15.8207 18.8894C15.836 18.8807 15.852 18.873 15.8685 18.8663L15.8587 18.8693C15.8453 18.8748 15.833 18.8821 15.8207 18.8894L15.814 18.8934C15.8314 18.8832 15.8495 18.874 15.8685 18.8663C15.852 18.873 15.836 18.8807 15.8207 18.8894C15.833 18.8821 15.8453 18.8748 15.8587 18.8693L15.8685 18.8663C15.8872 18.8588 15.9066 18.8527 15.9269 18.8487L15.8685 18.8663C15.8495 18.874 15.8314 18.8832 15.814 18.8934Z" fill="currentColor" style="fill:currentColor;fill:currentColor;fill-opacity:1;"/>
<path fill-rule="evenodd" clip-rule="evenodd" d="M19.2096 25.3115C19.6069 25.3115 19.982 25.463 20.2627 25.7367C20.5436 26.0108 20.6991 26.3774 20.6992 26.7647C20.6992 27.1039 20.5806 27.4271 20.3627 27.6862L20.2638 27.7928C19.983 28.0672 19.607 28.2191 19.2096 28.2191C18.8122 28.219 18.4361 28.0669 18.1554 27.7928C17.875 27.5186 17.72 27.1517 17.72 26.7647C17.7201 26.3776 17.8752 26.0118 18.1554 25.7378L18.266 25.6404C18.5313 25.4276 18.8619 25.3115 19.2096 25.3115ZM19.412 27.0604C19.3847 27.0776 19.3545 27.0888 19.3237 27.0982C19.3568 27.0881 19.3884 27.0745 19.4174 27.0561L19.4673 27.0169C19.4519 27.0319 19.4352 27.0449 19.4174 27.0561L19.412 27.0604ZM19.2061 26.7647L19.2073 26.7624L19.2084 26.7613H19.212L19.2131 26.7624V26.7647L19.2096 26.7659L19.2061 26.7647ZM18.8731 26.6283C18.8776 26.6177 18.8827 26.607 18.8883 26.5967C18.8937 26.5867 18.8996 26.577 18.9061 26.5676L18.8731 26.6283ZM19.0072 26.469C19.0273 26.4559 19.0486 26.4447 19.0708 26.4358L19.0772 26.4339C19.0968 26.4264 19.117 26.4204 19.1378 26.4163L19.0772 26.4339L19.0696 26.4369L19.0072 26.469ZM19.0967 27.0982C19.0931 27.0971 19.0893 27.0965 19.0856 27.0958C19.081 27.095 19.0763 27.0942 19.072 27.0925L19.0532 27.083C19.0377 27.0767 19.0227 27.0694 19.0084 27.0604L19.0532 27.083C19.0674 27.0888 19.082 27.0937 19.0967 27.0982ZM18.8849 26.924L18.8808 26.9165C18.8781 26.9114 18.8753 26.9064 18.8731 26.9011L18.8712 26.8951C18.8629 26.8756 18.8561 26.8555 18.8519 26.8346L18.8712 26.8951C18.8754 26.9049 18.88 26.9145 18.8849 26.924ZM19.5497 26.6364C19.5333 26.5955 19.5091 26.5576 19.4779 26.5245C19.5071 26.5554 19.5312 26.5905 19.5473 26.6283L19.5497 26.6364C19.5573 26.6553 19.5632 26.6748 19.5673 26.6948L19.5497 26.6364ZM18.6017 25.837C18.6578 25.8017 18.7164 25.7706 18.7778 25.7458L18.7913 25.7412C18.8208 25.7296 18.8509 25.7193 18.8813 25.7103L18.7913 25.7412C18.7253 25.7671 18.6619 25.7992 18.6017 25.837Z" fill="currentColor" style="fill:currentColor;fill:currentColor;fill-opacity:1;"/>
<path d="M18.0918 6.35742L19.6873 6.36888L19.6998 2.80679C19.7013 2.36167 19.3409 2 18.8958 2V2C18.4518 2 18.0918 2.35995 18.0918 2.80397V6.35742Z" fill="currentColor" style="fill:currentColor;fill:currentColor;fill-opacity:1;"/>
</g>
<defs>
<clipPath id="clip0_2989_43805">
<rect width="32" height="32" fill="currentColor" style="fill:currentColor;fill-opacity:1;"/>
</clipPath>
</defs>
</svg>
