<svg xmlns="http://www.w3.org/2000/svg" width="28" height="28" viewBox="0 0 28 28" fill="none">
  <path d="M17.2361 24.893C17.2641 24.881 17.2921 24.869 17.3201 24.857C17.2841 24.873 17.2481 24.888 17.2121 24.903C17.2201 24.9 17.2281 24.896 17.2361 24.893ZM17.3601 24.84C17.3481 24.845 17.3361 24.85 17.3241 24.855C17.3221 24.856 17.3201 24.857 17.3201 24.857C17.3331 24.851 17.3461 24.845 17.3601 24.84ZM4.82208 19.617C4.81408 19.598 4.80608 19.578 4.79808 19.559C4.77908 19.515 4.76008 19.47 4.74108 19.426C4.76808 19.489 4.79508 19.553 4.82208 19.617ZM22.8001 8.93C22.8171 8.943 22.8341 8.956 22.8511 8.969C22.8331 8.955 22.8141 8.941 22.7951 8.927C22.7971 8.927 22.7981 8.928 22.8001 8.93ZM11.7971 16.009C11.7971 15.55 11.4141 15.167 10.9551 15.167C10.4961 15.167 10.1131 15.55 10.1131 16.009C10.1131 16.468 10.4961 16.851 10.9551 16.851C11.4141 16.851 11.7971 16.468 11.7971 16.009ZM17.9901 17.122C18.4491 17.122 18.8321 16.739 18.8321 16.28C18.8321 15.821 18.4491 15.438 17.9901 15.438C17.5311 15.438 17.1481 15.821 17.1481 16.28C17.1481 16.739 17.5311 17.122 17.9901 17.122ZM16.8951 19.557C16.8281 19.557 16.7611 19.567 16.6941 19.587C16.1711 19.748 15.6231 19.864 15.0811 19.946C14.2941 20.021 13.5091 19.938 12.7271 19.839C12.5561 19.812 12.3841 19.785 12.2141 19.758C11.9831 19.719 11.7821 19.719 11.5731 19.841C11.3861 19.95 11.2481 20.129 11.1911 20.338C11.1321 20.552 11.1631 20.787 11.2741 20.979C11.3741 21.147 11.5691 21.33 11.7711 21.359C12.6701 21.498 13.5751 21.592 14.4881 21.575C15.3761 21.558 16.2611 21.339 17.1011 21.056C17.4941 20.925 17.7471 20.537 17.6331 20.12C17.5421 19.795 17.2271 19.557 16.8951 19.557ZM27.5241 16.354C27.5281 17.204 27.5281 18.052 27.4411 18.897C27.3481 19.811 27.2071 20.719 27.0401 21.623C26.8931 22.424 26.6821 23.214 26.3931 23.977C26.0951 24.769 25.7291 25.541 25.3611 26.304C25.2411 26.552 25.1231 26.784 24.9531 27.003C24.6081 27.448 23.9191 27.473 23.5301 27.073C23.2771 26.813 23.1201 26.484 22.9191 26.187C22.9071 26.174 22.8941 26.161 22.8821 26.148C22.6571 26.2 22.4381 26.284 22.2221 26.371C21.6421 26.625 21.0761 26.912 20.5301 27.236C20.2631 27.393 20.0021 27.557 19.7291 27.706C19.5321 27.814 19.3131 27.934 19.0941 27.975C18.8111 28.029 18.5641 28 18.3101 27.857C18.0601 27.714 17.9321 27.47 17.8451 27.211C17.8081 27.101 17.7951 26.884 17.7971 26.756C17.7991 26.713 17.7991 26.671 17.8011 26.626C17.8071 26.543 17.8131 26.458 17.8181 26.374C17.8321 26.223 17.8511 26.074 17.8681 25.923C17.9071 25.6 17.9401 25.277 17.9801 24.953C17.9991 24.804 18.0141 24.654 18.0321 24.506C17.7981 24.627 17.5671 24.751 17.3241 24.855C17.2951 24.867 17.2651 24.88 17.2361 24.893C17.2201 24.9 17.2031 24.907 17.1871 24.913C17.1951 24.91 17.2041 24.906 17.2121 24.903C17.0201 24.986 16.8271 25.071 16.6311 25.143C16.4641 25.205 16.2921 25.251 16.1201 25.296C15.6751 25.416 15.2141 25.48 14.7511 25.461C14.3601 25.444 13.9651 25.409 13.5841 25.324C13.2281 25.245 12.8831 25.09 12.5451 24.956C12.2061 24.821 11.8641 24.708 11.5211 24.588C11.1671 24.462 10.8141 24.329 10.4601 24.197C10.0231 24.034 9.59008 23.861 9.16508 23.672C9.27308 23.811 9.34808 23.98 9.35708 24.169C9.38408 24.672 9.41108 25.174 9.44808 25.675C9.46908 25.958 9.49108 26.238 9.49308 26.521C9.49308 26.633 9.48908 26.744 9.48108 26.856C9.46708 27.024 9.44208 27.257 9.34408 27.402C9.29408 27.48 9.23708 27.553 9.17708 27.625C9.10508 27.681 9.03408 27.735 8.96008 27.79C8.86508 27.862 8.60208 27.925 8.48608 27.918C8.26908 27.902 8.11808 27.864 7.92108 27.779C7.82808 27.738 7.74108 27.692 7.65608 27.64C7.56908 27.586 7.48608 27.528 7.40608 27.468C7.20708 27.321 7.00508 27.176 6.80208 27.034C6.68408 26.951 6.56708 26.867 6.45208 26.781C6.44508 26.953 6.41308 27.122 6.32208 27.278C6.21008 27.47 6.00808 27.632 5.78608 27.671C5.63508 27.71 5.48408 27.71 5.33508 27.671C5.26708 27.642 5.20008 27.613 5.13208 27.584C4.98508 27.522 4.86308 27.406 4.74108 27.303C4.60008 27.183 4.45508 27.065 4.31908 26.937C4.01108 26.647 3.72908 26.331 3.46108 26.002C3.15308 25.623 2.82608 25.226 2.57808 24.802C2.11308 24.008 1.75708 23.153 1.49408 22.274C1.23708 21.411 0.982079 20.55 0.800079 19.669C0.430079 17.867 0.417079 15.995 0.558079 14.168C0.599079 13.628 0.661079 13.094 0.752079 12.559C0.826079 12.116 0.949079 11.682 1.07908 11.254C1.35608 10.342 1.72708 9.467 2.14408 8.61C2.33208 8.221 2.54108 7.84 2.75008 7.46C2.97608 7.054 3.21008 6.653 3.46708 6.266C4.00008 5.465 4.63808 4.756 5.35508 4.117C6.06508 3.484 6.79508 2.845 7.58708 2.315C7.97008 2.057 8.35908 1.808 8.77208 1.597C9.17808 1.39 9.59008 1.2 10.0061 1.016C10.4631 0.815 10.9241 0.625 11.3981 0.464C11.8181 0.321 12.2551 0.237 12.6911 0.156C13.1671 0.0679999 13.6591 0 14.1431 0C14.5941 0 15.0411 0.0349999 15.4881 0.0869999C15.9781 0.145 16.4751 0.195 16.9591 0.3C17.4181 0.399 17.8881 0.494 18.3291 0.652C19.3031 1.002 20.2531 1.413 21.2041 1.815C21.4131 1.902 21.5741 2.163 21.6321 2.371C21.6521 2.443 21.6451 2.517 21.6471 2.59C22.0511 2.94 22.4431 3.307 22.8201 3.684C23.2921 4.156 23.7841 4.603 24.2351 5.095C24.7581 5.664 25.2731 6.266 25.6661 6.938C26.0281 7.555 26.3321 8.196 26.5761 8.87C26.8621 9.658 27.0751 10.475 27.2241 11.299C27.3771 12.153 27.4471 13.014 27.4781 13.881C27.5071 14.707 27.5181 15.53 27.5241 16.354ZM17.7661 23.005C17.9341 22.903 18.0911 22.779 18.2561 22.67C18.2941 22.577 18.3451 22.489 18.4261 22.408C18.5761 22.258 18.7801 22.176 18.9921 22.167C19.0491 22.125 19.1121 22.09 19.1681 22.047C19.5251 21.765 19.8711 21.473 20.2041 21.165C20.5711 20.823 20.9331 20.477 21.2531 20.09C21.5441 19.692 21.7771 19.261 21.9811 18.812C22.2611 18.086 22.4251 17.321 22.5371 16.552C22.6301 15.617 22.6511 14.685 22.6531 13.746C22.6571 12.851 22.6011 11.964 22.5081 11.075C22.4971 11.011 22.4841 10.947 22.4701 10.882C21.8131 10.436 21.1931 9.942 20.5931 9.42C19.9291 8.843 19.3101 8.191 18.7711 7.492C18.7721 7.494 18.7731 7.495 18.7751 7.497C18.7631 7.482 18.7511 7.466 18.7391 7.451C18.7451 7.459 18.7511 7.467 18.7571 7.475C18.7511 7.467 18.7441 7.459 18.7381 7.452C18.5051 7.598 18.2851 7.767 18.0671 7.935C16.9261 8.846 15.8011 9.768 14.6321 10.643C14.0801 11.057 13.5091 11.45 12.9251 11.816C12.6231 12.006 12.3151 12.18 11.9881 12.325C11.6591 12.471 11.3281 12.609 10.9961 12.748C10.0851 13.145 9.19308 13.585 8.26808 13.945C7.84208 14.11 7.39908 14.241 6.96508 14.381C6.52708 14.522 6.08208 14.648 5.63108 14.735C5.61008 14.739 5.58908 14.738 5.56708 14.741C5.58108 15.443 5.60108 16.146 5.67008 16.846C5.72508 17.19 5.79208 17.527 5.88208 17.864C5.96908 18.189 6.08408 18.506 6.20708 18.82C6.42508 19.288 6.69208 19.718 6.99708 20.132C7.12308 20.287 7.25008 20.446 7.39508 20.586C7.54908 20.734 7.70808 20.874 7.87308 21.008C8.25808 21.298 8.64908 21.573 9.06608 21.817C9.52308 22.083 9.99508 22.307 10.4811 22.515C11.4311 22.905 12.3881 23.276 13.3311 23.677C13.3111 23.668 13.2901 23.659 13.2701 23.651C13.4481 23.726 13.6271 23.801 13.8091 23.863C13.9801 23.922 14.1561 23.957 14.3331 23.985C14.6611 24.021 14.9911 24.036 15.3201 24.012C15.6411 23.949 15.9581 23.86 16.2661 23.746C16.7811 23.522 17.2881 23.296 17.7661 23.005ZM18.5781 7.267L18.5771 7.266C18.5611 7.259 18.5451 7.252 18.5281 7.247C18.5441 7.253 18.5611 7.26 18.5781 7.267ZM26.0141 15.775C26.0061 14.586 25.9951 13.398 25.8691 12.214C25.6961 11.093 25.4151 9.995 25.0001 8.938C24.8541 8.61 24.6981 8.29 24.5241 7.974C24.3381 7.637 24.1171 7.321 23.8941 7.009C23.3731 6.356 22.7951 5.762 22.1921 5.184C21.8691 4.876 21.5611 4.557 21.2341 4.257C20.9191 3.967 20.5991 3.685 20.2651 3.418C19.7711 3.204 19.2771 2.991 18.7861 2.777C18.3651 2.598 17.9401 2.416 17.4991 2.299C16.9971 2.168 16.4961 2.062 15.9841 1.982C15.6121 1.934 15.2401 1.889 14.8671 1.867C14.6251 1.852 14.3871 1.842 14.1451 1.842C13.9361 1.842 13.7291 1.863 13.5221 1.879C13.5741 1.872 13.6251 1.864 13.6771 1.857C13.5361 1.875 13.3941 1.894 13.2531 1.914C13.2661 1.912 13.2801 1.911 13.2931 1.909C13.2201 1.919 13.1481 1.928 13.0751 1.937C13.1561 1.927 13.2401 1.916 13.3211 1.906C12.4801 2.018 11.6781 2.279 10.8931 2.591C10.3311 2.83 9.77808 3.081 9.23708 3.368C8.66808 3.668 8.14208 4.044 7.62608 4.429C7.16508 4.794 6.70208 5.159 6.26908 5.559C6.03708 5.774 5.79908 5.989 5.58808 6.225C5.40008 6.435 5.22508 6.647 5.05308 6.865C4.31808 7.949 3.68808 9.094 3.15108 10.288C2.95708 10.772 2.78108 11.259 2.63108 11.76C2.47808 12.27 2.37008 12.781 2.28608 13.303C2.20308 14.117 2.14708 14.932 2.13408 15.748C2.11908 16.575 2.16208 17.393 2.24608 18.214C2.36408 18.98 2.51808 19.729 2.74508 20.471C2.96908 21.208 3.18608 21.946 3.46508 22.664C3.61508 23.006 3.76608 23.355 3.95508 23.676C4.17608 24.051 4.42408 24.402 4.68308 24.75C4.77208 24.86 4.86308 24.969 4.95608 25.076C5.00408 24.978 5.07608 24.897 5.14708 24.813C5.25208 24.687 5.45508 24.602 5.60608 24.563C5.78208 24.518 5.93508 24.544 6.10708 24.578C6.27408 24.613 6.45008 24.735 6.58508 24.834C6.66408 24.892 6.74008 24.954 6.81708 25.016C6.94808 25.123 7.07508 25.235 7.20608 25.343C7.42308 25.5 7.64608 25.645 7.86708 25.795C7.85908 25.671 7.85008 25.548 7.84108 25.424C7.81208 25.006 7.77108 24.588 7.74008 24.17C7.70508 23.731 8.13008 23.365 8.54408 23.36C8.42908 23.299 8.30808 23.253 8.19708 23.186C7.85808 22.987 7.53508 22.768 7.21908 22.536C6.87808 22.282 6.52208 22.029 6.23408 21.715C5.92808 21.386 5.65508 21.03 5.39608 20.664C5.15108 20.319 4.96708 19.943 4.80108 19.558C4.44708 18.705 4.20908 17.813 4.11308 16.891C4.01808 15.964 3.98508 15.031 3.96408 14.098C3.95508 13.698 4.28008 13.371 4.66408 13.32C4.69208 13.281 4.71008 13.234 4.74408 13.2C4.93008 13.014 5.13908 12.958 5.39108 12.931C5.41708 12.929 5.44408 12.926 5.47008 12.923C5.99708 12.835 6.50108 12.678 7.01008 12.515C7.49808 12.361 7.97808 12.196 8.45208 12.004C9.34108 11.62 10.2241 11.221 11.1171 10.847C11.0491 10.874 10.9801 10.903 10.9121 10.932C11.2411 10.787 11.5661 10.642 11.8741 10.452C12.1781 10.264 12.4801 10.075 12.7781 9.877C13.3861 9.477 13.9681 9.042 14.5481 8.602C14.5851 8.573 14.6231 8.544 14.6601 8.516C14.6561 8.519 14.6521 8.522 14.6481 8.525C15.2811 8.035 15.8951 7.526 16.5101 7.015C16.7731 6.796 17.0371 6.579 17.3061 6.37C17.5981 6.141 17.8891 5.888 18.2311 5.739C18.4421 5.648 18.5251 5.621 18.7561 5.596C18.8031 5.587 18.8501 5.582 18.8981 5.582C18.9691 5.582 19.0401 5.592 19.1111 5.613C19.3631 5.65 19.5951 5.781 19.7831 5.952C20.0681 6.21 20.2791 6.544 20.5341 6.829C20.7721 7.094 21.0121 7.355 21.2581 7.613C21.7241 8.101 22.2651 8.516 22.8001 8.927C22.7981 8.925 22.7951 8.923 22.7931 8.922C22.7971 8.925 22.8011 8.928 22.8051 8.931C22.8621 8.975 22.9201 9.019 22.9771 9.063C22.9361 9.031 22.8961 9 22.8561 8.969C23.1321 9.176 23.4251 9.359 23.7161 9.541C24.1361 9.802 24.2991 10.348 24.0431 10.786L24.0421 10.788C24.0801 11.051 24.1081 11.315 24.1321 11.58C24.1591 11.88 24.1801 12.18 24.1981 12.48C24.2311 13.09 24.2231 13.698 24.2131 14.307C24.2031 14.94 24.1781 15.579 24.1091 16.21C24.0351 16.895 23.9411 17.58 23.7511 18.245C23.5171 19.058 23.1971 19.84 22.7411 20.554C22.3131 21.224 21.7361 21.795 21.1461 22.321C20.7351 22.688 20.2971 23.023 19.8511 23.346C19.8141 23.883 19.7661 24.418 19.7041 24.954C19.6721 25.238 19.6451 25.522 19.6181 25.806C19.7081 25.759 19.7971 25.712 19.8881 25.666C20.3451 25.434 20.8041 25.211 21.2721 25.006C21.5241 24.896 21.7811 24.789 22.0401 24.698C22.4951 24.537 22.9891 24.408 23.4591 24.594C23.6551 24.673 23.8371 24.768 23.9891 24.919C24.0601 24.99 24.1241 25.064 24.1851 25.14C24.2281 25.051 24.2701 24.962 24.3121 24.874C24.4841 24.515 24.6511 24.154 24.8111 23.789C25.0911 23.103 25.3051 22.405 25.4831 21.684C25.6531 20.985 25.7481 20.265 25.8491 19.555C25.9231 18.971 25.9881 18.385 26.0081 17.795C26.0241 17.123 26.0181 16.449 26.0141 15.775Z" fill="currentColor" style="fill:currentColor;fill:currentColor;fill-opacity:1;"/>
</svg>