<svg width="32" height="32" viewBox="0 0 32 32" fill="none" xmlns="http://www.w3.org/2000/svg">
<path fill-rule="evenodd" clip-rule="evenodd" d="M28.1514 4.51367C29.4629 4.64556 30.4999 5.74035 30.5 7.08203L30.4902 7.30273C30.4081 8.25812 29.7977 9.05965 28.957 9.43457V26.4375C28.9568 26.9944 28.5282 27.4406 27.9932 27.4941L27.8848 27.5C27.3366 27.4996 26.8759 27.0872 26.8203 26.5469L26.8145 26.4375V24.6299H5.18555V26.4375C5.18533 26.9936 4.75853 27.4401 4.22363 27.4941L4.11523 27.5C3.56726 27.5 3.10447 27.0879 3.04883 26.5469L3.04297 26.4375V9.43457C2.20223 9.05963 1.59192 8.25813 1.50977 7.30273L1.5 7.08203C1.5001 5.65073 2.68058 4.5 4.11523 4.5L4.38086 4.51367C5.60496 4.63683 6.589 5.59888 6.71484 6.81738L6.72852 7.08203C6.7283 8.13334 6.09032 9.03119 5.18555 9.43457V11.0205H26.8145V9.43457C25.9736 9.05966 25.3624 8.25822 25.2803 7.30273L25.2715 7.08203C25.2716 5.65119 26.4503 4.50043 27.8848 4.5L28.1514 4.51367ZM17.0713 22.5059H22.8525V21.9297H17.0713V22.5059ZM5.18555 22.5059H6.9668V21.9297H5.18555V22.5059ZM9.11035 22.5059H14.9287V21.9297H9.11035V22.5059ZM24.9951 22.5059H26.8145V21.9297H24.9951V22.5059ZM5.18555 19.8037H7.00488V16.1973C7.00517 15.8067 7.21559 15.4714 7.52539 15.2871C7.21575 15.1024 7.00496 14.768 7.00488 14.3779V14.3535C7.00488 13.7593 7.49195 13.2911 8.07617 13.291C8.66052 13.291 9.14746 13.7593 9.14746 14.3535V14.3779C9.14738 14.7684 8.93607 15.1026 8.62598 15.2871C8.9363 15.4713 9.14718 15.8064 9.14746 16.1973L9.14844 19.8037H14.9287V16.1973C14.929 15.8067 15.1393 15.4714 15.4492 15.2871C15.1395 15.1024 14.9288 14.768 14.9287 14.3779V14.3535C14.9287 13.7593 15.4157 13.291 16 13.291C16.5477 13.291 17.0095 13.7023 17.0654 14.2432L17.0713 14.3535V14.3779C17.0712 14.7684 16.8599 15.1026 16.5498 15.2871C16.8307 15.4539 17.031 15.7443 17.0664 16.0879L17.0713 16.1973V19.8037H22.8525V16.1973C22.8528 15.8067 23.0631 15.4714 23.373 15.2871C23.0633 15.1024 22.8526 14.7681 22.8525 14.3779V14.3535C22.8525 13.7592 23.3396 13.291 23.9238 13.291C24.508 13.2911 24.9951 13.7593 24.9951 14.3535V14.3779C24.995 14.7684 24.7836 15.1025 24.4736 15.2871C24.7545 15.4539 24.9538 15.7443 24.9893 16.0879L24.9951 16.1973V19.8037H26.8145V13.1445H5.18555V19.8037ZM7.63867 15.8398C7.60313 15.8818 7.5718 15.9275 7.5498 15.9785L7.60254 15.8838C7.61331 15.8681 7.62639 15.8543 7.63867 15.8398ZM15.5625 15.8398C15.527 15.8818 15.4956 15.9275 15.4736 15.9785L15.5264 15.8838C15.5371 15.8681 15.5502 15.8543 15.5625 15.8398ZM4.11426 6.62598C3.88108 6.62626 3.69523 6.78835 3.65234 6.99219L3.64355 7.08203C3.64365 7.32605 3.84792 7.53776 4.11426 7.53809C4.38048 7.53797 4.58584 7.32642 4.58594 7.08203L4.57617 6.99219C4.53329 6.7881 4.34737 6.62608 4.11426 6.62598ZM27.8848 6.62598C27.6519 6.62635 27.4667 6.78827 27.4238 6.99219L27.4141 7.08203C27.4142 7.32624 27.6188 7.53766 27.8848 7.53809C28.1513 7.53809 28.3563 7.32625 28.3564 7.08203L28.3477 6.99219C28.3047 6.78818 28.1182 6.62598 27.8848 6.62598ZM5.06641 7.26855C5.05721 7.31418 5.04385 7.35831 5.02832 7.40137C5.04322 7.36013 5.05635 7.31802 5.06543 7.27441L5.06641 7.26855ZM3.16309 7.27441C3.16708 7.29359 3.17259 7.31231 3.17773 7.33105C3.16426 7.28195 3.15381 7.23154 3.14844 7.17969L3.16309 7.27441ZM28.8359 7.27734C28.8361 7.27634 28.8367 7.27542 28.8369 7.27441L28.8379 7.26855C28.8373 7.2715 28.8366 7.27441 28.8359 7.27734ZM3.49707 6.34473C3.42518 6.40321 3.36194 6.4716 3.30957 6.54785L3.36621 6.47461C3.4257 6.40372 3.49467 6.34067 3.57227 6.28906L3.49707 6.34473ZM28.502 6.34473C28.5741 6.40328 28.6379 6.47143 28.6904 6.54785L28.6348 6.47363C28.5753 6.40274 28.5053 6.34067 28.4277 6.28906L28.502 6.34473ZM3.91895 6.14551C3.85596 6.15826 3.79523 6.17702 3.7373 6.20117L3.82715 6.16895C3.88768 6.15042 3.9507 6.13739 4.01562 6.13086L3.91895 6.14551ZM28.0801 6.14551C28.1434 6.15827 28.2045 6.17691 28.2627 6.20117L28.1738 6.16895C28.113 6.15027 28.0496 6.13741 27.9844 6.13086L28.0801 6.14551ZM27.0625 5.16406C26.9993 5.19045 26.9378 5.21986 26.8779 5.25195C26.9977 5.18772 27.1245 5.13442 27.2568 5.09375L27.0625 5.16406ZM26.9199 7.17969L26.9346 7.27441C26.9392 7.29687 26.9449 7.31896 26.9512 7.34082C26.9363 7.28873 26.9256 7.23492 26.9199 7.17969Z" fill="currentColor" style="fill:currentColor;fill:currentColor;fill-opacity:1;"/>
</svg>
