<svg width="32" height="32" viewBox="0 0 32 32" fill="none" xmlns="http://www.w3.org/2000/svg">
<path d="M31.1273 24.6856H26.2545V9.84923H31.1273C31.609 9.84923 32 9.45825 32 8.9765C32 8.49476 31.609 8.10377 31.1273 8.10377H26.2103C26.041 6.41766 25.3737 4.33941 24.551 3.05126L24.338 2.71788C23.762 1.81665 22.9225 1.29941 22.0364 1.29941C21.1503 1.29941 20.3107 1.81665 19.7341 2.71788L19.5229 3.0501C18.6991 4.33825 18.0323 6.4165 17.8624 8.10319H14.1376C13.9683 6.41708 13.3021 4.33883 12.4788 3.05068L12.2659 2.7173C11.6899 1.81606 10.8509 1.29883 9.96422 1.29883C9.07753 1.29883 8.23854 1.81606 7.66196 2.7173L7.45018 3.04952C6.62633 4.33766 5.96015 6.41592 5.79084 8.10261H0.872727C0.390982 8.10261 0 8.49359 0 8.97534C0 9.45708 0.390982 9.84807 0.872727 9.84807H5.74545V24.685H0.872727C0.390982 24.685 0 25.076 0 25.5577C0 26.0395 0.390982 26.4305 0.872727 26.4305H5.74545V26.9169C5.74545 29.0021 7.44204 30.6987 9.52727 30.6987H10.4C12.4852 30.6987 14.1818 29.0021 14.1818 26.9169V26.4305H17.8182V26.918C17.8182 29.0033 19.5148 30.6998 21.6 30.6998H22.4727C24.558 30.6998 26.2545 29.0033 26.2545 26.918V26.4305H31.1273C31.609 26.4305 32 26.0395 32 25.5577C32 25.076 31.609 24.6856 31.1273 24.6856ZM12.4364 26.9186C12.4364 28.0415 11.5229 28.955 10.4 28.955H9.52727C8.40436 28.955 7.49091 28.0415 7.49091 26.9186V8.88225C7.49091 7.44283 8.14545 5.20341 8.92044 3.9909L9.13222 3.65868C9.38124 3.26945 9.68378 3.04603 9.96364 3.04603C10.2429 3.04603 10.546 3.26945 10.7945 3.6581L11.0074 3.99148C11.7818 5.20341 12.4364 7.44341 12.4364 8.88225V26.9186ZM14.1818 24.6856V9.84923H17.8182V24.6856H14.1818ZM24.5091 26.9186C24.5091 28.0415 23.5956 28.955 22.4727 28.955H21.6C20.4771 28.955 19.5636 28.0415 19.5636 26.9186V8.88225C19.5636 7.44283 20.2182 5.20341 20.9932 3.9909L21.2044 3.65868C21.454 3.26945 21.7565 3.04603 22.0364 3.04603C22.3162 3.04603 22.6188 3.26945 22.8672 3.6581L23.0801 3.99148C23.8545 5.20341 24.5091 7.44341 24.5091 8.88225V26.9186ZM11.1273 25.5583C11.1273 26.2012 10.6065 26.722 9.96364 26.722C9.32073 26.722 8.8 26.2012 8.8 25.5583C8.8 24.916 9.32073 24.3947 9.96364 24.3947C10.6065 24.3947 11.1273 24.9154 11.1273 25.5583ZM23.2 25.5583C23.2 26.2012 22.6793 26.722 22.0364 26.722C21.3935 26.722 20.8727 26.2012 20.8727 25.5583C20.8727 24.916 21.3935 24.3947 22.0364 24.3947C22.6793 24.3947 23.2 24.9154 23.2 25.5583ZM11.1273 8.9765C11.1273 9.61941 10.6065 10.1401 9.96364 10.1401C9.32073 10.1401 8.8 9.61941 8.8 8.9765C8.8 8.33359 9.32073 7.81286 9.96364 7.81286C10.6065 7.81286 11.1273 8.33359 11.1273 8.9765ZM23.2 8.9765C23.2 9.61941 22.6793 10.1401 22.0364 10.1401C21.3935 10.1401 20.8727 9.61941 20.8727 8.9765C20.8727 8.33359 21.3935 7.81286 22.0364 7.81286C22.6793 7.81286 23.2 8.33359 23.2 8.9765Z" fill="currentColor" style="fill:currentColor;fill:currentColor;fill-opacity:1;"/>
</svg>
