<svg width="30" height="15" viewBox="0 0 30 15" fill="none" xmlns="http://www.w3.org/2000/svg">
<path fill-rule="evenodd" clip-rule="evenodd" d="M6.62891 0.0101659C6.9515 -0.0193624 7.27751 0.015718 7.58691 0.111728C7.8964 0.20787 8.18441 0.364446 8.43359 0.571689C8.68276 0.779017 8.88921 1.03378 9.04004 1.32071C9.18606 1.59869 9.27629 1.90213 9.30859 2.21427C9.31768 2.2892 9.3475 2.36151 9.39355 2.4213C9.43977 2.48108 9.50273 2.52719 9.57324 2.55509L12.8994 3.97208C13.5083 3.56844 14.2045 3.28692 14.918 3.12052C16.481 2.75621 18.2751 2.89284 19.8369 3.56876C20.5326 3.8237 21.169 4.2184 21.707 4.72794C22.2569 5.24882 22.6922 5.87885 22.9844 6.57755C23.2765 7.27644 23.4199 8.0291 23.4043 8.78653C23.3886 9.54368 23.2149 10.2895 22.8945 10.976C22.6749 11.5127 22.3713 12.0103 21.9961 12.4506H23.9795L24.8262 9.4506H30V11.4506H26.3398L25.4941 14.4506H5.35254L4.50586 11.4506H0V9.4506H6.02051L6.86621 12.4506H13.3086C12.6791 11.8943 12.1421 11.2483 11.7354 10.557C11.3679 9.9325 11.0929 9.24307 10.9629 8.53165L7.63477 7.10294C7.56665 7.07215 7.49064 7.06002 7.41602 7.06778C7.3414 7.07575 7.26944 7.10338 7.20898 7.14786L7.20801 7.14591C6.69838 7.53868 6.05628 7.71976 5.41602 7.64688C4.76399 7.57248 4.16749 7.24255 3.75879 6.72892C3.35021 6.21499 3.16259 5.55892 3.2373 4.90665C3.31216 4.25467 3.64272 3.65877 4.15625 3.2504L4.16016 3.24747C4.24199 3.18308 4.30679 3.09785 4.34766 3.00235C4.38827 2.90697 4.40453 2.80257 4.39453 2.69962L4.39355 2.69376C4.3642 2.37129 4.39896 2.04588 4.49512 1.73673C4.59151 1.42736 4.74872 1.13902 4.95605 0.890049C5.16349 0.641094 5.41826 0.434366 5.70508 0.283603C5.99186 0.132976 6.30633 0.0398077 6.62891 0.0101659ZM19.0557 5.41056C17.8912 4.90285 16.5288 4.79886 15.3711 5.06876C14.2045 5.34105 13.39 5.94947 13.0596 6.72599C12.7284 7.50536 12.8534 8.51399 13.459 9.54337C14.0602 10.5651 15.0689 11.4755 16.2266 11.9682L16.2559 11.9809L16.2861 11.9955C16.7137 12.2117 17.183 12.3364 17.6621 12.3617C18.1412 12.3868 18.6214 12.3121 19.0703 12.142C19.5195 11.9716 19.9293 11.7084 20.2715 11.3715C20.6135 11.0347 20.8818 10.6305 21.0586 10.185L21.0693 10.1576L21.082 10.1303C21.2848 9.69586 21.3943 9.22411 21.4043 8.74552C21.4142 8.2668 21.3241 7.79056 21.1396 7.34903C20.9551 6.90769 20.6796 6.50932 20.332 6.18009C19.9845 5.85103 19.5716 5.59788 19.1201 5.43692L19.0869 5.42423L19.0557 5.41056ZM6.81152 2.00235C6.75027 2.00804 6.68926 2.02552 6.63477 2.05411C6.58038 2.08283 6.5315 2.12314 6.49219 2.17032C6.45304 2.21749 6.42253 2.27213 6.4043 2.33048C6.38627 2.3886 6.38141 2.45067 6.38672 2.51114C6.42826 2.94675 6.35838 3.38604 6.18652 3.78849C6.01456 4.19077 5.74359 4.54367 5.40039 4.81485C5.30172 4.89353 5.23808 5.00947 5.22363 5.13419C5.20938 5.25906 5.24524 5.38544 5.32324 5.4838C5.40144 5.58212 5.51715 5.64608 5.64258 5.66056C5.76801 5.6747 5.89513 5.63848 5.99414 5.55997L6.02246 5.53751C6.36966 5.28179 6.78012 5.1234 7.20898 5.07853C7.63044 5.03458 8.05623 5.10203 8.44336 5.27384L11.0586 6.39688C11.1036 6.24493 11.1561 6.0925 11.2197 5.94278C11.2822 5.79587 11.3541 5.65539 11.4307 5.51993L8.83984 4.41544L8.83887 4.41642C8.43333 4.25636 8.07814 3.98899 7.81152 3.64395C7.54503 3.29896 7.37568 2.88825 7.32324 2.45548L7.32227 2.43985L7.32129 2.4252C7.31567 2.3642 7.29705 2.30461 7.26855 2.2504C7.24008 2.19643 7.20125 2.14792 7.1543 2.1088C7.10732 2.06986 7.05255 2.0401 6.99414 2.02188C6.93549 2.00374 6.8728 1.99678 6.81152 2.00235Z" fill="currentColor" style="fill:currentColor;fill:currentColor;fill-opacity:1;"/>
</svg>
