<svg width="32" height="32" viewBox="0 0 32 32" fill="none" xmlns="http://www.w3.org/2000/svg">
<g clip-path="url(#clip0_2989_43821)">
<path d="M12.1975 19.5244C12.497 19.5244 12.7398 19.2816 12.7398 18.9821C12.7398 18.6825 12.497 18.4397 12.1975 18.4397C11.8979 18.4397 11.6551 18.6825 11.6551 18.9821C11.6551 19.2816 11.8979 19.5244 12.1975 19.5244Z" fill="currentColor" style="fill:currentColor;fill:currentColor;fill-opacity:1;"/>
<path d="M12.1975 21.6939C12.497 21.6939 12.7398 21.4511 12.7398 21.1516C12.7398 20.852 12.497 20.6092 12.1975 20.6092C11.8979 20.6092 11.6551 20.852 11.6551 21.1516C11.6551 21.4511 11.8979 21.6939 12.1975 21.6939Z" fill="currentColor" style="fill:currentColor;fill:currentColor;fill-opacity:1;"/>
<path d="M19.7966 19.5244C20.0962 19.5244 20.339 19.2816 20.339 18.9821C20.339 18.6825 20.0962 18.4397 19.7966 18.4397C19.4971 18.4397 19.2543 18.6825 19.2543 18.9821C19.2543 19.2816 19.4971 19.5244 19.7966 19.5244Z" fill="currentColor" style="fill:currentColor;fill:currentColor;fill-opacity:1;"/>
<path d="M19.7966 21.6939C20.0962 21.6939 20.339 21.4511 20.339 21.1516C20.339 20.852 20.0962 20.6092 19.7966 20.6092C19.4971 20.6092 19.2543 20.852 19.2543 21.1516C19.2543 21.4511 19.4971 21.6939 19.7966 21.6939Z" fill="currentColor" style="fill:currentColor;fill:currentColor;fill-opacity:1;"/>
<path d="M14.367 -0.000976562C14.067 -0.000976562 13.8246 0.241464 13.8246 0.541396V7.59224C13.8246 8.29841 13.3695 8.89502 12.7398 9.11957V0.541396C12.7398 0.241464 12.4974 -0.000976562 12.1975 -0.000976562C11.8975 -0.000976562 11.6551 0.241464 11.6551 0.541396V9.11957C11.0254 8.89502 10.5703 8.29841 10.5703 7.59224V0.541396C10.5703 0.241464 10.3279 -0.000976562 10.028 -0.000976562C9.72804 -0.000976562 9.4856 0.241464 9.4856 0.541396V7.59224C9.4856 8.90153 10.419 9.99713 11.6551 10.2493V15.8049C10.7222 16.0473 10.028 16.8891 10.028 17.8973V29.8295C10.028 31.026 11.001 31.999 12.1975 31.999C13.3939 31.999 14.367 31.026 14.367 29.8295V17.8973C14.367 16.8891 13.6727 16.0473 12.7398 15.8049V10.2493C13.9759 9.99713 14.9093 8.90207 14.9093 7.59224V0.541396C14.9093 0.241464 14.6669 -0.000976562 14.367 -0.000976562ZM13.2822 17.8973V29.8295C13.2822 30.4278 12.7957 30.9143 12.1975 30.9143C11.5992 30.9143 11.1127 30.4278 11.1127 29.8295V17.8973C11.1127 17.2991 11.5992 16.8126 12.1975 16.8126C12.7957 16.8126 13.2822 17.2991 13.2822 17.8973Z" fill="currentColor" style="fill:currentColor;fill:currentColor;fill-opacity:1;"/>
<path d="M12.9827 29.8291V17.8975C12.9827 17.4649 12.63 17.1123 12.1975 17.1123C11.765 17.1123 11.4124 17.4649 11.4124 17.8975V29.8291C11.4124 30.2617 11.765 30.6143 12.1975 30.6143L12.1975 30.9143L12.0872 30.9082C11.5771 30.8565 11.1704 30.4505 11.1184 29.9404L11.1127 29.8295V17.8973C11.1127 17.2991 11.5992 16.8126 12.1975 16.8126L12.3079 16.8184C12.8544 16.8738 13.2822 17.3364 13.2822 17.8973V29.8295L13.2766 29.9404C13.2209 30.4867 12.7582 30.9143 12.1975 30.9143L12.1975 30.6143C12.63 30.6142 12.9827 30.2616 12.9827 29.8291ZM12.7398 0.541396C12.7397 0.279109 12.5541 0.0602291 12.3069 0.00976562L12.1975 -0.000976562C11.8975 -0.000976562 11.6551 0.241464 11.6551 0.541396V9.11957C11.0648 8.90909 10.6279 8.37173 10.5754 7.72363L10.5703 7.59224V0.541396C10.5702 0.278963 10.3844 0.0600703 10.137 0.00976562L10.028 -0.000976562C9.72804 -0.000976562 9.4856 0.241464 9.4856 0.541396V7.59224L9.49634 7.83496C9.60336 9.03512 10.4962 10.0129 11.6551 10.2493V15.8049C10.7222 16.0473 10.028 16.8891 10.028 17.8973V29.8295L10.0393 30.0508C10.143 31.0708 10.9558 31.8844 11.9758 31.9883L12.1975 31.999C13.3192 31.999 14.2446 31.1437 14.3557 30.0508L14.367 29.8295V17.8973C14.367 16.8891 13.6727 16.0473 12.7398 15.8049V10.2493C13.8987 10.0129 14.7917 9.03556 14.8987 7.83496L14.9093 7.59224V0.541396C14.9091 0.279255 14.7238 0.0603877 14.4768 0.00976562L14.367 -0.000976562C14.067 -0.000976562 13.8246 0.241464 13.8246 0.541396V7.59224L13.8196 7.72363C13.7672 8.37173 13.3301 8.90909 12.7398 9.11957V0.541396ZM15.2092 7.5918C15.2092 8.96095 14.2915 10.1168 13.0403 10.4824V15.585C13.9851 15.9294 14.6672 16.8301 14.6672 17.8975V29.8291C14.6672 31.1912 13.5596 32.2988 12.1975 32.2988C10.8353 32.2988 9.72778 31.1913 9.72778 29.8291V17.8975C9.72778 16.83 10.4099 15.9294 11.3547 15.585V10.4824C10.1034 10.1168 9.18579 8.96044 9.18579 7.5918V0.541016C9.186 0.0757003 9.56227 -0.300576 10.0276 -0.300781C10.4931 -0.300781 10.8702 0.0755734 10.8704 0.541016V7.5918C10.8704 8.00011 11.0601 8.36277 11.3547 8.60547V0.541016C11.3549 0.0755733 11.732 -0.300781 12.1975 -0.300781C12.663 -0.300754 13.0401 0.0755898 13.0403 0.541016V8.60547C13.3349 8.36277 13.5247 8.00008 13.5247 7.5918V0.541016C13.5249 0.0755734 13.9019 -0.300781 14.3674 -0.300781C14.8327 -0.300522 15.209 0.0757334 15.2092 0.541016V7.5918Z" fill="currentColor" style="fill:currentColor;fill:currentColor;fill-opacity:1;"/>
<path d="M21.3863 0.911295C20.7756 0.297329 19.9008 -0.000976562 18.7119 -0.000976562C18.412 -0.000976562 18.1695 0.241464 18.1695 0.541396V16.2702C18.1695 16.3293 18.1858 16.3836 18.2032 16.4367C17.849 16.8229 17.6272 17.3327 17.6272 17.8973V29.8295C17.6272 31.026 18.6002 31.999 19.7966 31.999C20.9931 31.999 21.9661 31.026 21.9661 29.8295V17.8973C21.9661 17.2025 21.632 16.5897 21.1222 16.1921C22.5058 14.4001 22.5096 11.7495 22.5085 7.89597L22.5118 6.6995C22.5248 4.11129 22.5362 2.06709 21.3863 0.911295ZM20.8814 29.8295C20.8814 30.4278 20.3949 30.9143 19.7966 30.9143C19.1984 30.9143 18.7119 30.4278 18.7119 29.8295V17.8973C18.7119 17.2991 19.1984 16.8126 19.7966 16.8126C20.3949 16.8126 20.8814 17.2991 20.8814 17.8973V29.8295ZM21.427 6.69407L21.4238 7.89651C21.4248 11.7116 21.4211 14.2656 20.0727 15.756C19.9816 15.7441 19.891 15.7278 19.7966 15.7278C19.6084 15.7278 19.4289 15.7593 19.2543 15.8049V1.11577C19.8563 1.18302 20.3081 1.36526 20.6173 1.67604C21.4487 2.51238 21.439 4.35753 21.427 6.69407Z" fill="currentColor" style="fill:currentColor;fill:currentColor;fill-opacity:1;"/>
<path d="M17.3273 29.8291V17.8975C17.3273 17.3117 17.5369 16.7796 17.8752 16.3594C17.8713 16.3314 17.8694 16.3016 17.8693 16.2705V0.541016C17.8695 0.0755733 18.2466 -0.300781 18.7121 -0.300781C19.9502 -0.300745 20.9135 0.0111897 21.5988 0.700195L21.715 0.823242C22.2761 1.45343 22.5474 2.28093 22.6818 3.22559C22.8248 4.231 22.8182 5.41402 22.8117 6.70117L22.8088 7.89648C22.8093 9.81674 22.8086 11.4635 22.632 12.8545C22.4687 14.1408 22.15 15.2349 21.5236 16.1465C21.9773 16.5916 22.2658 17.2079 22.2658 17.8975V29.8291C22.2658 31.1911 21.159 32.2986 19.7971 32.2988C18.4349 32.2988 17.3273 31.1913 17.3273 29.8291ZM20.5813 29.8291V17.8975C20.5813 17.4651 20.2294 17.1125 19.7971 17.1123C19.3645 17.1123 19.0119 17.4649 19.0119 17.8975V29.8291C19.0119 30.2617 19.3645 30.6143 19.7971 30.6143L19.7966 30.9143L19.6857 30.9082C19.1759 30.8562 18.77 30.4502 18.718 29.9404L18.7119 29.8295V17.8973C18.7119 17.2991 19.1984 16.8126 19.7966 16.8126L19.9074 16.8184C20.4538 16.874 20.8814 17.3365 20.8814 17.8973V29.8295L20.8762 29.9404C20.8205 30.4866 20.3573 30.9141 19.7966 30.9143L19.7971 30.6143C20.2294 30.614 20.5813 30.2615 20.5813 29.8291ZM21.1242 7.89551L21.1301 5.84082C21.1294 5.01772 21.1133 4.28427 21.0402 3.65723C20.9541 2.91866 20.793 2.38017 20.5256 2.02734L20.4045 1.8877C20.212 1.6942 19.937 1.55073 19.5539 1.46777V15.4434C19.6327 15.4342 19.7139 15.4277 19.7971 15.4277C19.8489 15.4278 19.901 15.4322 19.9494 15.4375C20.4997 14.7683 20.8005 13.8639 20.9572 12.6592C21.1235 11.381 21.1248 9.80962 21.1242 7.89551ZM21.4238 7.89651C21.4248 11.7116 21.4211 14.2656 20.0727 15.756L19.9357 15.7373L19.7966 15.7278C19.6084 15.7278 19.4289 15.7593 19.2543 15.8049V1.11577C19.8563 1.18302 20.3081 1.36526 20.6173 1.67604C21.4487 2.51238 21.439 4.35753 21.427 6.69407L21.4238 7.89651ZM18.1695 16.2702L18.1799 16.3555C18.1861 16.3831 18.1945 16.4101 18.2032 16.4367C17.849 16.8229 17.6272 17.3327 17.6272 17.8973V29.8295L17.6379 30.0508C17.7416 31.071 18.5552 31.8846 19.5754 31.9883L19.7966 31.999C20.9183 31.9988 21.8442 31.1436 21.9553 30.0508L21.9661 29.8295V17.8973C21.9661 17.2025 21.632 16.5897 21.1222 16.1921C22.3329 14.6241 22.4871 12.3987 22.5061 9.28516L22.5118 6.6995C22.5244 4.19228 22.5351 2.19555 21.4904 1.02246L21.3863 0.911295C20.8519 0.374187 20.115 0.0781281 19.1428 0.0126953L18.7119 -0.000976562C18.412 -0.000976562 18.1695 0.241464 18.1695 0.541396V16.2702Z" fill="currentColor" style="fill:currentColor;fill:currentColor;fill-opacity:1;"/>
</g>
<defs>
<clipPath id="clip0_2989_43821">
<rect width="32" height="32" fill="currentColor" style="fill:currentColor;fill-opacity:1;"/>
</clipPath>
</defs>
</svg>
