<svg width="32" height="32" viewBox="0 0 32 32" fill="none" xmlns="http://www.w3.org/2000/svg">
<path d="M29.125 17.75C27.0385 17.75 5.19993 17.75 4.625 17.75V14.6875H6.375C6.85827 14.6875 7.25 14.2957 7.25 13.8125V11.625C7.25 11.1418 6.85827 10.75 6.375 10.75C5.89173 10.75 5.5 11.1418 5.5 11.625V12.9375H4.625V5.34988C4.625 3.93331 6.35105 3.21357 7.35615 4.21862L8.28255 5.14502C7.54843 6.42477 7.72671 8.08912 8.81877 9.18123L9.25627 9.61873C9.5979 9.96042 10.152 9.96048 10.4937 9.61873L13.9937 6.11873C14.3354 5.77705 14.3354 5.22301 13.9937 4.88132L13.5562 4.44382C12.4433 3.33088 10.776 3.18273 9.51931 3.90695L8.59356 2.9812C7.96083 2.34847 7.11962 2 6.22488 2C4.37776 2 2.875 3.50276 2.875 5.34988V17.75C2.39173 17.75 2 18.1418 2 18.625C2 19.1082 2.39173 19.5 2.875 19.5V21.25C2.875 23.6502 3.95464 25.8026 5.65345 27.2482L4.43184 28.5185C3.89574 29.0759 4.29813 30 5.06239 30C5.29202 30 5.52144 29.9101 5.69316 29.7315L7.12695 28.2405C8.21217 28.8052 9.44439 29.125 10.75 29.125H21.25C22.5556 29.125 23.7878 28.8052 24.873 28.2405L26.3068 29.7315C26.6408 30.0787 27.1946 30.0916 27.544 29.7557C27.8923 29.4207 27.9031 28.8668 27.5682 28.5185L26.3465 27.2481C28.0454 25.8026 29.125 23.6502 29.125 21.25V19.5C29.6083 19.5 30 19.1082 30 18.625C30 18.1418 29.6083 17.75 29.125 17.75ZM12.1232 5.51433L9.88949 7.74804C9.43854 7.12313 9.4941 6.24331 10.0562 5.68118C10.6237 5.11369 11.5033 5.06545 12.1232 5.51433ZM27.375 21.25C27.375 24.6273 24.6273 27.375 21.25 27.375H10.75C7.37266 27.375 4.625 24.6273 4.625 21.25V19.5H27.375V21.25Z" fill="currentColor" style="fill:currentColor;fill:currentColor;fill-opacity:1;"/>
</svg>
