<svg width="32" height="32" viewBox="0 0 32 32" fill="none" xmlns="http://www.w3.org/2000/svg">
<path fill-rule="evenodd" clip-rule="evenodd" d="M24.7549 4.92872C25.1311 4.62195 25.6854 4.64363 26.0361 4.99415L26.1025 5.06641C26.3889 5.41756 26.389 5.92522 26.1025 6.27637L26.0361 6.34864L25.8135 6.57129C25.6267 6.75792 25.3804 6.85254 25.1357 6.85254C24.8914 6.85248 24.6458 6.75882 24.459 6.57227C24.0851 6.19821 24.085 5.59082 24.459 5.2168L24.6816 4.99415L24.7549 4.92872ZM25.7539 6.06543L25.8174 5.98926C25.8184 5.98786 25.8184 5.98579 25.8193 5.98438C25.8001 6.01266 25.779 6.04032 25.7539 6.06543ZM24.624 5.67286C24.623 5.67513 24.622 5.6774 24.6211 5.67969C24.6343 5.64796 24.6506 5.61723 24.6699 5.5879L24.624 5.67286Z" fill="currentColor" style="fill:currentColor;fill:currentColor;fill-opacity:1;"/>
<path fill-rule="evenodd" clip-rule="evenodd" d="M23.8164 2.61329C25.3626 1.21665 27.7573 1.26324 29.2471 2.75293L29.3867 2.9004C30.738 4.39675 30.7383 6.68732 29.3867 8.1836L29.2471 8.33008L19.3945 18.1816C19.3754 18.2008 19.3543 18.2209 19.3311 18.2402L8.2627 27.5029C8.34578 27.7348 8.39057 27.9809 8.39062 28.2334C8.39062 28.7392 8.21751 29.2204 7.90039 29.6064L7.75586 29.7656C7.3474 30.174 6.80237 30.4003 6.22461 30.4004C5.71889 30.4004 5.23758 30.2272 4.85156 29.9102L4.69238 29.7656L2.23438 27.3076C1.82586 26.899 1.59961 26.3533 1.59961 25.7754C1.5997 25.1977 1.826 24.6527 2.23438 24.2441L2.39355 24.0996C2.77957 23.7825 3.2608 23.6094 3.7666 23.6094C4.01872 23.6094 4.26457 23.6535 4.49609 23.7363L13.7607 12.668L13.8184 12.6055L23.6699 2.75293L23.8164 2.61329ZM5.08887 29.5869C5.09206 29.5896 5.09543 29.5921 5.09863 29.5947C5.05615 29.5595 5.01512 29.522 4.97559 29.4824L5.08887 29.5869ZM7.47363 29.4824L7.57715 29.3691C7.58 29.3658 7.58214 29.3618 7.58496 29.3584C7.54968 29.4009 7.51319 29.4429 7.47363 29.4824ZM5.76465 28.6943C5.79518 28.7248 5.82821 28.7519 5.86328 28.7754L5.76465 28.6943ZM6.68457 28.6934L6.61816 28.7481C6.6406 28.7308 6.66422 28.7137 6.68457 28.6934ZM3.7666 25.5254C3.69891 25.5254 3.6367 25.5508 3.58887 25.5986C3.54117 25.6464 3.5157 25.7079 3.51562 25.7754C3.51562 25.8431 3.54104 25.9053 3.58887 25.9531L6.04688 28.4111L6.08496 28.4424C6.12576 28.4699 6.17365 28.4844 6.22461 28.4844C6.29222 28.4843 6.35363 28.4588 6.40137 28.4111C6.44927 28.3632 6.47461 28.3011 6.47461 28.2334C6.47454 28.1828 6.46088 28.1353 6.43359 28.0947L6.40137 28.0566L3.94336 25.5986C3.89559 25.5509 3.83408 25.5255 3.7666 25.5254ZM7.86816 27.5869C7.89485 27.6547 7.91747 27.7241 7.93555 27.7949L7.86816 27.5869C7.84153 27.519 7.8114 27.4528 7.77637 27.3887L7.86816 27.5869ZM2.03027 26.1016C2.03076 26.1042 2.03173 26.1067 2.03223 26.1094C2.0223 26.0572 2.01402 26.0045 2.00879 25.9512L2.03027 26.1016ZM27.8926 4.10743C27.1516 3.36646 25.9733 3.32024 25.1777 3.96875L25.0244 4.10743L15.1982 13.9336L5.99023 24.9365L7.0625 26.0088L18.0654 16.8008L27.8926 6.97559L28.0312 6.82227C28.6365 6.07981 28.6363 5.00427 28.0312 4.26172L27.8926 4.10743ZM3.40527 25.2344C3.37019 25.2579 3.33718 25.2849 3.30664 25.3154C3.3681 25.2541 3.4396 25.2061 3.51758 25.1738L3.40527 25.2344ZM2.30762 24.7783C2.30511 24.782 2.30228 24.7854 2.2998 24.7891C2.33052 24.7436 2.36428 24.7 2.39941 24.6572L2.30762 24.7783ZM2.78711 24.3047C2.69117 24.3688 2.601 24.443 2.51758 24.5264L2.64746 24.4092C2.73739 24.3353 2.83344 24.2709 2.93457 24.2168L2.78711 24.3047ZM29.0889 7.91504C29.0485 7.95975 29.0069 8.00381 28.9639 8.04688L29.0859 7.91895C29.125 7.87579 29.1626 7.8317 29.1992 7.78711L29.0889 7.91504ZM28.3408 7.07422C28.3081 7.11439 28.272 7.15197 28.2363 7.19043C28.3285 7.0911 28.4129 6.9878 28.4854 6.87793L28.3408 7.07422ZM27.7939 3.51465C27.9286 3.60343 28.0564 3.70681 28.1748 3.8252C27.9974 3.64777 27.7992 3.5035 27.5879 3.39258L27.7939 3.51465ZM24.9258 3.65821C24.8855 3.69106 24.8482 3.72784 24.8096 3.76368C24.9089 3.6715 25.0122 3.58711 25.1221 3.51465L24.9258 3.65821Z" fill="currentColor" style="fill:currentColor;fill:currentColor;fill-opacity:1;"/>
</svg>
