<svg width="32" height="32" viewBox="0 0 32 32" fill="none" xmlns="http://www.w3.org/2000/svg">
<path d="M15.0002 29.3329V26.3329H10.3733L8.91919 29.7264L8.87427 29.8182C8.62863 30.2617 8.0817 30.4558 7.60571 30.2518C7.09822 30.0342 6.86279 29.4459 7.08032 28.9383L11.0266 19.7294C10.3871 19.3799 9.78078 18.9632 9.22192 18.4803C7.91627 17.3522 6.92376 15.9235 6.31763 14.3329H5.33325C4.78108 14.3329 4.33343 13.885 4.33325 13.3329C4.33325 12.7806 4.78097 12.3329 5.33325 12.3329H5.77856C5.76793 12.2684 5.75577 12.2042 5.74634 12.1395V12.1385C5.70921 11.8822 5.66058 11.5673 5.66724 11.2899C5.67534 10.9542 5.76238 10.5775 6.05493 10.2401L6.05688 10.2381L6.17603 10.1151C6.46111 9.85289 6.79209 9.74951 7.07544 9.70591C7.35533 9.66285 7.68832 9.66587 7.97876 9.66587H24.0217C24.3107 9.66587 24.6436 9.6632 24.9231 9.70591C25.2073 9.74938 25.5397 9.85286 25.8254 10.117L25.9446 10.2401L26.0452 10.368C26.2581 10.6708 26.3262 10.9961 26.3333 11.2899C26.3399 11.5673 26.2903 11.8822 26.2532 12.1385V12.1395C26.2437 12.2042 26.2316 12.2684 26.2209 12.3329H26.6663L26.7688 12.3377C27.2731 12.3889 27.6663 12.8151 27.6663 13.3329C27.6661 13.8505 27.2729 14.2758 26.7688 14.327L26.6663 14.3329H25.6819C25.0756 15.9235 24.0833 17.3522 22.7776 18.4803C22.2185 18.9634 21.6117 19.3798 20.9719 19.7294L24.9192 28.9383L24.9543 29.035C25.1057 29.5186 24.8696 30.0479 24.3938 30.2518C23.9179 30.4557 23.3719 30.2615 23.1262 29.8182L23.0803 29.7264L21.6262 26.3329H17.0002V29.3329C17.0001 29.8849 16.5523 30.3327 16.0002 30.3329C15.4481 30.3329 15.0004 29.885 15.0002 29.3329ZM19.1321 20.5145C18.4413 20.7332 17.7272 20.8791 17.0002 20.9491V24.3329H20.7688L19.1321 20.5145ZM11.2307 24.3329H15.0002V20.9501C14.2727 20.8802 13.5577 20.7343 12.8665 20.5155L11.2307 24.3329ZM7.70044 11.6678C7.70796 11.722 7.71586 11.7826 7.72583 11.8514L7.78833 12.2215C8.14173 14.0629 9.10534 15.736 10.5295 16.9667C12.049 18.2794 13.9913 19.001 15.9993 18.9989H16.0012L16.3762 18.9911C18.2497 18.9085 20.0455 18.1974 21.47 16.9667C22.9891 15.654 23.9849 13.8381 24.2747 11.8514L24.2991 11.6678C24.2196 11.667 24.1292 11.6659 24.0217 11.6659H7.97876C7.87101 11.6659 7.7801 11.667 7.70044 11.6678ZM11.929 8.74205C11.5189 9.11206 10.8859 9.07881 10.5159 8.6688C10.1463 8.25885 10.1784 7.62662 10.5881 7.25669L11.929 8.74205ZM15.593 6.66587C15.593 6.55447 15.5689 6.44443 15.5237 6.34263C15.4785 6.24096 15.4129 6.14963 15.3303 6.07505C15.0398 5.8129 14.8076 5.49218 14.6487 5.13462C14.4898 4.77711 14.4075 4.39012 14.4075 3.99888C14.4075 3.60769 14.4898 3.2206 14.6487 2.86314C14.8076 2.50573 15.0399 2.18575 15.3303 1.92369C15.7403 1.55377 16.3724 1.58598 16.7424 1.99595C17.0892 2.3803 17.0823 2.95997 16.7424 3.3358L16.6106 3.46763C16.5552 3.52937 16.5097 3.59954 16.4758 3.67564C16.4306 3.77734 16.4075 3.88759 16.4075 3.99888C16.4075 4.11015 16.4307 4.22043 16.4758 4.32212C16.5211 4.42389 16.5875 4.51508 16.6702 4.5897C16.9607 4.85186 17.1929 5.17257 17.3518 5.53013C17.5107 5.88765 17.593 6.27462 17.593 6.66587C17.593 7.05712 17.5107 7.4441 17.3518 7.80162C17.1929 8.15917 16.9607 8.47989 16.6702 8.74205C16.2602 9.11199 15.6271 9.07879 15.2571 8.6688C14.8875 8.25878 14.9205 7.62658 15.3303 7.25669C15.4129 7.18211 15.4785 7.09079 15.5237 6.98912C15.5689 6.88732 15.593 6.77727 15.593 6.66587ZM20.3342 6.66587C20.3342 6.55447 20.3101 6.44442 20.2649 6.34263C20.2197 6.24095 20.1541 6.14964 20.0715 6.07505C19.781 5.8129 19.5488 5.49218 19.3899 5.13462C19.231 4.77712 19.1487 4.3901 19.1487 3.99888C19.1487 3.6077 19.231 3.2206 19.3899 2.86314C19.5488 2.50572 19.7811 2.18576 20.0715 1.92369C20.4815 1.55371 21.1136 1.58595 21.4836 1.99595C21.8536 2.4059 21.8212 3.03803 21.4114 3.40806C21.3287 3.48266 21.2623 3.5739 21.217 3.67564C21.1718 3.77733 21.1487 3.88759 21.1487 3.99888C21.1487 4.11014 21.1719 4.22044 21.217 4.32212C21.2623 4.42386 21.3287 4.51509 21.4114 4.5897C21.7019 4.85186 21.9341 5.17257 22.093 5.53013C22.2519 5.88767 22.3342 6.27461 22.3342 6.66587C22.3342 7.05714 22.2519 7.44408 22.093 7.80162C21.9341 8.15917 21.7019 8.47989 21.4114 8.74205C21.0014 9.11193 20.3692 9.07877 19.9993 8.6688C19.6523 8.28431 19.6589 7.7048 19.9993 7.32896L20.1301 7.1981C20.1858 7.13619 20.2309 7.06549 20.2649 6.98912C20.3101 6.88732 20.3342 6.77727 20.3342 6.66587ZM10.8518 6.66587C10.8518 6.55448 10.8277 6.44442 10.7825 6.34263C10.7372 6.24084 10.6708 6.14969 10.5881 6.07505C10.2977 5.81293 10.0654 5.4921 9.90649 5.13462C9.7675 4.82181 9.68802 4.48639 9.67017 4.14537L9.66626 3.99888C9.66631 3.60769 9.74758 3.2206 9.90649 2.86314C10.0654 2.50576 10.2978 2.18577 10.5881 1.92369L10.6682 1.85923C11.0769 1.55938 11.6543 1.61155 12.0012 1.99595C12.3479 2.38027 12.3411 2.95999 12.0012 3.3358L11.8694 3.46763C11.814 3.52938 11.7685 3.59954 11.7346 3.67564C11.6894 3.77734 11.6663 3.88759 11.6663 3.99888L11.6702 4.08287C11.6789 4.16535 11.7008 4.24601 11.7346 4.32212C11.7799 4.42392 11.8463 4.51507 11.929 4.5897C12.2195 4.85186 12.4516 5.17257 12.6106 5.53013C12.7695 5.88764 12.8518 6.27464 12.8518 6.66587L12.8479 6.81236C12.83 7.15339 12.7496 7.48879 12.6106 7.80162C12.4516 8.15917 12.2195 8.47989 11.929 8.74205L11.259 7.99888L10.5881 7.25669C10.6708 7.18206 10.7372 7.09091 10.7825 6.98912C10.8164 6.91272 10.8382 6.8317 10.8469 6.74888L10.8518 6.66587Z" fill="currentColor" style="fill:currentColor;fill:currentColor;fill-opacity:1;"/>
</svg>
