<svg width="32" height="32" viewBox="0 0 32 32" fill="none" xmlns="http://www.w3.org/2000/svg">
<path d="M26.0008 25C27.1995 25.0011 28.3588 25.4317 29.2318 26.2344C29.4694 26.4521 29.7371 26.6089 30.0228 26.7158C30.546 26.9115 31 27.3568 31 27.9316C30.9999 28.5216 30.532 29.011 29.9728 28.8926C29.1526 28.7185 28.3877 28.3355 27.767 27.7656C27.2979 27.3346 26.6637 27.0987 26.0008 27.0986C25.3366 27.0986 24.7019 27.3345 24.2326 27.7656C23.3585 28.5683 22.1994 28.9999 21.0006 29C19.8875 29 18.807 28.6283 17.9595 27.9326L17.7677 27.7656C17.2975 27.3346 16.6644 27.0987 16.0005 27.0986C15.3363 27.0986 14.7025 27.3345 14.2333 27.7656C13.359 28.5684 12.1983 29 10.9994 29C9.80064 28.9999 8.64151 28.5683 7.76736 27.7656C7.29821 27.3346 6.66512 27.0987 6.0011 27.0986C5.33694 27.0986 4.70327 27.3345 4.23295 27.7656C3.59643 28.3496 2.83322 28.7114 2.02063 28.8828C1.46861 28.9992 1.00015 28.5206 1 27.9385C1 27.3659 1.4642 26.9213 1.98283 26.7197C2.20651 26.6328 2.4165 26.5151 2.60561 26.3701L2.76815 26.2344C3.64243 25.4316 4.80221 25.001 6.0011 25C7.19985 25.0011 8.35895 25.4317 9.23311 26.2344C9.70225 26.6654 10.3354 26.9013 10.9994 26.9014C11.6635 26.9014 12.2972 26.6666 12.7675 26.2344C13.6418 25.4327 14.8016 25.001 16.0005 25C17.1992 25.0012 18.3583 25.4317 19.2325 26.2344C19.7028 26.6655 20.3365 26.9014 21.0006 26.9014C21.6646 26.9013 22.2977 26.6654 22.7669 26.2344C23.6411 25.4316 24.8008 25.001 26.0008 25Z" fill="currentColor" style="fill:currentColor;fill:currentColor;fill-opacity:1;"/>
<path d="M26.0008 21C27.1995 21.0011 28.3588 21.4317 29.2318 22.2344C29.4694 22.4521 29.7371 22.6089 30.0228 22.7158C30.546 22.9114 31 23.3568 31 23.9316C30.9999 24.5216 30.532 25.011 29.9728 24.8926C29.1526 24.7185 28.3877 24.3355 27.767 23.7656C27.2979 23.3346 26.6637 23.0987 26.0008 23.0986C25.3366 23.0986 24.7019 23.3345 24.2326 23.7656C23.3585 24.5683 22.1994 24.9999 21.0006 25C19.8875 25 18.807 24.6283 17.9595 23.9326L17.7677 23.7656C17.2975 23.3346 16.6644 23.0987 16.0005 23.0986C15.3363 23.0986 14.7025 23.3345 14.2333 23.7656C13.359 24.5684 12.1983 25 10.9994 25C9.80064 24.9999 8.64151 24.5683 7.76736 23.7656C7.29821 23.3346 6.66512 23.0987 6.0011 23.0986C5.33694 23.0986 4.70327 23.3345 4.23295 23.7656C3.59643 24.3496 2.83322 24.7114 2.02063 24.8828C1.46861 24.9992 1.00015 24.5206 1 23.9385C1 23.3659 1.4642 22.9213 1.98283 22.7197C2.20651 22.6328 2.4165 22.5151 2.60561 22.3701L2.76815 22.2344C3.64243 21.4316 4.80221 21.001 6.0011 21C7.19985 21.0011 8.35895 21.4317 9.23311 22.2344C9.70225 22.6654 10.3354 22.9013 10.9994 22.9014C11.6635 22.9014 12.2972 22.6666 12.7675 22.2344C13.6418 21.4327 14.8016 21.001 16.0005 21C17.1992 21.0012 18.3583 21.4317 19.2325 22.2344C19.7028 22.6655 20.3365 22.9014 21.0006 22.9014C21.6646 22.9013 22.2977 22.6654 22.7669 22.2344C23.6411 21.4316 24.8008 21.001 26.0008 21Z" fill="currentColor" style="fill:currentColor;fill:currentColor;fill-opacity:1;"/>
<path d="M25.8912 4C27.6596 4 29.1564 5.22216 29.2507 6.83691C29.2535 6.926 29.1839 7 29.0977 7H28.4012C27.9441 7 27.5641 6.57489 27.2416 6.24023C26.9402 5.92758 26.4567 5.71387 25.8912 5.71387C25.3278 5.71398 24.8479 5.92836 24.5464 6.23926C24.6761 6.30443 24.7993 6.38219 24.9074 6.46777C25.2438 6.61496 25.5438 6.77982 25.7513 6.92676C26.6553 7.56713 27.2623 8.62146 27.3163 9.82422C27.3185 9.92046 27.2431 10 27.1499 10H26.5083C26.0706 9.99988 25.7304 9.6193 25.5613 9.20215C25.4227 8.85997 25.1967 8.56545 24.9131 8.3457C25.2354 9.5756 25.3846 10.9337 25.3846 12.5723C25.3846 13.0838 25.3523 13.5951 25.2882 14.1055H27.4958C27.9331 14.1055 28.2878 14.5295 28.2878 15.0527C28.2877 15.5759 27.9331 16 27.4958 16H24.9017C24.6657 16.8386 24.3442 17.6756 23.9359 18.5098C23.7867 18.8145 23.4801 19.0001 23.1496 19C22.4386 18.9994 21.9995 18.1834 22.3104 17.5225C22.5497 17.014 22.7516 16.5064 22.9172 16H16.3435C15.976 16 15.6217 15.8467 15.3399 15.5703L15.2237 15.4453L9.51756 8.61719L9.4637 8.54492C9.21005 8.17281 9.22768 7.6242 9.51756 7.27734C9.80744 6.93057 10.266 6.90942 10.5769 7.21289L10.6374 7.27734L16.3435 14.1055H23.366C23.4411 13.5937 23.4794 13.0825 23.4794 12.5723C23.4794 11.2047 23.3704 10.0772 23.1373 9.07227C23.1068 8.9407 23.0854 8.80581 23.074 8.6709C22.7049 8.85007 22.4024 9.07112 22.3 9.41602C22.2575 9.5595 22.2309 9.70965 22.2207 9.86426C22.2183 9.93992 22.1578 10 22.0846 10H21.3947C20.9262 10 20.536 9.60162 20.6491 9.13184C20.8758 8.19044 21.4626 7.38778 22.2575 6.875C22.3762 6.79849 22.5022 6.70461 22.6327 6.6084C22.5721 6.53315 22.5324 6.45665 22.5316 6.38477C22.3392 6.23469 22.1437 6.07924 21.9381 5.96191C21.668 5.80788 21.3337 5.71387 20.9638 5.71387C20.064 5.71388 19.3755 6.26782 19.3081 6.89941C19.3053 6.95561 19.2605 7 19.206 7H18.4944C18.0242 6.99998 17.6298 6.59578 17.7809 6.13574C18.1934 4.88149 19.4815 4.00002 20.9638 4C21.3451 4 21.714 4.05799 22.0581 4.16602C22.4543 4.2904 22.9449 4.49006 23.3755 4.75684C23.7119 4.57364 24.0995 4.43971 24.4179 4.30176C24.865 4.10797 25.3662 4.00006 25.8912 4Z" fill="currentColor" style="fill:currentColor;fill:currentColor;fill-opacity:1;"/>
<path d="M2.39109 7.27734C2.68095 6.9305 3.13948 6.90942 3.45046 7.21289L3.51095 7.27734L8.09813 12.7656C9.09528 13.9593 8.38878 15.9998 6.97826 16H2.95149C2.51424 16 2.15961 15.5759 2.15955 15.0527C2.15955 14.5295 2.51421 14.1055 2.95149 14.1055H6.97826L2.39109 8.61719L2.33722 8.54492C2.08365 8.17289 2.1014 7.6242 2.39109 7.27734Z" fill="currentColor" style="fill:currentColor;fill:currentColor;fill-opacity:1;"/>
</svg>
