<svg width="32" height="32" viewBox="0 0 32 32" fill="none" xmlns="http://www.w3.org/2000/svg">
<path d="M25.9746 25.2742C27.2134 25.2754 28.4113 25.706 29.3135 26.5086C29.559 26.7264 29.8355 26.8831 30.1309 26.9901C30.6714 27.1857 31.1405 27.6311 31.1406 28.2059C31.1406 28.796 30.6571 29.2853 30.0791 29.1668C29.2316 28.9928 28.4412 28.6107 27.7998 28.0408C27.315 27.6097 26.6598 27.373 25.9746 27.3729C25.2882 27.3729 24.6324 27.6096 24.1475 28.0408C23.2441 28.8434 22.0463 29.2741 20.8076 29.2742C19.6574 29.2742 18.5408 28.9035 17.665 28.2078L17.4668 28.0408C16.9809 27.6097 16.3269 27.373 15.6406 27.3729C14.9542 27.3729 14.2994 27.6096 13.8145 28.0408C12.911 28.8435 11.7115 29.2742 10.4727 29.2742C9.23396 29.2741 8.03612 28.8434 7.13281 28.0408C6.64799 27.6097 5.99388 27.373 5.30762 27.3729C4.62119 27.3729 3.9665 27.6096 3.48047 28.0408C2.8227 28.6248 2.03405 28.9867 1.19434 29.158C0.623806 29.2744 0.139648 28.795 0.139648 28.2127C0.139719 27.6401 0.619337 27.1955 1.15527 26.994C1.38639 26.907 1.60342 26.7903 1.79883 26.6453L1.9668 26.5086C2.87023 25.7059 4.06872 25.2753 5.30762 25.2742C6.54635 25.2754 7.74414 25.706 8.64746 26.5086C9.13228 26.9398 9.78639 27.1755 10.4727 27.1756C11.1591 27.1756 11.8138 26.9409 12.2998 26.5086C13.2032 25.7069 14.4017 25.2753 15.6406 25.2742C16.8793 25.2754 18.0772 25.706 18.9805 26.5086C19.4665 26.9399 20.1212 27.1756 20.8076 27.1756C21.4939 27.1755 22.148 26.9398 22.6328 26.5086C23.5362 25.7059 24.7346 25.2753 25.9746 25.2742Z" fill="currentColor" style="fill:currentColor;fill:currentColor;fill-opacity:1;"/>
<path fill-rule="evenodd" clip-rule="evenodd" d="M19.5898 1.81623C20.2794 1.38999 21.1658 1.41977 21.8271 1.90705L28.2842 6.66486L28.4229 6.77619C29.7857 7.96201 28.9674 10.2748 27.0977 10.2752H22.1406V14.2703C22.5323 14.2694 22.9208 14.3462 23.2832 14.4949C23.648 14.6448 23.9805 14.8649 24.2598 15.1434C24.539 15.4219 24.761 15.7537 24.9121 16.118C25.0624 16.4806 25.1399 16.87 25.1406 17.2625L25.1279 17.5584C25.1003 17.8528 25.0286 18.1423 24.916 18.4168C24.7658 18.7829 24.5441 19.1161 24.2646 19.3963C23.9852 19.6764 23.6529 19.8988 23.2871 20.0496C22.9237 20.1994 22.5336 20.2742 22.1406 20.2733V22.2752C22.1403 22.8271 21.6925 23.275 21.1406 23.2752C20.5885 23.2752 20.1409 22.8272 20.1406 22.2752V20.2742H14.1406V22.2752C14.1403 22.8271 13.6925 23.275 13.1406 23.2752C12.5885 23.2752 12.1409 22.8272 12.1406 22.2752V20.2742H8.14062V22.2752C8.14032 22.8271 7.69249 23.275 7.14062 23.2752C6.58853 23.2752 6.14093 22.8272 6.14062 22.2752V19.6863L2.05176 15.5887L2.05273 15.5877C1.76207 15.2977 1.5304 14.9528 1.37402 14.5731C1.21752 14.1927 1.13831 13.7842 1.14062 13.3729C1.14223 12.5532 1.46787 11.7668 2.04688 11.1863C2.61795 10.6141 3.38988 10.2897 4.19727 10.2791C4.19994 10.279 4.20343 10.2782 4.20605 10.2781C4.21653 10.278 4.2278 10.2781 4.23828 10.2781C4.6469 10.2671 5.05395 10.3359 5.43555 10.4832C5.78041 10.6164 6.09901 10.8098 6.375 11.0545L6.49023 11.1629L6.49707 11.1688L6.50293 11.1756L9.54297 14.2703H20.1406V10.2752H14.1836C12.253 10.2752 11.443 7.81015 12.9971 6.66486L19.4541 1.90705L19.5898 1.81623ZM4.25781 12.2772H4.23828C3.94821 12.2772 3.6688 12.3923 3.46289 12.5985C3.25701 12.8049 3.14068 13.0859 3.14062 13.3787V13.3846C3.13983 13.5311 3.16792 13.677 3.22363 13.8123C3.26543 13.9137 3.3224 14.0084 3.3916 14.0926L3.46484 14.1737L3.4668 14.1756L7.55762 18.2752H22.1426L22.2412 18.2713C22.3382 18.2621 22.4339 18.2382 22.5244 18.201C22.6454 18.1511 22.7568 18.0771 22.8496 17.9842C22.9423 17.8913 23.0154 17.7798 23.0654 17.658C23.1154 17.5362 23.1412 17.4051 23.1406 17.2733V17.2674L23.1357 17.1697C23.1261 17.072 23.1021 16.9756 23.0645 16.8846C23.0142 16.7634 22.9401 16.6528 22.8477 16.5604C22.755 16.468 22.6441 16.3942 22.5234 16.3446C22.433 16.3074 22.3371 16.2843 22.2402 16.2752L22.1426 16.2703H22.1406V16.2752H20.1406V16.2703H8.70508L5.08887 12.5897L5.00488 12.5154C4.91766 12.4457 4.82014 12.3888 4.71582 12.3485C4.5766 12.2947 4.42727 12.2703 4.27832 12.2762L4.25781 12.2772ZM14.1836 8.27522H27.0977L20.6406 3.5174L14.1836 8.27522Z" fill="currentColor" style="fill:currentColor;fill:currentColor;fill-opacity:1;"/>
</svg>
