<svg width="32" height="32" viewBox="0 0 32 32" fill="none" xmlns="http://www.w3.org/2000/svg">
<path d="M31 25H1V23H31V25Z" fill="currentColor" style="fill:currentColor;fill:currentColor;fill-opacity:1;"/>
<path fill-rule="evenodd" clip-rule="evenodd" d="M27.1025 8.00488C27.6067 8.05621 28 8.48232 28 9V21L27.9951 21.1025C27.9472 21.573 27.573 21.9472 27.1025 21.9951L27 22H5L4.89746 21.9951C4.42703 21.9472 4.05278 21.573 4.00488 21.1025L4 21V9C4 8.48232 4.39333 8.05621 4.89746 8.00488L5 8H27L27.1025 8.00488ZM6 20H26V18H6V20ZM6 16H26V14H6V16ZM6 12H26V10H6V12Z" fill="currentColor" style="fill:currentColor;fill:currentColor;fill-opacity:1;"/>
</svg>
