<svg width="32" height="32" viewBox="0 0 32 32" fill="none" xmlns="http://www.w3.org/2000/svg">
<path fill-rule="evenodd" clip-rule="evenodd" d="M3.6665 3.33333C3.6665 2.04467 4.71117 1 5.99984 1H11.3332C12.6218 1 13.6665 2.04467 13.6665 3.33333V13.6667H25.3938C26.2808 13.6667 26.9998 14.3857 26.9998 15.2727C26.9998 19.1722 23.8387 24.3333 19.9392 24.3333H16.183L16.7891 25.7475C17.449 27.2872 16.3196 29 14.6445 29H5.99984C4.71117 29 3.6665 27.9553 3.6665 26.6667V14.6667V3.33333ZM11.6665 13.6667V3.33333C11.6665 3.14924 11.5173 3 11.3332 3H5.99984C5.81574 3 5.6665 3.14924 5.6665 3.33333V13.6667H11.6665ZM5.6665 15.6667V26.6667C5.6665 26.8508 5.81574 27 5.99984 27H14.6445C14.8838 27 15.0451 26.7553 14.9508 26.5354L14.3352 25.099C13.7741 23.7898 14.7345 22.3333 16.1589 22.3333H19.9392C22.6016 22.3333 24.7837 18.2775 24.9847 15.6667H5.6665ZM8.6665 4.33333C9.21879 4.33333 9.6665 4.78105 9.6665 5.33333V8C9.6665 8.55228 9.21879 9 8.6665 9C8.11422 9 7.6665 8.55228 7.6665 8V5.33333C7.6665 4.78105 8.11422 4.33333 8.6665 4.33333ZM20.6665 10.3333C21.2188 10.3333 21.6665 10.781 21.6665 11.3333V12C21.6665 12.5523 21.2188 13 20.6665 13C20.1142 13 19.6665 12.5523 19.6665 12V11.3333C19.6665 10.781 20.1142 10.3333 20.6665 10.3333ZM21.6665 8C21.6665 7.44772 21.2188 7 20.6665 7C20.1142 7 19.6665 7.44772 19.6665 8V8.66667C19.6665 9.21895 20.1142 9.66667 20.6665 9.66667C21.2188 9.66667 21.6665 9.21895 21.6665 8.66667V8ZM23.2927 7.29289C23.6833 6.90237 24.3164 6.90237 24.7069 7.29289L25.3736 7.95956C25.7641 8.35008 25.7641 8.98325 25.3736 9.37377C24.9831 9.7643 24.3499 9.7643 23.9594 9.37377L23.2927 8.70711C22.9022 8.31658 22.9022 7.68342 23.2927 7.29289ZM16.6261 7.29289C17.0166 6.90237 17.6498 6.90237 18.0403 7.29289C18.4308 7.68342 18.4308 8.31658 18.0403 8.70711L17.3736 9.37377C16.9831 9.7643 16.3499 9.7643 15.9594 9.37377C15.5689 8.98325 15.5689 8.35008 15.9594 7.95956L16.6261 7.29289Z" fill="currentColor" style="fill:currentColor;fill:currentColor;fill-opacity:1;"/>
</svg>
