<svg width="32" height="32" viewBox="0 0 32 32" fill="none" xmlns="http://www.w3.org/2000/svg">
<path fill-rule="evenodd" clip-rule="evenodd" d="M21.7793 7.0127C22.1388 7.06981 22.444 7.32021 22.5664 7.67188L24.6523 13.667C24.6572 13.667 24.6621 13.667 24.667 13.667C27.7965 13.6672 30.333 16.2045 30.333 19.334C30.3327 22.4632 27.7962 24.9998 24.667 25C21.5376 25 19.0004 22.4633 19 19.334C19 16.9103 20.522 14.8421 22.6621 14.0322L22.3545 13.1494L16.2861 20.6299C16.0963 20.8639 15.8111 21 15.5098 21H12.75C12.0383 23.3159 9.88323 24.9997 7.33398 25C4.20459 25 1.66734 22.4633 1.66699 19.334C1.66699 16.2044 4.20437 13.667 7.33398 13.667C8.38888 13.6671 9.37599 13.9558 10.2217 14.458L12.7383 11.3682L12.8145 11.2861C12.9551 11.1483 13.133 11.0557 13.3252 11.0186L12.8984 9.42578H12C11.4478 9.42574 11 8.97803 11 8.42578C11 7.87352 11.4478 7.42583 12 7.42578H15.4746L15.5771 7.43066C16.0814 7.48186 16.4746 7.90801 16.4746 8.42578C16.4746 8.94355 16.0814 9.3697 15.5771 9.4209L15.4746 9.42578H14.9697L15.3916 11H21.6074L20.9111 9H18.8916C18.3394 8.99996 17.8916 8.55226 17.8916 8C17.8916 7.44774 18.3394 7.00004 18.8916 7H21.6221L21.7793 7.0127ZM7.33398 15.667C5.30894 15.667 3.66699 17.3089 3.66699 19.334C3.66734 21.3587 5.30916 23 7.33398 23C8.75855 22.9998 9.99284 22.1869 10.5996 21H7C6.61416 21 6.26241 20.7781 6.09668 20.4297C5.93101 20.0811 5.98094 19.6674 6.22461 19.3682L8.9375 16.0352C8.45317 15.7991 7.90902 15.6671 7.33398 15.667ZM26.2773 18.3379L26.3066 18.4365C26.4238 18.9295 26.151 19.4412 25.6621 19.6113C25.1731 19.7814 24.6418 19.5493 24.4277 19.0898L24.3887 18.9951L23.3193 15.9229C21.9611 16.46 21 17.7849 21 19.334C21.0004 21.3587 22.6422 23 24.667 23C26.6917 22.9998 28.3327 21.3586 28.333 19.334C28.333 17.5499 27.0591 16.0629 25.3711 15.7344L26.2773 18.3379ZM9.10449 19H10.9834C10.9297 18.4044 10.7339 17.8503 10.4297 17.3711L9.10449 19ZM11.7354 15.7676C12.4598 16.6609 12.9183 17.778 12.9893 19H15.0332L19.9014 13H13.9893L11.7354 15.7676Z" fill="currentColor" style="fill:currentColor;fill:currentColor;fill-opacity:1;"/>
</svg>
