<svg width="32" height="32" viewBox="0 0 32 32" fill="none" xmlns="http://www.w3.org/2000/svg">
<path d="M17.333 23C17.8853 23 18.333 23.4477 18.333 24V24.0137C18.3328 24.5658 17.8852 25.0137 17.333 25.0137C16.8153 25.0135 16.3899 24.6195 16.3389 24.1152L16.333 24.0137V24C16.333 23.4479 16.7809 23.0002 17.333 23Z" fill="currentColor" style="fill:currentColor;fill:currentColor;fill-opacity:1;"/>
<path fill-rule="evenodd" clip-rule="evenodd" d="M18.7686 3.00488C19.273 3.05592 19.667 3.4821 19.667 4V4.33301H22.4033L22.6582 4.34668C22.9117 4.37457 23.1596 4.44423 23.3916 4.55273C23.701 4.69751 23.9754 4.90867 24.1943 5.1709C24.4132 5.43318 24.572 5.74096 24.6592 6.07129C24.7245 6.31898 24.7483 6.57572 24.7305 6.83008L24.6992 7.08398L22.418 19.624C22.8244 19.8486 23.2019 20.1296 23.5361 20.4639C24.4737 21.4015 24.9999 22.674 25 24V26.666C25 27.2846 24.7547 27.8789 24.3174 28.3164C23.8799 28.7539 23.2857 28.9999 22.667 29H12C11.3814 28.9999 10.7881 28.7538 10.3506 28.3164C9.96762 27.9334 9.73166 27.4308 9.67871 26.8965L9.66699 26.666V24C9.66708 22.674 10.1942 21.4015 11.1318 20.4639C11.4657 20.1301 11.8422 19.8484 12.248 19.624L11.2871 14.333H8C7.38128 14.3329 6.78809 14.0869 6.35059 13.6494C5.9131 13.2119 5.66708 12.6187 5.66699 12V6.66602C5.66716 6.04741 5.91316 5.45403 6.35059 5.0166C6.78807 4.57927 7.38141 4.33309 8 4.33301H15V4L15.0049 3.89746C15.0562 3.39336 15.4824 3.00004 16 3H18.667L18.7686 3.00488ZM14.667 21C13.8716 21 13.1084 21.3157 12.5459 21.8779C11.9834 22.4405 11.6671 23.2045 11.667 24V26.666L11.6738 26.7314C11.6866 26.7956 11.7178 26.8554 11.7646 26.9023C11.8271 26.9647 11.9118 26.9999 12 27H22.667C22.7552 26.9999 22.8399 26.9646 22.9023 26.9023C22.9647 26.8399 23 26.7543 23 26.666V24L22.9854 23.7031C22.9171 23.0165 22.6143 22.3701 22.1221 21.8779C21.5595 21.3154 20.7955 21.0001 20 21H14.667ZM14.1719 19.0244C14.3356 19.0081 14.501 19 14.667 19H20C20.1656 19 20.3308 19.0082 20.4941 19.0244L22.7314 6.72656L22.7363 6.65332C22.7354 6.62919 22.7318 6.60454 22.7256 6.58105C22.7131 6.53415 22.6902 6.49043 22.6592 6.45312C22.628 6.41578 22.589 6.38493 22.5449 6.36426C22.5229 6.35394 22.4992 6.34609 22.4756 6.34082L22.4033 6.33301H11.8643L14.1719 19.0244ZM8 6.33301C7.91185 6.33309 7.82706 6.36841 7.76465 6.43066C7.70229 6.49302 7.66716 6.57785 7.66699 6.66602V12C7.66708 12.0883 7.70224 12.1729 7.76465 12.2354C7.82708 12.2978 7.91171 12.3329 8 12.333H10.9238L9.83301 6.33301H8Z" fill="currentColor" style="fill:currentColor;fill:currentColor;fill-opacity:1;"/>
</svg>
