<svg width="32" height="32" viewBox="0 0 32 32" fill="none" xmlns="http://www.w3.org/2000/svg">
<path d="M21.5999 4.79922C21.1254 4.79912 20.6567 4.90458 20.2279 5.10796C19.7992 5.31134 19.421 5.60754 19.1208 5.97511C18.8206 6.34268 18.6059 6.77242 18.4923 7.23319C18.3787 7.69396 18.369 8.17424 18.464 8.63922C18.4898 8.76238 18.4862 8.88989 18.4534 9.01139C18.4207 9.1329 18.3598 9.24497 18.2756 9.3385C18.1914 9.43204 18.0864 9.50439 17.969 9.54969C17.8516 9.59499 17.7251 9.61196 17.6 9.59922C17.072 9.59922 16.5727 9.72722 16.1344 9.95442C15.8947 9.47287 15.5952 9.02346 15.2432 8.61682C15.7268 8.34407 16.2541 8.1573 16.8016 8.06482V7.99922C16.8016 7.36887 16.9257 6.7447 17.1669 6.16234C17.4082 5.57998 17.7617 5.05083 18.2074 4.60511C18.6532 4.15938 19.1823 3.80582 19.7647 3.5646C20.347 3.32337 20.9712 3.19922 21.6016 3.19922C22.2319 3.19922 22.8561 3.32337 23.4384 3.5646C24.0208 3.80582 24.5499 4.15938 24.9957 4.60511C25.4414 5.05083 25.7949 5.57998 26.0362 6.16234C26.2774 6.7447 26.4015 7.36887 26.4015 7.99922L26.4 8.06482C27.0285 8.17398 27.629 8.40736 28.1663 8.7513C28.7037 9.09524 29.167 9.54285 29.5294 10.068C29.8917 10.5931 30.1457 11.1851 30.2766 11.8095C30.4074 12.434 30.4125 13.0782 30.2915 13.7046C30.1704 14.331 29.9257 14.927 29.5717 15.4577C29.2177 15.9884 28.7614 16.4433 28.2295 16.7956C27.6977 17.1479 27.1009 17.3907 26.4741 17.5097C25.8474 17.6288 25.2031 17.6217 24.5792 17.4888L24.9311 18.94C25.031 19.352 25.0359 19.7814 24.9456 20.1956C24.8553 20.6098 24.6722 20.9981 24.4099 21.3312C24.1477 21.6643 23.8132 21.9335 23.4318 22.1185C23.0504 22.3035 22.6319 22.3995 22.208 22.3992H20.9888C20.5647 22.3991 20.1463 22.3028 19.7649 22.1174C19.3836 21.932 19.0494 21.6624 18.7874 21.3289C18.5255 20.9955 18.3427 20.6069 18.2529 20.1926C18.163 19.7782 18.1684 19.3488 18.2688 18.9368L18.9888 15.9736C19.0135 15.8715 19.0582 15.7753 19.1202 15.6904C19.1822 15.6056 19.2603 15.5337 19.35 15.4791C19.4397 15.4244 19.5394 15.3879 19.6432 15.3718C19.747 15.3556 19.853 15.36 19.9552 15.3848C20.0573 15.4096 20.1535 15.4543 20.2384 15.5163C20.3232 15.5782 20.395 15.6563 20.4497 15.7461C20.5044 15.8358 20.5408 15.9354 20.557 16.0393C20.5732 16.1431 20.5687 16.2491 20.544 16.3512L19.824 19.316C19.7811 19.4925 19.7788 19.6763 19.8174 19.8538C19.8559 20.0312 19.9342 20.1976 20.0463 20.3404C20.1584 20.4832 20.3015 20.5987 20.4648 20.6781C20.628 20.7576 20.8072 20.799 20.9888 20.7992H22.208C22.3898 20.7995 22.5693 20.7585 22.733 20.6792C22.8966 20.5999 23.0401 20.4845 23.1526 20.3416C23.2651 20.1988 23.3437 20.0322 23.3824 19.8545C23.4211 19.6769 23.4189 19.4927 23.376 19.316L22.6559 16.3496C22.6187 16.1943 22.6287 16.0313 22.6849 15.8818C22.741 15.7322 22.8407 15.6029 22.971 15.5104C23.1013 15.418 23.2563 15.3667 23.416 15.3631C23.5757 15.3596 23.7329 15.4039 23.8672 15.4904C24.2877 15.7607 24.7656 15.9288 25.2628 15.9811C25.7599 16.0334 26.2624 15.9685 26.73 15.7916C27.1975 15.6147 27.6171 15.3307 27.9551 14.9624C28.2931 14.5941 28.5402 14.1517 28.6764 13.6708C28.8126 13.1898 28.8343 12.6836 28.7397 12.1928C28.645 11.7019 28.4367 11.2401 28.1314 10.8442C27.8261 10.4484 27.4323 10.1296 26.9816 9.91341C26.5308 9.6972 26.0357 9.5896 25.536 9.59922C25.416 9.60165 25.297 9.57705 25.1878 9.52725C25.0786 9.47745 24.982 9.40372 24.9052 9.31153C24.8283 9.21934 24.7732 9.11104 24.744 8.99466C24.7147 8.87828 24.7119 8.7568 24.736 8.63922C24.7786 8.43229 24.8 8.21842 24.8 7.99762C24.8 7.14893 24.4628 6.33499 23.8627 5.73488C23.2626 5.13476 22.4486 4.79922 21.5999 4.79922ZM7.19995 12.7976C7.19995 12.2906 7.32044 11.7908 7.55149 11.3394C7.78254 10.8881 8.11754 10.4981 8.52888 10.2016C8.94022 9.90517 9.41612 9.71068 9.91736 9.63422C10.4186 9.55775 10.9309 9.60149 11.4119 9.76183C11.8929 9.92217 12.3289 10.1945 12.6841 10.5564C13.0392 10.9184 13.3032 11.3595 13.4544 11.8435C13.6056 12.3275 13.6396 12.8404 13.5536 13.3402C13.4677 13.8399 13.2642 14.312 12.96 14.7176C12.8708 14.8365 12.8165 14.9778 12.8032 15.1258C12.7898 15.2737 12.818 15.4225 12.8844 15.5554C12.9509 15.6883 13.053 15.8 13.1794 15.8781C13.3057 15.9562 13.4514 15.9976 13.6 15.9976H14.4C14.6121 15.9976 14.8156 16.0819 14.9656 16.2319C15.1157 16.382 15.2 16.5854 15.2 16.7976C15.2 17.0098 15.1157 17.2133 14.9656 17.3633C14.8156 17.5133 14.6121 17.5976 14.4 17.5976H12.6288C12.5156 17.5977 12.4038 17.6218 12.3007 17.6682C12.1976 17.7147 12.1055 17.7825 12.0305 17.8672C11.9555 17.9519 11.8993 18.0515 11.8656 18.1595C11.832 18.2674 11.8216 18.3813 11.8352 18.4936C12.3184 22.4456 14.4096 24.7144 15.5792 25.6936C15.8592 25.9272 16 26.2216 16 26.476C16.0002 26.5708 15.9816 26.6648 15.9455 26.7524C15.9093 26.8401 15.8561 26.9197 15.7891 26.9867C15.722 27.0538 15.6424 27.1069 15.5547 27.1431C15.4671 27.1793 15.3732 27.1978 15.2784 27.1976H5.51995C5.329 27.1976 5.14586 27.1218 5.01083 26.9867C4.87581 26.8517 4.79995 26.6686 4.79995 26.4776C4.79995 26.2216 4.94075 25.9288 5.21915 25.6952C6.39035 24.716 8.48315 22.4472 8.96475 18.4952C8.97832 18.3829 8.96793 18.269 8.93426 18.1611C8.90059 18.0531 8.8444 17.9535 8.7694 17.8688C8.69441 17.7841 8.60231 17.7163 8.49919 17.6698C8.39606 17.6234 8.28426 17.5993 8.17115 17.5992H6.39995C6.18778 17.5992 5.98429 17.5149 5.83427 17.3649C5.68424 17.2149 5.59995 17.0114 5.59995 16.7992C5.59995 16.587 5.68424 16.3836 5.83427 16.2335C5.98429 16.0835 6.18778 15.9992 6.39995 15.9992H7.19995C7.34852 15.9992 7.49416 15.9578 7.62054 15.8797C7.74692 15.8016 7.84905 15.6899 7.91549 15.557C7.98194 15.4241 8.01006 15.2753 7.99672 15.1274C7.98338 14.9794 7.92909 14.8381 7.83995 14.7192C7.42452 14.1653 7.19995 13.49 7.19995 12.7976ZM10.4 7.99922C9.62704 7.99901 8.86552 8.18544 8.18012 8.54267C7.49472 8.8999 6.90572 9.41736 6.4632 10.0511C6.02069 10.6847 5.73774 11.4159 5.63843 12.1824C5.53911 12.9489 5.62636 13.7281 5.89275 14.4536C5.31397 14.579 4.80198 14.9139 4.45524 15.394C4.1085 15.8741 3.9515 16.4654 4.01444 17.0543C4.07737 17.6431 4.3558 18.1879 4.79616 18.5839C5.23653 18.9798 5.80775 19.199 6.39995 19.1992H7.23195C6.63675 22.076 5.06715 23.7368 4.19195 24.468C3.63835 24.932 3.19995 25.6456 3.19995 26.4776C3.19995 27.7592 4.23995 28.7992 5.52155 28.7992H15.28C16.56 28.7992 17.6 27.7592 17.6 26.4776C17.6 25.6456 17.1616 24.932 16.608 24.468C15.7328 23.7368 14.1631 22.076 13.5679 19.1992H14.4C14.9922 19.199 15.5634 18.9798 16.0037 18.5839C16.4441 18.1879 16.7225 17.6431 16.7855 17.0543C16.8484 16.4654 16.6914 15.8741 16.3447 15.394C15.9979 14.9139 15.4859 14.579 14.9072 14.4536C15.1735 13.7281 15.2608 12.9489 15.1615 12.1824C15.0622 11.4159 14.7792 10.6847 14.3367 10.0511C13.8942 9.41736 13.3052 8.8999 12.6198 8.54267C11.9344 8.18544 11.1729 7.99901 10.4 7.99922Z" fill="currentColor" style="fill:currentColor;fill:currentColor;fill-opacity:1;"/>
</svg>
