<svg width="32" height="32" viewBox="0 0 32 32" fill="none" xmlns="http://www.w3.org/2000/svg">
<path d="M12.6667 13.3333H20.6667M11.3333 16H22M20.6667 18.6667H12.44C10.0249 18.6678 7.70891 19.6268 6 21.3333M12.6667 8C12.6667 6.93913 13.0881 5.92172 13.8382 5.17157C14.5884 4.42143 15.6058 4 16.6667 4C17.7275 4 18.7449 4.42143 19.4951 5.17157C20.2452 5.92172 20.6667 6.93913 20.6667 8C20.6667 10.2133 18.88 14.6667 16.6667 14.6667C14.4533 14.6667 12.6667 10.2133 12.6667 8ZM12.6667 24C12.6667 25.0609 13.0881 26.0783 13.8382 26.8284C14.5884 27.5786 15.6058 28 16.6667 28C17.7275 28 18.7449 27.5786 19.4951 26.8284C20.2452 26.0783 20.6667 25.0609 20.6667 24C20.6667 21.7867 18.88 17.3333 16.6667 17.3333C14.4533 17.3333 12.6667 21.7867 12.6667 24Z" stroke="currentColor" style="stroke:currentColor;stroke:currentColor;stroke-opacity:1;" stroke-width="2" stroke-linecap="round" stroke-linejoin="round"/>
</svg>
