<svg width="32" height="32" viewBox="0 0 32 32" fill="none" xmlns="http://www.w3.org/2000/svg">
<path d="M27.1826 20.985C27.1826 18.5212 24.9993 16.6538 22.5957 16.9928L22.3623 17.0328C18.425 17.8204 14.3778 17.8694 10.4268 17.1803L9.6377 17.0328C7.14389 16.5344 4.81738 18.4418 4.81738 20.985V21.6168C4.81738 24.0548 6.79357 26.0316 9.23145 26.0319H22.7686C25.2065 26.0317 27.1826 24.0548 27.1826 21.6168V20.985ZM29.1826 21.6168C29.1826 25.1594 26.3111 28.0317 22.7686 28.0319H9.23145C5.68902 28.0316 2.81738 25.1594 2.81738 21.6168V20.985C2.81738 17.1795 6.29876 14.3256 10.0303 15.0719L10.7705 15.2106C14.4778 15.8572 18.2753 15.8108 21.9697 15.0719L22.3193 15.0123C25.9158 14.5051 29.1826 17.2986 29.1826 20.985V21.6168Z" fill="currentColor" style="fill:currentColor;fill:currentColor;fill-opacity:1;"/>
<path d="M17.0154 7.40375C18.3236 7.40375 19.3842 6.34317 19.3842 5.03488C19.3842 3.72659 18.3236 2.66602 17.0154 2.66602C15.7071 2.66602 14.6465 3.72659 14.6465 5.03488C14.6465 6.34317 15.7071 7.40375 17.0154 7.40375Z" fill="currentColor" style="fill:currentColor;fill:currentColor;fill-opacity:1;"/>
<path d="M18.9331 12.5927C19.8053 12.5927 20.5123 11.8857 20.5123 11.0135C20.5123 10.1413 19.8053 9.43424 18.9331 9.43424C18.0609 9.43424 17.3539 10.1413 17.3539 11.0135C17.3539 11.8857 18.0609 12.5927 18.9331 12.5927Z" fill="currentColor" style="fill:currentColor;fill:currentColor;fill-opacity:1;"/>
<path d="M12.9545 12.8183C14.2628 12.8183 15.3233 11.7577 15.3233 10.4494C15.3233 9.14114 14.2628 8.08056 12.9545 8.08056C11.6462 8.08056 10.5856 9.14114 10.5856 10.4494C10.5856 11.7577 11.6462 12.8183 12.9545 12.8183Z" fill="currentColor" style="fill:currentColor;fill:currentColor;fill-opacity:1;"/>
</svg>
