<svg width="32" height="32" viewBox="0 0 32 32" fill="none" xmlns="http://www.w3.org/2000/svg">
<path d="M13 4.24978H7C6.53587 4.24978 6.09075 4.43415 5.76256 4.76234C5.43437 5.09053 5.25 5.53565 5.25 5.99978V25.9998C5.25 26.4639 5.43437 26.909 5.76256 27.2372C6.09075 27.5654 6.53587 27.7498 7 27.7498H13C13.2298 27.7498 13.4574 27.7045 13.6697 27.6166C13.882 27.5286 14.0749 27.3997 14.2374 27.2372C14.3999 27.0747 14.5288 26.8818 14.6168 26.6695C14.7047 26.4572 14.75 26.2296 14.75 25.9998V5.99978C14.75 5.76996 14.7047 5.5424 14.6168 5.33008C14.5288 5.11776 14.3999 4.92484 14.2374 4.76234C14.0749 4.59984 13.882 4.47093 13.6697 4.38299C13.4574 4.29504 13.2298 4.24978 13 4.24978ZM6.75 9.74978H13.25V22.2498H6.75V9.74978ZM7 5.74978H13C13.0663 5.74978 13.1299 5.77612 13.1768 5.823C13.2237 5.86988 13.25 5.93347 13.25 5.99978V8.24978H6.75V5.99978C6.75 5.93347 6.77634 5.86988 6.82322 5.823C6.87011 5.77612 6.9337 5.74978 7 5.74978ZM13 26.2498H7C6.9337 26.2498 6.87011 26.2234 6.82322 26.1766C6.77634 26.1297 6.75 26.0661 6.75 25.9998V23.7498H13.25V25.9998C13.25 26.0661 13.2237 26.1297 13.1768 26.1766C13.1299 26.2234 13.0663 26.2498 13 26.2498ZM28.7125 24.3748L24.5637 4.64478C24.5169 4.41891 24.4259 4.20453 24.2959 4.01396C24.166 3.82339 23.9996 3.6604 23.8064 3.53436C23.6132 3.40831 23.397 3.32171 23.1703 3.27952C22.9435 3.23733 22.7106 3.24039 22.485 3.28853L16.6338 4.54603C16.1809 4.64556 15.7856 4.91965 15.5336 5.30882C15.2815 5.69799 15.1931 6.17084 15.2875 6.62478L19.4363 26.351C19.4834 26.5777 19.5751 26.7927 19.706 26.9837C19.8369 27.1746 20.0044 27.3377 20.1987 27.4635C20.4801 27.6476 20.8088 27.7457 21.145 27.746C21.2711 27.7466 21.3969 27.7332 21.52 27.706L27.3713 26.4498C27.8224 26.3491 28.2158 26.0751 28.4668 25.6869C28.7177 25.2987 28.8059 24.8275 28.7125 24.3748ZM18.3612 13.9598L24.7025 12.5973L26.4675 20.9923L20.125 22.351L18.3612 13.9598ZM17.5325 10.0148L23.875 8.64853L24.3937 11.1248L18.0525 12.4873L17.5325 10.0148ZM16.95 6.01478L22.8 4.75853C22.8175 4.75668 22.835 4.75668 22.8525 4.75853C22.8992 4.75866 22.9449 4.77257 22.9837 4.79853C23.0125 4.81681 23.0371 4.84076 23.0563 4.86892C23.0754 4.89708 23.0886 4.92885 23.095 4.96228L23.5637 7.18978L17.2237 8.54228L16.7563 6.31978C16.7416 6.25334 16.7538 6.18383 16.79 6.12628C16.8263 6.06873 16.8838 6.02778 16.95 6.01228V6.01478ZM27.0513 24.9898L21.2 26.2498C21.1687 26.2567 21.1363 26.2573 21.1047 26.2515C21.0731 26.2457 21.0431 26.2337 21.0163 26.216C20.9875 26.1977 20.9629 26.1738 20.9437 26.1456C20.9246 26.1175 20.9114 26.0857 20.905 26.0523L20.4363 23.8248L26.7763 22.4623L27.25 24.6785C27.2573 24.7119 27.258 24.7463 27.252 24.7799C27.246 24.8135 27.2334 24.8456 27.2149 24.8743C27.1964 24.903 27.1724 24.9277 27.1444 24.9471C27.1163 24.9665 27.0846 24.9802 27.0513 24.9873V24.9898Z" fill="currentColor" style="fill:currentColor;fill:currentColor;fill-opacity:1;"/>
</svg>
