<svg width="32" height="32" viewBox="0 0 32 32" fill="none" xmlns="http://www.w3.org/2000/svg">
<path d="M9.77417 5.37793C9.75587 5.19261 9.70995 5.01056 9.63843 4.83789C9.54302 4.6076 9.40355 4.39795 9.22729 4.22168C9.05104 4.04543 8.84136 3.90596 8.61108 3.81055C8.3808 3.71516 8.13378 3.66604 7.88452 3.66602C7.38106 3.66602 6.89778 3.86574 6.54175 4.22168C6.18572 4.5777 5.98611 5.06097 5.98608 5.56445C5.98608 6.21031 6.20806 6.87527 6.50952 7.7373C6.71658 8.32939 6.96693 9.03109 7.08178 9.78223H8.68628C8.80114 9.03113 9.05246 8.33025 9.25952 7.73828C9.56101 6.87633 9.78296 6.211 9.78296 5.56445L9.77417 5.37793ZM18.156 9.95898C20.094 9.59399 22.0964 9.79428 23.9236 10.5361C25.7507 11.2779 27.3257 12.5301 28.4607 14.1426C29.5957 15.7551 30.2432 17.6606 30.3249 19.6309C30.4067 21.6012 29.9192 23.5538 28.9216 25.2549C27.9241 26.9559 26.4583 28.334 24.699 29.2246C22.9395 30.1152 20.9603 30.4806 18.9988 30.2773C17.1598 30.0868 15.4087 29.4039 13.9285 28.3037L13.6365 28.0781L13.5593 28.0107C13.1978 27.6556 13.1567 27.077 13.4802 26.6729C13.8038 26.2686 14.3778 26.1818 14.8035 26.457L14.8865 26.5176L15.1218 26.6992C16.3138 27.585 17.724 28.1346 19.2048 28.2881C20.7846 28.4518 22.3786 28.1577 23.7957 27.4404C25.2125 26.7232 26.3927 25.613 27.196 24.2432C27.9995 22.8732 28.3917 21.3007 28.3259 19.7139C28.2601 18.1271 27.739 16.5927 26.8249 15.2939C25.9109 13.9953 24.6421 12.9871 23.1707 12.3896C21.6992 11.7923 20.0868 11.6309 18.5261 11.9248C16.9655 12.2188 15.5222 12.9552 14.3689 14.0469L14.2908 14.1143C13.8894 14.4234 13.3107 14.3847 12.9548 14.0088C12.5752 13.6077 12.5928 12.9744 12.9939 12.5947L13.2664 12.3457C14.6504 11.1267 16.3391 10.3012 18.156 9.95898ZM5.35132 15.2598C4.55073 16.4209 4.01619 17.7463 3.78979 19.1416C3.54313 20.662 3.66884 22.2195 4.156 23.6807L5.70678 28.333H10.0613L11.613 23.6807L11.6999 23.4062C12.1142 22.0255 12.2096 20.567 11.9783 19.1416C11.7518 17.7463 11.2175 16.4209 10.4167 15.2598H5.35132ZM20.2175 20.0576C20.2175 20.0153 20.2005 19.9742 20.1707 19.9443C20.1408 19.9147 20.1005 19.8975 20.0583 19.8975C20.0162 19.8975 19.9759 19.9147 19.946 19.9443C19.9161 19.9742 19.8992 20.0153 19.8992 20.0576C19.8992 20.0998 19.9162 20.1401 19.946 20.1699C19.9759 20.1997 20.0161 20.2168 20.0583 20.2168C20.1006 20.2168 20.1408 20.1997 20.1707 20.1699C20.2005 20.1401 20.2174 20.0998 20.2175 20.0576ZM24.8552 20.0576C24.8552 20.0153 24.8382 19.9742 24.8083 19.9443C24.7785 19.9147 24.7382 19.8975 24.696 19.8975C24.6539 19.8975 24.6136 19.9147 24.5837 19.9443C24.5538 19.9742 24.5369 20.0153 24.5369 20.0576C24.5369 20.0998 24.5539 20.1401 24.5837 20.1699C24.6136 20.1997 24.6538 20.2168 24.696 20.2168C24.7383 20.2168 24.7785 20.1997 24.8083 20.1699C24.8382 20.1401 24.8551 20.0998 24.8552 20.0576ZM22.5369 15.999C22.5368 15.9569 22.5198 15.9165 22.49 15.8867C22.4601 15.8568 22.419 15.8398 22.3767 15.8398C22.3346 15.84 22.2942 15.8569 22.2644 15.8867C22.2346 15.9165 22.2176 15.9569 22.2175 15.999C22.2175 16.0413 22.2345 16.0824 22.2644 16.1123C22.2942 16.142 22.3346 16.1591 22.3767 16.1592C22.419 16.1592 22.4601 16.1422 22.49 16.1123C22.5199 16.0824 22.5369 16.0413 22.5369 15.999ZM7.04858 11.7822C6.96078 12.2908 6.81352 12.7866 6.61011 13.2598H9.15796C8.9546 12.7867 8.80822 12.2908 8.72046 11.7822H7.04858ZM22.2175 20.0576C22.2174 20.6301 21.9904 21.1791 21.5857 21.584C21.1807 21.989 20.6311 22.2168 20.0583 22.2168C19.4856 22.2168 18.936 21.989 18.531 21.584C18.1263 21.1791 17.8992 20.6301 17.8992 20.0576C17.8992 19.485 18.1261 18.9352 18.531 18.5303C18.936 18.1253 19.4856 17.8975 20.0583 17.8975C20.6311 17.8975 21.1807 18.1253 21.5857 18.5303C21.9906 18.9352 22.2175 19.485 22.2175 20.0576ZM26.8552 20.0576C26.8551 20.6301 26.6281 21.1791 26.2234 21.584C25.8184 21.989 25.2688 22.2168 24.696 22.2168C24.1233 22.2168 23.5737 21.989 23.1687 21.584C22.764 21.1791 22.5369 20.6301 22.5369 20.0576C22.5369 19.485 22.7638 18.9352 23.1687 18.5303C23.5737 18.1253 24.1233 17.8975 24.696 17.8975C25.2688 17.8975 25.8184 18.1253 26.2234 18.5303C26.6283 18.9352 26.8552 19.485 26.8552 20.0576ZM24.5369 15.999C24.5369 16.5717 24.309 17.1214 23.9041 17.5264C23.4991 17.9313 22.9494 18.1592 22.3767 18.1592C21.8042 18.1591 21.2552 17.9312 20.8503 17.5264C20.4454 17.1214 20.2175 16.5717 20.2175 15.999C20.2176 15.4265 20.4455 14.8775 20.8503 14.4727C21.2552 14.0678 21.8042 13.84 22.3767 13.8398C22.9494 13.8398 23.4991 14.0677 23.9041 14.4727C24.3089 14.8775 24.5368 15.4265 24.5369 15.999ZM11.779 5.75977C11.7388 6.73382 11.4081 7.65265 11.1472 8.39844C10.8457 9.26039 10.6238 9.92572 10.6238 10.5723V10.665C10.6238 11.6536 10.9436 12.6136 11.5359 13.4053L11.7957 13.751L11.7966 13.752L12.0017 14.0342C13.0052 15.4603 13.673 17.097 13.9529 18.8213C14.2327 20.5457 14.1171 22.3101 13.616 23.9805L13.5105 24.3135L11.7312 29.6484C11.5951 30.0568 11.2134 30.333 10.783 30.333H4.98608C4.60958 30.333 4.26964 30.122 4.09936 29.7959L4.03686 29.6484L2.25854 24.3135C1.66911 22.5455 1.51674 20.6608 1.81518 18.8213C2.11367 16.9817 2.85424 15.2419 3.97241 13.751L3.97436 13.748L4.2312 13.4072L4.44116 13.1025C4.89981 12.3744 5.14523 11.5297 5.14526 10.665V10.5723C5.14526 9.92579 4.92322 9.26027 4.62182 8.39844C4.34364 7.60298 3.98608 6.61009 3.98608 5.56445C3.98611 4.53053 4.39658 3.53871 5.12768 2.80762C5.85879 2.0766 6.85063 1.66602 7.88452 1.66602C8.39642 1.66604 8.90377 1.767 9.37671 1.96289C9.84953 2.15881 10.2795 2.44572 10.6414 2.80762C11.0033 3.16953 11.2902 3.59942 11.4861 4.07227C11.682 4.54523 11.7829 5.05253 11.783 5.56445L11.779 5.75977Z" fill="currentColor" style="fill:currentColor;fill:currentColor;fill-opacity:1;"/>
</svg>
