<svg width="32" height="32" viewBox="0 0 32 32" fill="none" xmlns="http://www.w3.org/2000/svg">
<path fill-rule="evenodd" clip-rule="evenodd" d="M17.3828 5.42188C17.4218 5.4219 17.4612 5.42524 17.5 5.42676H20.8281C22.2111 5.42707 23.5252 6.38634 23.5254 7.77637V7.78516C23.5205 8.12227 23.4387 8.45423 23.2861 8.75488C23.1352 9.05209 22.9175 9.31081 22.6523 9.5127L22.6533 9.51367C22.6523 9.51451 22.6497 9.51491 22.6484 9.51562C22.6467 9.51695 22.6452 9.52001 22.6436 9.52148L22.6426 9.52051C22.3889 9.71742 22.1048 9.86919 21.8027 9.9707V12.5244H22.9355L23.2324 12.5322C24.7083 12.6069 26.1093 13.2255 27.1592 14.2754C28.2091 15.3254 28.8278 16.7262 28.9023 18.2021L28.9102 18.499V28.1494C28.9101 28.4078 28.8076 28.6561 28.625 28.8389C28.4423 29.0215 28.1939 29.1239 27.9355 29.124H3.81543C3.55702 29.124 3.30879 29.0215 3.12598 28.8389C2.96589 28.6788 2.86681 28.4685 2.84473 28.2451L2.83984 28.1494V18.499C2.84132 16.915 3.47169 15.3955 4.5918 14.2754C5.46794 13.3994 6.5886 12.8244 7.79297 12.6143V9.96973C7.49487 9.86903 7.21418 9.71955 6.96289 9.52637C6.68661 9.3257 6.46179 9.06297 6.30664 8.75879C6.15148 8.45433 6.07031 8.11711 6.07031 7.77539C6.07032 7.43368 6.15149 7.09644 6.30664 6.79199C6.44238 6.52588 6.63111 6.29051 6.86133 6.10156L6.96289 6.02344C7.48037 5.6274 8.11575 5.41654 8.76758 5.42285L17.3828 5.42188ZM28.2002 28.4141C28.1765 28.4378 28.1487 28.4563 28.1201 28.4727C28.1276 28.4684 28.1364 28.4657 28.1436 28.4609L28.2002 28.4141ZM3.46191 28.2754C3.46324 28.2791 3.46535 28.2825 3.4668 28.2861C3.45868 28.2655 3.45163 28.2445 3.44727 28.2227L3.46191 28.2754ZM28.3096 18.499V28.1494C28.3096 28.1742 28.3075 28.1987 28.3027 28.2227L28.3096 28.1494V18.499ZM8.61621 14.4795C7.62185 14.5299 6.67813 14.947 5.9707 15.6543C5.216 16.409 4.79119 17.4327 4.79004 18.5L4.78516 27.1738H26.9551V18.752C26.8877 19.3595 26.6171 19.9301 26.1807 20.3662C25.6748 20.8714 24.9883 21.1553 24.2734 21.1562C23.7402 21.1556 23.2175 20.9968 22.7744 20.7002C22.3314 20.4034 21.9859 19.9821 21.7822 19.4893C21.7463 19.4024 21.7169 19.3132 21.6904 19.2236C21.5637 19.651 21.3325 20.0453 21.0117 20.3662C20.5064 20.8713 19.821 21.1552 19.1064 21.1562C18.5731 21.1562 18.05 20.9984 17.6064 20.7021C17.163 20.4058 16.8174 19.984 16.6133 19.4912C16.4092 18.9984 16.3559 18.4558 16.46 17.9326C16.5641 17.4095 16.8211 16.9289 17.1982 16.5518C17.5754 16.1747 18.056 15.9175 18.5791 15.8135C19.1022 15.7095 19.645 15.7627 20.1377 15.9668C20.6304 16.171 21.0523 16.5175 21.3486 16.9609C21.4996 17.187 21.6139 17.4337 21.6904 17.6914C21.818 17.2619 22.0503 16.8693 22.3691 16.5508C22.7464 16.1741 23.2271 15.9173 23.75 15.8135C24.273 15.7098 24.816 15.7636 25.3086 15.9678C25.801 16.1721 26.2224 16.5176 26.5186 16.9609C26.6975 17.2289 26.8247 17.5257 26.8984 17.8359C26.7604 17.0152 26.3715 16.2506 25.7754 15.6543C25.0679 14.9468 24.1235 14.5299 23.1289 14.4795L22.9297 14.4746H8.81641L8.61621 14.4795ZM19.1045 20.5557L19.1055 20.5566C19.1726 20.5565 19.2394 20.5523 19.3057 20.5459C19.2392 20.5524 19.1718 20.5556 19.1045 20.5557ZM20.5869 19.9414C20.4894 20.0389 20.3825 20.1246 20.2695 20.2002C20.3255 20.1627 20.3812 20.124 20.4336 20.0811L20.5869 19.9414C20.6359 19.8924 20.683 19.8412 20.7266 19.7881L20.5869 19.9414ZM18.8418 19.7812C18.907 19.7942 18.9732 19.8005 19.0391 19.8037L18.8418 19.7812ZM24.0127 19.7812C24.0779 19.7942 24.1441 19.8005 24.21 19.8037L24.0127 19.7812ZM24.4072 19.7998C24.3745 19.803 24.3415 19.801 24.3086 19.8018C24.4076 19.7993 24.5063 19.7907 24.6025 19.7666L24.4072 19.7998ZM19.1045 17.7119C18.9571 17.7121 18.813 17.7561 18.6904 17.8379C18.5676 17.9199 18.4716 18.0365 18.415 18.1729C18.3585 18.3094 18.3432 18.4605 18.3721 18.6055C18.401 18.7502 18.4728 18.8829 18.5771 18.9873C18.6817 19.0917 18.8151 19.1636 18.96 19.1924C19.1047 19.221 19.2553 19.2059 19.3916 19.1494C19.5279 19.0928 19.6446 18.9968 19.7266 18.874C19.8084 18.7514 19.8524 18.6074 19.8525 18.46L19.8379 18.3135C19.8089 18.1699 19.7379 18.0368 19.6328 17.9316C19.4927 17.7915 19.3027 17.7125 19.1045 17.7119ZM24.2725 17.7119C24.1255 17.7125 23.9815 17.7562 23.8594 17.8379C23.7367 17.9202 23.6404 18.0373 23.584 18.1738C23.5277 18.3103 23.5131 18.4607 23.542 18.6055C23.571 18.7503 23.6426 18.8839 23.7471 18.9883C23.8516 19.0925 23.9851 19.1636 24.1299 19.1924C24.2746 19.221 24.4252 19.2059 24.5615 19.1494C24.6979 19.0928 24.8155 18.9968 24.8975 18.874C24.9791 18.7515 25.0223 18.6072 25.0225 18.46L25.0078 18.3135C24.9788 18.1697 24.908 18.0359 24.8027 17.9307C24.6622 17.7905 24.4709 17.712 24.2725 17.7119ZM17.7832 18.7217C17.7987 18.7998 17.8228 18.8757 17.8516 18.9492C17.8469 18.9374 17.8412 18.926 17.8369 18.9141L17.7832 18.7217ZM17.0107 18.3379C17.0105 18.3415 17.01 18.345 17.0098 18.3486C17.0123 18.3001 17.0175 18.2516 17.0234 18.2031L17.0107 18.3379ZM23.0293 17.9453C22.9988 18.0191 22.9768 18.0955 22.96 18.1729C22.9628 18.1599 22.9646 18.1466 22.9678 18.1338L23.0293 17.9453ZM17.126 17.7656C17.0935 17.8581 17.0671 17.9529 17.0479 18.0498L17.084 17.8994C17.0965 17.8543 17.1105 17.8097 17.126 17.7656ZM20.8486 17.2939C20.9306 17.4166 20.9987 17.547 21.0527 17.6826C21.0177 17.5947 20.9775 17.5086 20.9307 17.4258L20.8486 17.2939ZM23.5244 17.3398C23.4791 17.3702 23.4375 17.4051 23.3965 17.4404L23.5244 17.3398C23.5795 17.303 23.6379 17.2704 23.6973 17.2422L23.5244 17.3398ZM26.0195 17.2939L25.9404 17.1836C25.9392 17.1819 25.9378 17.1804 25.9365 17.1787C25.9653 17.2161 25.9932 17.2545 26.0195 17.2939ZM24.5361 17.1377C24.6178 17.154 24.6974 17.1781 24.7744 17.209C24.6568 17.1619 24.5327 17.1308 24.4053 17.1182L24.5361 17.1377ZM25.4746 16.7393C25.3934 16.6826 25.3086 16.6308 25.2197 16.5859L25.0791 16.5215C24.9354 16.4619 24.7856 16.419 24.6338 16.3926L24.7842 16.4248C24.884 16.4498 24.9833 16.4818 25.0791 16.5215C25.2195 16.5797 25.3512 16.6532 25.4746 16.7393ZM27.1104 16.5244C27.1405 16.5881 27.1681 16.6528 27.1953 16.7178C27.1391 16.5833 27.0776 16.451 27.0088 16.3223L27.1104 16.5244ZM19.7617 16.4678C19.8107 16.4839 19.8593 16.5016 19.9072 16.5215C19.9993 16.5596 20.0887 16.6039 20.1738 16.6543C20.133 16.6301 20.0913 16.6073 20.0488 16.5859L19.9072 16.5215C19.8115 16.4819 19.7139 16.4497 19.6143 16.4248L19.7617 16.4678ZM18.415 16.4775C18.3154 16.5122 18.2191 16.5554 18.126 16.6045C18.2589 16.5343 18.3992 16.4779 18.5449 16.4375L18.415 16.4775ZM23.5859 16.4775C23.537 16.4946 23.4888 16.5136 23.4414 16.5342C23.5303 16.4957 23.622 16.4634 23.7158 16.4375L23.5859 16.4775ZM4.19531 15.7539C4.37716 15.4481 4.59031 15.1595 4.83203 14.8926L4.66895 15.0811C4.49347 15.2939 4.33509 15.5187 4.19531 15.7539ZM26.0322 15.0723C26.0889 15.1235 26.1449 15.1762 26.1992 15.2305C26.3075 15.3387 26.4096 15.452 26.5059 15.5693L26.3574 15.3965C26.3062 15.3399 26.2534 15.2847 26.1992 15.2305C26.0907 15.122 25.977 15.0193 25.8594 14.9229L26.0322 15.0723ZM6.6377 14.4209C6.23954 14.6337 5.87093 14.9054 5.5459 15.2305C5.46675 15.3096 5.39208 15.3925 5.31934 15.4766C5.34234 15.45 5.36502 15.4226 5.38867 15.3965L5.5459 15.2305C5.92516 14.8513 6.36419 14.5445 6.83984 14.3193L6.6377 14.4209ZM25.4951 14.6533C25.5578 14.6952 25.6199 14.7382 25.6807 14.7832L25.4951 14.6533C25.4324 14.6115 25.3683 14.5709 25.3037 14.5322L25.4951 14.6533ZM23.2012 13.1309C23.3784 13.1398 23.5543 13.1575 23.7285 13.1836C23.4676 13.1444 23.2026 13.1243 22.9355 13.124L23.2012 13.1309ZM21.2021 9.49902C21.2513 9.49223 21.3011 9.48361 21.3496 9.47363L21.2021 9.49902ZM8.75781 7.38379C8.53842 7.38012 8.32403 7.45112 8.14941 7.58398L8.13379 7.5957L8.11719 7.60645C8.08734 7.62624 8.06287 7.65401 8.0459 7.68555C8.02903 7.7171 8.01953 7.7523 8.01953 7.78809L8.02637 7.84082C8.03071 7.85809 8.03742 7.87482 8.0459 7.89062C8.05434 7.90633 8.06426 7.92148 8.07617 7.93457L8.11719 7.96875L8.13379 7.98047L8.14941 7.99219C8.324 8.12497 8.53848 8.19507 8.75781 8.19141H8.76758L8.86426 8.19629C9.05531 8.21535 9.23719 8.29047 9.38574 8.41211L9.45703 8.47754L9.52246 8.54883C9.66438 8.72225 9.74316 8.94093 9.74316 9.16699L9.73535 12.3145H16.4004V9.16406C16.4004 8.90559 16.5028 8.65742 16.6855 8.47461L16.6934 8.4668L16.7646 8.40234C16.9381 8.26028 17.1566 8.18167 17.3828 8.18164H17.3945L17.5576 8.1709C17.7183 8.14642 17.8718 8.08171 18.002 7.98145L18.0137 7.97168C18.0444 7.94742 18.0713 7.91838 18.0898 7.88379C18.1083 7.84918 18.118 7.81049 18.1211 7.77148C18.1168 7.72642 18.0892 7.64659 17.9707 7.55859C17.8399 7.4616 17.6301 7.38389 17.375 7.38379H8.75781ZM20.042 7.38379C20.0651 7.5089 20.0801 7.63796 20.0801 7.77148V7.79297C20.0752 8.13017 19.9935 8.46199 19.8408 8.7627C19.6882 9.06328 19.4685 9.32545 19.1992 9.52832L19.1982 9.52734C18.942 9.72402 18.6551 9.87479 18.3506 9.97461V12.3145H19.8525V9.16406C19.8526 8.90551 19.9558 8.65744 20.1387 8.47461L20.21 8.41016C20.3834 8.26809 20.6019 8.18945 20.8281 8.18945H20.8398L21.002 8.17871C21.1627 8.15434 21.3161 8.08947 21.4463 7.98926L21.4541 7.9834L21.4609 7.97852C21.495 7.95381 21.5232 7.92088 21.543 7.88379C21.5608 7.85027 21.5702 7.81316 21.5732 7.77539C21.5702 7.73107 21.5449 7.64921 21.4229 7.55859C21.292 7.46168 21.083 7.38393 20.8281 7.38379H20.042ZM21.7725 9.3418C21.7271 9.36101 21.6813 9.37931 21.6348 9.39551L21.7725 9.3418C21.8177 9.32267 21.8633 9.30233 21.9072 9.28027L21.7725 9.3418ZM7.43457 9.12988C7.51627 9.1854 7.60159 9.23507 7.68945 9.2793C7.55781 9.21297 7.4326 9.13337 7.31543 9.04199L7.43457 9.12988ZM22.2822 9.04199C22.2431 9.07264 22.203 9.102 22.1621 9.12988L22.2822 9.04199ZM9.03223 8.90137C9.01464 8.88378 8.99602 8.86804 8.97559 8.85449L9.03223 8.90137ZM22.75 8.4834C22.6959 8.58989 22.6294 8.68884 22.5537 8.78027C22.5903 8.73589 22.6264 8.69065 22.6582 8.64258L22.75 8.4834C22.7777 8.42878 22.8029 8.37259 22.8242 8.31543L22.75 8.4834ZM17.6465 8.76367C17.6032 8.7702 17.5595 8.77543 17.5156 8.77832C17.6038 8.77249 17.691 8.75967 17.7764 8.73926L17.6465 8.76367ZM7.78516 8.46875C7.83417 8.5061 7.88587 8.53918 7.93848 8.57031C7.92393 8.5617 7.90882 8.55401 7.89453 8.54492L7.78516 8.46875ZM18.4629 8.37402C18.4778 8.35951 18.4921 8.34461 18.5059 8.3291C18.5123 8.32173 18.5173 8.31325 18.5234 8.30566C18.5042 8.32937 18.4845 8.35243 18.4629 8.37402ZM7.5166 8.1748C7.55349 8.24348 7.60099 8.3052 7.65527 8.36035C7.62448 8.32899 7.59576 8.29572 7.57031 8.25977L7.5166 8.1748ZM18.6602 8.0752C18.6479 8.10605 18.6348 8.13662 18.6191 8.16602C18.6506 8.10705 18.675 8.04457 18.6924 7.98047L18.6602 8.0752ZM6.70215 8.0957C6.70442 8.10652 6.70746 8.11716 6.70996 8.12793C6.69716 8.07256 6.68738 8.01649 6.68066 7.95996L6.70215 8.0957ZM7.41895 7.78809C7.41896 7.86342 7.43085 7.9378 7.45117 8.00977C7.43998 7.96998 7.43088 7.92971 7.42578 7.88867L7.41895 7.78809ZM19.4707 7.63867C19.4724 7.65491 19.4734 7.67119 19.4746 7.6875C19.4762 7.71539 19.4795 7.74328 19.4795 7.77148V7.78418C19.4786 7.84573 19.4747 7.90703 19.4668 7.96777L19.4795 7.78418C19.4795 7.78158 19.4795 7.77897 19.4795 7.77637C19.4795 7.7748 19.4795 7.77306 19.4795 7.77148C19.4795 7.71313 19.4755 7.65555 19.4688 7.59863C19.4703 7.61188 19.4695 7.62534 19.4707 7.63867ZM22.9248 7.77637C22.9239 7.83781 22.9199 7.89932 22.9121 7.95996L22.9248 7.77637ZM18.6611 7.48633C18.7007 7.58041 18.7227 7.68042 18.7227 7.78418L18.7158 7.68164C18.702 7.58073 18.6675 7.48429 18.6162 7.39453L18.6611 7.48633ZM7.44434 7.58887C7.44166 7.59952 7.43975 7.61033 7.4375 7.62109C7.44651 7.57758 7.45858 7.53464 7.47461 7.49316L7.44434 7.58887ZM6.72461 7.36621C6.72304 7.372 6.72221 7.37798 6.7207 7.38379C6.73376 7.33333 6.74855 7.28336 6.7666 7.23438L6.72461 7.36621ZM18.4912 7.22461C18.5157 7.25142 18.5386 7.27903 18.5596 7.30762L18.4912 7.22461C18.467 7.19807 18.4415 7.17308 18.4141 7.14844L18.4912 7.22461ZM17.5117 6.78906C17.7833 6.80951 18.0315 6.89025 18.2314 7.0127L18.1279 6.95508C17.9128 6.84718 17.6536 6.78419 17.375 6.78418L17.5117 6.78906ZM20.8271 6.02637C20.9687 6.02637 21.1074 6.0381 21.2412 6.06055C21.1759 6.04959 21.1093 6.04188 21.042 6.03613L20.8271 6.02637ZM8.40137 6.0459C8.39618 6.04666 8.39093 6.04705 8.38574 6.04785C8.44713 6.03841 8.50908 6.03184 8.57129 6.02734L8.40137 6.0459ZM22.1934 18.2012L22.1807 18.3359C22.1804 18.3398 22.1799 18.3437 22.1797 18.3477C22.1823 18.2988 22.1873 18.2499 22.1934 18.2012Z" fill="currentColor" style="fill:currentColor;fill:currentColor;fill-opacity:1;"/>
</svg>
