<svg width="32" height="32" viewBox="0 0 32 32" fill="none" xmlns="http://www.w3.org/2000/svg">
<path d="M21.8751 9.90266C21.628 9.90266 21.4141 9.81158 21.2335 9.62942C21.0529 9.44727 20.9626 9.23156 20.9626 8.9823C20.9626 8.49336 21.0529 8.0236 21.2335 7.57301C21.4141 7.12242 21.6803 6.72456 22.032 6.37942L23.1583 5.22898C23.5195 4.86468 23.7001 4.42847 23.7001 3.92035C23.7001 3.67109 23.7904 3.45538 23.971 3.27323C24.1516 3.09108 24.3655 3 24.6126 3C24.8597 3 25.0736 3.09108 25.2542 3.27323C25.4348 3.45538 25.5251 3.67109 25.5251 3.92035C25.5251 4.40929 25.4348 4.87906 25.2542 5.32965C25.0736 5.78024 24.8074 6.1781 24.4558 6.52323L23.3294 7.67367C22.9682 8.03798 22.7876 8.47419 22.7876 8.9823C22.7876 9.23156 22.6973 9.44727 22.5167 9.62942C22.3361 9.81158 22.1223 9.90266 21.8751 9.90266ZM16.4002 9.90266C16.1531 9.90266 15.9392 9.81158 15.7586 9.62942C15.578 9.44727 15.4877 9.23156 15.4877 8.9823C15.4877 8.49336 15.578 8.0236 15.7586 7.57301C15.9392 7.12242 16.2053 6.72456 16.557 6.37942L17.6834 5.22898C18.0446 4.86468 18.2252 4.42847 18.2252 3.92035C18.2252 3.67109 18.3155 3.45538 18.4961 3.27323C18.6767 3.09108 18.8905 3 19.1377 3C19.3848 3 19.5987 3.09108 19.7793 3.27323C19.9598 3.45538 20.0501 3.67109 20.0501 3.92035C20.0501 4.40929 19.9598 4.87906 19.7793 5.32965C19.5987 5.78024 19.3325 6.1781 18.9808 6.52323L17.8545 7.67367C17.4933 8.03798 17.3127 8.47419 17.3127 8.9823C17.3127 9.23156 17.2224 9.44727 17.0418 9.62942C16.8612 9.81158 16.6473 9.90266 16.4002 9.90266ZM28.2625 12.4336C28.6427 12.4336 28.9992 12.5055 29.3319 12.6493C29.6645 12.7931 29.9544 12.9897 30.2016 13.2389C30.4487 13.4882 30.6436 13.7806 30.7861 14.1162C30.9287 14.4517 31 14.8112 31 15.1947V20.7168C31 21.1003 30.9287 21.4598 30.7861 21.7954C30.6436 22.1309 30.4487 22.4233 30.2016 22.6726C29.9544 22.9218 29.6645 23.1184 29.3319 23.2622C28.9992 23.406 28.6427 23.4779 28.2625 23.4779H27.4499C27.4308 23.545 27.4166 23.6073 27.4071 23.6648C27.3976 23.7223 27.3786 23.7799 27.35 23.8374V24.3982C27.35 25.031 27.2312 25.6254 26.9936 26.1814C26.756 26.7375 26.4281 27.2264 26.0098 27.6482C25.5916 28.0701 25.1068 28.4008 24.5556 28.6405C24.0043 28.8802 23.4149 29 22.7876 29H17.3127C16.5713 29 15.8869 28.8322 15.2596 28.4967C14.6323 28.1611 14.1095 27.7153 13.6912 27.1593H6.56244C5.9351 27.1593 5.34579 27.0395 4.79449 26.7998C4.2432 26.5601 3.75844 26.2341 3.34022 25.8219C2.92199 25.4097 2.59407 24.9207 2.35644 24.3551C2.11881 23.7895 2 23.1903 2 22.5575V21.6372H5.64995C5.64995 20.8798 5.79253 20.1656 6.07768 19.4945C6.36283 18.8234 6.75729 18.2386 7.26106 17.74C7.76483 17.2415 8.34464 16.8437 9.00049 16.5465C9.65634 16.2493 10.3645 16.1055 11.1249 16.115C11.41 16.115 11.6857 16.139 11.9518 16.1869C12.218 16.2349 12.4841 16.302 12.7502 16.3883V10.5929H27.35V12.4336H28.2625ZM11.1249 17.9558C10.6211 17.9558 10.1506 18.0516 9.71337 18.2434C9.27614 18.4351 8.88643 18.6987 8.54425 19.0343C8.20206 19.3698 7.94068 19.7581 7.76008 20.1991C7.57948 20.6401 7.48443 21.1195 7.47493 21.6372H12.7502V18.3584C12.5031 18.2338 12.2465 18.1379 11.9803 18.0708C11.7142 18.0037 11.429 17.9653 11.1249 17.9558ZM6.56244 25.3186H12.85C12.7835 25.0406 12.7502 24.7338 12.7502 24.3982V23.4779H3.98181C4.07686 23.7463 4.20993 23.9908 4.38102 24.2113C4.55211 24.4318 4.74697 24.6283 4.96558 24.8009C5.1842 24.9735 5.43133 25.0981 5.70698 25.1748C5.98263 25.2515 6.26778 25.2994 6.56244 25.3186ZM13.1637 26.2821V26.2965L13.178 26.3252V26.3108L13.1637 26.2821ZM25.5251 24.3982V12.4336H14.5752V24.3982C14.5752 24.7817 14.6465 25.1412 14.7891 25.4768C14.9317 25.8123 15.1265 26.1047 15.3736 26.354C15.6208 26.6032 15.9107 26.7998 16.2434 26.9436C16.576 27.0874 16.9325 27.1593 17.3127 27.1593H22.7876C23.1678 27.1593 23.5243 27.0874 23.8569 26.9436C24.1896 26.7998 24.4795 26.6032 24.7266 26.354C24.9738 26.1047 25.1686 25.8123 25.3112 25.4768C25.4538 25.1412 25.5251 24.7817 25.5251 24.3982ZM29.175 20.7168V15.1947C29.175 14.9454 29.0847 14.7297 28.9041 14.5476C28.7235 14.3654 28.5097 14.2743 28.2625 14.2743H27.35V21.6372H28.2625C28.5097 21.6372 28.7235 21.5461 28.9041 21.3639C29.0847 21.1818 29.175 20.9661 29.175 20.7168Z" fill="currentColor" style="fill:currentColor;fill:currentColor;fill-opacity:1;"/>
</svg>
