<svg width="32" height="32" viewBox="0 0 32 32" fill="none" xmlns="http://www.w3.org/2000/svg">
<path d="M25.1724 16.5C25.1724 11.2533 21.0658 7 16 7C10.9342 7 6.82759 11.2533 6.82759 16.5C6.82759 21.7467 10.9342 26 16 26V28C9.86773 28 4.89655 22.8513 4.89655 16.5C4.89655 10.1487 9.86773 5 16 5C22.1323 5 27.1034 10.1487 27.1034 16.5C27.1034 22.8513 22.1323 28 16 28V26C21.0658 26 25.1724 21.7467 25.1724 16.5Z" fill="currentColor" style="fill:currentColor;fill:currentColor;fill-opacity:1;"/>
<path d="M20.6603 17.4416V16.9973L21.9674 15.8418C22.0924 15.728 22.1966 15.6269 22.2799 15.5384C22.3632 15.45 22.4257 15.3644 22.4674 15.2815C22.5091 15.1986 22.5299 15.1102 22.5299 15.0162C22.5299 14.909 22.503 14.8173 22.449 14.741C22.3951 14.6637 22.321 14.604 22.2266 14.562C22.1322 14.52 22.025 14.499 21.9049 14.499C21.7811 14.499 21.6726 14.5222 21.5795 14.5686C21.4863 14.6139 21.414 14.6786 21.3625 14.7626C21.3123 14.8466 21.2872 14.9466 21.2872 15.0627H20.6382C20.6382 14.8471 20.6928 14.6598 20.8018 14.5007C20.9109 14.3415 21.0611 14.2183 21.2522 14.131C21.4447 14.0437 21.6653 14 21.9141 14C22.1665 14 22.3884 14.0426 22.5796 14.1277C22.7708 14.2128 22.919 14.3294 23.0245 14.4774C23.1311 14.6255 23.1844 14.7946 23.1844 14.9847C23.1844 15.1118 23.1574 15.2367 23.1035 15.3594C23.0496 15.4821 22.9546 15.618 22.8185 15.7672C22.6837 15.9164 22.4944 16.0971 22.2505 16.3093L21.6015 16.9045V16.9277H23.2414V17.4416H20.6603Z" fill="currentColor" style="fill:currentColor;fill:currentColor;fill-opacity:1;"/>
<path d="M20.8703 17C20.8703 17.6293 20.7365 18.1683 20.4691 18.6169C20.2037 19.0637 19.8414 19.4059 19.3819 19.6435C18.9247 19.8812 18.4059 20 17.8257 20C17.2455 20 16.7256 19.8812 16.2662 19.6435C15.8089 19.404 15.4465 19.0608 15.1791 18.6141C14.9138 18.1654 14.7811 17.6274 14.7811 17C14.7811 16.3707 14.9138 15.8327 15.1791 15.3859C15.4465 14.9373 15.8089 14.5941 16.2662 14.3565C16.7256 14.1188 17.2455 14 17.8257 14C18.4059 14 18.9247 14.1188 19.3819 14.3565C19.8414 14.5941 20.2037 14.9373 20.4691 15.3859C20.7365 15.8327 20.8703 16.3707 20.8703 17ZM19.6634 17C19.6634 16.557 19.5847 16.1835 19.4272 15.8793C19.2719 15.5732 19.0562 15.3422 18.7801 15.1863C18.5041 15.0285 18.1859 14.9496 17.8257 14.9496C17.4655 14.9496 17.1473 15.0285 16.8712 15.1863C16.5951 15.3422 16.3784 15.5732 16.2209 15.8793C16.0656 16.1835 15.9879 16.557 15.9879 17C15.9879 17.443 16.0656 17.8175 16.2209 18.1236C16.3784 18.4278 16.5951 18.6587 16.8712 18.8165C17.1473 18.9724 17.4655 19.0504 17.8257 19.0504C18.1859 19.0504 18.5041 18.9724 18.7801 18.8165C19.0562 18.6587 19.2719 18.4278 19.4272 18.1236C19.5847 17.8175 19.6634 17.443 19.6634 17Z" fill="currentColor" style="fill:currentColor;fill:currentColor;fill-opacity:1;"/>
<path d="M14.5986 16.0504H13.3886C13.354 15.8755 13.2904 15.7205 13.1977 15.5856C13.1049 15.4487 12.9895 15.3327 12.8515 15.2376C12.7134 15.1426 12.556 15.0713 12.3791 15.0238C12.2044 14.9743 12.0156 14.9496 11.8129 14.9496C11.4527 14.9496 11.1334 15.0295 10.8552 15.1892C10.5769 15.347 10.3591 15.5789 10.2016 15.885C10.0442 16.1892 9.96545 16.5608 9.96545 17C9.96545 17.4468 10.0442 17.8232 10.2016 18.1293C10.3613 18.4335 10.5791 18.6635 10.8552 18.8194C11.1334 18.9734 11.4516 19.0504 11.8097 19.0504C12.0081 19.0504 12.1936 19.0276 12.3662 18.9819C12.5409 18.9344 12.6973 18.865 12.8353 18.7738C12.9755 18.6825 13.0931 18.5703 13.188 18.4373C13.285 18.3042 13.3519 18.1521 13.3886 17.981L14.5986 17.9867C14.5533 18.2643 14.4552 18.5247 14.3042 18.7681C14.1554 19.0114 13.9602 19.2262 13.7186 19.4125C13.477 19.597 13.1944 19.7414 12.8709 19.846C12.5473 19.9487 12.1882 20 11.7935 20C11.2111 20 10.6913 19.8812 10.234 19.6435C9.77671 19.4059 9.4165 19.0627 9.15335 18.6141C8.8902 18.1654 8.75862 17.6274 8.75862 17C8.75862 16.3707 8.89127 15.8327 9.15658 15.3859C9.42189 14.9373 9.78318 14.5941 10.2405 14.3565C10.6977 14.1188 11.2154 14 11.7935 14C12.1623 14 12.5053 14.0456 12.8224 14.1369C13.1394 14.2281 13.422 14.3622 13.67 14.539C13.9181 14.7139 14.1219 14.9287 14.2815 15.1835C14.4433 15.4363 14.549 15.7253 14.5986 16.0504Z" fill="currentColor" style="fill:currentColor;fill:currentColor;fill-opacity:1;"/>
<path d="M16 2C17.9729 2 19.8242 2.34444 21.3716 2.9502L21.6771 3.0752L21.7667 3.11816C22.1982 3.35703 22.393 3.90094 22.2033 4.37988C22.0133 4.85873 21.506 5.10311 21.0369 4.95898L20.9436 4.9248L20.6871 4.82031C19.3823 4.30984 17.7663 4 16 4C14.1161 4 12.4032 4.35239 11.0564 4.9248C10.5632 5.13446 9.9993 4.89062 9.79674 4.37988C9.59432 3.86905 9.82975 3.28499 10.3229 3.0752C11.9294 2.39231 13.8956 2 16 2Z" fill="currentColor" style="fill:currentColor;fill:currentColor;fill-opacity:1;"/>
<path d="M16 31C17.9729 31 19.8242 30.6556 21.3716 30.0498L21.6771 29.9248L21.7667 29.8818C22.1982 29.643 22.393 29.0991 22.2033 28.6201C22.0133 28.1413 21.506 27.8969 21.0369 28.041L20.9436 28.0752L20.6871 28.1797C19.3823 28.6902 17.7663 29 16 29C14.1161 29 12.4032 28.6476 11.0564 28.0752C10.5632 27.8655 9.9993 28.1094 9.79674 28.6201C9.59432 29.131 9.82975 29.715 10.3229 29.9248C11.9294 30.6077 13.8956 31 16 31Z" fill="currentColor" style="fill:currentColor;fill:currentColor;fill-opacity:1;"/>
<path d="M30 16.5C30 18.5434 29.6674 20.4608 29.0826 22.0635L28.9619 22.3799L28.9204 22.4727C28.6898 22.9196 28.1646 23.1214 27.7022 22.9248C27.2398 22.7281 27.0039 22.2027 27.143 21.7168L27.1761 21.6201L27.2769 21.3545C27.7698 20.0031 28.069 18.3293 28.069 16.5C28.069 14.5489 27.7287 12.7747 27.1761 11.3799C26.9736 10.869 27.2091 10.285 27.7022 10.0752C28.1954 9.86554 28.7593 10.1094 28.9619 10.6201C29.6212 12.284 30 14.3204 30 16.5Z" fill="currentColor" style="fill:currentColor;fill:currentColor;fill-opacity:1;"/>
<path d="M2 16.5C2 18.5434 2.33256 20.4608 2.91743 22.0635L3.03812 22.3799L3.07961 22.4727C3.31024 22.9196 3.83539 23.1214 4.29782 22.9248C4.76015 22.7281 4.9961 22.2027 4.85695 21.7168L4.82395 21.6201L4.72306 21.3545C4.23019 20.0031 3.93103 18.3293 3.93103 16.5C3.93103 14.5489 4.27127 12.7747 4.82395 11.3799C5.02637 10.869 4.79094 10.285 4.29782 10.0752C3.8046 9.86554 3.24068 10.1094 3.03812 10.6201C2.37878 12.284 2 14.3204 2 16.5Z" fill="currentColor" style="fill:currentColor;fill:currentColor;fill-opacity:1;"/>
</svg>
