<svg width="32" height="32" viewBox="0 0 32 32" fill="none" xmlns="http://www.w3.org/2000/svg">
<g clip-path="url(#clip0_2989_43875)">
<path fill-rule="evenodd" clip-rule="evenodd" d="M22.4489 27.5098C22.6324 27.5149 22.8099 27.5802 22.9528 27.6953C23.0959 27.8105 23.1968 27.9701 23.2409 28.1484C23.285 28.3266 23.2697 28.5141 23.197 28.6826C23.1242 28.8511 22.9985 28.9919 22.8386 29.082L22.8376 29.0811C20.8286 30.2518 18.4898 30.9219 15.9997 30.9219C13.5264 30.9218 11.201 30.2611 9.2009 29.1045C9.10463 29.051 9.01945 28.9788 8.9509 28.8926C8.88119 28.8049 8.82971 28.7036 8.79953 28.5957C8.76947 28.488 8.76111 28.3756 8.77511 28.2646C8.78919 28.1536 8.82547 28.0461 8.88156 27.9492C8.9377 27.8523 9.01289 27.7668 9.10226 27.6992C9.19152 27.6319 9.29367 27.5832 9.40207 27.5557C9.51053 27.5282 9.62346 27.5223 9.7341 27.5391C9.8429 27.5556 9.94749 27.5936 10.0417 27.6504C11.7932 28.6632 13.8256 29.2412 15.9997 29.2412C18.1893 29.2412 20.2339 28.6549 21.9939 27.6289C22.1312 27.5469 22.2891 27.5052 22.4489 27.5098ZM16.9128 30.6904C16.7689 30.7001 16.6243 30.7068 16.4792 30.7119C16.7766 30.7015 17.0717 30.6829 17.364 30.6533L16.9128 30.6904ZM23.0134 28.6035L23.0398 28.5303C23.0417 28.5238 23.0429 28.5172 23.0446 28.5107C23.0365 28.5422 23.0264 28.5733 23.0134 28.6035ZM21.2966 28.2256C21.3344 28.2072 21.3732 28.1907 21.4109 28.1719L21.4314 28.1611C21.3869 28.1835 21.3414 28.2038 21.2966 28.2256ZM23.0476 28.1963L23.0241 28.1211C23.0216 28.1144 23.0181 28.1081 23.0153 28.1016C23.0282 28.1322 23.0395 28.1637 23.0476 28.1963ZM22.8269 27.8516C22.8779 27.8927 22.9219 27.9413 22.9577 27.9951C22.941 27.97 22.9232 27.9454 22.903 27.9229L22.8269 27.8516Z" fill="currentColor" style="fill:currentColor;fill:currentColor;fill-opacity:1;"/>
<path fill-rule="evenodd" clip-rule="evenodd" d="M20.4821 24.9111C20.6732 24.9034 20.8615 24.9616 21.0153 25.0752C21.1692 25.1889 21.2791 25.3522 21.3278 25.5371C21.3766 25.7221 21.3607 25.9181 21.2829 26.0928C21.2051 26.2675 21.0702 26.4106 20.9001 26.498L20.8991 26.4971C19.4375 27.2804 17.7685 27.7217 15.9997 27.7217C14.3557 27.7216 12.7977 27.3413 11.4118 26.6582L11.1374 26.5186C11.0399 26.4669 10.9538 26.3956 10.8835 26.3105C10.8134 26.2256 10.7606 26.1278 10.7282 26.0225C10.6959 25.917 10.6846 25.8061 10.695 25.6963C10.7055 25.5864 10.7371 25.4793 10.7888 25.3818C10.8405 25.2845 10.9108 25.1981 10.9958 25.1279C11.0809 25.0577 11.1794 25.005 11.2849 24.9727C11.3903 24.9403 11.5013 24.929 11.6111 24.9395C11.7207 24.9499 11.8272 24.9817 11.9245 25.0332L12.155 25.1514C13.3146 25.7232 14.615 26.041 15.9997 26.041C17.4897 26.041 18.8815 25.6725 20.1052 25.0166L20.195 24.9736C20.2861 24.9364 20.3833 24.9148 20.4821 24.9111ZM11.7712 26.6074C11.5883 26.524 11.4081 26.4357 11.2312 26.3418L11.4831 26.4717C11.5782 26.5187 11.6745 26.5633 11.7712 26.6074ZM20.8083 26.3203L20.8786 26.2783C20.8822 26.2759 20.8849 26.2721 20.8884 26.2695C20.8629 26.2878 20.8365 26.3058 20.8083 26.3203ZM21.1003 26.0117L21.1286 25.9355C21.1299 25.9314 21.1304 25.927 21.1316 25.9229C21.1232 25.9529 21.1131 25.983 21.1003 26.0117ZM19.5105 25.5244C19.3701 25.5847 19.2276 25.6403 19.0837 25.6934C19.3854 25.582 19.6799 25.4559 19.9655 25.3135L19.5105 25.5244ZM21.1345 25.5879L21.1091 25.5107C21.1071 25.5057 21.1044 25.501 21.1023 25.4961C21.1152 25.5257 21.1262 25.5563 21.1345 25.5879ZM20.8962 25.2363L20.8278 25.1924C20.8221 25.1892 20.8161 25.1866 20.8103 25.1836C20.84 25.199 20.869 25.2162 20.8962 25.2363Z" fill="currentColor" style="fill:currentColor;fill:currentColor;fill-opacity:1;"/>
<path fill-rule="evenodd" clip-rule="evenodd" d="M17.322 1.61914L18.5837 1.8291L18.781 1.8623L18.7487 2.05957L18.1081 5.89941C18.0754 6.09547 17.9746 6.27382 17.823 6.40234C17.7092 6.4987 17.5725 6.56198 17.4275 6.58789L17.28 6.60156H16.8396V12.6016H19.8396C20.0623 12.6016 20.2768 12.6901 20.4343 12.8477C20.5719 12.9854 20.6564 13.1663 20.6755 13.3584L20.6804 13.4414V14.5215H27.8571C29.1435 14.5215 30.3235 15.2501 30.8991 16.4004L32.111 18.8262L32.155 18.9307C32.1916 19.0385 32.2061 19.1532 32.197 19.2676C32.1849 19.4198 32.1316 19.5663 32.0427 19.6904C31.9538 19.8144 31.8322 19.9122 31.6921 19.9727C31.5872 20.0178 31.4745 20.0408 31.3611 20.041L31.2468 20.0332L20.6804 18.5928V19.8418C20.6803 20.0644 20.5917 20.2781 20.4343 20.4355C20.2964 20.5735 20.115 20.6587 19.9226 20.6777L19.8396 20.6816H19.3894C19.332 21.3311 19.0015 21.9015 18.5407 22.3232L18.3142 22.5117C17.688 22.9813 16.8753 23.2412 15.9997 23.2412C15.2337 23.2412 14.5162 23.0421 13.9294 22.6777L13.6862 22.5117C13.1101 22.0796 12.6765 21.4336 12.6101 20.6816H12.1599C11.9372 20.6816 11.7236 20.5929 11.5661 20.4355C11.4284 20.2978 11.3431 20.117 11.3239 19.9248L11.32 19.8418V18.7617H4.1423C2.93625 18.7617 1.82405 18.1208 1.21554 17.0928L1.10129 16.8818L-0.111605 14.457C-0.176787 14.3268 -0.207267 14.1816 -0.199496 14.0361C-0.191704 13.8906 -0.145444 13.7496 -0.0666832 13.627C0.0120832 13.5044 0.121642 13.4045 0.2507 13.3369C0.379751 13.2694 0.524113 13.2361 0.669645 13.2412H0.671598L0.752653 13.249L11.32 14.6895V13.4414C11.3201 13.2187 11.4086 13.0052 11.5661 12.8477C11.7236 12.6902 11.9372 12.6016 12.1599 12.6016H15.1599V6.60156H14.7194C14.5208 6.60141 14.3281 6.5308 14.1765 6.40234C14.0629 6.30603 13.9778 6.18163 13.9284 6.04297L13.8913 5.89941L13.2517 2.05957L13.2185 1.8623L13.4157 1.8291L14.6784 1.61914L14.8757 1.58594L14.9089 1.7832L15.4323 4.92188H16.5681L17.0915 1.7832L17.1247 1.58594L17.322 1.61914ZM18.1941 22.3516L18.3933 22.1875C18.3958 22.1852 18.3976 22.182 18.4001 22.1797C18.334 22.2399 18.2657 22.2978 18.1941 22.3516ZM14.3132 20.6816C14.3648 20.8427 14.4819 21.0089 14.6941 21.168L14.8142 21.249C15.1122 21.4321 15.529 21.5615 15.9997 21.5615C16.5378 21.5615 17.006 21.3932 17.3064 21.168L17.4109 21.082C17.5585 20.9497 17.6449 20.8141 17.6872 20.6816H14.3132ZM12.8728 21.0254C12.8376 20.8952 12.8139 20.7609 12.8044 20.623L12.8171 20.7539C12.8294 20.8463 12.8488 20.9367 12.8728 21.0254ZM17.9196 20.4814C17.9196 20.5963 17.8965 20.7101 17.8493 20.8213C17.8812 20.7465 17.9026 20.6706 17.9128 20.5938L17.9196 20.4814ZM19.1804 20.7617C19.1777 20.7817 19.1739 20.8015 19.1706 20.8213C19.1815 20.756 19.1904 20.69 19.195 20.623L19.1804 20.7617ZM20.2927 20.2939L20.3542 20.2217C20.3573 20.2175 20.359 20.2123 20.362 20.208C20.3409 20.238 20.319 20.2677 20.2927 20.2939ZM11.5573 20.0576C11.5599 20.0646 11.5634 20.0712 11.5661 20.0781C11.5518 20.0421 11.5396 20.005 11.5319 19.9668L11.5573 20.0576ZM12.9997 14.9189L14.8337 15.1699L14.948 15.1934C15.0598 15.225 15.1643 15.2799 15.2546 15.3545C15.3751 15.4541 15.4654 15.5853 15.5153 15.7334C15.5653 15.8815 15.5734 16.0411 15.5378 16.1934C15.5022 16.3453 15.4244 16.4842 15.3142 16.5947L13.3943 18.5156C13.2849 18.625 13.1475 18.699 12.9997 18.7354V19.001H18.9997V18.3623L17.1667 18.1133C17.0118 18.0921 16.8653 18.0283 16.7448 17.9287C16.6245 17.8292 16.534 17.6978 16.4841 17.5498C16.4341 17.4017 16.427 17.2421 16.4626 17.0898C16.4982 16.9376 16.5758 16.7982 16.6862 16.6875L18.6062 14.7676L18.6677 14.7119C18.765 14.6322 18.8785 14.5757 18.9997 14.5459V14.2812H12.9997V14.9189ZM19.071 16.6768L29.8972 18.1543L29.3962 17.1523C29.104 16.5683 28.5099 16.2012 27.8571 16.2012H19.5476L19.071 16.6768ZM16.7527 17.6436C16.7695 17.668 16.7883 17.691 16.8083 17.7129C16.7683 17.6692 16.7342 17.6204 16.7077 17.5674L16.7527 17.6436ZM1.38058 16.9795C1.41902 17.045 1.46 17.1087 1.50265 17.1709C1.42052 17.0512 1.34607 16.925 1.28 16.793L1.38058 16.9795ZM2.60422 16.1309L2.66183 16.2373C2.97016 16.7589 3.53027 17.081 4.1423 17.0811H12.4519L12.9284 16.6045L2.10226 15.1279L2.60422 16.1309ZM2.56222 16.4531C2.57824 16.4763 2.59607 16.4981 2.613 16.5205C2.56926 16.4627 2.52735 16.4031 2.48996 16.3398L2.56222 16.4531ZM20.4802 13.4414L20.4734 13.3467C20.4722 13.3387 20.469 13.3311 20.4675 13.3232C20.4748 13.362 20.4802 13.4014 20.4802 13.4414ZM11.5818 13.168C11.5792 13.1734 11.5773 13.1791 11.5749 13.1846C11.5899 13.1504 11.6068 13.1171 11.6277 13.0859L11.5818 13.168ZM20.2927 12.9893L20.2204 12.9277C20.2161 12.9245 20.2112 12.9221 20.2068 12.9189C20.2368 12.9401 20.2664 12.9629 20.2927 12.9893ZM11.9441 12.8389C11.9375 12.8412 11.931 12.8441 11.9245 12.8467C11.9602 12.8325 11.997 12.821 12.0349 12.8135L11.9441 12.8389ZM14.3747 6.30078C14.3804 6.30439 14.3866 6.30712 14.3923 6.31055C14.3623 6.29265 14.3333 6.27281 14.3064 6.25L14.3747 6.30078Z" fill="currentColor" style="fill:currentColor;fill:currentColor;fill-opacity:1;"/>
</g>
<defs>
<clipPath id="clip0_2989_43875">
<rect width="32" height="32" fill="currentColor" style="fill:currentColor;fill-opacity:1;"/>
</clipPath>
</defs>
</svg>
