<svg width="32" height="32" viewBox="0 0 32 32" fill="none" xmlns="http://www.w3.org/2000/svg">
<path fill-rule="evenodd" clip-rule="evenodd" d="M11.9869 2.70898C12.0798 2.71509 12.1712 2.72529 12.2418 2.73633L12.2427 2.73535L12.2437 2.73633C12.2458 2.73656 12.2485 2.73599 12.2505 2.73633L12.2496 2.7373C12.3972 2.75834 12.6327 2.81863 12.7896 2.87109L12.9293 2.92285C13.0777 2.98251 13.2495 3.06406 13.3687 3.13477C13.5319 3.22859 13.7786 3.41618 13.9302 3.55762C14.0398 3.65969 14.1704 3.80044 14.2652 3.91504L14.3453 4.01855L14.3502 4.02441L14.4771 4.22559L14.5982 4.43555L14.6011 4.44238L14.7027 4.67383L14.7906 4.91602L14.7925 4.92285L14.858 5.20312C14.8779 5.30673 14.8944 5.41444 14.9039 5.50293C14.9302 5.71708 14.9301 5.94597 14.9039 6.15332L14.9048 6.1543C14.886 6.32793 14.8349 6.57786 14.7925 6.72168L14.7906 6.72949C14.7461 6.86758 14.6628 7.07731 14.6011 7.20215L14.5982 7.20898C14.5678 7.26692 14.5273 7.33779 14.4869 7.40625L14.3716 7.58984C14.3012 7.69141 14.1642 7.85086 14.065 7.95508L14.064 7.9541C14.013 8.0078 13.9445 8.07502 13.8736 8.13867L13.6714 8.30664C13.6127 8.35081 13.5319 8.40456 13.4478 8.45605L13.2017 8.59473C13.0595 8.66621 12.8485 8.75557 12.7193 8.79785L12.7115 8.80078C12.5855 8.83819 12.3512 8.89071 12.1783 8.91602H12.1753C11.9842 8.94224 11.727 8.94941 11.5406 8.93848H11.5337C11.3659 8.92447 11.1076 8.88549 10.9459 8.84375C10.7848 8.80524 10.5326 8.71503 10.3726 8.63477C10.221 8.56173 10.0024 8.43508 9.87554 8.34473C9.82193 8.30772 9.76016 8.25604 9.69683 8.20312C9.73821 8.26083 9.77888 8.32842 9.80913 8.39355L9.84429 8.48438L9.84722 8.49316L9.84917 8.50195C9.85862 8.54088 9.86927 8.59304 9.87749 8.64648L9.89117 8.79883C9.89115 8.87084 9.87227 8.94693 9.85699 8.99805C9.84815 9.02754 9.83763 9.05897 9.82574 9.08984L9.78667 9.17969L9.78179 9.18848C9.76283 9.22422 9.732 9.26617 9.71245 9.29199C9.68658 9.32616 9.65208 9.36976 9.61187 9.41992C9.53111 9.52067 9.42045 9.65542 9.28863 9.81348L8.29253 10.9834C7.64821 11.7286 7.3073 12.1252 7.11675 12.3633C6.93101 12.5953 6.90796 12.6538 6.8814 12.7236L6.21734 14.5225C5.90227 15.3829 5.47837 16.5246 5.27788 17.0645L5.27886 17.0654L4.46831 19.2686L4.4439 19.332L4.44488 19.333C4.31615 19.6885 4.19821 20.0148 4.11285 20.2539C4.11067 20.26 4.10815 20.2665 4.10601 20.2725C4.22355 20.2746 4.36764 20.2786 4.53765 20.2803C5.09558 20.2857 5.92953 20.2881 7.03081 20.2881C8.12735 20.2881 8.96375 20.2857 9.52593 20.2803C9.70786 20.2785 9.86079 20.2748 9.98394 20.2725C9.91057 20.0609 9.80917 19.776 9.69585 19.4668C9.46177 18.8314 9.04232 17.6917 8.76128 16.9346L8.76031 16.9336C8.54556 16.3499 8.41674 15.9928 8.34331 15.7656C8.29162 15.6057 8.25687 15.4842 8.24761 15.3779V15.2754L8.26226 15.1768C8.28284 15.073 8.32039 14.9603 8.36089 14.8809L8.36578 14.8721L8.42437 14.7832C8.49194 14.692 8.58471 14.5971 8.67242 14.5371L8.78277 14.4707C8.82051 14.451 8.86023 14.4333 8.90288 14.4189C8.98759 14.3906 9.07147 14.378 9.15679 14.3721H9.16363L9.29058 14.3711C9.37078 14.3742 9.44387 14.3852 9.51812 14.4082L9.6314 14.4521L9.63921 14.4551L9.72515 14.5049C9.81393 14.5615 9.90648 14.6374 9.96538 14.7021L10.0435 14.8047C10.0677 14.8418 10.0898 14.8812 10.1089 14.917C10.15 14.9937 10.1906 15.0828 10.2203 15.168L11.9283 19.8086L12.2515 20.7178C12.293 20.8393 12.327 20.9431 12.3511 21.0205C12.3631 21.0588 12.3739 21.0932 12.3814 21.1211C12.3851 21.1348 12.389 21.1504 12.3921 21.165L12.4009 21.2432C12.4009 21.3339 12.3769 21.4589 12.358 21.5332L12.355 21.543C12.3341 21.6149 12.2954 21.688 12.2613 21.7441C12.2431 21.7741 12.2225 21.805 12.2007 21.835L12.1324 21.9209L12.1216 21.9316C11.9998 22.0555 11.867 22.1437 11.69 22.1934C11.5807 22.2236 11.4342 22.2343 11.0962 22.2412C10.7804 22.2476 10.2683 22.2495 9.41558 22.25L9.39995 29.5576V29.6523L9.34429 29.7305L9.24273 29.874L9.24175 29.873C9.1494 30.0035 9.0046 30.1218 8.8687 30.1885L8.8648 30.1904C8.80065 30.2207 8.72752 30.2463 8.65972 30.2646C8.62783 30.2733 8.59106 30.2817 8.55328 30.2881L8.43804 30.2988C8.32565 30.2987 8.16532 30.2687 8.0562 30.2207V30.2188C8.00515 30.1983 7.9526 30.1735 7.90874 30.1475C7.86586 30.1219 7.81309 30.0851 7.7691 30.0439C7.76815 30.0431 7.7671 30.0429 7.76617 30.042C7.76439 30.0403 7.76207 30.0388 7.76031 30.0371C7.67854 29.9596 7.58963 29.8288 7.48003 29.627L7.4439 29.5596L7.44292 29.4844L7.42632 22.2637L6.63628 22.2539V29.5547L6.60406 29.6172L6.52984 29.7666L6.52495 29.7773C6.45545 29.9039 6.33218 30.0419 6.2105 30.1279L6.20464 30.1318C6.13434 30.179 6.05599 30.2274 5.95269 30.2549C5.90513 30.2675 5.85617 30.2746 5.80718 30.2783L5.65777 30.2822C5.55738 30.2822 5.45816 30.28 5.36285 30.2549C5.25951 30.2275 5.1812 30.179 5.11089 30.1318L5.10503 30.1279C4.96424 30.0285 4.8457 29.8769 4.71343 29.6211L4.67925 29.5566V22.251H3.80328C3.46453 22.251 3.15284 22.2481 2.91656 22.2422C2.79883 22.2392 2.69702 22.2357 2.61968 22.2314C2.58143 22.2293 2.54624 22.2265 2.51714 22.2236L2.41656 22.207C2.34465 22.1869 2.27065 22.1498 2.21245 22.1152C2.15104 22.0788 2.08507 22.0317 2.02886 21.9814C1.92642 21.8897 1.81242 21.7382 1.76226 21.6182L1.75933 21.6094C1.71067 21.4821 1.69317 21.3239 1.70269 21.1973L1.70367 21.1836C1.70983 21.1333 1.73087 21.0634 1.74761 21.0068C1.7674 20.94 1.79331 20.8556 1.82476 20.7607C1.88782 20.5706 1.97222 20.3303 2.06304 20.085L2.60992 18.6045C2.73089 18.2691 3.22789 16.9177 3.71441 15.5957L4.86773 12.4688C4.93917 12.272 5.0112 12.0796 5.0689 11.9287C5.12276 11.7879 5.17236 11.6604 5.19683 11.6123L5.20171 11.6025L5.20757 11.5938L5.32769 11.4355C5.38309 11.3668 5.45799 11.2745 5.54742 11.167C5.72657 10.9516 5.9651 10.669 6.22027 10.3721L7.2398 9.1875L7.24566 9.18066L7.78863 8.55176C7.91167 8.40905 8.03601 8.27234 8.13726 8.16699C8.1878 8.11441 8.23518 8.06776 8.27398 8.03125C8.29316 8.0132 8.31229 7.99475 8.33062 7.97949C8.34385 7.96849 8.37489 7.94404 8.41167 7.9248L8.52788 7.87012C8.57242 7.85156 8.61988 7.83394 8.6607 7.82324L8.74078 7.80859C8.76981 7.80474 8.80111 7.80225 8.83257 7.80078L9.01617 7.80566L9.02788 7.80664C9.11938 7.82105 9.2609 7.85379 9.35015 7.89746L9.39995 7.92773C9.35193 7.87518 9.29776 7.81415 9.24663 7.75098L9.07183 7.51562C9.02824 7.44868 8.97785 7.36036 8.93023 7.27148L8.80718 7.02148C8.745 6.87664 8.67137 6.64122 8.64019 6.49219C8.61302 6.36803 8.59205 6.17609 8.58355 5.99707L8.57964 5.82227C8.57965 5.60716 8.60268 5.32172 8.63921 5.15723L8.71538 4.87988C8.73141 4.83021 8.74862 4.7804 8.76617 4.7334L8.8189 4.60254C8.88467 4.44859 9.0119 4.21458 9.11187 4.07129L9.20171 3.95117C9.30414 3.82275 9.43715 3.67585 9.54058 3.57715L9.54351 3.57422L9.66656 3.4668C9.80326 3.35382 9.97213 3.23016 10.0982 3.1543L10.2369 3.07617C10.3884 2.99626 10.5696 2.91465 10.6998 2.87109L10.9654 2.79297C11.0542 2.76942 11.1376 2.74953 11.1949 2.73828L11.2046 2.73633L11.4429 2.71094C11.5333 2.7046 11.6282 2.70092 11.7046 2.69922H11.7105L11.9869 2.70898ZM6.10113 29.8301C6.0799 29.8495 6.05883 29.8678 6.03765 29.8828C5.97632 29.924 5.93243 29.9465 5.88238 29.9609C5.90621 29.954 5.92935 29.9467 5.95269 29.9346L6.03765 29.8828C6.07993 29.8529 6.12337 29.8117 6.16265 29.7676L6.10113 29.8301ZM5.34331 29.9238C5.34638 29.9256 5.35006 29.9261 5.35308 29.9277C5.33046 29.9153 5.30568 29.9015 5.27788 29.8828L5.34331 29.9238ZM2.17144 21.7012C2.19033 21.7227 2.21039 21.7421 2.22906 21.7588C2.19178 21.7256 2.15204 21.6793 2.11773 21.6328L2.17144 21.7012ZM11.9068 21.7217C11.8806 21.7483 11.8541 21.7711 11.8277 21.792C11.8311 21.7893 11.836 21.788 11.8394 21.7852L11.9068 21.7217ZM12.1002 21.2432C12.1001 21.2912 12.086 21.374 12.0709 21.4385C12.0776 21.4096 12.0853 21.3772 12.0904 21.3457L12.1002 21.2432ZM5.93511 14.4189C5.61975 15.2802 5.19572 16.4242 4.99566 16.9629C4.80501 17.4851 4.44575 18.4606 4.18609 19.165L4.16167 19.2305C3.90395 19.9421 3.69097 20.5381 3.69097 20.5547C3.69627 20.5662 3.98006 20.5747 4.53472 20.5801L3.90484 20.5693C3.76493 20.5651 3.69351 20.5604 3.69097 20.5547C3.69097 20.5381 3.90395 19.9421 4.16167 19.2305L4.18609 19.165C4.44575 18.4606 4.80501 17.4851 4.99566 16.9629L5.93511 14.4189ZM10.608 17.0957C10.9267 17.9637 11.3951 19.2347 11.646 19.9131L10.608 17.0957ZM8.06499 10.7871C7.87621 11.0055 7.71397 11.1953 7.57281 11.3594L8.06499 10.7871ZM9.51617 9.04785C9.5119 9.0559 9.5001 9.06927 9.48492 9.08984L9.51617 9.04785ZM9.41558 8.33008C9.38523 8.297 9.3475 8.26183 9.31206 8.23242L9.21831 8.16699C9.26586 8.19043 9.35467 8.2637 9.41558 8.33008C9.47312 8.3965 9.53674 8.50576 9.55718 8.57227L9.50054 8.45117L9.41558 8.33008ZM12.6255 8.5127C12.5696 8.52929 12.4868 8.54985 12.398 8.56934L12.6255 8.5127ZM14.5044 6.63672C14.4638 6.76306 14.3858 6.95958 14.3316 7.06934C14.2739 7.17908 14.1822 7.33581 14.1246 7.41895C14.0668 7.5021 13.942 7.64842 13.8472 7.74805L14.0005 7.57715L14.1246 7.41895C14.1534 7.37733 14.1918 7.31709 14.2291 7.25391L14.3316 7.06934C14.3587 7.01448 14.3921 6.93775 14.4234 6.85938L14.5044 6.63672ZM10.9371 7.0625C11.0184 7.11238 11.1782 7.18275 11.2935 7.22266C11.3395 7.23767 11.3805 7.24887 11.4205 7.25781C11.4182 7.25731 11.4159 7.25735 11.4136 7.25684L11.2935 7.22266C11.1782 7.18275 11.0184 7.11238 10.9371 7.0625C10.8982 7.03763 10.8459 6.99914 10.7935 6.95605L10.9371 7.0625ZM11.731 4.65918C11.6054 4.66243 11.4427 4.68587 11.358 4.71191L11.355 4.71289C11.2795 4.73543 11.1398 4.80571 11.064 4.85938C11.0233 4.88955 10.9756 4.92934 10.9322 4.96777L10.8238 5.07324C10.801 5.09913 10.7698 5.14194 10.7398 5.1875L10.6627 5.31934C10.627 5.39417 10.5778 5.54724 10.5621 5.63965L10.5611 5.64453C10.5375 5.77024 10.5369 5.84897 10.5591 5.99121L10.605 6.16895C10.6258 6.23303 10.6497 6.29589 10.6705 6.33789L10.7613 6.48438L10.8638 6.61328L10.8687 6.61816L10.9839 6.72363C11.0245 6.75698 11.0652 6.78753 11.0943 6.80664L11.2252 6.87207C11.2794 6.89619 11.3401 6.92046 11.3921 6.93848C11.5172 6.97909 11.581 6.98845 11.8003 6.97949L11.9517 6.9707C11.9892 6.96713 12.0169 6.96271 12.0416 6.95703C12.0886 6.94614 12.1392 6.92726 12.2447 6.87793L12.3443 6.82617C12.4411 6.77142 12.5292 6.70746 12.5855 6.65234C12.6606 6.5749 12.7677 6.43524 12.814 6.35449C12.858 6.27345 12.9128 6.11766 12.9273 6.02539L12.9283 6.01367C12.955 5.877 12.9559 5.79504 12.9371 5.66797C12.92 5.57172 12.8736 5.41985 12.8404 5.34473C12.797 5.25517 12.7292 5.1401 12.6949 5.0957C12.6591 5.05139 12.5491 4.94879 12.4527 4.87988L12.4498 4.87793C12.3596 4.81222 12.215 4.74097 12.1168 4.70996C12.0086 4.67931 11.8663 4.65952 11.731 4.65918ZM10.5152 6.65723C10.5206 6.66486 10.5264 6.67217 10.5318 6.67969C10.5035 6.64064 10.4758 6.59984 10.4517 6.56055L10.5152 6.65723ZM10.2623 6.03809C10.2775 6.13293 10.3179 6.26756 10.3599 6.375L10.3199 6.26074C10.2945 6.18204 10.2724 6.1013 10.2623 6.03809ZM10.2427 5.81055C10.2427 5.82157 10.2434 5.83261 10.2437 5.84375C10.2423 5.79702 10.2435 5.75179 10.2486 5.7041L10.2427 5.81055ZM13.2457 5.73633C13.2485 5.77243 13.2502 5.80739 13.2496 5.84277L13.2457 5.73633C13.2429 5.70022 13.2389 5.66301 13.233 5.62305L13.2457 5.73633ZM14.3316 4.5752C14.3859 4.68494 14.4638 4.88145 14.5044 5.00781C14.5417 5.13421 14.5891 5.37713 14.606 5.54004C14.6119 5.58824 14.6167 5.63723 14.6197 5.68652L14.606 5.54004C14.5975 5.45855 14.5827 5.35664 14.564 5.25977L14.5044 5.00781C14.4638 4.88145 14.3859 4.68494 14.3316 4.5752C14.3028 4.52042 14.2622 4.45017 14.2203 4.38086L14.3316 4.5752ZM10.3912 5.19043C10.3437 5.2902 10.2865 5.47012 10.2662 5.58984L10.3189 5.38281L10.3912 5.19043C10.4149 5.14059 10.4512 5.0797 10.4888 5.02246L10.3912 5.19043ZM11.0748 4.50684C11.063 4.51272 11.0511 4.5183 11.0396 4.52441C11.0849 4.50053 11.1329 4.47855 11.1773 4.45996L11.0748 4.50684ZM11.4878 4.37988C11.4473 4.38569 11.4076 4.39273 11.3707 4.40039L11.4878 4.37988C11.569 4.36833 11.6544 4.36106 11.7271 4.35938L11.4878 4.37988ZM13.0992 3.3291C13.1434 3.35158 13.1845 3.37371 13.2193 3.39453C13.254 3.41446 13.2945 3.4403 13.3375 3.46973L13.2193 3.39453C13.1498 3.35297 13.0559 3.30592 12.9605 3.2627L13.0992 3.3291ZM12.2017 3.03223C12.2628 3.04055 12.349 3.05859 12.438 3.08105L12.2017 3.03223C12.1407 3.02225 12.0555 3.01362 11.9664 3.00781L12.2017 3.03223Z" fill="currentColor" style="fill:currentColor;fill:currentColor;fill-opacity:1;"/>
<path fill-rule="evenodd" clip-rule="evenodd" d="M10.8335 8.92871C10.8944 8.93749 10.9547 8.95006 11.0025 8.96484L11.108 9.00879C11.141 9.02591 11.1719 9.04473 11.1978 9.06152C11.2262 9.07988 11.2563 9.10026 11.2847 9.12207L11.3668 9.19141L11.3716 9.19629L11.4947 9.33203C11.5094 9.3504 11.5295 9.37672 11.5494 9.40723L11.6031 9.51074L11.7222 9.92969C11.7835 10.1535 11.8635 10.4508 11.9468 10.7676L12.4253 12.5811L12.6597 13.4619L14.4664 14.1553L15.8843 14.7119C16.0705 14.7872 16.2269 14.8515 16.3404 14.9004C16.3967 14.9246 16.4451 14.9465 16.482 14.9639C16.5 14.9724 16.518 14.9809 16.5337 14.9893C16.5424 14.9939 16.5691 15.0084 16.5953 15.0283L16.5982 15.0293C16.5997 15.0305 16.6015 15.032 16.6031 15.0332C16.7049 15.1131 16.805 15.2466 16.856 15.3564L16.8941 15.458C16.927 15.5677 16.9449 15.6972 16.9449 15.7988L16.939 15.9287C16.9342 15.9725 16.9254 16.0169 16.9117 16.0625C16.891 16.1311 16.8593 16.1904 16.8257 16.2471H16.856L18.0464 16.2373L18.7359 16.2344C18.9086 16.2347 19.0316 16.2366 19.1226 16.2412C19.2157 16.246 19.2919 16.2543 19.3619 16.2715C19.4321 16.2888 19.4862 16.3132 19.5279 16.332C19.6612 16.3907 19.8172 16.5029 19.9039 16.6221C19.9714 16.7139 20.0443 16.8671 20.0767 16.9805L20.0943 17.0615C20.1092 17.1527 20.1164 17.2774 20.1216 17.4658C20.1278 17.6904 20.1295 18.0309 20.1304 18.5566L22.4351 18.543L22.4488 17.5576L22.4595 16.8848C22.4632 16.7078 22.4667 16.5744 22.4722 16.4727C22.4819 16.2937 22.4964 16.1535 22.5601 16.0391C22.6069 15.9524 22.6873 15.8493 22.7554 15.7871C22.8315 15.7155 22.9549 15.6442 23.0416 15.6084L23.1275 15.5791C23.2196 15.553 23.3268 15.5356 23.4078 15.5322H23.4205L23.5132 15.5381C23.6097 15.5484 23.7182 15.5731 23.8003 15.6064L23.8043 15.6074C23.8054 15.6079 23.8071 15.6089 23.8082 15.6094C23.9018 15.6472 24.0248 15.7189 24.0992 15.7861L24.1617 15.8506C24.2226 15.9232 24.279 16.0155 24.313 16.0889C24.369 16.2089 24.3851 16.3242 24.3941 16.5674C24.3993 16.7082 24.4015 16.9071 24.4029 17.1943C24.4345 17.1116 24.4691 17.0306 24.5035 16.9639L24.5894 16.8086C24.6809 16.6599 24.7926 16.5273 24.9429 16.3799L25.0855 16.2471C25.2258 16.1242 25.3622 16.0292 25.5142 15.9531L25.5191 15.9502L25.7496 15.8496C25.8282 15.8181 25.9036 15.7905 25.9585 15.7754L26.1431 15.7334C26.2114 15.72 26.2818 15.7086 26.3384 15.7012L26.5562 15.6865C26.6337 15.6846 26.7111 15.6856 26.7701 15.6895H26.7798C26.8963 15.7009 27.0859 15.7333 27.2095 15.7627L27.4517 15.8389C27.5356 15.8698 27.6199 15.9055 27.688 15.9385C27.8861 16.0292 28.0691 16.173 28.2662 16.3662C28.4424 16.5359 28.6127 16.7439 28.6978 16.9004L28.7564 17.0195C28.7759 17.0633 28.7948 17.1105 28.813 17.1582L28.9039 17.4316L28.9058 17.4375L28.9361 17.5752C28.9545 17.6731 28.9693 17.7808 28.9771 17.877L28.983 18.0107C28.9829 18.1694 28.9481 18.4169 28.9058 18.583L28.9048 18.5898L28.6148 18.5098C28.6311 18.4457 28.6441 18.3664 28.6558 18.2871L28.6148 18.5098L28.9048 18.5898C28.8612 18.7468 28.775 18.9776 28.6988 19.1162L28.6998 19.1172C28.6154 19.2739 28.4425 19.4825 28.2652 19.6533L28.2662 19.6543C28.1166 19.801 27.9762 19.9166 27.8365 20.0039L27.6959 20.082C27.6265 20.116 27.5374 20.1533 27.4478 20.1865L27.1949 20.2676C27.1607 20.276 27.1205 20.2827 27.0777 20.29C27.8156 20.2897 28.6042 20.2883 29.4459 20.2881H29.5123L29.5718 20.3154L29.7515 20.3984L29.7525 20.3994L29.8726 20.4629C29.9114 20.4869 29.9493 20.5139 29.9849 20.5459C30.0206 20.578 30.0515 20.6123 30.0787 20.6475L30.1519 20.7568L30.1548 20.7627L30.2027 20.8594C30.234 20.9299 30.2622 21.0097 30.2798 21.0859L30.2974 21.1953L30.2984 21.1963L30.3003 21.2949C30.2974 21.3992 30.2781 21.5172 30.2398 21.6133L30.2388 21.6182C30.1886 21.7384 30.0738 21.8887 29.9712 21.9805L29.9722 21.9814C29.9216 22.0268 29.8639 22.0705 29.8101 22.1055C29.7672 22.1334 29.6986 22.1725 29.6275 22.1934L29.6285 22.1943C29.6271 22.1948 29.625 22.1941 29.6236 22.1943C29.6213 22.195 29.619 22.1975 29.6168 22.1982L29.6158 22.1963C29.5922 22.2024 29.5729 22.2065 29.5699 22.207C29.5616 22.208 29.5531 22.2086 29.5474 22.209C29.5356 22.2098 29.5216 22.2104 29.5074 22.2109C29.4778 22.212 29.4359 22.2129 29.3834 22.2139C29.2776 22.2158 29.1193 22.2171 28.9019 22.2188C28.4653 22.222 27.7845 22.2252 26.7974 22.2275C24.8226 22.2321 21.6157 22.2344 16.6617 22.2344H16.5826L16.5132 22.1953L16.3677 22.1123C16.2483 22.044 16.1105 21.9181 16.0357 21.8154L16.0318 21.8096C15.9323 21.6658 15.8882 21.519 15.8746 21.3457V21.3438C15.8687 21.2589 15.8681 21.1743 15.8853 21.085C15.8939 21.0402 15.9056 20.9982 15.9205 20.958L15.9722 20.8398C16.0049 20.7736 16.0492 20.7073 16.0914 20.6523C16.1305 20.6014 16.1855 20.5372 16.2466 20.4922L16.3892 20.4062C16.439 20.3808 16.4877 20.3591 16.524 20.3457L16.5308 20.3438L16.606 20.3271C16.619 20.3257 16.6333 20.325 16.646 20.3242C16.6722 20.3225 16.7071 20.3207 16.7496 20.3193C16.8359 20.3167 16.9663 20.3148 17.1509 20.3125C17.4484 20.3088 17.893 20.3056 18.5376 20.3027C18.5296 20.2974 18.5209 20.2925 18.5132 20.2871L18.4478 20.2344C18.3657 20.1599 18.2793 20.0304 18.2339 19.9326C18.1776 19.8134 18.1618 19.6991 18.1529 19.4473C18.1449 19.2207 18.1436 18.8448 18.1431 18.1943H17.689C17.3291 18.1943 17.1215 18.194 16.9849 18.1816C16.8194 18.1667 16.7354 18.131 16.6314 18.083C16.4679 18.0089 16.3359 17.9068 16.2388 17.7578C16.238 17.7566 16.2368 17.7561 16.2359 17.7549C16.2347 17.753 16.2332 17.7509 16.232 17.749C16.1296 17.5972 16.0897 17.4563 16.0806 17.2676L16.0777 17.1338C16.0789 17.0894 16.0827 17.0449 16.0914 17C16.1095 16.9061 16.1443 16.828 16.1841 16.7539L16.1851 16.7529L16.2066 16.7197C16.1648 16.7317 16.1242 16.7427 16.0884 16.748L16.0816 16.749C15.9468 16.7656 15.7899 16.7426 15.6558 16.7002L15.6441 16.6963L14.8414 16.3945L12.858 15.6299C12.122 15.3478 11.436 15.0756 11.3511 15.0342V15.0322C11.2812 14.9985 11.2161 14.9506 11.1675 14.9072C11.1162 14.8613 11.0629 14.8041 11.022 14.7441L11.0201 14.7412C10.976 14.6747 10.9326 14.5678 10.9 14.4795C10.8632 14.38 10.8255 14.2622 10.7945 14.1494L10.7935 14.1445L10.4576 12.8828C10.3261 12.3875 10.1103 11.5603 9.96245 11.0039C9.86263 10.6239 9.79632 10.3599 9.75738 10.1777C9.73794 10.0868 9.72409 10.0097 9.71636 9.94531C9.70932 9.88654 9.7057 9.82011 9.71538 9.75488C9.72629 9.67675 9.75636 9.59682 9.78374 9.53613C9.81299 9.47135 9.85118 9.40128 9.8941 9.3418L9.96441 9.25586C10.0434 9.16885 10.1449 9.08114 10.231 9.03125L10.2408 9.02539C10.3548 8.96495 10.5186 8.91406 10.6597 8.91406L10.8335 8.92871ZM16.1832 21.1221C16.1821 21.1263 16.1811 21.1305 16.1802 21.1348C16.1852 21.1109 16.1925 21.0873 16.2017 21.0625L16.1832 21.1221ZM29.8931 20.9102C29.8753 20.8801 29.8584 20.8542 29.8404 20.8311L29.8931 20.9102ZM24.3941 19.4531C24.3851 19.6963 24.3679 19.8117 24.3121 19.9316L24.313 19.9326C24.2791 20.0059 24.2224 20.0974 24.1617 20.1699L24.0992 20.2344C24.0772 20.2542 24.0505 20.2743 24.022 20.2939C24.6765 20.2933 25.3869 20.2915 26.1568 20.291C26.113 20.2836 26.072 20.276 26.0367 20.2676L26.0269 20.2656C25.8869 20.2275 25.6741 20.1477 25.5386 20.085L25.5328 20.082C25.3452 19.99 25.1605 19.8474 24.9654 19.6562C24.7872 19.4851 24.6147 19.2747 24.5298 19.1172C24.4871 19.0395 24.4421 18.9316 24.4029 18.8252C24.4015 19.1131 24.3993 19.3121 24.3941 19.4531ZM23.691 20.1357C23.5789 20.1822 23.2661 20.1875 21.273 20.1875L21.274 20.1885C23.2673 20.1885 23.5791 20.1823 23.691 20.1357ZM27.1226 19.9756C27.0005 20.0055 26.7765 20.0312 26.6138 20.0312L26.6148 20.0322C26.6961 20.0322 26.793 20.026 26.8843 20.0156L27.1226 19.9756C27.1835 19.9606 27.264 19.9346 27.3433 19.9053L27.1226 19.9756ZM28.1753 19.3174C28.1371 19.3591 28.0967 19.4006 28.0552 19.4404C28.1383 19.3606 28.2178 19.2739 28.2837 19.1924L28.1753 19.3174ZM18.4488 19.332C18.4494 19.3595 18.451 19.3851 18.4517 19.4092C18.4478 19.2851 18.4453 19.1173 18.4439 18.8857L18.4488 19.332ZM26.0474 18.3867C26.0614 18.4084 26.0772 18.4277 26.0933 18.4463L26.0474 18.3867ZM26.566 17.6416C26.5275 17.6531 26.4869 17.6689 26.4566 17.6836C26.3882 17.7205 26.3212 17.7789 26.2964 17.8115L26.2642 17.8613C26.2618 17.8658 26.2606 17.8674 26.2603 17.8682C26.2579 17.877 26.2535 17.9036 26.2535 18.0107C26.2535 18.1126 26.2579 18.1428 26.2613 18.1562L26.2964 18.2178L26.3003 18.2236L26.3482 18.2764L26.4585 18.3379L26.4664 18.3418L26.5806 18.3857C26.5987 18.3897 26.6117 18.3905 26.6255 18.3887L26.6392 18.3867L26.6451 18.3857C26.649 18.3851 26.6546 18.3842 26.6607 18.3828C26.6736 18.3798 26.6892 18.3754 26.7056 18.3701C26.7411 18.3586 26.7702 18.3452 26.7837 18.3379L26.7896 18.3359L26.7945 18.333C26.7981 18.3307 26.8033 18.3265 26.8091 18.3223C26.821 18.3136 26.8352 18.3022 26.8501 18.2891C26.8817 18.2612 26.9092 18.232 26.9253 18.2109L26.9302 18.2051L26.9703 18.1533C26.9706 18.1518 26.9719 18.1445 26.9732 18.127L26.9761 18.0137C26.9761 17.9105 26.9711 17.8777 26.9673 17.8623C26.9661 17.8571 26.9641 17.8466 26.9351 17.8018L26.8794 17.7412C26.8555 17.7217 26.8245 17.702 26.7837 17.6826C26.7533 17.6683 26.7117 17.6527 26.6714 17.6416C26.6517 17.6362 26.6342 17.6331 26.6216 17.6309C26.6199 17.6305 26.6181 17.6293 26.6168 17.6289L26.566 17.6416ZM25.9527 18.0107C25.9527 18.0544 25.9548 18.0911 25.9566 18.123L25.9527 18.0107C25.9527 17.9583 25.9541 17.9163 25.9566 17.8809L25.9527 18.0107ZM28.6148 17.5117C28.6521 17.658 28.6822 17.8811 28.6822 18.0107C28.6822 18.0322 28.6808 18.0562 28.6793 18.082L28.6822 18.0107C28.6822 17.946 28.6759 17.8577 28.6636 17.7676L28.6148 17.5117ZM16.8433 17.8477C16.8474 17.8491 16.8519 17.8492 16.856 17.8506C16.8242 17.8398 16.7934 17.8276 16.7564 17.8105L16.8433 17.8477ZM27.0679 17.5088C27.0974 17.5327 27.1232 17.5592 27.147 17.5879C27.105 17.5373 27.0556 17.494 26.9957 17.457L27.0679 17.5088ZM19.7876 17.0625C19.802 17.1127 19.8127 17.2031 19.8199 17.4316C19.8165 17.324 19.8131 17.247 19.8082 17.1904L19.7876 17.0625C19.7758 17.021 19.7558 16.9705 19.733 16.9229L19.7876 17.0625ZM26.6197 17.3291C26.686 17.331 26.817 17.3669 26.9126 17.4121L26.7505 17.3525C26.6994 17.3384 26.6519 17.3301 26.6197 17.3291ZM26.5543 17.3359C26.536 17.3395 26.5163 17.3448 26.4957 17.3506C26.5424 17.3376 26.5848 17.3292 26.6138 17.3291L26.5543 17.3359ZM16.3853 17.0566C16.3807 17.0806 16.3795 17.1059 16.3785 17.1338C16.3807 17.0752 16.3894 17.029 16.4087 16.9795L16.3853 17.0566ZM28.0552 16.5801C28.1019 16.6249 28.1466 16.6728 28.189 16.7197C28.1845 16.7148 28.1809 16.7091 28.1763 16.7041L28.0552 16.5801ZM19.4078 16.6074C19.4172 16.6116 19.4265 16.6172 19.4361 16.6221L19.4078 16.6074ZM16.3052 16.3643C16.2679 16.3825 16.2199 16.4022 16.1724 16.418L16.3052 16.3643ZM26.7496 15.9883C26.8004 15.9933 26.8702 16.0036 26.941 16.0156L26.7496 15.9883ZM16.6441 15.7988C16.6441 15.8701 16.6379 15.9221 16.6236 15.9717C16.6305 15.9474 16.6372 15.9229 16.6402 15.8955L16.6441 15.7988ZM23.691 15.8857C23.7249 15.8991 23.7655 15.9199 23.8033 15.9424L23.691 15.8857ZM16.4136 15.2666C16.3992 15.255 16.3318 15.2234 16.2212 15.1758L16.4136 15.2666ZM11.6558 10.8438C11.822 11.4755 12.0394 12.2904 12.1343 12.6562C12.2293 13.0221 12.3308 13.4048 12.4087 13.6875L12.1343 12.6562L11.6558 10.8438ZM10.2525 9.38965C10.2364 9.40449 10.2216 9.42098 10.2066 9.43652C10.2424 9.39938 10.2822 9.36226 10.3199 9.33301L10.2525 9.38965Z" fill="currentColor" style="fill:currentColor;fill:currentColor;fill-opacity:1;"/>
</svg>
