<svg xmlns="http://www.w3.org/2000/svg" width="32" height="32" viewBox="0 0 32 32" fill="none">
  <path d="M9 4C9.52725 4 10.0439 4.18058 10.4316 4.56836C10.8194 4.95614 11 5.47275 11 6V7H12V6C12 5.47275 12.1806 4.95614 12.5684 4.56836C12.9561 4.18058 13.4728 4 14 4H16C16.5272 4 17.0439 4.18058 17.4316 4.56836C17.8194 4.95614 18 5.47275 18 6V7.24707C18.1554 7.33162 18.301 7.43773 18.4316 7.56836C18.8194 7.95614 19 8.47275 19 9V14H20V13C20 12.4728 20.1806 11.9561 20.5684 11.5684C20.9561 11.1806 21.4728 11 22 11H24C24.5272 11 25.0439 11.1806 25.4316 11.5684C25.8194 11.9561 26 12.4728 26 13V14.2471C26.1554 14.3316 26.301 14.4377 26.4316 14.5684C26.8194 14.9561 27 15.4728 27 16V21C27 21.5272 26.8194 22.0439 26.4316 22.4316C26.297 22.5662 26.1461 22.6741 25.9854 22.7598C25.9939 22.8394 26 22.9195 26 23V28C26 28.5272 25.8194 29.0439 25.4316 29.4316C25.0439 29.8194 24.5272 30 24 30H6C5.47275 30 4.95614 29.8194 4.56836 29.4316C4.18058 29.0439 4 28.5272 4 28V23C4 22.4728 4.18058 21.9561 4.56836 21.5684C4.69898 21.4377 4.84458 21.3316 5 21.2471V20C5 19.4728 5.18058 18.9561 5.56836 18.5684C5.95614 18.1806 6.47275 18 7 18H9C9.52725 18 10.0439 18.1806 10.4316 18.5684C10.8194 18.9561 11 19.4728 11 20V21H12V16H6C5.47275 16 4.95614 15.8194 4.56836 15.4316C4.18058 15.0439 4 14.5272 4 14V9C4 8.47275 4.18058 7.95614 4.56836 7.56836C4.69898 7.43773 4.84458 7.33162 5 7.24707V6C5 5.47275 5.18058 4.95614 5.56836 4.56836C5.95614 4.18058 6.47275 4 7 4H9ZM6 28H24V23H6V28ZM14 21H25V16H14V21ZM7 21H9V20H7V21ZM22 14H24V13H22V14ZM6 14H17V9H6V14ZM14 7H16V6H14V7ZM7 7H9V6H7V7Z" fill="currentColor" style="fill:currentColor;fill:currentColor;fill-opacity:1;"/>
</svg>