<svg width="32" height="32" viewBox="0 0 32 32" fill="none" xmlns="http://www.w3.org/2000/svg">
<path d="M8.36328 4.12109C9.06603 4.12109 9.63657 4.69079 9.63672 5.39355V10.4844L9.62402 10.792C9.50176 12.3167 8.47966 13.5913 7.09082 14.084V26.6064C7.09056 27.3089 6.52085 27.8787 5.81836 27.8789L5.6875 27.8721C5.08879 27.811 4.61268 27.335 4.55176 26.7363L4.54492 26.6064L4.5459 14.084C3.15706 13.5913 2.1349 12.3168 2.0127 10.792L2 10.4844V5.39355C2.00015 4.69088 2.56979 4.12125 3.27246 4.12109C3.97527 4.12109 4.54575 4.69079 4.5459 5.39355V10.4844L4.55176 10.6143C4.61272 11.2128 5.09017 11.6901 5.68848 11.751L5.81836 11.7578C6.47616 11.7577 7.01859 11.2554 7.08398 10.6143L7.09082 10.4844V5.39355C7.09097 4.69091 7.66065 4.1213 8.36328 4.12109Z" fill="currentColor" style="fill:currentColor;fill:currentColor;fill-opacity:1;"/>
<path fill-rule="evenodd" clip-rule="evenodd" d="M16.1963 4.12598C18.2108 4.22857 19.8184 5.89998 19.8184 7.93945V10.4844L19.8057 10.793C19.6833 12.3174 18.6612 13.5914 17.2725 14.084V26.6055L17.2656 26.7363C17.2003 27.3778 16.6586 27.8788 16 27.8789L15.8691 27.8721C15.2706 27.8109 14.7943 27.3349 14.7334 26.7363L14.7266 26.6055L14.7275 14.084C13.339 13.5914 12.3167 12.3173 12.1943 10.793L12.1816 10.4844V7.93945C12.1816 5.83417 13.8947 4.12123 16 4.12109L16.1963 4.12598ZM16 6.12109C14.9993 6.12123 14.1816 6.93873 14.1816 7.93945V10.4844C14.1816 11.2675 14.6846 11.9469 15.3955 12.1992L15.999 12.4131L16.6035 12.1992C17.3147 11.9469 17.8184 11.2676 17.8184 10.4844V7.93945L17.8086 7.75391C17.7151 6.83954 16.9382 6.12119 16 6.12109Z" fill="currentColor" style="fill:currentColor;fill:currentColor;fill-opacity:1;"/>
<path fill-rule="evenodd" clip-rule="evenodd" d="M28.7275 4.12109C29.4301 4.12136 30.0008 4.69095 30.001 5.39355V26.6064L29.9941 26.7363C29.9289 27.3778 29.3862 27.8787 28.7275 27.8789L28.5977 27.8721C27.9988 27.8112 27.5229 27.3351 27.4619 26.7363L27.4551 26.6064V18.5449H23.6367L23.5068 18.5391C22.9077 18.4782 22.4318 18.0014 22.3711 17.4023L22.3643 17.2725V10.4844C22.3645 6.97576 25.2189 4.1213 28.7275 4.12109ZM28.001 6.18262C25.941 6.53021 24.3644 8.32783 24.3643 10.4844V16.5449H28.001V6.18262Z" fill="currentColor" style="fill:currentColor;fill:currentColor;fill-opacity:1;"/>
</svg>
