<svg xmlns="http://www.w3.org/2000/svg" width="32" height="32" viewBox="0 0 32 32" fill="none">
  <path d="M25.3975 18.8555C25.5702 19.3799 25.2851 19.9452 24.7607 20.1182C24.2363 20.2911 23.671 20.0059 23.498 19.4814L25.3975 18.8555Z" fill="currentColor" style="fill:currentColor;fill:currentColor;fill-opacity:1;"/>
  <path fill-rule="evenodd" clip-rule="evenodd" d="M21.0156 7.29102C21.3797 7.34967 21.6873 7.60643 21.8057 7.96484L23.6865 13.6689C23.9353 13.6349 24.1891 13.6162 24.4473 13.6162C27.5139 13.6162 30 16.1023 30 19.1689C30 22.2355 27.5139 24.7216 24.4473 24.7217C21.3806 24.7217 18.8946 22.2356 18.8945 19.1689C18.8945 17.0664 20.063 15.2366 21.7861 14.2939L21.1719 12.4287L15.9717 19.2959L16.4697 21.2539C16.5175 21.4421 16.5062 21.6306 16.4512 21.8027C16.8985 22.0623 17.2002 22.5451 17.2002 23.0996C17.2002 23.928 16.5286 24.5996 15.7002 24.5996C14.8718 24.5996 14.2002 23.928 14.2002 23.0996C14.2002 22.6794 14.373 22.2997 14.6514 22.0273C14.5986 21.9423 14.5572 21.8482 14.5312 21.7461L14.0869 20H13.043C12.6418 22.6724 10.3369 24.7216 7.55273 24.7217C4.4861 24.7217 2.00004 22.2356 2 19.1689C2 16.1023 4.48608 13.6162 7.55273 13.6162C8.25761 13.6162 8.93137 13.7487 9.55176 13.9883L11.627 11.2568C11.6023 11.1642 11.5903 11.0666 11.5938 10.9658L11.6182 10.2188L11.4834 9.71289H10.6377C10.0854 9.71289 9.6377 9.26518 9.6377 8.71289C9.63775 8.16065 10.0854 7.71289 10.6377 7.71289H14L14.1025 7.71777C14.6068 7.76893 15 8.19513 15 8.71289C15 9.23069 14.6068 9.65684 14.1025 9.70801L14 9.71289H13.5537L13.5898 9.84766C13.6032 9.89765 13.6118 9.94866 13.6172 10H20.3711L20.1328 9.27832H18.2139C17.6616 9.27832 17.2139 8.83061 17.2139 8.27832C17.2139 7.72604 17.6616 7.27832 18.2139 7.27832H20.8564L21.0156 7.29102ZM7.55273 15.6162C5.59065 15.6162 4 17.2069 4 19.1689C4.00004 21.131 5.59067 22.7217 7.55273 22.7217C9.22851 22.7216 10.6326 21.5611 11.0068 20H7C6.62019 19.9999 6.27331 19.7846 6.10449 19.4443C5.93573 19.104 5.9743 18.697 6.2041 18.3945L8.26074 15.6865C8.03196 15.6403 7.79516 15.6162 7.55273 15.6162ZM24.3301 15.6191L25.3975 18.8555L24.4473 19.168L23.498 19.4814L22.4297 16.2441C21.5022 16.8852 20.8945 17.9562 20.8945 19.1689C20.8946 21.131 22.4852 22.7217 24.4473 22.7217C26.4093 22.7216 28 21.131 28 19.1689C28 17.2069 26.4093 15.6162 24.4473 15.6162C24.408 15.6162 24.369 15.6179 24.3301 15.6191ZM9.01562 18H10.9072C10.7266 17.4818 10.4303 17.0181 10.0479 16.6406L9.01562 18ZM11.2646 15.04C12.1181 15.8078 12.731 16.8362 12.9805 18H14.4453L18.9893 12H13.5762L11.2646 15.04Z" fill="currentColor" style="fill:currentColor;fill:currentColor;fill-opacity:1;"/>
</svg>