<svg width="32" height="32" viewBox="0 0 32 32" fill="none" xmlns="http://www.w3.org/2000/svg">
<path d="M25.3975 18.8545C25.5702 19.3789 25.2851 19.9443 24.7607 20.1172C24.2363 20.2901 23.671 20.0049 23.498 19.4805L25.3975 18.8545Z" fill="currentColor" style="fill:currentColor;fill:currentColor;fill-opacity:1;"/>
<path fill-rule="evenodd" clip-rule="evenodd" d="M21.0156 7.29004C21.3797 7.34869 21.6873 7.60545 21.8057 7.96387L23.6865 13.668C23.9353 13.6339 24.1891 13.6152 24.4473 13.6152C27.5139 13.6153 30 16.1013 30 19.168C30 22.2346 27.5139 24.7207 24.4473 24.7207C21.3806 24.7207 18.8946 22.2346 18.8945 19.168C18.8945 17.0654 20.063 15.2356 21.7861 14.293L21.1719 12.4277L15.9717 19.2949L16.4697 21.2529C16.5175 21.4411 16.5062 21.6296 16.4512 21.8018C16.8985 22.0614 17.2002 22.5442 17.2002 23.0986C17.2002 23.9271 16.5286 24.5986 15.7002 24.5986C14.8718 24.5986 14.2002 23.9271 14.2002 23.0986C14.2002 22.6785 14.373 22.2987 14.6514 22.0264C14.5986 21.9414 14.5572 21.8473 14.5312 21.7451L14.0869 19.999H13.043C12.6418 22.6714 10.3369 24.7207 7.55273 24.7207C4.4861 24.7207 2.00004 22.2346 2 19.168C2 16.1013 4.48608 13.6152 7.55273 13.6152C8.25761 13.6152 8.93137 13.7477 9.55176 13.9873L11.627 11.2559C11.6023 11.1632 11.5903 11.0656 11.5938 10.9648L11.6182 10.2178L11.4834 9.71191H10.6377C10.0854 9.71191 9.6377 9.2642 9.6377 8.71191C9.63775 8.15967 10.0854 7.71191 10.6377 7.71191H14L14.1025 7.7168C14.6068 7.76796 15 8.19415 15 8.71191C15 9.22971 14.6068 9.65586 14.1025 9.70703L14 9.71191H13.5537L13.5898 9.84668C13.6032 9.89668 13.6118 9.94768 13.6172 9.99902H20.3711L20.1328 9.27734H18.2139C17.6616 9.27734 17.2139 8.82963 17.2139 8.27734C17.2139 7.72506 17.6616 7.27734 18.2139 7.27734H20.8564L21.0156 7.29004ZM7.55273 15.6152C5.59065 15.6152 4 17.2059 4 19.168C4.00004 21.13 5.59067 22.7207 7.55273 22.7207C9.22851 22.7207 10.6326 21.5601 11.0068 19.999H7C6.62019 19.999 6.27331 19.7836 6.10449 19.4434C5.93573 19.1031 5.9743 18.696 6.2041 18.3936L8.26074 15.6855C8.03196 15.6393 7.79516 15.6152 7.55273 15.6152ZM24.3301 15.6182L25.3975 18.8545L24.4473 19.167L23.498 19.4805L22.4297 16.2432C21.5022 16.8842 20.8945 17.9552 20.8945 19.168C20.8946 21.13 22.4852 22.7207 24.4473 22.7207C26.4093 22.7207 28 21.13 28 19.168C28 17.2059 26.4093 15.6153 24.4473 15.6152C24.408 15.6152 24.369 15.6169 24.3301 15.6182ZM9.01562 17.999H10.9072C10.7266 17.4808 10.4303 17.0171 10.0479 16.6396L9.01562 17.999ZM11.2646 15.0391C12.1181 15.8068 12.731 16.8352 12.9805 17.999H14.4453L18.9893 11.999H13.5762L11.2646 15.0391Z" fill="currentColor" style="fill:currentColor;fill:currentColor;fill-opacity:1;"/>
</svg>
