<svg width="32" height="32" viewBox="0 0 32 32" fill="none" xmlns="http://www.w3.org/2000/svg">
<path d="M22.0586 28.0518C20.3234 28.7814 18.4306 29.2433 16.5605 29.3213L16 29.333C17.8636 29.333 19.7683 28.9376 21.5332 28.2627L22.0586 28.0518Z" fill="currentColor" style="fill:currentColor;fill:currentColor;fill-opacity:1;"/>
<path d="M14.3164 29.2295C14.5035 29.2522 14.6908 29.2708 14.8779 29.2861L15.4395 29.3213C15.2525 29.3135 15.0652 29.3015 14.8779 29.2861L14.3164 29.2295Z" fill="currentColor" style="fill:currentColor;fill:currentColor;fill-opacity:1;"/>
<path d="M19.1758 26.2197C19.1469 26.2305 19.1173 26.24 19.0869 26.248L19.1758 26.2197Z" fill="currentColor" style="fill:currentColor;fill:currentColor;fill-opacity:1;"/>
<path d="M12.3135 26.0693C12.338 26.0801 12.3636 26.0889 12.3896 26.0977C12.3281 26.0769 12.2701 26.0519 12.2168 26.0205L12.3135 26.0693Z" fill="currentColor" style="fill:currentColor;fill:currentColor;fill-opacity:1;"/>
<path d="M13.0742 23.4043C12.6855 23.7245 12.3155 24.1636 11.9277 24.748C11.9067 24.7797 11.8876 24.8119 11.8711 24.8447L11.8281 24.9443C11.8525 24.8768 11.8856 24.8115 11.9277 24.748C12.2507 24.2614 12.5614 23.8745 12.8809 23.5742L13.0742 23.4043Z" fill="currentColor" style="fill:currentColor;fill:currentColor;fill-opacity:1;"/>
<path d="M17.0713 22.9531C17.5979 23.1348 18.0749 23.3969 18.4844 23.7197C18.1581 23.4625 17.7888 23.2442 17.3857 23.0742L17.0713 22.9531Z" fill="currentColor" style="fill:currentColor;fill:currentColor;fill-opacity:1;"/>
<path d="M15.334 22.666C15.5805 22.666 15.8222 22.6824 16.0576 22.7139L16.4062 22.7725C16.0627 22.7032 15.7032 22.667 15.333 22.667C14.8761 22.667 14.4732 22.7181 14.1035 22.8359L13.8857 22.9141C14.3145 22.7398 14.7856 22.666 15.334 22.666Z" fill="currentColor" style="fill:currentColor;fill:currentColor;fill-opacity:1;"/>
<path d="M22.9746 24.5732C22.9469 24.5823 22.9188 24.5888 22.8906 24.5938C22.8952 24.593 22.8998 24.5927 22.9043 24.5918L22.9746 24.5732Z" fill="currentColor" style="fill:currentColor;fill:currentColor;fill-opacity:1;"/>
<path d="M23.2148 24.4268C23.1839 24.4576 23.1485 24.4852 23.1094 24.5098L23.043 24.5459C23.0652 24.5355 23.0879 24.5232 23.1094 24.5098C23.1879 24.4606 23.2493 24.3979 23.2949 24.3262L23.2148 24.4268Z" fill="currentColor" style="fill:currentColor;fill:currentColor;fill-opacity:1;"/>
<path d="M10.8311 21.8057C10.2873 22.3826 9.77423 23.1115 9.24609 24.0098C9.66855 23.2912 10.0811 22.6815 10.5078 22.1709L10.8311 21.8057Z" fill="currentColor" style="fill:currentColor;fill:currentColor;fill-opacity:1;"/>
<path d="M8.19629 23.6514C8.18612 23.7121 8.18563 23.773 8.19434 23.832C8.18995 23.8025 8.18721 23.7724 8.1875 23.7422L8.19629 23.6514Z" fill="currentColor" style="fill:currentColor;fill:currentColor;fill-opacity:1;"/>
<path d="M11.3301 21.3271C11.2736 21.3758 11.2177 21.426 11.1621 21.4775L10.9951 21.6377C11.0502 21.5829 11.1063 21.5293 11.1621 21.4775L11.3301 21.3271Z" fill="currentColor" style="fill:currentColor;fill:currentColor;fill-opacity:1;"/>
<path d="M11.8525 20.9268C11.793 20.9669 11.7342 21.0088 11.6758 21.0518L11.501 21.1855C11.5585 21.1396 11.6172 21.0948 11.6758 21.0518L11.8525 20.9268Z" fill="currentColor" style="fill:currentColor;fill:currentColor;fill-opacity:1;"/>
<path d="M12.4053 20.6025C12.3421 20.6344 12.2796 20.6676 12.2178 20.7021L12.0332 20.8105C12.0939 20.7732 12.1558 20.7367 12.2178 20.7021L12.4053 20.6025Z" fill="currentColor" style="fill:currentColor;fill:currentColor;fill-opacity:1;"/>
<path d="M13.2031 20.2832C13.1332 20.3047 13.0643 20.3275 12.9961 20.3516L12.7949 20.4268C12.8612 20.4002 12.9282 20.3755 12.9961 20.3516L13.2031 20.2832Z" fill="currentColor" style="fill:currentColor;fill:currentColor;fill-opacity:1;"/>
<path d="M16.7344 20.1221C16.9071 20.1525 17.0778 20.1883 17.2461 20.2295C17.1662 20.2099 17.0858 20.192 17.0049 20.1748L16.7344 20.1221Z" fill="currentColor" style="fill:currentColor;fill:currentColor;fill-opacity:1;"/>
<path d="M14.3213 20.0547C14.162 20.073 14.0072 20.0961 13.8564 20.124L13.6328 20.1689C13.7795 20.1362 13.9302 20.109 14.085 20.0859L14.3213 20.0547Z" fill="currentColor" style="fill:currentColor;fill:currentColor;fill-opacity:1;"/>
<path d="M15.9023 20.0195C15.9962 20.0261 16.0897 20.0342 16.1826 20.0439L16.46 20.0781C16.3681 20.0652 16.2755 20.0537 16.1826 20.0439L15.9023 20.0195Z" fill="currentColor" style="fill:currentColor;fill:currentColor;fill-opacity:1;"/>
<path d="M15.333 20C15.1548 20 14.9818 20.0047 14.8135 20.0137L14.5635 20.0303C14.6453 20.0235 14.7293 20.0182 14.8135 20.0137L15.333 20Z" fill="currentColor" style="fill:currentColor;fill:currentColor;fill-opacity:1;"/>
<path d="M19.4268 16.2637C19.5675 16.317 19.6972 16.3797 19.8174 16.4531C19.7372 16.4041 19.6526 16.3602 19.5635 16.3203L19.4268 16.2637Z" fill="currentColor" style="fill:currentColor;fill:currentColor;fill-opacity:1;"/>
<path d="M18.6211 16.0703C18.7435 16.0871 18.8596 16.1071 18.9697 16.1309L19.1299 16.1699C19.0775 16.1561 19.0249 16.1428 18.9697 16.1309L18.6211 16.0703Z" fill="currentColor" style="fill:currentColor;fill:currentColor;fill-opacity:1;"/>
<path d="M10.5879 15.5273C10.6142 15.58 10.6349 15.6347 10.6514 15.6904C10.6441 15.6661 10.6361 15.642 10.627 15.6182L10.5879 15.5273Z" fill="currentColor" style="fill:currentColor;fill:currentColor;fill-opacity:1;"/>
<path d="M8.7002 11.9746C8.78744 12.0355 8.86417 12.1138 8.92383 12.208L8.96484 12.2812C8.91388 12.1794 8.84423 12.093 8.7627 12.0234L8.7002 11.9746Z" fill="currentColor" style="fill:currentColor;fill:currentColor;fill-opacity:1;"/>
<path d="M8.48828 11.8682C8.5134 11.8765 8.53828 11.8857 8.5625 11.8965L8.63281 11.9326C8.60956 11.9195 8.58684 11.9072 8.5625 11.8965L8.48828 11.8682Z" fill="currentColor" style="fill:currentColor;fill:currentColor;fill-opacity:1;"/>
<path d="M9.17676 8.76562C9.43619 8.87131 9.67649 8.98255 9.89844 9.09863C9.78754 9.04065 9.67195 8.98411 9.55176 8.92871L9.17676 8.76562Z" fill="currentColor" style="fill:currentColor;fill:currentColor;fill-opacity:1;"/>
<path fill-rule="evenodd" clip-rule="evenodd" d="M5.63379 6.25977C5.63393 5.81822 6.03771 5.48678 6.4707 5.57324L6.86914 5.65332L7.32617 5.74902C9.57328 6.24631 11.2986 6.99832 12.4766 7.99121C13.7221 9.04111 14.3671 10.3691 14.3672 12C14.3673 12.4094 14.6096 12.8147 14.8975 13.1025C15.1853 13.3903 15.5906 13.6327 16 13.6328H17.334C18.8573 13.6329 19.9729 13.848 20.8301 14.293C21.2379 14.5046 21.7364 14.5475 22.1758 14.3477L22.6045 14.166C24.752 13.3244 26.9326 13.479 29.0742 14.6377C29.3878 14.8075 29.4874 15.2271 29.2686 15.5557L28.8994 16.1104C28.6901 16.4244 28.246 16.5269 27.8652 16.3369C26.6052 15.7076 25.3585 15.5405 24.0938 15.8535C23.3201 16.0451 23.075 16.8953 23.3154 17.5371C23.4261 17.8326 23.5322 18.1475 23.6357 18.4824L23.9453 19.4766C24.1975 20.2706 24.3069 20.547 24.5439 21.0596L24.7129 21.4062C25.1113 22.1785 26.2167 22.2406 26.6152 21.4102C26.6675 21.3011 26.7145 21.1907 26.7559 21.0811L26.8291 20.917C27.019 20.549 27.3378 20.2998 27.667 20.2998H28.334C28.7403 20.3002 29.0006 20.6185 28.9365 20.9316C28.5188 22.9623 26.7794 24.9896 24.3613 26.5176C21.9514 28.0403 18.9184 29.0331 16 29.0332C13.0817 29.0331 10.0495 28.0402 7.63965 26.5176C5.37244 25.085 3.70134 23.2141 3.15723 21.3125L3.06445 20.9316C3.00019 20.6182 3.26017 20.2998 3.66699 20.2998H4.68457C4.89072 20.3 5.05983 20.4344 5.11426 20.6611C5.21233 21.0707 5.5504 21.2835 5.89355 21.2764C6.22787 21.2691 6.55869 21.0554 6.68555 20.6748L8.07715 16.501C8.16705 16.2307 8.14594 15.9354 8.01855 15.6807C7.76966 15.1832 7.18695 14.9634 6.67773 15.1562L6.57715 15.2002L5.58105 15.6982C5.34529 15.8161 5.06612 15.7906 4.85742 15.6396L4.77246 15.5674L3.09961 13.8936C2.88675 13.6805 2.83405 13.3553 2.96875 13.0859L5.49609 8.03027C5.58623 7.8499 5.63375 7.65086 5.63379 7.44922V6.25977ZM15.334 22.3662C14.5647 22.3662 13.9129 22.5052 13.3145 22.8662C12.7217 23.224 12.2065 23.7851 11.6777 24.582C11.2303 25.2566 11.5583 26.1617 12.332 26.3955C13.5219 26.755 14.7706 26.9668 16 26.9668C17.0567 26.9668 18.128 26.8101 19.1631 26.5381C19.7935 26.3721 20.2409 25.6908 19.9258 25.0303C19.1793 23.4659 17.4088 22.3664 15.334 22.3662ZM8.87598 8.3291C8.26739 8.10957 7.61742 8.40902 7.33887 8.96582L6.48535 10.6729C6.00226 11.639 7.02796 12.6638 7.99414 12.1807C8.25267 12.052 8.56683 12.1568 8.69629 12.415L10.3193 15.6611L10.3691 15.79C10.3932 15.8783 10.3991 15.9707 10.3877 16.0615L10.3574 16.1953L7.93457 23.4658C7.81557 23.8232 7.92967 24.2283 8.25586 24.4521C8.6827 24.7449 9.25283 24.5888 9.50391 24.1621C10.34 22.74 11.1213 21.7822 12.0205 21.1758C12.9121 20.5746 13.9488 20.2998 15.334 20.2998C18.286 20.3001 20.8263 21.9505 21.8643 24.293C22.091 24.8041 22.7404 25.0954 23.2686 24.7646C23.7521 24.4616 23.7994 23.8392 23.5107 23.4189C23.2708 23.0697 23.0551 22.7034 22.8584 22.3184L22.668 21.9268C22.3913 21.3285 22.2706 21.0279 21.9971 20.1689L21.6611 19.0928C21.261 17.7984 20.8922 16.9163 20.2344 16.3818C19.5679 15.8404 18.6625 15.7002 17.334 15.7002H16C15.058 15.7001 14.1316 15.2585 13.4365 14.5635C12.7415 13.8684 12.2999 12.942 12.2998 12C12.2998 11.1986 12.0205 10.4786 11.4414 9.8584C10.9405 9.32202 10.2229 8.86762 9.28906 8.4873L8.87598 8.3291Z" fill="currentColor" style="fill:currentColor;fill:currentColor;fill-opacity:1;"/>
<path d="M5.02832 24.8271C6.31475 26.1225 8.03259 27.2491 9.94141 28.0518C8.20622 27.3221 6.62863 26.3251 5.38965 25.1768L5.02832 24.8271Z" fill="currentColor" style="fill:currentColor;fill:currentColor;fill-opacity:1;"/>
<path d="M23.5732 27.3262C23.4109 27.4141 23.2465 27.4998 23.0801 27.583L22.5742 27.8252C22.7443 27.747 22.9136 27.6662 23.0801 27.583L23.5732 27.3262Z" fill="currentColor" style="fill:currentColor;fill:currentColor;fill-opacity:1;"/>
<path d="M24.9727 26.4746C24.8245 26.5755 24.6738 26.6746 24.5205 26.7715L24.0537 27.0547C24.2117 26.9622 24.3673 26.8683 24.5205 26.7715L24.9727 26.4746Z" fill="currentColor" style="fill:currentColor;fill:currentColor;fill-opacity:1;"/>
<path d="M27.3125 24.4697C26.8738 24.9516 26.3752 25.4132 25.8281 25.8467L25.4092 26.166C25.9795 25.7471 26.5039 25.2981 26.9717 24.8271L27.3125 24.4697Z" fill="currentColor" style="fill:currentColor;fill:currentColor;fill-opacity:1;"/>
<path d="M2.81738 20.5225C2.75582 20.6629 2.73579 20.8232 2.77051 20.9922C2.99102 22.0643 3.55538 23.1215 4.37109 24.1045L4.68848 24.4697C3.70169 23.3859 3.01859 22.1983 2.77051 20.9922C2.74283 20.8572 2.74952 20.7276 2.78516 20.6094L2.81738 20.5225Z" fill="currentColor" style="fill:currentColor;fill:currentColor;fill-opacity:1;"/>
<path d="M5.43652 20.6836C5.44867 20.7124 5.46266 20.7391 5.47852 20.7637L5.53027 20.8301C5.49264 20.7899 5.46067 20.7406 5.43652 20.6836Z" fill="currentColor" style="fill:currentColor;fill:currentColor;fill-opacity:1;"/>
<path d="M5.14844 20.165C5.24232 20.2432 5.31717 20.3459 5.36621 20.4658L5.40625 20.5918C5.37496 20.4612 5.31555 20.3457 5.23535 20.252L5.14844 20.165Z" fill="currentColor" style="fill:currentColor;fill:currentColor;fill-opacity:1;"/>
<path d="M4.81445 20.0107C4.85665 20.0181 4.89748 20.0288 4.93652 20.043L5.04785 20.0957C4.94188 20.0347 4.81883 20.0001 4.68457 20L4.81445 20.0107Z" fill="currentColor" style="fill:currentColor;fill:currentColor;fill-opacity:1;"/>
<path d="M28.3379 20C28.4398 20.0004 28.5386 20.016 28.6309 20.0449L28.7227 20.0791C28.6052 20.0288 28.4745 20.0006 28.3379 20Z" fill="currentColor" style="fill:currentColor;fill:currentColor;fill-opacity:1;"/>
<path d="M27.5645 20.0059C27.5308 20.0093 27.4975 20.0137 27.4648 20.0205C27.5303 20.0069 27.5979 20 27.667 20L27.5645 20.0059Z" fill="currentColor" style="fill:currentColor;fill:currentColor;fill-opacity:1;"/>
<path d="M7.81348 16.333C7.8079 16.3576 7.801 16.3821 7.79297 16.4062L7.12988 18.3945L7.79199 16.4072L7.81348 16.333Z" fill="currentColor" style="fill:currentColor;fill:currentColor;fill-opacity:1;"/>
<path d="M23.5244 17.0273C23.5238 17.0946 23.5292 17.1627 23.541 17.2305C23.5351 17.1966 23.5301 17.1628 23.5273 17.1289L23.5244 17.0273Z" fill="currentColor" style="fill:currentColor;fill:currentColor;fill-opacity:1;"/>
<path d="M23.6016 16.6416C23.5892 16.6715 23.5778 16.7021 23.5684 16.7334L23.5449 16.8281C23.5578 16.7633 23.5768 16.7014 23.6016 16.6416Z" fill="currentColor" style="fill:currentColor;fill:currentColor;fill-opacity:1;"/>
<path d="M28.6953 16.6484C28.5757 16.6981 28.4468 16.7259 28.3154 16.7314L28.4131 16.7227C28.4778 16.7143 28.5417 16.701 28.6035 16.6816L28.6953 16.6484Z" fill="currentColor" style="fill:currentColor;fill:currentColor;fill-opacity:1;"/>
<path d="M23.8174 16.3291C23.7938 16.3505 23.7718 16.3735 23.751 16.3975L23.6924 16.4727C23.7106 16.4462 23.7299 16.4216 23.751 16.3975L23.8174 16.3291Z" fill="currentColor" style="fill:currentColor;fill:currentColor;fill-opacity:1;"/>
<path d="M29.1484 16.2773C29.1294 16.306 29.1093 16.3334 29.0879 16.3594L29.0195 16.4336C29.0431 16.4103 29.0664 16.3854 29.0879 16.3594L29.1484 16.2773Z" fill="currentColor" style="fill:currentColor;fill:currentColor;fill-opacity:1;"/>
<path d="M23.9756 16.2178L23.8926 16.2686C23.9371 16.2371 23.986 16.2108 24.0381 16.1885C24.0167 16.1976 23.9957 16.207 23.9756 16.2178Z" fill="currentColor" style="fill:currentColor;fill:currentColor;fill-opacity:1;"/>
<path d="M7.56152 15.5732C7.63798 15.6386 7.70319 15.7198 7.75098 15.8154L7.78125 15.8857C7.77214 15.8619 7.76251 15.8385 7.75098 15.8154C7.70303 15.7195 7.63728 15.6377 7.56055 15.5723L7.56152 15.5732Z" fill="currentColor" style="fill:currentColor;fill:currentColor;fill-opacity:1;"/>
<path d="M29.6064 14.7949C29.6405 14.8718 29.6627 14.9535 29.6748 15.0371C29.6672 14.985 29.6558 14.9337 29.6396 14.8838L29.6064 14.7949Z" fill="currentColor" style="fill:currentColor;fill:currentColor;fill-opacity:1;"/>
<path d="M27.4336 13.6357C27.8813 13.765 28.3279 13.9354 28.7725 14.1475L29.2168 14.374C28.7736 14.1342 28.3277 13.9362 27.8809 13.7793L27.4336 13.6357Z" fill="currentColor" style="fill:currentColor;fill:currentColor;fill-opacity:1;"/>
<path d="M26.0869 13.3721C26.237 13.3875 26.3871 13.4079 26.5371 13.4326L26.9854 13.5205C26.8357 13.4866 26.6869 13.4573 26.5371 13.4326L26.0869 13.3721Z" fill="currentColor" style="fill:currentColor;fill:currentColor;fill-opacity:1;"/>
<path d="M5.30664 7.67871C5.28897 7.75382 5.2632 7.82706 5.22852 7.89648C5.24583 7.86186 5.26031 7.82625 5.27344 7.79004L5.30664 7.67871Z" fill="currentColor" style="fill:currentColor;fill:currentColor;fill-opacity:1;"/>
<path d="M13.1318 8.19043C13.276 8.3381 13.4108 8.49019 13.5352 8.64746L13.7139 8.8877C13.5996 8.72562 13.4751 8.56848 13.3408 8.41602L13.1318 8.19043Z" fill="currentColor" style="fill:currentColor;fill:currentColor;fill-opacity:1;"/>
<path d="M5.33984 6.14355C5.33547 6.18159 5.33399 6.2204 5.33398 6.25977V7.44922L5.32715 7.56543C5.33165 7.52697 5.33398 7.48813 5.33398 7.44922V6.25977L5.33984 6.14355Z" fill="currentColor" style="fill:currentColor;fill:currentColor;fill-opacity:1;"/>
<path d="M10.5967 6.4873C10.9426 6.64446 11.2678 6.81173 11.5713 6.99023L11.8672 7.17285C11.5781 6.98727 11.2673 6.81265 10.9355 6.64844L10.5967 6.4873Z" fill="currentColor" style="fill:currentColor;fill:currentColor;fill-opacity:1;"/>
<path d="M8.69434 5.79004C8.83263 5.83064 8.96878 5.87208 9.10254 5.91504L9.49707 6.04785C9.3679 6.00254 9.23627 5.95799 9.10254 5.91504L8.69434 5.79004Z" fill="currentColor" style="fill:currentColor;fill:currentColor;fill-opacity:1;"/>
<path d="M6.92871 5.35938C7.08453 5.39054 7.23823 5.42256 7.38965 5.45605L7.83789 5.56055C7.69074 5.52467 7.54123 5.48959 7.38965 5.45605L6.92871 5.35938Z" fill="currentColor" style="fill:currentColor;fill:currentColor;fill-opacity:1;"/>
</svg>
