<svg xmlns="http://www.w3.org/2000/svg" width="32" height="32" viewBox="0 0 32 32" fill="none">
  <path d="M8.36328 4.12012C9.06603 4.12012 9.63657 4.68981 9.63672 5.39258V10.4834L9.62402 10.791C9.50176 12.3157 8.47966 13.5903 7.09082 14.083V26.6055C7.09056 27.3079 6.52085 27.8778 5.81836 27.8779L5.6875 27.8711C5.08879 27.8101 4.61268 27.334 4.55176 26.7354L4.54492 26.6055L4.5459 14.083C3.15706 13.5903 2.1349 12.3158 2.0127 10.791L2 10.4834V5.39258C2.00015 4.6899 2.56979 4.12027 3.27246 4.12012C3.97527 4.12012 4.54575 4.68981 4.5459 5.39258V10.4834L4.55176 10.6133C4.61272 11.2118 5.09017 11.6892 5.68848 11.75L5.81836 11.7568C6.47616 11.7567 7.01859 11.2544 7.08398 10.6133L7.09082 10.4834V5.39258C7.09097 4.68993 7.66065 4.12032 8.36328 4.12012Z" fill="currentColor" style="fill:currentColor;fill:currentColor;fill-opacity:1;"/>
  <path fill-rule="evenodd" clip-rule="evenodd" d="M16.1963 4.125C18.2108 4.2276 19.8184 5.899 19.8184 7.93848V10.4834L19.8057 10.792C19.6833 12.3164 18.6612 13.5904 17.2725 14.083V26.6045L17.2656 26.7354C17.2003 27.3768 16.6586 27.8778 16 27.8779L15.8691 27.8711C15.2706 27.81 14.7943 27.3339 14.7334 26.7354L14.7266 26.6045L14.7275 14.083C13.339 13.5904 12.3167 12.3163 12.1943 10.792L12.1816 10.4834V7.93848C12.1816 5.8332 13.8947 4.12025 16 4.12012L16.1963 4.125ZM16 6.12012C14.9993 6.12025 14.1816 6.93775 14.1816 7.93848V10.4834C14.1816 11.2665 14.6846 11.9459 15.3955 12.1982L15.999 12.4121L16.6035 12.1982C17.3147 11.946 17.8184 11.2666 17.8184 10.4834V7.93848L17.8086 7.75293C17.7151 6.83857 16.9382 6.12021 16 6.12012Z" fill="currentColor" style="fill:currentColor;fill:currentColor;fill-opacity:1;"/>
  <path fill-rule="evenodd" clip-rule="evenodd" d="M28.7275 4.12012C29.4301 4.12038 30.0008 4.68997 30.001 5.39258V26.6055L29.9941 26.7354C29.9289 27.3768 29.3862 27.8777 28.7275 27.8779L28.5977 27.8711C27.9988 27.8102 27.5229 27.3341 27.4619 26.7354L27.4551 26.6055V18.5439H23.6367L23.5068 18.5381C22.9077 18.4772 22.4318 18.0004 22.3711 17.4014L22.3643 17.2715V10.4834C22.3645 6.97478 25.2189 4.12032 28.7275 4.12012ZM28.001 6.18164C25.941 6.52924 24.3644 8.32685 24.3643 10.4834V16.5439H28.001V6.18164Z" fill="currentColor" style="fill:currentColor;fill:currentColor;fill-opacity:1;"/>
</svg>