<svg xmlns="http://www.w3.org/2000/svg" width="28" height="25" viewBox="0 0 28 25" fill="none">
    <path
        d="M20.0586 23.0518C18.3234 23.7814 16.4306 24.2433 14.5605 24.3213L14 24.333C15.8636 24.333 17.7683 23.9376 19.5332 23.2627L20.0586 23.0518Z"
        fill="currentColor" />
    <path
        d="M12.3164 24.2295C12.5035 24.2522 12.6908 24.2708 12.8779 24.2861L13.4395 24.3213C13.2525 24.3135 13.0652 24.3015 12.8779 24.2861L12.3164 24.2295Z"
        fill="currentColor" />
    <path d="M17.1758 21.2197C17.1469 21.2305 17.1173 21.24 17.0869 21.248L17.1758 21.2197Z" fill="currentColor" />
    <path
        d="M10.3135 21.0693C10.338 21.0801 10.3636 21.0889 10.3896 21.0977C10.3281 21.0769 10.2701 21.0519 10.2168 21.0205L10.3135 21.0693Z"
        fill="currentColor" />
    <path
        d="M11.0742 18.4043C10.6855 18.7245 10.3155 19.1636 9.92773 19.748L9.82812 19.9443C9.85246 19.8768 9.88564 19.8115 9.92773 19.748C10.2507 19.2614 10.5614 18.8745 10.8809 18.5742L11.0742 18.4043Z"
        fill="currentColor" />
    <path
        d="M15.0713 17.9531C15.5979 18.1348 16.0749 18.3969 16.4844 18.7197C16.1581 18.4625 15.7888 18.2442 15.3857 18.0742L15.0713 17.9531Z"
        fill="currentColor" />
    <path
        d="M13.334 17.666C13.5805 17.666 13.8222 17.6824 14.0576 17.7139L14.4062 17.7725C14.0627 17.7032 13.7032 17.667 13.333 17.667C12.8761 17.667 12.4732 17.7181 12.1035 17.8359L11.8857 17.9141C12.3145 17.7398 12.7856 17.666 13.334 17.666Z"
        fill="currentColor" />
    <path fill-rule="evenodd" clip-rule="evenodd"
        d="M3.63379 1.25977C3.63393 0.818221 4.03771 0.486781 4.4707 0.573242L4.86914 0.65332L5.32617 0.749023C7.57328 1.24631 9.29859 1.99832 10.4766 2.99121C11.7221 4.04111 12.3671 5.36908 12.3672 7C12.3673 7.40945 12.6096 7.8147 12.8975 8.10254C13.1853 8.39034 13.5906 8.6327 14 8.63281H15.334C16.8573 8.63288 17.9729 8.84801 18.8301 9.29297C19.2379 9.50461 19.7364 9.54746 20.1758 9.34766L20.6045 9.16602C22.752 8.32437 24.9326 8.47901 27.0742 9.6377C27.3878 9.80754 27.4874 10.2271 27.2686 10.5557L26.8994 11.1104C26.6901 11.4244 26.246 11.5269 25.8652 11.3369C24.6052 10.7076 23.3585 10.5405 22.0938 10.8535C21.3201 11.0451 21.075 11.8953 21.3154 12.5371C21.4261 12.8326 21.5322 13.1475 21.6357 13.4824L21.9453 14.4766C22.1975 15.2706 22.3069 15.547 22.5439 16.0596L22.7129 16.4062C23.1113 17.1785 24.2167 17.2406 24.6152 16.4102C24.6675 16.3011 24.7145 16.1907 24.7559 16.0811L24.8291 15.917C25.019 15.549 25.3378 15.2998 25.667 15.2998H26.334C26.7403 15.3002 27.0006 15.6185 26.9365 15.9316C26.5188 17.9623 24.7794 19.9896 22.3613 21.5176C19.9514 23.0403 16.9184 24.0331 14 24.0332C11.0817 24.0331 8.04949 23.0402 5.63965 21.5176C3.37244 20.085 1.70134 18.2141 1.15723 16.3125L1.06445 15.9316C1.00019 15.6182 1.26017 15.2998 1.66699 15.2998H2.68457C2.89072 15.3 3.05983 15.4344 3.11426 15.6611C3.21233 16.0707 3.5504 16.2835 3.89355 16.2764C4.22787 16.2691 4.55869 16.0554 4.68555 15.6748L6.07715 11.501C6.16705 11.2307 6.14594 10.9354 6.01855 10.6807C5.76966 10.1832 5.18695 9.96338 4.67773 10.1562L4.57715 10.2002L3.58105 10.6982C3.34529 10.8161 3.06612 10.7906 2.85742 10.6396L2.77246 10.5674L1.09961 8.89355C0.886747 8.6805 0.834052 8.35533 0.96875 8.08594L3.49609 3.03027C3.58623 2.8499 3.63375 2.65086 3.63379 2.44922V1.25977Z"
        fill="currentColor" />
</svg>