<svg width="32" height="32" viewBox="0 0 32 32" fill="none" xmlns="http://www.w3.org/2000/svg">
<path fill-rule="evenodd" clip-rule="evenodd" d="M8 16.3662C8.47013 16.3664 8.86059 16.7027 8.94727 17.1475C9.62331 16.9043 10.2302 16.6816 10.4551 16.5811L10.5791 16.5312C10.8706 16.4248 11.18 16.388 11.4268 16.374L11.6533 16.3662C11.8795 16.3633 12.1033 16.3745 12.3027 16.3896L12.6816 16.4258C12.7978 16.439 12.9026 16.4524 12.9902 16.4648L13.2031 16.498L13.2021 16.499C13.2273 16.5032 13.2489 16.505 13.2646 16.5078L13.2637 16.5088L13.2803 16.5107L13.2861 16.5117H13.2881C13.3001 16.5139 13.3125 16.5169 13.3242 16.5195L13.3232 16.5205L18.001 17.5488L18.082 17.5703H18.084L18.0889 17.5723L18.1201 17.582C18.1479 17.5902 18.1903 17.603 18.2461 17.6182L18.7168 17.7314L19.0312 17.793C19.3583 17.8506 19.7198 17.8945 20.0586 17.8945C20.5494 17.8945 21.1144 18.0753 21.4229 18.6289L21.5068 18.8066C21.6678 19.222 21.6065 19.6408 21.5312 19.916C21.4921 20.0588 21.4364 20.2031 21.3711 20.3447C21.5127 20.2882 21.6594 20.2304 21.8096 20.1699L21.8516 20.1533L22.7451 19.7979C23.6718 19.4382 24.6813 19.0864 25.6045 18.9365L25.8711 18.9014C27.186 18.7678 28.2036 19.2741 28.6904 20.2061L28.7686 20.3711C29.1038 21.1566 29.0168 22.1249 28.4697 22.7881L28.3457 22.9258C28.2583 23.0137 28.1505 23.1006 28.0361 23.1846L27.6846 23.4229C27.5575 23.5037 27.4158 23.5894 27.2637 23.6787L26.7773 23.9561C26.4348 24.1467 26.0524 24.3519 25.6494 24.5615L24.3994 25.1963C22.9365 25.9243 21.3999 26.6413 20.6543 26.9473L20.3857 27.0518C19.6208 27.3266 18.7701 27.3265 17.9688 27.2676L17.1895 27.1973L17.0996 27.1885L16.1865 27.1055C15.1434 27.0279 14.2827 26.8219 13.5117 26.5967L12.7676 26.3691L12.751 26.3643C11.8463 26.0821 11.0318 25.8303 10.0176 25.7393L9.56934 25.71C9.45095 25.7053 9.23617 25.7085 8.9668 25.7139V26.333C8.96662 26.8666 8.53363 27.2996 8 27.2998H4C3.46635 27.2997 3.03338 26.8667 3.0332 26.333V17.333C3.03345 16.7994 3.4664 16.3663 4 16.3662H8ZM15.873 25.4365C16.0139 25.4533 16.1586 25.4674 16.3076 25.4785C16.0095 25.4564 15.729 25.4216 15.4609 25.3779L15.873 25.4365ZM19.833 25.5146C19.5966 25.5996 19.3364 25.6444 19.043 25.6602C19.3365 25.6444 19.5975 25.6006 19.834 25.5156C19.8925 25.4946 19.9696 25.4636 20.0635 25.4248L19.833 25.5146ZM4.9668 25.3662H7.0332V24.7725C7.0337 24.2521 7.44654 23.8246 7.9668 23.8066L8.91895 23.7793C9.21819 23.7733 9.48001 23.7718 9.64551 23.7783L10.1924 23.8145C11.4288 23.9261 12.4055 24.231 13.3086 24.5127L13.3271 24.5186L14.041 24.7363C14.7506 24.944 15.4635 25.1133 16.3301 25.1777L17.2861 25.2637L17.2891 25.2646C18.453 25.3795 19.1782 25.4311 19.7314 25.2324L19.9551 25.1445C20.5982 24.8786 22.0592 24.2018 23.5381 23.4658L24.7568 22.8457C25.1463 22.6431 25.5126 22.4471 25.8369 22.2666L26.2852 22.0117C26.4205 21.9323 26.5417 21.8587 26.6465 21.792L26.8945 21.625C26.9526 21.5826 26.9735 21.5626 26.9736 21.5625L26.9814 21.5518C26.9865 21.5438 26.9937 21.5323 27 21.5176C27.0128 21.4874 27.0236 21.4469 27.0293 21.4004C27.0378 21.3304 27.0327 21.2528 27.0078 21.1768L26.9766 21.1006C26.9434 21.0374 26.876 20.9497 26.7334 20.8877C26.6045 20.8318 26.3948 20.7885 26.0635 20.8242L25.9141 20.8447C24.9245 21.0054 23.7369 21.4785 22.5312 21.9639L22.5303 21.9629L22.5176 21.9688C22.075 22.1469 21.6276 22.3268 21.208 22.4795L20.7988 22.6221C20.3564 22.768 19.8563 22.9062 19.3936 22.918L19.1973 22.915C18.6888 22.8849 17.897 22.7792 17.125 22.6631L16.3711 22.5459L15.0928 22.334C15.0014 22.3183 14.9194 22.3033 14.8486 22.291L14.7373 22.2715L14.7002 22.2656L14.5918 22.2461L14.5869 22.2451L14.5537 22.2393L14.5527 22.2383C14.0582 22.1493 13.7133 21.6966 13.7607 21.1963L13.7744 21.1045C13.8619 20.6503 14.264 20.3159 14.7354 20.3213L18.5098 20.3652C18.523 20.3641 18.5609 20.3605 18.6191 20.3457L18.7236 20.3145C18.8438 20.2725 19.0115 20.1952 19.2119 20.0547L19.2705 20.0088C19.3268 19.9594 19.392 19.8879 19.458 19.7988C19.1762 19.7737 18.9059 19.7348 18.6641 19.6914L18.3125 19.6221C18.1951 19.5969 18.0866 19.5715 17.9902 19.5479L17.7393 19.4834C17.6691 19.4643 17.6123 19.4483 17.5723 19.4365C17.5656 19.4346 17.5588 19.4315 17.5527 19.4297L12.9346 18.4131H12.9316C12.9219 18.4114 12.907 18.4085 12.8877 18.4053L12.7178 18.3789C12.6446 18.3685 12.5577 18.3575 12.4629 18.3467L12.1562 18.3174C12.0473 18.3091 11.9385 18.3032 11.834 18.3008L11.5361 18.3047C11.4385 18.3102 11.3653 18.3196 11.3145 18.3291L11.2451 18.3457C11.013 18.4495 10.5243 18.6341 9.97266 18.835L8.32031 19.4238C8.02467 19.5276 7.69621 19.482 7.44043 19.3008C7.18497 19.1195 7.0332 18.8249 7.0332 18.5117V18.2998H4.9668V25.3662ZM13.2197 24.7998L13.2373 24.8057C13.7203 24.9563 14.1898 25.1024 14.6875 25.2217L14.3193 25.127C13.9546 25.0284 13.5997 24.9187 13.2373 24.8057L13.2197 24.7998ZM23.6719 23.7344C23.2501 23.9443 22.8291 24.1507 22.4268 24.3438L23.6719 23.7344C24.0897 23.5264 24.504 23.3169 24.8955 23.1133L23.6719 23.7344ZM27.1865 21.7744C27.1525 21.8086 27.0382 21.8982 26.8076 22.0449C26.5912 22.1827 26.3111 22.3469 25.9834 22.5293C25.8198 22.6204 25.646 22.7159 25.4639 22.8135L25.9834 22.5293C26.3111 22.3469 26.5912 22.1827 26.8076 22.0449C27.0382 21.8982 27.1525 21.8086 27.1865 21.7744C27.2034 21.7575 27.2194 21.7373 27.2344 21.7139L27.1865 21.7744ZM27.3008 21.1133C27.356 21.3066 27.3339 21.4987 27.2754 21.6357L27.3076 21.543C27.3407 21.4181 27.3446 21.2662 27.3008 21.1133ZM21.9639 20.4316L21.9209 20.4482C21.4521 20.6369 21.0184 20.8114 20.627 20.9531L20.626 20.9551C21.0178 20.8133 21.4525 20.6382 21.9219 20.4492L21.9639 20.4316C22.2504 20.3163 22.5499 20.1961 22.8564 20.0771L21.9639 20.4316ZM18.6934 20.6367C18.6182 20.6559 18.5642 20.6626 18.5361 20.665C18.5264 20.6659 18.5189 20.6659 18.5156 20.666C18.5131 20.666 18.5103 20.666 18.5078 20.666L14.7314 20.6211C14.5147 20.6186 14.3194 20.7209 14.1953 20.8818L14.2783 20.793C14.3987 20.6848 14.5582 20.6191 14.7314 20.6211L18.5078 20.666C18.5107 20.666 18.5138 20.6669 18.5166 20.667C18.52 20.6669 18.5266 20.6659 18.5361 20.665C18.5642 20.6626 18.6182 20.6559 18.6934 20.6367C18.7309 20.6272 18.7746 20.6147 18.8232 20.5977L18.6934 20.6367ZM28.4336 20.3652C28.4792 20.4549 28.5186 20.5476 28.5508 20.6426L28.4932 20.4912C28.475 20.4485 28.4547 20.4067 28.4336 20.3652ZM26.8525 20.6133C26.8653 20.6188 26.8766 20.6269 26.8887 20.6328C26.8513 20.6147 26.8118 20.5958 26.7676 20.5811L26.8525 20.6133ZM19.3838 20.3008C19.3094 20.3529 19.2388 20.3983 19.1719 20.4365L19.3838 20.3008C19.4103 20.2822 19.4383 20.2612 19.4668 20.2363L19.3838 20.3008ZM19.7295 19.9365C19.6725 20.0178 19.6127 20.0908 19.5537 20.1523L19.6426 20.0527C19.6721 20.0168 19.702 19.9781 19.7305 19.9375C19.7558 19.9013 19.7791 19.8649 19.8008 19.8291C19.779 19.8651 19.7549 19.9002 19.7295 19.9365ZM25.6523 19.2324C25.2054 19.305 24.7362 19.4278 24.2637 19.5762L24.7344 19.4375C25.0465 19.3521 25.3544 19.2808 25.6523 19.2324ZM21.1611 18.7754C21.1316 18.7224 21.0989 18.6727 21.0635 18.6279L21.1611 18.7754ZM20.5322 18.2666C20.5828 18.2831 20.6326 18.3023 20.6807 18.3252L20.5322 18.2666C20.4814 18.2501 20.4294 18.2361 20.377 18.2256L20.5322 18.2666ZM12.2803 16.6895C12.5407 16.7092 12.7773 16.7383 12.9482 16.7627C13.0341 16.775 13.1049 16.7867 13.1543 16.7949C13.1788 16.7989 13.1982 16.8022 13.2119 16.8047L13.2285 16.8076L13.2334 16.8086H13.2354C13.2431 16.81 13.2512 16.8118 13.2588 16.8135L17.9365 17.8428C17.9555 17.8469 17.9746 17.8526 17.9932 17.8584L18.001 17.8604L18.0342 17.8701C18.0642 17.879 18.1096 17.8924 18.168 17.9082C18.2852 17.9401 18.4536 17.9834 18.6543 18.0264C19.0615 18.1135 19.5768 18.1953 20.0586 18.1953C20.1117 18.1953 20.1656 18.1971 20.2188 18.2021L20.0586 18.1953C19.5768 18.1953 19.0615 18.1135 18.6543 18.0264C18.4536 17.9834 18.2852 17.9401 18.168 17.9082C18.1096 17.8924 18.0642 17.879 18.0342 17.8701L18.001 17.8604L17.9941 17.8574H17.9922C17.9739 17.8517 17.9552 17.8469 17.9365 17.8428L13.2588 16.8135C13.2512 16.8118 13.2431 16.81 13.2354 16.8086H13.2334L13.2285 16.8076L13.2119 16.8047C13.1981 16.8022 13.1779 16.798 13.1533 16.7939C13.104 16.7858 13.0337 16.7749 12.9482 16.7627C12.7773 16.7383 12.5407 16.7092 12.2803 16.6895ZM11.1768 18.0537C11.1593 18.0586 11.1447 18.0637 11.1328 18.0684C11.1602 18.0575 11.2021 18.046 11.2598 18.0352L11.1768 18.0537ZM18.2832 17.9248C18.284 17.9219 18.2865 17.919 18.2871 17.916C18.2881 17.9107 18.2873 17.9046 18.2881 17.8994C18.2869 17.9077 18.2852 17.9163 18.2832 17.9248ZM17.9922 17.5879V17.8574L18.0049 17.8438L18.0439 17.7148L17.9961 17.8516L18.0801 17.5703C18.0644 17.5656 18.0456 17.5608 18.0244 17.5586C18.0174 17.5579 18.0082 17.5578 17.998 17.5576L17.9922 17.5879ZM18.0566 17.6787L18.0049 17.8438L18.0566 17.792L18.1172 17.5869C18.1075 17.5824 18.0996 17.5766 18.0928 17.5742L18.0566 17.6787ZM18.0566 17.792L18.2031 17.6455C18.1855 17.6279 18.1704 17.6147 18.1611 17.6084C18.1463 17.5984 18.1295 17.5927 18.1172 17.5869L18.0566 17.792ZM17.874 17.5811C17.8676 17.5838 17.8617 17.589 17.8545 17.5928C17.8802 17.5794 17.9023 17.5712 17.917 17.5674C17.9039 17.5708 17.889 17.5746 17.874 17.5811ZM17.9922 17.584L17.998 17.5576C17.9965 17.5576 17.9938 17.5576 17.9922 17.5576V17.584ZM11.4434 16.6738C11.1738 16.6891 10.8535 16.7314 10.5781 16.8545C10.2984 16.9796 9.48093 17.2782 8.66699 17.5684V17.5703C9.48124 17.28 10.2983 16.9796 10.5781 16.8545C10.8537 16.7312 11.1745 16.6901 11.4443 16.6748C11.5149 16.6708 11.587 16.6679 11.6582 16.667C11.5868 16.6679 11.5141 16.6698 11.4434 16.6738ZM17.9375 17.5625C17.9556 17.5591 17.9711 17.558 17.9814 17.5576C17.9784 17.5577 17.9749 17.5574 17.9717 17.5576C17.9631 17.5582 17.9513 17.5599 17.9375 17.5625Z" fill="currentColor" style="fill:currentColor;fill:currentColor;fill-opacity:1;"/>
<path fill-rule="evenodd" clip-rule="evenodd" d="M22.667 7.66699L26 9.33301L22.667 11L21 16L19.333 11L16 9.33301L19.333 7.66699L21 2L22.667 7.66699ZM20.4492 8.59961L18.9814 9.33301L20.4238 10.0547L21 11.7832L21.5762 10.0547L23.0186 9.33301L21.5508 8.59961L21 6.72559L20.4492 8.59961Z" fill="currentColor" style="fill:currentColor;fill:currentColor;fill-opacity:1;"/>
<path d="M14 10.667L16 11.333L14 12L13.333 14.667L12.667 12L10.667 11.333L12.667 10.667L13.333 8L14 10.667Z" fill="currentColor" style="fill:currentColor;fill:currentColor;fill-opacity:1;"/>
</svg>
