<svg width="32" height="32" viewBox="0 0 32 32" fill="none" xmlns="http://www.w3.org/2000/svg">
<path fill-rule="evenodd" clip-rule="evenodd" d="M18.9784 12.9831C20.8728 12.9833 22.4248 14.4989 22.5201 16.3985L22.525 16.5835C22.525 17.1191 22.0966 17.5529 21.5692 17.5531C21.0418 17.5529 20.6141 17.119 20.6141 16.5835C20.6141 15.6682 19.88 14.9232 18.9784 14.9229C18.4509 14.9229 18.0227 14.4888 18.0225 13.9534C18.0225 13.4178 18.4509 12.9831 18.9784 12.9831ZM22.1711 16.2509C22.1734 16.2742 22.175 16.2975 22.1768 16.3209C22.171 16.2477 22.1635 16.1752 22.153 16.1034L22.1711 16.2509ZM18.9776 13.3249C19.0406 13.3249 19.1035 13.3271 19.1656 13.3307C19.1582 13.3303 19.1508 13.3294 19.1434 13.329L18.9776 13.3249Z" fill="currentColor" style="fill:currentColor;fill:currentColor;fill-opacity:1;"/>
<path fill-rule="evenodd" clip-rule="evenodd" d="M21.8837 2C22.3783 2.00011 22.785 2.3821 22.8338 2.87114L22.8387 2.97035V5.48291C22.8386 6.01832 22.4111 6.45231 21.8837 6.45242C20.9853 6.45252 20.2024 6.97535 19.825 7.74372C20.1409 7.90186 20.3587 8.2315 20.3588 8.6132V10.6331C23.0156 11.2683 24.9999 13.6943 25 16.5835V27.2474C25 28.7651 23.7836 29.9999 22.2885 30H9.7115C8.21634 30 7 28.7652 7 27.2474V19.8189C7.00012 18.3011 8.21641 17.067 9.7115 17.067H14.1162V8.6132C14.1163 8.35043 14.2197 8.11289 14.3864 7.93879C14.1657 7.68983 13.8868 7.49721 13.5743 7.38442C13.5694 7.81011 13.5324 8.31792 13.4265 8.86328L13.3558 9.19007C12.9983 10.6757 12.0261 12.6417 9.47582 13.6442L9.22372 13.7384C9.12056 13.7748 9.01402 13.7925 8.90922 13.7925C8.56412 13.7925 8.23747 13.6009 8.06916 13.2849L8.00757 13.1415C7.83408 12.636 8.09674 12.0832 8.59471 11.9069L8.8813 11.7968C10.2773 11.2184 11.1479 10.1931 11.5 8.7299L11.5567 8.46731C11.6422 8.01981 11.6659 7.60484 11.6651 7.26938H11.385C11.0459 7.26938 10.7504 7.08871 10.5811 6.81922H8.90922C8.38181 6.81908 7.9542 6.38432 7.9542 5.84887V3.33631C7.95426 2.80086 8.38187 2.36694 8.90922 2.3668H10.6394C10.8139 2.14471 11.0819 2 11.385 2H21.8837ZM22.7533 29.6107C22.6029 29.6411 22.4476 29.6582 22.2885 29.6582L22.5316 29.6457C22.6066 29.6379 22.6804 29.6254 22.7533 29.6107ZM16.0271 18.0366C16.027 18.5719 15.5993 19.0058 15.0721 19.0061H9.7115C9.2703 19.0061 8.91089 19.371 8.91086 19.8189V27.2474C8.91086 27.6953 9.27028 28.0601 9.7115 28.0601H22.2885C22.7296 28.06 23.0891 27.6952 23.0891 27.2474V16.5835C23.0891 14.2826 21.2448 12.4098 18.9784 12.4096H16.0271V18.0366ZM7.37938 27.7033C7.38038 27.7086 7.38163 27.7139 7.38266 27.7192C7.36817 27.6453 7.35665 27.5703 7.349 27.4941L7.37938 27.7033ZM23.3987 27.4941C23.3998 27.4893 23.4019 27.4847 23.4028 27.4799L23.4036 27.4724C23.4022 27.4797 23.4003 27.4869 23.3987 27.4941ZM15.1378 18.6601C15.116 18.6625 15.0936 18.6643 15.0713 18.6643L15.1353 18.661C15.1362 18.6609 15.1369 18.6602 15.1378 18.6601ZM9.11286 13.4157L9.33704 13.3324C9.33989 13.3313 9.34241 13.3293 9.34526 13.3282C9.26919 13.358 9.19193 13.3878 9.11286 13.4157ZM21.207 11.275C21.2821 11.3076 21.3562 11.3418 21.4296 11.3775C21.2826 11.3059 21.1323 11.2404 20.9787 11.1816L21.207 11.275ZM16.0271 10.4705H18.4487V9.58271H16.0271V10.4705ZM12.3401 5.32952H12.9264C14.4592 5.32961 15.8363 6.26684 16.4541 7.64368H17.8287C18.238 6.13867 19.4319 4.97665 20.9286 4.62427V3.93986H12.3401V5.32952ZM13.7229 7.07515C13.8018 7.1051 13.8788 7.13939 13.9536 7.17768C13.8415 7.12029 13.7246 7.07183 13.6038 7.03346L13.7229 7.07515ZM13.3575 6.97011C13.3994 6.97838 13.4411 6.98786 13.4823 6.99845L13.3575 6.97011ZM10.8217 6.55996C10.8222 6.56109 10.8228 6.56217 10.8234 6.5633C10.8108 6.5357 10.7999 6.50702 10.7913 6.47743L10.8217 6.55996ZM20.9722 4.96356C20.876 4.98709 20.7813 5.01459 20.688 5.04525C20.8746 4.98392 21.0677 4.93655 21.2653 4.90437L20.9722 4.96356ZM9.86505 4.87936H10.4292V4.30582H9.86505V4.87936ZM11.2266 2.36263C11.2227 2.36366 11.2189 2.36486 11.2151 2.36596C11.2405 2.35861 11.2664 2.35247 11.2931 2.34846L11.2266 2.36263Z" fill="currentColor" style="fill:currentColor;fill:currentColor;fill-opacity:1;"/>
</svg>
