<svg width="32" height="32" viewBox="0 0 32 32" fill="none" xmlns="http://www.w3.org/2000/svg">
<path d="M6.66675 19.9208V16.515C6.66668 15.9654 6.78185 15.4213 7.00529 14.9136C7.22869 14.406 7.55603 13.9449 7.96883 13.5564L10.3256 11.3382L10.407 11.2688C10.6047 11.1163 10.8533 11.0319 11.1112 11.0319H15.2855L15.5036 11.0216C15.7207 11.0015 15.9338 10.9514 16.1361 10.8725C16.4059 10.7674 16.6513 10.6134 16.8577 10.4191L20.0999 7.36659C19.8187 7.39035 19.5301 7.31409 19.2991 7.13681L19.2145 7.06532L16.4367 4.45092L16.3608 4.37126C16.0048 3.96051 16.0299 3.35502 16.4367 2.97215C16.8435 2.58928 17.4868 2.56565 17.9233 2.90066L18.0079 2.97215L20.7857 5.58655L20.8616 5.66621C21.0629 5.89847 21.1408 6.19257 21.0982 6.47402C21.5248 6.23423 22.0849 6.28651 22.4523 6.63231C22.8197 6.97802 22.874 7.50428 22.6194 7.90581C22.9188 7.86543 23.2318 7.93984 23.4788 8.12946L23.5634 8.20095L26.3412 10.8154C26.5496 11.0115 26.6667 11.2774 26.6667 11.5547V28.2869C26.6667 28.8645 26.1693 29.3327 25.5556 29.3327C24.942 29.3327 24.4445 28.8645 24.4445 28.2869V11.9878L21.9923 9.67972L21.9163 9.60007C21.7277 9.38245 21.6456 9.11034 21.6711 8.84536L18.4289 11.8979C18.0162 12.2864 17.5262 12.5945 16.9868 12.8048C16.8817 12.8458 16.7746 12.8818 16.6667 12.915V17.3064C16.6667 17.4708 16.6246 17.6255 16.5528 17.7639L17.8256 16.567L17.907 16.4976C18.1047 16.3451 18.3533 16.2607 18.6112 16.2607H18.889C19.3098 16.2607 19.6947 16.4844 19.8829 16.8387L20.2117 17.4576L20.356 17.7159C21.0593 18.901 22.1482 19.8427 23.4615 20.4039L23.7457 20.5183L23.8488 20.5632C24.3481 20.8086 24.5788 21.3747 24.3653 21.8775C24.1517 22.3803 23.5698 22.6414 23.0285 22.4954L22.9211 22.4607L22.5424 22.3085C20.852 21.5861 19.4433 20.3879 18.507 18.8822L16.8436 20.4478C17.2852 20.41 17.7264 20.6252 17.9374 21.0207L18.1685 21.4547L18.2108 21.5313L18.4408 21.9307C19.5569 23.7639 21.2583 25.2202 23.303 26.0923L23.7457 26.2699L23.8488 26.3149C24.3481 26.5603 24.5788 27.1264 24.3653 27.6292C24.1517 28.1319 23.5698 28.3931 23.0285 28.2471L22.9211 28.2124L22.3851 27.9969C19.7389 26.8682 17.5682 24.9291 16.2338 22.4883L16.2316 22.4852L16.1698 22.3698L16.1665 22.3626L15.9506 21.9572C15.8546 21.7764 15.8194 21.582 15.8378 21.3945L15.586 21.6324V21.6335C15.1285 22.0639 14.5451 22.3562 13.9107 22.475C13.2762 22.5938 12.6182 22.5332 12.0205 22.3003C11.4231 22.0675 10.912 21.6736 10.5524 21.1678C10.1927 20.6617 10.0006 20.066 10.0001 19.4572V14.692C10.0001 14.66 10.0014 14.6283 10.0044 14.597L9.54001 15.0352C9.33356 15.2294 9.16996 15.4605 9.05824 15.7143C8.94659 15.9681 8.88894 16.2403 8.88897 16.515V19.9208C8.88897 20.4984 8.39151 20.9666 7.77786 20.9666C7.16421 20.9666 6.66675 20.4984 6.66675 19.9208ZM12.3547 4.78385C12.7541 4.83415 13.1392 4.95853 13.4875 5.14945C13.8358 5.34039 14.1402 5.59477 14.3838 5.89701C14.6273 6.19923 14.8053 6.54401 14.9068 6.91111H14.9057C15.1981 7.95543 14.7483 8.94516 14.4 9.52858C14.2106 9.84585 14.0103 10.1108 13.8586 10.2955C13.7821 10.3887 13.7163 10.4645 13.6676 10.5182C13.6433 10.5449 13.6231 10.5665 13.6079 10.5825C13.6006 10.5903 13.5944 10.5968 13.5895 10.6019C13.587 10.6044 13.5848 10.6072 13.583 10.6091C13.5821 10.61 13.5805 10.6104 13.5797 10.6111L13.5786 10.6121V10.6131C13.4724 10.7213 13.3428 10.8067 13.2 10.8644L13.0535 10.9124L12.7301 10.9951C12.5779 11.034 12.4192 11.0417 12.2646 11.0186L12.1116 10.9859L12.1105 10.9849H12.1095L12.0964 10.9808C12.0894 10.9787 12.08 10.9759 12.0693 10.9726C12.0477 10.9659 12.0188 10.9567 11.9836 10.9451C11.9128 10.9216 11.8152 10.8884 11.6993 10.8439C11.4696 10.7558 11.1554 10.6207 10.8226 10.4354C10.2479 10.1156 9.40406 9.5265 9.05607 8.59005L8.99314 8.39805C8.78388 7.65924 8.89351 6.87259 9.29804 6.20951C9.70255 5.54647 10.3691 5.06075 11.1524 4.8584L11.16 4.85635L11.4541 4.79712C11.7514 4.75115 12.055 4.74611 12.3547 4.78385ZM11.7351 6.87639C11.5197 6.93346 11.3366 7.06839 11.2251 7.25119C11.1127 7.43549 11.0823 7.65453 11.1405 7.85985L11.1741 7.94666C11.2747 8.15557 11.5318 8.39985 11.9543 8.63498C12.063 8.69551 12.1707 8.74868 12.2711 8.7943C12.3343 8.7067 12.4006 8.60904 12.4632 8.50426C12.7385 8.04307 12.8215 7.67151 12.7572 7.44318L12.7562 7.43706C12.7285 7.33699 12.6793 7.24268 12.6129 7.1603C12.5466 7.07808 12.4636 7.00904 12.3688 6.95707C12.2738 6.90499 12.1685 6.8707 12.0595 6.85699C11.9511 6.84338 11.8408 6.84994 11.7351 6.87639ZM12.2223 19.4551L12.2342 19.6012C12.2571 19.7448 12.3127 19.8829 12.3992 20.0046C12.5146 20.1669 12.6794 20.2934 12.8712 20.3681C13.0627 20.4426 13.2734 20.4623 13.4766 20.4243C13.6802 20.3862 13.868 20.2918 14.0148 20.1537L16.0417 18.245C15.8947 18.3126 15.7303 18.3522 15.5556 18.3522C14.942 18.3522 14.4445 17.884 14.4445 17.3064V13.1234H11.5713L11.0103 13.6503C11.0435 13.6475 11.0772 13.6463 11.1112 13.6463C11.7248 13.6463 12.2223 14.1145 12.2223 14.692V19.4551Z" fill="currentColor" style="fill:currentColor;fill:currentColor;fill-opacity:1;"/>
</svg>
