<svg width="32" height="32" viewBox="0 0 32 32" fill="none" xmlns="http://www.w3.org/2000/svg">
<path d="M11.9997 17.666L12.1022 17.6709C12.6065 17.7221 12.9997 18.1482 12.9997 18.666C12.9997 19.1838 12.6065 19.6099 12.1022 19.6611L11.9997 19.666H10.6667C10.1144 19.666 9.66667 19.2183 9.66667 18.666C9.66667 18.1137 10.1144 17.666 10.6667 17.666H11.9997Z" fill="currentColor" style="fill:currentColor;fill:currentColor;fill-opacity:1;"/>
<path d="M21.333 17.666L21.4355 17.6709C21.9398 17.7221 22.333 18.1482 22.333 18.666C22.333 19.1838 21.9398 19.6099 21.4355 19.6611L21.333 19.666H20C19.4477 19.666 19 19.2183 19 18.666C19 18.1137 19.4477 17.666 20 17.666H21.333Z" fill="currentColor" style="fill:currentColor;fill:currentColor;fill-opacity:1;"/>
<path d="M17 28.333H27V3.66602H17V28.333ZM5 28.333H15V3.66602H5V28.333ZM29 28.5322C29 29.5263 28.1943 30.3329 27.2002 30.333H4.7998C3.80582 30.3329 3 29.5263 3 28.5322V3.46582C3.00011 2.47186 3.80585 1.66612 4.7998 1.66602H27.2002C28.1942 1.66612 28.9999 2.4719 29 3.46582V28.5322Z" fill="currentColor" style="fill:currentColor;fill:currentColor;fill-opacity:1;"/>
</svg>
