<svg width="32" height="32" viewBox="0 0 32 32" fill="none" xmlns="http://www.w3.org/2000/svg">
<g clip-path="url(#clip0_2989_43908)">
<path fill-rule="evenodd" clip-rule="evenodd" d="M25.6006 22.0986C26.4734 22.0989 27.1805 22.8059 27.1807 23.6787C27.1807 24.5517 26.4735 25.2585 25.6006 25.2588C24.7274 25.2588 24.0205 24.5519 24.0205 23.6787C24.0207 22.8057 24.7275 22.0986 25.6006 22.0986ZM25.5996 24.958L25.6006 24.959C25.6441 24.959 25.6871 24.9564 25.7295 24.9521C25.6869 24.9564 25.6433 24.958 25.5996 24.958ZM26.8799 23.6787C26.8799 23.7662 26.8712 23.852 26.8545 23.9346C26.8628 23.8936 26.8697 23.8519 26.874 23.8096L26.8799 23.6787ZM25.5996 22.3994C25.731 22.3994 25.8583 22.4184 25.9775 22.4551C25.8985 22.4308 25.8162 22.4139 25.7314 22.4053L25.5996 22.3994Z" fill="currentColor" style="fill:currentColor;fill:currentColor;fill-opacity:1;"/>
<path fill-rule="evenodd" clip-rule="evenodd" d="M24.6201 -0.300781C27.7869 -0.300649 30.3799 2.2751 30.3799 5.43945C30.3798 6.98401 29.762 8.38693 28.7607 9.41895L31.6562 26.7295L31.6582 26.7432L31.6592 26.7559C31.6623 26.796 31.6613 26.8381 31.6592 26.8789L31.6602 29.7588C31.6602 31.1544 30.5157 32.2987 29.1201 32.2988H4.7998C3.75946 32.2986 2.9006 31.4398 2.90039 30.3994V27.8389C2.90048 26.7984 3.75938 25.9397 4.7998 25.9395H6.61328C6.49709 25.741 6.38193 25.5244 6.26953 25.2871C6.08817 24.9017 5.9205 24.4707 5.76172 23.9795H4.16016C2.41202 23.9794 0.980469 22.547 0.980469 20.7988C0.980577 19.0508 2.41209 17.6192 4.16016 17.6191C4.40059 17.6192 4.62398 17.6485 4.83105 17.6953C4.82897 17.5943 4.82541 17.4924 4.82422 17.3896L4.82031 16.6387C4.81798 16.1511 5.18875 15.7443 5.67285 15.7002L5.68652 15.6992H17.9199C18.4379 15.6994 18.8602 16.1207 18.8604 16.6387C18.8604 20.6254 18.2901 23.2505 17.5596 24.958L17.4111 25.2871C17.2987 25.5244 17.1836 25.741 17.0674 25.9395H20.1807V11.1787H13.7402V14.3789H9.94043V11.1787H8.62012C5.4534 11.1786 2.86059 8.60364 2.86035 5.43945C2.86035 2.27507 5.45326 -0.300696 8.62012 -0.300781H24.6201ZM27.0508 10.6318C26.3123 10.9791 25.4888 11.1787 24.6201 11.1787H22.0605V26.8789C22.0605 27.397 21.6382 27.8192 21.1201 27.8193H4.7998C4.79311 27.8194 4.78902 27.8206 4.78711 27.8213C4.786 27.8217 4.78471 27.822 4.78418 27.8223C4.78395 27.8225 4.78292 27.8236 4.78223 27.8252C4.78154 27.8269 4.78029 27.8313 4.78027 27.8389V30.3994C4.78032 30.4068 4.78154 30.4114 4.78223 30.4131C4.78286 30.4144 4.78393 30.4148 4.78418 30.415C4.78454 30.4154 4.78555 30.4164 4.78711 30.417C4.78906 30.4177 4.7932 30.4189 4.7998 30.4189H29.1201C29.4918 30.4188 29.7803 30.1305 29.7803 29.7588V27.0039L27.0508 10.6318ZM4.50391 30.5264C4.50645 30.5326 4.51076 30.538 4.51367 30.5439C4.50167 30.5192 4.49178 30.4931 4.48633 30.4648L4.50391 30.5264ZM21.249 27.5059L21.3398 27.4795C21.3439 27.478 21.3475 27.4752 21.3516 27.4736C21.3184 27.4866 21.2846 27.4985 21.249 27.5059ZM21.7598 26.8789C21.7598 26.9606 21.743 27.0384 21.7148 27.1104C21.7278 27.0772 21.7398 27.0433 21.7471 27.0078L21.7598 26.8789ZM4.48926 26.2695C4.48701 26.27 4.48467 26.27 4.48242 26.2705C4.53334 26.26 4.58524 26.2525 4.6377 26.2471L4.48926 26.2695ZM16.5205 26.2393L16.6377 26.0654C16.6463 26.0523 16.6545 26.0388 16.6631 26.0254L16.5205 26.2393ZM6.69238 25.4668C6.79476 25.6628 6.89868 25.8414 7.00293 26.0049L6.84766 25.748C6.79577 25.6581 6.74376 25.5652 6.69238 25.4668ZM6.76855 17.5791C6.85825 20.8023 7.32711 22.9573 7.86035 24.2227L7.97168 24.4707L8.09082 24.7119C8.36663 25.2438 8.6299 25.5756 8.8252 25.7598L8.93555 25.8506C8.97004 25.8754 9.00201 25.8953 9.0293 25.9111C9.04867 25.9223 9.0661 25.9311 9.08203 25.9395H14.5986C14.6146 25.9311 14.632 25.9223 14.6514 25.9111C14.7059 25.8795 14.7786 25.8317 14.8555 25.7598C15.0787 25.5492 15.391 25.1453 15.709 24.4707L15.8193 24.2227C16.3526 22.9573 16.8214 20.8025 16.9111 17.5791H6.76855ZM17.2842 24.8398C17.2369 24.9504 17.1881 25.0567 17.1396 25.1592C17.1187 25.2035 17.0963 25.2463 17.0752 25.2891L17.1396 25.1592C17.1851 25.0631 17.231 24.9635 17.2754 24.8604L17.2842 24.8398ZM16.1602 24.1777C16.1007 24.3283 16.0417 24.4689 15.9805 24.5986L16.0957 24.3408C16.1179 24.2881 16.1382 24.2333 16.1602 24.1777ZM4.16016 19.499C3.43596 19.4991 2.86046 20.0746 2.86035 20.7988C2.86035 21.5231 3.4359 22.0986 4.16016 22.0986H5.29492C5.16144 21.4144 5.05241 20.6573 4.97363 19.8096C4.78488 19.6522 4.51851 19.4991 4.16016 19.499ZM2.55957 20.7988C2.55957 20.8154 2.56201 20.8321 2.5625 20.8486L2.55957 20.7988ZM2.68457 20.1738C2.67817 20.1891 2.67391 20.2052 2.66797 20.2207C2.69264 20.1563 2.71954 20.0932 2.75195 20.0332L2.68457 20.1738ZM5.13965 18.0986L5.13867 18.0977C5.07318 18.073 5.00536 18.0508 4.93555 18.0303C5.00575 18.0509 5.07378 18.0738 5.13965 18.0986ZM18.5596 16.6387C18.5596 16.8562 18.5571 17.07 18.5537 17.2793L18.5596 16.6387ZM5.28516 16.2051C5.2592 16.2337 5.23627 16.265 5.21582 16.2979L5.28516 16.2051C5.31131 16.1762 5.34003 16.1507 5.37109 16.127L5.28516 16.2051ZM11.8203 12.499H11.8604V11.1787H11.8203V12.499ZM24.9795 10.8672L25.2881 10.8379C25.2969 10.8368 25.3056 10.8342 25.3145 10.833C25.2037 10.8474 25.0922 10.8597 24.9795 10.8672ZM8.62012 1.5791C6.47185 1.57919 4.74023 3.30171 4.74023 5.43945C4.74047 7.577 6.47199 9.29874 8.62012 9.29883H10.7236C10.8204 9.28369 10.9198 9.2837 11.0166 9.29883H24.6201C26.7682 9.2987 28.4998 7.57697 28.5 5.43945C28.5 3.30174 26.7683 1.57923 24.6201 1.5791H8.62012ZM4.10645 8.49316C4.30063 8.77669 4.52072 9.04134 4.76367 9.2832L4.58301 9.09375C4.41068 8.90506 4.25118 8.70451 4.10645 8.49316ZM28.9541 8.74121C28.7965 8.94566 28.6251 9.13919 28.4404 9.31934L28.6143 9.1416C28.7339 9.0138 28.8471 8.88 28.9541 8.74121ZM3.22266 4.6123C3.19489 4.79219 3.17648 4.97501 3.16699 5.16016L3.18848 4.88379C3.20721 4.70132 3.23497 4.52148 3.27148 4.34473L3.22266 4.6123ZM4.24805 2.1875C4.19563 2.2572 4.14479 2.32817 4.0957 2.40039C4.19412 2.2556 4.29957 2.1159 4.41113 1.98145L4.24805 2.1875ZM7.79102 0.0615234C7.77731 0.0636232 7.76367 0.0661574 7.75 0.0683594C7.85357 0.0516856 7.9581 0.0380794 8.06348 0.0273438L7.79102 0.0615234Z" fill="currentColor" style="fill:currentColor;fill:currentColor;fill-opacity:1;"/>
</g>
<defs>
<clipPath id="clip0_2989_43908">
<rect width="32" height="32" fill="currentColor" style="fill:currentColor;fill-opacity:1;"/>
</clipPath>
</defs>
</svg>
