<svg width="32" height="32" viewBox="0 0 32 32" fill="none" xmlns="http://www.w3.org/2000/svg">
<path d="M26.8574 19.4287C26.8574 18.1784 26.3607 16.9788 25.4766 16.0947C24.6478 15.266 23.542 14.7776 22.377 14.7197L22.1426 14.7139H22V24.1426H22.1426C23.3929 24.1426 24.5925 23.6458 25.4766 22.7617C26.3605 21.8777 26.8574 20.6788 26.8574 19.4287ZM8.57129 7.57129V3C8.57129 2.44776 9.01907 2.00007 9.57129 2C10.1236 2 10.5713 2.44772 10.5713 3V7.57129C10.5713 8.12357 10.1236 8.57129 9.57129 8.57129C9.01907 8.57121 8.57129 8.12353 8.57129 7.57129ZM15.4287 7.57129V3C15.4287 2.44772 15.8764 2 16.4287 2C16.9809 2.00008 17.4287 2.44776 17.4287 3V7.57129C17.4287 8.12353 16.9809 8.57121 16.4287 8.57129C15.8764 8.57129 15.4287 8.12357 15.4287 7.57129ZM28.8574 19.4287C28.8574 21.2094 28.1498 22.9176 26.8906 24.1768C25.6315 25.4358 23.9232 26.1426 22.1426 26.1426H21.9082C21.7064 27.2485 21.1741 28.276 20.3682 29.082C19.3234 30.1268 17.9063 30.7138 16.4287 30.7139H9.57129C8.0937 30.7138 6.67665 30.1268 5.63184 29.082C4.58712 28.0372 4 26.6201 4 25.1426V13.7139C4.00011 12.8426 4.34587 12.0067 4.96191 11.3906C5.5781 10.7744 6.41471 10.4287 7.28613 10.4287H18.7139C19.5853 10.4287 20.4219 10.7744 21.0381 11.3906C21.4119 11.7644 21.6857 12.2195 21.8438 12.7139H22.1426L22.4756 12.7227C24.1351 12.8049 25.7101 13.5002 26.8906 14.6807C28.1498 15.9398 28.8574 17.648 28.8574 19.4287ZM6 25.1426C6 26.0897 6.37626 26.9982 7.0459 27.668C7.71564 28.3377 8.62414 28.7138 9.57129 28.7139H16.4287C17.3759 28.7138 18.2844 28.3377 18.9541 27.668C19.6237 26.9982 20 26.0897 20 25.1426V13.7139C19.9999 13.373 19.8641 13.0457 19.623 12.8047C19.382 12.5638 19.0547 12.4287 18.7139 12.4287H7.28613C6.94534 12.4287 6.61803 12.5638 6.37695 12.8047C6.13593 13.0457 6.00011 13.373 6 13.7139V25.1426Z" fill="currentColor" style="fill:currentColor;fill:currentColor;fill-opacity:1;"/>
</svg>
