<svg xmlns="http://www.w3.org/2000/svg" width="26" height="23" viewBox="0 0 26 23" fill="none">
  <path d="M12 21.667V16.334C12 15.7817 12.4477 15.334 13 15.334C13.5523 15.334 14 15.7817 14 16.334V21.667C14 22.2193 13.5523 22.667 13 22.667C12.4477 22.667 12 22.2193 12 21.667ZM6.66699 16.334C6.66699 15.7817 7.11471 15.334 7.66699 15.334C8.21913 15.3342 8.66699 15.7818 8.66699 16.334C8.66691 17.66 8.13975 18.9315 7.20215 19.8691C6.26454 20.8067 4.99296 21.3339 3.66699 21.334C3.11482 21.334 2.66717 20.8861 2.66699 20.334C2.66699 19.7817 3.11471 19.334 3.66699 19.334C4.46252 19.3339 5.22555 19.0176 5.78809 18.4551C6.35062 17.8925 6.66691 17.1295 6.66699 16.334ZM17.333 16.334C17.333 15.7818 17.7809 15.3342 18.333 15.334C18.8853 15.334 19.333 15.7817 19.333 16.334C19.3331 17.1295 19.6494 17.8925 20.2119 18.4551C20.7043 18.9474 21.3502 19.2512 22.0371 19.3193L22.333 19.334L22.4355 19.3389C22.9398 19.3901 23.333 19.8162 23.333 20.334C23.3328 20.8516 22.9397 21.2769 22.4355 21.3281L22.333 21.334L22.085 21.3271C20.8493 21.2657 19.6768 20.7481 18.7979 19.8691C17.8602 18.9315 17.3331 17.6599 17.333 16.334ZM18.667 8.33398C18.667 8.24558 18.6318 8.16017 18.5693 8.09766C18.5068 8.03515 18.4214 8 18.333 8H7.66699C7.57859 8 7.49318 8.03514 7.43066 8.09766C7.36815 8.16017 7.33301 8.24558 7.33301 8.33398V11.334H18.667V8.33398ZM20.667 11.334H22.333C22.775 11.334 23.1992 11.1582 23.5117 10.8457C23.8243 10.5331 24 10.109 24 9.66699V4.33398C24 3.89196 23.8243 3.46783 23.5117 3.15527C23.1992 2.84271 22.775 2.66699 22.333 2.66699H3.66699C3.22496 2.66699 2.80084 2.84271 2.48828 3.15527C2.17572 3.46783 2 3.89196 2 4.33398V9.66699L2.00781 9.83203C2.04575 10.2135 2.21486 10.5723 2.48828 10.8457C2.80083 11.1582 3.22504 11.334 3.66699 11.334H5.33301V8.33398C5.33301 7.71515 5.57902 7.12118 6.0166 6.68359C6.45419 6.24601 7.04815 6 7.66699 6H18.333C18.9518 6 19.5458 6.24601 19.9834 6.68359C20.421 7.12118 20.667 7.71515 20.667 8.33398V11.334ZM26 9.66699C26 10.6395 25.6134 11.5721 24.9258 12.2598C24.2382 12.9473 23.3054 13.334 22.333 13.334H3.66699C2.69461 13.334 1.76184 12.9473 1.07422 12.2598C0.386585 11.5721 0 10.6395 0 9.66699V4.33398C0 3.36152 0.386585 2.42884 1.07422 1.74121C1.76185 1.05358 2.69453 0.666992 3.66699 0.666992H22.333C23.3055 0.666992 24.2381 1.05358 24.9258 1.74121C25.6134 2.42884 26 3.36152 26 4.33398V9.66699Z" fill="currentColor" style="fill:currentColor;fill:color(currentColor);fill-opacity:1;"/>
</svg>