<svg width="32" height="32" viewBox="0 0 32 32" fill="none" xmlns="http://www.w3.org/2000/svg">
<path fill-rule="evenodd" clip-rule="evenodd" d="M5.33276 3.1373L26.4177 3.13632C26.7192 3.1273 27.0197 3.17793 27.3015 3.28574C27.588 3.39532 27.8493 3.56213 28.0701 3.77499C28.2908 3.98784 28.4667 4.2428 28.5867 4.52499C28.7066 4.80722 28.7683 5.11092 28.7683 5.41757C28.7683 5.72421 28.7066 6.02792 28.5867 6.31015C28.4667 6.59242 28.2908 6.84823 28.0701 7.06113C27.8493 7.27388 27.5878 7.43986 27.3015 7.54941C27.2616 7.56469 27.2201 7.57548 27.1794 7.58847V11.4332C27.1785 12.0346 26.9402 12.612 26.5164 13.0387C26.2803 13.2761 25.9964 13.4539 25.6882 13.568V19.773C25.9174 19.8211 26.1437 19.8876 26.3621 19.9781C27.0545 20.2653 27.6461 20.7521 28.0623 21.3756C28.4784 21.9991 28.7004 22.7324 28.7 23.482C28.6983 24.4856 28.2992 25.4491 27.5896 26.1588C26.8799 26.8684 25.9174 27.2674 24.9138 27.2691C24.1642 27.2696 23.43 27.0475 22.8064 26.6314C22.1828 26.2152 21.6961 25.6238 21.4089 24.9312C21.1217 24.2386 21.047 23.4762 21.1931 22.7408C21.3393 22.0055 21.7001 21.3296 22.2302 20.7994C22.7522 20.2775 23.4153 19.9205 24.1375 19.7701V13.5719C23.826 13.4591 23.5383 13.2829 23.2996 13.0445C22.872 12.6175 22.6313 12.0375 22.6296 11.4332V7.68808H18.283V11.4332C18.2813 12.0375 18.0396 12.6175 17.6121 13.0445C17.3735 13.2827 17.0861 13.4591 16.7751 13.5719V19.9127C17.1601 19.8965 17.5448 19.8708 17.9285 19.8307C18.3892 19.7796 18.852 19.9047 19.2234 20.1822C19.5485 20.4252 19.7825 20.768 19.8904 21.1559L19.9285 21.3238L19.9304 21.3316L20.7947 26.7975L20.7957 26.8023L20.8103 26.9644C20.817 27.1273 20.7987 27.291 20.7556 27.4488C20.6981 27.659 20.5981 27.8551 20.4617 28.025L20.4597 28.0279C20.2641 28.2671 20.0216 28.4639 19.7478 28.607C19.4769 28.7487 19.1803 28.8338 18.8757 28.859L18.8767 28.86C18.16 28.9358 17.4407 28.9834 16.7205 29.0025L15.9998 29.0123C15.0362 29.0124 14.0732 28.9615 13.115 28.86C12.8108 28.8352 12.5145 28.7495 12.2439 28.608C12.0383 28.5005 11.8506 28.3623 11.6873 28.1988L11.532 28.0269C11.3934 27.8568 11.2919 27.6595 11.2341 27.4478C11.1764 27.2359 11.1639 27.0136 11.197 26.7965V26.7945L12.0593 21.3346L12.0613 21.3277L12.0994 21.1588C12.2068 20.7704 12.4402 20.4267 12.7654 20.1832C13.1368 19.9051 13.6001 19.7787 14.0613 19.8297L14.0603 19.8307C14.4475 19.8711 14.8358 19.8976 15.2244 19.9137V13.5719C14.9135 13.4592 14.6267 13.2826 14.3884 13.0445C13.9612 12.6173 13.7214 12.0373 13.7205 11.4332V7.68808H9.30737V11.4332C9.30567 12.0375 9.06407 12.6175 8.63647 13.0445C8.39807 13.2825 8.11124 13.4591 7.80054 13.5719V19.7857C9.56276 20.2206 10.8123 22.1084 10.8123 24.235C10.812 26.6618 9.18713 28.7749 7.02515 28.775C4.8656 28.775 3.23727 26.6594 3.23706 24.235C3.23706 22.1107 4.48718 20.2209 6.24976 19.7857V13.5719C5.93865 13.4591 5.65127 13.2829 5.41284 13.0445C4.98564 12.6173 4.74579 12.0373 4.74487 11.4332V7.65195C4.64004 7.63224 4.53587 7.60811 4.43433 7.57382C4.13413 7.47242 3.85762 7.31011 3.62378 7.09628C3.38996 6.88244 3.20369 6.62159 3.07593 6.33163C2.98013 6.11416 2.91882 5.88344 2.89429 5.64804L2.88159 5.41171C2.88162 5.09488 2.94818 4.78076 3.07593 4.49081C3.20365 4.20111 3.39016 3.94085 3.62378 3.72714C3.85762 3.51333 4.13413 3.35002 4.43433 3.24863C4.72333 3.15107 5.02881 3.11481 5.33276 3.1373ZM11.7703 27.6764C11.7926 27.7104 11.8167 27.7433 11.8425 27.775C12.0036 27.9726 12.2035 28.1354 12.4294 28.2535C12.6554 28.3716 12.9028 28.4431 13.157 28.4625C13.8651 28.5375 14.5762 28.5844 15.2878 28.6031L15.9998 28.6119C15.0503 28.612 14.1012 28.5625 13.157 28.4625C12.9028 28.4431 12.6554 28.3716 12.4294 28.2535C12.2035 28.1354 12.0036 27.9726 11.8425 27.775C11.7909 27.7116 11.7459 27.6423 11.7087 27.5699L11.7703 27.6764ZM19.5623 28.2525C19.4548 28.3087 19.342 28.3528 19.2263 28.3873C19.2813 28.3709 19.3361 28.3539 19.3894 28.3326L19.5623 28.2525ZM6.51929 28.3277C6.62842 28.3478 6.73907 28.3628 6.85132 28.3697L7.02515 28.3746C6.8533 28.3746 6.68433 28.3581 6.51929 28.3277ZM20.1501 27.774C20.0745 27.8665 19.9894 27.9507 19.8982 28.0269C19.9406 27.9915 19.982 27.9547 20.0212 27.9156L20.1501 27.774ZM12.6033 27.4762C12.6127 27.4835 12.6229 27.4897 12.6326 27.4967C12.5921 27.4672 12.5527 27.4364 12.5164 27.4019L12.6033 27.4762ZM18.1013 21.3687L18.0916 21.3697C16.7032 21.517 15.3033 21.5169 13.9148 21.3707L13.863 21.3697C13.8001 21.3694 13.7389 21.3912 13.6902 21.4312C13.6431 21.47 13.6102 21.5232 13.5974 21.5826L12.7341 27.026L12.7361 27.0465C12.7376 27.0517 12.7398 27.0567 12.7429 27.0611C12.8078 27.1351 12.8863 27.1959 12.9744 27.2398C13.0191 27.2621 13.066 27.2805 13.114 27.2935L13.2615 27.318L13.2693 27.3189H13.2761C15.0867 27.5085 16.9128 27.5085 18.7234 27.3189H18.7302L18.738 27.318C18.8378 27.3112 18.9356 27.2845 19.0251 27.2398C19.1138 27.1956 19.1925 27.1339 19.2576 27.0592C19.2607 27.0549 19.2638 27.0506 19.2654 27.0455C19.267 27.0402 19.2666 27.0344 19.2664 27.0289L18.407 21.5894L18.3923 21.5396C18.3732 21.4915 18.3402 21.4493 18.2976 21.4185C18.2409 21.3776 18.1707 21.3597 18.1013 21.3687ZM7.02515 21.2428C5.88131 21.2428 4.78784 22.4865 4.78784 24.235C4.78804 25.9828 5.88109 27.2252 7.02515 27.2252C8.16913 27.225 9.26225 25.9827 9.26245 24.235C9.26245 22.4863 8.1712 21.2429 7.02515 21.2428ZM24.4187 26.8326C24.4992 26.8444 24.5805 26.854 24.6619 26.86L24.9128 26.8697C24.9269 26.8697 24.9408 26.867 24.9548 26.8668C24.9406 26.867 24.9261 26.8687 24.9119 26.8687C24.7461 26.8688 24.5814 26.8564 24.4187 26.8326ZM27.4216 25.7535C27.3842 25.7949 27.3461 25.8359 27.3064 25.8756C27.2525 25.9295 27.1955 25.98 27.1384 26.0299C27.1535 26.0167 27.1705 26.0052 27.1853 25.9918L27.3064 25.8756C27.3856 25.7963 27.4605 25.7135 27.531 25.6275L27.4216 25.7535ZM24.9119 21.2418C24.4691 21.2415 24.0361 21.3732 23.6677 21.6187C23.2992 21.8646 23.0114 22.2145 22.8416 22.6236C22.6718 23.0328 22.6265 23.4831 22.7126 23.9176C22.7988 24.3522 23.0127 24.7516 23.3259 25.065C23.639 25.3783 24.038 25.5917 24.4724 25.6783C24.9069 25.7648 25.358 25.7208 25.7673 25.5514C26.1764 25.3818 26.5262 25.0943 26.7722 24.7262C27.0182 24.3579 27.1501 23.9249 27.1501 23.482L27.1394 23.2613C27.0882 22.749 26.8609 22.2675 26.4939 21.9C26.0744 21.4801 25.5054 21.243 24.9119 21.2418ZM21.8835 25.0064C21.9585 25.1551 22.044 25.2978 22.1394 25.4332L22.0037 25.2242C21.961 25.1532 21.921 25.0806 21.8835 25.0064ZM9.58765 25.0211C9.59412 24.9863 9.6035 24.9518 9.60913 24.9166L9.61206 24.8961C9.60554 24.9382 9.59537 24.9795 9.58765 25.0211ZM28.1003 24.6227C28.063 24.7266 28.0206 24.8285 27.9734 24.9283L28.0408 24.7779C28.0619 24.727 28.0817 24.6745 28.1003 24.6227ZM28.2996 23.482C28.2991 23.7626 28.2646 24.0397 28.197 24.3072L28.2332 24.1461C28.2769 23.9291 28.2992 23.7067 28.2996 23.482ZM22.3201 23.9947C22.3392 24.0911 22.3648 24.1859 22.3943 24.2789C22.3844 24.2478 22.3747 24.2166 22.366 24.1852L22.321 23.9957C22.3156 23.9681 22.3119 23.9403 22.3074 23.9127C22.3119 23.94 22.3147 23.9675 22.3201 23.9947ZM21.5203 23.5016C21.5203 23.512 21.5211 23.5224 21.5212 23.5328C21.5201 23.4602 21.5207 23.3876 21.5242 23.315L21.5203 23.5016ZM22.5525 22.2916C22.5232 22.3496 22.4965 22.409 22.4714 22.4693C22.4381 22.5496 22.4106 22.6318 22.3855 22.7144C22.3917 22.6941 22.3973 22.6732 22.4041 22.6529L22.4724 22.4703C22.5162 22.3649 22.5663 22.2628 22.6228 22.1646L22.5525 22.2916ZM27.1062 22.0191C27.1538 22.0906 27.1977 22.1643 27.238 22.2398L27.1062 22.0191C27.0584 21.9475 27.0068 21.8772 26.9519 21.8102L27.1062 22.0191ZM5.16187 21.8365C5.10205 21.9134 5.04487 21.9938 4.99097 22.0777L5.16187 21.8365C5.22169 21.7596 5.28407 21.6871 5.34937 21.6178L5.16187 21.8365ZM27.7292 21.5973C27.7758 21.6671 27.82 21.7384 27.8611 21.8111L27.7292 21.5973ZM25.5378 20.9215C26.0028 21.0357 26.4331 21.2725 26.7771 21.6168L26.5837 21.441C26.2779 21.19 25.92 21.0144 25.5388 20.9205L25.5378 20.9215ZM23.1375 21.525C23.1163 21.5442 23.0964 21.5647 23.0759 21.5846C23.1022 21.5591 23.1286 21.5337 23.156 21.5094L23.1375 21.525ZM18.4216 21.0299C18.4601 21.0478 18.4971 21.0692 18.532 21.0943C18.4623 21.0439 18.3844 21.0077 18.3025 20.9869L18.4216 21.0299ZM13.5339 21.0543C13.4997 21.0735 13.467 21.0965 13.4363 21.1217C13.4031 21.149 13.3735 21.1798 13.3464 21.2125C13.3485 21.21 13.3502 21.2072 13.3523 21.2047L13.4363 21.1217C13.4976 21.0714 13.5667 21.0323 13.6404 21.0064L13.5339 21.0543ZM24.283 20.9176C24.0486 20.9749 23.8224 21.0638 23.6111 21.1832L23.7839 21.0943C23.9441 21.0189 24.1114 20.9595 24.283 20.9176ZM7.78979 20.9879C7.90369 21.0323 8.01401 21.087 8.12085 21.15C8.01977 21.0903 7.91578 21.0378 7.80835 20.9947L7.78979 20.9879ZM18.0496 20.9713C17.54 21.0254 17.0289 21.0591 16.5173 21.0728C16.8575 21.0637 17.1975 21.0471 17.5369 21.0201L18.0496 20.9713ZM24.9128 20.8424C24.9148 20.8424 24.9167 20.8414 24.9187 20.8414H24.905L24.9128 20.8424ZM12.8162 20.6725C12.8141 20.6746 12.8123 20.6771 12.8103 20.6793C12.8389 20.6482 12.8687 20.618 12.9001 20.5894L12.8162 20.6725ZM15.0046 20.3043C15.0463 20.3065 15.088 20.3063 15.1296 20.3082C14.9232 20.2988 14.7167 20.2882 14.5105 20.2721L15.0046 20.3043ZM16.7751 13.1412V13.1432C16.8009 13.1315 16.8261 13.1189 16.8513 13.106C16.8264 13.1187 16.8006 13.1296 16.7751 13.1412ZM17.4539 12.6236C17.4148 12.6712 17.3728 12.7174 17.3289 12.7613C17.242 12.848 17.147 12.9244 17.0466 12.9918C17.0963 12.9585 17.1457 12.9244 17.1921 12.8863L17.3289 12.7613C17.3731 12.7171 17.4155 12.6706 17.4548 12.6227L17.4539 12.6236ZM26.4656 12.4703C26.398 12.5722 26.3206 12.6684 26.2332 12.7564C26.1468 12.8434 26.052 12.9202 25.9519 12.9879C26.0014 12.9544 26.0501 12.9197 26.0964 12.8814L26.2332 12.7564C26.3642 12.6245 26.4735 12.4744 26.5593 12.3131L26.4656 12.4703ZM24.3904 12.3092C24.4043 12.3163 24.4182 12.3232 24.4324 12.3297L24.4333 12.3287C24.419 12.3221 24.4044 12.3163 24.3904 12.3092ZM25.3845 12.3238L25.3865 12.3248C25.394 12.3213 25.4015 12.3178 25.4089 12.3141C25.4011 12.318 25.3925 12.3201 25.3845 12.3238ZM17.7771 12.0406C17.7444 12.1355 17.7063 12.2284 17.6589 12.317L17.738 12.151C17.753 12.1149 17.7644 12.0775 17.7771 12.0406ZM8.00659 11.9439C7.95299 12.037 7.88638 12.1234 7.80737 12.1988L7.73706 12.2594C7.76124 12.2398 7.78472 12.2204 7.80737 12.1988C7.91262 12.0984 7.99707 11.9792 8.0564 11.8492L8.00659 11.9439ZM7.02417 6.18027C6.83069 6.18105 6.64525 6.25814 6.50854 6.39511C6.40591 6.49806 6.3364 6.62864 6.30835 6.76913L6.29468 6.91269V11.4195C6.30497 11.6054 6.38549 11.7812 6.52026 11.9098C6.65645 12.0395 6.83801 12.1119 7.02612 12.1119C7.21403 12.1118 7.39491 12.0393 7.53101 11.9098C7.66554 11.7814 7.74607 11.606 7.75659 11.4205V6.91269C7.75659 6.71865 7.67978 6.53243 7.54272 6.39511C7.40535 6.25774 7.21844 6.18027 7.02417 6.18027ZM15.9998 6.18027C15.8063 6.18103 15.6208 6.25814 15.4841 6.39511C15.3814 6.4981 15.312 6.62854 15.2839 6.76913L15.2703 6.91269V11.4195C15.2806 11.6054 15.3611 11.7812 15.4958 11.9098C15.632 12.0394 15.8137 12.1119 16.0017 12.1119C16.1896 12.1117 16.3706 12.0393 16.5066 11.9098C16.6411 11.7814 16.7217 11.606 16.7322 11.4205V6.91269C16.7322 6.71877 16.6552 6.53241 16.5183 6.39511C16.381 6.25784 16.1939 6.18038 15.9998 6.18027ZM24.9128 6.18027C24.7186 6.18079 24.5326 6.25782 24.3953 6.39511C24.2924 6.49807 24.2225 6.62855 24.1941 6.76913L24.1794 6.91269V11.3951C24.2019 11.57 24.2859 11.7318 24.4177 11.8492C24.5518 11.9685 24.7255 12.0347 24.905 12.0348C25.0845 12.0347 25.2583 11.9685 25.3923 11.8492C25.5229 11.7329 25.6062 11.573 25.6296 11.4V6.91171L25.616 6.76913C25.5886 6.62965 25.5209 6.49979 25.4197 6.39706C25.2854 6.26101 25.1029 6.18247 24.9119 6.17929L24.9128 6.18027ZM26.7703 11.6168C26.758 11.7392 26.7344 11.8596 26.699 11.9762L26.7439 11.7984C26.7678 11.6787 26.7798 11.5561 26.78 11.4322L26.7703 11.6168ZM5.14429 11.4322L5.15405 11.6187C5.16073 11.6849 5.17176 11.7503 5.1853 11.815C5.15915 11.69 5.14446 11.5619 5.14429 11.4322ZM8.15698 11.4322C8.15355 11.5048 8.14363 11.5764 8.12671 11.6461L8.14722 11.5406C8.15238 11.5048 8.15527 11.4687 8.15698 11.4322ZM27.1794 7.1666L27.2898 7.1207C27.2985 7.11659 27.3066 7.11127 27.3152 7.10703C27.2708 7.1288 27.2255 7.14833 27.1794 7.1666ZM4.71069 6.43027C4.73223 6.44067 4.75393 6.45054 4.77612 6.45956C4.77629 6.45856 4.77693 6.45764 4.7771 6.45663C4.75496 6.44768 4.7322 6.44057 4.71069 6.43027ZM4.44897 6.25742C4.51837 6.31925 4.5956 6.37077 4.67749 6.41367C4.63054 6.38926 4.58476 6.3625 4.54175 6.33163L4.44897 6.25742ZM27.3005 6.25742L27.2078 6.33163C27.1902 6.34422 27.1703 6.3533 27.1521 6.36484V6.36679C27.204 6.3339 27.2544 6.29852 27.3005 6.25742ZM16.7175 6.03671C16.7461 6.06019 16.7741 6.08552 16.8005 6.11191C16.7475 6.05888 16.6892 6.01132 16.6277 5.97031L16.7175 6.03671ZM7.23022 5.79843C7.45398 5.83994 7.66179 5.94881 7.82495 6.11191C7.86927 6.15624 7.90908 6.20414 7.94507 6.25449C7.90923 6.20443 7.87003 6.15503 7.82593 6.11093C7.66258 5.94767 7.45422 5.8397 7.23022 5.79843ZM15.283 6.03671C15.2544 6.06017 15.2273 6.08554 15.2009 6.11191C15.1638 6.14913 15.1297 6.18953 15.0984 6.23105C15.1073 6.2192 15.1163 6.20741 15.1257 6.19589L15.2009 6.11191C15.2539 6.05883 15.3114 6.0124 15.3728 5.97128L15.283 6.03671ZM5.34351 5.99765C5.32032 6.04369 5.30037 6.09132 5.28101 6.13925C5.32399 6.03282 5.37594 5.93006 5.43726 5.83359L5.34351 5.99765ZM17.7439 6.1373L17.7039 6.04062C17.6978 6.02771 17.6907 6.01529 17.6843 6.00253C17.7063 6.04645 17.7254 6.09167 17.7439 6.1373ZM16.8943 4.74374C17.1761 4.86364 17.4316 5.03892 17.6443 5.25937C17.857 5.4801 18.024 5.74259 18.1335 6.0289C18.1471 6.06444 18.157 6.1012 18.1687 6.1373H22.7078C22.719 6.09628 22.7283 6.05468 22.7419 6.01425C22.8433 5.71413 23.0067 5.43751 23.2205 5.20371C23.4191 4.98655 23.6592 4.81249 23.9246 4.68613H16.7429C16.7938 4.70365 16.8447 4.72267 16.8943 4.74374ZM7.9187 4.74374C8.20071 4.86365 8.45596 5.03881 8.6687 5.25937C8.88153 5.48015 9.04839 5.74248 9.15796 6.0289C9.17154 6.06445 9.18138 6.1012 9.19312 6.1373H13.8347C13.8465 6.1012 13.8563 6.06445 13.8699 6.0289C13.9795 5.7424 14.1452 5.48019 14.3582 5.25937L14.5261 5.10312C14.7009 4.95499 14.8975 4.83369 15.1091 4.74374C15.1603 4.722 15.2129 4.70408 15.2654 4.68613H7.76733C7.81832 4.70369 7.86896 4.72261 7.9187 4.74374ZM4.1687 5.87558C4.20646 5.95975 4.25563 6.03776 4.31226 6.10996C4.28004 6.06884 4.24964 6.02616 4.22339 5.98105L4.1687 5.87558ZM27.5808 5.8746L27.5261 5.98105C27.4999 6.02615 27.4695 6.06883 27.4373 6.10996C27.4939 6.03775 27.543 5.95879 27.5808 5.8746ZM5.28687 4.68417C5.18428 4.67231 5.07967 4.68234 4.9812 4.71347C4.88285 4.74462 4.79164 4.79622 4.7146 4.86484C4.63769 4.93346 4.57613 5.01786 4.53394 5.11191C4.49174 5.20607 4.46951 5.30853 4.46948 5.41171C4.46953 5.51484 4.49176 5.6174 4.53394 5.71152C4.57616 5.80555 4.63765 5.88999 4.7146 5.95859C4.76444 6.00299 4.82089 6.03878 4.88062 6.06796C4.8853 6.055 4.88936 6.04179 4.89429 6.0289C5.00384 5.74251 5.16976 5.48014 5.38257 5.25937L5.55054 5.10312C5.7253 4.95502 5.92192 4.83369 6.13354 4.74374C6.18497 4.7219 6.23804 4.70414 6.29077 4.68613H5.30933L5.28687 4.68417ZM26.4636 4.68417L26.4402 4.68613H25.8855C26.1509 4.81248 26.391 4.98653 26.5896 5.20371C26.7881 5.42078 26.9396 5.67537 27.0417 5.95078C27.1151 5.88347 27.1747 5.8024 27.2156 5.71152C27.2577 5.6174 27.28 5.51484 27.28 5.41171C27.28 5.3085 27.2578 5.20609 27.2156 5.11191C27.1734 5.01782 27.1119 4.93348 27.0349 4.86484C26.9578 4.79618 26.8667 4.74461 26.7683 4.71347C26.6699 4.68236 26.5661 4.67236 26.4636 4.68417ZM16.4324 5.86581C16.4665 5.87998 16.5003 5.89524 16.533 5.91269L16.4324 5.86581C16.3982 5.85166 16.3643 5.83946 16.3289 5.82871L16.4324 5.86581ZM24.9119 5.7789C25.0235 5.78014 25.1333 5.79879 25.238 5.83163L25.1326 5.80331C25.0606 5.78817 24.9865 5.77973 24.9119 5.7789ZM17.5789 5.81894C17.5481 5.7715 17.5162 5.72478 17.4812 5.68027L17.4802 5.67929C17.5155 5.72413 17.5478 5.77114 17.5789 5.81894ZM3.31226 5.75156C3.31402 5.7611 3.31718 5.77037 3.31909 5.77988C3.30769 5.72267 3.2978 5.66512 3.29175 5.60703L3.31226 5.75156ZM23.3093 5.74472C23.3054 5.75101 23.3025 5.75792 23.2986 5.76425C23.3277 5.71654 23.3581 5.6696 23.3914 5.6246L23.3093 5.74472ZM28.3689 5.41855C28.3689 5.53486 28.357 5.6505 28.3357 5.76425C28.3455 5.71223 28.3538 5.65975 28.3591 5.60703L28.3689 5.41855ZM4.09448 5.64902C4.09772 5.66415 4.10235 5.67895 4.1062 5.69394C4.0924 5.6404 4.08177 5.58589 4.07593 5.53085L4.09448 5.64902ZM6.1189 5.19394C6.06881 5.22148 6.01971 5.25078 5.97241 5.28281C6.04032 5.23695 6.1128 5.19841 6.18628 5.16171L6.1189 5.19394ZM14.9724 5.26621C14.964 5.27174 14.9554 5.27714 14.947 5.28281C14.9946 5.2507 15.0441 5.2216 15.0945 5.19394L14.9724 5.26621ZM16.7546 5.11972C16.8591 5.16539 16.9594 5.21936 17.0535 5.28281C17.0064 5.25096 16.9578 5.22136 16.908 5.19394L16.7546 5.11972ZM28.2185 4.68222C28.2654 4.79269 28.3009 4.90724 28.3259 5.02402C28.314 4.96856 28.3008 4.9132 28.2839 4.85898L28.2185 4.68222ZM24.3279 4.95175C24.3107 4.95727 24.2941 4.9643 24.2771 4.97031C24.3558 4.94246 24.4358 4.91909 24.5173 4.90195L24.3279 4.95175ZM27.7927 4.06308C27.8793 4.14654 27.9564 4.23864 28.0251 4.33652C27.9924 4.29003 27.9584 4.24421 27.9216 4.20078L27.7927 4.06308ZM3.89429 4.02206L3.75659 4.16171C3.71674 4.2066 3.6796 4.2539 3.64429 4.30234C3.71795 4.20142 3.80159 4.10684 3.89429 4.02206ZM4.56226 3.62753L4.38062 3.6998C4.32576 3.72492 4.27258 3.75354 4.22046 3.78378C4.32867 3.72104 4.44311 3.66778 4.56226 3.62753ZM27.1589 3.65976L27.0242 3.61386C27.0135 3.61067 27.0027 3.60808 26.9919 3.60507C27.0482 3.62077 27.1042 3.63882 27.1589 3.65976Z" fill="currentColor" style="fill:currentColor;fill:currentColor;fill-opacity:1;"/>
</svg>
