<svg width="32" height="32" viewBox="0 0 32 32" fill="none" xmlns="http://www.w3.org/2000/svg">
<path fill-rule="evenodd" clip-rule="evenodd" d="M28.2305 3.01172C28.7647 3.06472 29.2675 3.30066 29.6504 3.68359C30.0877 4.12108 30.3339 4.71442 30.334 5.33301C30.334 5.95179 30.0879 6.54582 29.6504 6.9834C29.46 7.17375 29.2386 7.32515 29 7.43848V28C29 28.5522 28.5522 28.9999 28 29C27.4479 28.9998 27 28.5522 27 28V26.333H5V28C5 28.5523 4.55228 29 4 29C3.44772 29 3 28.5523 3 28V7.4375C2.76174 7.32418 2.54072 7.17346 2.35059 6.9834C1.9676 6.60041 1.73167 6.09779 1.67871 5.56348L1.66699 5.33301C1.66708 4.71429 1.91308 4.1211 2.35059 3.68359C2.78808 3.24616 3.38134 3.00009 4 3L4.23047 3.01172C4.7647 3.06472 5.26746 3.30066 5.65039 3.68359C6.08772 4.12107 6.3339 4.71442 6.33398 5.33301L6.32227 5.56348C6.26933 6.09775 6.03332 6.60041 5.65039 6.9834C5.46017 7.17361 5.23851 7.32416 5 7.4375V8.33301H27V7.4375C26.7618 7.32426 26.5407 7.17343 26.3506 6.9834C25.913 6.54581 25.667 5.95184 25.667 5.33301C25.6671 4.71429 25.9131 4.1211 26.3506 3.68359C26.7881 3.24616 27.3813 3.00009 28 3L28.2305 3.01172ZM5 22.333V24.333H27V22.333H5ZM25 10.333V20.333H27V10.333H25ZM5 20.333H7V10.333H5V20.333ZM9 20.333H12.333V10.333H9V20.333ZM14.333 20.333H17.667V10.333H14.333V20.333ZM19.667 20.333H23V10.333H19.667V20.333ZM4 5C3.91177 5.00009 3.82707 5.0353 3.76465 5.09766C3.70221 5.16009 3.66708 5.24472 3.66699 5.33301L3.67383 5.39844C3.68662 5.46255 3.71774 5.52243 3.76465 5.56934C3.82706 5.63159 3.91185 5.66691 4 5.66699C4.08832 5.66693 4.17387 5.63179 4.23633 5.56934C4.29876 5.50683 4.33398 5.42136 4.33398 5.33301L4.32715 5.26758C4.31431 5.20379 4.28295 5.1444 4.23633 5.09766C4.18946 5.05079 4.12947 5.01965 4.06543 5.00684L4 5ZM28 5C27.9118 5.00009 27.8271 5.0353 27.7646 5.09766C27.7022 5.16009 27.6671 5.24472 27.667 5.33301C27.667 5.42142 27.7021 5.50683 27.7646 5.56934C27.8271 5.63159 27.9118 5.66691 28 5.66699C28.0883 5.66693 28.1739 5.63179 28.2363 5.56934C28.2988 5.50684 28.334 5.42136 28.334 5.33301C28.3339 5.24485 28.2986 5.16006 28.2363 5.09766C28.1895 5.05079 28.1295 5.01965 28.0654 5.00684L28 5Z" fill="currentColor" style="fill:currentColor;fill:currentColor;fill-opacity:1;"/>
</svg>
