<svg width="32" height="32" viewBox="0 0 32 32" fill="none" xmlns="http://www.w3.org/2000/svg">
<path d="M5.5 6C4.57174 6 3.6815 6.36875 3.02513 7.02513C2.36875 7.6815 2 8.57174 2 9.5V22.5C2 24.432 3.568 26 5.5 26H12.5C13.4283 26 14.3185 25.6313 14.9749 24.9749C15.6313 24.3185 16 23.4283 16 22.5V14H28V25C28 25.2652 28.1054 25.5196 28.2929 25.7071C28.4804 25.8946 28.7348 26 29 26C29.2652 26 29.5196 25.8946 29.7071 25.7071C29.8946 25.5196 30 25.2652 30 25V9.5C30 8.57174 29.6313 7.6815 28.9749 7.02513C28.3185 6.36875 27.4283 6 26.5 6H5.5ZM4 14H14V22.5C14 22.8978 13.842 23.2794 13.5607 23.5607C13.2794 23.842 12.8978 24 12.5 24H5.5C5.10218 24 4.72064 23.842 4.43934 23.5607C4.15804 23.2794 4 22.8978 4 22.5V14ZM4 12V9.5C4 9.10218 4.15804 8.72064 4.43934 8.43934C4.72064 8.15804 5.10218 8 5.5 8H26.5C26.8978 8 27.2794 8.15804 27.5607 8.43934C27.842 8.72064 28 9.10218 28 9.5V12H4ZM7 16C6.73478 16 6.48043 16.1054 6.29289 16.2929C6.10536 16.4804 6 16.7348 6 17C6 17.2652 6.10536 17.5196 6.29289 17.7071C6.48043 17.8946 6.73478 18 7 18H11C11.2652 18 11.5196 17.8946 11.7071 17.7071C11.8946 17.5196 12 17.2652 12 17C12 16.7348 11.8946 16.4804 11.7071 16.2929C11.5196 16.1054 11.2652 16 11 16H7Z" fill="currentColor" style="fill:currentColor;fill:currentColor;fill-opacity:1;"/>
</svg>
