<svg width="21" height="20" viewBox="0 0 21 20" fill="none" xmlns="http://www.w3.org/2000/svg">
<path fill-rule="evenodd" clip-rule="evenodd" d="M7.375 1.875C6.68464 1.875 6.125 2.43464 6.125 3.125V16.875C6.125 17.5654 6.68464 18.125 7.375 18.125H13.625C14.3154 18.125 14.875 17.5654 14.875 16.875V3.125C14.875 2.43464 14.3154 1.875 13.625 1.875H12.375V2.5C12.375 2.84518 12.0952 3.125 11.75 3.125H9.25C8.90482 3.125 8.625 2.84518 8.625 2.5V1.875H7.375ZM4.875 3.125C4.875 1.74429 5.99429 0.625 7.375 0.625H13.625C15.0057 0.625 16.125 1.74429 16.125 3.125V16.875C16.125 18.2557 15.0057 19.375 13.625 19.375H7.375C5.99429 19.375 4.875 18.2557 4.875 16.875V3.125ZM8.625 16.875C8.625 16.5298 8.90482 16.25 9.25 16.25H11.75C12.0952 16.25 12.375 16.5298 12.375 16.875C12.375 17.2202 12.0952 17.5 11.75 17.5H9.25C8.90482 17.5 8.625 17.2202 8.625 16.875Z" fill="#1F2D4C" style="fill:#1F2D4C;fill:color(display-p3 0.1216 0.1765 0.2980);fill-opacity:1;"/>
</svg>
