<svg width="32" height="32" viewBox="0 0 32 32" fill="none" xmlns="http://www.w3.org/2000/svg">
<path fill-rule="evenodd" clip-rule="evenodd" d="M23.3846 7C23.6906 7 23.984 7.12823 24.2004 7.35632C24.4168 7.5844 24.5385 7.89366 24.5385 8.21622C24.5385 8.53878 24.4168 8.84804 24.2004 9.07613C23.984 9.30422 23.6906 9.43245 23.3846 9.43245H21.5592L24.5592 15.7568H29.8462C30.1522 15.7568 30.4456 15.885 30.662 16.1131C30.8783 16.3412 31 16.6505 31 16.973C31 17.2956 30.8783 17.6048 30.662 17.8329C30.4456 18.061 30.1522 18.1892 29.8462 18.1892H25.713L28.1091 23.2404L28.155 23.3506C28.2497 23.6122 28.2562 23.9018 28.1713 24.1696C28.0743 24.4753 27.8661 24.7278 27.5925 24.8718C27.3187 25.0159 27.0012 25.0396 26.7109 24.9374C26.4571 24.8479 26.2421 24.6686 26.1007 24.4319L26.0448 24.3274L23.1331 18.1892H8.86689L5.95523 24.3274C5.81856 24.6157 5.57909 24.8351 5.28906 24.9374C4.99877 25.0396 4.68131 25.0159 4.40745 24.8718C4.13388 24.7278 3.92572 24.4753 3.82873 24.1696C3.73172 23.8637 3.75425 23.529 3.89093 23.2404L6.28696 18.1892H2.15385C1.84783 18.1892 1.55443 18.061 1.33804 17.8329C1.12165 17.6048 1 17.2956 1 16.973C1 16.6505 1.12165 16.3412 1.33804 16.1131C1.55443 15.885 1.84783 15.7568 2.15385 15.7568H7.44081L10.4408 9.43245H8.61538C8.30937 9.43245 8.01597 9.30422 7.79958 9.07613C7.61034 8.87666 7.49325 8.61515 7.46695 8.33689L7.46154 8.21622C7.46154 7.89366 7.58319 7.5844 7.79958 7.35632C8.01597 7.12823 8.30937 7 8.61538 7H23.3846ZM10.0207 15.7568H21.9793L18.9793 9.43245H13.0207L10.0207 15.7568Z" fill="currentColor" style="fill:currentColor;fill:currentColor;fill-opacity:1;"/>
</svg>
