<svg width="32" height="32" viewBox="0 0 32 32" fill="none" xmlns="http://www.w3.org/2000/svg">
<path d="M15.9986 4.70312C9.76938 4.70312 4.70162 9.77088 4.70162 16.0001C4.70162 22.2293 9.76938 27.297 15.9986 27.297C22.2278 27.297 27.2955 22.2293 27.2955 16.0001C27.2955 9.77088 22.2278 4.70312 15.9986 4.70312ZM15.9986 25.991C10.4896 25.991 6.00763 21.5091 6.00763 16.0001C6.00763 10.4911 10.4896 6.00912 15.9986 6.00912C21.5076 6.00912 25.9895 10.4911 25.9895 16.0001C25.9895 21.5091 21.5076 25.991 15.9986 25.991Z" fill="currentColor" style="fill:currentColor;fill:currentColor;fill-opacity:1;"/>
<path d="M30.6391 13.7335C31.3895 13.7335 32 13.1232 32 12.3725L31.996 8.02256C31.9957 7.66212 31.7034 7.37012 31.343 7.37012V7.37012C30.9823 7.37044 30.6897 7.66306 30.69 8.02369L30.694 12.373C30.694 12.403 30.6694 12.4274 30.6391 12.4274H30.2563V8.02319C30.2563 7.66256 29.9638 7.37019 29.6033 7.37019C29.2427 7.37019 28.9503 7.66256 28.9503 8.02319V12.4275H28.5629C28.5327 12.4275 28.5081 12.4031 28.5081 12.3726L28.5041 8.02262C28.5038 7.66219 28.2115 7.37019 27.8511 7.37019V7.37019C27.4905 7.3705 27.1978 7.66312 27.1981 8.02375L27.2021 12.3731C27.2021 13.1232 27.8126 13.7334 28.5629 13.7334H28.9503V16.6719H28.5502C28.1897 16.6719 27.8972 16.9643 27.8972 17.3249V24.2254C27.8972 25.1561 28.6589 25.9132 29.5951 25.9132C30.5312 25.9132 31.2929 25.156 31.2929 24.2254V17.325C31.2929 16.9643 31.0004 16.672 30.6399 16.672H30.2563V13.7335H30.6391ZM29.9868 24.2255C29.9868 24.4324 29.8074 24.6073 29.595 24.6073C29.3826 24.6073 29.2032 24.4324 29.2032 24.2255V17.978H29.9868V24.2255Z" fill="currentColor" style="fill:currentColor;fill:currentColor;fill-opacity:1;"/>
<path d="M0.802 6.10413C0.607812 6.05875 0.403563 6.10431 0.247313 6.22819C0.0911875 6.352 0 6.54056 0 6.73987V24.2254C0 25.1561 0.761625 25.9132 1.69781 25.9132C2.634 25.9132 3.39563 25.156 3.39563 24.2254V9.28663C3.39563 7.25006 1.69912 6.31431 0.802 6.10413ZM2.08962 24.2255C2.08962 24.4324 1.91019 24.6072 1.69781 24.6072C1.48544 24.6072 1.306 24.4324 1.306 24.2255V17.978H2.08962V24.2255ZM2.08962 16.672H1.306V7.76437C1.319 7.77369 1.332 7.78331 1.345 7.79306C1.84606 8.17 2.08962 8.6585 2.08962 9.28663V16.672Z" fill="currentColor" style="fill:currentColor;fill:currentColor;fill-opacity:1;"/>
<path d="M21.6262 14.0254C20.7892 11.6401 18.5276 10.0376 15.9986 10.0376C15.638 10.0376 15.3456 10.3299 15.3456 10.6906C15.3456 11.0512 15.638 11.3436 15.9986 11.3436C17.9739 11.3436 19.7403 12.5951 20.3939 14.4578C20.4881 14.7266 20.7405 14.8948 21.0101 14.8948C21.0818 14.8948 21.1547 14.8829 21.2262 14.8578C21.5666 14.7383 21.7456 14.3658 21.6262 14.0254Z" fill="currentColor" style="fill:currentColor;fill:currentColor;fill-opacity:1;"/>
<path d="M21.3081 15.3422C20.9476 15.3422 20.6551 15.6346 20.6551 15.9952V16.0001C20.6551 16.3607 20.9476 16.6506 21.3081 16.6506C21.6687 16.6506 21.9611 16.3558 21.9611 15.9951C21.9611 15.6345 21.6687 15.3422 21.3081 15.3422Z" fill="currentColor" style="fill:currentColor;fill:currentColor;fill-opacity:1;"/>
<path d="M15.9985 7.64162C11.3914 7.64162 7.64331 11.3898 7.64331 15.9969C7.64331 17.8305 8.22612 19.5708 9.32875 21.0299C10.3951 22.441 11.9108 23.4963 13.5964 24.0016C13.9418 24.1051 14.3058 23.9091 14.4094 23.5635C14.5129 23.2181 14.3168 22.8541 13.9713 22.7505C11.0144 21.8643 8.94925 19.0871 8.94925 15.9969C8.94925 12.1099 12.1116 8.94762 15.9984 8.94762C19.8854 8.94762 23.0478 12.1099 23.0478 15.9969C23.0478 19.0872 20.9826 21.8644 18.0256 22.7506C17.6801 22.8541 17.4839 23.2181 17.5874 23.5636C17.6722 23.8465 17.9317 24.0293 18.2127 24.0293C18.2748 24.0293 18.3379 24.0203 18.4004 24.0016C20.0862 23.4964 21.6019 22.4411 22.6682 21.0301C23.7709 19.5709 24.3538 17.8306 24.3538 15.997C24.3538 11.3898 20.6056 7.64162 15.9985 7.64162Z" fill="currentColor" style="fill:currentColor;fill:currentColor;fill-opacity:1;"/>
<path d="M15.9983 23.0454C15.6378 23.0454 15.3453 23.3378 15.3453 23.6984V23.7055C15.3453 24.0661 15.6378 24.3585 15.9983 24.3585C16.3589 24.3585 16.6513 24.0661 16.6513 23.7055V23.6984C16.6513 23.3378 16.3589 23.0454 15.9983 23.0454Z" fill="currentColor" style="fill:currentColor;fill:currentColor;fill-opacity:1;"/>
</svg>
