<svg width="32" height="32" viewBox="0 0 32 32" fill="none" xmlns="http://www.w3.org/2000/svg">
<path d="M21.334 5.33398C22.0701 5.33425 22.6668 5.93093 22.667 6.66699C22.667 7.4032 22.0702 8.00071 21.334 8.00098H10.667C9.93062 8.00098 9.33398 7.40337 9.33398 6.66699C9.33416 5.93077 9.93073 5.33398 10.667 5.33398H21.334Z" fill="currentColor" style="fill:currentColor;fill:currentColor;fill-opacity:1;"/>
<path fill-rule="evenodd" clip-rule="evenodd" d="M22.667 1.66797C24.6919 1.66823 26.334 3.31009 26.334 5.33496V26.668C26.334 28.6929 24.6919 30.3347 22.667 30.335H9.33398C7.30895 30.335 5.66602 28.6931 5.66602 26.668V5.33496C5.66602 3.30992 7.30894 1.66797 9.33398 1.66797H22.667ZM7.66699 26.668C7.66699 27.5885 8.4135 28.335 9.33398 28.335H22.667C23.5873 28.3347 24.334 27.5883 24.334 26.668V11.668H7.66699V26.668ZM9.33398 3.66797C8.41351 3.66797 7.66699 4.41449 7.66699 5.33496V9.66797H24.334V5.33496C24.334 4.41464 23.5873 3.66823 22.667 3.66797H9.33398Z" fill="currentColor" style="fill:currentColor;fill:currentColor;fill-opacity:1;"/>
</svg>
