<svg width="32" height="32" viewBox="0 0 32 32" fill="none" xmlns="http://www.w3.org/2000/svg">
<path fill-rule="evenodd" clip-rule="evenodd" d="M13.525 13.7081C13.6251 13.7166 13.7235 13.74 13.817 13.7777C13.9417 13.8282 14.0557 13.9032 14.1509 13.9983C14.2461 14.0933 14.3208 14.2067 14.3714 14.3313C14.4215 14.4544 14.4467 14.586 14.4455 14.7188L14.4411 15.0349C14.3975 16.3586 14.0812 17.1067 13.7822 17.6188L13.6464 17.8402C13.4754 18.1067 13.3747 18.243 13.2982 18.4884C13.2201 18.7394 13.1661 19.1198 13.1661 19.8384C13.1673 19.9701 13.1429 20.1011 13.0938 20.2233C13.0441 20.3467 12.9701 20.4589 12.8768 20.5536C12.7832 20.6485 12.6712 20.7245 12.5482 20.7759C12.4253 20.8273 12.293 20.8536 12.1598 20.8536C12.0268 20.8536 11.8951 20.8272 11.7723 20.7759C11.6494 20.7245 11.5373 20.6485 11.4438 20.5536C11.3504 20.4589 11.2764 20.3467 11.2268 20.2233C11.1771 20.0997 11.1526 19.9671 11.1545 19.834C11.1553 18.1167 11.6043 17.298 11.9536 16.7536L12.1616 16.4224C12.2176 16.3233 12.2625 16.2256 12.3009 16.1001C12.3601 15.9064 12.4059 15.6376 12.425 15.2072L12.4348 14.7188C12.4325 14.4542 12.5343 14.1989 12.7188 14.009C12.9043 13.8181 13.158 13.7088 13.4241 13.7045L13.525 13.7081ZM11.7045 20.2974C11.764 20.3577 11.8352 20.4057 11.9134 20.4384L11.8018 20.3777C11.7669 20.3542 11.7342 20.3275 11.7045 20.2974Z" fill="currentColor" style="fill:currentColor;fill:currentColor;fill-opacity:1;"/>
<path fill-rule="evenodd" clip-rule="evenodd" d="M16.725 13.7081C16.8251 13.7166 16.9235 13.74 17.017 13.7777C17.1417 13.8282 17.2557 13.9032 17.3509 13.9983C17.4461 14.0933 17.5208 14.2067 17.5714 14.3313C17.6215 14.4544 17.6467 14.586 17.6455 14.7188L17.6411 15.0349C17.5975 16.3586 17.2812 17.1067 16.9822 17.6188L16.8464 17.8402C16.6754 18.1067 16.5747 18.243 16.4982 18.4884C16.4201 18.7394 16.3661 19.1198 16.3661 19.8384C16.3673 19.9701 16.3429 20.1011 16.2938 20.2233C16.2441 20.3467 16.1701 20.4589 16.0768 20.5536C15.9832 20.6485 15.8712 20.7245 15.7482 20.7759C15.6253 20.8273 15.493 20.8536 15.3598 20.8536C15.2268 20.8536 15.0951 20.8272 14.9723 20.7759C14.8494 20.7245 14.7373 20.6485 14.6438 20.5536C14.5504 20.4589 14.4764 20.3467 14.4268 20.2233C14.3771 20.0997 14.3526 19.9671 14.3545 19.834C14.3553 18.1167 14.8043 17.298 15.1536 16.7536L15.3616 16.4224C15.4176 16.3233 15.4625 16.2256 15.5009 16.1001C15.5601 15.9064 15.6059 15.6376 15.625 15.2072L15.6348 14.7188C15.6325 14.4542 15.7343 14.1989 15.9188 14.009C16.1043 13.8181 16.358 13.7088 16.6241 13.7045L16.725 13.7081ZM14.9045 20.2974C14.964 20.3577 15.0352 20.4057 15.1134 20.4384L15.0018 20.3777C14.9669 20.3542 14.9342 20.3275 14.9045 20.2974Z" fill="currentColor" style="fill:currentColor;fill:currentColor;fill-opacity:1;"/>
<path fill-rule="evenodd" clip-rule="evenodd" d="M19.925 13.7081C20.0251 13.7166 20.1235 13.74 20.217 13.7777C20.3417 13.8282 20.4557 13.9032 20.5509 13.9983C20.6461 14.0933 20.7208 14.2067 20.7714 14.3313C20.8215 14.4544 20.8467 14.586 20.8455 14.7188L20.8411 15.0349C20.7975 16.3586 20.4812 17.1067 20.1822 17.6188L20.0464 17.8402C19.8754 18.1067 19.7747 18.243 19.6982 18.4884C19.6201 18.7394 19.5661 19.1198 19.5661 19.8384C19.5673 19.9701 19.5429 20.1011 19.4938 20.2233C19.4441 20.3467 19.3701 20.4589 19.2768 20.5536C19.1832 20.6485 19.0712 20.7245 18.9482 20.7759C18.8253 20.8273 18.693 20.8536 18.5598 20.8536C18.4268 20.8536 18.2951 20.8272 18.1723 20.7759C18.0494 20.7245 17.9373 20.6485 17.8438 20.5536C17.7504 20.4589 17.6764 20.3467 17.6268 20.2233C17.5771 20.0997 17.5526 19.9671 17.5545 19.834C17.5553 18.1167 18.0043 17.298 18.3536 16.7536L18.5616 16.4224C18.6176 16.3233 18.6625 16.2256 18.7009 16.1001C18.7601 15.9064 18.8059 15.6376 18.825 15.2072L18.8348 14.7188C18.8325 14.4542 18.9343 14.1989 19.1188 14.009C19.3043 13.8181 19.558 13.7088 19.8241 13.7045L19.925 13.7081ZM18.1045 20.2974C18.164 20.3577 18.2352 20.4057 18.3134 20.4384L18.2018 20.3777C18.1669 20.3542 18.1342 20.3275 18.1045 20.2974Z" fill="currentColor" style="fill:currentColor;fill:currentColor;fill-opacity:1;"/>
<path fill-rule="evenodd" clip-rule="evenodd" d="M16.0982 9.23934C16.1667 9.24686 16.2344 9.26085 16.3 9.2822C20.5869 9.44704 24.0455 12.9441 24.0455 17.2786C24.0455 21.7147 20.4347 25.3242 16 25.3242C11.5642 25.3241 7.95448 21.7144 7.95448 17.2786C7.95458 12.8429 11.5643 9.23319 16 9.23309H16.0072L16.0982 9.23934ZM16 11.2447C12.66 11.2448 9.96618 13.9386 9.96609 17.2786C9.96609 20.6187 12.66 23.3134 16 23.3134C19.3388 23.3134 22.0348 20.6186 22.0348 17.2786C22.0347 13.9388 19.3387 11.2447 16 11.2447ZM11.6938 22.0188C11.7298 22.0516 11.7677 22.0824 11.8045 22.1143C11.763 22.0784 11.7209 22.0433 11.6804 22.0063L11.6938 22.0188ZM11.2697 21.5956C11.3355 21.6677 11.4033 21.7381 11.4723 21.8072L11.2732 21.5992C11.2721 21.5979 11.2708 21.5968 11.2697 21.5956ZM23.6402 18.0626C23.6146 18.3133 23.5769 18.5605 23.5277 18.8036C23.6022 18.4356 23.651 18.0582 23.6705 17.6733L23.6402 18.0626ZM9.63305 17.934C9.63417 17.945 9.63634 17.956 9.63751 17.967C9.63565 17.9495 9.63299 17.932 9.63126 17.9143L9.63305 17.934ZM23.2286 14.6938C23.3955 15.1547 23.5194 15.6363 23.5947 16.134L23.5295 15.7634C23.4551 15.3962 23.3539 15.0396 23.2286 14.6938ZM21.5 11.9527C21.5841 12.0384 21.6665 12.1257 21.7464 12.2152L21.5 11.9527C21.4158 11.867 21.3292 11.7827 21.2411 11.7009L21.5 11.9527ZM19.1313 10.3081C19.2428 10.3577 19.353 10.4096 19.4616 10.4643L19.1313 10.3081C19.0198 10.2585 18.907 10.2106 18.7929 10.1661L19.1313 10.3081ZM17.0402 9.71345C17.5244 9.77956 17.9948 9.88974 18.4464 10.0411L18.092 9.93131C17.7504 9.83487 17.399 9.76244 17.0402 9.71345ZM13.7188 9.9447C13.6722 9.95923 13.6266 9.97663 13.5804 9.99202C13.7458 9.93693 13.9129 9.88503 14.083 9.84113L13.7188 9.9447Z" fill="currentColor" style="fill:currentColor;fill:currentColor;fill-opacity:1;"/>
<path fill-rule="evenodd" clip-rule="evenodd" d="M19.8402 4.75273C20.2765 4.75273 20.695 4.92641 21.0036 5.23488C21.3122 5.54351 21.4857 5.96269 21.4857 6.39916C21.4856 6.8355 21.3121 7.25401 21.0036 7.56256C20.695 7.87107 20.2766 8.0447 19.8402 8.0447C19.4038 8.0447 18.9854 7.87108 18.6768 7.56256C18.3683 7.25401 18.1948 6.83551 18.1947 6.39916C18.1947 5.96269 18.3682 5.54351 18.6768 5.23488C18.9854 4.92641 19.4038 4.75273 19.8402 4.75273ZM19.4768 7.62506C19.5538 7.64787 19.6328 7.66436 19.7134 7.67238L19.5893 7.65363C19.5513 7.64602 19.5139 7.63604 19.4768 7.62506ZM20.55 7.46345C20.5163 7.48594 20.4811 7.50593 20.4455 7.52506C20.518 7.48623 20.5876 7.44191 20.6518 7.38934L20.55 7.46345ZM19.1295 5.33398C19.0947 5.35718 19.0611 5.38233 19.0286 5.40898L19.1295 5.33398C19.1642 5.31083 19.2008 5.28929 19.2375 5.2697L19.1295 5.33398ZM20.0911 5.14381C20.1288 5.15134 20.166 5.16064 20.2027 5.17148C20.1261 5.14884 20.0472 5.13304 19.967 5.12506L20.0911 5.14381ZM18.5661 6.27238C18.5668 6.26551 18.568 6.25869 18.5688 6.25184C18.5679 6.25931 18.5659 6.26667 18.5652 6.27416L18.5661 6.27238Z" fill="currentColor" style="fill:currentColor;fill:currentColor;fill-opacity:1;"/>
<path fill-rule="evenodd" clip-rule="evenodd" d="M23.6804 4.75273C24.1167 4.75278 24.5352 4.9264 24.8438 5.23488C25.1524 5.54351 25.3259 5.96269 25.3259 6.39916C25.3258 6.8355 25.1523 7.25401 24.8438 7.56256C24.5352 7.87109 24.1167 8.04465 23.6804 8.0447C23.2439 8.0447 22.8247 7.87119 22.5161 7.56256C22.2076 7.25403 22.0349 6.83542 22.0348 6.39916C22.0348 5.96274 22.2075 5.5435 22.5161 5.23488C22.8247 4.92625 23.2439 4.75273 23.6804 4.75273ZM23.317 7.62506C23.3939 7.64786 23.473 7.66437 23.5536 7.67238L23.4295 7.65363C23.3914 7.64603 23.3541 7.63604 23.317 7.62506ZM22.4063 6.27238C22.4069 6.26551 22.4082 6.25869 22.4089 6.25184C22.4081 6.25931 22.4061 6.26667 22.4054 6.27416L22.4063 6.27238Z" fill="currentColor" style="fill:currentColor;fill:currentColor;fill-opacity:1;"/>
<path fill-rule="evenodd" clip-rule="evenodd" d="M26.2402 1.55273C27.4948 1.55273 28.5257 2.58385 28.5259 3.83845V28.159C28.5258 29.4137 27.4949 30.4447 26.2402 30.4447H5.75984C4.5053 30.4445 3.47422 29.4135 3.47412 28.159V3.83845C3.47432 2.58397 4.50536 1.55293 5.75984 1.55273H26.2402ZM5.75984 3.56434C5.6005 3.56451 5.4859 3.67911 5.48573 3.83845V28.159C5.48581 28.3184 5.60044 28.4329 5.75984 28.4331H26.2402C26.3998 28.4331 26.5142 28.3185 26.5143 28.159V3.83845C26.5141 3.67899 26.3997 3.56434 26.2402 3.56434H5.75984Z" fill="currentColor" style="fill:currentColor;fill:currentColor;fill-opacity:1;"/>
</svg>
