<svg width="32" height="32" viewBox="0 0 32 32" fill="none" xmlns="http://www.w3.org/2000/svg">
<path fill-rule="evenodd" clip-rule="evenodd" d="M29.1113 7.00488C29.6154 7.05626 30.0088 7.48236 30.0088 8C30.0088 8.51764 29.6154 8.94374 29.1113 8.99512L29.0088 9H24.8945L24.2764 20.7314L28.2588 20.1631C28.8608 20.0774 29.4001 20.5452 29.4004 21.1533V25L29.3955 25.1025C29.3476 25.5728 28.9731 25.947 28.5029 25.9951L28.4004 26H3.7998L3.69727 25.9951C3.22697 25.9471 2.85258 25.5729 2.80469 25.1025L2.7998 25V21.1533C2.80008 20.5451 3.33925 20.0772 3.94141 20.1631L7.7207 20.7021L7.10547 9H3C2.44772 9 2 8.55228 2 8C2 7.44772 2.44772 7 3 7H29.0088L29.1113 7.00488ZM4.7998 24H7.7998V22.7344L4.7998 22.3057V24ZM9.77246 21.6426C9.78921 21.7151 9.79976 21.79 9.7998 21.8672V22.1455L9.89746 24H22.1025L22.8926 9H9.10742L9.77246 21.6426ZM24.4004 22.7344V24H27.4004V22.3057L24.4004 22.7344Z" fill="currentColor" style="fill:currentColor;fill:currentColor;fill-opacity:1;"/>
</svg>
