<svg width="32" height="32" viewBox="0 0 32 32" fill="none" xmlns="http://www.w3.org/2000/svg">
<path d="M16 7.34961C16.5167 7.34961 16.9355 7.7685 16.9355 8.28516V28.1289H25.3545V9.79785H18.4209C17.9045 9.79766 17.4856 9.37867 17.4854 8.8623C17.4854 8.34577 17.9044 7.92695 18.4209 7.92676H26.29L26.3867 7.93164C26.8581 7.97991 27.2256 8.37821 27.2256 8.8623V29.0645C27.2255 29.5811 26.8067 30 26.29 30H5.70996C5.19335 30 4.77448 29.5811 4.77441 29.0645V8.8623L4.77832 8.7666C4.82627 8.29492 5.22563 7.92676 5.70996 7.92676H13.5791L13.6738 7.93164C14.1457 7.9794 14.5146 8.37783 14.5146 8.8623C14.5145 9.34662 14.1456 9.74524 13.6738 9.79297L13.5791 9.79785H6.64551V28.1289H15.0645V8.28516C15.0645 7.7685 15.4833 7.34961 16 7.34961Z" fill="currentColor" style="fill:currentColor;fill:currentColor;fill-opacity:1;"/>
<path d="M18.4219 1.57715C18.822 1.57732 19.1763 1.7375 19.4268 1.87793C19.6943 2.028 19.9609 2.22402 20.2061 2.41895C20.6249 2.752 21.0898 3.24014 21.4473 3.71484C21.8052 3.23962 22.2709 2.7509 22.6904 2.41797C22.9354 2.22356 23.2016 2.02785 23.4688 1.87793C23.7189 1.73756 24.0733 1.57734 24.4736 1.57715H25.4092V3.44824H24.5137C24.4972 3.45416 24.4555 3.4701 24.3848 3.50977C24.2472 3.58696 24.0721 3.71033 23.8535 3.88379C23.4711 4.18728 22.9945 4.71933 22.751 5.11426C22.675 5.23752 22.5671 5.40128 22.4863 5.52734C22.5076 5.61213 22.5254 5.70212 22.5293 5.79492C22.5368 5.9762 22.5047 6.3065 22.2383 6.58496C21.9717 6.86335 21.6412 6.91204 21.4482 6.91211C21.2554 6.91211 20.9239 6.86405 20.6572 6.58594C20.3908 6.30783 20.3589 5.97729 20.3662 5.7959C20.37 5.70321 20.3861 5.61303 20.4072 5.52832C20.3264 5.40235 20.2196 5.23833 20.1436 5.11523C19.8991 4.7194 19.4227 4.18627 19.041 3.88281C18.8234 3.70983 18.6481 3.58681 18.5107 3.50977C18.4409 3.47062 18.3997 3.4543 18.3828 3.44824H17.4863V1.57715H18.4219Z" fill="currentColor" style="fill:currentColor;fill:currentColor;fill-opacity:1;"/>
<path d="M10.7197 1.01172C10.9066 1.03822 11.1428 1.11753 11.3428 1.32617C11.6089 1.60414 11.6401 1.93383 11.6328 2.11523C11.6291 2.20719 11.6117 2.29674 11.5908 2.38086C11.6728 2.50887 11.7805 2.67146 11.8584 2.79883C12.0991 3.19225 12.5771 3.7237 12.96 4.0293C13.175 4.20089 13.3498 4.32432 13.4873 4.40137C13.5582 4.44109 13.6003 4.45684 13.6172 4.46289H14.5146V6.33398H13.5791C13.1791 6.33398 12.8238 6.17451 12.5732 6.03418C12.305 5.88388 12.0377 5.6875 11.793 5.49219C11.3791 5.16194 10.9116 4.67463 10.5518 4.19629C10.1939 4.67139 9.72798 5.16038 9.30859 5.49316C9.06356 5.68758 8.79744 5.88428 8.53027 6.03418C8.31135 6.15695 8.01296 6.29452 7.67383 6.32715L7.52539 6.33398H6.58984V4.46289H7.48633C7.5029 4.45693 7.54478 4.44185 7.61523 4.40234C7.75276 4.32518 7.92697 4.20074 8.14551 4.02734C8.52808 3.72377 9.00551 3.19092 9.24902 2.7959C9.32538 2.67207 9.43289 2.50699 9.51367 2.38086C9.49275 2.29694 9.47554 2.20795 9.47168 2.11621C9.46408 1.93461 9.49489 1.60464 9.76172 1.32617C10.0286 1.04793 10.3597 1.00008 10.5518 1L10.7197 1.01172Z" fill="currentColor" style="fill:currentColor;fill:currentColor;fill-opacity:1;"/>
</svg>
