<svg width="32" height="32" viewBox="0 0 32 32" fill="none" xmlns="http://www.w3.org/2000/svg">
<path d="M11.1881 23.1938C11.2041 23.3532 11.2277 23.5102 11.2585 23.6647C11.2273 23.5079 11.2032 23.3485 11.1872 23.1866L11.1881 23.1938Z" fill="currentColor" style="fill:currentColor;fill:currentColor;fill-opacity:1;"/>
<path d="M20.7529 23.1866C20.7369 23.3485 20.712 23.5079 20.6807 23.6647C20.7115 23.5102 20.7361 23.3532 20.752 23.1938L20.7529 23.1866Z" fill="currentColor" style="fill:currentColor;fill:currentColor;fill-opacity:1;"/>
<path d="M14.0988 18.2079C13.9062 18.2905 13.7205 18.3861 13.5417 18.4925C13.7208 18.3859 13.9068 18.2898 14.0997 18.2071L14.0988 18.2079Z" fill="currentColor" style="fill:currentColor;fill:currentColor;fill-opacity:1;"/>
<path d="M16.7297 17.8851C16.641 17.8708 16.5514 17.8596 16.4612 17.8503L16.2174 17.8307C16.3907 17.8396 16.5616 17.858 16.7297 17.8851Z" fill="currentColor" style="fill:currentColor;fill:currentColor;fill-opacity:1;"/>
<path d="M15.7227 17.8307C15.6409 17.8349 15.5597 17.842 15.4789 17.8503L15.2378 17.8806C15.3175 17.8682 15.3979 17.8586 15.4789 17.8503L15.7227 17.8307Z" fill="currentColor" style="fill:currentColor;fill:currentColor;fill-opacity:1;"/>
<path d="M4.31045 6.81012C4.24001 6.83233 4.16662 6.84684 4.09129 6.8556C4.12637 6.85153 4.16105 6.84662 4.19515 6.83955L4.31045 6.81012Z" fill="currentColor" style="fill:currentColor;fill:currentColor;fill-opacity:1;"/>
<path d="M4.80246 6.50776C4.77515 6.53544 4.74691 6.56221 4.71709 6.58714L4.62467 6.65671C4.65668 6.6348 4.68737 6.61198 4.71709 6.58714L4.80246 6.50776Z" fill="currentColor" style="fill:currentColor;fill:currentColor;fill-opacity:1;"/>
<path d="M7.58116 5.8852C7.59335 5.94749 7.61104 6.00778 7.63221 6.06626C7.61183 6.00997 7.59412 5.95217 7.58204 5.89233L7.58116 5.8852Z" fill="currentColor" style="fill:currentColor;fill:currentColor;fill-opacity:1;"/>
<path d="M24.3581 5.89233C24.3546 5.90955 24.3491 5.92622 24.3449 5.94317C24.3497 5.92392 24.3552 5.9048 24.359 5.8852L24.3581 5.89233Z" fill="currentColor" style="fill:currentColor;fill:currentColor;fill-opacity:1;"/>
<path fill-rule="evenodd" clip-rule="evenodd" d="M8.75971 2.45042C9.17443 2.45042 9.51035 2.79101 9.5105 3.21123V4.88625H9.96115C10.376 4.88625 10.7128 5.22671 10.7128 5.64706V10.5178C10.7128 10.9382 10.376 11.2795 9.96115 11.2795H7.10763V19.0428C7.1077 20.7553 7.58813 22.3606 8.41821 23.7262L9.24997 23.4382C9.22405 23.1941 9.21037 22.9464 9.21036 22.6961C9.21036 18.9135 12.2373 15.8462 15.9701 15.8461C19.7028 15.8461 22.7298 18.9135 22.7298 22.6961C22.7298 22.9464 22.7161 23.1941 22.6902 23.4382L23.5219 23.7262C24.352 22.3606 24.8325 20.7553 24.8325 19.0428V11.2795H21.979C21.5642 11.2795 21.2273 10.9382 21.2273 10.5178V5.64706C21.2273 5.22671 21.5642 4.88625 21.979 4.88625H22.4296V3.21123C22.4298 2.79101 22.7657 2.45042 23.1804 2.45042H27.987C28.4018 2.45042 28.7386 2.79101 28.7387 3.21123V4.88625H29.1894C29.604 4.8864 29.9401 5.22678 29.9401 5.64706V10.5178C29.9401 10.9381 29.604 11.2794 29.1894 11.2795H26.335V19.0428C26.3348 24.5818 22.0503 29.1522 16.6725 29.521L16.1487 29.5433H16.1452C16.087 29.5448 16.0286 29.546 15.9701 29.546L15.7949 29.5433H15.7914C10.1709 29.4457 5.60536 24.7603 5.60518 19.0428V11.2795H2.75079C2.33611 11.2794 2 10.9381 2 10.5178V5.64706C2 5.22681 2.33609 4.88643 2.75079 4.88625H3.20143V3.21123C3.20158 2.79101 3.53839 2.45042 3.9531 2.45042H8.75971ZM15.9701 17.3678C13.0669 17.3678 10.7128 19.7542 10.7128 22.6961C10.713 25.6378 13.067 28.0235 15.9701 28.0235C18.8731 28.0235 21.2272 25.6378 21.2273 22.6961C21.2273 19.7542 18.8732 17.3678 15.9701 17.3678ZM4.70389 3.97292V5.64706C4.70389 6.0673 4.36778 6.40771 3.9531 6.40786H3.50245V9.75702H9.21036V6.40786H8.75971C8.34494 6.40786 8.00896 6.06744 8.00893 5.64706V3.97292H4.70389ZM23.9312 3.97292V5.64706C23.9312 6.0674 23.5952 6.40786 23.1804 6.40786H22.7298V9.75702H28.4377V6.40786H27.987C27.5724 6.40771 27.2363 6.06735 27.2363 5.64706V3.97292H23.9312Z" fill="currentColor" style="fill:currentColor;fill:currentColor;fill-opacity:1;"/>
<path d="M5.15805 19.3211C5.16627 19.6507 5.19095 19.9766 5.22759 20.2986C5.20126 20.0672 5.18036 19.8339 5.16862 19.5984L5.15805 19.3211Z" fill="currentColor" style="fill:currentColor;fill:currentColor;fill-opacity:1;"/>
<path d="M10.4065 18.0483C10.333 18.1386 10.2619 18.2309 10.1926 18.3248L9.99107 18.6111C10.056 18.5137 10.1232 18.4188 10.1926 18.3248L10.4065 18.0483Z" fill="currentColor" style="fill:currentColor;fill:currentColor;fill-opacity:1;"/>
<path d="M11.9389 16.6373C11.5553 16.8999 11.1984 17.1995 10.8721 17.5301L10.6327 17.7834C10.9432 17.4372 11.286 17.1213 11.6564 16.8406L11.9389 16.6373Z" fill="currentColor" style="fill:currentColor;fill:currentColor;fill-opacity:1;"/>
<path d="M13.4915 15.8328C13.381 15.8738 13.2719 15.9176 13.1641 15.9639L12.8446 16.1102C12.9498 16.0588 13.0561 16.0102 13.1641 15.9639L13.4915 15.8328Z" fill="currentColor" style="fill:currentColor;fill:currentColor;fill-opacity:1;"/>
<path d="M15.5986 15.3993L15.2334 15.4269C15.4756 15.402 15.7214 15.3895 15.9701 15.3895C15.8455 15.3895 15.7217 15.393 15.5986 15.3993Z" fill="currentColor" style="fill:currentColor;fill:currentColor;fill-opacity:1;"/>
<path d="M10.4294 4.52502C10.5569 4.57969 10.6721 4.65722 10.7727 4.75068C10.7004 4.6836 10.6209 4.6245 10.5341 4.57675L10.4294 4.52502Z" fill="currentColor" style="fill:currentColor;fill:currentColor;fill-opacity:1;"/>
<path d="M29.6567 4.52502C29.7843 4.57968 29.8995 4.65721 30 4.75068C29.928 4.68375 29.8489 4.62443 29.7624 4.57675L29.6567 4.52502Z" fill="currentColor" style="fill:currentColor;fill:currentColor;fill-opacity:1;"/>
<path d="M10.0844 4.43583C10.1249 4.44 10.1649 4.44553 10.2041 4.45367L10.3185 4.48399C10.2809 4.47215 10.2423 4.46266 10.2032 4.45456L10.0844 4.43583Z" fill="currentColor" style="fill:currentColor;fill:currentColor;fill-opacity:1;"/>
<path d="M29.4314 4.45367L29.5467 4.48399C29.4763 4.46179 29.4029 4.44637 29.3275 4.43761C29.3626 4.44169 29.3973 4.4466 29.4314 4.45367Z" fill="currentColor" style="fill:currentColor;fill:currentColor;fill-opacity:1;"/>
<path d="M2.62844 4.43583C2.56432 4.44242 2.50171 4.45422 2.44097 4.47061C2.46336 4.46457 2.48585 4.45842 2.50874 4.45367L2.62844 4.43583Z" fill="currentColor" style="fill:currentColor;fill:currentColor;fill-opacity:1;"/>
<path d="M21.8558 4.43583C21.7969 4.4419 21.7393 4.45268 21.6833 4.46705C21.7011 4.46248 21.7188 4.45742 21.737 4.45367L21.8558 4.43583Z" fill="currentColor" style="fill:currentColor;fill:currentColor;fill-opacity:1;"/>
<path d="M9.90746 2.84911C9.93093 2.92552 9.94678 3.0052 9.95499 3.08725L9.96115 3.21123C9.96113 3.12719 9.95251 3.04519 9.9365 2.96595L9.90746 2.84911Z" fill="currentColor" style="fill:currentColor;fill:currentColor;fill-opacity:1;"/>
<path d="M22.0327 2.84911C21.9976 2.96346 21.979 3.08516 21.979 3.21123C21.979 3.12723 21.9868 3.04515 22.0028 2.96595L22.0327 2.84911Z" fill="currentColor" style="fill:currentColor;fill:currentColor;fill-opacity:1;"/>
<path d="M9.43128 2.20157C9.52741 2.26733 9.61381 2.34662 9.68741 2.43704L9.75607 2.53069C9.69128 2.43346 9.61275 2.34652 9.5237 2.27204L9.43128 2.20157Z" fill="currentColor" style="fill:currentColor;fill:currentColor;fill-opacity:1;"/>
<path d="M22.3311 2.35052C22.3039 2.37807 22.2781 2.40697 22.2536 2.43704L22.1841 2.53069C22.2056 2.49841 22.2292 2.46702 22.2536 2.43704L22.3311 2.35052Z" fill="currentColor" style="fill:currentColor;fill:currentColor;fill-opacity:1;"/>
<path d="M28.1103 2C28.3527 2.02496 28.5738 2.12305 28.7519 2.27204C28.6034 2.14783 28.4249 2.05929 28.2291 2.01873L28.1103 2Z" fill="currentColor" style="fill:currentColor;fill:currentColor;fill-opacity:1;"/>
<path d="M9.11706 2.04816C9.15484 2.06006 9.19189 2.07372 9.22796 2.08919L9.3327 2.14092C9.29845 2.12205 9.26413 2.10468 9.22796 2.08919L9.11706 2.04816Z" fill="currentColor" style="fill:currentColor;fill:currentColor;fill-opacity:1;"/>
</svg>
