<svg width="32" height="32" viewBox="0 0 32 32" fill="none" xmlns="http://www.w3.org/2000/svg">
<path fill-rule="evenodd" clip-rule="evenodd" d="M13.2353 11.555C14.0135 10.5974 15.6772 11.2584 15.4306 12.5794C15.2743 13.41 15.0918 14.3979 14.9551 15.1761C14.9345 15.2933 14.9165 15.4056 14.8984 15.5111C15.4177 15.5138 15.8586 15.4959 16.6328 15.4857L16.8252 15.4974C17.7587 15.6253 18.2653 16.7599 17.6054 17.5384L17.6064 17.5394C16.0678 19.3602 14.9603 20.6531 13.7138 22.0453L12.3994 23.4935L12.3974 23.4964C11.476 24.4926 9.7967 23.5011 10.3164 22.1888L11.2099 19.8753C11.3033 19.6331 11.3964 19.3976 11.4863 19.1703C11.1311 19.1784 10.7924 19.1927 10.3701 19.1986C9.39071 19.2116 8.71382 18.0902 9.33591 17.2337C10.3128 15.8667 12.0665 13.2776 13.1621 11.6537L13.2353 11.555ZM13.1894 14.8177C12.5896 15.6994 11.9681 16.6097 11.4375 17.3714C11.8444 17.3624 12.2925 17.3598 12.8623 17.3802C13.1615 17.3911 13.4365 17.5498 13.5947 17.804C13.7528 18.0585 13.7742 18.3756 13.6513 18.6488C13.466 19.0608 13.2765 19.5312 13.0742 20.0492C13.825 19.1973 14.5682 18.3363 15.4404 17.3089C15.1731 17.3135 14.9106 17.3168 14.6113 17.3109L13.8183 17.2806L13.8027 17.2796C13.3412 17.2469 13.1254 16.9094 13.0674 16.7992C13.0019 16.6748 12.9819 16.5642 12.9756 16.5277C12.9605 16.4404 12.9616 16.3675 12.9619 16.3451C12.9626 16.2841 12.9675 16.2243 12.9717 16.1849C12.9809 16.0968 12.9968 15.9828 13.0156 15.8587C13.054 15.6058 13.1126 15.2577 13.1816 14.8646C13.1843 14.8491 13.1867 14.8333 13.1894 14.8177Z" fill="currentColor" style="fill:currentColor;fill:currentColor;fill-opacity:1;"/>
<path fill-rule="evenodd" clip-rule="evenodd" d="M13.1943 5.25522C13.5433 5.01955 14.0151 5.05668 14.3232 5.35483C16.0774 7.05207 17.9879 8.64512 19.9277 10.2621C21.6168 11.67 23.3294 13.0973 24.9424 14.6039L25.6279 15.2542L25.6904 15.3216C25.9844 15.6703 25.9723 16.1928 25.6484 16.5277C25.3244 16.8622 24.8034 16.8909 24.4453 16.6087L24.3759 16.5482L23.7119 15.9173C23.4028 15.6286 23.0883 15.3431 22.7715 15.0589L22.7705 15.4447C22.7717 15.7895 22.7742 16.1391 22.7783 16.4915C22.9251 16.513 23.0704 16.5432 23.2138 16.5863C23.622 16.7088 23.9626 16.9122 24.2881 17.183C24.8456 17.6451 25.061 18.2216 25.1328 18.7679C25.1956 19.2458 25.1516 19.804 25.1426 20.1712C25.114 21.2956 25.0733 22.0745 25.0879 22.7259C25.1002 23.2771 25.1529 23.6576 25.2617 23.9789L25.3125 24.1136L25.3701 24.2415C25.6737 24.8539 26.2488 25.1592 26.75 25.0902L26.9267 25.0521C27.3299 24.9351 27.6712 24.6165 27.8496 24.1214C28.0893 23.4556 28.1015 22.6965 28.1015 21.7738L28.0986 12.8636C27.5039 12.7546 26.9664 12.4018 26.6191 11.8919L26.6201 11.891C26.3007 11.4222 26.1899 10.8277 26.1426 10.3705C26.0956 9.91721 26.0996 9.45892 26.1074 9.11362C26.1027 9.07658 26.0996 9.03863 26.0996 9.00034V7.00034C26.0997 6.5035 26.5031 6.1001 27 6.09995C27.4969 6.09995 27.9002 6.5034 27.9004 7.00034V8.12338C28.3176 8.11017 28.7081 8.10373 29.0996 8.1019V7.00034C29.0997 6.5035 29.5031 6.1001 30 6.09995C30.4969 6.09995 30.9002 6.5034 30.9004 7.00034V9.00034C30.9004 9.07121 30.8915 9.14022 30.8759 9.20639C30.9066 9.54225 30.9123 9.91577 30.8799 10.2816C30.843 10.6965 30.7507 11.1922 30.5302 11.6185L30.4277 11.7972C30.2852 12.019 30.1052 12.219 29.8984 12.3861C29.8984 15.5401 29.8988 18.5265 29.9023 21.7718L29.8974 22.4593C29.8818 23.1768 29.816 23.9737 29.5429 24.7318C29.1425 25.843 28.2235 26.7008 27 26.8724C25.4858 27.0827 24.1729 26.0894 23.6455 24.7943L23.5556 24.5531C23.3646 23.9873 23.3023 23.4043 23.2881 22.766C23.2722 22.0576 23.317 21.1788 23.3437 20.1263L23.3652 19.4749C23.3695 19.2971 23.3669 19.1489 23.3476 19.0023C23.3181 18.7782 23.2582 18.6679 23.1386 18.5687L23.1367 18.5667C23.0073 18.4591 22.9037 18.3957 22.8095 18.3539C22.82 18.8956 22.8305 19.4404 22.8418 19.9847C22.8839 22.0249 22.9227 24.0596 22.8847 25.8539C22.8746 26.3333 22.4901 26.7209 22.0107 26.7347C19.2909 26.8125 16.4412 26.8151 13.6074 26.8177C11.4785 26.8197 9.35789 26.8215 7.29587 26.8548L5.25486 26.8997C4.78945 26.9129 4.39622 26.5705 4.33689 26.1185L4.32907 26.0267C4.27073 24.0573 4.24292 22.0896 4.21482 20.1302C4.19371 18.6588 4.17227 17.1916 4.13864 15.7259L4.12986 15.3978C3.61744 15.8303 3.09962 16.2639 2.57321 16.6966C2.1894 17.012 1.62228 16.9561 1.30661 16.5726C0.991141 16.1886 1.04675 15.6216 1.43064 15.306C3.44585 13.6492 5.34635 11.9913 7.25778 10.3236C9.16662 8.65817 11.0869 6.98233 13.1259 5.306L13.1943 5.25522ZM13.6582 7.20541C11.8681 8.69371 10.1581 10.1812 8.44138 11.679C7.58268 12.4282 6.71974 13.1775 5.84665 13.93C5.86797 13.9893 5.88404 14.0511 5.89255 14.1156L5.89939 14.2074L5.93845 15.6839C5.97231 17.1599 5.99355 18.6343 6.01462 20.1039C6.03847 21.7666 6.06253 23.4244 6.10446 25.0804C8.54885 25.0251 11.0833 25.0202 13.6054 25.0179C16.1415 25.0156 18.6661 25.0098 21.0937 24.9544C21.1061 23.4232 21.0774 21.7403 21.042 20.0218C20.9999 17.9827 20.9538 15.8933 20.9765 13.9896L20.9814 13.8978C20.9943 13.7848 21.0274 13.6777 21.0781 13.5814C20.3202 12.9345 19.5502 12.2906 18.7744 11.6439C17.0503 10.2068 15.3018 8.74815 13.6582 7.20541ZM29.0976 9.9017C28.7101 9.90365 28.325 9.90949 27.9131 9.92319C27.9178 10.0114 27.9247 10.0991 27.9336 10.1849C27.9742 10.5771 28.05 10.7955 28.1064 10.8783L28.1504 10.9339C28.2556 11.0525 28.394 11.1036 28.499 11.0999C28.6127 11.0958 28.7901 11.016 28.9131 10.8246C28.9758 10.7261 29.0542 10.4909 29.0869 10.1224C29.0934 10.0493 29.0953 9.97516 29.0976 9.9017Z" fill="currentColor" style="fill:currentColor;fill:currentColor;fill-opacity:1;"/>
</svg>
