<svg width="32" height="32" viewBox="0 0 32 32" fill="none" xmlns="http://www.w3.org/2000/svg">
<path d="M28.516 10.012C28.1276 10.4028 28.1286 11.0343 28.5183 11.424L28.8653 11.771C29.2563 12.162 29.2558 12.7962 28.8641 13.1865L26.3877 15.6541C25.9974 16.043 25.3661 16.0429 24.9759 15.6539L21.988 12.6754C21.5973 12.2859 20.965 12.2864 20.5749 12.6765L12.6765 20.5749C12.2864 20.965 12.2859 21.5973 12.6754 21.988L15.6539 24.9759C16.0429 25.3661 16.043 25.9974 15.6541 26.3877L13.1865 28.8641C12.7962 29.2558 12.162 29.2563 11.771 28.8653L11.424 28.5183C11.0343 28.1286 10.4028 28.1276 10.012 28.516L9.22392 29.2992C8.83376 29.6869 8.20373 29.6867 7.81378 29.2988L6.16118 27.6548C6.00243 27.4969 5.7465 27.4901 5.60314 27.6621V27.6621C5.51146 27.7721 5.41061 27.873 5.30059 27.9646C5.19057 28.0563 5.07597 28.1388 4.95678 28.2122C4.83759 28.2855 4.70465 28.3222 4.55796 28.3222C4.31958 28.3222 4.11329 28.2351 3.9391 28.0609C3.7649 27.8867 3.6778 27.6804 3.6778 27.442C3.6778 27.3045 3.70989 27.1762 3.77407 27.057C3.83824 26.9378 3.92076 26.8232 4.02161 26.7132C4.12246 26.6031 4.2279 26.5023 4.33792 26.4106V26.4106C4.51643 26.2619 4.50212 25.9966 4.33824 25.8318L2.70122 24.1862C2.3133 23.7963 2.31313 23.1662 2.70085 22.7761L3.48396 21.988C3.8724 21.5972 3.87141 20.9657 3.48175 20.576L3.13469 20.229C2.74367 19.838 2.74423 19.2038 3.13594 18.8135L5.61227 16.3459C6.00256 15.957 6.63391 15.9571 7.02413 16.3461L10.012 19.3246C10.4027 19.7141 11.035 19.7136 11.4251 19.3235L19.3235 11.4251C19.7136 11.035 19.7141 10.4027 19.3246 10.012L16.3461 7.02413C15.9571 6.63391 15.957 6.00256 16.3459 5.61227L18.8135 3.13594C19.2038 2.74423 19.838 2.74367 20.229 3.13469L20.576 3.48175C20.9657 3.87141 21.5972 3.8724 21.988 3.48396L22.7761 2.70085C23.1662 2.31313 23.7963 2.3133 24.1862 2.70122L25.8388 4.34521C25.9976 4.50313 26.2535 4.50994 26.3969 4.33792V4.33792C26.4885 4.2279 26.5894 4.12705 26.6994 4.03536C26.8094 3.94368 26.924 3.86117 27.0432 3.78782C27.1624 3.71447 27.2954 3.6778 27.442 3.6778C27.6804 3.6778 27.8867 3.7649 28.0609 3.9391C28.2351 4.11329 28.3222 4.31958 28.3222 4.55796C28.3222 4.69548 28.2901 4.82384 28.2259 4.94303C28.1618 5.06221 28.0792 5.17682 27.9784 5.28684C27.8775 5.39686 27.7721 5.49771 27.6621 5.58939V5.58939C27.4836 5.73815 27.4979 6.00345 27.6618 6.16818L29.2988 7.81378C29.6867 8.20373 29.6869 8.83376 29.2992 9.22392L28.516 10.012ZM8.99312 27.0363C9.25516 26.7743 9.25516 26.3495 8.99312 26.0874L5.91257 23.0069C5.65054 22.7448 5.22569 22.7448 4.96365 23.0069V23.0069C4.70162 23.2689 4.70162 23.6938 4.96365 23.9558L8.0442 27.0363C8.30624 27.2984 8.73109 27.2984 8.99312 27.0363V27.0363ZM13.1773 26.3796C13.566 25.9948 13.5675 25.3671 13.1807 24.9803L7.01965 18.8193C6.63285 18.4325 6.00524 18.434 5.62035 18.8227V18.8227C5.23813 19.2087 5.23966 19.831 5.62378 20.2151L11.7849 26.3762C12.169 26.7603 12.7913 26.7619 13.1773 26.3796V26.3796ZM23.0069 4.96365C22.7448 5.22569 22.7448 5.65054 23.0069 5.91257L26.0874 8.99312C26.3495 9.25516 26.7743 9.25516 27.0363 8.99312V8.99312C27.2984 8.73109 27.2984 8.30624 27.0363 8.0442L23.9558 4.96365C23.6938 4.70162 23.2689 4.70162 23.0069 4.96365V4.96365ZM26.3796 13.1773C26.7619 12.7913 26.7603 12.169 26.3762 11.7849L20.2151 5.62378C19.831 5.23966 19.2087 5.23813 18.8227 5.62035V5.62035C18.434 6.00524 18.4325 6.63285 18.8193 7.01965L24.9803 13.1807C25.3671 13.5675 25.9948 13.566 26.3796 13.1773V13.1773Z" fill="currentColor" style="fill:currentColor;fill:currentColor;fill-opacity:1;"/>
</svg>
