<svg width="32" height="32" viewBox="0 0 32 32" fill="none" xmlns="http://www.w3.org/2000/svg">
<path d="M25.8113 15.0176C26.1275 14.957 26.4536 15.053 26.6873 15.2744C26.921 15.4959 27.0346 15.8167 26.991 16.1357C26.4928 19.7848 26.4613 23.4791 26.8973 27.1338L26.991 27.8643C27.038 28.2089 26.9018 28.5542 26.6326 28.7744C26.3635 28.9944 25.999 29.0586 25.6707 28.9443L25.2235 28.7988C23.124 28.1652 20.8757 28.1652 18.7762 28.7988L18.3289 28.9443C18.0016 29.0584 17.638 28.9949 17.369 28.7764C17.0998 28.5576 16.9637 28.2141 17.0086 27.8701L17.0565 27.6025C17.1197 27.3141 17.2207 26.9783 17.2947 26.7227C17.3881 26.4 17.4526 26.1621 17.4842 26.0156L17.5047 25.8994L17.6053 24.9053L19.5945 25.1055L19.4949 26.1006L19.451 26.3799C19.4376 26.4464 19.4198 26.5146 19.4031 26.584C21.1942 26.2238 23.0442 26.2398 24.8299 26.6328C24.5076 23.495 24.5142 20.3332 24.8485 17.1963C23.7297 17.3409 22.6021 17.4005 21.4764 17.374L20.4764 17.3506L20.5233 15.3516L21.5233 15.375L22.0613 15.3799C23.3173 15.376 24.5733 15.2553 25.8113 15.0176Z" fill="currentColor" style="fill:currentColor;fill:currentColor;fill-opacity:1;"/>
<path fill-rule="evenodd" clip-rule="evenodd" d="M18.9129 5.00391C19.1902 4.97972 19.4677 5.07221 19.6756 5.2627C19.8832 5.45306 19.9996 5.72094 19.9998 5.99902L19.993 6.11914C19.3262 11.6873 19.3262 17.3127 19.993 22.8809C20.0314 23.2023 19.9114 23.5226 19.6717 23.7402C19.432 23.9577 19.1021 24.0457 18.786 23.9766C13.6589 22.852 8.34074 22.852 3.21369 23.9766C2.88178 24.0493 2.53569 23.9485 2.29474 23.709C2.05372 23.4691 1.95098 23.1226 2.02228 22.79C3.19501 17.3232 3.195 11.6768 2.02228 6.20996C1.95132 5.87917 2.05228 5.5348 2.29083 5.29492C2.52959 5.05505 2.87366 4.95206 3.2049 5.02148C8.34327 6.09871 13.6564 6.09873 18.7947 5.02148L18.9129 5.00391ZM17.8592 7.2334C13.3615 8.01638 8.76014 8.02306 4.26056 7.25391C5.10984 12.0444 5.1102 16.9417 4.26251 21.7324C8.75807 20.9302 13.3647 20.9371 17.8582 21.7539C17.3725 16.9254 17.3727 12.0619 17.8592 7.2334Z" fill="currentColor" style="fill:currentColor;fill:currentColor;fill-opacity:1;"/>
<path d="M25.4998 3C26.052 3.0001 26.4998 3.44778 26.4998 4V6.5H28.9998C29.552 6.5001 29.9998 6.94778 29.9998 7.5C29.9998 8.05222 29.552 8.4999 28.9998 8.5H26.4998V11C26.4998 11.5522 26.052 11.9999 25.4998 12C24.9475 12 24.4998 11.5523 24.4998 11V8.5H21.9998C21.4475 8.5 20.9998 8.05228 20.9998 7.5C20.9998 6.94772 21.4475 6.5 21.9998 6.5H24.4998V4C24.4998 3.44772 24.9475 3 25.4998 3Z" fill="currentColor" style="fill:currentColor;fill:currentColor;fill-opacity:1;"/>
</svg>
