<svg width="32" height="32" viewBox="0 0 32 32" fill="none" xmlns="http://www.w3.org/2000/svg">
<path fill-rule="evenodd" clip-rule="evenodd" d="M14.5293 2.0108C14.6185 2.02256 14.7387 2.04459 14.8818 2.07623C15.1696 2.13985 15.5696 2.24626 16.0449 2.40142C16.9958 2.71183 18.2607 3.2203 19.5488 3.9815C22.0404 5.45389 24.6617 7.89745 25.21 11.7042L25.2559 12.0762L25.2568 12.0811L25.293 12.6358C25.5098 18.3289 20.941 22.5996 15.9619 22.5997C10.8366 22.5996 6.18517 18.354 6.74609 12.5684L6.79785 12.1592C7.11318 10.141 8.25471 8.5435 9.33984 7.45904C9.92014 6.87912 10.4909 6.43897 10.9248 6.1524C11.1411 6.00959 11.3283 5.90225 11.4687 5.83404C11.5369 5.80095 11.6046 5.77228 11.6641 5.75494C11.691 5.74708 11.7362 5.73501 11.7871 5.73443C11.8061 5.73422 11.9504 5.73264 12.0439 5.85259L12.0801 5.91217L12.0957 5.94439L12.1025 5.97857L12.1885 6.37115C12.4052 7.33688 12.6834 8.30342 13.0557 8.9522C13.2419 9.27667 13.4344 9.49015 13.625 9.59674C13.7981 9.69343 13.9915 9.7152 14.2402 9.6065L14.3213 9.56646C14.717 9.35277 14.9494 8.90673 15.0391 8.24615C15.134 7.54615 15.0555 6.68203 14.9033 5.81939C14.7519 4.96119 14.531 4.12585 14.3535 3.49127C14.266 3.17841 14.1868 2.90446 14.1348 2.71197C14.1087 2.61576 14.0865 2.53075 14.0732 2.4649C14.0668 2.43296 14.0602 2.39562 14.0576 2.36041C14.0564 2.3432 14.0556 2.3168 14.0586 2.28717C14.0607 2.26643 14.0692 2.19712 14.1191 2.12896L14.126 2.11822L14.1348 2.10845L14.2061 2.04888C14.2282 2.03533 14.2477 2.02708 14.2598 2.02252C14.2876 2.01206 14.312 2.00729 14.3271 2.00494C14.3574 2.00024 14.385 1.9998 14.4033 2.00006C14.4421 2.0006 14.486 2.00509 14.5293 2.0108ZM14.6016 22.1954C14.8975 22.2404 15.1965 22.2726 15.498 22.2881L15.0371 22.252C14.8911 22.237 14.746 22.2174 14.6016 22.1954ZM15.1582 20.9844C15.4225 21.0111 15.6905 21.0264 15.9619 21.0264C17.0741 21.0264 18.1401 20.7764 19.1064 20.3272L18.7393 20.4854C17.8727 20.834 16.9351 21.0264 15.9619 21.0264L15.5449 21.0147C15.4151 21.008 15.2862 20.9974 15.1582 20.9844ZM16.5791 4.59869C16.6818 5.05805 16.7669 5.50035 16.8311 5.9317L16.8945 6.4024C17.0211 7.48339 17.0054 8.45053 16.7734 9.25689C16.5205 10.136 16.01 10.8202 15.1719 11.2413L14.999 11.3223C14.2147 11.6651 13.476 11.6397 12.832 11.3165C12.2782 11.0384 11.8176 10.5523 11.4561 9.94537L11.3076 9.67877C11.139 9.35519 10.9901 8.99961 10.8535 8.60845L10.6738 8.78424L10.6729 8.78326C9.57831 9.87813 8.85674 11.1347 8.65527 12.4786L8.62207 12.7481C8.19498 17.1533 11.6538 20.7256 15.9619 20.7256C20.2285 20.7256 23.8043 16.8907 23.3809 12.2686C23.098 9.61204 21.5656 7.50766 19.0928 5.90631L18.585 5.59283C17.9346 5.20851 17.2543 4.87708 16.5791 4.59869ZM20.1484 19.7403C20.038 19.8142 19.9256 19.885 19.8115 19.9532L20.1484 19.7403C20.2588 19.6664 20.368 19.5893 20.4746 19.5098L20.1484 19.7403ZM21.0908 19.0001C20.9924 19.0902 20.8918 19.1778 20.7891 19.2628L21.0908 19.0001C21.1892 18.91 21.285 18.8178 21.3789 18.7227L21.0908 19.0001ZM23.2842 15.6358C23.2398 15.7666 23.1923 15.8959 23.1416 16.0235L23.2842 15.6358C23.3287 15.5046 23.3703 15.3716 23.4082 15.2374L23.2842 15.6358ZM23.709 12.6885C23.7319 13.2808 23.6915 13.8591 23.5947 14.417L23.6572 13.9942C23.7083 13.5683 23.7262 13.1328 23.709 12.6885ZM8.28711 13.5694C8.28758 13.6122 8.29082 13.6548 8.29199 13.6973C8.29058 13.646 8.2875 13.5946 8.28711 13.543V13.5694ZM23.4932 11.1641C23.5144 11.2514 23.5343 11.3392 23.5527 11.4278L23.4932 11.1641C23.4719 11.0768 23.4498 10.9903 23.4258 10.9044L23.4932 11.1641ZM23.1729 10.1495C23.205 10.2315 23.2361 10.3142 23.2656 10.3975L23.1729 10.1495C23.1408 10.0677 23.108 9.98678 23.0732 9.90631L23.1729 10.1495ZM11.5732 9.54009C11.5237 9.44497 11.4763 9.34673 11.4297 9.24517L11.5732 9.54009ZM9.46387 9.75592C9.40621 9.83882 9.35067 9.92259 9.29687 10.0069L9.46387 9.75592C9.52135 9.67325 9.58137 9.59105 9.64258 9.50982L9.46387 9.75592ZM14.082 9.96392C14.0945 9.96184 14.1075 9.96163 14.1201 9.95904L14.123 9.95806C14.1094 9.96091 14.0955 9.96167 14.082 9.96392ZM22.1514 8.30572C22.2569 8.44941 22.3576 8.59546 22.4531 8.7442L22.3066 8.52349C22.2062 8.37737 22.1005 8.23393 21.9902 8.09283L22.1514 8.30572ZM12.2773 7.87213C12.2886 7.90705 12.3019 7.94114 12.3135 7.97564C12.2971 7.92674 12.2795 7.87791 12.2637 7.82818L12.2773 7.87213ZM21.6445 7.67681C21.7046 7.74495 21.7637 7.81348 21.8213 7.88287L21.6445 7.67681C21.5846 7.60876 21.5242 7.54148 21.4619 7.47467L21.6445 7.67681ZM19.9541 6.14263C20.1991 6.3244 20.4356 6.50951 20.6592 6.70318L20.2178 6.33892C20.132 6.27172 20.0426 6.20829 19.9541 6.14263ZM16.4687 5.57037C16.4926 5.70684 16.5153 5.84178 16.5352 5.97564L16.4687 5.57037C16.4449 5.43378 16.4193 5.29591 16.3916 5.15631L16.4687 5.57037ZM18.4336 5.15924C18.5354 5.21626 18.6367 5.27459 18.7373 5.33404C18.536 5.21509 18.3326 5.10146 18.127 4.99224L18.4336 5.15924ZM16.2549 4.14556C16.4624 4.22425 16.671 4.30846 16.8799 4.39752L16.2549 4.14556Z" fill="currentColor" style="fill:currentColor;fill:currentColor;fill-opacity:1;"/>
<path d="M1 22.836C1.00014 21.5353 1.68868 20.4117 2.68457 19.5157C3.68008 18.62 5.05841 17.8769 6.66113 17.2999L7.33887 19.1807C5.88474 19.7043 4.76267 20.337 4.02246 21.003C3.28305 21.6683 3.00014 22.292 3 22.836C3 23.3262 3.22721 23.8777 3.81152 24.4698C4.40008 25.0661 5.30156 25.6491 6.49414 26.1602C8.87587 27.181 12.2362 27.836 16 27.836C19.7638 27.836 23.1241 27.181 25.5059 26.1602C26.6984 25.6491 27.5999 25.0661 28.1885 24.4698C28.7728 23.8777 29 23.3262 29 22.836C28.9999 22.292 28.7169 21.6683 27.9775 21.003C27.2373 20.337 26.1153 19.7043 24.6611 19.1807L25.3389 17.2999C26.9416 17.8769 28.3199 18.62 29.3154 19.5157C30.3113 20.4117 30.9999 21.5353 31 22.836C31 24.0026 30.4439 25.0305 29.6113 25.8741C28.783 26.7134 27.6338 27.4234 26.293 27.9981C23.6077 29.1488 19.968 29.836 16 29.836C12.032 29.836 8.39227 29.1488 5.70703 27.9981C4.36618 27.4234 3.21697 26.7134 2.38867 25.8741C1.55613 25.0305 1 24.0026 1 22.836Z" fill="currentColor" style="fill:currentColor;fill:currentColor;fill-opacity:1;"/>
</svg>
