<svg width="32" height="32" viewBox="0 0 32 32" fill="none" xmlns="http://www.w3.org/2000/svg">
<path d="M21.6665 24.999H12.9995V26.666C12.9995 27.108 13.1752 27.5322 13.4878 27.8447C13.8004 28.1573 14.2245 28.333 14.6665 28.333H19.9995C20.4415 28.333 20.8657 28.1572 21.1782 27.8447C21.4908 27.5322 21.6665 27.108 21.6665 26.666V24.999ZM15.9995 3.66602C15.9112 3.6661 15.8266 3.70124 15.7642 3.76367C15.7017 3.82611 15.6666 3.91074 15.6665 3.99902V7.22461C16.2052 7.0776 16.7653 6.99902 17.3335 6.99902C17.9015 6.99905 18.461 7.07768 18.9995 7.22461V3.99902C18.9994 3.91074 18.9643 3.82611 18.9019 3.76367C18.8394 3.70126 18.7548 3.66602 18.6665 3.66602H15.9995ZM21.6665 13.333C21.6665 12.1837 21.2096 11.0812 20.397 10.2686C19.5844 9.45608 18.4826 8.99911 17.3335 8.99902C16.1842 8.99902 15.0817 9.4559 14.269 10.2686C13.4564 11.0812 12.9995 12.1837 12.9995 13.333V22.999H21.6665V13.333ZM23.6665 26.666C23.6665 27.6385 23.2799 28.5712 22.5923 29.2588C21.9047 29.9463 20.9719 30.333 19.9995 30.333H14.6665C13.694 30.333 12.7614 29.9464 12.0737 29.2588C11.3861 28.5712 10.9995 27.6385 10.9995 26.666V18.333H7.6665V26.666C7.6665 27.2183 7.21879 27.666 6.6665 27.666C6.11422 27.666 5.6665 27.2183 5.6665 26.666V11.999C5.66659 9.61235 6.6147 7.32346 8.30225 5.63574C9.80306 4.13493 11.7797 3.21973 13.8774 3.03516C13.9922 2.78265 14.1502 2.5495 14.3501 2.34961C14.7876 1.9121 15.3808 1.6661 15.9995 1.66602H18.6665C19.2853 1.66602 19.8793 1.91202 20.3169 2.34961C20.5069 2.53973 20.6578 2.76078 20.771 2.99902H23.9995C24.5517 2.99902 24.9993 3.44689 24.9995 3.99902C24.9995 4.55131 24.5518 4.99902 23.9995 4.99902H20.9995V8.16992C21.2867 8.37389 21.5586 8.60211 21.811 8.85449C22.9988 10.0422 23.6665 11.6533 23.6665 13.333V26.666ZM7.6665 16.333H10.9995V13.333C10.9995 11.6533 11.6672 10.0422 12.855 8.85449C13.1072 8.60224 13.3795 8.37479 13.6665 8.1709V5.07129C12.1797 5.28587 10.791 5.97508 9.71631 7.0498C8.40383 8.36245 7.66659 10.1428 7.6665 11.999V16.333Z" fill="currentColor" style="fill:currentColor;fill:currentColor;fill-opacity:1;"/>
</svg>
