<svg width="32" height="32" viewBox="0 0 32 32" fill="none" xmlns="http://www.w3.org/2000/svg">
<path fill-rule="evenodd" clip-rule="evenodd" d="M3.13273 0H28.8593C29.1499 0.000687719 29.4283 0.116417 29.6338 0.321874C29.8392 0.527332 29.955 0.805794 29.9556 1.09635V30.9036C29.9543 31.194 29.8383 31.4721 29.633 31.6774C29.4277 31.8827 29.1496 31.9986 28.8593 32H3.13273C2.84238 31.9986 2.56432 31.8827 2.359 31.6774C2.15369 31.4721 2.03775 31.194 2.03638 30.9036L2.03638 1.09635C2.03775 0.806005 2.15369 0.527938 2.359 0.322628C2.56432 0.117318 2.84238 0.00136959 3.13273 0ZM20.0051 21.0078C20.1056 20.944 20.2266 20.9208 20.3435 20.943C20.4604 20.9651 20.5646 21.0308 20.6348 21.1269C20.705 21.223 20.7361 21.3422 20.7217 21.4603C20.7073 21.5784 20.6485 21.6866 20.5572 21.763L19.289 22.6979C19.1885 22.7617 19.0676 22.7849 18.9506 22.7628C18.8337 22.7407 18.7295 22.6749 18.6593 22.5788C18.5891 22.4828 18.558 22.3636 18.5724 22.2454C18.5868 22.1273 18.6456 22.0191 18.7369 21.9427L20.0051 21.0078ZM24.9843 16.8411C25.0307 16.7982 25.0853 16.765 25.1448 16.7437C25.2044 16.7224 25.2676 16.7133 25.3307 16.7171C25.3938 16.7208 25.4556 16.7373 25.5121 16.7655C25.5687 16.7938 25.619 16.8332 25.66 16.8813C25.7009 16.9295 25.7317 16.9855 25.7505 17.0459C25.7693 17.1062 25.7756 17.1698 25.7692 17.2327C25.7628 17.2956 25.7437 17.3566 25.713 17.4119C25.6824 17.4672 25.6409 17.5158 25.5911 17.5547L21.802 20.7604C21.757 20.809 21.7023 20.8475 21.6413 20.8734C21.5804 20.8993 21.5147 20.912 21.4485 20.9107C21.3823 20.9093 21.3171 20.894 21.2573 20.8656C21.1975 20.8373 21.1443 20.7966 21.1013 20.7462C21.0584 20.6958 21.0266 20.6369 21.008 20.5734C20.9895 20.5098 20.9846 20.4431 20.9937 20.3775C21.0028 20.3119 21.0257 20.249 21.0609 20.1929C21.0961 20.1368 21.1428 20.0888 21.1978 20.0521L24.9817 16.8359L24.9843 16.8411ZM25.2135 20.5521C25.3095 20.4727 25.4331 20.4346 25.5571 20.4463C25.6812 20.4581 25.7955 20.5186 25.8749 20.6146C25.9543 20.7106 25.9924 20.8342 25.9807 20.9583C25.9689 21.0823 25.9084 21.1966 25.8124 21.276L19.8515 26.1432C19.7555 26.2213 19.6324 26.258 19.5093 26.2453C19.3863 26.2326 19.2733 26.1715 19.1952 26.0755C19.1172 25.9795 19.0805 25.8564 19.0932 25.7334C19.1059 25.6103 19.1669 25.4973 19.2629 25.4193L25.2135 20.5521ZM11.7187 11.0807C11.6693 11.1195 11.6125 11.1479 11.5519 11.1644C11.4913 11.1808 11.428 11.1849 11.3658 11.1764C11.3035 11.1679 11.2436 11.1469 11.1897 11.1148C11.1357 11.0827 11.0887 11.0401 11.0515 10.9894C11.0143 10.9388 10.9877 10.8812 10.9732 10.8201C10.9587 10.759 10.9567 10.6956 10.9671 10.6337C10.9776 10.5717 11.0005 10.5125 11.0343 10.4596C11.0681 10.4067 11.1122 10.3611 11.164 10.3255L12.4322 9.39063C12.5337 9.3188 12.6596 9.29024 12.7822 9.31124C12.9048 9.33224 13.014 9.40108 13.0859 9.50261C13.1577 9.60413 13.1862 9.73004 13.1652 9.85262C13.1442 9.9752 13.0754 10.0844 12.9739 10.1563L11.7083 11.0911L11.7187 11.0807ZM6.7369 15.2474C6.6909 15.2926 6.63608 15.3277 6.57587 15.3507C6.51566 15.3738 6.45134 15.3841 6.38695 15.3811C6.32256 15.3782 6.25947 15.362 6.20163 15.3335C6.14379 15.3051 6.09244 15.265 6.05079 15.2158C6.00913 15.1666 5.97807 15.1093 5.95955 15.0476C5.94102 14.9859 5.93543 14.921 5.94312 14.857C5.95081 14.793 5.97162 14.7312 6.00424 14.6756C6.03687 14.62 6.08061 14.5718 6.13273 14.5339L9.91659 11.3281C10.0123 11.2585 10.1308 11.2276 10.2483 11.2418C10.3658 11.2559 10.4736 11.3139 10.5501 11.4043C10.6266 11.4946 10.6661 11.6105 10.6606 11.7287C10.6552 11.847 10.6052 11.9588 10.5208 12.0417L6.7369 15.2526V15.2474ZM6.49731 11.5365C6.44978 11.5751 6.3951 11.604 6.33639 11.6215C6.27769 11.639 6.21611 11.6448 6.15517 11.6385C6.09423 11.6322 6.03513 11.614 5.98123 11.5849C5.92734 11.5557 5.87971 11.5163 5.84106 11.4688C5.80242 11.4212 5.77352 11.3665 5.75601 11.3078C5.73849 11.2491 5.73272 11.1875 5.73901 11.1266C5.74529 11.0657 5.76352 11.0066 5.79265 10.9527C5.82178 10.8988 5.86124 10.8511 5.90877 10.8125L11.8671 5.94531C11.9142 5.90356 11.9693 5.87178 12.0291 5.8519C12.0888 5.83203 12.152 5.82446 12.2147 5.82966C12.2775 5.83486 12.3385 5.85272 12.3942 5.88216C12.4498 5.9116 12.499 5.95201 12.5386 6.00095C12.5782 6.04989 12.6075 6.10636 12.6247 6.16693C12.6419 6.2275 12.6466 6.29093 12.6386 6.35339C12.6306 6.41584 12.6101 6.47603 12.5782 6.53032C12.5463 6.58461 12.5037 6.63188 12.453 6.66927L6.49731 11.5365ZM4.21606 2.16146H14.927V29.8464H4.21606V2.15365V2.16146ZM17.0702 2.16146H27.7812V29.8464H17.0702V2.15365V2.16146Z" fill="currentColor" style="fill:currentColor;fill:currentColor;fill-opacity:1;"/>
</svg>
