<svg width="32" height="32" viewBox="0 0 32 32" fill="none" xmlns="http://www.w3.org/2000/svg">
<path d="M28.3337 16.751C28.3337 14.6589 28.3309 13.1961 28.1726 12.0918C28.0194 11.0232 27.7384 10.4377 27.283 10.0107C26.8183 9.5751 26.1671 9.29996 24.9959 9.15234C23.8021 9.0019 22.2263 9 19.9998 9H11.9998C9.7736 9 8.19826 9.00195 7.00464 9.15234C5.98003 9.28148 5.35301 9.50806 4.90113 9.85449L4.71753 10.0107C4.26176 10.4386 3.98102 11.024 3.82788 12.0918C3.66958 13.1957 3.66675 14.6582 3.66675 16.751V19.249C3.66675 21.3411 3.66958 22.8039 3.82788 23.9082C3.98109 24.9768 4.2621 25.5623 4.71753 25.9893C5.18218 26.4248 5.83352 26.7001 7.00464 26.8477C8.19826 26.9981 9.7736 27 11.9998 27H19.9998C22.2263 27 23.8021 26.9981 24.9959 26.8477C26.1667 26.7001 26.8174 26.4246 27.282 25.9893L27.4451 25.8213C27.8065 25.408 28.0386 24.8429 28.1726 23.9082C28.3309 22.8043 28.3337 21.3418 28.3337 19.249V16.751ZM14.9998 22V19H11.9998C11.4476 18.9998 10.9998 18.5522 10.9998 18C10.9998 17.4478 11.4476 17.0002 11.9998 17H14.9998V14C14.9998 13.4478 15.4476 13.0002 15.9998 13C16.552 13 16.9998 13.4477 16.9998 14V17H19.9998C20.552 17 20.9998 17.4477 20.9998 18C20.9998 18.5523 20.552 19 19.9998 19H16.9998V22C16.9998 22.5523 16.552 23 15.9998 23C15.4476 22.9998 14.9998 22.5522 14.9998 22ZM13.3337 5C12.5281 5 11.9503 5.04376 11.5271 5.13672C11.1154 5.22717 10.9155 5.34994 10.7996 5.46582C10.6836 5.58175 10.56 5.78145 10.4695 6.19336C10.4204 6.41661 10.3864 6.68296 10.364 7.00293C10.8786 6.99995 11.4234 7 11.9998 7H19.9998C20.576 7 21.121 6.99996 21.6355 7.00293C21.6131 6.68298 21.5791 6.4166 21.53 6.19336C21.4395 5.78154 21.3168 5.58173 21.2009 5.46582C21.085 5.34991 20.8852 5.22721 20.4734 5.13672C20.0501 5.04374 19.4724 5 18.6667 5H13.3337ZM30.3337 19.249C30.3337 21.2816 30.3355 22.9136 30.1521 24.1924C29.9636 25.5068 29.5617 26.5936 28.6511 27.4482L28.4792 27.6016C27.6066 28.3392 26.5306 28.6701 25.2459 28.832C23.8979 29.0019 22.1732 29 19.9998 29H11.9998C9.82669 29 8.10246 29.0019 6.75464 28.832C5.38421 28.6593 4.25138 28.2939 3.34937 27.4482C2.43826 26.594 2.0359 25.5068 1.84741 24.1924C1.66405 22.9133 1.66675 21.2809 1.66675 19.249V16.751C1.66675 14.7184 1.66405 13.0864 1.84741 11.8076C2.03595 10.4932 2.43873 9.40642 3.34937 8.55176L3.52124 8.39844C4.39387 7.66093 5.46994 7.32988 6.75464 7.16797C7.23989 7.10683 7.77391 7.0677 8.36011 7.04297C8.38572 6.57758 8.43165 6.15037 8.51636 5.76465C8.65878 5.11632 8.9151 4.52216 9.3855 4.05176C9.85582 3.58151 10.4493 3.32504 11.0974 3.18262C11.7344 3.04268 12.4848 3 13.3337 3H18.6667C19.5156 3 20.2652 3.04275 20.9021 3.18262C21.5504 3.32504 22.1446 3.58135 22.615 4.05176C23.0854 4.52216 23.3417 5.11632 23.4841 5.76465C23.5688 6.15035 23.6138 6.57763 23.6394 7.04297C24.226 7.06771 24.7603 7.10678 25.2459 7.16797C26.6163 7.34069 27.7491 7.70606 28.6511 8.55176C29.5621 9.40594 29.9636 10.4933 30.1521 11.8076C30.3355 13.0867 30.3337 14.7191 30.3337 16.751V19.249Z" fill="currentColor" style="fill:currentColor;fill:currentColor;fill-opacity:1;"/>
</svg>
