<svg width="32" height="32" viewBox="0 0 32 32" fill="none" xmlns="http://www.w3.org/2000/svg">
<path d="M28.3337 15.999C28.3336 9.18798 22.8108 3.66602 15.9998 3.66602C9.18882 3.66619 3.66692 9.18809 3.66675 15.999C3.66675 22.8101 9.18871 28.3328 15.9998 28.333C22.8109 28.333 28.3337 22.8102 28.3337 15.999ZM20.7976 12.5215C20.7976 12.1199 20.7179 11.7216 20.5642 11.3506C20.4105 10.9797 20.185 10.6423 19.9011 10.3584C19.6174 10.0748 19.2805 9.84989 18.9099 9.69629C18.6315 9.58096 18.3376 9.50696 18.0388 9.47754L17.739 9.46289H13.5222V15.5791H17.739L18.0388 15.5645C18.3376 15.535 18.6315 15.462 18.9099 15.3467C19.2807 15.1931 19.6173 14.9673 19.9011 14.6836C20.185 14.3997 20.4105 14.0624 20.5642 13.6914C20.7178 13.3205 20.7976 12.9229 20.7976 12.5215ZM30.3337 15.999C30.3337 23.9148 23.9155 30.333 15.9998 30.333C8.08414 30.3328 1.66675 23.9147 1.66675 15.999C1.66692 8.08352 8.08425 1.66619 15.9998 1.66602C23.9154 1.66602 30.3336 8.08341 30.3337 15.999ZM22.7976 12.5215C22.7976 13.1856 22.666 13.8435 22.4119 14.457C22.1577 15.0705 21.7856 15.6281 21.3162 16.0977C20.8465 16.5673 20.2882 16.9401 19.6746 17.1943C19.1377 17.4167 18.5671 17.5447 17.988 17.5732L17.739 17.5791H13.5222V24.1152H11.5222V7.46289H17.739L17.988 7.46875C18.5671 7.49727 19.1377 7.62535 19.6746 7.84766C20.2882 8.10184 20.8465 8.47466 21.3162 8.94434C21.7858 9.41399 22.1577 9.97232 22.4119 10.5859C22.666 11.1995 22.7976 11.8574 22.7976 12.5215Z" fill="currentColor" style="fill:currentColor;fill:currentColor;fill-opacity:1;"/>
</svg>
