<svg width="32" height="32" viewBox="0 0 32 32" fill="none" xmlns="http://www.w3.org/2000/svg">
<path d="M20.2004 9.33203H12.2004V7.33203H20.2004V9.33203Z" fill="currentColor" style="fill:currentColor;fill:currentColor;fill-opacity:1;"/>
<path fill-rule="evenodd" clip-rule="evenodd" d="M26.3547 4.33594C27.9399 4.41624 29.2004 5.72696 29.2004 7.33203V23.333L29.1965 23.4873C29.1187 25.0212 27.8887 26.2514 26.3547 26.3291L26.2004 26.333V26.333C26.2004 27.437 25.3045 28.332 24.2004 28.332V28.332C23.0964 28.332 22.2004 27.437 22.2004 26.333V26.333H10.2004V26.333C10.2004 27.437 9.30447 28.332 8.20044 28.332V28.332C7.09641 28.332 6.20044 27.437 6.20044 26.333V26.333L6.04614 26.3291C4.5122 26.2514 3.28222 25.0212 3.20435 23.4873L3.20044 23.333V7.33203C3.20044 5.72696 4.46099 4.41624 6.04614 4.33594L6.20044 4.33203H26.2004L26.3547 4.33594ZM5.20044 23.333C5.20062 23.8851 5.64826 24.333 6.20044 24.333H26.2004C26.7526 24.333 27.2003 23.8851 27.2004 23.333V13.1328H5.20044V23.333ZM6.20044 6.33203C5.64815 6.33203 5.20044 6.77976 5.20044 7.33203V10.9316H27.2004V7.33203C27.2004 6.77976 26.7527 6.33203 26.2004 6.33203H6.20044Z" fill="currentColor" style="fill:currentColor;fill:currentColor;fill-opacity:1;"/>
</svg>
