<svg width="32" height="32" viewBox="0 0 32 32" fill="none" xmlns="http://www.w3.org/2000/svg">
<path d="M15.9467 3.84794C16.4752 3.68773 17.0335 3.98645 17.1938 4.51493L17.2904 4.86747C17.676 6.45538 17.3616 7.82044 16.8608 8.73954C17.006 9.00888 17.1391 9.2932 17.2436 9.55985C17.319 9.75236 17.3858 9.951 17.434 10.138C17.4662 10.2629 17.5017 10.4269 17.5121 10.6018L17.5131 10.7806C17.4857 11.2861 17.4162 11.7885 17.2719 12.302C18.1961 12.3769 18.9623 12.3947 19.4887 12.2767L19.5785 12.2454C19.6812 12.1986 19.8256 12.0989 20.0356 11.8929C20.1701 11.7608 20.3063 11.6109 20.4682 11.4329C20.6234 11.2622 20.802 11.0653 20.9926 10.8763C21.3715 10.5006 21.8671 10.084 22.517 9.85185C23.1958 9.60943 23.9517 9.60002 24.7865 9.88114L25.0287 9.97489C25.587 10.2168 26.0876 10.6202 26.5238 11.0794C27.0302 11.6124 27.5038 12.2769 27.935 13.0081C28.7974 14.4708 29.5423 16.2927 30.0619 18.1126C30.5798 19.9265 30.8927 21.8051 30.8442 23.3782C30.8199 24.1637 30.7036 24.924 30.4428 25.5765C30.1957 26.1944 29.7958 26.7673 29.1772 27.1243L29.0502 27.1927C27.5238 27.9639 26.0436 27.5703 24.7875 26.8216C23.5637 26.0919 22.3805 24.929 21.3012 23.845C20.1776 22.7166 19.1525 21.6597 18.142 20.9397C17.1911 20.2623 16.4521 20.0285 15.8197 20.1517L15.6938 20.1809C15.3974 20.2626 15.0522 20.3151 14.7377 20.3567C14.3863 20.4032 14.0965 20.4345 13.7563 20.4827C13.4341 20.5284 13.1514 20.5784 12.9194 20.6419C12.7305 20.6936 12.6221 20.7451 12.5658 20.7767C12.5571 20.7868 12.5468 20.7986 12.5356 20.8118C12.4655 20.8941 12.369 21.0104 12.2445 21.1614C11.9987 21.4598 11.6588 21.8744 11.2563 22.3489C10.4532 23.2954 9.38294 24.5031 8.2592 25.5638C7.16656 26.595 5.90676 27.6012 4.72697 28.0071C4.12156 28.2154 3.40993 28.3097 2.72697 28.0267C2.1099 27.7708 1.67865 27.2756 1.39591 26.6585L1.28361 26.387C1.17115 26.0837 1.13155 25.7367 1.11955 25.4202C1.10694 25.0868 1.12257 24.7078 1.15861 24.303C1.23087 23.4919 1.39251 22.5133 1.62443 21.4632C2.0878 19.3651 2.85075 16.8995 3.8217 14.7933C4.30714 13.7403 4.85671 12.7514 5.46232 11.9368C6.05881 11.1346 6.76358 10.4284 7.58439 10.0393C8.45764 9.6255 9.4255 9.59266 10.3695 10.095C11.2535 10.5656 12.0248 11.4569 12.7201 12.6858L12.766 12.7767C12.97 13.2408 12.7929 13.7931 12.3422 14.0481C11.8915 14.303 11.3273 14.17 11.0346 13.7561L10.9799 13.6702L10.7543 13.2913C10.2376 12.4677 9.78193 12.0484 9.42912 11.8606C9.08609 11.6783 8.78705 11.682 8.44084 11.846C8.04194 12.035 7.57263 12.4499 7.06681 13.1302C6.57026 13.7981 6.08765 14.6551 5.6381 15.6302C4.73895 17.5806 4.01688 19.9056 3.57756 21.8948C3.35826 22.8879 3.21336 23.7778 3.1508 24.4798C3.11951 24.831 3.11015 25.121 3.11857 25.344C3.12277 25.4547 3.1313 25.5414 3.14103 25.6048C3.14977 25.6615 3.15757 25.6881 3.15861 25.6917L3.21427 25.8265C3.34168 26.1066 3.45811 26.1646 3.49259 26.179C3.55366 26.2043 3.72122 26.2387 4.07658 26.1165C4.81826 25.8613 5.81056 25.1239 6.88615 24.1087C7.93062 23.1228 8.94567 21.9804 9.73088 21.055C10.1222 20.5937 10.4524 20.1913 10.7006 19.8899C10.8229 19.7414 10.9296 19.6118 11.0121 19.5149C11.053 19.4669 11.0941 19.4198 11.1313 19.3792C11.1493 19.3595 11.2258 19.2747 11.3197 19.2034L11.4477 19.1136C11.7514 18.9157 12.0934 18.7949 12.392 18.7132C12.7459 18.6163 13.126 18.5518 13.476 18.5022C13.8079 18.4552 14.2003 18.4097 14.475 18.3733C14.7863 18.3321 15.011 18.2949 15.1625 18.2532L15.4506 18.1858C16.8797 17.9101 18.1987 18.5239 19.3031 19.3108C20.4854 20.1532 21.6516 21.3617 22.7192 22.4339C23.831 23.5505 24.8406 24.5248 25.8119 25.1038C26.751 25.6635 27.4695 25.7501 28.1479 25.4075L28.2533 25.3392C28.3619 25.2514 28.4802 25.0997 28.5863 24.8343C28.7305 24.4736 28.825 23.9658 28.8451 23.3167C28.8852 22.0195 28.6232 20.3572 28.1391 18.6614C27.6566 16.9719 26.9715 15.313 26.2113 14.0237C25.8314 13.3794 25.4455 12.8488 25.0736 12.4573C24.7412 12.1074 24.4573 11.9079 24.2377 11.8118L24.1479 11.7767C23.6968 11.6248 23.4053 11.6587 23.1899 11.7356C22.9457 11.8229 22.6986 12.0019 22.4008 12.2972C22.2532 12.4435 22.109 12.6012 21.9477 12.7786C21.793 12.9487 21.6182 13.1418 21.436 13.3206C21.1264 13.6243 20.7099 13.9773 20.1674 14.1604L19.9272 14.2278C19.0172 14.4321 17.879 14.3664 16.891 14.2796C15.9561 14.1974 15.1354 14.0948 14.4565 14.0706L14.1742 14.0657L14.0727 14.0608C13.5683 14.0098 13.1743 13.5836 13.1742 13.0657C13.1744 12.5137 13.6222 12.0659 14.1742 12.0657L14.5033 12.0716C14.7403 12.0799 14.9916 12.0979 15.2494 12.1184C15.258 12.0633 15.2711 12.0081 15.2895 11.9534L15.3783 11.6497C15.4526 11.3532 15.4932 11.0456 15.5131 10.7083C15.5107 10.6948 15.5063 10.6713 15.4975 10.637C15.4748 10.5489 15.4361 10.4302 15.3813 10.2903C15.3561 10.2261 15.3283 10.1601 15.2992 10.094C15.1446 10.1173 14.9563 10.119 14.7563 10.0569C14.4848 9.97251 14.2667 9.79676 14.1235 9.57548C13.8733 9.18877 13.9025 8.75815 13.9399 8.51493L13.9779 8.3206C14.0312 8.10227 14.1391 7.82422 14.3744 7.60282C14.5584 7.43008 14.8013 7.31168 15.0766 7.28935C15.1589 7.28272 15.2373 7.28753 15.31 7.29618C15.4837 6.74589 15.5518 5.98963 15.2807 5.09501L15.2553 4.9954C15.1583 4.49841 15.4519 3.99846 15.9467 3.84794Z" fill="currentColor" style="fill:currentColor;fill:currentColor;fill-opacity:1;"/>
<path fill-rule="evenodd" clip-rule="evenodd" d="M23.433 12.8714C23.9851 12.8625 24.4396 13.3026 24.4486 13.8548L24.4662 14.9173C24.4702 15.1701 24.379 15.4018 24.227 15.5804C24.2923 15.5593 24.3606 15.5445 24.4311 15.5374L24.5336 15.5325H25.6C26.1522 15.5325 26.5999 15.9804 26.6 16.5325C26.6 17.0848 26.1523 17.5325 25.6 17.5325H24.5336L24.4311 17.5276C24.3598 17.5204 24.291 17.5051 24.225 17.4837C24.3749 17.6585 24.4662 17.8848 24.4662 18.1331V19.1995C24.4662 19.7518 24.0185 20.1995 23.4662 20.1995C22.914 20.1994 22.4662 19.7517 22.4662 19.1995V18.1331C22.4663 17.8851 22.557 17.6584 22.7065 17.4837C22.6097 17.5149 22.5069 17.5325 22.3998 17.5325H21.3334L21.2309 17.5276C20.7266 17.4764 20.3334 17.0503 20.3334 16.5325C20.3335 16.0149 20.7267 15.5886 21.2309 15.5374L21.3334 15.5325H22.3998C22.5061 15.5325 22.6084 15.5496 22.7045 15.5804C22.5597 15.41 22.4703 15.1904 22.4662 14.9495L22.4496 13.887C22.4407 13.3348 22.8808 12.8804 23.433 12.8714ZM23.7729 15.8841C23.6812 15.9136 23.5841 15.9312 23.4828 15.9329C23.3699 15.9347 23.2614 15.9169 23.1596 15.8841C23.3088 16.0587 23.3998 16.2848 23.3998 16.5325C23.3998 16.7802 23.3087 17.0063 23.1596 17.1809C23.2562 17.1499 23.3593 17.1331 23.4662 17.1331C23.5731 17.1331 23.6763 17.1499 23.7729 17.1809C23.624 17.0063 23.5336 16.78 23.5336 16.5325C23.5337 16.285 23.6239 16.0587 23.7729 15.8841Z" fill="currentColor" style="fill:currentColor;fill:currentColor;fill-opacity:1;"/>
<path d="M8.10685 14.6028C8.29209 14.0825 8.86488 13.8102 9.38517 13.9954C9.90505 14.1807 10.1765 14.7527 9.99162 15.2727C9.96036 15.3605 9.93263 15.4491 9.9047 15.5374H10.1166L10.2182 15.5423C10.7224 15.5934 11.1165 16.0197 11.1166 16.5374C11.1166 17.0552 10.7225 17.4813 10.2182 17.5325L10.1166 17.5374H9.53654C9.52381 17.7376 9.51603 17.938 9.51603 18.138C9.5158 18.69 9.06814 19.1379 8.51603 19.138C7.96389 19.138 7.51627 18.6901 7.51603 18.138C7.51603 17.9389 7.52313 17.7385 7.53361 17.5374H7.44963C6.89734 17.5374 6.44963 17.0897 6.44963 16.5374C6.44976 15.9852 6.89742 15.5374 7.44963 15.5374H7.82658C7.90401 15.2256 7.99623 14.9136 8.10685 14.6028Z" fill="currentColor" style="fill:currentColor;fill:currentColor;fill-opacity:1;"/>
</svg>
