<svg width="32" height="32" viewBox="0 0 32 32" fill="none" xmlns="http://www.w3.org/2000/svg">
<path d="M28.516 10.0119C28.1276 10.4028 28.1286 11.0343 28.5182 11.4239L28.8653 11.771C29.2563 12.162 29.2558 12.7961 28.864 13.1865L26.3877 15.654C25.9974 16.043 25.3661 16.0429 24.9759 15.6539L21.988 12.6754C21.5973 12.2859 20.965 12.2864 20.5749 12.6765L12.6765 20.5749C12.2864 20.965 12.2859 21.5973 12.6754 21.988L15.6539 24.9759C16.0429 25.3661 16.043 25.9974 15.654 26.3877L13.1865 28.864C12.7961 29.2558 12.162 29.2563 11.771 28.8653L11.4239 28.5182C11.0343 28.1286 10.4028 28.1276 10.0119 28.516L9.22391 29.2991C8.83375 29.6869 8.20372 29.6867 7.81376 29.2988L6.16116 27.6548C6.00241 27.4969 5.74648 27.49 5.60313 27.6621C5.51145 27.7721 5.4106 27.8729 5.30058 27.9646C5.19056 28.0563 5.07595 28.1388 4.95677 28.2122C4.83758 28.2855 4.70464 28.3222 4.55795 28.3222C4.31957 28.3222 4.11328 28.2351 3.93908 28.0609C3.76489 27.8867 3.67779 27.6804 3.67779 27.442C3.67779 27.3045 3.70988 27.1762 3.77406 27.057C3.83823 26.9378 3.92075 26.8232 4.0216 26.7132C4.12245 26.6031 4.22789 26.5023 4.33791 26.4106C4.51642 26.2618 4.5021 25.9965 4.33823 25.8318L2.70121 24.1862C2.31328 23.7963 2.31312 23.1662 2.70084 22.7761L3.48395 21.988C3.87238 21.5972 3.87139 20.9657 3.48174 20.576L3.13467 20.229C2.74366 19.838 2.74422 19.2038 3.13593 18.8135L5.61226 16.3459C6.00255 15.957 6.6339 15.9571 7.02411 16.3461L10.0119 19.3246C10.4026 19.714 11.035 19.7136 11.425 19.3235L19.3235 11.425C19.7136 11.035 19.714 10.4026 19.3246 10.0119L16.3461 7.02412C15.9571 6.6339 15.957 6.00255 16.3459 5.61226L18.8135 3.13593C19.2038 2.74422 19.838 2.74366 20.229 3.13467L20.576 3.48174C20.9657 3.87139 21.5972 3.87238 21.988 3.48395L22.7761 2.70084C23.1662 2.31312 23.7963 2.31328 24.1862 2.70121L25.8388 4.3452C25.9976 4.50312 26.2535 4.50993 26.3968 4.33791C26.4885 4.22789 26.5894 4.12704 26.6994 4.03535C26.8094 3.94367 26.924 3.86115 27.0432 3.78781C27.1624 3.71446 27.2953 3.67779 27.442 3.67779C27.6804 3.67779 27.8867 3.76489 28.0609 3.93908C28.2351 4.11328 28.3222 4.31957 28.3222 4.55795C28.3222 4.69547 28.2901 4.82383 28.2259 4.94301C28.1617 5.0622 28.0792 5.17681 27.9784 5.28683C27.8775 5.39684 27.7721 5.4977 27.6621 5.58938C27.4836 5.73814 27.4979 6.00344 27.6618 6.16817L29.2988 7.81376C29.6867 8.20372 29.6869 8.83375 29.2991 9.22391L28.516 10.0119ZM8.99311 27.0363C9.25515 26.7743 9.25515 26.3495 8.99311 26.0874L5.91256 23.0069C5.65052 22.7448 5.22568 22.7448 4.96364 23.0069C4.70161 23.2689 4.70161 23.6937 4.96364 23.9558L8.04419 27.0363C8.30623 27.2984 8.73107 27.2984 8.99311 27.0363ZM13.1773 26.3796C13.566 25.9947 13.5675 25.3671 13.1807 24.9803L7.01964 18.8193C6.63284 18.4324 6.00523 18.434 5.62034 18.8227C5.23812 19.2087 5.23965 19.831 5.62377 20.2151L11.7849 26.3762C12.169 26.7603 12.7913 26.7619 13.1773 26.3796ZM23.0069 4.96364C22.7448 5.22568 22.7448 5.65053 23.0069 5.91256L26.0874 8.99311C26.3495 9.25515 26.7743 9.25515 27.0363 8.99311C27.2984 8.73108 27.2984 8.30623 27.0363 8.04419L23.9558 4.96364C23.6937 4.70161 23.2689 4.70161 23.0069 4.96364ZM26.3796 13.1773C26.7619 12.7913 26.7603 12.169 26.3762 11.7849L20.2151 5.62377C19.831 5.23965 19.2087 5.23812 18.8227 5.62034C18.434 6.00523 18.4324 6.63284 18.8193 7.01964L24.9803 13.1807C25.3671 13.5675 25.9947 13.566 26.3796 13.1773Z" fill="currentColor" style="fill:currentColor;fill:currentColor;fill-opacity:1;"/>
</svg>
