<svg width="32" height="32" viewBox="0 0 32 32" fill="none" xmlns="http://www.w3.org/2000/svg">
<path fill-rule="evenodd" clip-rule="evenodd" d="M24.4238 4.70703C25.7843 4.7859 27.1999 5.44983 28.2959 6.48145C29.3945 7.51555 30.1942 8.94042 30.29 10.5615L30.2998 10.8887C30.2997 13.6142 28.3018 15.8343 26.0977 16.6914V24.5332C26.0975 25.9612 25.0163 27.1431 23.6309 27.2852L23.3496 27.2988C21.9273 27.2986 20.757 26.2069 20.6162 24.8154L20.6025 24.5332V16.7236C17.8156 16.3403 14.3329 15.742 12.6133 15.4385L11.5645 15.252C11.1792 15.1819 10.8881 14.878 10.8213 14.5039L10.8066 14.3398V7.4375C10.8067 6.99099 11.1239 6.60548 11.5645 6.52539L13.3506 6.20898C14.3527 6.03456 15.6764 5.8092 17.0645 5.58594C19.8272 5.14157 22.8871 4.69925 24.1533 4.69922L24.4238 4.70703ZM22.4473 24.5332C22.4474 25.0379 22.8542 25.445 23.3496 25.4453C23.8454 25.4453 24.2538 25.0379 24.2539 24.5332V17.0752L24.1533 17.0781C23.7412 17.0781 23.1476 17.0301 22.4473 16.9541V24.5332ZM24.5303 24.7695C24.5035 24.9056 24.4528 25.0328 24.3848 25.1484C24.4515 25.035 24.5021 24.9105 24.5293 24.7773L24.5303 24.7695ZM22.1709 24.7773C22.1741 24.7932 22.1788 24.8086 22.1826 24.8242C22.1775 24.8036 22.1729 24.7828 22.1689 24.7617L22.1709 24.7773ZM22.9492 16.7041C23.254 16.7331 23.5286 16.7558 23.7656 16.7676L23.2949 16.7354C23.1846 16.7265 23.0693 16.7155 22.9492 16.7041ZM17.9072 16.0225C18.4187 16.1029 18.9323 16.1814 19.4355 16.2559L17.9072 16.0225C17.3955 15.942 16.8857 15.8595 16.3906 15.7783L17.9072 16.0225ZM24.8887 15.4414C24.7338 15.4744 24.5796 15.499 24.4268 15.5117L24.6172 15.4912C24.7075 15.4787 24.7978 15.4608 24.8887 15.4414ZM22.8428 6.64258C20.7352 6.85949 17.2418 7.42609 14.7627 7.84863V13.9287C17.254 14.3533 20.769 14.9221 22.873 15.1367C23.3036 14.3707 23.6126 13.5024 23.7812 12.5791C22.9619 12.3071 22.3399 11.7032 22.3398 10.8887L22.3486 10.7227C22.4265 9.99507 23.0136 9.45564 23.7715 9.20117C23.5968 8.27522 23.2811 7.40707 22.8428 6.64258ZM24.9072 6.64453C25.2445 7.41862 25.4874 8.25033 25.6289 9.11426C26.5327 9.31685 27.2661 9.89243 27.3604 10.709L27.3701 10.8887C27.37 11.7971 26.6023 12.44 25.6387 12.6592C25.5023 13.5201 25.2643 14.3501 24.9336 15.124C25.7067 14.9352 26.499 14.4842 27.1387 13.8457C27.9241 13.0615 28.455 12.0207 28.4551 10.8887L28.4492 10.6768C28.3874 9.62169 27.8691 8.65637 27.127 7.91992C26.4817 7.2798 25.6841 6.8283 24.9072 6.64453ZM12.6514 8.21387V13.5615C12.7345 13.5762 12.8234 13.5927 12.918 13.6094V8.16699C12.8235 8.18364 12.7344 8.19918 12.6514 8.21387ZM23.8115 12.2734C23.9108 12.309 24.0147 12.3402 24.123 12.3652L23.9619 12.3232C23.9106 12.3082 23.8606 12.291 23.8115 12.2734ZM29.9766 11.3809C29.9703 11.4467 29.9627 11.5121 29.9541 11.5771C29.9631 11.5095 29.9712 11.4415 29.9775 11.373L29.9766 11.3809ZM24.7656 10.8877C24.7947 10.8891 24.8246 10.8926 24.8555 10.8926C24.886 10.8926 24.9155 10.8891 24.9443 10.8877L24.8555 10.8848C24.8247 10.8848 24.7946 10.8863 24.7656 10.8877ZM27.0615 10.748C27.0669 10.7943 27.0703 10.8411 27.0703 10.8887C27.0703 10.7932 27.0593 10.7002 27.0381 10.6104L27.0615 10.748ZM24.4844 10.6172C24.3744 10.6377 24.2785 10.6666 24.1973 10.6982C24.3193 10.6506 24.4745 10.61 24.6602 10.5928L24.4844 10.6172ZM22.7002 10.5088C22.6869 10.5491 22.676 10.5902 22.667 10.6318L22.7002 10.5088C22.7135 10.4687 22.7297 10.4293 22.7471 10.3906L22.7002 10.5088ZM26.876 10.2295C26.901 10.2692 26.9239 10.3099 26.9443 10.3516L26.876 10.2295C26.8509 10.1897 26.8244 10.151 26.7949 10.1133L26.876 10.2295ZM22.9561 10.0625C22.9271 10.0963 22.9003 10.1314 22.875 10.167L22.957 10.0635C22.9859 10.0297 23.0164 9.99673 23.0488 9.96484L22.9561 10.0625ZM26.3447 9.7168C26.3628 9.72805 26.38 9.74028 26.3975 9.75195C26.3365 9.71126 26.2727 9.67215 26.2051 9.63672L26.3447 9.7168ZM24.1143 9.41406C23.8954 9.46526 23.6939 9.53905 23.5146 9.63184L23.6533 9.56641C23.7959 9.50413 23.9501 9.45246 24.1143 9.41406ZM23.9434 8.58398C23.9779 8.7197 24.0096 8.85677 24.0381 8.99512L23.9434 8.58398C23.9088 8.44838 23.8716 8.31432 23.8311 8.18164L23.9434 8.58398ZM25.1172 8.15039C25.1793 8.38241 25.233 8.61803 25.2793 8.85645C25.2065 8.48179 25.1155 8.11391 25.0039 7.75586L25.1172 8.15039ZM15.1123 6.21094C13.2253 6.52887 11.772 6.79237 11.6182 6.82031L13.4014 6.50488C14.4027 6.3306 15.7252 6.10493 17.1123 5.88184L15.1123 6.21094Z" fill="currentColor" style="fill:currentColor;fill:currentColor;fill-opacity:1;"/>
<path fill-rule="evenodd" clip-rule="evenodd" d="M7.33301 11.2773C8.02081 11.3266 8.40065 11.7281 8.61719 11.9541L8.71582 12.0537C8.72172 12.0593 8.72712 12.0635 8.73145 12.0674C9.23473 12.0765 9.63685 12.4897 9.63672 12.9941L9.63184 13.0889C9.58772 13.5237 9.24383 13.8717 8.80859 13.916L8.71387 13.9209C8.13041 13.9207 7.75 13.6736 7.49902 13.4482L7.28906 13.2393C7.24568 13.194 7.21499 13.163 7.19141 13.1406L7.09375 13.2393C6.87716 13.4652 6.49775 13.8669 5.80957 13.916L5.66797 13.9209C5.0844 13.9208 4.7041 13.6736 4.45312 13.4482L4.24219 13.2393C4.19874 13.1939 4.16811 13.1629 4.14453 13.1406L4.04785 13.2393C3.83119 13.4653 3.4517 13.8669 2.76367 13.916L2.62207 13.9209C2.14299 13.9208 1.7523 13.5545 1.70508 13.0889L1.7002 12.9941C1.7002 12.4902 2.10146 12.0769 2.60449 12.0674C2.60893 12.0634 2.61499 12.0595 2.62109 12.0537C2.64487 12.0312 2.67578 12 2.71973 11.9541L2.93066 11.7461C3.1817 11.5207 3.56181 11.2725 4.14551 11.2725L4.28711 11.2773C4.97481 11.3266 5.35378 11.7282 5.57031 11.9541L5.66797 12.0518C5.69155 12.0294 5.72258 11.999 5.76562 11.9541L5.97656 11.7461C6.2276 11.5207 6.60763 11.2725 7.19141 11.2725L7.33301 11.2773ZM5.79785 12.333C5.77609 12.3473 5.75694 12.3564 5.73633 12.3613C5.77741 12.3516 5.81389 12.3275 5.87305 12.2715L5.79785 12.333Z" fill="currentColor" style="fill:currentColor;fill:currentColor;fill-opacity:1;"/>
<path fill-rule="evenodd" clip-rule="evenodd" d="M7.33301 7.86133C8.02089 7.91057 8.4007 8.31136 8.61719 8.53711L8.71484 8.63672C8.72094 8.64247 8.72718 8.64659 8.73145 8.65039C9.23507 8.65949 9.63672 9.07413 9.63672 9.57812L9.63184 9.67188C9.58798 10.1065 9.24474 10.4543 8.80957 10.499L8.71484 10.5039C8.13082 10.5039 7.75019 10.2567 7.49902 10.0312L7.28906 9.82324C7.24575 9.77805 7.21499 9.74697 7.19141 9.72461L7.09375 9.82324C6.87716 10.0492 6.49764 10.4499 5.80957 10.499L5.66797 10.5039C5.08423 10.5038 4.70411 10.2566 4.45312 10.0312L4.24219 9.82324C4.19875 9.77793 4.16813 9.74695 4.14453 9.72461L4.04785 9.82324C3.83128 10.0492 3.4516 10.4498 2.76367 10.499L2.62207 10.5039C2.14273 10.5038 1.75207 10.1377 1.70508 9.67188L1.7002 9.57812C1.7002 9.07444 2.10119 8.6599 2.60449 8.65039C2.6089 8.64647 2.61502 8.64245 2.62109 8.63672C2.6448 8.6143 2.67585 8.58288 2.71973 8.53711L2.93066 8.3291C3.18168 8.10378 3.56201 7.85645 4.14551 7.85645L4.28711 7.86133C4.97446 7.91062 5.35381 8.31125 5.57031 8.53711L5.66797 8.63477C5.69149 8.61244 5.7226 8.58199 5.76562 8.53711L5.97656 8.3291C6.22755 8.10382 6.60782 7.85647 7.19141 7.85645L7.33301 7.86133ZM4.01562 9.44336C3.99389 9.45753 3.97013 9.4778 3.94043 9.50586L4.01562 9.44336C4.03738 9.42911 4.05655 9.42091 4.07715 9.41602L4.01562 9.44336ZM7.06152 9.44336C7.03979 9.45754 7.01601 9.47781 6.98633 9.50586L7.06152 9.44336C7.08328 9.42911 7.10245 9.42091 7.12305 9.41602L7.06152 9.44336Z" fill="currentColor" style="fill:currentColor;fill:currentColor;fill-opacity:1;"/>
</svg>
