<svg width="32" height="32" viewBox="0 0 32 32" fill="none" xmlns="http://www.w3.org/2000/svg">
<path fill-rule="evenodd" clip-rule="evenodd" d="M8.76478 11.2404C9.75322 10.864 10.983 10.9307 12.4083 11.4327L12.0968 12.3126L12.0978 12.3136L12.4083 11.4327C12.929 11.6163 13.202 12.1874 13.0187 12.7081C12.9713 12.8426 12.8973 12.9599 12.8058 13.0577C12.9414 13.2735 13.0445 13.5078 13.1134 13.755C13.327 14.5211 13.197 15.3274 12.8888 15.9962C12.8283 16.1274 12.7562 16.257 12.6769 16.3849L12.7433 16.3869L12.8595 16.4035C12.8977 16.4111 12.9357 16.4207 12.9728 16.4328L13.3995 16.5607C14.3937 16.8317 15.3678 16.9255 16.1495 16.9435C16.4508 16.9504 16.7204 16.9433 16.9474 16.9337C16.9488 16.9321 16.95 16.9304 16.9513 16.9288C16.99 16.8834 17.0327 16.8379 17.0704 16.799C17.1486 16.7185 17.2498 16.6202 17.3585 16.5167C17.5783 16.3078 17.8629 16.0467 18.1408 15.7941C18.4199 15.5404 18.6971 15.2911 18.9044 15.1056C19.0082 15.0128 19.0949 14.9349 19.1554 14.881C19.1759 14.8627 19.2177 14.8258 19.2247 14.8195L19.2423 14.8038L19.2413 14.8048C19.2406 14.8055 19.2368 14.8087 19.2326 14.8126C19.2299 14.8151 19.2231 14.8212 19.2189 14.8253C19.2171 14.8271 19.2142 14.8308 19.2101 14.8351C19.2599 14.7854 19.3149 14.7433 19.3722 14.7062C19.3559 14.7165 19.344 14.7254 19.338 14.7296C19.3349 14.7318 19.3319 14.7342 19.3302 14.7355C19.3472 14.7231 19.3663 14.7135 19.3839 14.7023L19.3829 14.7003C19.4991 14.6272 19.6268 14.5777 19.7599 14.5568C19.7612 14.5566 19.7625 14.556 19.7638 14.5558C19.8133 14.5482 19.8631 14.5442 19.9132 14.5441C19.9154 14.5441 19.9179 14.5431 19.9201 14.5431C19.9322 14.5431 19.9442 14.5449 19.9562 14.5451C19.9672 14.5455 19.9784 14.5452 19.9894 14.546C20.3759 14.5583 20.6813 14.6699 20.9357 14.8087L20.9347 14.8097C21.0861 14.892 21.619 15.217 22.2179 15.5851C22.797 15.379 23.3692 15.1564 23.8956 14.9171C24.7444 14.5314 25.4039 14.1389 25.799 13.7716C26.2034 13.3957 26.836 13.419 27.212 13.8234C27.588 14.2279 27.5647 14.8604 27.1603 15.2365C26.5276 15.8246 25.6346 16.323 24.7228 16.7374C24.5958 16.7952 24.4652 16.8478 24.3351 16.9035L24.5226 17.0363L24.6632 17.1505C24.8162 17.2814 24.998 17.4665 25.132 17.7306L24.2394 18.1828L23.3732 18.6232L25.132 17.7306C25.1825 17.8301 25.2134 17.9345 25.2287 18.0392C27.4579 16.8216 28.9342 15.5864 29.1954 15.3117C29.5759 14.9114 30.2092 14.8951 30.6095 15.2755C31.0092 15.656 31.0249 16.2885 30.6447 16.6886C30.1869 17.1703 28.4393 18.5946 25.9708 19.9142C23.6431 21.1585 20.5815 22.3609 17.2492 22.5685L16.5792 22.5968C12.8859 22.6743 9.15774 21.4156 6.38295 20.1408C4.98576 19.4988 3.8046 18.8408 2.95912 18.3195C2.53731 18.0594 2.19155 17.8291 1.94056 17.6476C1.81671 17.558 1.705 17.4725 1.61537 17.3966C1.57299 17.3607 1.52412 17.316 1.4767 17.2677C1.06312 16.9547 0.954196 16.3715 1.24037 15.9288C1.52151 15.4942 2.08315 15.3505 2.53431 15.5812L2.62318 15.632L2.74623 15.7169L2.84877 15.8029C2.87129 15.8246 2.8909 15.8495 2.91127 15.8732C2.94749 15.9036 3.0132 15.9547 3.11244 16.0265C3.31435 16.1725 3.61763 16.376 4.00892 16.6173C4.79052 17.0993 5.90005 17.7179 7.21791 18.3234C8.78542 19.0435 10.6152 19.7264 12.5206 20.1535C12.3968 19.9539 12.2905 19.7557 12.2013 19.5665C11.9507 19.0352 11.7978 18.5173 11.7169 18.1222C11.6771 17.9277 11.6507 17.7395 11.6427 17.5792C11.6413 17.5518 11.6408 17.5172 11.6408 17.4777C10.9299 17.9624 10.0136 18.1843 8.98939 17.8322L8.81166 17.7658C7.93282 17.4102 7.34594 16.6535 7.03627 15.8722C6.7249 15.0864 6.6432 14.1581 6.88685 13.3077C7.13805 12.4315 7.74369 11.6293 8.76478 11.2404ZM21.8175 17.8322C20.3967 18.2856 19.0904 18.6103 18.4347 18.7599L18.0158 18.8497C17.7927 18.8884 16.0835 19.0961 14.0255 18.7413C14.3885 19.4967 14.9214 20.057 15.6691 20.1525C15.9705 20.1911 16.2232 20.3603 16.3781 20.5958C16.4311 20.5953 16.4843 20.5979 16.5372 20.5968L17.1281 20.5724C19.4337 20.4282 21.6345 19.7374 23.5294 18.8849C23.4697 18.8243 23.4161 18.7558 23.3722 18.6788C23.3697 18.6766 23.3668 18.6739 23.3634 18.671L23.298 18.6183L23.297 18.6173C23.2723 18.5982 23.246 18.5812 23.1671 18.5275C23.1625 18.5245 23.1513 18.5177 23.1329 18.506C23.1061 18.4889 23.0697 18.4651 23.0245 18.4367C22.9343 18.3798 22.8126 18.3035 22.6691 18.214C22.4687 18.089 22.2269 17.939 21.9708 17.7804C21.9193 17.7971 21.8686 17.8159 21.8175 17.8322ZM10.0519 13.0021C9.81099 13.012 9.6215 13.0544 9.4767 13.1095C9.12119 13.2449 8.91041 13.5039 8.80873 13.8585C8.69964 14.2393 8.72886 14.7138 8.89564 15.1349C9.06432 15.5605 9.32419 15.8161 9.56166 15.9122L9.67103 15.9503C10.2217 16.1116 10.7697 15.8161 11.0724 15.1593C11.226 14.8258 11.2482 14.5098 11.1876 14.2921C11.1384 14.1156 11.0224 13.9397 10.7023 13.8234C10.3358 13.6901 10.0955 13.3645 10.0519 13.0021Z" fill="currentColor" style="fill:currentColor;fill:currentColor;fill-opacity:1;"/>
</svg>
