<svg width="32" height="32" viewBox="0 0 32 32" fill="none" xmlns="http://www.w3.org/2000/svg">
<path d="M17.3787 9.21191C17.3787 8.45607 16.6614 7.66602 15.5466 7.66602C14.4318 7.66602 13.7146 8.45604 13.7146 9.21191C13.7144 9.76399 13.2667 10.2119 12.7146 10.2119C12.1625 10.2119 11.7149 9.76399 11.7146 9.21191C11.7146 7.15616 13.5332 5.66602 15.5466 5.66602C17.5599 5.66602 19.3787 7.15614 19.3787 9.21191C19.3786 10.0619 19.0888 10.8581 18.5672 11.4824L18.4597 11.6055C18.2399 11.8446 17.9924 12.0848 17.78 12.2949C17.5573 12.5153 17.3604 12.7143 17.1922 12.9121C17.0756 13.0491 16.9863 13.1703 16.9187 13.2783C17.6767 13.4222 18.4132 13.7131 19.072 14.1572L28.9822 20.8379C30.2484 21.6914 30.5907 23.1002 30.1502 24.2881C29.7168 25.4565 28.5627 26.333 27.0632 26.333H4.93727C3.45373 26.333 2.30393 25.4727 1.8611 24.3184C1.41095 23.1449 1.72958 21.7444 2.96559 20.875L12.4265 14.2197L12.6121 14.0947C13.2811 13.6633 14.0265 13.3847 14.7918 13.2559C14.9324 12.5813 15.315 12.0322 15.6687 11.6162C15.8977 11.347 16.1482 11.0952 16.3728 10.873C16.6078 10.6406 16.8085 10.4462 16.9871 10.252L17.074 10.1484C17.2651 9.89701 17.3786 9.57604 17.3787 9.21191ZM15.4558 15.1865C14.8757 15.2351 14.3127 15.4086 13.8181 15.7002L13.5769 15.8555L4.11598 22.5107C3.65606 22.8343 3.5949 23.2534 3.72828 23.6016C3.8692 23.9689 4.26706 24.333 4.93727 24.333H27.0632C27.7409 24.333 28.1376 23.9634 28.2752 23.5928C28.3892 23.2853 28.3529 22.9219 28.0232 22.6211L27.864 22.4961L17.9539 15.8164C17.3104 15.3826 16.5326 15.1637 15.7468 15.1729L15.4558 15.1865Z" fill="currentColor" style="fill:currentColor;fill:currentColor;fill-opacity:1;"/>
</svg>
