<svg width="32" height="32" viewBox="0 0 32 32" fill="none" xmlns="http://www.w3.org/2000/svg">
<path fill-rule="evenodd" clip-rule="evenodd" d="M27 4.16797C27 4.72025 26.5523 5.16797 26 5.16797H25V6.28809C26.685 6.70076 27.9998 8.13255 28 9.94336V11.168H29V13.168H28V22.168H29V24.168H28V24.3926C27.9998 25.8244 27.1771 27.0178 26 27.6592V28.168C26 28.7203 25.5523 29.168 25 29.168C24.4477 29.168 24 28.7203 24 28.168C22.8657 28.168 21.8072 27.7111 21.0645 26.959C20.4402 27.6911 19.545 28.168 18.5 28.168C17.4911 28.168 16.6207 27.7245 16 27.0352C15.3793 27.7245 14.5089 28.168 13.5 28.168C12.4548 28.168 11.5589 27.6914 10.9346 26.959C10.1918 27.7108 9.13405 28.168 8 28.168C8 28.7203 7.55228 29.168 7 29.168C6.44772 29.168 6 28.7203 6 28.168V27.6592C4.82288 27.0178 4.00017 25.8244 4 24.3926V24.168H3V22.168H4V13.168H3V11.168H4V9.94336C4.00026 7.78654 5.86555 6.16797 8 6.16797C9.13381 6.16797 10.1919 6.62449 10.9346 7.37598C11.5588 6.64391 12.455 6.16797 13.5 6.16797C14.5086 6.16797 15.3793 6.61075 16 7.2998C16.6207 6.61075 17.4914 6.16797 18.5 6.16797C19.5447 6.16797 20.4402 6.64419 21.0645 7.37598C21.5829 6.85119 22.2556 6.47038 23 6.28809V5.16797H22C21.4477 5.16797 21 4.72025 21 4.16797C21 3.61568 21.4477 3.16797 22 3.16797H26C26.5523 3.16797 27 3.61568 27 4.16797ZM8 8.16797C6.82108 8.16797 6.00027 9.03446 6 9.94336V24.3926C6.00027 25.3015 6.82108 26.168 8 26.168C9.17892 26.168 9.99973 25.3015 10 24.3926V9.94336C9.99973 9.03446 9.17892 8.16797 8 8.16797ZM13.5 8.16797C12.7676 8.16797 12.0002 8.86182 12 9.94336V24.3926C12.0002 25.4741 12.7676 26.168 13.5 26.168C14.2324 26.168 14.9998 25.4741 15 24.3926V9.94336C14.9998 8.86182 14.2324 8.16797 13.5 8.16797ZM18.5 8.16797C17.7676 8.16797 17.0002 8.86182 17 9.94336V24.3926C17.0002 25.4741 17.7676 26.168 18.5 26.168C19.2324 26.168 19.9998 25.4741 20 24.3926V9.94336C19.9998 8.86182 19.2324 8.16797 18.5 8.16797ZM24 8.16797C22.8211 8.16797 22.0003 9.03446 22 9.94336V24.3926C22.0003 25.3015 22.8211 26.168 24 26.168C25.1789 26.168 25.9997 25.3015 26 24.3926V9.94336C25.9997 9.03446 25.1789 8.16797 24 8.16797Z" fill="currentColor" style="fill:currentColor;fill:currentColor;fill-opacity:1;"/>
</svg>
