<svg width="32" height="32" viewBox="0 0 32 32" fill="none" xmlns="http://www.w3.org/2000/svg">
<path d="M23.4756 11.592C24.0275 11.5921 24.4752 12.0401 24.4756 12.592C24.4756 13.321 24.3197 14.078 23.8359 14.7531C23.5068 15.2123 23.0595 15.5818 22.5068 15.8781L25.4189 28.2639C25.545 28.8012 25.2111 29.3395 24.6738 29.466C24.1364 29.5921 23.5981 29.2584 23.4717 28.7209L20.6064 16.5373C19.7034 16.7309 18.6166 16.8464 17.3184 16.8791L16.4951 16.8889L15.6719 16.8791C14.3737 16.8464 13.2868 16.7309 12.3838 16.5373L11.1299 21.8693H20.5664L20.6689 21.8742C21.1732 21.9253 21.5662 22.3517 21.5664 22.8693C21.5663 23.3871 21.1732 23.8133 20.6689 23.8644L20.5664 23.8693H10.6592L9.51855 28.7209C9.39215 29.2584 8.85387 29.5921 8.31641 29.466C7.77913 29.3395 7.44519 28.8012 7.57129 28.2639L10.4834 15.8781C9.93075 15.5818 9.48344 15.2123 9.1543 14.7531C8.67049 14.078 8.51465 13.321 8.51465 12.592C8.51505 12.0401 8.96272 11.5921 9.51465 11.592C10.0666 11.5921 10.5142 12.0401 10.5146 12.592C10.5146 13.0353 10.6071 13.3463 10.7803 13.5881C10.9564 13.8337 11.2939 14.1164 11.9795 14.3576L12.3457 14.4719C13.1292 14.6908 14.2179 14.8408 15.7129 14.8791L16.4951 14.8889L17.2773 14.8791C18.7724 14.8408 19.861 14.6908 20.6445 14.4719L21.0107 14.3576C21.6964 14.1164 22.0338 13.8337 22.21 13.5881C22.3831 13.3463 22.4756 13.0353 22.4756 12.592C22.476 12.0401 22.9236 11.5921 23.4756 11.592Z" fill="currentColor" style="fill:currentColor;fill:currentColor;fill-opacity:1;"/>
<path d="M17.5449 2.09296C17.9125 2.09742 18.2918 2.10887 18.6641 2.13983C19.4134 2.2022 20.2174 2.34492 20.9551 2.69745C21.7137 3.06011 22.3793 3.63465 22.8408 4.50311C23.1726 5.12759 23.381 5.87168 23.4688 6.74432H26.1904C26.7423 6.74446 27.19 7.19248 27.1904 7.74432C27.1904 8.29653 26.7426 8.74419 26.1904 8.74432H22.1182C21.6805 8.74441 21.4382 8.91708 21.2754 9.13788C21.0845 9.39704 20.9854 9.7607 20.9854 10.0715C20.9854 10.6237 20.5375 11.0713 19.9854 11.0715C19.4332 11.0714 18.9854 10.6237 18.9854 10.0715C18.9854 9.41298 19.1776 8.61292 19.665 7.95135C20.0737 7.39687 20.6768 6.96475 21.4629 6.80878C21.3896 6.20885 21.2482 5.76734 21.0752 5.44159C20.8318 4.9835 20.5 4.69684 20.0928 4.50214C19.6647 4.29756 19.1326 4.18576 18.499 4.13299C18.1796 4.10641 17.8545 4.09583 17.5215 4.09198L16.4951 4.091L15.4688 4.09198C15.1357 4.09583 14.8106 4.10641 14.4912 4.13299C13.8576 4.18576 13.3255 4.29756 12.8975 4.50214C12.4902 4.69684 12.1584 4.9835 11.915 5.44159C11.742 5.76734 11.6006 6.20885 11.5273 6.80878C12.3134 6.96475 12.9165 7.39687 13.3252 7.95135C13.8126 8.61292 14.0048 9.41298 14.0049 10.0715C14.0049 10.6237 13.5571 11.0714 13.0049 11.0715C12.4527 11.0713 12.0049 10.6237 12.0049 10.0715C12.0048 9.7607 11.9058 9.39704 11.7148 9.13788C11.552 8.91708 11.3098 8.74441 10.8721 8.74432H6.7998C6.24763 8.74419 5.7998 8.29653 5.7998 7.74432C5.80023 7.19248 6.24789 6.74446 6.7998 6.74432H9.52148C9.60919 5.87168 9.81767 5.12759 10.1494 4.50311C10.6109 3.63465 11.2766 3.06011 12.0352 2.69745C12.7728 2.34492 13.5768 2.2022 14.3262 2.13983C15.0707 2.0779 15.8425 2.091 16.4951 2.091L17.5449 2.09296Z" fill="currentColor" style="fill:currentColor;fill:currentColor;fill-opacity:1;"/>
</svg>
