<svg width="32" height="32" viewBox="0 0 32 32" fill="none" xmlns="http://www.w3.org/2000/svg">
<path fill-rule="evenodd" clip-rule="evenodd" d="M26.7422 3C28.0963 3.00002 28.9732 4.38131 28.6016 5.5957L28.5625 5.71289C28.5531 5.73772 28.5426 5.76212 28.5312 5.78613L18.8867 26.2656L18.876 26.2891C18.0703 27.893 16.3663 28.9999 14.5264 29H6.24805C4.44236 28.9999 3.21745 27.2813 3.86328 25.5771L4.18359 24.6973C4.6633 23.1422 6.117 22.2002 7.69531 22.2002H15.1689C15.3737 22.2002 15.5498 22.0811 15.6172 21.9248L15.6279 21.9014L20.8613 10.5605C20.7528 10.4006 20.6895 10.2078 20.6895 10C20.6895 9.48492 21.0786 9.06067 21.5791 9.00586L23.8252 4.14062L23.8398 4.11133L23.9004 3.99805C24.2263 3.44024 24.8385 3 25.6172 3H26.7422ZM22.8613 11L17.4434 22.7393L17.4424 22.7383C17.0223 23.6869 16.0818 24.2002 15.1689 24.2002H7.69531C6.93591 24.2002 6.34705 24.6143 6.12402 25.1973L6.08398 25.3154C6.07751 25.338 6.07054 25.3608 6.0625 25.3828L5.74121 26.2627C5.73911 26.2684 5.73658 26.2746 5.73438 26.2803C5.6523 26.4927 5.69314 26.6639 5.77344 26.7793C5.85444 26.8956 6.00726 26.9999 6.24805 27H14.5264C15.5743 26.9999 16.5979 26.3535 17.0811 25.4053L23.8643 11H22.8613ZM25.627 5.00879L23.7852 9H24.6895C24.7274 9.00001 24.7649 9.00173 24.8018 9.00586L26.6865 5.00586C26.686 5.00407 26.6855 5.00211 26.6846 5H25.6328C25.631 5.00253 25.6287 5.00529 25.627 5.00879Z" fill="currentColor" style="fill:currentColor;fill:currentColor;fill-opacity:1;"/>
<path fill-rule="evenodd" clip-rule="evenodd" d="M7.18945 14C8.26805 14 9.29575 14.2084 10.0908 14.5869C10.8084 14.9287 11.6895 15.5976 11.6895 16.667V18.333C11.6895 19.4024 10.8084 20.0713 10.0908 20.4131C9.29575 20.7916 8.26805 21 7.18945 21C6.11086 21 5.08319 20.7916 4.28809 20.4131C3.57043 20.0713 2.68945 19.4025 2.68945 18.333V16.667C2.68945 15.5975 3.57043 14.9287 4.28809 14.5869C5.08319 14.2084 6.11086 14 7.18945 14ZM7.18945 16C6.34339 16 5.62104 16.1671 5.14746 16.3926C4.80267 16.5568 4.71048 16.683 4.68945 16.7168V18.2822C4.7096 18.3149 4.8002 18.442 5.14746 18.6074C5.62104 18.8329 6.34339 19 7.18945 19C8.03553 19 8.75791 18.8329 9.23145 18.6074C9.57892 18.4419 9.66944 18.3147 9.68945 18.2822V16.7168C9.66857 16.6832 9.57645 16.5569 9.23145 16.3926C8.75791 16.1671 8.03553 16 7.18945 16Z" fill="currentColor" style="fill:currentColor;fill:currentColor;fill-opacity:1;"/>
</svg>
