<svg width="32" height="32" viewBox="0 0 32 32" fill="none" xmlns="http://www.w3.org/2000/svg">
<path fill-rule="evenodd" clip-rule="evenodd" d="M11.292 7.59559C13.0563 7.59559 14.4922 9.03152 14.4922 10.7958C14.4921 11.4385 14.2995 12.0353 13.9717 12.536C14.4732 12.7271 14.9344 13.0231 15.3213 13.41L17.04 15.1288H26.582V17.1288H25.4473V26.7958C25.447 27.7404 24.681 28.5067 23.7363 28.5067H8.0918C7.14733 28.5065 6.38111 27.7403 6.38086 26.7958V17.1288H5.24805V15.1288H6.51367C6.81626 14.0028 7.61658 13.0815 8.66504 12.6151C8.30482 12.0989 8.09284 11.4724 8.09277 10.7958C8.09277 9.03162 9.52786 7.59575 11.292 7.59559ZM8.38086 26.5067H23.4473V17.1288H19.04L20.8887 18.9774L20.957 19.0526C21.2774 19.4454 21.2547 20.0254 20.8887 20.3915C20.5225 20.7575 19.9425 20.7802 19.5498 20.4598L19.4746 20.3915L16.2119 17.1288H8.38086V26.5067ZM11.292 9.01747C10.3122 9.01763 9.51465 9.81597 9.51465 10.7958C9.51476 11.4195 9.83893 11.967 10.3262 12.2841H10.5342V12.3993C10.5499 12.4068 10.565 12.4157 10.5811 12.4227V13.91C10.5652 13.9064 10.55 13.9002 10.5342 13.8964V14.2841H10.2256L10.0371 14.2938C9.46621 14.3518 8.97315 14.6707 8.67676 15.1288H14.2119L13.9072 14.8241C13.5619 14.4787 13.0921 14.2842 12.6025 14.2841H12.0762C11.5239 14.2841 11.0762 13.8363 11.0762 13.2841C11.0762 12.7318 11.5239 12.2841 12.0762 12.2841H12.2588C12.7459 11.9669 13.0702 11.4194 13.0703 10.7958C13.0703 9.81588 12.2719 9.01747 11.292 9.01747Z" fill="currentColor" style="fill:currentColor;fill:currentColor;fill-opacity:1;"/>
<path d="M17.7764 3.96083C18.1392 3.59189 18.7178 3.56412 19.1133 3.88075L19.1904 3.94813L19.8203 4.56044C20.0477 4.78864 20.2798 5.03871 20.4775 5.30067C20.8786 5.8322 21.2061 6.48976 21.2441 7.3202L21.248 7.48817C21.2453 9.11089 20.1377 10.1199 19.4424 10.7929C18.639 11.5703 18.248 12.012 18.248 12.662C18.2479 13.2141 17.8001 13.6619 17.248 13.662C16.6958 13.662 16.2482 13.2142 16.248 12.662C16.248 11.0382 17.3551 10.0287 18.0508 9.35536C18.8543 8.57777 19.2467 8.13582 19.248 7.48524L19.2422 7.3534C19.2159 7.05235 19.0955 6.78921 18.8809 6.50477C18.7422 6.32115 18.586 6.15333 18.4062 5.9745L17.7881 5.37586L17.7188 5.29969C17.3953 4.90981 17.4137 4.33006 17.7764 3.96083Z" fill="currentColor" style="fill:currentColor;fill:currentColor;fill-opacity:1;"/>
<path d="M21.8848 3.96083C22.2476 3.59189 22.8262 3.56412 23.2217 3.88075L23.2988 3.94813L23.9287 4.56044C24.1561 4.78864 24.3882 5.03871 24.5859 5.30067C24.987 5.8322 25.3145 6.48976 25.3525 7.3202L25.3564 7.48817C25.3537 9.11089 24.2461 10.1199 23.5508 10.7929C22.7474 11.5703 22.3564 12.012 22.3564 12.662C22.3563 13.2141 21.9085 13.6619 21.3564 13.662C20.8042 13.662 20.3566 13.2142 20.3564 12.662C20.3564 11.0382 21.4635 10.0287 22.1592 9.35536C22.9627 8.57777 23.3551 8.13582 23.3564 7.48524L23.3506 7.3534C23.3243 7.05235 23.2039 6.78921 22.9893 6.50477C22.8506 6.32115 22.6944 6.15333 22.5146 5.9745L21.8965 5.37586L21.8271 5.29969C21.5037 4.90981 21.5221 4.33006 21.8848 3.96083Z" fill="currentColor" style="fill:currentColor;fill:currentColor;fill-opacity:1;"/>
</svg>
