<svg width="32" height="32" viewBox="0 0 32 32" fill="none" xmlns="http://www.w3.org/2000/svg">
<path fill-rule="evenodd" clip-rule="evenodd" d="M24.0566 17.6216C24.2239 17.1418 24.7304 16.8608 25.2324 16.98L25.9453 17.1626C27.4469 17.5739 28.6849 18.0876 29.5371 18.6782L29.7266 18.815L30.0107 19.0493C30.6352 19.6102 31 20.2753 31 20.9995C30.9997 22.0093 30.2727 22.9019 29.1279 23.5825L28.8926 23.7153C26.3733 25.0847 21.4228 25.9995 15.8096 25.9995C10.3724 25.9995 5.55583 25.1409 2.96973 23.8423L2.72656 23.7153C1.4474 23.0198 0.619432 22.0767 0.619141 20.9995C0.619141 20.222 1.03746 19.5133 1.74902 18.9292L1.91699 18.7974C2.78845 18.1443 4.11636 17.5837 5.73926 17.146C6.23878 17.0108 6.75356 17.2787 6.93457 17.7515L6.96582 17.8491L6.9873 17.9497C7.06346 18.4171 6.7992 18.875 6.35742 19.0435L6.26074 19.0747C4.93459 19.4329 3.92098 19.8472 3.27344 20.2857L3.01855 20.4751C2.68043 20.7525 2.61914 20.9156 2.61914 20.9995C2.61932 21.0462 2.64202 21.1394 2.7832 21.3003L2.94141 21.4595C3.12147 21.6203 3.36626 21.7875 3.68066 21.9585L3.89258 22.0679C4.98335 22.6136 6.58854 23.087 8.56348 23.4282C10.6617 23.7908 13.1458 23.9995 15.8096 23.9995C18.473 23.9995 20.9565 23.7907 23.0547 23.4282C25.1616 23.0642 26.8484 22.5507 27.9375 21.9585L28.2295 21.7886C28.4982 21.6207 28.6984 21.4574 28.835 21.3013L28.9209 21.1909C28.987 21.0945 28.9999 21.0337 29 20.9995C29 20.9139 28.9402 20.7615 28.6533 20.5181L28.5156 20.4077C27.8789 19.923 26.8132 19.4698 25.3955 19.0855L24.7666 18.9243C24.2314 18.7962 23.8983 18.2574 24.0273 17.7202L24.0566 17.6216ZM17.8662 25.4575C17.1944 25.4851 16.5078 25.4985 15.8096 25.4985C16.8572 25.4985 17.8788 25.4666 18.8633 25.4058L17.8662 25.4575ZM10.8398 25.2476C11.1498 25.2801 11.4647 25.3089 11.7842 25.3355C11.1451 25.2824 10.5242 25.2177 9.9248 25.1411L10.8398 25.2476ZM27.6396 23.7476C25.7699 24.4988 23.0298 25.0701 19.835 25.3355L20.7793 25.2476C23.7244 24.9386 26.2214 24.3639 27.9141 23.6333L27.6396 23.7476ZM2.16016 22.7525C2.39057 22.9347 2.65899 23.1106 2.96484 23.2769C4.01835 23.8495 5.53935 24.3462 7.38477 24.7241L6.61426 24.5542C5.11452 24.2018 3.86785 23.7677 2.96484 23.2769C2.58289 23.0692 2.25931 22.8463 1.99512 22.6148L2.16016 22.7525ZM10.1445 24.1665C10.4331 24.2023 10.7269 24.2348 11.0254 24.2652C10.4284 24.2045 9.85051 24.1333 9.29492 24.0513L10.1445 24.1665ZM29.0117 21.8296C28.7918 22.0266 28.5103 22.2155 28.1758 22.397C28.5661 22.1852 28.8849 21.9645 29.1172 21.731L29.0117 21.8296ZM29.2783 22.8872C29.0914 23.0211 28.8835 23.1513 28.6543 23.2759C28.5038 23.3577 28.3439 23.4385 28.1748 23.5171L28.4219 23.398C28.5017 23.3579 28.5792 23.3167 28.6543 23.2759C28.9601 23.1096 29.2286 22.9347 29.459 22.7525L29.2783 22.8872ZM2.60645 21.8306C2.8267 22.0277 3.10868 22.2155 3.44238 22.397C4.1668 22.7907 5.12104 23.1437 6.25488 23.4429L5.59668 23.2564C4.74874 23.0002 4.02187 22.712 3.44238 22.397C3.05313 22.1853 2.73487 21.9643 2.50195 21.731L2.60645 21.8306ZM1.58301 22.188C1.62167 22.2364 1.6626 22.2847 1.70605 22.3325L1.58301 22.188C1.54433 22.1396 1.50848 22.0914 1.47461 22.0425L1.58301 22.188ZM29.4873 20.8667C29.4954 20.9101 29.499 20.954 29.499 20.9985C29.499 20.9094 29.4836 20.8226 29.4521 20.7378L29.4873 20.8667ZM24.5059 18.0337C24.5229 18.1365 24.5736 18.23 24.6465 18.3032C24.5512 18.2072 24.4951 18.0756 24.5 17.936L24.5059 18.0337ZM25.8164 17.646C26.2149 17.7552 26.5911 17.873 26.9443 17.9946C26.3905 17.8038 25.7796 17.6254 25.1172 17.4663L25.8164 17.646ZM24.5967 17.6558C24.5582 17.708 24.5296 17.7693 24.5137 17.8364L24.5479 17.7398C24.5759 17.6797 24.6148 17.6268 24.6621 17.5835L24.5967 17.6558Z" fill="currentColor" style="fill:currentColor;fill:currentColor;fill-opacity:1;"/>
<path fill-rule="evenodd" clip-rule="evenodd" d="M15.627 2.46828C16.1132 2.29179 16.6482 2.51715 16.8682 2.97413L16.9082 3.06886L17.1279 3.68312C17.6068 5.04334 18.0698 6.57599 17.9902 8.11769L17.9619 8.47316C17.8582 9.43631 17.5102 10.3101 17.123 11.1206L16.7305 11.9116C16.2817 12.7996 15.8836 13.5911 15.7793 14.4605L15.7627 14.6353C15.5893 16.9916 16.2664 19.3775 16.9297 21.7271L16.9531 21.8267C17.0409 22.3266 16.7363 22.821 16.2383 22.9614L16.2373 22.9605C15.7068 23.1096 15.1549 22.8008 15.0049 22.271C14.3211 19.8449 13.5721 17.1668 13.7686 14.4888C13.8639 13.1854 14.4189 12.0493 14.9453 11.0093L15.2959 10.3091C15.6289 9.62312 15.8962 8.96996 15.9736 8.25831C16.1315 6.78168 15.5746 5.2627 15.0264 3.74953V3.74757C14.8418 3.23141 15.1063 2.65839 15.627 2.47023V2.46828ZM15.458 17.8228C15.5362 18.2805 15.6317 18.7361 15.7373 19.189L15.6357 18.7349C15.5704 18.4315 15.5102 18.1281 15.458 17.8228ZM14.2363 15.4927C14.2376 15.6317 14.2423 15.7707 14.248 15.9097C14.2357 15.6096 14.233 15.3094 14.2422 15.0093L14.2363 15.4927ZM14.4043 13.6568C14.3873 13.7273 14.3718 13.7983 14.3574 13.8696L14.4043 13.6568C14.4383 13.5156 14.4782 13.376 14.5215 13.2378L14.4043 13.6568Z" fill="currentColor" style="fill:currentColor;fill:currentColor;fill-opacity:1;"/>
<path fill-rule="evenodd" clip-rule="evenodd" d="M9.50781 5.11183C9.99826 4.8576 10.6015 5.04979 10.8555 5.53956L11.084 5.98585C11.5813 6.98007 12.0771 8.15199 11.9873 9.34328L11.9561 9.61867C11.8409 10.3657 11.4636 11.0382 11.0566 11.6392L10.6484 12.2163C10.2339 12.7894 9.90719 13.2374 9.79395 13.7027L9.75879 13.9038C9.59859 15.4361 10.2392 16.9975 10.8945 18.6245L10.9277 18.7212C11.0702 19.209 10.8209 19.733 10.3428 19.9273C9.86344 20.1201 9.31914 19.915 9.08301 19.4663L9.04004 19.3735C8.34608 17.652 7.56266 15.68 7.77051 13.6958L7.7959 13.5064C7.95234 12.5665 8.51705 11.7495 9.02734 11.0444L9.36719 10.5718C9.68203 10.1228 9.91353 9.73448 9.97852 9.31398L9.99707 9.15285C10.023 8.77565 9.94046 8.37641 9.78418 7.94874C9.60384 7.45544 9.34291 6.96866 9.0791 6.45949L9.07812 6.45851C8.82628 5.96881 9.01809 5.36581 9.50781 5.11183ZM8.46289 16.1607C8.48979 16.2748 8.51919 16.3887 8.5498 16.5025L8.46289 16.1607C8.43592 16.0462 8.41144 15.9317 8.38867 15.8169L8.46289 16.1607ZM8.41016 13.1109C8.33979 13.318 8.29034 13.5302 8.26758 13.7476L8.29004 13.5855C8.31686 13.4247 8.35751 13.266 8.41016 13.1109ZM8.84473 12.2066C8.78571 12.3045 8.72936 12.403 8.67676 12.5025L8.84473 12.2066C8.90388 12.1084 8.96623 12.0106 9.03027 11.9136L8.84473 12.2066ZM10.4482 9.52003C10.4194 9.65076 10.3786 9.77854 10.3281 9.90382L10.415 9.65089C10.4273 9.60789 10.4386 9.56369 10.4482 9.52003ZM9.48535 6.13527C9.49429 6.16729 9.50669 6.19933 9.52246 6.22999C9.94086 7.03751 10.4171 7.90544 10.4912 8.78175L10.4678 8.5796C10.3448 7.77191 9.90873 6.97553 9.52246 6.22999C9.49109 6.1689 9.47366 6.10316 9.46875 6.03859L9.48535 6.13527ZM9.73828 5.55519C9.67702 5.58697 9.62456 5.62911 9.58301 5.67921L9.65332 5.61085C9.67916 5.58994 9.70763 5.57108 9.73828 5.55519Z" fill="currentColor" style="fill:currentColor;fill:currentColor;fill-opacity:1;"/>
<path fill-rule="evenodd" clip-rule="evenodd" d="M21.7715 5.11183C22.2619 4.8576 22.8652 5.04979 23.1191 5.53956L23.3477 5.98585C23.845 6.97985 24.3414 8.15177 24.251 9.34328L24.2197 9.61867C24.1045 10.3656 23.7273 11.0382 23.3203 11.6392L22.9121 12.2163C22.498 12.7889 22.1717 13.2372 22.0586 13.7027L22.0234 13.9038C21.8623 15.4362 22.5028 16.9983 23.1592 18.6255L23.1924 18.7232C23.3328 19.21 23.0845 19.733 22.6064 19.9273C22.094 20.1331 21.512 19.8843 21.3047 19.3745L21.3037 19.3735C20.6098 17.652 19.8264 15.68 20.0342 13.6958L20.0596 13.5064C20.216 12.5666 20.7808 11.7494 21.291 11.0444L21.6309 10.5718C21.9461 10.1226 22.1782 9.73443 22.2432 9.31398L22.2607 9.15285C22.2863 8.77558 22.2042 8.37647 22.0479 7.94874C21.9577 7.70213 21.8471 7.45727 21.7266 7.21046L21.3438 6.45949C21.0897 5.96922 21.2821 5.36589 21.7715 5.11183ZM20.5312 13.7476C20.3384 15.5874 21.0646 17.4432 21.7676 19.187C21.7789 19.2147 21.7942 19.2397 21.8096 19.2642C21.7941 19.2396 21.7799 19.2139 21.7686 19.186C21.0656 17.4422 20.3384 15.5874 20.5312 13.7476ZM21.752 13.0952C21.6751 13.2569 21.6133 13.4221 21.5723 13.5923L21.6484 13.3413C21.6787 13.2586 21.7136 13.176 21.752 13.0952ZM21.6963 11.3374C21.489 11.6238 21.2867 11.9123 21.1094 12.2066L21.2949 11.9136C21.4229 11.7199 21.5581 11.5283 21.6963 11.3374ZM22.4795 10.1509C22.3967 10.3141 22.3006 10.4743 22.1963 10.6323L22.3467 10.3941C22.3941 10.3142 22.4382 10.2323 22.4795 10.1509ZM22.7598 9.18605C22.7552 9.2536 22.7477 9.32164 22.7373 9.38917C22.71 9.56599 22.6601 9.73706 22.5928 9.90382L22.6807 9.65089C22.7052 9.565 22.7237 9.47781 22.7373 9.38917C22.7581 9.25412 22.7672 9.11895 22.7656 8.9839L22.7598 9.18605ZM21.75 6.13527C21.759 6.1673 21.7712 6.19931 21.7871 6.22999C22.2047 7.03757 22.6812 7.90537 22.7559 8.78175L22.7324 8.5796C22.6091 7.77191 22.1736 6.97455 21.7881 6.22902C21.7564 6.16787 21.7385 6.10322 21.7334 6.03859L21.75 6.13527ZM22.1934 5.5005C22.1285 5.5054 22.0633 5.52349 22.002 5.55519L22.0957 5.51808C22.128 5.5089 22.1607 5.50301 22.1934 5.5005Z" fill="currentColor" style="fill:currentColor;fill:currentColor;fill-opacity:1;"/>
</svg>
