<svg width="32" height="32" viewBox="0 0 32 32" fill="none" xmlns="http://www.w3.org/2000/svg">
<path d="M14.0002 9C14.7763 9.00687 15.543 8.83047 16.2381 8.48514C16.9331 8.13982 17.5369 7.63533 18.0002 7.0127C18.4683 7.63025 19.073 8.13103 19.767 8.47581C20.4609 8.82059 21.2253 9.00001 22.0002 9.00001C22.7751 9.00001 23.5395 8.82059 24.2334 8.47581C24.9274 8.13103 25.5321 7.63025 26.0002 7.0127C26.4635 7.63533 27.0673 8.13982 27.7623 8.48514C28.4574 8.83047 29.2241 9.00687 30.0002 9V7C29.3191 6.96024 28.6653 6.71875 28.122 6.30625C27.5786 5.89375 27.1702 5.3289 26.9489 4.6836C26.8816 4.48509 26.754 4.31253 26.5839 4.18999C26.4139 4.06745 26.2098 4.00103 26.0002 4C25.7909 3.99843 25.5864 4.06328 25.4163 4.18524C25.2462 4.30719 25.1191 4.47996 25.0534 4.6787C24.8324 5.32503 24.4241 5.89095 23.8803 6.30435C23.3366 6.71775 22.6821 6.95992 22.0002 7C21.3191 6.96024 20.6653 6.71875 20.122 6.30625C19.5786 5.89375 19.1702 5.3289 18.9489 4.6836C18.8816 4.48509 18.754 4.31253 18.5839 4.18999C18.4139 4.06745 18.2098 4.00103 18.0002 4C17.7902 3.99551 17.5844 4.05923 17.4137 4.1816C17.243 4.30397 17.1166 4.47839 17.0534 4.6787C16.8324 5.32503 16.4241 5.89095 15.8803 6.30435C15.3366 6.71775 14.6821 6.95992 14.0002 7H13.0002V6C13.0002 4.93913 12.5788 3.92172 11.8286 3.17157C11.0785 2.42143 10.0611 2 9.00019 2C7.93933 2 6.92191 2.42143 6.17177 3.17157C5.42162 3.92172 5.0002 4.93913 5.0002 6V17.2617C3.81131 18.0835 2.90538 19.2526 2.40636 20.609C1.90734 21.9654 1.83961 23.4429 2.21243 24.8392C2.58525 26.2356 3.38042 27.4827 4.48913 28.4098C5.59784 29.337 6.96594 29.8989 8.40624 30.0187C9.84654 30.1386 11.2887 29.8104 12.5354 29.0793C13.7821 28.3481 14.7724 27.2496 15.3709 25.934C15.9693 24.6185 16.1467 23.1502 15.8787 21.7299C15.6107 20.3097 14.9104 19.007 13.8737 18H14.0002C14.7763 18.0069 15.543 17.8305 16.2381 17.4851C16.9331 17.1398 17.5369 16.6353 18.0002 16.0127C18.4683 16.6302 19.073 17.131 19.767 17.4758C20.4609 17.8206 21.2253 18 22.0002 18C22.7751 18 23.5395 17.8206 24.2334 17.4758C24.9274 17.131 25.5321 16.6302 26.0002 16.0127C26.4635 16.6353 27.0673 17.1398 27.7623 17.4851C28.4574 17.8305 29.2241 18.0069 30.0002 18V16C29.3191 15.9602 28.6653 15.7187 28.122 15.3062C27.5786 14.8937 27.1702 14.3289 26.9489 13.6836C26.8816 13.4851 26.754 13.3125 26.5839 13.19C26.4139 13.0675 26.2098 13.001 26.0002 13C25.7909 12.9984 25.5864 13.0633 25.4163 13.1852C25.2462 13.3072 25.1191 13.48 25.0534 13.6787C24.8324 14.325 24.4241 14.8909 23.8803 15.3044C23.3366 15.7178 22.6821 15.9599 22.0002 16C21.3191 15.9602 20.6653 15.7187 20.122 15.3062C19.5786 14.8937 19.1702 14.3289 18.9489 13.6836C18.8816 13.4851 18.754 13.3125 18.5839 13.19C18.4139 13.0675 18.2098 13.001 18.0002 13C17.7902 12.9955 17.5844 13.0592 17.4137 13.1816C17.243 13.304 17.1166 13.4784 17.0534 13.6787C16.8324 14.325 16.4241 14.8909 15.8803 15.3044C15.3366 15.7178 14.6821 15.9599 14.0002 16H13.0002V9H14.0002ZM7.0002 6C7.0002 5.46957 7.21091 4.96086 7.58598 4.58579C7.96105 4.21071 8.46976 4 9.00019 4C9.53063 4 10.0393 4.21071 10.4144 4.58579C10.7895 4.96086 11.0002 5.46957 11.0002 6V12H7.0002V6ZM9.00019 28C7.89972 28.0008 6.82977 27.6382 5.95645 26.9686C5.08314 26.299 4.45531 25.3598 4.17046 24.2968C3.8856 23.2339 3.95964 22.1066 4.38108 21.09C4.80253 20.0734 5.5478 19.2244 6.5012 18.6748L7.0002 18.3857V14H11.0002V18.3857L11.4992 18.6748C12.4526 19.2244 13.1979 20.0734 13.6193 21.09C14.0408 22.1066 14.1148 23.2339 13.8299 24.2968C13.5451 25.3598 12.9173 26.299 12.0439 26.9686C11.1706 27.6382 10.1007 28.0008 9.00019 28Z" fill="currentColor" style="fill:currentColor;fill:currentColor;fill-opacity:1;"/>
</svg>
