<svg width="32" height="32" viewBox="0 0 32 32" fill="none" xmlns="http://www.w3.org/2000/svg">
<path d="M27.3724 25.3173V10.1026V10.1026C28.2691 10.1026 28.996 9.37573 28.996 8.47908V7C28.996 5.89543 28.1005 5 26.996 5H5.00257C3.898 5 3.00257 5.89543 3.00257 7V8.47908C3.00257 9.37576 3.72947 10.1027 4.62615 10.1027V10.1027V25.3173V25.3173C3.72765 25.3173 2.99927 26.0457 2.99927 26.9442V27H28.9993V26.9441C28.9993 26.0457 28.2709 25.3173 27.3724 25.3173V25.3173ZM18.9789 23.4052C18.9612 23.9164 18.7923 24.3275 18.4772 24.6271C18.002 25.0786 17.1452 25.3174 15.9993 25.3174C14.8533 25.3174 13.9966 25.0786 13.5213 24.6271C13.2062 24.3275 13.0374 23.9164 13.0196 23.4052C13.0052 22.9894 13.0531 22.5182 13.118 22.094L14.3102 22.9834L15.9993 20.5645L17.6884 22.9834L18.8805 22.094C18.9454 22.5182 18.9934 22.9894 18.9789 23.4052ZM22.377 25.3173H20.0948C20.4509 24.7923 20.6493 24.1627 20.6735 23.463C20.72 22.1234 20.2814 20.474 20.2627 20.4044L19.9388 19.1992L18.0783 20.5874L15.9993 17.6101L13.9203 20.5873L12.0598 19.1992L11.7358 20.4044C11.7171 20.4739 11.2784 22.1233 11.325 23.463C11.3493 24.1626 11.5476 24.7922 11.9038 25.3172H9.62165V15.7516C10.9674 15.5604 11.9943 14.9403 12.9183 14.3824C13.9292 13.772 14.8023 13.2448 15.9993 13.2448C17.1963 13.2448 18.0694 13.7719 19.0803 14.3824C20.0044 14.9404 21.0313 15.5604 22.377 15.7516V25.3173ZM25.6768 25.3173H24.0726V14.1283H23.2248C21.9215 14.1283 20.9696 13.5535 19.9617 12.9449C18.8883 12.2967 17.6716 11.5621 15.9993 11.5621C14.3269 11.5621 13.1103 12.2968 12.0369 12.9449C11.029 13.5535 10.077 14.1283 8.77376 14.1283H7.92591V25.3173H6.32178V10.1026H25.6768V25.3173ZM27.3003 8.41996H4.69821V6.68274H27.3003V8.41996Z" fill="currentColor" style="fill:currentColor;fill:currentColor;fill-opacity:1;"/>
</svg>
