<svg width="32" height="32" viewBox="0 0 32 32" fill="none" xmlns="http://www.w3.org/2000/svg">
<path fill-rule="evenodd" clip-rule="evenodd" d="M22.5253 8.60352C22.9673 8.64304 23.3356 8.97189 23.4189 9.41504L24.5009 15.1943L24.5019 15.1963L25.9394 22.1992C25.9998 22.4934 25.925 22.7994 25.7353 23.0322C25.5454 23.265 25.2603 23.4004 24.9599 23.4004H7.03995C6.72097 23.4004 6.42062 23.2477 6.23234 22.9902C6.04432 22.7328 5.99018 22.4005 6.08683 22.0967L7.56241 17.458L7.57804 17.415C7.87234 16.619 8.20126 15.8517 8.71964 15.2979C9.30593 14.6716 10.0492 14.3975 10.9482 14.3975H22.3173L21.6054 10.5996H15.5556C15.0035 10.5994 14.5556 10.1518 14.5556 9.59961C14.5556 9.04746 15.0035 8.59984 15.5556 8.59961H22.4355L22.5253 8.60352ZM10.9482 16.3975C10.5058 16.3975 10.3264 16.5073 10.1796 16.6641C9.96597 16.8923 9.7508 17.3051 9.45695 18.0986L8.40714 21.4004H23.7343L22.7069 16.3975H10.9482Z" fill="currentColor" style="fill:currentColor;fill:currentColor;fill-opacity:1;"/>
</svg>
