<svg width="32" height="32" viewBox="0 0 32 32" fill="none" xmlns="http://www.w3.org/2000/svg">
<path fill-rule="evenodd" clip-rule="evenodd" d="M16.0003 2.59961C16.6534 2.59968 17.2558 2.96034 17.5511 3.54004L17.6536 3.75098C18.0129 4.50644 19.1879 7.15164 19.8782 10.7402L22.1341 8.54004C22.0695 8.06716 22.1594 7.54913 22.3626 7.0459C22.6028 6.4514 23.0101 5.84956 23.5579 5.31543L23.7308 5.15332C24.6067 4.3646 25.6494 3.90039 26.5472 3.90039C27.0478 3.90047 27.5286 4.04675 27.887 4.39551L27.9818 4.49609C28.428 5.01171 28.483 5.73516 28.305 6.42969C28.1371 7.08462 27.7527 7.77217 27.1946 8.38672L26.9446 8.64551C26.0355 9.53231 24.9131 10.0605 23.9554 10.0605C23.8416 10.0605 23.7355 10.0461 23.6409 10.0283L20.2562 13.3281C20.3433 14.1865 20.4007 15.0777 20.4007 16C20.4007 21.9357 18.3144 26.8352 17.7093 28.1318L17.5511 28.46C17.2559 29.0389 16.6536 29.4003 16.0003 29.4004C15.3879 29.4003 14.8208 29.0825 14.5091 28.5654L14.4495 28.459C14.3567 28.2765 12.9177 25.3936 12.1224 21.2578L9.86554 23.459C9.93045 23.9322 9.84143 24.4505 9.638 24.9541C9.42785 25.4743 9.09008 26.0003 8.64191 26.4814L8.44366 26.6846C7.53463 27.5714 6.41208 28.0994 5.45441 28.0996C5.0162 28.0996 4.59239 27.9878 4.25323 27.7256L4.11359 27.6035C3.58099 27.0845 3.50573 26.311 3.69562 25.5703C3.88755 24.8218 4.36239 24.0308 5.05597 23.3545L5.22882 23.1924C6.10474 22.4039 7.14733 21.9395 8.04523 21.9395C8.15853 21.9395 8.26448 21.953 8.3587 21.9707L11.7435 18.6709C11.6564 17.8128 11.6009 16.9219 11.6009 16C11.6009 9.21571 14.3251 3.78448 14.4495 3.54004L14.5091 3.43457C14.8209 2.91721 15.3879 2.59966 16.0003 2.59961ZM16.9857 28.5732C17.0262 28.5297 17.0654 28.4846 17.0999 28.4355L17.1946 28.2783C17.139 28.3875 17.0674 28.4856 16.9857 28.5732ZM5.76593 27.6787C5.65923 27.6926 5.55468 27.6992 5.45343 27.6992L5.45441 27.7002C5.55545 27.7002 5.65946 27.6925 5.76593 27.6787ZM13.9837 19.4424C14.3059 21.752 14.8875 23.7525 15.3968 25.1865C15.6219 25.8203 15.8342 26.3418 16.0003 26.7305C16.0151 26.696 16.0327 26.6615 16.0482 26.625C16.294 26.0428 16.6235 25.1981 16.9525 24.1533C17.6111 22.0615 18.2669 19.1781 18.2669 16C18.2669 15.7585 18.2609 15.5192 18.2523 15.2812L13.9837 19.4424ZM8.82648 25.6152C8.64191 25.8841 8.42067 26.1485 8.16437 26.3984L8.34991 26.209C8.52892 26.0168 8.68808 25.8168 8.82648 25.6152ZM7.67902 24.1172C7.37277 24.2242 6.96437 24.4504 6.55792 24.8467C6.17872 25.2164 5.95874 25.5789 5.8421 25.8604C5.83361 25.8808 5.827 25.9015 5.81964 25.9209C6.12582 25.8139 6.53497 25.589 6.94171 25.1924L7.07648 25.0547C7.3743 24.7338 7.55541 24.4251 7.65753 24.1787C7.6661 24.158 7.67159 24.1368 7.67902 24.1172ZM9.07452 25.21C9.03777 25.2777 8.99879 25.3455 8.95734 25.4131L9.07452 25.21C9.11122 25.1423 9.1461 25.0744 9.17804 25.0068L9.07452 25.21ZM6.85773 24.0918C6.748 24.165 6.63557 24.2456 6.52472 24.3379L6.77179 24.1484C6.80014 24.1284 6.82953 24.1106 6.85773 24.0918ZM7.72687 22.3604C7.67272 22.3675 7.61808 22.377 7.5628 22.3877C7.67354 22.3664 7.78216 22.3519 7.888 22.3447L7.72687 22.3604ZM12.3821 20.4473C12.4654 20.9475 12.5613 21.431 12.6624 21.8965C12.6178 21.6912 12.573 21.4828 12.5316 21.2705L12.3821 20.4473ZM13.847 21.0547C13.8947 21.2969 13.9465 21.534 13.9984 21.7666C13.8865 21.2644 13.7819 20.7393 13.6917 20.1943L13.847 21.0547ZM13.3411 15.3975C13.3361 15.597 13.3333 15.7979 13.3333 16C13.3333 16.3048 13.3419 16.6055 13.3548 16.9033C13.3477 16.7402 13.3417 16.5762 13.3382 16.4111L13.3333 16C13.3333 15.5961 13.3441 15.197 13.3636 14.8037L13.3411 15.3975ZM15.9525 5.375C15.7066 5.95712 15.3781 6.80196 15.0491 7.84668C14.3905 9.93852 13.7337 12.8219 13.7337 16C13.7337 16.2411 13.7388 16.4802 13.7474 16.7178L18.0159 12.5566C17.6937 10.2475 17.113 8.24724 16.6038 6.81348C16.3785 6.17902 16.1655 5.65731 15.9993 5.26855C15.9845 5.30315 15.968 5.33829 15.9525 5.375ZM13.6605 11.9775C13.5751 12.5149 13.5032 13.0707 13.4485 13.6416L13.5091 13.0762C13.575 12.5152 13.6565 11.9704 13.7503 11.4453L13.6605 11.9775ZM17.1819 7.26758C17.5903 8.49812 18.0185 10.0501 18.3089 11.8057L18.1526 10.9453C17.8209 9.26097 17.3785 7.79964 16.9808 6.67969L17.1819 7.26758ZM19.6185 11.5527L19.4886 10.8301C19.4849 10.8111 19.4805 10.7923 19.4769 10.7734L19.6185 11.5527ZM14.1771 9.45801C14.0989 9.76924 14.0241 10.0913 13.9525 10.4229L14.0628 9.93262C14.1755 9.45034 14.2953 8.99085 14.4183 8.55762L14.1771 9.45801ZM24.1116 9.65527L23.9554 9.66113C24.0564 9.66112 24.1604 9.65345 24.2669 9.63965C24.2145 9.64643 24.1628 9.6518 24.1116 9.65527ZM26.6653 8.35938C26.4027 8.61554 26.1237 8.83584 25.8401 9.01953C26.066 8.87326 26.2894 8.70426 26.5032 8.51172L26.6653 8.35938ZM26.181 6.07812C25.9319 6.1651 25.6148 6.32997 25.2864 6.60254L25.0589 6.80762C24.6798 7.17735 24.4597 7.53989 24.3431 7.82129C24.3346 7.8418 24.328 7.86237 24.3206 7.88184C24.627 7.77492 25.0367 7.5501 25.4437 7.15332L25.5784 7.01562C25.8762 6.69477 26.0575 6.38595 26.1595 6.13965C26.168 6.11895 26.1736 6.09775 26.181 6.07812ZM23.4886 5.97363C23.4322 6.04006 23.3782 6.10728 23.3265 6.1748C23.4259 6.04508 23.5341 5.91717 23.6507 5.79199L23.4886 5.97363ZM27.7405 4.83496C27.7986 4.91463 27.8458 5.00147 27.8841 5.09375C27.8453 5.00035 27.7976 4.9125 27.7386 4.83203L27.7405 4.83496ZM27.6077 4.68262C27.6321 4.7064 27.656 4.73039 27.678 4.75586L27.6077 4.68262ZM25.7259 4.43262C25.6887 4.44405 25.652 4.45784 25.6146 4.4707C25.7097 4.43804 25.8036 4.4091 25.8968 4.38574L25.7259 4.43262ZM17.1946 3.72168L17.1126 3.58203C17.1091 3.57687 17.1045 3.57249 17.1009 3.56738C17.1352 3.6164 17.1671 3.66757 17.1946 3.72168ZM15.1487 3.29883C15.0078 3.41268 14.8904 3.5559 14.806 3.72168C14.9186 3.50069 15.0904 3.32045 15.2972 3.19531L15.1487 3.29883Z" fill="currentColor" style="fill:currentColor;fill:currentColor;fill-opacity:1;"/>
</svg>
