<svg width="33" height="32" viewBox="0 0 33 32" fill="none" xmlns="http://www.w3.org/2000/svg">
<path fill-rule="evenodd" clip-rule="evenodd" d="M14.4258 17.96C14.6605 17.96 14.8855 18.0541 15.0508 18.2207C15.1952 18.3665 15.2838 18.5573 15.3037 18.7598L15.3076 18.8467V27.0645C15.3075 27.2987 15.2158 27.524 15.0508 27.6904C14.9063 27.8361 14.7161 27.9269 14.5137 27.9473L14.4258 27.9512H5.11133C4.87658 27.9511 4.65156 27.857 4.48633 27.6904C4.34181 27.5447 4.25329 27.3539 4.2334 27.1514L4.22852 27.0645V18.8467C4.22858 18.6124 4.32128 18.3872 4.48633 18.2207C4.65156 18.0541 4.87658 17.96 5.11133 17.96H14.4258ZM5.99316 26.1777H13.5439V19.7334H5.99316V26.1777Z" fill="currentColor" style="fill:currentColor;fill:currentColor;fill-opacity:1;"/>
<path fill-rule="evenodd" clip-rule="evenodd" d="M19.7402 23.2373C19.8283 23.2448 19.9149 23.2663 19.9971 23.2998C20.1064 23.3444 20.2058 23.4104 20.2891 23.4941C20.3725 23.5781 20.4381 23.6784 20.4824 23.7881C20.5262 23.8967 20.549 24.0128 20.5479 24.1299V27.0596L20.5439 27.1475C20.5366 27.2347 20.5169 27.3207 20.4844 27.4023C20.441 27.5111 20.3767 27.6106 20.2949 27.6943C20.213 27.7781 20.1148 27.8451 20.0068 27.8906C19.9258 27.9248 19.8401 27.9463 19.7529 27.9551L19.665 27.96C19.548 27.9599 19.4321 27.9361 19.3242 27.8906C19.2162 27.8451 19.1181 27.7781 19.0361 27.6943C18.9542 27.6106 18.8901 27.5112 18.8467 27.4023C18.8033 27.2935 18.7816 27.1767 18.7832 27.0596V24.1299C18.781 23.897 18.8696 23.6717 19.0312 23.5039C19.1938 23.3352 19.417 23.2381 19.6514 23.2344L19.7402 23.2373Z" fill="currentColor" style="fill:currentColor;fill:currentColor;fill-opacity:1;"/>
<path d="M26.6514 17.96C26.7672 17.9589 26.8819 17.9809 26.9893 18.0244C27.0979 18.0684 27.1971 18.1332 27.2803 18.2158C27.3633 18.2983 27.4287 18.3968 27.4736 18.5049C27.5185 18.6131 27.542 18.7295 27.542 18.8467L27.5371 18.9346C27.5285 19.0217 27.5073 19.1073 27.4736 19.1885C27.4287 19.2966 27.3633 19.395 27.2803 19.4775C27.1971 19.5602 27.0979 19.6259 26.9893 19.6699C26.882 19.7134 26.7671 19.7335 26.6514 19.7324L19.665 19.7334C19.5494 19.7344 19.4344 19.7134 19.3271 19.6699C19.2186 19.6259 19.1202 19.5601 19.0371 19.4775C18.954 19.3949 18.8877 19.2967 18.8428 19.1885C18.7979 19.0802 18.7754 18.9639 18.7754 18.8467C18.7754 18.7295 18.7979 18.6131 18.8428 18.5049C18.8877 18.3967 18.9541 18.2984 19.0371 18.2158C19.1201 18.1334 19.2187 18.0684 19.3271 18.0244C19.4344 17.981 19.5494 17.9589 19.665 17.96H26.6514Z" fill="currentColor" style="fill:currentColor;fill:currentColor;fill-opacity:1;"/>
<path fill-rule="evenodd" clip-rule="evenodd" d="M14.1348 15.0254C14.5703 15.0254 14.9411 15.2641 15.1426 15.6123H29.6182C29.8528 15.6124 30.077 15.7065 30.2422 15.873C30.3866 16.0186 30.4761 16.2088 30.4961 16.4111L30.5 16.499V29.4121C30.5 29.6465 30.4073 29.8716 30.2422 30.0381C30.0975 30.1839 29.9077 30.2747 29.7051 30.2949L29.6182 30.2988H2.78223C2.54757 30.2988 2.3234 30.2046 2.1582 30.0381C2.01358 29.8923 1.92416 29.7017 1.9043 29.499L1.90039 29.4121V16.499C1.90041 16.2646 1.99305 16.0396 2.1582 15.873C2.32341 15.7065 2.54756 15.6124 2.78223 15.6123H4.39453C4.59604 15.2641 4.96682 15.0254 5.40234 15.0254H14.1348ZM3.66406 28.5254H15.9277V17.3857H3.66406V28.5254ZM17.6924 28.5254H28.7363V22.082H17.6924V28.5254ZM17.6924 20.3076H28.7363V17.3857H17.6924V20.3076Z" fill="currentColor" style="fill:currentColor;fill:currentColor;fill-opacity:1;"/>
<path fill-rule="evenodd" clip-rule="evenodd" d="M12.0967 2.69922C12.3314 2.69924 12.5564 2.79337 12.7217 2.95996C12.8662 3.10575 12.9547 3.29646 12.9746 3.49902L12.9795 3.58594V5.47852L16.6865 8.14746L16.7686 8.21387C16.8458 8.28502 16.9101 8.36981 16.958 8.46387C17.0217 8.58906 17.0547 8.72772 17.0547 8.86816V11.2168C17.0546 11.4511 16.9619 11.6763 16.7969 11.8428C16.6318 12.0092 16.4074 12.1034 16.1729 12.1035H3.36426C3.1297 12.1034 2.90539 12.0092 2.74023 11.8428C2.59569 11.697 2.50625 11.5062 2.48633 11.3037L2.48242 11.2168V8.86816C2.48237 8.72769 2.51539 8.58908 2.5791 8.46387C2.64298 8.33837 2.73638 8.22989 2.85059 8.14746L6.55762 5.47754V3.58594C6.55764 3.35151 6.65028 3.12647 6.81543 2.95996C6.9806 2.79345 7.20481 2.69931 7.43945 2.69922H12.0967ZM8.32227 5.93359C8.32241 6.07434 8.28846 6.21342 8.22461 6.33887C8.17674 6.43281 8.11327 6.51779 8.03613 6.58887L7.9541 6.65527L4.24707 9.32227V10.3291H15.29V9.32227L11.583 6.65527C11.4688 6.57286 11.3754 6.46434 11.3115 6.33887C11.2477 6.21343 11.2147 6.07434 11.2148 5.93359V4.47266H8.32227V5.93359Z" fill="currentColor" style="fill:currentColor;fill:currentColor;fill-opacity:1;"/>
</svg>
