<svg xmlns="http://www.w3.org/2000/svg" width="33" height="32" viewBox="0 0 33 32" fill="none">
  <path fill-rule="evenodd" clip-rule="evenodd" d="M14.4258 17.9609C14.6605 17.961 14.8855 18.0551 15.0508 18.2217C15.1952 18.3674 15.2838 18.5583 15.3037 18.7607L15.3076 18.8477V27.0654C15.3075 27.2997 15.2158 27.525 15.0508 27.6914C14.9063 27.8371 14.7161 27.9279 14.5137 27.9482L14.4258 27.9521H5.11133C4.87658 27.9521 4.65156 27.858 4.48633 27.6914C4.34181 27.5457 4.25329 27.3549 4.2334 27.1523L4.22852 27.0654V18.8477C4.22858 18.6133 4.32128 18.3881 4.48633 18.2217C4.65156 18.0551 4.87658 17.961 5.11133 17.9609H14.4258ZM5.99316 26.1787H13.5439V19.7344H5.99316V26.1787Z" fill="currentColor" style="fill:currentColor;fill:currentColor;fill-opacity:1;"/>
  <path fill-rule="evenodd" clip-rule="evenodd" d="M19.7402 23.2383C19.8283 23.2458 19.9149 23.2673 19.9971 23.3008C20.1064 23.3454 20.2058 23.4114 20.2891 23.4951C20.3725 23.579 20.4381 23.6794 20.4824 23.7891C20.5262 23.8977 20.549 24.0138 20.5479 24.1309V27.0605L20.5439 27.1484C20.5366 27.2357 20.5169 27.3217 20.4844 27.4033C20.441 27.5121 20.3767 27.6116 20.2949 27.6953C20.213 27.7791 20.1148 27.846 20.0068 27.8916C19.9258 27.9258 19.8401 27.9473 19.7529 27.9561L19.665 27.9609C19.548 27.9609 19.4321 27.9371 19.3242 27.8916C19.2162 27.846 19.1181 27.7791 19.0361 27.6953C18.9542 27.6115 18.8901 27.5121 18.8467 27.4033C18.8033 27.2945 18.7816 27.1777 18.7832 27.0605V24.1309C18.781 23.898 18.8696 23.6727 19.0312 23.5049C19.1938 23.3362 19.417 23.2391 19.6514 23.2354L19.7402 23.2383Z" fill="currentColor" style="fill:currentColor;fill:currentColor;fill-opacity:1;"/>
  <path d="M26.6514 17.9609C26.7672 17.9598 26.8819 17.9819 26.9893 18.0254C27.0979 18.0694 27.1971 18.1342 27.2803 18.2168C27.3633 18.2993 27.4287 18.3978 27.4736 18.5059C27.5185 18.6141 27.542 18.7305 27.542 18.8477L27.5371 18.9355C27.5285 19.0227 27.5073 19.1083 27.4736 19.1895C27.4287 19.2976 27.3633 19.396 27.2803 19.4785C27.1971 19.5612 27.0979 19.6269 26.9893 19.6709C26.882 19.7143 26.7671 19.7345 26.6514 19.7334L19.665 19.7344C19.5494 19.7354 19.4344 19.7143 19.3271 19.6709C19.2186 19.6269 19.1202 19.5611 19.0371 19.4785C18.954 19.3959 18.8877 19.2977 18.8428 19.1895C18.7979 19.0812 18.7754 18.9649 18.7754 18.8477C18.7754 18.7305 18.7979 18.6141 18.8428 18.5059C18.8877 18.3977 18.9541 18.2994 19.0371 18.2168C19.1201 18.1344 19.2187 18.0694 19.3271 18.0254C19.4344 17.9819 19.5494 17.9599 19.665 17.9609H26.6514Z" fill="currentColor" style="fill:currentColor;fill:currentColor;fill-opacity:1;"/>
  <path fill-rule="evenodd" clip-rule="evenodd" d="M14.1348 15.0264C14.5703 15.0264 14.9411 15.265 15.1426 15.6133H29.6182C29.8528 15.6133 30.077 15.7075 30.2422 15.874C30.3866 16.0196 30.4761 16.2098 30.4961 16.4121L30.5 16.5V29.4131C30.5 29.6475 30.4073 29.8726 30.2422 30.0391C30.0975 30.1849 29.9077 30.2757 29.7051 30.2959L29.6182 30.2998H2.78223C2.54757 30.2998 2.3234 30.2056 2.1582 30.0391C2.01358 29.8933 1.92416 29.7026 1.9043 29.5L1.90039 29.4131V16.5C1.90041 16.2656 1.99305 16.0405 2.1582 15.874C2.32341 15.7075 2.54756 15.6133 2.78223 15.6133H4.39453C4.59604 15.2651 4.96682 15.0264 5.40234 15.0264H14.1348ZM3.66406 28.5264H15.9277V17.3867H3.66406V28.5264ZM17.6924 28.5264H28.7363V22.083H17.6924V28.5264ZM17.6924 20.3086H28.7363V17.3867H17.6924V20.3086Z" fill="currentColor" style="fill:currentColor;fill:currentColor;fill-opacity:1;"/>
  <path fill-rule="evenodd" clip-rule="evenodd" d="M12.0967 2.7002C12.3314 2.70022 12.5564 2.79434 12.7217 2.96094C12.8662 3.10672 12.9547 3.29743 12.9746 3.5L12.9795 3.58691V5.47949L16.6865 8.14844L16.7686 8.21484C16.8458 8.286 16.9101 8.37078 16.958 8.46484C17.0217 8.59003 17.0547 8.7287 17.0547 8.86914V11.2178C17.0546 11.4521 16.9619 11.6773 16.7969 11.8438C16.6318 12.0102 16.4074 12.1043 16.1729 12.1045H3.36426C3.1297 12.1044 2.90539 12.0102 2.74023 11.8438C2.59569 11.698 2.50625 11.5072 2.48633 11.3047L2.48242 11.2178V8.86914C2.48237 8.72866 2.51539 8.59006 2.5791 8.46484C2.64298 8.33934 2.73638 8.23086 2.85059 8.14844L6.55762 5.47852V3.58691C6.55764 3.35249 6.65028 3.12745 6.81543 2.96094C6.9806 2.79442 7.20481 2.70029 7.43945 2.7002H12.0967ZM8.32227 5.93457C8.32241 6.07532 8.28846 6.2144 8.22461 6.33984C8.17674 6.43379 8.11327 6.51876 8.03613 6.58984L7.9541 6.65625L4.24707 9.32324V10.3301H15.29V9.32324L11.583 6.65625C11.4688 6.57384 11.3754 6.46532 11.3115 6.33984C11.2477 6.2144 11.2147 6.07532 11.2148 5.93457V4.47363H8.32227V5.93457Z" fill="currentColor" style="fill:currentColor;fill:currentColor;fill-opacity:1;"/>
</svg>