<svg width="32" height="32" viewBox="0 0 32 32" fill="none" xmlns="http://www.w3.org/2000/svg">
<path d="M7.48242 18.5391C7.57237 18.5391 7.65884 18.5537 7.73828 18.5781L7.81543 18.6055L7.8877 18.6357L7.9082 18.6562C7.92762 18.6672 7.94848 18.6754 7.9668 18.6875L8.08887 18.7852L8.14062 18.833L8.15918 18.8701C8.18884 18.9073 8.21882 18.9457 8.24316 18.9893L8.25586 19.002L8.28613 19.0752C8.33108 19.182 8.35254 19.2939 8.35254 19.4062C8.35247 19.5291 8.32458 19.6383 8.28613 19.7334L8.28125 19.7461C8.23859 19.842 8.17778 19.9374 8.09473 20.0195L8.04883 20.0645L8.01562 20.0801C7.95528 20.1271 7.88823 20.1715 7.80957 20.2031L7.81055 20.2041H7.80762L7.80566 20.2061L7.80469 20.2051C7.70668 20.2447 7.59601 20.2695 7.47852 20.2695C7.35869 20.2695 7.24495 20.2451 7.14551 20.2041C7.03483 20.1593 6.93972 20.0912 6.86426 20.0166C6.80616 19.9591 6.76142 19.894 6.72363 19.8281L6.70312 19.8076L6.67188 19.7344C6.62694 19.6276 6.60645 19.5156 6.60645 19.4033C6.60648 19.2849 6.63216 19.1734 6.67285 19.0752C6.71864 18.9621 6.78759 18.8659 6.86426 18.79C6.94723 18.708 7.04273 18.6482 7.13867 18.6064L7.15527 18.5986L7.17285 18.5928C7.25634 18.5653 7.36047 18.5391 7.48242 18.5391Z" fill="currentColor" style="fill:currentColor;fill:currentColor;fill-opacity:1;"/>
<path d="M24.415 18.5391C24.5048 18.5391 24.5907 18.5538 24.6699 18.5781L24.7471 18.6055L24.8203 18.6357L24.8311 18.6465C24.8558 18.6599 24.8794 18.6737 24.9014 18.6885L25.0205 18.7852L25.0283 18.792L25.0869 18.8564C25.1049 18.8783 25.1213 18.9009 25.1367 18.9238L25.2158 19.0654L25.2188 19.0723L25.2471 19.1494C25.2721 19.2289 25.2861 19.3159 25.2861 19.4062C25.2861 19.5291 25.2591 19.6383 25.2207 19.7334L25.2158 19.7461C25.1732 19.842 25.1114 19.9374 25.0283 20.0195L24.9824 20.0645L24.9512 20.0801C24.8907 20.1273 24.823 20.1713 24.7441 20.2031L24.7451 20.2041C24.6457 20.2451 24.5319 20.2695 24.4121 20.2695C24.2925 20.2695 24.1794 20.245 24.0801 20.2041C23.9984 20.1705 23.9275 20.1225 23.8643 20.0713L23.8574 20.0664L23.8242 20.0449L23.7959 20.0166C23.7364 19.9577 23.6866 19.8906 23.6475 19.8184L23.6367 19.8076L23.6064 19.7344C23.5615 19.6276 23.541 19.5157 23.541 19.4033C23.541 19.2845 23.5665 19.1727 23.6074 19.0742C23.6532 18.9617 23.7225 18.8656 23.7988 18.79C23.8563 18.7332 23.9209 18.6892 23.9863 18.6523L24.0186 18.6221L24.1055 18.5928C24.1999 18.5605 24.3032 18.5391 24.415 18.5391Z" fill="currentColor" style="fill:currentColor;fill:currentColor;fill-opacity:1;"/>
<path fill-rule="evenodd" clip-rule="evenodd" d="M29.2021 16.1826C29.3246 16.1826 29.442 16.202 29.5508 16.2354L29.6572 16.2734L29.6582 16.2744L29.7656 16.3242C29.8346 16.361 29.898 16.4047 29.957 16.4521L30.042 16.5264L30.0469 16.5303L30.0488 16.5332L30.1279 16.6191C30.1771 16.6787 30.2197 16.7422 30.2559 16.8086L30.3057 16.9102L30.3076 16.915L30.3457 17.0215C30.3798 17.1303 30.4003 17.2474 30.4004 17.3711V26.9844C30.4004 27.1479 30.365 27.3016 30.3076 27.4385C30.2538 27.5669 30.1768 27.6788 30.0908 27.7754C30.0873 27.7802 30.0826 27.7871 30.0762 27.7949L30.0488 27.8252L30.0469 27.8281L30.0459 27.8271C29.9375 27.9343 29.806 28.0253 29.6533 28.085L29.6523 28.084C29.5168 28.1386 29.3658 28.1728 29.2051 28.1729H22.0957C22.0903 28.1741 22.0848 28.1755 22.0791 28.1768L22.0703 28.1787C22.0033 28.1919 21.9419 28.1914 21.9248 28.1914C21.879 28.1914 21.8359 28.1865 21.8164 28.1846H21.8125C21.7893 28.182 21.7668 28.1776 21.7451 28.1729H10.2461C10.2408 28.1741 10.2352 28.1755 10.2295 28.1768L10.2217 28.1787C10.1542 28.1921 10.0918 28.1914 10.0752 28.1914C10.0295 28.1914 9.98717 28.1865 9.96777 28.1846H9.96387C9.94075 28.182 9.91811 28.1776 9.89648 28.1729H2.79785C2.64006 28.1729 2.48229 28.1431 2.33496 28.0791C2.20365 28.0241 2.08054 27.9435 1.97559 27.8428C1.96992 27.8378 1.96273 27.8338 1.95703 27.8281C1.95555 27.8267 1.95457 27.8247 1.95312 27.8232L1.875 27.7373C1.80076 27.6478 1.73975 27.5481 1.69434 27.4434L1.69531 27.4424C1.63113 27.2964 1.59962 27.1409 1.59961 26.9844V17.3711C1.59966 17.2127 1.63079 17.0568 1.69434 16.9102C1.75652 16.7646 1.84524 16.6383 1.94922 16.5322L1.95312 16.5283L1.99023 16.4951C1.99168 16.494 1.99359 16.4934 1.99512 16.4922C2.0957 16.4014 2.21193 16.3251 2.34277 16.2715C2.48561 16.2129 2.64008 16.1826 2.79785 16.1826H29.2021ZM30.0762 27.792C30.0776 27.7903 30.0798 27.7895 30.0811 27.7881C30.0818 27.7872 30.0823 27.786 30.083 27.7852C30.0808 27.7875 30.0784 27.7896 30.0762 27.792ZM2.18262 27.4824C2.19675 27.4995 2.21206 27.5155 2.22754 27.5312C2.19392 27.4971 2.16287 27.4599 2.13574 27.4199L2.18262 27.4824ZM3.2793 26.5029H9.23535V17.8525H3.2793V26.5029ZM22.7646 26.5029H28.7207V17.8525H22.7646V26.5029ZM10.915 26.501H21.085V20.8291H10.915V26.501ZM10.915 19.1572H21.085V17.8525H10.915V19.1572Z" fill="currentColor" style="fill:currentColor;fill:currentColor;fill-opacity:1;"/>
<path fill-rule="evenodd" clip-rule="evenodd" d="M7.0332 6.69824C7.15043 6.69824 7.26151 6.7223 7.35938 6.76172C7.4725 6.80647 7.57069 6.87526 7.64746 6.95117C7.72414 7.02702 7.79407 7.12316 7.83984 7.23633H7.83789C7.87863 7.33462 7.90527 7.44589 7.90527 7.56445C7.90527 7.68269 7.87844 7.7935 7.83789 7.8916L7.83984 7.89258C7.80666 7.9746 7.7612 8.04824 7.70801 8.1123L7.65234 8.17285L7.6377 8.1875C7.56411 8.25644 7.47303 8.31788 7.36523 8.36133L7.36621 8.3623C7.26677 8.40328 7.15303 8.42871 7.0332 8.42871C6.91085 8.42866 6.80138 8.40196 6.70605 8.36426C6.62118 8.33063 6.54541 8.28386 6.48047 8.23047L6.41992 8.17578L6.40723 8.16309C6.3371 8.08983 6.27359 8.00018 6.22949 7.89551C6.18766 7.7962 6.16216 7.68279 6.16211 7.5625C6.16211 7.44206 6.1876 7.32793 6.22949 7.22852L6.26074 7.15527L6.27148 7.14355C6.31379 7.06763 6.36499 7.00524 6.41211 6.95605L6.41992 6.94824C6.47761 6.89127 6.54272 6.84748 6.6084 6.81055L6.64355 6.77734L6.73535 6.74805C6.81141 6.72399 6.91439 6.69829 7.0332 6.69824Z" fill="currentColor" style="fill:currentColor;fill:currentColor;fill-opacity:1;"/>
<path fill-rule="evenodd" clip-rule="evenodd" d="M24.8848 6.69824C24.9744 6.69828 25.0604 6.71201 25.1396 6.73633L25.2168 6.76465L25.29 6.79395L25.3018 6.80566C25.3262 6.81899 25.3494 6.833 25.3711 6.84766L25.4902 6.94336L25.498 6.95117L25.5566 7.01465C25.5746 7.03649 25.591 7.05916 25.6064 7.08203L25.6855 7.22363L25.6885 7.23145L25.7168 7.30859C25.7417 7.38797 25.7559 7.4743 25.7559 7.56445C25.7559 7.68476 25.7303 7.79813 25.6885 7.89746L25.6572 7.9707L25.6445 7.98242C25.6185 8.02901 25.5892 8.07314 25.5557 8.11328L25.501 8.17285L25.4863 8.1875C25.4122 8.25693 25.3216 8.31912 25.2168 8.3623C25.1175 8.40324 25.0045 8.42867 24.8848 8.42871C24.7649 8.42871 24.6512 8.40328 24.5518 8.3623C24.4412 8.31756 24.3459 8.25033 24.2705 8.17578C24.1875 8.09366 24.1266 7.99822 24.084 7.90234L24.0801 7.89551C24.0385 7.79642 24.0127 7.6824 24.0127 7.5625C24.0127 7.43949 24.0396 7.32958 24.0781 7.23438L24.084 7.22168L24.1621 7.08008C24.193 7.03421 24.2291 6.99022 24.2705 6.94922L24.2803 6.93848C24.3364 6.88591 24.4026 6.83735 24.4785 6.79785L24.5576 6.76172C24.6557 6.7221 24.7672 6.69824 24.8848 6.69824ZM24.4492 7.74023C24.4743 7.79655 24.5085 7.8488 24.5518 7.8916L24.4941 7.82031C24.4771 7.795 24.4617 7.76836 24.4492 7.74023Z" fill="currentColor" style="fill:currentColor;fill:currentColor;fill-opacity:1;"/>
<path fill-rule="evenodd" clip-rule="evenodd" d="M29.1182 4.39062C29.2746 4.39062 29.43 4.42156 29.5762 4.48438L29.5771 4.4834C29.7172 4.54274 29.8493 4.62895 29.96 4.73828L29.9648 4.74316L30.043 4.8291C30.1178 4.91946 30.1799 5.02164 30.2246 5.13086C30.2813 5.26703 30.3154 5.41959 30.3154 5.58203V10.8701C30.3154 11.0272 30.2841 11.1815 30.2217 11.3271L30.2227 11.3281C30.1605 11.4751 30.0715 11.6021 29.9668 11.709L29.9443 11.7324L29.9189 11.751L29.9102 11.7578C29.8119 11.8447 29.6998 11.9188 29.5732 11.9707C29.4359 12.027 29.2817 12.0615 29.1182 12.0615H21.6074C21.3467 12.0613 21.1484 11.849 21.1484 11.6025V6.06055H18.1338V7.0625L20.8359 10.1025L20.8896 10.1689C21.0045 10.3281 21.0574 10.5186 21.0459 10.708C21.0325 10.9237 20.9338 11.1308 20.7637 11.2822L20.7236 11.3174L20.6924 11.333C20.6388 11.3712 20.5761 11.409 20.501 11.4355L20.502 11.4365C20.5008 11.437 20.4992 11.4361 20.498 11.4365C20.4941 11.4379 20.4904 11.4411 20.4863 11.4424L20.4854 11.4404C20.3952 11.4722 20.3015 11.4893 20.2109 11.4893H11.791C11.5618 11.4892 11.3479 11.3954 11.1963 11.2412C11.0489 11.0933 10.9512 10.8863 10.9512 10.6543C10.9512 10.5336 10.9772 10.4193 11.0244 10.3154L11.0654 10.2363C11.1043 10.1694 11.1526 10.109 11.208 10.0557L13.9824 7.05566V6.06055H10.915V11.5957C10.915 11.8645 10.6945 12.0547 10.4561 12.0547H2.79785C2.64232 12.0547 2.48729 12.025 2.3418 11.9629C2.34059 11.9624 2.33909 11.9624 2.33789 11.9619L2.33496 11.9609C2.19024 11.9 2.06447 11.813 1.95801 11.7109L1.95312 11.707C1.84447 11.5995 1.7589 11.4703 1.69824 11.3301L1.69727 11.3311C1.6471 11.2207 1.61715 11.104 1.60547 10.9863L1.59961 10.8682V5.58008C1.59961 5.42172 1.63087 5.26575 1.69434 5.11914C1.75254 4.97779 1.83914 4.85471 1.94336 4.75098C1.94813 4.74572 1.95168 4.73869 1.95703 4.7334C1.96865 4.72192 1.9837 4.70873 2.00195 4.69531C2.09931 4.60908 2.21077 4.53635 2.33594 4.48438C2.48306 4.42202 2.63939 4.39062 2.79785 4.39062H29.1182ZM2.18262 11.3662C2.19897 11.386 2.21625 11.4049 2.23438 11.4229C2.19793 11.3868 2.16479 11.3468 2.13574 11.3037L2.18262 11.3662ZM3.2793 10.3867H9.23535L9.2334 6.06055H3.2793V10.3867ZM22.8281 10.3867H28.6387V6.06055H22.8281V10.3867ZM15.6621 7.37793C15.6621 7.3883 15.6601 7.41455 15.6543 7.4502C15.648 7.51997 15.633 7.59616 15.6035 7.67285L15.6055 7.67383C15.5659 7.7813 15.5056 7.86926 15.4434 7.93848L15.4395 7.94238L13.7031 9.81934H18.3438L16.6738 7.94141L16.6748 7.93945C16.6115 7.87062 16.5536 7.78747 16.5146 7.69336C16.474 7.59503 16.4522 7.4864 16.4521 7.37793V6.06055H15.6621V7.37793ZM16.8838 7.54004C16.9043 7.58961 16.9362 7.63747 16.9727 7.67578L16.9229 7.6123C16.9076 7.58938 16.8941 7.56497 16.8838 7.54004ZM29.9111 5.50391C29.9138 5.529 29.916 5.55438 29.916 5.58008C29.9159 5.52771 29.9099 5.47636 29.8994 5.42676L29.9111 5.50391Z" fill="currentColor" style="fill:currentColor;fill:currentColor;fill-opacity:1;"/>
</svg>
