<svg width="33" height="32" viewBox="0 0 33 32" fill="none" xmlns="http://www.w3.org/2000/svg">
<path d="M5.21802 4.94727V6.53212L17.4102 18.7586C17.7495 19.099 18.068 19.2006 18.3582 19.1911C18.6485 19.1816 18.926 19.0471 19.135 18.8312C19.553 18.3993 19.7103 17.7326 19.0718 17.0923L6.96086 4.94727H5.21802ZM24.0798 14.2284C23.6781 14.2245 23.2572 14.273 22.8277 14.3683L23.2579 15.1684C23.5366 15.1191 23.802 15.0945 24.051 15.0957C24.7637 15.0991 25.3449 15.3072 25.7436 15.707C26.3815 16.3467 26.5301 17.4551 26.1361 18.822C26.1096 18.9139 26.0805 19.0067 26.0491 19.1003L25.0234 16.6646L24.6041 19.7917L23.0506 17.6427L22.9781 20.3828L21.2222 19.5316C21.7568 18.8473 22.1369 18.1268 22.336 17.4359C22.6091 16.4886 22.5443 15.538 21.9304 14.9223C21.5467 14.5375 21.0324 14.3678 20.4701 14.3615C20.1327 14.3577 19.778 14.4128 19.4238 14.5155C19.0333 14.6286 18.6335 14.8007 18.236 15.0254L18.877 15.6681C19.1481 15.5298 19.4134 15.4227 19.6643 15.3499C19.9514 15.2667 20.2116 15.2279 20.4413 15.2284C20.824 15.2294 21.1217 15.3397 21.3179 15.5364C21.6318 15.8512 21.7252 16.4269 21.5039 17.1948C21.2825 17.9627 20.7474 18.8639 19.9519 19.6615C19.1564 20.4593 18.2577 20.996 17.492 21.2179C16.7262 21.4399 16.1523 21.3463 15.8385 21.0314C15.5246 20.7167 15.4311 20.1411 15.6525 19.3732C15.7273 19.1133 15.839 18.8381 15.9837 18.5568L15.3433 17.9148C15.112 18.322 14.9357 18.732 14.8204 19.132C14.5473 20.0795 14.6119 21.03 15.2259 21.6458C15.8399 22.2614 16.7878 22.3262 17.7325 22.0524C18.4151 21.8545 19.1266 21.4785 19.8034 20.9501L20.7001 22.8101L17.7926 22.8874L19.9356 24.4454L16.8175 24.8659L19.1473 25.8526C19.1368 25.8557 19.1261 25.8591 19.1157 25.8622C17.7527 26.2572 16.6473 26.1082 16.0094 25.4685C15.4715 24.9291 15.2815 24.0563 15.4714 22.9764L14.6741 22.5453C14.3685 23.9321 14.5467 25.2304 15.3967 26.0828C16.3347 27.0235 17.8141 27.1438 19.3562 26.6968C20.8983 26.2499 22.5618 25.2347 24.0361 23.7563C25.5103 22.2779 26.5226 20.6096 26.9683 19.0632C27.414 17.5168 27.2941 16.0332 26.3561 15.0925C25.7699 14.5046 24.972 14.2371 24.0797 14.2284L24.0798 14.2284Z" fill="currentColor" style="fill:currentColor;fill:currentColor;fill-opacity:1;"/>
</svg>
