<svg width="33" height="32" viewBox="0 0 33 32" fill="none" xmlns="http://www.w3.org/2000/svg">
<path d="M28.2461 5.58167C28.2461 5.14993 28.0568 4.73568 27.7202 4.43039C27.3836 4.1251 26.9269 3.95347 26.4508 3.95347H6.34897C5.87294 3.95347 5.41619 4.1251 5.07959 4.43039C4.74299 4.73567 4.55375 5.14993 4.55375 5.58167V26.4183C4.55375 26.8501 4.74299 27.2643 5.07959 27.5696C5.41618 27.8748 5.87303 28.0465 6.34897 28.0465H26.4508C26.9268 28.0465 27.3836 27.8748 27.7202 27.5696C28.0568 27.2643 28.2461 26.8501 28.2461 26.4183V5.58167ZM30.3999 26.4183C30.3999 27.3682 29.9836 28.2791 29.2431 28.9508C28.5025 29.6223 27.498 30 26.4508 30H6.34897C5.30179 30 4.29726 29.6223 3.55675 28.9508C2.81623 28.2791 2.3999 27.3682 2.3999 26.4183V5.58167C2.3999 4.63184 2.81623 3.72086 3.55675 3.04922C4.29728 2.37759 5.30171 2 6.34897 2H26.4508C27.4981 2 28.5025 2.37759 29.2431 3.04922C29.9836 3.72086 30.3999 4.63184 30.3999 5.58167V26.4183Z" fill="currentColor" style="fill:currentColor;fill:currentColor;fill-opacity:1;"/>
<path d="M8.979 20.4902C9.36534 20.5315 9.64965 20.8716 9.6499 21.2617L9.65576 21.3945C9.68472 21.7019 9.81445 21.9896 10.021 22.207L10.1128 22.2939C10.3357 22.4863 10.6136 22.5918 10.8999 22.5918L10.979 22.5957C11.3655 22.637 11.6499 22.9778 11.6499 23.3682L11.6353 23.5205C11.5724 23.8435 11.3141 24.1048 10.979 24.1406L10.8999 24.1445C10.258 24.1445 9.64165 23.9089 9.15283 23.4873L8.95068 23.2949C8.50112 22.8214 8.22559 22.2024 8.16357 21.5459L8.1499 21.2627C8.1499 20.8462 8.47371 20.4854 8.8999 20.4854L8.979 20.4902Z" fill="currentColor" style="fill:currentColor;fill:currentColor;fill-opacity:1;"/>
<path fill-rule="evenodd" clip-rule="evenodd" d="M11.1294 16.2803H11.1362L11.356 16.2969C12.4522 16.4078 13.4812 16.9169 14.2632 17.7402L14.4253 17.9189C15.2127 18.8345 15.6499 20.0263 15.6499 21.2627L15.644 21.5088C15.59 22.656 15.16 23.7501 14.4253 24.6045L14.2632 24.7842C13.4292 25.6622 12.314 26.1816 11.1362 26.2432L11.1304 26.2441L10.9067 26.25H10.8999C9.71472 26.25 8.57715 25.7851 7.70654 24.9551L7.53662 24.7842C6.75508 23.9612 6.2759 22.8827 6.17139 21.7383L6.15576 21.5088L6.15479 21.5029L6.15576 21.502L6.1499 21.2676V21.2627L6.15576 21.0156C6.21366 19.7864 6.70308 18.618 7.53662 17.7402L7.70654 17.5693C8.57722 16.7392 9.71468 16.2744 10.8999 16.2744H10.9058L11.1294 16.2803ZM10.897 17.8271C10.094 17.8279 9.31931 18.1427 8.72314 18.7109L8.60596 18.8281C7.99502 19.4714 7.6499 20.3476 7.6499 21.2627L7.65381 21.4326L7.68311 21.75C7.78272 22.4839 8.10488 23.1676 8.60596 23.6953L8.72314 23.8125C9.31916 24.3807 10.0933 24.6953 10.896 24.6963L11.0669 24.6924C11.8639 24.6491 12.6229 24.2964 13.1938 23.6953L13.3052 23.5723C13.8464 22.9429 14.1498 22.1203 14.1499 21.2627L14.146 21.0908C14.1084 20.2954 13.8102 19.5396 13.3052 18.9521L13.1938 18.8281C12.6213 18.2254 11.8595 17.8728 11.0601 17.8311L10.897 17.8271Z" fill="currentColor" style="fill:currentColor;fill:currentColor;fill-opacity:1;"/>
<path d="M19.979 20.4902C20.3653 20.5315 20.6497 20.8716 20.6499 21.2617L20.6558 21.3945C20.6847 21.7019 20.8144 21.9896 21.021 22.207L21.1128 22.2939C21.3357 22.4863 21.6136 22.5918 21.8999 22.5918L21.979 22.5957C22.3655 22.637 22.6499 22.9778 22.6499 23.3682L22.6353 23.5205C22.5724 23.8435 22.3141 24.1048 21.979 24.1406L21.8999 24.1445C21.258 24.1445 20.6416 23.9089 20.1528 23.4873L19.9507 23.2949C19.5011 22.8214 19.2256 22.2024 19.1636 21.5459L19.1499 21.2627C19.1499 20.8462 19.4737 20.4854 19.8999 20.4854L19.979 20.4902Z" fill="currentColor" style="fill:currentColor;fill:currentColor;fill-opacity:1;"/>
<path fill-rule="evenodd" clip-rule="evenodd" d="M22.1294 16.2803H22.1362L22.356 16.2969C23.4522 16.4078 24.4812 16.9169 25.2632 17.7402L25.4253 17.9189C26.2127 18.8345 26.6499 20.0263 26.6499 21.2627L26.644 21.5088C26.59 22.656 26.16 23.7501 25.4253 24.6045L25.2632 24.7842C24.4292 25.6622 23.314 26.1816 22.1362 26.2432L22.1304 26.2441L21.9067 26.25H21.8999C20.7147 26.25 19.5772 25.7851 18.7065 24.9551L18.5366 24.7842C17.7551 23.9612 17.2759 22.8827 17.1714 21.7383L17.1558 21.5088L17.1548 21.5029L17.1558 21.502L17.1499 21.2676V21.2627L17.1558 21.0156C17.2137 19.7864 17.7031 18.618 18.5366 17.7402L18.7065 17.5693C19.5772 16.7392 20.7147 16.2744 21.8999 16.2744H21.9058L22.1294 16.2803ZM21.897 17.8271C21.094 17.8279 20.3193 18.1427 19.7231 18.7109L19.606 18.8281C18.995 19.4714 18.6499 20.3476 18.6499 21.2627L18.6538 21.4326L18.6831 21.75C18.7827 22.4839 19.1049 23.1676 19.606 23.6953L19.7231 23.8125C20.3192 24.3807 21.0933 24.6953 21.896 24.6963L22.0669 24.6924C22.8639 24.6491 23.6229 24.2964 24.1938 23.6953L24.3052 23.5723C24.8464 22.9429 25.1498 22.1203 25.1499 21.2627L25.146 21.0908C25.1084 20.2954 24.8102 19.5396 24.3052 18.9521L24.1938 18.8281C23.6213 18.2254 22.8595 17.8728 22.0601 17.8311L21.897 17.8271Z" fill="currentColor" style="fill:currentColor;fill:currentColor;fill-opacity:1;"/>
<path d="M8.979 9.49023C9.36534 9.53151 9.64965 9.8716 9.6499 10.2617L9.65576 10.3945C9.68472 10.7019 9.81445 10.9896 10.021 11.207L10.1128 11.2939C10.3357 11.4863 10.6136 11.5918 10.8999 11.5918L10.979 11.5957C11.3655 11.637 11.6499 11.9778 11.6499 12.3682L11.6353 12.5205C11.5724 12.8435 11.3141 13.1048 10.979 13.1406L10.8999 13.1445C10.258 13.1445 9.64165 12.9089 9.15283 12.4873L8.95068 12.2949C8.50112 11.8214 8.22559 11.2024 8.16357 10.5459L8.1499 10.2627C8.1499 9.84618 8.47371 9.48535 8.8999 9.48535L8.979 9.49023Z" fill="currentColor" style="fill:currentColor;fill:currentColor;fill-opacity:1;"/>
<path fill-rule="evenodd" clip-rule="evenodd" d="M11.1294 5.28027H11.1362L11.356 5.29688C12.4522 5.40783 13.4812 5.91692 14.2632 6.74023L14.4253 6.91895C15.2127 7.83451 15.6499 9.02629 15.6499 10.2627L15.644 10.5088C15.59 11.656 15.16 12.7501 14.4253 13.6045L14.2632 13.7842C13.4292 14.6622 12.314 15.1816 11.1362 15.2432L11.1304 15.2441L10.9067 15.25H10.8999C9.71472 15.25 8.57715 14.7851 7.70654 13.9551L7.53662 13.7842C6.75508 12.9612 6.2759 11.8827 6.17139 10.7383L6.15576 10.5088L6.15479 10.5029L6.15576 10.502L6.1499 10.2676V10.2627L6.15576 10.0156C6.21366 8.78643 6.70308 7.61797 7.53662 6.74023L7.70654 6.56934C8.57722 5.73915 9.71468 5.27441 10.8999 5.27441H10.9058L11.1294 5.28027ZM10.897 6.82715C10.094 6.82791 9.31931 7.14273 8.72314 7.71094L8.60596 7.82812C7.99502 8.47139 7.6499 9.34764 7.6499 10.2627L7.65381 10.4326L7.68311 10.75C7.78272 11.4839 8.10488 12.1676 8.60596 12.6953L8.72314 12.8125C9.31916 13.3807 10.0933 13.6953 10.896 13.6963L11.0669 13.6924C11.8639 13.6491 12.6229 13.2964 13.1938 12.6953L13.3052 12.5723C13.8464 11.9429 14.1498 11.1203 14.1499 10.2627L14.146 10.0908C14.1084 9.29537 13.8102 8.53962 13.3052 7.95215L13.1938 7.82812C12.6213 7.22543 11.8595 6.87276 11.0601 6.83105L10.897 6.82715Z" fill="currentColor" style="fill:currentColor;fill:currentColor;fill-opacity:1;"/>
<path d="M19.979 9.49023C20.3653 9.53151 20.6497 9.8716 20.6499 10.2617L20.6558 10.3945C20.6847 10.7019 20.8144 10.9896 21.021 11.207L21.1128 11.2939C21.3357 11.4863 21.6136 11.5918 21.8999 11.5918L21.979 11.5957C22.3655 11.637 22.6499 11.9778 22.6499 12.3682L22.6353 12.5205C22.5724 12.8435 22.3141 13.1048 21.979 13.1406L21.8999 13.1445C21.258 13.1445 20.6416 12.9089 20.1528 12.4873L19.9507 12.2949C19.5011 11.8214 19.2256 11.2024 19.1636 10.5459L19.1499 10.2627C19.1499 9.84618 19.4737 9.48535 19.8999 9.48535L19.979 9.49023Z" fill="currentColor" style="fill:currentColor;fill:currentColor;fill-opacity:1;"/>
<path fill-rule="evenodd" clip-rule="evenodd" d="M22.1294 5.28027H22.1362L22.356 5.29688C23.4522 5.40783 24.4812 5.91692 25.2632 6.74023L25.4253 6.91895C26.2127 7.83451 26.6499 9.02629 26.6499 10.2627L26.644 10.5088C26.59 11.656 26.16 12.7501 25.4253 13.6045L25.2632 13.7842C24.4292 14.6622 23.314 15.1816 22.1362 15.2432L22.1304 15.2441L21.9067 15.25H21.8999C20.7147 15.25 19.5772 14.7851 18.7065 13.9551L18.5366 13.7842C17.7551 12.9612 17.2759 11.8827 17.1714 10.7383L17.1558 10.5088L17.1548 10.5029L17.1558 10.502L17.1499 10.2676V10.2627L17.1558 10.0156C17.2137 8.78643 17.7031 7.61797 18.5366 6.74023L18.7065 6.56934C19.5772 5.73915 20.7147 5.27441 21.8999 5.27441H21.9058L22.1294 5.28027ZM21.897 6.82715C21.094 6.82791 20.3193 7.14273 19.7231 7.71094L19.606 7.82812C18.995 8.47139 18.6499 9.34764 18.6499 10.2627L18.6538 10.4326L18.6831 10.75C18.7827 11.4839 19.1049 12.1676 19.606 12.6953L19.7231 12.8125C20.3192 13.3807 21.0933 13.6953 21.896 13.6963L22.0669 13.6924C22.8639 13.6491 23.6229 13.2964 24.1938 12.6953L24.3052 12.5723C24.8464 11.9429 25.1498 11.1203 25.1499 10.2627L25.146 10.0908C25.1084 9.29537 24.8102 8.53962 24.3052 7.95215L24.1938 7.82812C23.6213 7.22543 22.8595 6.87276 22.0601 6.83105L21.897 6.82715Z" fill="currentColor" style="fill:currentColor;fill:currentColor;fill-opacity:1;"/>
</svg>
