<svg width="33" height="32" viewBox="0 0 33 32" fill="none" xmlns="http://www.w3.org/2000/svg">
<g clip-path="url(#clip0_2989_44034)">
<path fill-rule="evenodd" clip-rule="evenodd" d="M19.3986 0.318237C19.7678 -0.0446525 20.3475 -0.0628712 20.7375 0.260619L20.8127 0.329955L21.0216 0.555541C21.9315 1.59923 22.1434 2.73141 22.0861 3.79773C22.8145 3.13662 24.0774 2.62861 25.2257 3.45203L25.3058 3.51648C25.4131 3.61127 25.4953 3.7253 25.5519 3.84949C25.6016 3.90215 25.6519 3.95765 25.6955 4.02234L25.7521 4.11511L25.882 4.37195C26.1482 4.97349 26.1641 5.59202 25.964 6.15417C25.8364 6.51252 25.6306 6.81887 25.3888 7.07312C25.8004 7.19705 26.0998 7.57919 26.0998 8.03113C26.0997 8.54877 25.7064 8.97492 25.2023 9.02624L25.0998 9.03113H20.0998C19.8322 9.03102 19.5897 8.92508 19.4103 8.75378C19.0406 8.83248 18.649 8.89082 18.255 8.93152C17.8897 8.96925 17.5058 8.99279 17.1125 9.00867C17.0713 9.88734 17.1323 10.7436 17.2423 11.5731C18.6233 10.6668 20.2188 10.9827 21.1867 11.8837C21.7466 12.405 22.1429 13.1672 22.0959 14.0262C22.0502 14.8583 21.5992 15.6064 20.8293 16.1727L20.6711 16.2841C19.7973 16.8667 18.9157 17.1492 18.088 16.9862C17.9358 16.9562 17.7935 16.912 17.6603 16.8573C17.5727 16.9168 17.4751 16.9634 17.3683 16.993C17.1346 17.6154 17.2122 18.3505 17.4435 19.1708C17.567 19.6087 17.6968 19.9637 17.8263 20.3446C18.0485 20.5802 18.1474 20.9149 18.0754 21.243C18.1015 21.4132 18.1303 21.7086 18.0226 22.0165L17.963 22.1571C16.7217 24.6799 16.9486 27.4207 17.8254 30.1532L18.0099 30.6991L18.0382 30.7977C18.1572 31.2904 17.8861 31.8028 17.3976 31.9745C16.9094 32.1458 16.3768 31.9163 16.1613 31.4579L16.1232 31.3632L16.1095 31.3251C16.022 31.6071 15.8118 31.8482 15.5148 31.9628C15.0318 32.1489 14.493 31.9354 14.2638 31.4833L14.2218 31.3905L14.1789 31.2587C14.0912 30.9452 14.0945 30.5908 14.1047 30.3348C14.1185 29.9856 14.1621 29.5694 14.2238 29.1219C14.3477 28.2233 14.5544 27.1218 14.7882 26.0194C15.1787 24.1789 15.6653 22.2433 15.9972 21.1766C15.9964 21.1741 15.9961 21.1714 15.9953 21.1688C15.8892 20.8438 15.674 20.2677 15.5177 19.7137C15.1984 18.5811 14.9315 16.9403 15.9162 15.4735L15.9455 15.4335L15.7492 14.536C15.4028 12.9571 15.0366 11.0386 15.1134 9.01453C13.6337 8.96935 12.1659 8.82894 11.1252 8.66003L10.6691 8.57898C10.1965 8.4864 9.69303 8.35871 9.25895 8.25769C8.91773 8.17829 8.59877 8.11026 8.29606 8.06433L7.99723 8.02624L7.89664 8.01062C7.40034 7.90815 7.05185 7.44357 7.10465 6.92859C7.15769 6.4138 7.59314 6.03069 8.09977 6.03113L8.20231 6.03601L8.59196 6.08581C8.97921 6.14441 9.35805 6.22707 9.71207 6.30945C10.2053 6.42423 10.6268 6.53244 11.0539 6.61609L11.4572 6.68835C12.4787 6.85341 14.031 6.99917 15.5763 7.02624C16.4554 7.04163 17.3119 7.01849 18.05 6.94226C18.6926 6.87584 19.1878 6.77309 19.5216 6.65417L19.5519 6.47546C19.6298 6.06165 19.7298 5.6539 19.8166 5.28601C19.9373 4.77365 20.0371 4.31875 20.0793 3.88367C20.1536 3.11616 20.0461 2.47304 19.5011 1.85535L19.3869 1.7323L19.3185 1.65515C19.002 1.25981 19.0299 0.681109 19.3986 0.318237ZM19.8234 13.3475C19.5336 13.078 19.0678 12.9201 18.5724 13.1259C18.5193 13.2038 18.4549 13.2761 18.3781 13.3387C18.2971 13.4047 18.1728 13.5881 18.1213 13.911C18.0712 14.2247 18.1128 14.5405 18.2111 14.7587C18.3025 14.9615 18.4011 15.0087 18.4748 15.0233C18.582 15.0444 18.9203 15.0477 19.5617 14.62L19.716 14.5067C20.0378 14.2483 20.0925 14.0303 20.0988 13.9169C20.1075 13.7588 20.0353 13.5448 19.8234 13.3475ZM24.0558 5.39343C23.9055 5.42319 23.7465 5.472 23.6134 5.52527C23.5484 5.55134 23.497 5.57524 23.4621 5.59363C23.4409 5.6048 23.4308 5.61121 23.4308 5.61121L23.3703 5.65515C23.2912 5.70655 23.2061 5.74371 23.1193 5.77038C23.116 5.78296 23.1119 5.7955 23.1095 5.80749C23.0887 5.91253 23.1043 5.97411 23.1339 6.02234C23.1489 6.02612 23.1756 6.03138 23.2189 6.03113C23.3583 6.03015 23.5604 5.97532 23.7502 5.85242C23.9391 5.72997 24.0417 5.58851 24.0793 5.48328C24.0886 5.45707 24.094 5.42573 24.0959 5.38757C24.0833 5.38977 24.0694 5.39075 24.0558 5.39343Z" fill="currentColor" style="fill:currentColor;fill:currentColor;fill-opacity:1;"/>
</g>
<defs>
<clipPath id="clip0_2989_44034">
<rect width="32" height="32" fill="currentColor" style="fill:currentColor;fill-opacity:1;" transform="translate(0.600098)"/>
</clipPath>
</defs>
</svg>
