<svg width="33" height="32" viewBox="0 0 33 32" fill="none" xmlns="http://www.w3.org/2000/svg">
<path d="M27.7998 13H5.7998V23.7334C5.7998 24.4966 5.80078 25.0088 5.83301 25.4033C5.86428 25.7861 5.91996 25.9691 5.98145 26.0898L6.0459 26.2051C6.20604 26.466 6.43574 26.6787 6.70996 26.8184L6.81445 26.8633C6.9348 26.9064 7.10956 26.9434 7.39648 26.9668C7.79097 26.999 8.30322 27 9.06641 27H24.5332C25.2964 27 25.8086 26.999 26.2031 26.9668C26.5859 26.9355 26.7689 26.8798 26.8896 26.8184L27.0049 26.7539C27.2658 26.5938 27.4785 26.3641 27.6182 26.0898L27.6631 25.9854C27.7062 25.865 27.7432 25.6902 27.7666 25.4033C27.7988 25.0088 27.7998 24.4966 27.7998 23.7334V13ZM11.4668 21.667L11.5684 21.6719C12.0728 21.7229 12.4668 22.1491 12.4668 22.667C12.4666 23.1847 12.0727 23.6101 11.5684 23.6611L11.4668 23.667H8.7998C8.24763 23.667 7.79998 23.2191 7.7998 22.667C7.7998 22.1147 8.24752 21.667 8.7998 21.667H11.4668ZM18.1328 21.667L18.2354 21.6719C18.7396 21.7231 19.1328 22.1492 19.1328 22.667C19.1326 23.1846 18.7395 23.6099 18.2354 23.6611L18.1328 23.667H15.4668C14.9146 23.667 14.467 23.2191 14.4668 22.667C14.4668 22.1147 14.9145 21.667 15.4668 21.667H18.1328ZM24.7998 21.667C25.3521 21.667 25.7998 22.1147 25.7998 22.667C25.7996 23.2191 25.352 23.667 24.7998 23.667H22.1328C21.5808 23.6668 21.133 23.219 21.1328 22.667C21.1328 22.1148 21.5807 21.6672 22.1328 21.667H24.7998ZM11.4668 16.333C12.0188 16.3332 12.4666 16.781 12.4668 17.333C12.4668 17.8852 12.0189 18.3328 11.4668 18.333H8.7998C8.24752 18.333 7.7998 17.8853 7.7998 17.333C7.79998 16.7809 8.24763 16.333 8.7998 16.333H11.4668ZM18.1328 16.333C18.685 16.333 19.1326 16.7809 19.1328 17.333C19.1328 17.8853 18.6851 18.333 18.1328 18.333H15.4668C14.9145 18.333 14.4668 17.8853 14.4668 17.333C14.467 16.7809 14.9146 16.333 15.4668 16.333H18.1328ZM24.7998 16.333L24.9023 16.3389C25.4063 16.3902 25.7996 16.8155 25.7998 17.333C25.7998 17.8507 25.4065 18.2768 24.9023 18.3281L24.7998 18.333H22.1328C21.5807 18.3328 21.1328 17.8852 21.1328 17.333C21.133 16.781 21.5808 16.3332 22.1328 16.333H24.7998ZM27.7998 10.9336C27.7998 10.1706 27.7988 9.65813 27.7666 9.26367C27.7354 8.88122 27.6796 8.69789 27.6182 8.57715V8.57617C27.4785 8.30214 27.2657 8.07316 27.0049 7.91309L26.8896 7.84863C26.7689 7.78712 26.586 7.7305 26.2031 7.69922C25.8086 7.667 25.2963 7.66699 24.5332 7.66699H9.06641C8.30326 7.66699 7.79097 7.66699 7.39648 7.69922C7.10948 7.72267 6.93481 7.76061 6.81445 7.80371L6.70996 7.84863C6.43558 7.98843 6.20602 8.20086 6.0459 8.46191L5.98145 8.57715C5.92 8.6979 5.86426 8.88123 5.83301 9.26367C5.8008 9.65813 5.7998 10.1706 5.7998 10.9336V11H27.7998V10.9336ZM29.7998 23.7334C29.7998 24.4636 29.8002 25.0716 29.7598 25.5664C29.7235 26.0096 29.6507 26.429 29.4795 26.8281L29.4004 26.998C29.0928 27.6019 28.6244 28.1067 28.0498 28.459L27.7979 28.6006C27.3482 28.8297 26.8726 28.9186 26.3662 28.96C25.8714 29.0004 25.2634 29 24.5332 29H9.06641C8.3362 29 7.72823 29.0004 7.2334 28.96C6.79025 28.9237 6.37084 28.8509 5.97168 28.6797L5.80176 28.6006C5.1981 28.2931 4.69308 27.8252 4.34082 27.251L4.19922 26.998C3.97013 26.5484 3.88123 26.0728 3.83984 25.5664C3.79941 25.0716 3.7998 24.4636 3.7998 23.7334V10.9336C3.7998 10.2034 3.79942 9.5954 3.83984 9.10059C3.88122 8.59418 3.9702 8.11854 4.19922 7.66895L4.34082 7.41602C4.69309 6.84171 5.19814 6.37398 5.80176 6.06641L5.97168 5.98633C6.37079 5.8152 6.79031 5.74227 7.2334 5.70605C7.72822 5.66563 8.3362 5.66699 9.06641 5.66699H9.13281V4C9.13281 3.44782 9.58068 3.00018 10.1328 3C10.6851 3 11.1328 3.44772 11.1328 4V5.66699H22.4668V4C22.4668 3.44772 22.9145 3 23.4668 3C24.0189 3.00018 24.4668 3.44782 24.4668 4V5.66699H24.5332C25.2634 5.66699 25.8714 5.66563 26.3662 5.70605C26.8727 5.74744 27.3482 5.83728 27.7979 6.06641L28.0508 6.20801C28.6249 6.56027 29.0929 7.06531 29.4004 7.66895L29.4795 7.83887C29.6506 8.23801 29.7236 8.65746 29.7598 9.10059C29.8002 9.59541 29.7998 10.2034 29.7998 10.9336V23.7334Z" fill="currentColor" style="fill:currentColor;fill:currentColor;fill-opacity:1;"/>
</svg>
