<svg width="32" height="32" viewBox="0 0 32 32" fill="none" xmlns="http://www.w3.org/2000/svg">
<path fill-rule="evenodd" clip-rule="evenodd" d="M3.76172 8.14342C5.48313 8.14387 6.88178 9.53406 6.88184 11.2528V23.4471C6.88184 23.9718 7.3115 24.4022 7.8418 24.4022H28.9209C29.516 24.4025 30.001 24.8838 30.001 25.4803C30.0008 26.0767 29.5159 26.5572 28.9209 26.5575H26.9971C27.1762 26.8322 27.2812 27.16 27.2812 27.5126C27.2811 28.4829 26.4918 29.2671 25.5215 29.2674C24.5509 29.2674 23.7618 28.4831 23.7617 27.5126C23.7617 27.1599 23.8666 26.8323 24.0459 26.5575H12.0371C12.2162 26.8322 12.3213 27.16 12.3213 27.5126C12.3212 28.4829 11.5318 29.2671 10.5615 29.2674C9.59097 29.2674 8.80187 28.4831 8.80176 27.5126C8.80176 27.1599 8.90667 26.8323 9.08594 26.5575H7.8418C6.11996 26.5575 4.72168 25.1662 4.72168 23.4471V11.2528C4.72162 10.7284 4.29159 10.2982 3.76172 10.2977H3.08105C2.48591 10.2975 2.00006 9.81714 2 9.22057C2 8.62395 2.48588 8.14359 3.08105 8.14342H3.76172ZM10.5605 28.8661L10.5615 28.8671C10.607 28.867 10.652 28.8646 10.6963 28.8602C10.6517 28.8646 10.6063 28.8661 10.5605 28.8661ZM25.5205 28.8661L25.5215 28.8671C25.567 28.867 25.6119 28.8646 25.6562 28.8602C25.6117 28.8646 25.5662 28.8661 25.5205 28.8661ZM9.22461 27.7694C9.23351 27.8156 9.24531 27.8608 9.25879 27.9051C9.23401 27.8235 9.21693 27.7386 9.20801 27.6512L9.22461 27.7694ZM24.1846 27.7694C24.1935 27.8156 24.2053 27.8608 24.2188 27.9051C24.194 27.8235 24.1769 27.7386 24.168 27.6512L24.1846 27.7694ZM26.8809 27.5126C26.8809 27.5594 26.8787 27.6056 26.874 27.6512L26.8809 27.5126ZM9.43262 26.7547C9.42862 26.7607 9.42579 26.7673 9.42188 26.7733C9.44977 26.7307 9.47932 26.6893 9.51172 26.6503L9.43262 26.7547ZM24.3926 26.7547C24.3886 26.7607 24.3857 26.7673 24.3818 26.7733C24.4097 26.7307 24.4393 26.6893 24.4717 26.6503L24.3926 26.7547ZM25.2471 26.1844C25.1584 26.2025 25.0727 26.2291 24.9912 26.2635L25.1162 26.2186C25.2015 26.1922 25.2903 26.1732 25.3818 26.1639L25.2471 26.1844ZM10.2871 26.1844C10.1984 26.2025 10.1128 26.2291 10.0312 26.2635C10.1533 26.2121 10.2846 26.1778 10.4219 26.1639L10.2871 26.1844ZM10.5605 26.1571C10.7458 26.1571 10.923 26.1938 11.084 26.2606C10.9639 26.2107 10.8349 26.1776 10.7002 26.1639L10.5605 26.1571ZM25.5205 26.1571C25.7055 26.1571 25.8822 26.194 26.043 26.2606C25.923 26.2109 25.7945 26.1775 25.6602 26.1639L25.5205 26.1571ZM29.1709 26.1083C29.0933 26.1389 29.0094 26.1571 28.9209 26.1571L29.0586 26.1434C29.0976 26.1354 29.1347 26.1225 29.1709 26.1083ZM29.6006 25.4803C29.6005 25.5679 29.5821 25.6507 29.5518 25.7274C29.566 25.6914 29.58 25.6548 29.5879 25.6161L29.6006 25.4803ZM6.48047 23.4471C6.48047 23.4799 6.48402 23.5126 6.48633 23.5448L6.48047 23.4471ZM5.11328 11.1141C5.11796 11.1597 5.12109 11.206 5.12109 11.2528C5.12109 11.1595 5.11091 11.0684 5.09277 10.9803L5.11328 11.1141ZM4.8877 10.496C4.91212 10.5319 4.93512 10.569 4.95605 10.6073L4.8877 10.496C4.86313 10.4598 4.83744 10.4251 4.80957 10.3915L4.8877 10.496ZM4.06055 9.93248C4.22741 9.97004 4.38302 10.0372 4.52051 10.1297L4.4082 10.0614C4.30036 10.003 4.1834 9.96015 4.06055 9.93248ZM2.44238 9.45397C2.44445 9.45959 2.447 9.46501 2.44922 9.47057C2.43472 9.43421 2.42309 9.39643 2.41504 9.35729L2.44238 9.45397ZM3.76074 8.54283C3.947 8.54283 4.12895 8.562 4.30469 8.59752C4.21753 8.5799 4.12903 8.56561 4.03906 8.5565L3.76074 8.54283Z" fill="currentColor" style="fill:currentColor;fill:currentColor;fill-opacity:1;"/>
<path fill-rule="evenodd" clip-rule="evenodd" d="M20.5518 3C21.5221 3.00026 22.3122 3.78454 22.3125 4.75488V6.3877H27.3525C29.0739 6.38821 30.4717 7.7793 30.4717 9.49805V20.3369C30.4717 22.0557 29.0739 23.4468 27.3525 23.4473H11.0322C9.31039 23.4473 7.91211 22.056 7.91211 20.3369V9.49805C7.91211 7.77898 9.31039 6.3877 11.0322 6.3877H14.7119V4.75488C14.7122 3.78451 15.5013 3.00021 16.4717 3H20.5518ZM27.6299 23.0332L27.8662 22.999C27.8732 22.9977 27.8798 22.9945 27.8867 22.9932C27.8023 23.0099 27.7169 23.0244 27.6299 23.0332ZM11.0322 8.54297C10.5019 8.54297 10.0723 8.97334 10.0723 9.49805V20.3369C10.0723 20.8616 10.5019 21.292 11.0322 21.292H11.9922V8.54297H11.0322ZM10.8613 21.6807C10.917 21.6876 10.9737 21.6924 11.0312 21.6924L10.8936 21.6855C10.8829 21.6845 10.8719 21.682 10.8613 21.6807ZM26.3916 21.292H27.3525C27.8824 21.2915 28.3125 20.8613 28.3125 20.3369V9.49805C28.3125 8.97365 27.8824 8.54349 27.3525 8.54297H26.3916V21.292ZM14.1523 21.292H24.2324V8.54297H14.1523V21.292ZM30.0713 20.3369C30.0713 20.5156 30.0527 20.6904 30.0195 20.8594C30.0353 20.7788 30.0492 20.6972 30.0576 20.6143L30.0713 20.3369ZM28.4785 8.74121C28.5029 8.77721 28.526 8.81421 28.5469 8.85254L28.4785 8.74121C28.4542 8.70539 28.428 8.67 28.4004 8.63672L28.4785 8.74121ZM28.1113 8.375C28.1835 8.4237 28.251 8.47879 28.3125 8.54004L28.2158 8.45215C28.1487 8.39697 28.076 8.34835 27.999 8.30664L28.1113 8.375ZM11.0312 8.14258C10.9761 8.14259 10.9216 8.14593 10.8682 8.15234C10.8764 8.15135 10.8852 8.15026 10.8936 8.14941L11.0312 8.14258ZM16.8721 6.3877H20.1523V5.15527H16.8721V6.3877ZM27.3516 6.78809C27.5348 6.78809 27.7137 6.80642 27.8867 6.84082C27.8024 6.82406 27.7168 6.81056 27.6299 6.80176L27.3516 6.78809Z" fill="currentColor" style="fill:currentColor;fill:currentColor;fill-opacity:1;"/>
</svg>
