<svg width="33" height="32" viewBox="0 0 33 32" fill="none" xmlns="http://www.w3.org/2000/svg">
<g clip-path="url(#clip0_2989_44043)">
<path fill-rule="evenodd" clip-rule="evenodd" d="M21.7029 16.166C22.2477 16.1705 22.7129 16.573 22.7839 17.1191C22.8555 17.6534 22.5256 18.146 22.0251 18.3027C22.0214 18.3044 22.0171 18.3066 22.0125 18.3086C21.9901 18.3184 21.9574 18.3319 21.9158 18.3496C21.8323 18.3851 21.7115 18.4351 21.5603 18.4951C21.2581 18.615 20.8322 18.7749 20.3357 18.9346C19.3531 19.2506 18.0515 19.5811 16.8748 19.5811C15.6654 19.581 14.7634 19.1873 14.071 18.8896C13.3854 18.5948 12.8881 18.3917 12.1316 18.3916C11.354 18.3916 10.4024 18.6507 9.61401 18.9297C9.22664 19.0668 8.89142 19.2047 8.65308 19.3076C8.53424 19.3589 8.43973 19.4012 8.37573 19.4307C8.34389 19.4453 8.31951 19.4572 8.30347 19.4648C8.29545 19.4686 8.28867 19.4709 8.28491 19.4727L8.28101 19.4746L8.27905 19.4766C7.76628 19.7227 7.15487 19.5377 6.86108 19.0645L6.80737 18.9658C6.54098 18.4206 6.77049 17.772 7.30542 17.5049L7.3064 17.5039L7.30835 17.5029C7.30835 17.5029 7.31244 17.5014 7.31519 17.5C7.32067 17.4972 7.32869 17.4933 7.33862 17.4883C7.35849 17.4782 7.38692 17.4633 7.42358 17.4453C7.4971 17.4092 7.6033 17.3585 7.73706 17.2979C8.0044 17.1767 8.38367 17.0156 8.83472 16.8545C9.72888 16.5351 10.94 16.2031 12.1316 16.2031C13.3517 16.2032 14.2574 16.5955 14.9529 16.8936C15.6438 17.1896 16.1354 17.3916 16.8748 17.3916C17.6444 17.3916 18.7017 17.1298 19.6052 16.8477C20.0487 16.7092 20.4414 16.5709 20.7224 16.4668C20.8626 16.4149 20.9748 16.3718 21.0515 16.3418C21.0899 16.3268 21.1198 16.3145 21.1394 16.3066C21.149 16.3028 21.1562 16.2997 21.1609 16.2979H21.1589C21.3231 16.2106 21.5063 16.1639 21.6941 16.166H21.7029Z" fill="currentColor" style="fill:currentColor;fill:currentColor;fill-opacity:1;"/>
<path fill-rule="evenodd" clip-rule="evenodd" d="M21.7029 12.5977C22.2478 12.6021 22.713 13.0055 22.7839 13.5518C22.8558 14.0877 22.5234 14.5812 22.0203 14.7363C22.0178 14.7374 22.0153 14.739 22.0125 14.7402C21.9901 14.75 21.9575 14.7645 21.9158 14.7822C21.8323 14.8177 21.7115 14.8678 21.5603 14.9277C21.2581 15.0476 20.8322 15.2075 20.3357 15.3672C19.3531 15.6832 18.0515 16.0137 16.8748 16.0137C15.6654 16.0136 14.7634 15.62 14.071 15.3223C13.3854 15.0274 12.8881 14.8243 12.1316 14.8242C11.354 14.8242 10.4024 15.0833 9.61401 15.3623C9.22682 15.4993 8.89139 15.6364 8.65308 15.7393C8.53419 15.7906 8.43973 15.8338 8.37573 15.8633C8.3441 15.8779 8.31951 15.8889 8.30347 15.8965C8.29545 15.9003 8.28867 15.9035 8.28491 15.9053L8.27905 15.9082C7.76633 16.1543 7.1549 15.9702 6.86108 15.4971L6.80737 15.3984C6.54088 14.8532 6.7705 14.2047 7.30542 13.9375L7.3064 13.9365L7.30835 13.9355C7.30835 13.9355 7.31247 13.934 7.31519 13.9326C7.32067 13.9298 7.32868 13.925 7.33862 13.9199C7.35848 13.9098 7.38711 13.8958 7.42358 13.8779C7.49709 13.8418 7.60328 13.7911 7.73706 13.7305C8.00439 13.6093 8.38369 13.4482 8.83472 13.2871C9.72888 12.9677 10.94 12.6348 12.1316 12.6348C13.3517 12.6348 14.2574 13.0281 14.9529 13.3262C15.6438 13.6222 16.1354 13.8242 16.8748 13.8242C17.6444 13.8242 18.7017 13.5624 19.6052 13.2803C20.0487 13.1418 20.4414 13.0035 20.7224 12.8994C20.8627 12.8475 20.9748 12.8034 21.0515 12.7734C21.0898 12.7585 21.1198 12.7471 21.1394 12.7393C21.149 12.7354 21.1562 12.7324 21.1609 12.7305H21.1589C21.3231 12.6432 21.5063 12.5956 21.6941 12.5977H21.7029Z" fill="currentColor" style="fill:currentColor;fill:currentColor;fill-opacity:1;"/>
<path fill-rule="evenodd" clip-rule="evenodd" d="M25.7 22.7432C25.7 23.2954 25.2522 23.7432 24.7 23.7432H21.3757H8.2019H4.69995C4.14767 23.7432 3.69995 23.2954 3.69995 22.7432V20.2705V13.3877V9.47266C3.69995 8.92037 4.14767 8.47266 4.69995 8.47266H8.40601H21.4727H24.7C25.2522 8.47266 25.7 8.92037 25.7 9.47266V12.2959V19.4053V22.7432ZM5.90015 20.5537C5.90015 21.106 6.34786 21.5537 6.90015 21.5537H8.2019H21.3757H22.4998C23.052 21.5537 23.4998 21.106 23.4998 20.5537V19.4053V12.2959V11.6621C23.4998 11.1098 23.052 10.6621 22.4998 10.6621H21.3757H8.37573H6.90015C6.34786 10.6621 5.90015 11.1098 5.90015 11.6621V13.1592V20.5029V20.5537Z" fill="currentColor" style="fill:currentColor;fill:currentColor;fill-opacity:1;"/>
<path fill-rule="evenodd" clip-rule="evenodd" d="M27.6003 18.5811C28.5353 18.5813 29.2996 19.3329 29.2996 20.2705C29.2994 21.208 28.5352 21.9588 27.6003 21.959C26.6653 21.959 25.9003 21.2081 25.9001 20.2705C25.9001 19.3328 26.6652 18.5811 27.6003 18.5811ZM28.7468 20.6182C28.7693 20.5453 28.7857 20.4697 28.7937 20.3916L28.7751 20.5098C28.7676 20.5466 28.7578 20.5826 28.7468 20.6182ZM27.8416 19.1055C27.8797 19.1132 27.9171 19.1226 27.9539 19.1338C27.8795 19.1111 27.8022 19.0949 27.7224 19.0869L27.8416 19.1055Z" fill="currentColor" style="fill:currentColor;fill:currentColor;fill-opacity:1;"/>
<path fill-rule="evenodd" clip-rule="evenodd" d="M27.6003 14.4189C28.5353 14.4192 29.2996 15.1708 29.2996 16.1084C29.2994 17.0458 28.5352 17.7967 27.6003 17.7969C26.6653 17.7969 25.9003 17.046 25.9001 16.1084C25.9001 15.1707 26.6652 14.4189 27.6003 14.4189ZM28.7751 16.3477C28.7674 16.3852 28.7571 16.4218 28.7458 16.458C28.7686 16.3845 28.7857 16.3083 28.7937 16.2295L28.7751 16.3477ZM27.8416 14.9434C27.8797 14.9511 27.9171 14.9605 27.9539 14.9717C27.8795 14.949 27.8022 14.9328 27.7224 14.9248L27.8416 14.9434Z" fill="currentColor" style="fill:currentColor;fill:currentColor;fill-opacity:1;"/>
<path fill-rule="evenodd" clip-rule="evenodd" d="M27.6003 10.2568C28.5353 10.257 29.2996 11.0087 29.2996 11.9463C29.2994 12.8837 28.5352 13.6346 27.6003 13.6348C26.6653 13.6348 25.9003 12.8838 25.9001 11.9463C25.9001 11.0086 26.6652 10.2568 27.6003 10.2568ZM28.7458 12.2959C28.7686 12.2224 28.7856 12.1462 28.7937 12.0674L28.7751 12.1855C28.7674 12.2231 28.7571 12.2597 28.7458 12.2959ZM27.8416 10.7812C27.8797 10.789 27.9171 10.7984 27.9539 10.8096C27.8795 10.7869 27.8022 10.7707 27.7224 10.7627L27.8416 10.7812Z" fill="currentColor" style="fill:currentColor;fill:currentColor;fill-opacity:1;"/>
<path fill-rule="evenodd" clip-rule="evenodd" d="M29.4001 5.5C30.6586 5.50011 31.7 6.52602 31.7 7.78418V24.4326C31.6998 25.6907 30.6586 26.7157 29.4001 26.7158H28.7V26.8105C28.7 27.7413 27.9279 28.5 26.9998 28.5H25.2C24.2718 28.5 23.4998 27.7413 23.4998 26.8105V26.7158H8.90015V26.8105C8.90015 27.7413 8.12807 28.5 7.19995 28.5H5.40015C4.47203 28.5 3.69995 27.7413 3.69995 26.8105V26.7158H2.99976C1.74132 26.7157 0.700053 25.6907 0.699951 24.4326V7.78418C0.699951 6.52602 1.74126 5.50011 2.99976 5.5H29.4001ZM2.99976 7.68945C2.9628 7.6895 2.93943 7.70219 2.92554 7.71582C2.9118 7.72943 2.90015 7.75129 2.90015 7.78418V24.4326C2.90019 24.4654 2.91183 24.4864 2.92554 24.5C2.93941 24.5137 2.96262 24.5273 2.99976 24.5273H4.63354C4.7377 24.5125 4.84384 24.5125 4.948 24.5273H24.4333C24.5375 24.5125 24.6436 24.5125 24.7478 24.5273H29.4001C29.4373 24.5273 29.4605 24.5137 29.4744 24.5C29.4881 24.4864 29.4997 24.4654 29.4998 24.4326V7.78418C29.4998 7.75129 29.4881 7.72943 29.4744 7.71582C29.4605 7.70219 29.4371 7.6895 29.4001 7.68945H2.99976Z" fill="currentColor" style="fill:currentColor;fill:currentColor;fill-opacity:1;"/>
</g>
<defs>
<clipPath id="clip0_2989_44043">
<rect width="32" height="32" fill="currentColor" style="fill:currentColor;fill-opacity:1;" transform="translate(0.199951)"/>
</clipPath>
</defs>
</svg>
