<svg width="33" height="32" viewBox="0 0 33 32" fill="none" xmlns="http://www.w3.org/2000/svg">
<path d="M31.2667 20.0007C31.2667 25.882 24.6867 30.6673 16.6 30.6673C8.51335 30.6673 1.93335 25.882 1.93335 20.0007C1.99257 18.4283 2.44209 16.8953 3.24139 15.54C4.04069 14.1846 5.16466 13.0494 6.51202 12.2367C6.65599 12.1302 6.81991 12.0539 6.99403 12.0122C7.16814 11.9705 7.34887 11.9642 7.52543 11.9939C7.702 12.0235 7.87079 12.0884 8.02173 12.1847C8.17267 12.281 8.30267 12.4067 8.40398 12.5544C8.50528 12.702 8.57583 12.8685 8.61139 13.044C8.64696 13.2194 8.64682 13.4003 8.61099 13.5757C8.57515 13.7511 8.50436 13.9175 8.40283 14.065C8.30129 14.2124 8.1711 14.3379 8.02002 14.434C7.03561 15.0085 6.20835 15.8172 5.61171 16.7883C5.01508 17.7594 4.66756 18.8629 4.60002 20.0007C4.60002 24.4127 9.98402 28.0007 16.6 28.0007C23.216 28.0007 28.6 24.4127 28.6 20.0007C28.6 16.8887 25.8307 14.03 21.5427 12.718C21.2094 12.6105 20.9317 12.3761 20.7698 12.0655C20.6079 11.755 20.5746 11.3932 20.6772 11.0583C20.7799 10.7235 21.0101 10.4424 21.3183 10.276C21.6264 10.1095 21.9877 10.0709 22.324 10.1687C27.756 11.8313 31.2667 15.6913 31.2667 20.0007ZM12.6 2.66732V3.12198L19.792 6.20332C20.0197 6.30136 20.2155 6.46092 20.3574 6.66407C20.4994 6.86722 20.582 7.10593 20.5958 7.3534C20.6097 7.60087 20.5543 7.8473 20.4358 8.06502C20.3174 8.28275 20.1406 8.46315 19.9254 8.58598L12.6 12.774V20.0007C12.6 20.3543 12.4595 20.6934 12.2095 20.9435C11.9594 21.1935 11.6203 21.334 11.2667 21.334C10.9131 21.334 10.5739 21.1935 10.3239 20.9435C10.0738 20.6934 9.93335 20.3543 9.93335 20.0007V2.66732C9.93335 2.3137 10.0738 1.97456 10.3239 1.72451C10.5739 1.47446 10.9131 1.33398 11.2667 1.33398C11.6203 1.33398 11.9594 1.47446 12.2095 1.72451C12.4595 1.97456 12.6 2.3137 12.6 2.66732ZM12.6 6.02332V9.70198L16.28 7.60065L12.6 6.02332Z" fill="currentColor" style="fill:currentColor;fill:currentColor;fill-opacity:1;"/>
<path d="M20.6 23.5007C20.6 24.3291 19.9284 25.0007 19.1 25.0007C18.2716 25.0007 17.6 24.3291 17.6 23.5007C17.6 22.6722 18.2716 22.0007 19.1 22.0007C19.9284 22.0007 20.6 22.6722 20.6 23.5007Z" fill="currentColor" style="fill:currentColor;fill:currentColor;fill-opacity:1;"/>
</svg>
