<svg width="33" height="32" viewBox="0 0 33 32" fill="none" xmlns="http://www.w3.org/2000/svg">
<path d="M16.3999 1.66602C18.8855 1.66602 20.8509 1.66386 22.3853 1.87012C23.9483 2.08029 25.2137 2.5238 26.2114 3.52149L26.3921 3.71094C27.2637 4.67785 27.6648 5.88211 27.8618 7.34766C28.0681 8.88208 28.0659 10.8473 28.0659 13.333V17.333C28.0659 19.8187 28.0681 21.784 27.8618 23.3184C27.6648 24.7837 27.2636 25.9873 26.3921 26.9541L26.2114 27.1445C25.5994 27.7565 24.8863 28.1581 24.0659 28.4268V29.332L24.061 29.4346C24.0098 29.9388 23.5837 30.332 23.0659 30.332H21.7329C21.1807 30.3319 20.7329 29.8842 20.7329 29.332V28.9355C19.5055 28.9975 18.0701 28.999 16.3999 28.999C14.7291 28.999 13.2936 28.9976 12.0659 28.9355V29.332L12.061 29.4346C12.0098 29.9388 11.5837 30.332 11.0659 30.332H9.73291C9.18074 30.3319 8.73291 29.8842 8.73291 29.332V28.4268C7.91266 28.1581 7.19926 27.7564 6.5874 27.1445C5.59017 26.1469 5.14714 24.881 4.93701 23.3184C4.73072 21.784 4.73291 19.8187 4.73291 17.333V13.333C4.73291 12.7808 5.18074 12.3331 5.73291 12.333C6.2852 12.333 6.73291 12.7807 6.73291 13.333V14.332H15.0659L15.1685 14.3369C15.6727 14.3881 16.0659 14.8142 16.0659 15.332C16.0659 15.8498 15.6727 16.276 15.1685 16.3271L15.0659 16.332H6.73291V17.333C6.73291 19.8752 6.73523 21.6816 6.91943 23.0518C7.07724 24.2253 7.35613 24.9636 7.80127 25.5078L8.00244 25.7305L8.22412 25.9316C8.76837 26.3768 9.50763 26.6557 10.6812 26.8135C12.0513 26.9976 13.8579 26.999 16.3999 26.999C18.942 26.999 20.7485 26.9977 22.1187 26.8135C23.4599 26.6331 24.2332 26.2946 24.7974 25.7305L24.9985 25.5078C25.4436 24.9636 25.7226 24.2252 25.8804 23.0518C26.0646 21.6816 26.0659 19.8752 26.0659 17.333V16.332H20.3999C19.8477 16.3319 19.3999 15.8842 19.3999 15.332C19.3999 14.7798 19.8477 14.3322 20.3999 14.332H26.0659V13.333C26.0659 10.7909 26.0645 8.98441 25.8804 7.61426C25.7226 6.44061 25.4437 5.70151 24.9985 5.15723L24.7974 4.93555C24.2332 4.3714 23.4599 4.03289 22.1187 3.85254C20.7485 3.66836 18.942 3.66602 16.3999 3.66602C13.8579 3.66602 12.0513 3.66838 10.6812 3.85254C9.50739 4.01037 8.7684 4.28909 8.22412 4.73438L8.00244 4.93555C7.37392 5.56414 7.02564 6.45195 6.86377 8.09766L5.86865 7.99902L4.87256 7.90137C5.05168 6.08031 5.47527 4.63467 6.58838 3.52149L6.77783 3.34082C7.74476 2.46902 8.94893 2.06719 10.4146 1.87012C11.9489 1.66387 13.9143 1.66602 16.3999 1.66602Z" fill="currentColor" style="fill:currentColor;fill:currentColor;fill-opacity:1;"/>
<path d="M23.0669 17.666C23.6191 17.6661 24.0669 18.1138 24.0669 18.666V21.333C24.0667 21.8851 23.619 22.3329 23.0669 22.333C22.5147 22.333 22.0671 21.8851 22.0669 21.333V18.666C22.0669 18.1137 22.5146 17.666 23.0669 17.666Z" fill="currentColor" style="fill:currentColor;fill:currentColor;fill-opacity:1;"/>
<path d="M23.0669 8.33203C23.6191 8.33216 24.0669 8.77983 24.0669 9.33203V11.999C24.0667 12.5511 23.619 12.9989 23.0669 12.999C22.5147 12.999 22.0671 12.5512 22.0669 11.999V9.33203C22.0669 8.77975 22.5146 8.33203 23.0669 8.33203Z" fill="currentColor" style="fill:currentColor;fill:currentColor;fill-opacity:1;"/>
<path d="M6.86377 8.09766C6.80951 8.64708 6.31952 9.04819 5.77002 8.99414C5.2207 8.93978 4.81853 8.45079 4.87256 7.90137L6.86377 8.09766Z" fill="currentColor" style="fill:currentColor;fill:currentColor;fill-opacity:1;"/>
</svg>
