<svg width="33" height="32" viewBox="0 0 33 32" fill="none" xmlns="http://www.w3.org/2000/svg">
<path d="M27.3481 12.7715C27.9371 12.7715 28.4143 13.249 28.4145 13.8379C28.4145 14.427 27.9372 14.9053 27.3481 14.9053H24.9048C27.3928 17.3333 30.8179 21.5165 30.4428 24.9805C30.2925 26.3673 29.5568 27.5077 28.3725 28.1914C26.5617 29.2363 24.6023 28.7884 23.0005 27.3418V30.9336C23.0003 31.5225 22.5229 31.9999 21.934 32C21.3451 31.9998 20.8668 31.5225 20.8667 30.9336V24.4746C20.834 24.4142 20.802 24.3528 20.77 24.292C20.0916 25.8009 18.5755 26.8553 16.8169 26.8555C15.0583 26.8553 13.5411 25.8018 12.8628 24.293C12.8308 24.3536 12.7987 24.4143 12.7661 24.4746V30.9336C12.7659 31.5226 12.2877 32 11.6987 32C11.1099 31.9997 10.6324 31.5223 10.6323 30.9336V27.3408C9.74181 28.1449 8.73954 28.6405 7.71335 28.7422L14.6167 21.8389V22.5225C14.6168 23.7352 15.6033 24.7213 16.8159 24.7217C17.953 24.7217 18.8914 23.8548 19.0044 22.7471L19.0161 22.5225V19.9971C18.8402 19.4406 18.6359 18.7408 18.4643 17.9902L20.3159 16.1396C20.8571 20.1347 23.947 28.2817 27.3061 26.3438C30.8023 24.3253 24.6621 17.0438 21.5717 14.8838L23.684 12.7715H27.3481Z" fill="currentColor" style="fill:currentColor;fill:currentColor;fill-opacity:1;"/>
<path d="M30.0825 2.0166C30.4706 1.6289 31.1013 1.63124 31.4917 2.02148C31.8822 2.41201 31.8847 3.04353 31.4965 3.43164L3.6694 31.2578L3.59421 31.3271C3.20363 31.6453 2.62537 31.62 2.25925 31.2539C1.8933 30.8878 1.86893 30.3104 2.18698 29.9199L2.25534 29.8438L30.0825 2.0166Z" fill="currentColor" style="fill:currentColor;fill:currentColor;fill-opacity:1;"/>
<path fill-rule="evenodd" clip-rule="evenodd" d="M16.8159 0C17.4049 0 17.8832 0.47741 17.8833 1.06641V4.56348C19.5714 5.03164 20.8147 6.58091 20.8149 8.41602C20.8149 9.27113 20.5425 10.0631 20.0835 10.7139L18.021 12.7764C17.6692 12.5464 17.2541 12.416 16.8208 12.415H16.812C16.1546 12.4165 15.5441 12.7098 15.1342 13.1953C15.4389 13.7401 15.5466 14.4671 15.5366 15.2617L13.019 17.7793C13.3995 16.1686 13.521 14.8245 13.2905 14.2793C11.4785 14.4481 4.12475 22.0511 5.44284 25.3545L3.84421 26.9531C1.71854 24.0136 4.66635 19.0794 8.24069 15.3926C8.39472 15.2338 8.55783 15.0705 8.72702 14.9053H6.28464C5.69565 14.9051 5.21725 14.4269 5.21725 13.8379C5.21745 13.249 5.69583 12.7716 6.28464 12.7715H11.4057C11.5686 12.6772 11.7319 12.5914 11.893 12.5156L9.01315 11.3682C8.60789 11.2065 8.34143 10.8143 8.34128 10.3779V2.81152C8.34128 2.22264 8.81889 1.74453 9.40768 1.74414C9.99681 1.74414 10.4751 2.22246 10.4751 2.81152V9.6543L13.7241 10.9492C13.1581 10.2592 12.8178 9.37607 12.8178 8.41602C12.8181 6.58093 14.0614 5.03163 15.7495 4.56348V1.06641C15.7496 0.477645 16.2272 0.000379542 16.8159 0ZM16.8159 6.55078C15.7879 6.55116 14.951 7.38794 14.9507 8.41602C14.9507 9.4426 15.7852 10.2781 16.811 10.2812H16.8217C17.8477 10.2782 18.6811 9.4427 18.6811 8.41602C18.6809 7.38771 17.8443 6.55078 16.8159 6.55078Z" fill="currentColor" style="fill:currentColor;fill:currentColor;fill-opacity:1;"/>
<path d="M24.2241 1.74414C24.8132 1.74414 25.2915 2.22246 25.2915 2.81152V5.50684L23.1577 7.64062V2.81152C23.1577 2.22259 23.6352 1.74444 24.2241 1.74414Z" fill="currentColor" style="fill:currentColor;fill:currentColor;fill-opacity:1;"/>
</svg>
