<svg width="32" height="32" viewBox="0 0 32 32" fill="none" xmlns="http://www.w3.org/2000/svg">
<path fill-rule="evenodd" clip-rule="evenodd" d="M21.4382 2.60547C23.3124 2.62383 25.0333 3.69376 25.8718 5.39355C26.1006 5.85746 26.2482 6.42618 26.4763 7.27734L26.5759 7.66309C26.6056 7.79292 26.6291 7.92294 26.6375 8.0498L26.6423 8.22656C26.6338 9.10111 26.1346 9.90447 25.3416 10.2959C25.2276 10.352 25.1024 10.3973 24.9754 10.4365L24.5916 10.543L12.9304 13.668H21.3337C22.5624 13.668 23.5851 13.6657 24.3933 13.7744C25.2302 13.887 25.9863 14.135 26.5935 14.7422C27.203 15.352 27.4506 16.1118 27.5623 16.9541L27.6023 17.3193L27.6062 17.4219C27.6004 17.9286 27.2116 18.3588 26.6961 18.4053C26.1803 18.4515 25.7207 18.0974 25.6248 17.5996L25.6101 17.498L25.5789 17.2109C25.4961 16.5936 25.3523 16.3302 25.1785 16.1562C25.0047 15.9826 24.7415 15.8395 24.1267 15.7568C23.4827 15.6702 22.619 15.668 21.3337 15.668H6.33375V21.335L6.33668 22.665C6.34362 23.8952 6.36988 24.8354 6.47145 25.5908C6.603 26.5689 6.84368 27.0871 7.21266 27.4561C7.58166 27.8249 8.09979 28.0658 9.07789 28.1973C10.085 28.3326 11.42 28.335 13.3338 28.335H18.6668C20.5803 28.335 21.9156 28.3326 22.9226 28.1973C23.9008 28.0657 24.4198 27.8251 24.7888 27.4561C25.1577 27.0871 25.3985 26.5687 25.53 25.5908C25.6654 24.5838 25.6668 23.2486 25.6668 21.335C25.6668 20.7828 26.1146 20.3351 26.6668 20.335C27.2189 20.3351 27.6668 20.7828 27.6668 21.335C27.6668 23.1921 27.669 24.6861 27.5115 25.8574C27.3501 27.0572 27.0051 28.0677 26.2029 28.8701C25.4004 29.6726 24.3893 30.0183 23.1892 30.1797C22.0179 30.3371 20.5239 30.335 18.6668 30.335H13.3338C11.4765 30.335 9.98263 30.3371 8.81129 30.1797C7.61132 30.0183 6.60109 29.6725 5.79859 28.8701C4.99616 28.0677 4.65041 27.0573 4.48902 25.8574C4.37091 24.9789 4.34249 23.9187 4.3357 22.6602L4.33375 21.335V14.7891C4.03298 13.6665 3.78977 12.7557 3.65895 12C3.52057 11.2004 3.48784 10.4781 3.67945 9.7627L3.77516 9.44824C4.02125 8.72386 4.43037 8.06354 4.9734 7.52051L5.17555 7.33301C5.65983 6.91462 6.2355 6.62975 6.90211 6.38477C7.651 6.10959 8.60519 5.85382 9.79078 5.53613L10.7888 5.26855C10.9035 5.21214 11.0297 5.17673 11.1619 5.16797L19.157 3.02734C19.2741 2.96914 19.4033 2.93305 19.5388 2.9248L19.7166 2.87793C20.2589 2.7361 20.6742 2.64159 21.0613 2.61621L21.4382 2.60547ZM10.0584 7.53613C8.96948 7.8283 8.19079 8.04153 7.59156 8.26172C7.03964 8.46457 6.71133 8.64913 6.48121 8.84863L6.38844 8.93555C6.06256 9.26142 5.81636 9.65708 5.66871 10.0918L5.61109 10.2803C5.52556 10.5998 5.51501 10.9969 5.62965 11.6592C5.71302 12.1408 5.85615 12.7106 6.04762 13.4404L9.46266 12.5244L10.0584 7.53613ZM12.1394 6.97754L11.5437 11.9668L17.8338 10.2822L18.4295 5.29199L12.1394 6.97754ZM21.1921 4.6123C21.0572 4.62115 20.9063 4.6464 20.6716 4.70117L20.5086 4.74316L19.9148 9.72461L24.073 8.61133L24.3923 8.52344C24.4303 8.51185 24.4496 8.50474 24.4568 8.50195L24.5379 8.44629C24.5852 8.40167 24.6185 8.34355 24.6336 8.28027L24.6423 8.18164C24.6431 8.1927 24.6431 8.18189 24.6277 8.11523L24.5447 7.79492C24.3551 7.0873 24.2553 6.72469 24.1668 6.48535L24.0789 6.27832C23.5758 5.25829 22.5425 4.61636 21.4177 4.60547L21.1921 4.6123Z" fill="currentColor" style="fill:currentColor;fill:currentColor;fill-opacity:1;"/>
<path fill-rule="evenodd" clip-rule="evenodd" d="M14.615 18.5303C15.237 18.1712 15.8688 18.3771 16.2625 18.5713C16.6728 18.7738 17.1559 19.1243 17.6609 19.4863L18.3787 20.0098C18.6017 20.1798 18.8038 20.346 18.9705 20.5098C19.3305 20.8636 19.6666 21.3416 19.6668 22.001C19.6666 22.6602 19.3304 23.1374 18.9705 23.4912C18.8038 23.655 18.6016 23.8212 18.3787 23.9912L17.6609 24.5156C17.156 24.8775 16.6727 25.2272 16.2625 25.4297C15.8687 25.6239 15.2371 25.8308 14.615 25.4717L14.49 25.3916C13.9163 24.9865 13.7793 24.332 13.7244 23.874C13.6655 23.383 13.6668 22.7369 13.6668 22.001C13.6668 21.2649 13.6655 20.619 13.7244 20.1279C13.7793 19.6699 13.9161 19.0145 14.49 18.6094L14.615 18.5303ZM15.6931 20.5527C15.669 20.8853 15.6668 21.3428 15.6668 22.001C15.6668 22.6587 15.6691 23.1157 15.6931 23.4482C15.891 23.3191 16.1477 23.1385 16.4949 22.8896L17.1677 22.3994C17.3415 22.2674 17.4712 22.1607 17.5691 22.0645C17.594 22.0399 17.6123 22.0173 17.6277 22C17.6123 21.9828 17.5938 21.9608 17.5691 21.9365C17.4711 21.8402 17.3417 21.7337 17.1677 21.6016L16.4949 21.1113C16.1475 20.8623 15.891 20.6819 15.6931 20.5527Z" fill="currentColor" style="fill:currentColor;fill:currentColor;fill-opacity:1;"/>
</svg>
