<svg width="33" height="32" viewBox="0 0 33 32" fill="none" xmlns="http://www.w3.org/2000/svg">
<path d="M11.0796 28.333C11.6319 28.333 12.0796 28.7807 12.0796 29.333C12.0794 29.8851 11.6318 30.333 11.0796 30.333H11.0669C10.5147 30.333 10.0671 29.8851 10.0669 29.333C10.0669 28.7807 10.5146 28.333 11.0669 28.333H11.0796ZM19.0796 28.333C19.6319 28.333 20.0796 28.7807 20.0796 29.333C20.0794 29.8851 19.6318 30.333 19.0796 30.333H19.0669C18.5147 30.333 18.0671 29.8851 18.0669 29.333C18.0669 28.7807 18.5146 28.333 19.0669 28.333H19.0796ZM27.0796 28.333C27.6319 28.333 28.0796 28.7807 28.0796 29.333C28.0794 29.8851 27.6318 30.333 27.0796 30.333H27.0669C26.5147 30.333 26.0671 29.8851 26.0669 29.333C26.0669 28.7807 26.5146 28.333 27.0669 28.333H27.0796ZM12.4136 22.999C12.9656 22.9992 13.4134 23.447 13.4136 23.999C13.4136 24.5512 12.9657 24.9988 12.4136 24.999H12.3999C11.8476 24.999 11.3999 24.5513 11.3999 23.999C11.4001 23.4469 11.8477 22.999 12.3999 22.999H12.4136ZM19.0796 22.999L19.1821 23.0049C19.6863 23.0561 20.0794 23.4814 20.0796 23.999C20.0796 24.5168 19.6864 24.9429 19.1821 24.9941L19.0796 24.999H19.0669C18.5146 24.999 18.0669 24.5513 18.0669 23.999C18.0671 23.4469 18.5147 22.999 19.0669 22.999H19.0796ZM25.7466 22.999L25.8491 23.0049C26.3531 23.0562 26.7464 23.4815 26.7466 23.999C26.7466 24.5167 26.3532 24.9428 25.8491 24.9941L25.7466 24.999H25.7329C25.1808 24.9988 24.7329 24.5512 24.7329 23.999C24.7331 23.447 25.1809 22.9992 25.7329 22.999H25.7466ZM13.7466 17.666L13.8491 17.6709C14.3532 17.7222 14.7466 18.1483 14.7466 18.666C14.7466 19.1837 14.3532 19.6098 13.8491 19.6611L13.7466 19.666H13.7329C13.1808 19.6658 12.7329 19.2182 12.7329 18.666C12.7329 18.1138 13.1808 17.6662 13.7329 17.666H13.7466ZM19.0796 17.666L19.1821 17.6709C19.6864 17.7221 20.0796 18.1482 20.0796 18.666C20.0796 19.1838 19.6864 19.6099 19.1821 19.6611L19.0796 19.666H19.0669C18.5146 19.666 18.0669 19.2183 18.0669 18.666C18.0669 18.1137 18.5146 17.666 19.0669 17.666H19.0796ZM24.4136 17.666L24.5151 17.6709C25.0196 17.7219 25.4136 18.1481 25.4136 18.666C25.4136 19.1839 25.0196 19.6101 24.5151 19.6611L24.4136 19.666H24.3999C23.8476 19.666 23.3999 19.2183 23.3999 18.666C23.3999 18.1137 23.8476 17.666 24.3999 17.666H24.4136ZM24.7329 10.666C24.7329 10.224 24.5572 9.79987 24.2446 9.4873C23.9322 9.17502 23.5087 8.99911 23.0669 8.99902H15.0669C14.6249 8.99902 14.2007 9.17485 13.8882 9.4873C13.5756 9.79987 13.3999 10.224 13.3999 10.666V12.333H24.7329V10.666ZM26.7329 12.333H28.3999C28.9522 12.333 29.3999 12.7807 29.3999 13.333C29.3997 13.8851 28.9521 14.333 28.3999 14.333H9.73291C9.18088 14.3328 8.73309 13.885 8.73291 13.333C8.73291 12.7808 9.18078 12.3332 9.73291 12.333H11.3999V10.666C11.3999 9.69355 11.7865 8.76087 12.4741 8.07324C13.1617 7.38571 14.0945 6.99902 15.0669 6.99902H18.0669V5.33301C18.0669 4.89106 17.8911 4.46684 17.5786 4.1543C17.2661 3.84174 16.8419 3.66602 16.3999 3.66602H7.06689C6.62487 3.66602 6.20074 3.84174 5.88818 4.1543C5.57562 4.46686 5.3999 4.89098 5.3999 5.33301V29.333C5.39973 29.8851 4.95208 30.333 4.3999 30.333C3.84773 30.333 3.40008 29.8851 3.3999 29.333V5.33301C3.3999 4.36055 3.78649 3.42787 4.47412 2.74023C5.16175 2.0526 6.09443 1.66602 7.06689 1.66602H16.3999C17.3724 1.66602 18.305 2.0526 18.9927 2.74023C19.6802 3.42785 20.0669 4.36062 20.0669 5.33301V6.99902H23.0669C24.0392 6.99911 24.9721 7.38569 25.6597 8.07324C26.3472 8.76086 26.7329 9.69363 26.7329 10.666V12.333Z" fill="currentColor" style="fill:currentColor;fill:currentColor;fill-opacity:1;"/>
</svg>
