<svg width="32" height="32" viewBox="0 0 32 32" fill="none" xmlns="http://www.w3.org/2000/svg">
<path fill-rule="evenodd" clip-rule="evenodd" d="M15.3252 17.2607C15.5599 17.2608 15.785 17.3549 15.9502 17.5215C16.0946 17.6672 16.1833 17.8581 16.2031 18.0605L16.207 18.1475V26.3652C16.207 26.5994 16.1151 26.8248 15.9502 26.9912C15.8057 27.1368 15.6154 27.2276 15.4131 27.248L15.3252 27.252H6.01074C5.77605 27.2519 5.55097 27.1577 5.38574 26.9912C5.24123 26.8455 5.15271 26.6546 5.13281 26.4521L5.12793 26.3652V18.1475C5.12799 17.9131 5.22069 17.688 5.38574 17.5215C5.55097 17.355 5.77605 17.2608 6.01074 17.2607H15.3252ZM6.89258 25.4785H14.4434V19.0342H6.89258V25.4785Z" fill="currentColor" style="fill:currentColor;fill:currentColor;fill-opacity:1;"/>
<path fill-rule="evenodd" clip-rule="evenodd" d="M15.0342 14.3262C15.4696 14.3263 15.8405 14.5649 16.042 14.9131H16.8994C17.4517 14.9131 17.8994 15.3608 17.8994 15.9131V28.5996C17.8994 29.1519 17.4517 29.5996 16.8994 29.5996H3.68164C3.44704 29.5996 3.22281 29.5053 3.05762 29.3389C2.913 29.1931 2.82357 29.0024 2.80371 28.7998L2.7998 28.7129V15.7998C2.79983 15.5654 2.89246 15.3403 3.05762 15.1738C3.22281 15.0074 3.44703 14.9131 3.68164 14.9131H5.29395C5.49547 14.5649 5.86628 14.3262 6.30176 14.3262H15.0342ZM4.56348 27.8262H16.8271V16.6865H4.56348V27.8262Z" fill="currentColor" style="fill:currentColor;fill:currentColor;fill-opacity:1;"/>
<path fill-rule="evenodd" clip-rule="evenodd" d="M12.9961 2C13.2308 2.00009 13.4559 2.09421 13.6211 2.26074C13.7656 2.40651 13.8542 2.59729 13.874 2.7998L13.8789 2.88672V4.7793L17.5859 7.44824L17.668 7.51465C17.7451 7.58578 17.8096 7.67064 17.8574 7.76465C17.9211 7.88981 17.9541 8.02854 17.9541 8.16895V10.5176C17.954 10.7518 17.8613 10.9771 17.6963 11.1436C17.5312 11.3099 17.3067 11.4041 17.0723 11.4043H4.26367C4.02917 11.4042 3.80479 11.3099 3.63965 11.1436C3.49511 10.9978 3.40567 10.807 3.38574 10.6045L3.38184 10.5176V8.16895C3.38179 8.02847 3.41481 7.88986 3.47852 7.76465C3.54239 7.63919 3.63582 7.53065 3.75 7.44824L7.45703 4.77832V2.88672C7.45706 2.65229 7.54969 2.42725 7.71484 2.26074C7.88 2.0943 8.10429 2.00009 8.33887 2H12.9961ZM9.22168 5.23438C9.22183 5.37508 9.18784 5.51423 9.12402 5.63965C9.07618 5.73354 9.01263 5.81859 8.93555 5.88965L8.85352 5.95605L5.14648 8.62305V9.62988H16.1895V8.62305L12.4824 5.95605C12.3683 5.87366 12.2748 5.76508 12.2109 5.63965C12.1471 5.51421 12.1141 5.37512 12.1143 5.23438V3.77344H9.22168V5.23438Z" fill="currentColor" style="fill:currentColor;fill:currentColor;fill-opacity:1;"/>
<path d="M20.5424 20.6377C20.9926 20.8922 21.4925 21.031 22.0022 21.043C22.5119 21.055 23.0171 20.9398 23.4774 20.7068C23.4266 21.0076 23.4002 21.3124 23.3985 21.618V22.7998H20.6208C20.4734 22.7998 20.3321 22.8621 20.2279 22.9729C20.1237 23.0837 20.0652 23.234 20.0652 23.3907V25.1634C20.0652 25.3202 20.1237 25.4705 20.2279 25.5813C20.3321 25.6921 20.4734 25.7543 20.6208 25.7543H21.1763V28.7089C21.1763 28.8656 21.2349 29.0159 21.339 29.1267C21.4432 29.2375 21.5845 29.2998 21.7319 29.2998H26.1763C26.3237 29.2998 26.465 29.2375 26.5692 29.1267C26.6733 29.0159 26.7319 28.8656 26.7319 28.7089V25.7543H27.2874C27.4348 25.7543 27.5761 25.6921 27.6803 25.5813C27.7845 25.4705 27.843 25.3202 27.843 25.1634V23.3907C27.843 23.234 27.7845 23.0837 27.6803 22.9729C27.5761 22.8621 27.4348 22.7998 27.2874 22.7998H24.5097V21.618C24.5108 20.5213 24.9209 19.47 25.65 18.6945C26.379 17.9191 27.3675 17.4829 28.3985 17.4816C28.5459 17.4816 28.6872 17.4194 28.7914 17.3085C28.8956 17.1977 28.9541 17.0474 28.9541 16.8907C28.9541 16.734 28.8956 16.5837 28.7914 16.4729C28.6872 16.3621 28.5459 16.2998 28.3985 16.2998C27.5474 16.3009 26.7107 16.5333 25.9676 16.9748C25.2246 17.4164 24.6 18.0526 24.153 18.823C23.6291 17.8066 22.3735 16.2998 19.5097 16.2998C19.3623 16.2998 19.221 16.3621 19.1168 16.4729C19.0126 16.5837 18.9541 16.734 18.9541 16.8907C18.9541 17.0012 18.9724 19.6054 20.5424 20.6377ZM25.6208 28.118H22.2874V25.7543H25.6208V28.118ZM26.7319 24.5725H21.1763V23.9816H26.7319V24.5725ZM23.263 19.5327C22.3547 19.9327 21.6385 19.9676 21.1291 19.6343C20.488 19.2142 20.2147 18.2262 20.1147 17.507C22.1763 17.7032 22.9752 18.8797 23.263 19.5327Z" fill="currentColor" style="fill:currentColor;fill:currentColor;fill-opacity:1;"/>
</svg>
