<svg width="33" height="32" viewBox="0 0 33 32" fill="none" xmlns="http://www.w3.org/2000/svg">
<path fill-rule="evenodd" clip-rule="evenodd" d="M16.8999 10.5983C19.0751 10.5983 21.2746 10.0152 22.9458 10.8708C24.6178 11.7268 25.8286 10.0657 25.8286 11.9108C25.8285 12.1752 25.7196 12.426 25.5308 12.609C25.366 12.7687 25.1521 12.8655 24.9263 12.8874L24.8286 12.8922H21.9058L23.8384 16.7487H25.4644V15.4186C25.4644 15.1541 25.5733 14.9025 25.7622 14.7194C25.9507 14.5367 26.204 14.4362 26.4653 14.4362H30.7993C30.9295 14.4362 31.0593 14.4616 31.1802 14.5104C31.3007 14.5591 31.4111 14.6304 31.5044 14.7213C31.5979 14.8126 31.6732 14.9219 31.7241 15.0426C31.7747 15.1627 31.8009 15.292 31.8003 15.4225V17.7506C31.8002 18.015 31.6912 18.2658 31.5024 18.4489C31.314 18.6316 31.0607 18.7321 30.7993 18.7321H24.8296L26.4224 21.8932L26.4624 21.986C26.5417 22.1989 26.5443 22.4338 26.4673 22.6501C26.3795 22.8965 26.1964 23.0956 25.9624 23.2087C25.8613 23.2552 25.7473 23.2882 25.6372 23.3004L25.5259 23.3073C25.3409 23.3076 25.1582 23.2575 24.9995 23.1618C24.8408 23.066 24.7114 22.9275 24.6274 22.7614L22.5962 18.7126H11.0161L9.18896 22.8141C9.11029 22.991 8.98041 23.1393 8.81787 23.2428C8.65557 23.3461 8.46686 23.4002 8.2749 23.4001C8.14303 23.3993 8.00987 23.3745 7.88721 23.3258C7.76625 23.2751 7.64888 23.1983 7.55615 23.1051C7.46337 23.0118 7.38957 22.9004 7.34033 22.778C7.29116 22.6556 7.2678 22.5242 7.271 22.3922C7.27423 22.2603 7.30387 22.1302 7.35889 22.0104L8.8335 18.7282H3.00049C2.73911 18.7282 2.48584 18.6277 2.29736 18.445C2.10857 18.2619 1.99961 18.0111 1.99951 17.7467V15.4186C1.99951 15.1541 2.10846 14.9025 2.29736 14.7194C2.48584 14.5367 2.73915 14.4362 3.00049 14.4362H7.35498C7.61611 14.4363 7.86876 14.5369 8.05713 14.7194C8.22247 14.8797 8.32679 15.0921 8.3501 15.32L8.35498 15.4186V16.7487H9.71338L11.437 12.8922H8.97119C8.71 12.8922 8.45743 12.7916 8.26904 12.609C8.08022 12.426 7.97128 12.1752 7.97119 11.9108C7.97119 10.0657 9.18195 11.7268 10.854 10.8708C12.5252 10.0152 14.7247 10.5983 16.8999 10.5983ZM27.4653 16.7643H29.7993V16.4001H27.4653V16.7643ZM4.00049 16.7487H6.354V16.3844H4.00049V16.7487ZM11.897 16.737H21.6255L19.6919 12.8962H13.6079L11.897 16.737Z" fill="currentColor" style="fill:currentColor;fill:currentColor;fill-opacity:1;"/>
</svg>
