<svg width="33" height="32" viewBox="0 0 33 32" fill="none" xmlns="http://www.w3.org/2000/svg">
<path fill-rule="evenodd" clip-rule="evenodd" d="M10.9517 2.15562C11.3111 1.94815 11.7588 1.9481 12.1181 2.15562C12.2259 2.21785 12.3258 2.29876 12.4129 2.39832L20.5784 11.7319L20.6374 11.8037C20.6652 11.8408 20.6891 11.8796 20.7117 11.9182C21.0944 12.5707 20.7422 13.4149 20.0324 13.6196C19.929 13.6495 19.8182 13.6666 19.7008 13.6666V17.2644C22.2616 17.6933 24.3473 19.5104 25.1627 21.9166C25.2797 22.2618 25.3713 22.6186 25.4336 22.9857C25.4987 23.3696 25.5336 23.7641 25.5336 24.1667L25.5379 24.347C25.5557 24.7005 25.6255 25.04 25.7404 25.358C25.7465 25.375 25.7536 25.3916 25.76 25.4084C25.7927 25.4947 25.8285 25.5794 25.8677 25.6622C25.8797 25.6877 25.8918 25.7131 25.9044 25.7383C25.9177 25.7647 25.9315 25.7908 25.9454 25.8169C25.9542 25.8332 25.963 25.8494 25.9719 25.8656C25.9908 25.8996 26.0101 25.9332 26.03 25.9664C26.039 25.9814 26.0482 25.9961 26.0574 26.0109C26.0789 26.0456 26.1014 26.0796 26.124 26.1134C26.1313 26.1243 26.1388 26.1351 26.1463 26.1459C26.1673 26.1766 26.1883 26.2073 26.2103 26.2373C26.2286 26.2622 26.2478 26.2864 26.2667 26.3108C26.2779 26.3253 26.2886 26.3401 26.3001 26.3544C26.3235 26.3836 26.3475 26.4123 26.3718 26.4407C26.3861 26.4575 26.4008 26.4738 26.4154 26.4903C26.4334 26.5105 26.4517 26.5303 26.4701 26.5501C26.4926 26.5743 26.5153 26.5983 26.5385 26.6219C26.5515 26.6351 26.5646 26.6482 26.5778 26.6612C26.6019 26.685 26.6265 26.7082 26.6513 26.7313C26.6685 26.7473 26.6858 26.7634 26.7034 26.7791C26.7215 26.7953 26.7397 26.8112 26.7581 26.827C26.784 26.8492 26.8101 26.8713 26.8367 26.8928C26.8586 26.9105 26.8809 26.9277 26.9033 26.9449C26.9256 26.962 26.9481 26.9788 26.9708 26.9953C26.9908 27.0099 27.0112 27.0239 27.0315 27.0381C27.0525 27.0527 27.0734 27.0675 27.0947 27.0817C27.121 27.0991 27.1475 27.1162 27.1742 27.1329C27.1996 27.1489 27.2252 27.1646 27.2511 27.1799C27.2672 27.1895 27.2835 27.1988 27.2998 27.2081C27.3311 27.226 27.3627 27.2433 27.3947 27.2603C27.4102 27.2685 27.426 27.2762 27.4417 27.2842C27.4762 27.3018 27.5107 27.3198 27.5459 27.3363C27.5674 27.3464 27.5892 27.3557 27.6108 27.3654C27.6344 27.3758 27.658 27.3862 27.6818 27.3961C27.7131 27.4092 27.7448 27.4215 27.7766 27.4337C27.8 27.4427 27.8231 27.4526 27.8467 27.4611C27.8727 27.4704 27.899 27.4788 27.9253 27.4876C27.9519 27.4964 27.9787 27.505 28.0056 27.5132C28.0379 27.5231 28.0704 27.5324 28.103 27.5414C28.1246 27.5473 28.1462 27.553 28.168 27.5585C28.2014 27.567 28.235 27.5749 28.2688 27.5824C28.2921 27.5876 28.3154 27.5931 28.3389 27.5978C28.3683 27.6037 28.398 27.6089 28.4277 27.614C28.4542 27.6186 28.4806 27.6237 28.5072 27.6277C28.5341 27.6318 28.5613 27.6345 28.5884 27.638C28.7341 27.6564 28.8828 27.667 29.0336 27.667C29.6777 27.6672 30.1998 28.1894 30.2 28.8335C30.2 29.4777 29.6777 29.9998 29.0336 30C25.81 30 23.2 27.3906 23.2 24.1667C23.1999 23.3536 22.9929 22.5895 22.6283 21.9243C22.6116 21.8938 22.5936 21.8639 22.5762 21.8338C22.0849 20.9832 21.3338 20.3024 20.4297 19.9007C20.2545 19.8229 20.0738 19.7552 19.888 19.699L19.7008 19.6469V21.8338C19.7008 22.4779 19.1785 23 18.5345 23.0002V28.8335C18.5345 29.4778 18.0115 30 17.3672 30C17.0581 29.9999 16.7778 29.8793 16.5691 29.683C16.5481 29.6632 16.528 29.6427 16.5085 29.6214C16.318 29.4138 16.2009 29.1375 16.2009 28.8335V23.0002H15.0345V28.8335C15.0345 28.9137 15.0259 28.9921 15.0106 29.0677C14.9983 29.128 14.9805 29.1863 14.9593 29.2429C14.7935 29.6851 14.3681 29.9999 13.8681 30C13.6042 30 13.3612 29.9119 13.1657 29.7641C13.0487 29.6757 12.9493 29.5659 12.8726 29.4403C12.7646 29.2634 12.7017 29.0559 12.7017 28.8335V27.667H10.3681V28.8335C10.3681 28.9137 10.3596 28.992 10.3442 29.0677C10.3319 29.128 10.3141 29.1863 10.2929 29.2429C10.1271 29.6851 9.70182 30 9.20173 30C8.93473 30 8.68911 29.9099 8.49251 29.759C8.37846 29.6715 8.28146 29.5634 8.20625 29.4403C8.09826 29.2634 8.03536 29.0559 8.03536 28.8335V23.0002H6.86812V28.8335L6.86214 28.9532C6.85185 29.0543 6.82736 29.1511 6.79293 29.2429C6.78909 29.2531 6.78593 29.2635 6.78182 29.2736C6.75861 29.3305 6.73047 29.3848 6.69893 29.4368C6.49446 29.7741 6.12496 30 5.70175 30C5.05758 29.9999 4.53537 29.4778 4.53537 28.8335V23.0002C3.89117 23.0002 3.36907 22.478 3.36899 21.8338V13.6666C3.25261 13.6666 3.14267 13.6498 3.04001 13.6205C2.33601 13.4194 1.98111 12.589 2.34446 11.9387C2.37015 11.8927 2.39946 11.8476 2.43247 11.8037L2.49057 11.7319L10.6569 2.39832C10.7441 2.29875 10.8439 2.21785 10.9517 2.15562ZM10.3681 23.0002V25.3332H12.7017V23.0002H10.3681ZM5.70175 13.6666V20.6673H17.3681V13.6666H5.70175ZM5.94015 11.3337H17.1297L11.5345 4.93809L5.94015 11.3337Z" fill="currentColor" style="fill:currentColor;fill:currentColor;fill-opacity:1;"/>
</svg>
