<svg width="33" height="32" viewBox="0 0 33 32" fill="none" xmlns="http://www.w3.org/2000/svg">
<path d="M9.86697 27.999V23.999C9.86688 23.9108 9.83164 23.8261 9.76931 23.7636C9.7068 23.7011 9.62139 23.666 9.53298 23.666H5.19997V27.999C5.19997 28.5513 4.75226 28.999 4.19997 28.999C3.64769 28.999 3.19997 28.5513 3.19997 27.999V15.999C3.20015 15.4469 3.6478 14.999 4.19997 14.999C4.75215 14.999 5.1998 15.4469 5.19997 15.999V21.666H9.53298C10.1518 21.666 10.7458 21.912 11.1834 22.3496C11.6208 22.7871 11.8669 23.3803 11.867 23.999V27.999C11.867 28.5512 11.4191 28.9988 10.867 28.999C10.3147 28.999 9.86697 28.5513 9.86697 27.999ZM15.2 27.999V18.333H9.53298C8.98096 18.3328 8.53316 17.885 8.53298 17.333C8.53298 16.7808 8.98085 16.3332 9.53298 16.333H15.2V11.666H4.19997C3.75939 11.666 3.37072 11.3776 3.24294 10.956C3.11524 10.5343 3.27863 10.0784 3.64529 9.83395L15.6453 1.83395L15.7752 1.76071C16.0886 1.61352 16.4606 1.63792 16.7547 1.83395L28.7547 9.83395C29.1213 10.0784 29.2847 10.5343 29.157 10.956C29.0292 11.3776 28.6406 11.666 28.2 11.666H17.2V16.333H22.867L22.9685 16.3379C23.473 16.3889 23.867 16.8151 23.867 17.333C23.8668 17.8507 23.4728 18.2761 22.9685 18.3271L22.867 18.333H17.2V27.999C17.2 28.5513 16.7523 28.999 16.2 28.999C15.6477 28.999 15.2 28.5513 15.2 27.999ZM20.533 27.999V23.999C20.5331 23.3407 20.8527 22.7662 21.2429 22.3759C21.6333 21.9856 22.2084 21.666 22.867 21.666H27.2V15.999C27.2002 15.4469 27.6478 14.999 28.2 14.999C28.7521 14.999 29.1998 15.4469 29.2 15.999V27.999C29.2 28.5513 28.7523 28.999 28.2 28.999C27.6477 28.999 27.2 28.5513 27.2 27.999V23.666H22.867C22.867 23.666 22.8609 23.6662 22.8494 23.6689C22.8377 23.6717 22.8205 23.6767 22.7996 23.6865C22.756 23.7069 22.7052 23.7419 22.657 23.79C22.6089 23.8381 22.5748 23.889 22.5545 23.9326C22.5446 23.9537 22.5387 23.9707 22.5359 23.9824C22.5336 23.9922 22.533 23.9977 22.533 23.999V27.999C22.533 28.5513 22.0853 28.999 21.533 28.999C20.9808 28.9988 20.533 28.5512 20.533 27.999ZM7.50271 9.66598H24.8972L16.2 3.86716L7.50271 9.66598Z" fill="currentColor" style="fill:currentColor;fill:currentColor;fill-opacity:1;"/>
</svg>
