<svg width="33" height="32" viewBox="0 0 33 32" fill="none" xmlns="http://www.w3.org/2000/svg">
<path fill-rule="evenodd" clip-rule="evenodd" d="M26.9929 13.2424L22.5599 6.93882C22.1419 6.34647 21.4819 6 20.7669 6H12.0329C11.3179 6 10.6579 6.34647 10.2399 6.93882L5.8069 13.2424C5.5429 13.6224 5.3999 14.0694 5.3999 14.5388V22.7647C5.3999 23.9941 6.3899 25 7.5999 25H25.1999C26.4099 25 27.3999 23.9941 27.3999 22.7647V14.5388C27.3999 14.0694 27.2569 13.6224 26.9929 13.2424ZM25.1999 22.7647H7.5999V14.5388L12.0329 8.23529H20.7669L25.1999 14.5388V22.7647ZM22.9999 20.5294H20.7999V14.9412H22.9999V20.5294ZM9.7999 14.9412H11.9999V20.5294H9.7999V14.9412ZM15.2999 10.4706H17.4999V16.0588H15.2999V10.4706Z" fill="currentColor" style="fill:currentColor;fill:currentColor;fill-opacity:1;"/>
</svg>
