<svg width="33" height="32" viewBox="0 0 33 32" fill="none" xmlns="http://www.w3.org/2000/svg">
<path fill-rule="evenodd" clip-rule="evenodd" d="M14.355 15.3955C14.8737 15.1647 15.5087 15.3681 15.771 15.9082L15.8188 16.0205L15.8462 16.1104C15.9612 16.5432 15.8477 17.1354 15.3452 17.4229C15.3433 17.4243 15.3412 17.4263 15.3394 17.4277C15.3247 17.4389 15.3086 17.4516 15.2905 17.4678C15.2544 17.5001 15.2024 17.554 15.1479 17.6357C15.0437 17.7925 14.8999 18.1015 14.8999 18.6611C14.8999 18.6397 14.9009 18.702 14.9946 18.8809C15.0771 19.0381 15.1946 19.2172 15.3286 19.4092L15.4526 19.5869C15.753 20.0283 16.1 20.6483 16.1001 21.3311C16.1 22.4848 15.4788 23.5489 14.5112 24.4297L14.4507 24.4844L14.3804 24.5234C14.3475 24.5417 14.098 24.701 13.8003 24.7012C13.5705 24.7012 13.3842 24.6179 13.2622 24.5439C13.1367 24.4677 13.0347 24.3747 12.9595 24.291L12.9263 24.2549L12.8999 24.2139C12.7208 23.948 12.6898 23.6421 12.7202 23.4053C12.7502 23.1722 12.8565 22.8786 13.1069 22.667C13.6728 22.1855 13.8844 21.7108 13.897 21.3633C13.8851 21.3305 13.864 21.2808 13.8296 21.2148C13.7577 21.0772 13.6544 20.9136 13.5396 20.7432C13.1809 20.2532 12.6999 19.5196 12.6997 18.6611C12.6998 17.533 13.0381 16.7416 13.4272 16.2148C13.6186 15.9559 13.8157 15.7688 13.9771 15.6406C14.0577 15.5766 14.1295 15.5269 14.187 15.4902C14.2157 15.4719 14.2409 15.4571 14.2612 15.4453C14.2713 15.4394 14.2806 15.4346 14.2876 15.4307C14.2916 15.4284 14.2974 15.4249 14.2993 15.4238L14.3267 15.4082L14.355 15.3955ZM13.8599 23.9932L13.8003 24.001C13.84 24.0009 13.8798 23.9901 13.9194 23.9736L13.8599 23.9932ZM13.7866 22.9912L13.8003 22.9795C13.838 22.9419 13.8716 22.9014 13.9067 22.8633C13.8677 22.9057 13.8288 22.9494 13.7866 22.9912ZM14.5591 21.1348C14.5853 21.2089 14.6001 21.2756 14.6001 21.3311L14.5894 21.2393C14.5823 21.2063 14.5722 21.1719 14.5591 21.1348ZM14.9946 20.167C15.0121 20.1952 15.0285 20.2242 15.0454 20.2529C14.9562 20.1013 14.8589 19.9546 14.7603 19.8174L14.9946 20.167ZM14.2476 18.917C14.2531 18.9336 14.2607 18.9498 14.2671 18.9668C14.2585 18.9439 14.2498 18.9217 14.2427 18.8994L14.2476 18.917ZM14.2642 17.998C14.2245 18.1887 14.1997 18.4087 14.1997 18.6611L14.2075 18.4141C14.2177 18.262 14.238 18.1238 14.2642 17.998ZM13.5054 23.2578L13.4673 23.3193C13.4662 23.3215 13.4654 23.3239 13.4644 23.3262C13.4762 23.3018 13.4898 23.2787 13.5054 23.2578Z" fill="currentColor" style="fill:currentColor;fill:currentColor;fill-opacity:1;"/>
<path fill-rule="evenodd" clip-rule="evenodd" d="M18.0757 15.4043C18.5116 15.2106 19.1252 15.2731 19.4702 15.7812L19.5356 15.8896L19.5796 15.9785C19.78 16.4372 19.7197 17.0655 19.1938 17.4209C19.1759 17.4428 19.1441 17.4869 19.1079 17.5576C19.0196 17.7304 18.8999 18.0749 18.8999 18.667C18.8999 18.6445 18.9005 18.7063 18.9946 18.8857C19.0781 19.0448 19.1974 19.2264 19.3335 19.4209C19.6521 19.8643 20.1001 20.5586 20.1001 21.334C20.0999 22.306 19.5596 23.3163 18.5894 24.3477L18.5884 24.3467C18.3757 24.5759 18.0732 24.7011 17.8003 24.7012C17.5227 24.7012 17.2128 24.5728 16.9995 24.3359C16.6001 23.892 16.6003 23.2214 16.9995 22.7773L17.2358 22.5039C17.4526 22.2435 17.612 22.0192 17.7212 21.8271C17.8511 21.5985 17.8883 21.45 17.896 21.3652C17.8841 21.3326 17.8635 21.2836 17.8296 21.2188C17.7577 21.0812 17.6545 20.9173 17.5396 20.7471C17.181 20.2577 16.6999 19.5248 16.6997 18.667C16.6997 17.5872 16.9728 16.8205 17.2749 16.3027C17.4099 16.0715 17.5489 15.898 17.6597 15.7725V15.5889L18.0757 15.4043ZM17.5688 23.9121C17.5714 23.9141 17.5741 23.916 17.5767 23.918C17.5566 23.903 17.5372 23.8863 17.52 23.8672L17.5688 23.9121ZM18.9946 20.1709C19.0322 20.2314 19.0686 20.293 19.103 20.3555L18.9946 20.1709C18.9196 20.05 18.8403 19.9334 18.7603 19.8223L18.9946 20.1709ZM18.2476 18.9219C18.2536 18.9401 18.262 18.9579 18.269 18.9766C18.2597 18.952 18.2503 18.9281 18.2427 18.9043L18.2476 18.9219ZM17.8794 16.6553C17.8551 16.6969 17.8321 16.7416 17.8081 16.7881C17.8619 16.6841 17.9158 16.5919 17.9692 16.5117L17.8794 16.6553ZM18.5151 16.0029H18.5933C18.6451 16.0073 18.6958 16.0202 18.7427 16.0439C18.6725 16.0083 18.5938 15.9957 18.5151 16.0029Z" fill="currentColor" style="fill:currentColor;fill:currentColor;fill-opacity:1;"/>
<path fill-rule="evenodd" clip-rule="evenodd" d="M23.1372 11.3008C24.3081 11.301 25.1001 12.2964 25.1001 13.4072V25.5947C25.1001 26.7055 24.3081 27.7009 23.1372 27.7012H9.6626C8.4917 27.7009 7.69971 26.7055 7.69971 25.5947V13.4072C7.69971 12.2964 8.4917 11.301 9.6626 11.3008H23.1372ZM9.94189 25.3633H22.8579V13.6387H9.94189V25.3633ZM9.05225 12.167C9.03811 12.1754 9.02501 12.1854 9.01123 12.1943C9.06015 12.1625 9.11037 12.1328 9.16357 12.1084L9.05225 12.167Z" fill="currentColor" style="fill:currentColor;fill:currentColor;fill-opacity:1;"/>
<path fill-rule="evenodd" clip-rule="evenodd" d="M10.3999 4.30078C11.8634 4.30078 13.1001 5.53745 13.1001 7.00098C13.1001 8.45277 11.9263 9.70117 10.3999 9.70117C8.87347 9.70117 7.69971 8.45277 7.69971 7.00098C7.69971 5.54919 8.87347 4.30078 10.3999 4.30078ZM10.3999 6.72656C10.2462 6.72656 10.1255 6.85054 10.1255 7.00098C10.1255 7.1272 10.2737 7.27539 10.3999 7.27539C10.5261 7.27539 10.6743 7.1272 10.6743 7.00098C10.6743 6.85054 10.5536 6.72656 10.3999 6.72656Z" fill="currentColor" style="fill:currentColor;fill:currentColor;fill-opacity:1;"/>
<path fill-rule="evenodd" clip-rule="evenodd" d="M16.3999 4.30078C17.8634 4.30078 19.1001 5.53745 19.1001 7.00098C19.1001 8.45277 17.9263 9.70117 16.3999 9.70117C14.8735 9.70117 13.6997 8.45277 13.6997 7.00098C13.6997 5.54919 14.8735 4.30078 16.3999 4.30078ZM16.3999 6.72656C16.2462 6.72656 16.1255 6.85054 16.1255 7.00098C16.1255 7.1272 16.2737 7.27539 16.3999 7.27539C16.5261 7.27539 16.6743 7.1272 16.6743 7.00098C16.6743 6.85054 16.5536 6.72656 16.3999 6.72656Z" fill="currentColor" style="fill:currentColor;fill:currentColor;fill-opacity:1;"/>
<path fill-rule="evenodd" clip-rule="evenodd" d="M22.3999 4.30078C23.8634 4.30078 25.1001 5.53745 25.1001 7.00098C25.1001 8.45277 23.9263 9.70117 22.3999 9.70117C20.8735 9.70117 19.6997 8.45277 19.6997 7.00098C19.6997 5.54919 20.8735 4.30078 22.3999 4.30078ZM22.3999 6.72656C22.2462 6.72656 22.1255 6.85054 22.1255 7.00098C22.1255 7.1272 22.2737 7.27539 22.3999 7.27539C22.5261 7.27539 22.6743 7.1272 22.6743 7.00098C22.6743 6.85054 22.5536 6.72656 22.3999 6.72656Z" fill="currentColor" style="fill:currentColor;fill:currentColor;fill-opacity:1;"/>
<path fill-rule="evenodd" clip-rule="evenodd" d="M24.3999 1.30078C26.865 1.30078 29.1001 3.48528 29.1001 5.93848V26.0635C29.1001 28.5167 26.865 30.7012 24.3999 30.7012H8.3999C5.93485 30.7012 3.69971 28.5167 3.69971 26.0635V5.93848C3.69971 3.48528 5.93485 1.30078 8.3999 1.30078H24.3999ZM8.3999 3.57617C7.13162 3.57617 5.98877 4.71668 5.98877 5.93848V26.0635C5.98877 27.2853 7.13162 28.4258 8.3999 28.4258H24.3999C25.6682 28.4258 26.811 27.2853 26.811 26.0635V5.93848C26.811 4.71668 25.6682 3.57617 24.3999 3.57617H8.3999Z" fill="currentColor" style="fill:currentColor;fill:currentColor;fill-opacity:1;"/>
</svg>
