<svg xmlns="http://www.w3.org/2000/svg" width="32" height="22" viewBox="0 0 32 22" fill="none">
  <path d="M30.1851 16.4684C30.1851 15.9622 30.1851 3.76002 30.1851 2.77195C30.1851 2.20983 29.7294 1.75408 29.1672 1.75408H15.1322L14.0806 0.43889C13.8874 0.197265 13.5949 0.0566406 13.2856 0.0566406H2.83275C2.27063 0.0566406 1.81488 0.512391 1.81488 1.07452C1.81488 1.38052 1.81488 16.1702 1.81488 16.4685C0.754375 16.8783 0 17.908 0 19.1113C0 20.6733 1.27075 21.944 2.83275 21.944C4.39475 21.944 5.6655 20.6732 5.6655 19.1113C5.6655 17.908 4.91106 16.8783 3.85063 16.4685V15.4831H28.1494V16.4685C27.089 16.8783 26.3345 17.908 26.3345 19.1113C26.3345 20.6733 27.6053 21.944 29.1672 21.944C30.7292 21.944 32 20.6732 32 19.1113C32 17.908 31.2456 16.8783 30.1851 16.4684ZM2.83275 19.9082C2.39331 19.9082 2.03581 19.5506 2.03581 19.1113C2.03581 18.6718 2.39331 18.3143 2.83275 18.3143C3.27219 18.3143 3.62969 18.6718 3.62969 19.1113C3.62969 19.5506 3.27213 19.9082 2.83275 19.9082ZM28.1494 13.4473H3.85063V11.5966H28.1494V13.4473ZM28.1494 9.5607H3.85063V6.84445H28.1494V9.5607ZM28.1494 4.8087H3.85063V2.09239H12.7963L13.8479 3.40758C14.041 3.6492 14.3336 3.78983 14.6429 3.78983H28.1494V4.8087ZM29.1672 19.9082C28.7279 19.9082 28.3703 19.5506 28.3703 19.1113C28.3703 18.6718 28.7279 18.3143 29.1672 18.3143C29.6067 18.3143 29.9642 18.6718 29.9642 19.1113C29.9642 19.5506 29.6066 19.9082 29.1672 19.9082Z" fill="currentColor" style="fill:currentColor;fill:currentColor;fill-opacity:1;"/>
</svg>