<svg width="32" height="32" viewBox="0 0 32 32" fill="none" xmlns="http://www.w3.org/2000/svg">
<path d="M30.1851 21.4684C30.1851 20.9622 30.1851 8.76002 30.1851 7.77195C30.1851 7.20983 29.7294 6.75408 29.1672 6.75408H15.1322L14.0806 5.43889C13.8874 5.19727 13.5949 5.05664 13.2856 5.05664H2.83275C2.27063 5.05664 1.81488 5.51239 1.81488 6.07452C1.81488 6.38052 1.81488 21.1702 1.81488 21.4685C0.754375 21.8783 0 22.908 0 24.1113C0 25.6733 1.27075 26.944 2.83275 26.944C4.39475 26.944 5.6655 25.6732 5.6655 24.1113C5.6655 22.908 4.91106 21.8783 3.85063 21.4685V20.4831H28.1494V21.4685C27.089 21.8783 26.3345 22.908 26.3345 24.1113C26.3345 25.6733 27.6053 26.944 29.1672 26.944C30.7292 26.944 32 25.6732 32 24.1113C32 22.908 31.2456 21.8783 30.1851 21.4684ZM2.83275 24.9082C2.39331 24.9082 2.03581 24.5506 2.03581 24.1113C2.03581 23.6718 2.39331 23.3143 2.83275 23.3143C3.27219 23.3143 3.62969 23.6718 3.62969 24.1113C3.62969 24.5506 3.27213 24.9082 2.83275 24.9082ZM28.1494 18.4473H3.85063V16.5966H28.1494V18.4473ZM28.1494 14.5607H3.85063V11.8445H28.1494V14.5607ZM28.1494 9.8087H3.85063V7.09239H12.7963L13.8479 8.40758C14.041 8.6492 14.3336 8.78983 14.6429 8.78983H28.1494V9.8087ZM29.1672 24.9082C28.7279 24.9082 28.3703 24.5506 28.3703 24.1113C28.3703 23.6718 28.7279 23.3143 29.1672 23.3143C29.6067 23.3143 29.9642 23.6718 29.9642 24.1113C29.9642 24.5506 29.6066 24.9082 29.1672 24.9082Z" fill="currentColor" style="fill:currentColor;fill:currentColor;fill-opacity:1;"/>
</svg>
