<svg width="32" height="32" viewBox="0 0 32 32" fill="none" xmlns="http://www.w3.org/2000/svg">
<path d="M14.9997 29.333V26.333H11.6238V26.332C11.1357 26.3321 10.66 26.18 10.2634 25.8955C9.86676 25.611 9.56914 25.2095 9.41282 24.7471V24.748L6.25266 15.4307L6.25364 15.4297C5.70635 13.8747 5.53771 12.2111 5.76438 10.5781C5.99168 8.9411 6.60896 7.38262 7.56321 6.0332C8.51761 4.68368 9.78183 3.5821 11.2497 2.82227C12.7177 2.06248 14.3468 1.66607 15.9997 1.66602C17.6526 1.66602 19.2818 2.06251 20.7497 2.82227C22.2178 3.5821 23.4828 4.6836 24.4372 6.0332C25.3914 7.38256 26.0078 8.94119 26.2351 10.5781C26.4624 12.2154 26.2937 13.8838 25.7429 15.4424L22.5866 24.7451L22.5876 24.7461C22.4314 25.2087 22.1337 25.6109 21.737 25.8955C21.3899 26.1445 20.9819 26.2931 20.5583 26.3262L20.3757 26.333H16.9997V29.333C16.9997 29.8853 16.552 30.333 15.9997 30.333C15.4476 30.3328 14.9997 29.8852 14.9997 29.333ZM15.9997 3.66602C14.6668 3.66607 13.3534 3.98595 12.1697 4.59863C10.9858 5.2114 9.96575 6.09911 9.19602 7.1875C8.42632 8.27587 7.92912 9.53314 7.74583 10.8535C7.58545 12.0089 7.66981 13.1832 7.99094 14.3008L8.14329 14.7764L8.14719 14.7881L11.3074 24.1055V24.1064L11.3279 24.1543C11.3519 24.2003 11.3869 24.24 11.4294 24.2705C11.4861 24.3111 11.5541 24.333 11.6238 24.333H20.3767L20.4284 24.3291C20.4797 24.3211 20.5285 24.301 20.571 24.2705C20.6277 24.2298 20.6708 24.1725 20.6931 24.1064V24.1055L23.8532 14.7881L23.8572 14.7764L24.0095 14.3008C24.3306 13.1832 24.415 12.0089 24.2546 10.8535C24.0713 9.53311 23.5732 8.27589 22.8034 7.1875C22.0338 6.09927 21.0145 5.21135 19.8308 4.59863C18.6469 3.98586 17.3328 3.66602 15.9997 3.66602ZM14.9997 16C14.9997 15.4478 15.4476 15.0002 15.9997 15C16.552 15 16.9997 15.4477 16.9997 16V19H17.3337C17.8859 19.0002 18.3337 19.4478 18.3337 20C18.3336 20.5521 17.8858 20.9998 17.3337 21H14.6667C14.1145 21 13.6668 20.5522 13.6667 20C13.6667 19.4477 14.1144 19 14.6667 19H14.9997V16ZM18.9997 12C18.9997 11.2045 18.6842 10.4415 18.1218 9.87891C17.5592 9.3163 16.7954 9 15.9997 9C15.2042 9.00009 14.4412 9.31637 13.8786 9.87891C13.3162 10.4415 12.9997 11.2045 12.9997 12C12.9997 12.5522 12.552 13 11.9997 13C11.4476 12.9998 10.9998 12.5521 10.9997 12C10.9997 10.6739 11.5269 9.40155 12.4646 8.46387C13.4022 7.52642 14.6739 7.00009 15.9997 7C17.3258 7 18.5982 7.52624 19.5359 8.46387C20.4735 9.40155 20.9997 10.6739 20.9997 12C20.9997 12.5522 20.552 13 19.9997 13C19.4476 12.9998 18.9998 12.5521 18.9997 12Z" fill="currentColor" style="fill:currentColor;fill:currentColor;fill-opacity:1;"/>
</svg>
