<svg width="32" height="32" viewBox="0 0 32 32" fill="none" xmlns="http://www.w3.org/2000/svg">
<g clip-path="url(#clip0_2989_44091)">
<path fill-rule="evenodd" clip-rule="evenodd" d="M31.3691 17.5518C31.8733 17.603 32.2666 18.0292 32.2666 18.5469C32.2666 19.0646 31.8733 19.4907 31.3691 19.542L31.2666 19.5469H29.7197V31H2.2666V19.5469H0.733398C0.181114 19.5469 -0.266602 19.0992 -0.266602 18.5469C-0.266602 17.9946 0.181114 17.5469 0.733398 17.5469H31.2666L31.3691 17.5518ZM4.2666 29H8.63965V19.5469H4.2666V29ZM10.6396 29H15V19.5469H10.6396V29ZM17 29H21.3604V19.5469H17V29ZM23.3604 29H27.7197V19.5469H23.3604V29Z" fill="currentColor" style="fill:currentColor;fill:currentColor;fill-opacity:1;"/>
<path fill-rule="evenodd" clip-rule="evenodd" d="M16 1C17.1345 1.00003 18.2585 1.22312 19.3066 1.65723C20.3547 2.09136 21.3072 2.72819 22.1094 3.53027C22.9116 4.33255 23.5482 5.28578 23.9824 6.33398C24.4165 7.38204 24.6406 8.50526 24.6406 9.63965V16C24.6406 16.5521 24.1927 16.9997 23.6406 17C23.0883 17 22.6406 16.5523 22.6406 16V12H17V16H15V12H9.36035V16C9.36035 16.5522 8.91252 16.9999 8.36035 17C7.80807 17 7.36035 16.5523 7.36035 16V9.63965C7.36044 7.3483 8.27039 5.1505 9.89062 3.53027C11.5108 1.91012 13.7087 1.00009 16 1ZM17 10H22.6406V9.63965C22.6406 8.76782 22.4684 7.9041 22.1348 7.09863C21.8011 6.29322 21.3117 5.5608 20.6953 4.94434C20.0789 4.32797 19.3464 3.83949 18.541 3.50586C18.0455 3.30064 17.5278 3.15673 17 3.07617V10ZM15 3.07617C13.6091 3.28794 12.3117 3.93738 11.3047 4.94434C10.0595 6.18949 9.36044 7.87874 9.36035 9.63965V10H15V3.07617Z" fill="currentColor" style="fill:currentColor;fill:currentColor;fill-opacity:1;"/>
</g>
<defs>
<clipPath id="clip0_2989_44091">
<rect width="32" height="32" fill="currentColor" style="fill:currentColor;fill-opacity:1;"/>
</clipPath>
</defs>
</svg>
