<svg width="32" height="32" viewBox="0 0 32 32" fill="none" xmlns="http://www.w3.org/2000/svg">
<path d="M22.9999 23.9999V19.6669H19.6669V23.9999C19.6669 24.5521 19.219 24.9997 18.6669 24.9999C18.1146 24.9999 17.6669 24.5522 17.6669 23.9999V19.6669H14.3329V23.9999C14.3329 24.5522 13.8852 24.9999 13.3329 24.9999C12.7808 24.9997 12.3329 24.5521 12.3329 23.9999V19.6669H8.99989V23.9999C8.99989 24.5522 8.55218 24.9999 7.99989 24.9999C7.44762 24.9999 6.99989 24.5522 6.99989 23.9999V19.6669H3.66688V26.6669C3.6669 27.1089 3.84262 27.5331 4.15517 27.8456C4.46761 28.1579 4.89116 28.3338 5.3329 28.3339H26.6669C27.1086 28.3338 27.5322 28.1579 27.8446 27.8456C28.1572 27.5331 28.3329 27.1089 28.3329 26.6669V19.6669H24.9999V23.9999C24.9999 24.5522 24.5522 24.9999 23.9999 24.9999C23.4476 24.9999 22.9999 24.5522 22.9999 23.9999ZM28.3329 15.3339C28.3329 13.3529 26.6478 11.6671 24.6669 11.6669C22.401 11.6669 20.4658 10.3673 19.5058 8.44717L19.4589 8.33975L19.3251 7.99209C18.6161 6.27543 17.3401 4.84841 15.705 3.95205C13.9608 2.99601 11.9275 2.70971 9.9872 3.14737C8.04714 3.58505 6.33363 4.71601 5.16884 6.32803C4.00406 7.94023 3.46821 9.92278 3.662 11.9022C3.66517 11.9346 3.66688 11.9674 3.66688 11.9999V17.6669H28.3329V15.3339ZM30.3329 26.6669C30.3329 27.6393 29.9472 28.5721 29.2597 29.2597C28.5721 29.9472 27.6392 30.3338 26.6669 30.3339H5.3329C4.36057 30.3338 3.42768 29.9472 2.74013 29.2597C2.0526 28.5721 1.6669 27.6393 1.66688 26.6669V12.0331C1.44323 9.58974 2.11001 7.14714 3.54774 5.15713C4.9981 3.14975 7.13192 1.74112 9.54774 1.1962C11.9636 0.65136 14.4953 1.00772 16.6669 2.19815C18.8128 3.37453 20.4592 5.28601 21.3085 7.57901C21.9525 8.84389 23.2095 9.6669 24.6669 9.6669C27.7524 9.66706 30.3329 12.2484 30.3329 15.3339V26.6669Z" fill="currentColor" style="fill:currentColor;fill:currentColor;fill-opacity:1;"/>
</svg>
