<svg width="32" height="32" viewBox="0 0 32 32" fill="none" xmlns="http://www.w3.org/2000/svg">
<path d="M25.2543 6.76145C23.5382 5.10373 21.2773 4.12629 18.8933 4.01141C16.5092 3.89654 14.1646 4.65207 12.2969 6.13711C11.8917 5.48729 11.3266 4.95199 10.6557 4.58219C9.98474 4.2124 9.23019 4.02042 8.46395 4.02456C7.69771 4.0287 6.94529 4.22881 6.27837 4.60583C5.61146 4.98286 5.05226 5.52423 4.65405 6.17838C4.25585 6.83253 4.0319 7.57767 4.00354 8.34281C3.97519 9.10794 4.14337 9.86759 4.49206 10.5494C4.84076 11.2312 5.35835 11.8124 5.99553 12.2377C6.63271 12.6629 7.36826 12.9181 8.1321 12.9789C7.81712 14.9078 8.11134 16.8868 8.97386 18.6409C9.02082 18.7308 9.03927 18.8329 9.02677 18.9335C9.01427 19.0341 8.97141 19.1286 8.90388 19.2043L5.9987 20.9524C5.25942 21.3414 4.67167 21.9663 4.32908 22.7277C3.98648 23.4891 3.90875 24.3432 4.10827 25.1539C4.30779 25.9646 4.77308 26.6852 5.43002 27.201C6.08695 27.7168 6.89774 27.9981 7.73321 28C7.8859 28 8.03845 27.991 8.19008 27.973C8.74566 27.9084 9.27938 27.7189 9.7512 27.4187C10.223 27.1186 10.6207 26.7155 10.9143 26.2399L12.9817 23.1162C13.0563 23.0433 13.1518 22.9955 13.2549 22.9796C13.358 22.9636 13.4635 22.9803 13.5566 23.0273C15.4228 23.9301 17.5301 24.209 19.5672 23.8228C21.6043 23.4366 23.4629 22.4057 24.8684 20.8825C26.7816 18.9993 27.8996 16.4549 27.9925 13.773C28.0442 12.4789 27.8277 11.188 27.3564 9.98141C26.8852 8.77483 26.1696 7.67858 25.2543 6.76145ZM5.9987 8.52059C5.9987 8.02666 6.14528 7.54382 6.41991 7.13313C6.69453 6.72244 7.08487 6.40235 7.54156 6.21333C7.99824 6.02431 8.50077 5.97485 8.98558 6.07121C9.4704 6.16757 9.91573 6.40542 10.2653 6.75469C10.6148 7.10395 10.8528 7.54894 10.9493 8.03338C11.0457 8.51782 10.9962 9.01995 10.807 9.47629C10.6179 9.93262 10.2975 10.3227 9.88653 10.5971C9.47552 10.8715 8.99231 11.0179 8.498 11.0179C7.83514 11.0179 7.19944 10.7548 6.73073 10.2865C6.26202 9.81814 5.9987 9.18293 5.9987 8.52059ZM14.4363 21.2332C13.9355 20.9854 13.3659 20.913 12.819 21.0275C12.272 21.142 11.7794 21.4367 11.4202 21.8645C11.3962 21.8935 11.3742 21.9234 11.3532 21.9544L9.22679 25.169C9.0172 25.5114 8.69559 25.7709 8.31644 25.9035C7.9373 26.0361 7.52394 26.0336 7.1464 25.8966C6.76885 25.7595 6.45034 25.4962 6.24482 25.1513C6.0393 24.8065 5.95941 24.4012 6.01869 24.0042C6.06153 23.7247 6.17122 23.4595 6.33848 23.2314C6.50573 23.0032 6.7256 22.8187 6.97942 22.6936L10.0196 20.8645C10.0639 20.838 10.106 20.808 10.1455 20.7746C10.5725 20.415 10.866 19.9224 10.979 19.376C11.092 18.8296 11.0178 18.261 10.7684 17.7618C10.1155 16.4452 9.87411 14.9628 10.0756 13.5073L18.5062 21.9314C17.1106 22.0944 15.6976 21.852 14.4363 21.2332ZM23.4548 19.47C22.6693 20.2566 21.7428 20.8886 20.7236 21.333C20.7146 21.3231 20.7116 21.3101 20.7016 21.3001L11.3572 11.962C11.8675 11.5446 12.2791 11.0197 12.5626 10.4247C12.846 9.82975 12.9943 9.17952 12.9967 8.52059C12.9967 8.40171 12.9707 8.28983 12.9617 8.17395C14.4418 6.80504 16.3844 6.04461 18.4012 6.04461C20.418 6.04461 22.3606 6.80504 23.8407 8.17395C24.5625 8.89927 25.1264 9.76599 25.4968 10.7196C25.8673 11.6732 26.0362 12.6931 25.9931 13.7151C25.9147 15.8872 25.0064 17.9467 23.4548 19.47Z" fill="currentColor" style="fill:currentColor;fill:currentColor;fill-opacity:1;"/>
</svg>
