<svg width="32" height="32" viewBox="0 0 32 32" fill="none" xmlns="http://www.w3.org/2000/svg">
<path d="M26.1865 25.9062H16V23.9062H26.1865V25.9062Z" fill="currentColor" style="fill:currentColor;fill:currentColor;fill-opacity:1;"/>
<path fill-rule="evenodd" clip-rule="evenodd" d="M5.81348 1C7.06519 1.00013 8.08004 2.01487 8.08008 3.2666C8.08008 4.1589 7.56297 4.92809 6.81348 5.29785V18.8135H27.4531C29.4119 18.8135 31 20.4016 31 22.3604V27.4531C31 29.4119 29.4119 31 27.4531 31H4.54688C2.58811 31 1 29.4119 1 27.4531V22.3604C1 20.4016 2.5881 18.8135 4.54688 18.8135H4.81348V5.29883C4.06356 4.92921 3.54688 4.15919 3.54688 3.2666C3.54691 2.01481 4.56168 1.00004 5.81348 1ZM4.54688 20.8135C3.69267 20.8135 3 21.5062 3 22.3604V27.4531C3 28.3073 3.69267 29 4.54688 29H27.4531C28.3073 29 29 28.3073 29 27.4531V22.3604C29 21.5062 28.3073 20.8135 27.4531 20.8135H4.54688ZM5.81348 3C5.66625 3.00004 5.54691 3.11938 5.54688 3.2666C5.54688 3.41386 5.66623 3.53317 5.81348 3.5332C5.96064 3.53307 6.08008 3.4138 6.08008 3.2666C6.08004 3.11944 5.96062 3.00013 5.81348 3Z" fill="currentColor" style="fill:currentColor;fill:currentColor;fill-opacity:1;"/>
<path d="M10.8945 8.64062C11.8682 8.62841 12.8354 8.80922 13.7383 9.17383C14.6411 9.5385 15.4632 10.0797 16.1553 10.7646C16.8472 11.4496 17.3966 12.2661 17.7705 13.165C18.1443 14.0639 18.3361 15.0285 18.334 16.002L16.334 15.998C16.3355 15.2894 16.1959 14.5869 15.9238 13.9326C15.6517 13.2784 15.2516 12.684 14.748 12.1855C14.2445 11.6872 13.6461 11.2937 12.9893 11.0283C12.3322 10.763 11.6284 10.6308 10.9199 10.6396L10.8945 8.64062Z" fill="currentColor" style="fill:currentColor;fill:currentColor;fill-opacity:1;"/>
<path d="M12.1865 13.4668C12.8861 13.4668 13.4531 14.0339 13.4531 14.7334C13.4531 15.433 12.8861 16 12.1865 16C11.487 16 10.9199 15.4329 10.9199 14.7334C10.92 14.0339 11.487 13.4668 12.1865 13.4668Z" fill="currentColor" style="fill:currentColor;fill:currentColor;fill-opacity:1;"/>
<path d="M10.9072 3.54688C14.2098 3.547 17.3776 4.85906 19.7129 7.19434C22.0481 9.52972 23.3603 12.6974 23.3604 16H21.3604C21.3603 13.2278 20.259 10.5687 18.2988 8.6084C16.3386 6.6482 13.6794 5.547 10.9072 5.54688V3.54688Z" fill="currentColor" style="fill:currentColor;fill:currentColor;fill-opacity:1;"/>
</svg>
