<svg width="32" height="32" viewBox="0 0 32 32" fill="none" xmlns="http://www.w3.org/2000/svg">
<g clip-path="url(#clip0_2989_44109)">
<path d="M5.85669 26.2852C5.85684 25.7331 6.30469 25.2854 6.85669 25.2852C7.37459 25.2852 7.80077 25.6792 7.85181 26.1836L7.85669 26.2852L7.86157 26.4629C7.90545 27.3455 8.27574 28.1827 8.90356 28.8105C9.57333 29.4803 10.4818 29.8564 11.429 29.8564C12.376 29.8563 13.2847 29.4802 13.9543 28.8105C14.6239 28.1408 15.0002 27.2322 15.0002 26.2852C15.0004 25.733 15.4481 25.2852 16.0002 25.2852C16.518 25.2853 16.9433 25.6793 16.9944 26.1836L17.0002 26.2852L17.0042 26.4629C17.048 27.3455 17.4184 28.1827 18.0461 28.8105C18.7159 29.4803 19.6243 29.8564 20.5715 29.8564C21.5187 29.8564 22.4272 29.4803 23.0969 28.8105C23.7666 28.1408 24.1428 27.2323 24.1428 26.2852C24.143 25.733 24.5906 25.2852 25.1428 25.2852C25.6607 25.2852 26.0869 25.6791 26.1379 26.1836L26.1428 26.2852L26.1467 26.4629C26.1906 27.3454 26.561 28.1827 27.1887 28.8105C27.8585 29.4803 28.767 29.8564 29.7141 29.8564H30.8567C31.4088 29.8564 31.8565 30.3044 31.8567 30.8564C31.8567 31.4087 31.409 31.8564 30.8567 31.8564H29.7141C28.2365 31.8564 26.8195 31.2694 25.7747 30.2246C25.54 29.9899 25.3298 29.7355 25.1428 29.4668C24.9558 29.7355 24.7457 29.9899 24.511 30.2246C23.4662 31.2694 22.0491 31.8564 20.5715 31.8564C19.0939 31.8564 17.6769 31.2695 16.6321 30.2246C16.3973 29.9898 16.1864 29.7357 15.9993 29.4668C15.8124 29.7353 15.6029 29.99 15.3684 30.2246C14.3237 31.2694 12.9064 31.8563 11.429 31.8564C9.95132 31.8564 8.53337 31.2695 7.48853 30.2246C7.25388 29.9899 7.04368 29.7355 6.85669 29.4668C6.66966 29.7355 6.45955 29.9899 6.22485 30.2246C5.18001 31.2695 3.76303 31.8564 2.2854 31.8564H1.14282C0.590537 31.8564 0.142822 31.4087 0.142822 30.8564C0.143047 30.3044 0.590676 29.8564 1.14282 29.8564H2.2854C3.2326 29.8564 4.14102 29.4803 4.81079 28.8105C5.48056 28.1408 5.85669 27.2324 5.85669 26.2852ZM25.2854 21.7139V18.1426H15.8567V21.7139C15.8567 22.2662 15.409 22.7139 14.8567 22.7139C14.3046 22.7136 13.8567 22.266 13.8567 21.7139V5.71387C13.8567 4.76672 13.4805 3.85822 12.8108 3.18848C12.141 2.51883 11.2325 2.14258 10.2854 2.14258C9.3383 2.14265 8.42972 2.51877 7.76001 3.18848C7.09031 3.85821 6.71415 4.76675 6.71411 5.71387C6.71411 6.26615 6.2664 6.71387 5.71411 6.71387C5.16189 6.71379 4.71411 6.26611 4.71411 5.71387C4.71415 4.23632 5.30118 2.81922 6.34595 1.77441C7.39073 0.729634 8.80787 0.142652 10.2854 0.142578C11.7629 0.142578 13.18 0.729699 14.2249 1.77441C15.2697 2.81923 15.8567 4.23628 15.8567 5.71387V9.28516H25.2854V5.71387C25.2854 4.76672 24.9092 3.85822 24.2395 3.18848C23.5697 2.51879 22.6612 2.14258 21.7141 2.14258C21.1619 2.1425 20.7141 1.69482 20.7141 1.14258C20.7141 0.590339 21.1619 0.142652 21.7141 0.142578C23.1917 0.142578 24.6087 0.729655 25.6536 1.77441C26.6984 2.81923 27.2854 4.23628 27.2854 5.71387V21.7139C27.2854 22.2662 26.8377 22.7139 26.2854 22.7139C25.7332 22.7137 25.2854 22.2661 25.2854 21.7139ZM15.8567 16.1426H25.2854V11.2852H15.8567V16.1426Z" fill="currentColor" style="fill:currentColor;fill:currentColor;fill-opacity:1;"/>
</g>
<defs>
<clipPath id="clip0_2989_44109">
<rect width="32" height="32" fill="currentColor" style="fill:currentColor;fill-opacity:1;"/>
</clipPath>
</defs>
</svg>
