<svg width="32" height="32" viewBox="0 0 32 32" fill="none" xmlns="http://www.w3.org/2000/svg">
<path d="M24.8667 3.00001C25.7329 3.00001 26.4885 2.99743 27.0923 3.08302C27.7305 3.1735 28.3429 3.37923 28.8355 3.89747L29.0044 4.09473C29.3662 4.5654 29.5172 5.11429 29.5894 5.6797C29.6688 6.3022 29.6665 7.08445 29.6665 8.00001V18.667C29.6665 19.5826 29.6688 20.3648 29.5894 20.9873C29.5172 21.5528 29.3664 22.1016 29.0044 22.5723L28.8355 22.7686C28.3427 23.2872 27.7296 23.4926 27.0913 23.583C26.4874 23.6686 25.7322 23.667 24.8667 23.667H9.51026L6.1587 28.5645C5.84686 29.0202 5.22485 29.137 4.76905 28.8252C4.31328 28.5134 4.19653 27.8913 4.50831 27.4356L7.08643 23.666C6.24051 23.6661 5.50164 23.667 4.9087 23.583C4.2704 23.4926 3.65734 23.2873 3.16456 22.7686L3.16553 22.7676C2.67988 22.257 2.49307 21.634 2.41065 20.9883C2.33122 20.3658 2.3335 19.5832 2.3335 18.667V8.00001L2.34229 6.7295C2.35174 6.34188 2.37097 5.99081 2.41065 5.6797C2.49312 5.03358 2.67918 4.40954 3.16456 3.89845L3.35499 3.71778C3.81118 3.32976 4.35021 3.16216 4.9087 3.08302C5.51256 2.99745 6.2678 3.00001 7.13331 3.00001H24.8667ZM8.89796 5.00001C8.70331 5.95329 8.23389 6.83687 7.53565 7.53516C6.67687 8.39394 5.53781 8.90687 4.3335 8.98731V17.6787C5.53775 17.7591 6.67688 18.2722 7.53565 19.1309C8.11732 19.7125 8.54006 20.4233 8.77784 21.1953L13.1753 14.7686L13.2368 14.6875C13.5638 14.3001 14.1376 14.2154 14.5649 14.5078C15.0208 14.8197 15.1376 15.4426 14.8257 15.8984L10.8784 21.667H12.4732C12.6423 21.0702 12.9613 20.5206 13.4077 20.0742C14.0954 19.3866 15.028 19 16.0005 19C16.9728 19.0001 17.9057 19.3867 18.5933 20.0742C19.0395 20.5206 19.3577 21.0704 19.5269 21.667H23.1021C23.2967 20.7135 23.7659 19.8293 24.4644 19.1309C25.3231 18.2722 26.4623 17.7592 27.6665 17.6787V8.98731C26.4623 8.9068 25.3231 8.39387 24.4644 7.53516C23.7662 6.83688 23.2967 5.95324 23.1021 5.00001H19.5269C19.3577 5.59657 19.0395 6.1465 18.5933 6.59278C17.9486 7.2374 17.0883 7.61712 16.1821 7.66212L16.0005 7.667C15.0281 7.667 14.0953 7.28031 13.4077 6.59278C12.9614 6.14645 12.6423 5.59668 12.4732 5.00001H8.89796ZM16.0005 21C15.5585 21 15.1343 21.1757 14.8218 21.4883C14.766 21.5441 14.7163 21.6047 14.6694 21.667H17.3315C17.2846 21.6045 17.2341 21.5442 17.1782 21.4883C16.8658 21.1759 16.4423 21.0001 16.0005 21ZM4.34034 19.6875C4.34667 20.12 4.35952 20.4572 4.39503 20.7354C4.43741 21.0673 4.50004 21.2286 4.55811 21.3193L4.61378 21.3906L4.61475 21.3916L4.6753 21.4453C4.753 21.5013 4.89139 21.5613 5.18897 21.6035C5.56985 21.6575 6.0736 21.6629 6.82374 21.6641C6.67587 21.2477 6.44001 20.8634 6.12159 20.5449C5.63981 20.0632 5.01065 19.764 4.34034 19.6875ZM27.6597 19.6875C26.9894 19.7641 26.3601 20.0632 25.8784 20.5449C25.5599 20.8635 25.3232 21.2475 25.1753 21.6641C25.9261 21.6629 26.4299 21.6575 26.811 21.6035C27.2077 21.5473 27.3217 21.4595 27.3862 21.3916L27.4419 21.3193C27.5003 21.2279 27.5626 21.0661 27.605 20.7344C27.6405 20.4564 27.6533 20.1195 27.6597 19.6875ZM16.0161 11L16.1187 11.0049C16.6228 11.0562 17.0161 11.4823 17.0161 12C17.0161 12.5177 16.6228 12.9438 16.1187 12.9951L16.0161 13H16.0005C15.4482 13 15.0005 12.5523 15.0005 12C15.0005 11.4477 15.4482 11 16.0005 11H16.0161ZM6.82374 5.00196C6.0736 5.00312 5.56985 5.00951 5.18897 5.06348C4.89122 5.10571 4.75297 5.16564 4.6753 5.22169L4.61475 5.2754C4.54427 5.3496 4.45154 5.48983 4.39503 5.93263C4.35957 6.21047 4.34668 6.54695 4.34034 6.97852C5.01069 6.90198 5.63981 6.60288 6.12159 6.1211C6.44008 5.80256 6.67591 5.41853 6.82374 5.00196ZM25.1763 5.00196C25.3241 5.4185 25.56 5.80257 25.8784 6.1211C26.3601 6.60281 26.9894 6.90192 27.6597 6.97852C27.6533 6.54693 27.6404 6.21048 27.605 5.93263C27.5626 5.60019 27.5004 5.43809 27.4419 5.34669L27.3862 5.2754C27.3215 5.2073 27.2073 5.11965 26.811 5.06348C26.4303 5.00956 25.9269 5.00312 25.1763 5.00196ZM14.6694 5.00001C14.7162 5.06228 14.7661 5.123 14.8218 5.17872C15.1343 5.49118 15.5585 5.667 16.0005 5.667L16.1646 5.65821C16.5461 5.6204 16.9047 5.45209 17.1782 5.17872C17.234 5.1229 17.2847 5.0624 17.3315 5.00001H14.6694Z" fill="currentColor" style="fill:currentColor;fill:currentColor;fill-opacity:1;"/>
</svg>
