<svg width="32" height="32" viewBox="0 0 32 32" fill="none" xmlns="http://www.w3.org/2000/svg">
<path fill-rule="evenodd" clip-rule="evenodd" d="M16 27C16.5523 27 16.9999 27.4474 17 28C17 28.5519 16.5523 29 16 29C15.4478 28.9999 15 28.5518 15 28C15.0001 27.4474 15.4479 27.0001 16 27ZM16 27.6318C15.7969 27.6323 15.6324 27.7961 15.6318 28C15.6322 28.2032 15.7969 28.3677 16 28.3682C16.2037 28.3678 16.3678 28.2033 16.3682 28C16.3677 27.7961 16.2036 27.6322 16 27.6318Z" fill="currentColor" style="fill:currentColor;fill:currentColor;fill-opacity:1;"/>
<path fill-rule="evenodd" clip-rule="evenodd" d="M17.6553 3.60645C18.2584 3.63745 18.8036 3.7744 19.2666 3.98828L19.46 4.08496C19.8987 4.32136 20.2673 4.63896 20.5088 5.04395L20.6104 5.22656C20.8286 5.65628 20.9319 6.1099 20.9307 6.55371L20.9238 6.76465C20.8892 7.25162 20.7373 7.70698 20.5234 8.1123L20.5225 8.11133C20.2786 8.57394 19.9514 8.9849 19.5889 9.33691L19.5879 9.33594C19.449 9.47117 19.3039 9.60767 19.1621 9.73926C19.0188 9.87226 18.8798 10.0015 18.749 10.1289L18.748 10.1299C18.5682 10.3038 18.4146 10.4669 18.2998 10.6084C18.6273 10.5866 19.054 10.5291 19.7607 10.4326L19.9131 10.417C19.9637 10.4137 20.0149 10.4121 20.0664 10.4121H20.0684L20.2588 10.4199C20.7108 10.4529 21.2072 10.5984 21.6826 10.8809L21.8867 11.0127C22.3574 11.3417 22.7903 11.824 23.0693 12.4756L23.1445 12.665C23.3095 13.1156 23.4004 13.6299 23.4004 14.2021L23.3857 14.5977C23.3094 15.7093 23.0108 16.6466 22.5869 17.3896C22.1633 18.1304 21.6163 18.6831 21.0342 19.0234L21.0332 19.0244C20.6464 19.2489 20.2277 19.3906 19.7988 19.3994H19.793L19.7461 19.4004H19.7432C19.2973 19.4004 18.8801 19.3041 18.5098 19.1279C18.1408 18.9533 17.8282 18.7056 17.5713 18.4209C17.0612 17.8541 16.7561 17.1418 16.5859 16.4404C16.5405 16.2512 16.4975 16.0539 16.4561 15.8633C16.4142 15.6711 16.3734 15.4839 16.3301 15.3047C16.2734 15.0682 16.2114 14.8576 16.1504 14.6885L16.0791 14.8379C15.9481 15.1261 15.7985 15.5007 15.5752 16.0508L15.5742 16.0527C15.3841 16.5147 15.0234 16.9639 14.5273 17.3232L14.5264 17.3242C14.0872 17.6404 13.5202 17.8866 12.8613 17.9434L12.5732 17.9561C11.9194 17.9565 11.2172 17.766 10.5059 17.3438L10.2012 17.1484C8.38273 15.902 7.6017 14.2277 7.59961 12.877L7.60449 12.707C7.62448 12.314 7.71364 11.9361 7.89551 11.6025L8.01367 11.4033C8.26191 11.0183 8.57924 10.7136 8.9375 10.4961L9.12012 10.3945C9.60975 10.1447 10.1389 10.0498 10.6494 10.0498C11.1222 10.0499 11.5909 10.131 12.0322 10.2617C12.2265 10.3192 12.4254 10.3834 12.6182 10.4453L13.1836 10.6201L13.1855 10.6211L13.4492 10.6924C13.5572 10.7193 13.6574 10.7392 13.7471 10.7549C13.7157 10.7071 13.6835 10.6559 13.6465 10.6025C13.4661 10.3434 13.2213 10.0236 12.8643 9.55371L12.8633 9.55273C12.6852 9.31637 12.5475 9.03514 12.4482 8.72461C12.3741 8.4896 12.3214 8.23067 12.2998 7.95703L12.2891 7.67871C12.2883 7.09912 12.4343 6.45559 12.8115 5.85059L12.9629 5.62695C13.2867 5.1853 13.7336 4.78529 14.3115 4.4541L14.6113 4.29395C15.5969 3.80557 16.5462 3.59961 17.3926 3.59961L17.6553 3.60645ZM18.9346 17.915C18.9696 17.9352 19.0056 17.9534 19.042 17.9707C18.9679 17.9354 18.8965 17.8945 18.8281 17.8477L18.9346 17.915ZM19.9863 12.0928L19.9834 12.0938C19.3722 12.1762 18.9263 12.2394 18.5332 12.2715C18.4651 12.9435 18.1352 13.5355 17.6484 13.9443C17.7235 14.1274 17.7857 14.3148 17.8389 14.5L17.9434 14.9014C17.9765 15.0378 18.0084 15.1752 18.0381 15.3096L18.2012 16.0439L18.2793 16.3232C18.3374 16.5049 18.4075 16.6758 18.4873 16.8301L18.6143 17.0479L18.7529 17.2373C18.8482 17.3522 18.949 17.4451 19.0547 17.5176L19.2168 17.6113L19.332 17.6582C19.4515 17.6997 19.5853 17.7236 19.7432 17.7236H19.7705C19.8442 17.7226 20.0017 17.6898 20.2002 17.5732L20.3535 17.4736C20.5094 17.3607 20.6752 17.2064 20.8359 17.0078L20.9941 16.7949C21.355 16.2661 21.6568 15.5015 21.7275 14.4805C21.7338 14.3828 21.7372 14.2903 21.7373 14.2031L21.7285 13.9609C21.6965 13.4983 21.5769 13.1624 21.4238 12.9092L21.3447 12.7891C21.1534 12.5236 20.9076 12.3422 20.6592 12.2295L20.5527 12.1855C20.3648 12.1147 20.1871 12.0879 20.0664 12.0879C20.0332 12.0879 20.0055 12.0901 19.9863 12.0928ZM13.9336 17.2207C13.8765 17.2506 13.8172 17.278 13.7568 17.3047C13.8851 17.2481 14.0069 17.1853 14.1201 17.1152L13.9336 17.2207ZM10.6484 11.7256C10.3392 11.7256 10.0783 11.784 9.87305 11.8896L9.87207 11.8887C9.66767 11.9944 9.49608 12.1492 9.35156 12.4121L9.34961 12.415C9.31302 12.4803 9.26212 12.638 9.2627 12.876V12.8779C9.26067 13.5833 9.70625 14.785 11.1348 15.7617L11.3496 15.8984C11.8374 16.1883 12.2428 16.2776 12.5723 16.2783C12.969 16.278 13.3005 16.1458 13.5625 15.959L13.5635 15.958L13.6572 15.8857C13.8666 15.7123 13.9969 15.517 14.0342 15.4219L14.0361 15.416L14.3262 14.7041C14.4126 14.4945 14.4906 14.3096 14.5674 14.1406C14.5822 14.1078 14.5974 14.0757 14.6123 14.0439C14.0967 13.6646 13.7311 13.0909 13.6221 12.4287C13.3138 12.3882 13.0106 12.313 12.7256 12.2314C12.5167 12.171 12.3085 12.1048 12.1133 12.042L11.5625 11.8691C11.2483 11.7763 10.9335 11.7256 10.6484 11.7256ZM17.2598 14.0498C17.2838 14.1061 17.3066 14.1634 17.3281 14.2217C17.284 14.1023 17.2354 13.9865 17.1797 13.876L17.2598 14.0498ZM14.8936 13.7549C14.9316 13.7814 14.9709 13.8061 15.0107 13.8301L14.8936 13.7549C14.8553 13.7283 14.8176 13.7 14.7812 13.6709L14.8936 13.7549ZM17.4619 13.5781C17.3971 13.6376 17.3287 13.6932 17.2568 13.7441L17.3613 13.665C17.4298 13.6097 17.4946 13.5498 17.5557 13.4863L17.4619 13.5781ZM14.3174 13.1533C14.3424 13.1927 14.369 13.231 14.3965 13.2686L14.3174 13.1533C14.2924 13.1138 14.2685 13.0725 14.2461 13.0312L14.3174 13.1533ZM16.7139 13.0586C16.7249 13.0515 16.7372 13.0465 16.748 13.0391L16.7598 13.0303C16.7451 13.0406 16.729 13.0489 16.7139 13.0586ZM15.3877 13.0391C15.3971 13.0455 15.4074 13.0505 15.417 13.0566C15.3744 13.0292 15.3328 13.0003 15.2939 12.9678L15.3877 13.0391ZM17.0371 12.7588C17.0033 12.804 16.9673 12.8474 16.9277 12.8877L17.0068 12.7998C17.0176 12.7866 17.0269 12.7724 17.0371 12.7588ZM16.0674 11.1777C15.87 11.1781 15.692 11.2477 15.5498 11.3672L15.4912 11.4209C15.3418 11.5727 15.2502 11.7801 15.25 12.0146C15.2505 12.248 15.3417 12.4537 15.4912 12.6064L15.5498 12.6611C15.6921 12.7805 15.8705 12.8483 16.0674 12.8486C16.2927 12.8483 16.493 12.759 16.6426 12.6074L16.6963 12.5479C16.8148 12.4026 16.8848 12.2186 16.8848 12.0137L16.8809 11.9277C16.8613 11.7289 16.7747 11.5538 16.6436 11.4209C16.4943 11.2692 16.2932 11.178 16.0674 11.1777ZM18.1064 12.4326C18.0975 12.4777 18.0879 12.5224 18.0762 12.5664L18.1064 12.4326C18.1154 12.3876 18.1238 12.3419 18.1299 12.2959L18.1064 12.4326ZM17.2178 12.416C17.2217 12.4045 17.2269 12.3935 17.2305 12.3818L17.2383 12.3525C17.2323 12.374 17.2249 12.395 17.2178 12.416ZM17.2441 12.3271C17.2496 12.3061 17.2564 12.2852 17.2607 12.2637L17.2627 12.248C17.2577 12.2748 17.2509 12.301 17.2441 12.3271ZM13.416 11.9912C13.5124 12.0103 13.6085 12.0263 13.7041 12.0381L13.416 11.9912C13.3196 11.9722 13.2238 11.9502 13.127 11.9258L13.416 11.9912ZM16.0674 10.7783C16.3968 10.7787 16.6917 10.9091 16.9111 11.124C16.7198 10.9366 16.4714 10.8129 16.1924 10.7842L16.0674 10.7783ZM18.0977 10.2285C18.0814 10.247 18.0663 10.266 18.0508 10.2842C18.119 10.2046 18.1937 10.1216 18.2744 10.0381L18.0977 10.2285ZM17.3926 5.27539C16.8866 5.27539 16.2901 5.38302 15.6309 5.66602L15.3447 5.79785C14.7511 6.09276 14.4161 6.42892 14.2197 6.74316L14.2188 6.74219C14.0232 7.05683 13.9515 7.37762 13.9512 7.67871L13.957 7.82324C13.9683 7.9653 13.9956 8.09861 14.0322 8.21484L14.0713 8.32324C14.0848 8.35664 14.0988 8.387 14.1123 8.41406L14.1836 8.5332L14.1855 8.53516C14.5355 8.99599 14.7972 9.3364 15.0088 9.63965L15.0615 9.71875C15.3687 9.5801 15.7091 9.502 16.0674 9.50195C16.3695 9.50195 16.659 9.55781 16.9268 9.6582C17.0434 9.50426 17.1693 9.35919 17.2979 9.22266L17.5889 8.92871C17.889 8.63622 18.2058 8.35372 18.4346 8.13086L18.6211 7.9375C18.7981 7.74001 18.9461 7.53142 19.0547 7.3252C19.1629 7.11913 19.2298 6.92185 19.2559 6.73633L19.2686 6.55469C19.2683 6.34547 19.2188 6.13557 19.0811 5.90137L19.0791 5.89844C19.0306 5.81489 18.8719 5.64803 18.5742 5.51172L18.5723 5.51074C18.3172 5.39228 17.9775 5.301 17.5713 5.28027L17.3926 5.27539ZM19.5557 8.79395C19.4765 8.88199 19.3951 8.96773 19.3105 9.0498C19.4796 8.88563 19.6393 8.70921 19.7842 8.52148L19.5557 8.79395ZM13.7539 8.59277C13.7613 8.60747 13.7699 8.62104 13.7773 8.63477C13.7511 8.58611 13.7244 8.53162 13.7002 8.47168L13.7539 8.59277ZM20.083 8.08008C20.0666 8.10804 20.0493 8.13552 20.0322 8.16309C20.0807 8.08508 20.1272 8.00592 20.1699 7.9248L20.083 8.08008ZM13.5781 8.02441C13.581 8.04258 13.5856 8.0603 13.5889 8.07812C13.5757 8.0064 13.5647 7.93206 13.5586 7.85547L13.5781 8.02441ZM12.707 7.33496C12.7033 7.36862 12.7009 7.40221 12.6982 7.43555C12.7022 7.38576 12.7074 7.33561 12.7139 7.28516L12.707 7.33496ZM13.7275 6.82031C13.6854 6.91741 13.6521 7.01471 13.626 7.11133L13.6709 6.9668C13.6878 6.91834 13.7066 6.86881 13.7275 6.82031ZM19.5781 6.02441C19.6156 6.13154 19.6405 6.23729 19.6543 6.34277L19.6123 6.13184C19.5928 6.06077 19.568 5.9892 19.5371 5.91699L19.5781 6.02441ZM20.4424 5.89648C20.4575 5.95148 20.4712 6.00641 20.4824 6.06152L20.4424 5.89648C20.4273 5.8416 20.4106 5.78702 20.3916 5.73242L20.4424 5.89648ZM20.166 5.24902C20.2286 5.35431 20.283 5.46125 20.3291 5.56934L20.2539 5.4082C20.2268 5.35473 20.1973 5.30171 20.166 5.24902Z" fill="currentColor" style="fill:currentColor;fill:currentColor;fill-opacity:1;"/>
<path fill-rule="evenodd" clip-rule="evenodd" d="M16.5859 0.614258C22.6049 0.915364 27.3998 5.82451 27.4004 11.8477C27.3998 17.3464 23.402 21.9123 18.127 22.8955V23.3662L18.1367 23.4639C18.1556 23.5675 18.2073 23.6915 18.3271 23.8555C18.4466 24.0185 18.6274 24.2026 18.8594 24.3955L19.1084 24.5908L19.1094 24.5918L19.3916 24.7949C19.8771 25.131 20.4331 25.4553 21.001 25.7998L21.6836 26.2246L21.6855 26.2256L22.1182 26.5156C22.4738 26.7642 22.8129 27.0337 23.1006 27.3447L23.2676 27.5361L23.2686 27.5381L23.4443 27.7812C23.6104 28.0379 23.7437 28.3368 23.793 28.6797L23.8154 28.8838C23.8204 28.9507 23.8222 29.0172 23.8223 29.083L23.8164 29.2695C23.7849 29.6991 23.636 30.0946 23.3975 30.4072L23.3984 30.4082C23.1313 30.7609 22.7898 30.9783 22.4805 31.1152L22.4775 31.1172C21.8655 31.3819 21.2848 31.3973 21.0293 31.4004H21.0244L20.8926 31.3975H10.8301L10.6973 31.3994C10.5464 31.399 10.2985 31.3908 10.0059 31.3408H10.0039C9.7142 31.29 9.35955 31.1965 9.00488 30.9971C8.76782 30.8624 8.5236 30.672 8.32422 30.4082C8.05101 30.051 7.89671 29.5841 7.89941 29.083C7.89954 28.9497 7.9097 28.8153 7.92871 28.6807L7.97266 28.4609C8.02758 28.2481 8.11416 28.0532 8.2168 27.8789L8.32422 27.7109C8.43683 27.5477 8.56351 27.3998 8.69629 27.2637L8.69824 27.2617L8.97559 27.002C9.26437 26.7502 9.58417 26.5224 9.91113 26.3066L10.584 25.8838C10.8122 25.7445 11.0415 25.6067 11.2646 25.4717C11.7157 25.1986 12.1431 24.9338 12.5098 24.667L12.5107 24.666L12.8525 24.4023C13.1631 24.1447 13.38 23.9073 13.4883 23.7139L13.5391 23.6113C13.5801 23.5169 13.5935 23.4408 13.5938 23.3682V22.8389C8.62183 21.7837 4.84738 17.5331 4.61133 12.3623L4.59961 11.8477C4.60021 5.63035 9.70923 0.599973 16 0.599609L16.5859 0.614258ZM22.5195 30.6484C22.4527 30.6864 22.3858 30.7206 22.3193 30.75C22.4526 30.691 22.589 30.6163 22.7188 30.5205L22.5195 30.6484ZM10.1025 29.7646C10.1205 29.7693 10.1391 29.7713 10.1572 29.7754C10.1006 29.7624 10.0439 29.7488 9.99023 29.7305L10.1025 29.7646ZM21.7031 29.7393C21.6614 29.7526 21.6185 29.765 21.5752 29.7754L21.7031 29.7393C21.7448 29.7259 21.786 29.7106 21.8242 29.6943L21.7031 29.7393ZM9.78906 29.6416C9.81824 29.6582 9.84999 29.6735 9.88379 29.6885C9.81594 29.6584 9.75726 29.6252 9.70801 29.5889L9.78906 29.6416ZM15.5732 23.3672L15.5615 23.6035C15.5096 24.1448 15.2809 24.6211 14.9912 25.0117L14.9922 25.0127C14.663 25.4584 14.2431 25.8273 13.8057 26.1562L13.8047 26.1572C12.9501 26.7961 11.8819 27.3744 11.1162 27.8691L11.1143 27.8701C10.5785 28.2131 10.185 28.5264 10.0049 28.7549L10.0029 28.7568C9.90161 28.8838 9.8885 28.9482 9.8877 28.9531V28.9561C9.88039 29.0066 9.87795 29.049 9.87793 29.085C9.87883 29.155 9.88745 29.1883 9.8916 29.2012C9.89446 29.2099 9.89769 29.2174 9.9082 29.2324L9.94531 29.2666L10.0459 29.3232L10.0508 29.3252L10.2031 29.377C10.2611 29.392 10.3251 29.4042 10.3916 29.4141C10.522 29.4333 10.6366 29.4384 10.6904 29.4375H10.7344C10.7394 29.4374 10.7427 29.4366 10.7441 29.4365H10.751L10.7686 29.4355H20.5547V29.3555L20.9971 29.4375H21.0264C21.0978 29.4374 21.234 29.4329 21.376 29.4082L21.377 29.4072L21.5811 29.3584C21.642 29.3388 21.6944 29.3169 21.7324 29.2949L21.7344 29.2939L21.791 29.2549C21.8019 29.2457 21.8078 29.2381 21.8115 29.2334C21.8229 29.2172 21.827 29.2096 21.8301 29.2002C21.8343 29.187 21.8425 29.1541 21.8438 29.085L21.834 28.959V28.9561C21.8332 28.9506 21.8282 28.923 21.7949 28.8662C21.7603 28.808 21.699 28.7262 21.6045 28.6299L21.6035 28.6289C21.4098 28.4302 21.1032 28.1951 20.7178 27.9424C20.3318 27.6878 19.8918 27.4289 19.4268 27.1475C18.9669 26.8692 18.4869 26.5714 18.043 26.25L18.042 26.249C17.4571 25.8219 16.8857 25.3279 16.5107 24.6777L16.5098 24.6758C16.2939 24.2974 16.148 23.8519 16.1484 23.3672V23.0928C16.0991 23.0935 16.0496 23.0967 16 23.0967C15.8562 23.0967 15.714 23.092 15.5732 23.0859V23.3672ZM23.417 29.2402C23.4141 29.2791 23.4094 29.3175 23.4043 29.3555C23.4162 29.2676 23.4233 29.1773 23.4229 29.085L23.417 29.2402ZM9.54688 28.7275C9.54248 28.7366 9.53997 28.7462 9.53613 28.7549C9.54344 28.7383 9.5512 28.7209 9.56055 28.7031L9.54688 28.7275ZM19.6328 26.8057C20.0916 27.0835 20.5419 27.3481 20.9365 27.6084C21.33 27.8664 21.6655 28.1197 21.8896 28.3496L21.7021 28.1729C21.4948 27.9924 21.2318 27.8019 20.9365 27.6084C20.3445 27.2179 19.6282 26.8165 18.9443 26.3779L19.6328 26.8057ZM20.7998 26.1465C21.0262 26.2838 21.251 26.4212 21.4678 26.5605C21.0343 26.2819 20.5698 26.0085 20.1211 25.7354L20.7998 26.1465ZM12.7451 24.9902C11.9815 25.5459 10.9852 26.0801 10.1309 26.6406L10.793 26.2246C11.4692 25.8119 12.1725 25.4069 12.7451 24.9902ZM18.0654 25.7676C18.1244 25.813 18.1847 25.857 18.2451 25.9014C18.1137 25.8047 17.985 25.7063 17.8613 25.6045L18.0654 25.7676ZM14.4316 25.0654C14.3893 25.1123 14.3463 25.1588 14.3018 25.2041L14.4316 25.0654C14.474 25.0185 14.5148 24.9714 14.5547 24.9229L14.4316 25.0654ZM16.5889 23.7734C16.5899 23.7784 16.5917 23.7831 16.5928 23.7881C16.5843 23.7474 16.5764 23.7065 16.5703 23.665L16.5889 23.7734ZM16 2.5625C13.5575 2.5625 11.3377 3.47576 9.66309 4.97656L9.33594 5.28418C7.63043 6.96727 6.57944 9.28425 6.5791 11.8486C6.5796 14.4124 7.63042 16.729 9.33594 18.4121L9.66309 18.7197C11.3377 20.22 13.5576 21.1331 16 21.1338C18.6054 21.1331 20.9568 20.0942 22.6641 18.4121L22.9766 18.0889C24.396 16.5483 25.2952 14.5411 25.4092 12.3262L25.4219 11.8477C25.4214 9.44367 24.4976 7.25711 22.9766 5.60645L22.6641 5.28418C20.9569 3.60161 18.6055 2.5625 16 2.5625ZM9.05469 18.6973C9.15408 18.7952 9.25683 18.8897 9.36035 18.9834L9.05469 18.6973ZM26.9531 12.8516C26.9403 12.9897 26.9243 13.1271 26.9062 13.2637C26.9459 12.9636 26.974 12.6598 26.9883 12.3525L26.9531 12.8516ZM7.51172 4.94727C7.39962 5.08121 7.29113 5.21819 7.18555 5.35742L7.51172 4.94727C7.62394 4.81315 7.73891 4.6823 7.85742 4.55371L7.51172 4.94727ZM11.2314 2.06934C11.101 2.13129 10.9732 2.19783 10.8457 2.26465C11.1298 2.11571 11.4205 1.97695 11.7188 1.85254L11.2314 2.06934Z" fill="currentColor" style="fill:currentColor;fill:currentColor;fill-opacity:1;"/>
</svg>
