<svg width="32" height="32" viewBox="0 0 32 32" fill="none" xmlns="http://www.w3.org/2000/svg">
<path d="M17.667 7.98619C17.667 7.05881 17.6661 6.4285 17.624 5.94908C17.5929 5.59541 17.5431 5.38794 17.4883 5.25279L17.4326 5.13951C17.2528 4.83735 16.9825 4.60042 16.6621 4.46177L16.5215 4.40904C16.3809 4.36274 16.1585 4.33552 15.6895 4.39732C15.4508 4.42877 15.1775 4.47874 14.8506 4.54576L13.6914 4.79771L10.2246 5.56724C9.61435 5.70285 9.20882 5.79426 8.89844 5.88755C8.67484 5.95478 8.53792 6.01271 8.44238 6.06724L8.35938 6.12095C8.14475 6.27557 7.96974 6.4783 7.84961 6.71275L7.80176 6.81529C7.75437 6.92564 7.71423 7.08211 7.69141 7.39244C7.66767 7.71567 7.66699 8.13153 7.66699 8.75669V27.0008H17.667V7.98619ZM14.6797 15.0008C15.232 15.0008 15.6797 15.4486 15.6797 16.0008C15.6796 16.553 15.2319 17.0008 14.6797 17.0008H14.667C14.1148 17.0008 13.6671 16.553 13.667 16.0008C13.667 15.4486 14.1147 15.0008 14.667 15.0008H14.6797ZM19.667 28.0008C19.6668 28.5529 19.219 29.0007 18.667 29.0008H4C3.44778 29.0008 3.0001 28.553 3 28.0008C3 27.4486 3.44772 27.0008 4 27.0008H5.66699V8.75669C5.66699 8.1606 5.66593 7.65932 5.69629 7.24595C5.72758 6.82023 5.79499 6.41952 5.96387 6.02623L6.07031 5.80064C6.33461 5.28496 6.71836 4.838 7.19043 4.49791L7.32129 4.40904C7.63187 4.21023 7.96516 4.07917 8.32324 3.97154C8.72014 3.85226 9.20923 3.74438 9.79102 3.61509L13.2578 2.84459L14.4502 2.5858C14.8109 2.51203 15.1365 2.4534 15.4287 2.4149C16.0214 2.33684 16.5915 2.32553 17.1475 2.50865L17.4561 2.62584C18.1611 2.93082 18.7556 3.45119 19.1514 4.11607L19.2549 4.30748C19.4625 4.72854 19.5555 5.18515 19.6045 5.66685H21.0664C21.7966 5.66685 22.4046 5.66648 22.8994 5.70689C23.4059 5.74827 23.8814 5.83814 24.3311 6.06724L24.584 6.20884C25.1579 6.56094 25.6251 7.06552 25.9326 7.6688H25.9336C26.1627 8.11849 26.2526 8.5949 26.2939 9.10142C26.3343 9.59608 26.333 10.2036 26.333 10.9335V27.0008H28C28.5523 27.0008 29 27.4486 29 28.0008C28.9999 28.553 28.5522 29.0008 28 29.0008H25.333C24.7809 29.0007 24.3331 28.5529 24.333 28.0008V10.9335C24.333 10.1705 24.333 9.65795 24.3008 9.26353C24.2773 8.97643 24.2394 8.80182 24.1963 8.6815L24.1514 8.57701C24.0116 8.30276 23.7992 8.07306 23.5381 7.91294L23.4229 7.84849C23.3021 7.78709 23.1186 7.73129 22.7363 7.70005C22.3419 7.66786 21.8294 7.66685 21.0664 7.66685H19.665C19.6651 7.77096 19.667 7.87741 19.667 7.98619V28.0008Z" fill="currentColor" style="fill:currentColor;fill:currentColor;fill-opacity:1;"/>
</svg>
