<svg width="32" height="32" viewBox="0 0 32 32" fill="none" xmlns="http://www.w3.org/2000/svg">
<path fill-rule="evenodd" clip-rule="evenodd" d="M20 5.66604C21.1912 5.66603 21.9332 5.66157 22.5693 5.78811C25.0814 6.28801 27.0452 8.25155 27.5449 10.7637C27.6377 11.2303 27.6588 11.7538 27.6641 12.4697C29.2045 12.9042 30.334 14.3197 30.334 15.999V19.2578C30.334 21.2974 29.2689 23.087 27.666 24.1055V25.3321C27.666 25.8843 27.2183 26.3321 26.666 26.3321C26.114 26.3317 25.666 25.8841 25.666 25.3321V24.8975C25.3183 24.9633 24.9597 24.999 24.5928 24.999H7.4082C7.04068 24.999 6.68134 24.9625 6.33301 24.8965V25.3321C6.33301 25.8843 5.88529 26.3321 5.33301 26.3321C4.78084 26.3319 4.33301 25.8843 4.33301 25.3321V24.1045C2.73093 23.0859 1.66699 21.2967 1.66699 19.2578V15.999C1.667 14.3202 2.79525 12.9047 4.33496 12.4697C4.34016 11.7538 4.36226 11.2303 4.45508 10.7637C4.95485 8.25154 6.91855 6.28798 9.43066 5.78811C10.0668 5.66157 10.8089 5.66604 12 5.66604H20ZM26.667 14.3321C25.7465 14.3321 25 15.0785 25 15.999V17.5987C25 18.7399 24.0748 19.6649 22.9336 19.6651H9.06738C7.92597 19.6651 7 18.74 7 17.5987V15.999C6.99999 15.0787 6.2542 14.3324 5.33398 14.3321C4.41351 14.3321 3.667 15.0785 3.66699 15.999V19.2578C3.66699 21.3238 5.34226 22.999 7.4082 22.999H24.5928C26.6586 22.9989 28.334 21.3237 28.334 19.2578V15.999C28.334 15.0786 27.5874 14.3322 26.667 14.3321ZM12 7.66603C10.7131 7.66603 10.2155 7.67064 9.82129 7.74904C8.10229 8.09096 6.75891 9.43532 6.41699 11.1543C6.35914 11.4453 6.34031 11.7924 6.33496 12.4717C7.87292 12.9077 8.99999 14.3213 9 15.999V17.5987C9 17.6355 9.03059 17.6651 9.06738 17.6651H15V7.66603H12ZM17 17.6651H22.9336C22.9703 17.6649 23 17.6354 23 17.5987V15.999C23 14.3217 24.1264 12.908 25.6641 12.4717C25.6587 11.7924 25.6408 11.4453 25.583 11.1543C25.241 9.43533 23.8978 8.09098 22.1787 7.74904C21.7846 7.67062 21.287 7.66604 20 7.66603H17V17.6651Z" fill="currentColor" style="fill:currentColor;fill:currentColor;fill-opacity:1;"/>
</svg>
