<svg width="32" height="32" viewBox="0 0 32 32" fill="none" xmlns="http://www.w3.org/2000/svg">
<path fill-rule="evenodd" clip-rule="evenodd" d="M5.88903 8.05134C6.14888 8.09583 6.33753 8.28541 6.44927 8.47318C6.5809 8.69454 6.64997 8.9754 6.64997 9.26377V25.7501C6.64997 26.0384 6.5809 26.3193 6.44927 26.5407C6.32153 26.7553 6.09327 26.9723 5.77299 26.9723C5.4527 26.9723 5.22444 26.7553 5.0967 26.5407C4.96508 26.3193 4.89601 26.0384 4.89601 25.7501V9.26377C4.89601 8.9754 4.96508 8.69454 5.0967 8.47318C5.22444 8.25852 5.4527 8.0415 5.77299 8.0415L5.88903 8.05134ZM5.50571 26.4354C5.52905 26.4612 5.554 26.4835 5.5799 26.5023C5.55214 26.4821 5.52575 26.4577 5.50095 26.4295L5.50571 26.4354Z" fill="currentColor" style="fill:currentColor;fill:currentColor;fill-opacity:1;"/>
<path fill-rule="evenodd" clip-rule="evenodd" d="M19.1598 25.1591C19.4285 25.1592 19.6896 25.2331 19.8951 25.3735C20.0975 25.5118 20.286 25.7485 20.286 26.0657C20.286 26.3829 20.0975 26.6196 19.8951 26.758C19.6896 26.8983 19.4285 26.9723 19.1598 26.9723H17.7102C17.4415 26.9723 17.1804 26.8983 16.975 26.758C16.7977 26.6369 16.6313 26.4405 16.5926 26.1808L16.584 26.0657L16.5926 25.9507C16.6313 25.691 16.7977 25.4946 16.975 25.3735C17.1804 25.2331 17.4415 25.1592 17.7102 25.1591H19.1598Z" fill="currentColor" style="fill:currentColor;fill:currentColor;fill-opacity:1;"/>
<path fill-rule="evenodd" clip-rule="evenodd" d="M25.0038 25.1591C25.2725 25.1592 25.5337 25.2331 25.7391 25.3735C25.9416 25.5119 26.13 25.7486 26.13 26.0657C26.13 26.3829 25.9416 26.6196 25.7391 26.758C25.5337 26.8983 25.2725 26.9723 25.0038 26.9723H23.5542C23.2855 26.9723 23.0244 26.8983 22.819 26.758C22.6417 26.6369 22.4753 26.4405 22.4366 26.1808L22.428 26.0657L22.4366 25.9507C22.4753 25.691 22.6417 25.4946 22.819 25.3735C23.0244 25.2331 23.2855 25.1592 23.5542 25.1591H25.0038Z" fill="currentColor" style="fill:currentColor;fill:currentColor;fill-opacity:1;"/>
<path fill-rule="evenodd" clip-rule="evenodd" d="M17.948 11.0623C19.7743 11.0623 21.26 12.5981 21.26 14.4862C21.26 16.3742 19.7743 17.9101 17.948 17.9101C16.1217 17.9101 14.636 16.3742 14.636 14.4862C14.636 12.5981 16.1217 11.0623 17.948 11.0623ZM17.948 13.4576C17.4 13.4576 16.9531 13.9196 16.9531 14.4862C16.9531 15.0527 17.4 15.5147 17.948 15.5147C18.496 15.5147 18.9429 15.0527 18.9429 14.4862C18.9429 13.9196 18.496 13.4576 17.948 13.4576ZM16.5916 14.7743C16.5951 14.7918 16.5999 14.8091 16.604 14.8264C16.5985 14.8033 16.5931 14.7801 16.5888 14.7566L16.5916 14.7743ZM16.6725 13.9296C16.6023 14.1007 16.564 14.2889 16.564 14.4862C16.564 14.2396 16.6248 14.0074 16.7315 13.8047L16.6725 13.9296ZM17.948 13.0554C17.7095 13.0554 17.485 13.1182 17.2888 13.2285L17.4096 13.1685C17.5752 13.0959 17.7571 13.0554 17.948 13.0554Z" fill="currentColor" style="fill:currentColor;fill:currentColor;fill-opacity:1;"/>
<path d="M17.6332 8.0592L17.7159 8.08084C17.7423 8.08913 17.768 8.10027 17.7939 8.11132L17.7949 8.11033C17.8472 8.13258 17.8967 8.16117 17.9432 8.19293L17.9442 8.19195C17.9949 8.22622 18.0411 8.26556 18.0812 8.307C18.1207 8.34791 18.1573 8.39424 18.1896 8.44466L18.2343 8.52136C18.2475 8.54703 18.2596 8.57384 18.2705 8.60101L18.299 8.68459C18.3072 8.71267 18.3144 8.7411 18.3199 8.76916C18.3311 8.82628 18.338 8.88707 18.338 8.94812L18.3332 9.03859C18.3303 9.06819 18.3254 9.09783 18.3199 9.1261V9.12807C18.3143 9.15586 18.3071 9.18402 18.299 9.21165L18.2714 9.29327L18.2705 9.29622C18.2491 9.34902 18.221 9.39899 18.1906 9.44666L18.1915 9.44765C18.1584 9.49998 18.1212 9.54785 18.0812 9.58924C18.0409 9.63087 17.9962 9.66844 17.949 9.70134L17.948 9.70233C17.9005 9.73514 17.8489 9.76303 17.7949 9.78591L17.7939 9.78492C17.741 9.80752 17.6868 9.82478 17.6332 9.83606L17.6341 9.83704C17.5748 9.84954 17.5159 9.85474 17.461 9.85474C17.4058 9.85474 17.3477 9.84927 17.2888 9.83704L17.2869 9.83606C17.2333 9.82461 17.1788 9.80822 17.1262 9.78591L17.1243 9.78492C17.0985 9.7738 17.073 9.76125 17.0482 9.74756L16.974 9.70233L16.9731 9.70134C16.9255 9.6683 16.8809 9.63069 16.8408 9.58924L16.8418 9.58826C16.7982 9.5437 16.7618 9.49765 16.7324 9.45256L16.7315 9.4506C16.7157 9.4262 16.7011 9.40072 16.6877 9.37488L16.6516 9.29523L16.6506 9.29327C16.6292 9.23912 16.6132 9.18327 16.6021 9.12807L16.6011 9.12512C16.5895 9.06485 16.5841 9.00508 16.584 8.94812C16.584 8.89164 16.5891 8.8306 16.6011 8.76916C16.6122 8.71304 16.6293 8.65634 16.6516 8.60101C16.6735 8.54601 16.7005 8.49383 16.7315 8.44565L16.7324 8.44368L16.7828 8.37386C16.8005 8.35151 16.8205 8.32971 16.8418 8.30798L16.8408 8.307C16.8811 8.26532 16.927 8.22679 16.9769 8.19293C17.0234 8.16103 17.0734 8.13358 17.1252 8.11132L17.1271 8.11033L17.2061 8.08084C17.2328 8.07243 17.2601 8.06593 17.2869 8.06019L17.2888 8.0592L17.3744 8.04642C17.4606 8.03755 17.548 8.04146 17.6332 8.0592Z" fill="currentColor" style="fill:currentColor;fill:currentColor;fill-opacity:1;"/>
<path fill-rule="evenodd" clip-rule="evenodd" d="M17.461 5.02075C22.7582 5.02075 27.104 9.24654 27.104 14.4862C27.104 19.7258 22.7582 23.9516 17.461 23.9516C12.1638 23.9516 7.81803 19.7258 7.81801 14.4862C7.81801 9.24654 12.1638 5.02075 17.461 5.02075ZM17.461 7.42201C13.452 7.42201 10.2264 10.6114 10.2264 14.4862C10.2264 18.3609 13.452 21.5503 17.461 21.5503C21.47 21.5503 24.6956 18.3609 24.6956 14.4862C24.6956 10.6114 21.47 7.42201 17.461 7.42201ZM12.337 20.0114C12.3954 20.0634 12.4559 20.1127 12.5159 20.1629C12.45 20.1077 12.3838 20.053 12.3199 19.9957L12.337 20.0114ZM25.0285 15.383C25.034 15.3381 25.041 15.2933 25.0457 15.2482L25.0466 15.2364C25.0416 15.2855 25.0345 15.3342 25.0285 15.383ZM18.4055 5.47111C18.5174 5.48228 18.6287 5.49637 18.7394 5.51143C18.4751 5.4755 18.2074 5.44921 17.9366 5.43571L18.4055 5.47111Z" fill="currentColor" style="fill:currentColor;fill:currentColor;fill-opacity:1;"/>
<path fill-rule="evenodd" clip-rule="evenodd" d="M5.9423 6.04438H5.9461L6.02885 6.067L6.10399 6.09453L6.10685 6.09552L6.1858 6.13387L6.25904 6.1791L6.26094 6.18008L6.32942 6.23318C6.35144 6.25191 6.37308 6.27144 6.39315 6.29218L6.3922 6.29316C6.55579 6.46222 6.64983 6.69418 6.64997 6.9333L6.64521 7.02377C6.64224 7.05362 6.63753 7.08363 6.6319 7.11227L6.63094 7.11128C6.61926 7.17318 6.60251 7.23048 6.58244 7.28042L6.58148 7.27943C6.5601 7.33306 6.53392 7.38413 6.50349 7.43185L6.50444 7.43283C6.4713 7.48537 6.43237 7.53194 6.3922 7.57344L6.39315 7.57443C6.35353 7.61539 6.30791 7.65212 6.25904 7.68554L6.25999 7.68652C6.2124 7.71939 6.16093 7.74819 6.10685 7.77109L6.1059 7.77011C6.08004 7.78115 6.0541 7.79136 6.0279 7.79961L5.9461 7.82124C5.89076 7.83288 5.83206 7.83992 5.77299 7.83992C5.71388 7.83992 5.65523 7.83289 5.59987 7.82124C5.5454 7.80974 5.49144 7.79321 5.43913 7.77109L5.43722 7.77011C5.38496 7.7476 5.33425 7.71914 5.28694 7.68652C5.23751 7.65279 5.19198 7.6149 5.15282 7.57443C5.13271 7.55363 5.11383 7.53127 5.09575 7.50854L5.04439 7.43775L5.04344 7.43676C5.00974 7.38459 4.98332 7.3308 4.96259 7.27845L4.96354 7.27746C4.95363 7.25264 4.94319 7.22683 4.935 7.19978L4.91313 7.11227C4.90125 7.05144 4.89601 6.99014 4.89601 6.9333C4.89608 6.69331 4.98951 6.46101 5.15282 6.29218L5.21655 6.23318C5.23861 6.21443 5.26211 6.19665 5.28599 6.18008L5.28694 6.1791L5.35923 6.13387C5.38441 6.11993 5.41075 6.10787 5.43722 6.0965L5.44388 6.09355L5.59987 6.04438L5.68738 6.0316C5.77398 6.02287 5.86026 6.02797 5.9423 6.04438ZM5.67787 6.43968L5.58656 6.46819L5.50285 6.51441C5.47608 6.53298 5.45103 6.55425 5.42866 6.57734L5.36779 6.65404C5.35169 6.67908 5.33842 6.70613 5.32689 6.73369C5.35111 6.67614 5.38538 6.62209 5.42866 6.57734C5.45103 6.55425 5.47608 6.53298 5.50285 6.51441C5.52913 6.4963 5.55732 6.48075 5.58656 6.46819C5.61615 6.45613 5.64679 6.44624 5.67787 6.43968ZM5.95942 6.46918C5.98895 6.48174 6.01696 6.49736 6.04312 6.51539C6.06992 6.53401 6.09491 6.55516 6.11731 6.57833C6.1605 6.62294 6.19392 6.67628 6.21814 6.73369C6.20665 6.70626 6.1942 6.67898 6.17819 6.65404L6.11731 6.57833C6.09491 6.55516 6.06992 6.53401 6.04312 6.51539C6.01696 6.49736 5.98895 6.48174 5.95942 6.46918Z" fill="currentColor" style="fill:currentColor;fill:currentColor;fill-opacity:1;"/>
<path fill-rule="evenodd" clip-rule="evenodd" d="M29.8263 2C30.4705 2.00008 31 2.5362 31 3.20555V29.7945C31 30.4637 30.4704 30.9999 29.8263 31H2.17375C1.52957 30.9999 1 30.4637 1 29.7945V3.20555C1 2.53618 1.52959 2.00008 2.17375 2H29.8263ZM3.3475 28.5899H28.6525V4.41011H3.3475V28.5899Z" fill="currentColor" style="fill:currentColor;fill:currentColor;fill-opacity:1;"/>
</svg>
