<svg width="32" height="32" viewBox="0 0 32 32" fill="none" xmlns="http://www.w3.org/2000/svg">
<path d="M12.6562 21.8877H10.5234V15.292H12.6562V21.8877Z" fill="currentColor" style="fill:currentColor;fill:currentColor;fill-opacity:1;"/>
<path d="M12.6562 11.0664H10.5234V6.78027H12.6562V11.0664Z" fill="currentColor" style="fill:currentColor;fill:currentColor;fill-opacity:1;"/>
<path fill-rule="evenodd" clip-rule="evenodd" d="M23.1807 3.59961C23.8815 3.59981 24.4918 3.8513 24.9873 4.3457L25.1611 4.53711C25.5409 4.99519 25.7333 5.5396 25.7334 6.1543V25.8467C25.7334 26.4602 25.5406 27.0036 25.1611 27.4619L24.9873 27.6533C24.4925 28.1481 23.8822 28.4002 23.1807 28.4004H8.82129C8.11894 28.4003 7.50868 28.1482 7.01367 27.6533C6.51866 27.1583 6.26563 26.5486 6.26562 25.8467V6.15332C6.26563 5.45215 6.51906 4.84234 7.01367 4.34668L7.2041 4.17188C7.66211 3.79226 8.20675 3.59969 8.82129 3.59961H23.1807ZM23.3994 27.9902L23.5586 27.9697C23.5668 27.9684 23.5748 27.9653 23.583 27.9639C23.5227 27.9745 23.4618 27.9845 23.3994 27.9902ZM24.7041 27.3711C24.6055 27.4697 24.501 27.5554 24.3926 27.6309C24.4433 27.5956 24.4944 27.5589 24.543 27.5186L24.7041 27.3711ZM8.40039 25.8467C8.40039 25.9913 8.44273 26.0824 8.51367 26.1533C8.58422 26.2238 8.6757 26.2665 8.82129 26.2666H23.1807C23.3246 26.2664 23.4156 26.2239 23.4863 26.1533C23.5395 26.1001 23.5775 26.0352 23.5928 25.9453L23.6006 25.8467V14.2471H8.40039V25.8467ZM8.23047 26.4355C8.27623 26.4813 8.32649 26.5196 8.37988 26.5518C8.34914 26.5332 8.31923 26.5133 8.29102 26.4902L8.23047 26.4355ZM23.7695 26.4355L23.8232 26.376C23.8319 26.3654 23.8387 26.3537 23.8467 26.3428C23.8231 26.3748 23.7985 26.4065 23.7695 26.4355ZM6.70117 26.252C6.70158 26.2543 6.70271 26.2565 6.70312 26.2588C6.69173 26.1958 6.68273 26.1317 6.67676 26.0664L6.70117 26.252ZM25.333 6.1543V25.8467C25.333 25.9891 25.3209 26.1264 25.2969 26.2588C25.3084 26.1954 25.3182 26.1311 25.3242 26.0654L25.333 25.8467V6.1543ZM8.01465 26.0176C8.01751 26.0338 8.02167 26.0496 8.02539 26.0654C8.01544 26.0234 8.00774 25.98 8.00391 25.9346L8.01465 26.0176ZM8.82031 5.7334C8.67586 5.7334 8.58458 5.77589 8.51367 5.84668C8.44309 5.91726 8.40046 6.00854 8.40039 6.1543V12.1133H23.6006V6.15332C23.6006 6.00887 23.5571 5.91759 23.4863 5.84668C23.4156 5.77607 23.3246 5.73356 23.1807 5.7334H8.82031ZM23.9092 5.75488C23.9454 5.82471 23.9709 5.9005 23.9854 5.98242L23.9678 5.90234C23.9462 5.82469 23.9133 5.75316 23.8701 5.6875L23.9092 5.75488ZM8.23047 5.56445C8.18219 5.61277 8.14248 5.66583 8.10938 5.72266C8.12933 5.68847 8.15134 5.65514 8.17676 5.62402L8.23047 5.56445ZM23.5068 5.3916C23.6048 5.43024 23.6928 5.4877 23.7695 5.56445L23.71 5.50977C23.6277 5.4424 23.5343 5.39507 23.4307 5.36621L23.5068 5.3916ZM8.64844 5.34766C8.63424 5.35016 8.62028 5.35328 8.60645 5.35645C8.64673 5.34719 8.68902 5.34058 8.73242 5.33691L8.64844 5.34766ZM7.03516 4.93945C7.03221 4.94368 7.02927 4.94791 7.02637 4.95215C7.06404 4.89716 7.10485 4.84353 7.14844 4.79102L7.03516 4.93945ZM24.7041 4.62891L24.5625 4.49902C24.5597 4.49662 24.5565 4.49457 24.5537 4.49219C24.6048 4.53518 24.6554 4.58028 24.7041 4.62891ZM8.41602 4.03418C8.41111 4.03505 8.40626 4.03621 8.40137 4.03711C8.46685 4.02506 8.53359 4.01596 8.60156 4.00977L8.41602 4.03418ZM23.1797 4C23.3241 4 23.4635 4.01243 23.5977 4.03711C23.5328 4.02517 23.4667 4.01593 23.3994 4.00977L23.1797 4ZM6.67676 5.93457C6.67721 5.92966 6.67823 5.92482 6.67871 5.91992C6.67817 5.92549 6.67629 5.93094 6.67578 5.93652L6.67676 5.93457Z" fill="currentColor" style="fill:currentColor;fill:currentColor;fill-opacity:1;"/>
</svg>
