<svg width="32" height="32" viewBox="0 0 32 32" fill="none" xmlns="http://www.w3.org/2000/svg">
<path fill-rule="evenodd" clip-rule="evenodd" d="M17.311 4.42773C17.6258 4.47115 17.9051 4.66214 18.0571 4.94727L20.3979 9.33594H25.8413L25.9438 9.34082C26.0471 9.35136 26.1453 9.37844 26.2368 9.41797H28.8413L28.9438 9.42285C29.4479 9.47429 29.8413 9.90037 29.8413 10.418C29.8413 10.9356 29.4479 11.3616 28.9438 11.4131L28.8413 11.418H26.8413V23.9355C26.8413 26.2693 25.1073 28.3358 22.7642 28.3359H8.91846C6.57524 28.3359 4.84131 26.2694 4.84131 23.9355V11.418H2.84131C2.28902 11.418 1.84131 10.9703 1.84131 10.418C1.84131 9.86568 2.28902 9.41797 2.84131 9.41797H5.4458C5.56715 9.36567 5.70081 9.33594 5.84131 9.33594H11.2847L13.6255 4.94727L13.6987 4.83105C13.8852 4.574 14.1853 4.41797 14.5083 4.41797H17.1743L17.311 4.42773ZM6.84131 23.9355C6.84131 25.3574 7.86299 26.3359 8.91846 26.3359H22.7642C23.8196 26.3358 24.8413 25.3573 24.8413 23.9355V11.418H6.84131V23.9355ZM13.5522 9.33594H18.1304L16.5747 6.41797H15.1079L13.5522 9.33594Z" fill="currentColor" style="fill:currentColor;fill:currentColor;fill-opacity:1;"/>
</svg>
