<svg width="32" height="32" viewBox="0 0 32 32" fill="none" xmlns="http://www.w3.org/2000/svg">
<path fill-rule="evenodd" clip-rule="evenodd" d="M31.1025 1.00488C31.6067 1.05621 32 1.48232 32 2V30C32 30.5523 31.5523 31 31 31H24C23.4477 31 23 30.5523 23 30V29C23 25.9294 23.9471 23.6994 25.5088 21.3809C21.561 19.2052 19.0001 14.9904 19 10.4004V8.7002C19 8.65989 19.0022 8.62011 19.0068 8.58105C17.8665 7.89232 16.8517 7.07607 16 6.15723C15.1481 7.07627 14.1328 7.89223 12.9922 8.58105C12.9968 8.62015 13 8.65985 13 8.7002V10.4004C12.9999 14.9907 10.4384 19.2053 6.49023 21.3809C8.05209 23.6996 8.99996 25.9292 9 29V30C9 30.5523 8.55228 31 8 31H1C0.447715 31 0 30.5523 0 30V2L0.00488281 1.89746C0.0562144 1.39333 0.482323 1 1 1H31L31.1025 1.00488ZM2 29H7C6.99996 26.2776 6.14557 24.355 4.52637 22.0557L4.48633 22H2V29ZM27.5127 22C25.8682 24.3239 25 26.2558 25 29H30V22H27.5127ZM11 9.59766C9.73729 10.1358 8.37036 10.5323 6.93555 10.7637C6.72449 12.7013 6.08235 14.5492 5.06934 16.1855L4.83203 16.5547C4.52568 17.0142 3.90484 17.1384 3.44531 16.832C2.98597 16.5256 2.86167 15.9048 3.16797 15.4453L3.36914 15.1328C4.15091 13.87 4.66979 12.4591 4.89062 10.9775C4.59562 10.9917 4.29869 11 4 11C3.33268 11 2.666 10.9573 2 10.874V20H4.78613C8.52065 18.3145 10.9999 14.5309 11 10.4004V9.59766ZM21 10.4004C21.0001 14.5309 23.4793 18.3145 27.2139 20H30V10.874C29.334 10.9573 28.6673 11 28 11C27.701 11 27.4037 10.9917 27.1084 10.9775C27.3292 12.4592 27.8491 13.8699 28.6309 15.1328L28.832 15.4453L28.8848 15.5332C29.122 15.9811 28.9854 16.5447 28.5547 16.832C28.1239 17.1192 27.5508 17.0288 27.2285 16.6377L27.168 16.5547L26.9307 16.1855C25.9176 14.5491 25.2754 12.7014 25.0645 10.7637C23.6296 10.5323 22.2627 10.1358 21 9.59766V10.4004ZM2 8.85645C2.66767 8.95176 3.33416 9 4 9C8.83448 9 13.0168 6.91125 15.2002 4L15.2754 3.91016C15.4629 3.71313 15.7246 3.59961 16 3.59961C16.3147 3.59961 16.6109 3.74825 16.7998 4L17.0107 4.27051C19.2457 7.03972 23.3167 9 28 9C28.6658 9 29.3323 8.95176 30 8.85645V3H2V8.85645Z" fill="currentColor" style="fill:currentColor;fill:currentColor;fill-opacity:1;"/>
</svg>
