<svg width="32" height="32" viewBox="0 0 32 32" fill="none" xmlns="http://www.w3.org/2000/svg">
<path d="M8 8.33203C8.55229 8.33203 9 8.77975 9 9.33203V22.665C9 23.2173 8.55229 23.665 8 23.665C7.44772 23.665 7 23.2173 7 22.665V9.33203C7 8.77975 7.44772 8.33203 8 8.33203Z" fill="currentColor" style="fill:currentColor;fill:currentColor;fill-opacity:1;"/>
<path fill-rule="evenodd" clip-rule="evenodd" d="M23.293 9.95899C23.6835 9.56846 24.3165 9.56846 24.707 9.95899C25.0975 10.3495 25.0975 10.9825 24.707 11.373L22.8369 13.2422C23.3605 14.0327 23.667 14.9799 23.667 15.999C23.667 17.0182 23.3605 17.9654 22.8369 18.7559L24.707 20.626L24.7754 20.7021C25.0955 21.0949 25.0731 21.674 24.707 22.04C24.341 22.4061 23.7619 22.4285 23.3691 22.1084L23.293 22.04L21.4229 20.1699C20.6326 20.6932 19.6857 20.9989 18.667 20.999C17.6476 20.999 16.6998 20.6927 15.9092 20.1689L14.04 22.0391C13.6495 22.4293 13.0164 22.4295 12.626 22.0391C12.2357 21.6486 12.2358 21.0155 12.626 20.625L14.4951 18.7549C13.972 17.9646 13.667 17.0177 13.667 15.999C13.667 14.98 13.9717 14.0326 14.4951 13.2422L12.626 11.373L12.5576 11.2969C12.2373 10.9042 12.2601 10.3251 12.626 9.95899C12.9921 9.59288 13.5711 9.57031 13.9639 9.89063L14.04 9.95899L15.9092 11.8281C16.6997 11.3045 17.6478 10.999 18.667 10.999C19.6857 10.9991 20.6326 11.3049 21.4229 11.8281L23.293 9.95899ZM18.667 12.999C17.0101 12.999 15.667 14.3421 15.667 15.999C15.667 17.6559 17.0101 18.999 18.667 18.999C20.3237 18.9988 21.667 17.6558 21.667 15.999C21.667 14.3423 20.3237 12.9993 18.667 12.999Z" fill="currentColor" style="fill:currentColor;fill:currentColor;fill-opacity:1;"/>
<path fill-rule="evenodd" clip-rule="evenodd" d="M16 1.66602C19.1139 1.66602 21.5509 1.6639 23.4482 1.91895C25.3742 2.17793 26.895 2.71836 28.0879 3.91113L28.3047 4.13867C29.3479 5.29572 29.8383 6.74504 30.0811 8.55078C30.3362 10.4483 30.334 12.8848 30.334 15.999C30.334 19.1131 30.3361 21.5498 30.0811 23.4473C29.8383 25.2529 29.3477 26.7024 28.3047 27.8594L28.0879 28.0869C26.895 29.2799 25.3743 29.8211 23.4482 30.0801C21.5509 30.3351 19.1139 30.333 16 30.333C12.886 30.333 10.4492 30.3351 8.55176 30.0801C6.74603 29.8373 5.29669 29.3469 4.13965 28.3037L3.91211 28.0869C2.71925 26.8939 2.17889 25.3734 1.91992 23.4473C1.66487 21.5498 1.66699 19.1132 1.66699 15.999C1.66699 12.8848 1.66481 10.4483 1.91992 8.55078C2.17892 6.62458 2.71907 5.10416 3.91211 3.91113L4.13965 3.69531C5.29672 2.652 6.74595 2.16175 8.55176 1.91895C10.4492 1.6639 12.886 1.66602 16 1.66602ZM16 3.66602C12.8295 3.66602 10.5515 3.6684 8.81836 3.90137C7.22057 4.1162 6.2176 4.51307 5.47266 5.1875L5.32715 5.32617C4.56763 6.08569 4.13152 7.11294 3.90234 8.81738C3.66932 10.5506 3.66699 12.8282 3.66699 15.999C3.66699 19.17 3.66931 21.4483 3.90234 23.1816C4.13153 24.8859 4.5677 25.9134 5.32715 26.6729L5.47266 26.8115C6.21759 27.4859 7.22067 27.8828 8.81836 28.0977C10.5515 28.3306 12.8295 28.333 16 28.333C19.1707 28.333 21.4494 28.3307 23.1826 28.0977C24.8866 27.8685 25.9145 27.4323 26.6738 26.6729L26.8125 26.5273C27.4869 25.7825 27.8838 24.7793 28.0986 23.1816C28.3317 21.4483 28.334 19.1699 28.334 15.999C28.334 12.8283 28.3317 10.5506 28.0986 8.81738C27.8838 7.21967 27.4869 6.21662 26.8125 5.47168L26.6738 5.32617C25.9145 4.56678 24.8866 4.13057 23.1826 3.90137C21.4494 3.66834 19.1707 3.66602 16 3.66602Z" fill="currentColor" style="fill:currentColor;fill:currentColor;fill-opacity:1;"/>
</svg>
