<svg width="32" height="32" viewBox="0 0 32 32" fill="none" xmlns="http://www.w3.org/2000/svg">
<path fill-rule="evenodd" clip-rule="evenodd" d="M8.68652 13.0997C9.33755 13.1001 9.97138 13.5795 9.97168 14.2951V20.0568H14.9717C15.4752 20.0569 15.9716 20.3358 16.1719 20.8243L19.3154 28.4767C19.5941 29.153 19.1715 29.8275 18.5361 30.0324L18.5371 30.0333C18.3968 30.0786 18.2536 30.0997 18.1143 30.0997C17.6275 30.0997 17.1199 29.8336 16.9141 29.3322L14.0859 22.4474H8.68652C8.07567 22.4474 7.47907 22.0259 7.40723 21.3829L7.40039 21.2521V14.2951C7.40069 13.5793 8.03526 13.0997 8.68652 13.0997ZM17.4199 29.2306C17.4214 29.233 17.4233 29.2351 17.4248 29.2374C17.4063 29.2072 17.3896 29.175 17.376 29.1417L17.4199 29.2306ZM8.68555 13.5997C8.792 13.5997 8.89378 13.6186 8.98633 13.6525C8.94106 13.6359 8.89382 13.6223 8.84473 13.6134L8.68555 13.5997Z" fill="currentColor" style="fill:currentColor;fill:currentColor;fill-opacity:1;"/>
<path fill-rule="evenodd" clip-rule="evenodd" d="M13.1309 23.0997C13.4256 23.0998 13.7158 23.1768 13.9473 23.3273C14.1457 23.4563 14.3442 23.6727 14.3906 23.9679L14.4004 24.0997C14.4004 24.4627 14.1742 24.7246 13.9473 24.8722C13.7158 25.0226 13.4256 25.0997 13.1309 25.0997H6.66992C6.37515 25.0997 6.08506 25.0226 5.85352 24.8722C5.65499 24.7432 5.45657 24.5269 5.41016 24.2316L5.40039 24.0997L5.41016 23.9679C5.45663 23.6727 5.65504 23.4563 5.85352 23.3273C6.08503 23.1769 6.37522 23.0997 6.66992 23.0997H13.1309ZM13.1309 24.5997L13.2764 24.591C13.2774 24.5908 13.2783 24.5901 13.2793 24.59C13.2313 24.5961 13.1817 24.5997 13.1309 24.5997Z" fill="currentColor" style="fill:currentColor;fill:currentColor;fill-opacity:1;"/>
<path fill-rule="evenodd" clip-rule="evenodd" d="M24.2227 2.58314C24.8384 2.35156 25.5418 2.61666 25.8438 3.2179L26.0039 3.55482C27.5852 7.01275 26.743 10.1168 25.9863 12.9484C25.1927 15.9218 24.4201 18.849 25.8877 22.5177L25.9307 22.6437C26.1003 23.235 25.8285 23.8666 25.2842 24.1515L25.1641 24.2072C25.0054 24.2708 24.8408 24.2999 24.6807 24.2999C24.1986 24.2999 23.7379 24.0299 23.5146 23.5753L23.4736 23.4826C21.6751 18.9867 22.6526 15.3553 23.4746 12.2775L23.7549 11.212C24.35 8.87034 24.6641 6.86643 23.6377 4.63099L23.5176 4.38197C23.1962 3.73889 23.4573 2.95803 24.0986 2.63685H24.1006L24.2227 2.58314ZM24.9531 21.299C24.9745 21.3785 24.9981 21.458 25.0215 21.5382C24.9646 21.3428 24.9126 21.1497 24.8672 20.9581L24.9531 21.299ZM24.6689 19.8937C24.6871 20.0243 24.7063 20.1559 24.7295 20.2882L24.6768 19.9591C24.6736 19.9373 24.672 19.9154 24.6689 19.8937ZM24.5615 18.0499C24.561 18.074 24.5619 18.0981 24.5615 18.1222C24.5651 17.8918 24.5742 17.6636 24.5898 17.4376L24.5615 18.0499ZM23.6504 13.5802L23.5205 14.1076C23.5166 14.1238 23.5126 14.1401 23.5088 14.1564C23.5547 13.9626 23.6022 13.7706 23.6504 13.5802Z" fill="currentColor" style="fill:currentColor;fill:currentColor;fill-opacity:1;"/>
<path fill-rule="evenodd" clip-rule="evenodd" d="M20.0977 2.58411C20.7123 2.35144 21.4187 2.61603 21.7197 3.21888L21.8799 3.55482C23.2568 6.56609 22.7961 9.30853 22.1543 11.837L21.8623 12.9474C21.4392 14.5336 21.0202 16.1121 20.9453 17.7863L20.9346 18.1222C20.924 18.7885 20.4134 19.3295 19.7666 19.3947L19.6348 19.4005H19.6143C18.8957 19.3891 18.324 18.7972 18.335 18.0802L18.3467 17.6818C18.4328 15.7059 18.9075 13.9365 19.3516 12.2765L19.6309 11.212C20.2258 8.87057 20.5395 6.8669 19.5137 4.63099L19.3945 4.38197C19.073 3.73886 19.3342 2.95808 19.9756 2.63685L20.0977 2.58411ZM21.9512 10.4992C21.9776 10.372 22.0053 10.2451 22.0293 10.1173L22.0449 10.0285C22.0161 10.1859 21.9838 10.3426 21.9512 10.4992ZM20.5059 3.00111C20.4021 3.00757 20.2978 3.03487 20.1992 3.08411C20.347 3.01033 20.5074 2.98695 20.6602 3.00697L20.5059 3.00111Z" fill="currentColor" style="fill:currentColor;fill:currentColor;fill-opacity:1;"/>
<path fill-rule="evenodd" clip-rule="evenodd" d="M9.59961 2.50013C12.0816 2.50013 14.0995 4.51819 14.0996 7.00013C14.0996 9.48154 12.0817 11.5001 9.59961 11.5001C7.11831 11.5 5.09961 9.48211 5.09961 7.00013C5.0997 4.51823 7.11837 2.50026 9.59961 2.50013ZM9.59961 5.09974C8.55061 5.09987 7.69931 5.95112 7.69922 7.00013C7.69922 8.04922 8.55055 8.90039 9.59961 8.90052C10.6488 8.90052 11.5 8.04931 11.5 7.00013C11.4999 5.95104 10.6487 5.09974 9.59961 5.09974Z" fill="currentColor" style="fill:currentColor;fill:currentColor;fill-opacity:1;"/>
</svg>
