<svg width="32" height="32" viewBox="0 0 32 32" fill="none" xmlns="http://www.w3.org/2000/svg">
<path fill-rule="evenodd" clip-rule="evenodd" d="M20.333 14.1992C20.82 14.1992 21.2438 14.5542 21.2949 15.0352L21.2998 15.1328V17.7744C21.2998 18.3043 20.8526 18.709 20.333 18.709C19.8137 18.7087 19.3672 18.3041 19.3672 17.7744V16.0674H12.6338V25.9307H19.3672V22.8799C19.3672 22.3502 19.8137 21.9456 20.333 21.9453C20.8526 21.9453 21.2998 22.35 21.2998 22.8799V26.8652C21.2996 27.3949 20.8524 27.7988 20.333 27.7988H11.667C11.1477 27.7987 10.7004 27.3949 10.7002 26.8652V15.1328C10.7004 14.6032 11.1477 14.1993 11.667 14.1992H20.333ZM11.041 27.083C11.043 27.088 11.0458 27.0927 11.0479 27.0977C11.0338 27.064 11.0215 27.0294 11.0137 26.9932L11.041 27.083ZM21 22.8799L20.9902 22.7676C20.9894 22.7632 20.9872 22.7592 20.9863 22.7549C20.9948 22.7953 21 22.8371 21 22.8799ZM20.1992 22.2578C20.1617 22.2651 20.1258 22.277 20.0908 22.29C20.166 22.262 20.2474 22.2452 20.333 22.2451L20.1992 22.2578ZM20.0898 18.3633C20.1251 18.3765 20.1613 18.3881 20.1992 18.3955L20.333 18.4092C20.247 18.4091 20.1653 18.3916 20.0898 18.3633ZM19.708 17.9922C19.7099 17.9972 19.7128 18.0019 19.7148 18.0068C19.7008 17.9731 19.6885 17.9386 19.6807 17.9023L19.708 17.9922ZM21 15.1328L20.9902 15.0205C20.9895 15.0165 20.9872 15.0128 20.9863 15.0088C20.9947 15.049 21 15.0903 21 15.1328Z" fill="currentColor" style="fill:currentColor;fill:currentColor;fill-opacity:1;"/>
<path fill-rule="evenodd" clip-rule="evenodd" d="M15.5 21.4824C16.4928 21.4824 17.2998 22.2895 17.2998 23.2822C17.2998 24.275 16.4928 25.082 15.5 25.082C14.5073 25.0819 13.7002 24.2749 13.7002 23.2822C13.7002 22.2895 14.5073 21.4826 15.5 21.4824ZM14.0576 23.6924C14.0587 23.6963 14.0604 23.7002 14.0615 23.7041C14.0499 23.6647 14.0396 23.6247 14.0312 23.584L14.0576 23.6924ZM14.0273 23.5664C14.0282 23.571 14.0293 23.5755 14.0303 23.5801C14.0207 23.5326 14.0128 23.4845 14.0078 23.4355L14.0273 23.5664ZM15.5 23.082C15.3901 23.0822 15.2998 23.1723 15.2998 23.2822C15.2998 23.3921 15.3901 23.4823 15.5 23.4824C15.61 23.4824 15.7002 23.3922 15.7002 23.2822C15.7002 23.1722 15.61 23.082 15.5 23.082Z" fill="currentColor" style="fill:currentColor;fill:currentColor;fill-opacity:1;"/>
<path d="M20.0273 19.4824C20.0765 19.4824 20.1246 19.4866 20.1719 19.4932C20.357 19.5167 20.5305 19.5838 20.6709 19.6924C20.796 19.7893 20.9429 19.9614 21.001 20.2207C21.0176 20.2895 21.0273 20.361 21.0273 20.4346V20.5303C21.0273 20.6036 21.0174 20.6746 21.001 20.7432C20.9431 21.003 20.7961 21.1755 20.6709 21.2725C20.5305 21.3811 20.3569 21.4471 20.1719 21.4707C20.1246 21.4772 20.0765 21.4824 20.0273 21.4824L19.9248 21.4775C19.9103 21.4761 19.8961 21.4727 19.8818 21.4707C19.6971 21.447 19.524 21.3809 19.3838 21.2725C19.2585 21.1754 19.1106 21.0031 19.0527 20.7432C19.0363 20.6747 19.0274 20.6035 19.0273 20.5303V20.4346C19.0274 20.361 19.0362 20.2895 19.0527 20.2207C19.1107 19.9613 19.2587 19.7893 19.3838 19.6924C19.524 19.584 19.6971 19.5168 19.8818 19.4932C19.9294 19.4866 19.9779 19.4824 20.0273 19.4824Z" fill="currentColor" style="fill:currentColor;fill:currentColor;fill-opacity:1;"/>
<path d="M16.5273 17.4824C17.3545 17.4824 18.0273 18.1553 18.0273 18.9824C18.0273 19.8095 17.3544 20.4825 16.5273 20.4824C15.7002 20.4824 15.0273 19.8095 15.0273 18.9824C15.0273 18.1553 15.7002 17.4824 16.5273 17.4824Z" fill="currentColor" style="fill:currentColor;fill:currentColor;fill-opacity:1;"/>
<path fill-rule="evenodd" clip-rule="evenodd" d="M18.167 0.199219C18.7037 0.199392 19.1338 0.638182 19.1338 1.17285V5.59082H19.333C19.8699 5.59082 20.2998 6.02965 20.2998 6.56445V9.17676C22.5767 10.1777 24.1936 12.4312 24.2949 15.0703L24.2998 15.334V30.8252C24.2998 31.36 23.8699 31.7988 23.333 31.7988H8.66699C8.13021 31.7987 7.70023 31.3599 7.7002 30.8252V15.334C7.7002 12.5822 9.34795 10.2109 11.7002 9.17676V6.56445C11.7002 6.02973 12.1302 5.58998 12.667 5.58984H12.8662V1.17285C12.8662 0.638264 13.2964 0.199524 13.833 0.199219H18.167ZM8.04102 31.0566C8.04281 31.0616 8.04497 31.0664 8.04688 31.0713C8.03307 31.0358 8.02139 30.9991 8.01367 30.9609L8.04102 31.0566ZM14.3418 10.5703C11.749 10.5704 9.63281 12.705 9.63281 15.334V29.8516H22.3662V15.334C22.3662 12.7049 20.2511 10.5703 17.6582 10.5703H14.3418ZM21.9648 10.6328C22.0131 10.678 22.0606 10.7239 22.1074 10.7705C22.0054 10.6689 21.9006 10.5701 21.792 10.4756L21.9648 10.6328ZM10.9561 9.91504C10.9112 9.94379 10.8673 9.97406 10.8232 10.0039C10.9321 9.93021 11.0428 9.85891 11.1562 9.79199L10.9561 9.91504ZM20.4307 9.56934C20.6418 9.67351 20.8467 9.78866 21.0439 9.91504L20.8447 9.79199C20.6427 9.6728 20.4332 9.56518 20.2178 9.46875L20.4307 9.56934ZM13.6328 8.62305H18.3662V7.53809H13.6328V8.62305ZM20 6.56445L19.9902 6.44531C19.9894 6.44066 19.9872 6.43626 19.9863 6.43164C19.9948 6.47458 20 6.51899 20 6.56445ZM14.7998 5.59082H17.2002V2.14648H14.7998V5.59082Z" fill="currentColor" style="fill:currentColor;fill:currentColor;fill-opacity:1;"/>
</svg>
