<svg width="32" height="32" viewBox="0 0 32 32" fill="none" xmlns="http://www.w3.org/2000/svg">
<path d="M23.8348 8.25459H17.2483V4.38188H19.629L22.7409 5.51285C23.5774 5.73562 24.0804 5.27295 24.3261 4.73603C24.5074 4.14198 24.2033 3.48511 23.5949 3.24521L20.2373 2.05712C20.1145 2 12.7968 2 12.7968 2C12.1241 2 11.5743 2.53692 11.5743 3.1938C11.5743 3.85067 12.1241 4.3876 12.7968 4.3876H14.809V8.2603H8.15819C7 8.38025 7 9.2142 7 9.51122L8.83088 28.9262C8.83088 29.5202 9.38073 30 9.98908 30H22.0624C22.6707 30 23.2206 29.5259 23.1621 28.9262L24.9929 9.51122C25.0514 9.14565 24.7531 8.21461 23.8348 8.25459ZM20.9685 27.6638H11.0888L9.50357 10.5736H22.5537L20.9685 27.6638Z" fill="currentColor" style="fill:currentColor;fill:currentColor;fill-opacity:1;"/>
</svg>
