<svg width="32" height="32" viewBox="0 0 32 32" fill="none" xmlns="http://www.w3.org/2000/svg">
<path fill-rule="evenodd" clip-rule="evenodd" d="M14.5549 3.8593C15.5635 3.55508 16.6445 3.57714 17.6427 3.92473L17.8918 4.02141C18.46 4.26638 18.9586 4.64633 19.465 5.12101C20.0364 5.65664 20.6871 6.38096 21.4992 7.28312L24.3332 10.4306V6.66691C24.3332 6.11479 24.7811 5.66709 25.3332 5.66691C25.8854 5.66699 26.3331 6.11473 26.3332 6.66691V12.6532L28.7433 15.331L28.8078 15.4111C29.1069 15.8201 29.0538 16.3977 28.6691 16.7441C28.2844 17.0901 27.7046 17.0823 27.3293 16.7421L27.257 16.6689L26.3332 15.6425V21.6005C26.3332 22.704 26.3342 23.5924 26.2756 24.3095C26.2234 24.9469 26.1207 25.5167 25.8937 26.0458L25.7883 26.2704C25.3388 27.1524 24.6385 27.8798 23.7775 28.3622L23.6037 28.455C23.0114 28.7568 22.3706 28.8827 21.6418 28.9423C20.9248 29.0009 20.037 28.9999 18.9338 28.9999H13.0666C11.9634 28.9999 11.0756 29.0009 10.3586 28.9423C9.72088 28.8902 9.15052 28.7875 8.62126 28.5605L8.39665 28.455C7.51474 28.0056 6.78727 27.3053 6.30486 26.4443L6.21208 26.2704C5.91037 25.6783 5.78435 25.0381 5.72478 24.3095C5.66619 23.5924 5.66716 22.704 5.66716 21.6005V15.6415L4.74333 16.6689C4.374 17.0793 3.74177 17.1132 3.33122 16.7441C2.92069 16.3746 2.88758 15.7415 3.25701 15.331L10.4982 7.2841L11.6056 6.06535C11.9411 5.70463 12.2468 5.38982 12.5324 5.12199C13.1112 4.57918 13.6793 4.15967 14.3537 3.92473L14.5549 3.8593ZM14.3332 26.9999H17.6672V20.9999H14.3332V26.9999ZM16.9855 5.8134C16.4266 5.61873 15.824 5.59413 15.2541 5.74016L15.0119 5.8134C14.7162 5.91643 14.3877 6.12412 13.9006 6.58098C13.6531 6.81303 13.383 7.09137 13.0705 7.42766L11.9855 8.62199L7.66716 13.4189V21.6005C7.66716 22.737 7.66755 23.5296 7.71794 24.1464C7.76738 24.7511 7.85926 25.099 7.99333 25.3622L8.10954 25.5693C8.39777 26.039 8.81106 26.4222 9.30486 26.6737L9.40837 26.7216C9.65949 26.8297 9.99175 26.9059 10.5207 26.9491C10.9952 26.9879 11.5741 26.9947 12.3332 26.997V19.9999C12.3334 19.4479 12.7812 19.0001 13.3332 18.9999H18.6672C19.2191 19.0002 19.6669 19.448 19.6672 19.9999V26.997C20.4262 26.9947 21.0051 26.9879 21.4797 26.9491C22.0843 26.8997 22.4322 26.8079 22.6955 26.6737L22.9025 26.5575C23.3722 26.2694 23.7544 25.856 24.006 25.3622L24.0549 25.2597C24.1631 25.0085 24.2391 24.676 24.2824 24.1464C24.3328 23.5296 24.3332 22.737 24.3332 21.6005V13.4198L20.0129 8.62102C19.1776 7.69306 18.5918 7.04397 18.0968 6.58C17.6706 6.1805 17.3655 5.97224 17.0978 5.85734L16.9855 5.8134Z" fill="currentColor" style="fill:currentColor;fill:currentColor;fill-opacity:1;"/>
</svg>
