<svg width="33" height="32" viewBox="0 0 33 32" fill="none" xmlns="http://www.w3.org/2000/svg">
<path fill-rule="evenodd" clip-rule="evenodd" d="M29.6353 13.5519C30.1396 13.603 30.5336 14.0292 30.5337 14.547V26.547C30.5337 27.0992 30.0858 27.5468 29.5337 27.547H2.86672C2.41076 27.547 2.01299 27.2385 1.89895 26.797C1.78507 26.3556 1.98354 25.8928 2.38235 25.672L24.0757 13.672L24.19 13.6183C24.3074 13.5716 24.433 13.547 24.5601 13.547H29.5337L29.6353 13.5519ZM6.74075 25.547H28.5337V15.547H24.8189L6.74075 25.547Z" fill="currentColor" style="fill:currentColor;fill:currentColor;fill-opacity:1;"/>
<path d="M16.6929 3.80289C17.2438 3.83857 17.6619 4.31448 17.6265 4.86539L17.4712 7.26383C17.4524 7.55564 17.3075 7.82308 17.0777 7.99723L16.9741 8.06558L16.0484 8.59879C17.0517 8.70607 17.8334 9.55527 17.8335 10.5871C17.8335 11.6916 16.938 12.587 15.8335 12.5871C14.7289 12.5871 13.8335 11.6917 13.8335 10.5871C13.8335 10.2992 13.8949 10.0258 14.0044 9.77848L8.99465 12.6711C9.81907 12.918 10.4204 13.6823 10.4204 14.5871C10.4204 15.6915 9.52477 16.5868 8.42044 16.5871C7.31584 16.5871 6.42044 15.6917 6.42044 14.5871C6.42045 14.4283 6.44014 14.2742 6.47512 14.1261L5.42629 14.7326C5.13696 14.8994 4.78339 14.9107 4.48391 14.7628L2.32864 13.6974L2.23977 13.6476C1.8102 13.3783 1.64598 12.8218 1.87551 12.3576C2.10514 11.8937 2.647 11.6858 3.12161 11.8634L3.21536 11.9045L4.88919 12.7316L15.5103 6.60074L15.6304 4.73648C15.6662 4.18554 16.1419 3.76735 16.6929 3.80289Z" fill="currentColor" style="fill:currentColor;fill:currentColor;fill-opacity:1;"/>
</svg>
