<svg width="33" height="32" viewBox="0 0 33 32" fill="none" xmlns="http://www.w3.org/2000/svg">
<path d="M21.6999 11C22.3922 11 23.0689 10.7947 23.6444 10.4101C24.22 10.0256 24.6686 9.47893 24.9335 8.83939C25.1984 8.19985 25.2677 7.49612 25.1327 6.81719C24.9976 6.13825 24.6643 5.51461 24.1748 5.02513C23.6853 4.53564 23.0617 4.2023 22.3828 4.06725C21.7038 3.9322 21.0001 4.00152 20.3606 4.26642C19.721 4.53133 19.1744 4.97993 18.7898 5.55551C18.4052 6.13108 18.1999 6.80777 18.1999 7.5C18.1999 8.42826 18.5687 9.3185 19.2251 9.97487C19.8814 10.6313 20.7717 11 21.6999 11ZM21.6999 6C21.9966 6 22.2866 6.08798 22.5333 6.2528C22.78 6.41762 22.9722 6.65189 23.0858 6.92598C23.1993 7.20007 23.229 7.50167 23.1711 7.79264C23.1132 8.08361 22.9704 8.35088 22.7606 8.56066C22.5508 8.77044 22.2836 8.9133 21.9926 8.97118C21.7016 9.02906 21.4 8.99935 21.1259 8.88582C20.8518 8.77229 20.6176 8.58003 20.4527 8.33336C20.2879 8.08668 20.1999 7.79667 20.1999 7.5C20.1999 7.10218 20.358 6.72065 20.6393 6.43934C20.9206 6.15804 21.3021 6 21.6999 6ZM4.23995 9.72C4.27672 9.59393 4.33796 9.47634 4.42017 9.37394C4.50239 9.27154 4.60397 9.18633 4.71911 9.12319C4.83426 9.06005 4.96071 9.0202 5.09126 9.00593C5.2218 8.99165 5.35388 9.00323 5.47995 9.04L14.1999 11.5838L15.4899 10.2925C15.5828 10.1995 15.6931 10.1258 15.8145 10.0754C15.9359 10.0251 16.066 9.99921 16.1974 9.99921C16.3289 9.99921 16.459 10.0251 16.5804 10.0754C16.7018 10.1258 16.8121 10.1995 16.9049 10.2925L20.6137 14H25.1999C25.4652 14 25.7195 14.1054 25.9071 14.2929C26.0946 14.4804 26.1999 14.7348 26.1999 15C26.1999 15.2652 26.0946 15.5196 25.9071 15.7071C25.7195 15.8946 25.4652 16 25.1999 16H20.1999C20.0686 16.0001 19.9385 15.9743 19.8171 15.9241C19.6957 15.8739 19.5854 15.8003 19.4924 15.7075L18.7912 15L4.9162 10.955C4.66341 10.8799 4.45052 10.708 4.32387 10.4767C4.19722 10.2454 4.16705 9.97343 4.23995 9.72ZM29.7549 25.53C28.6945 26.2385 27.4916 26.7059 26.231 26.8992C24.9704 27.0925 23.6827 27.007 22.4587 26.6488L2.9212 20.9588C2.79292 20.924 2.67286 20.864 2.56802 20.7824C2.46319 20.7007 2.37569 20.5989 2.31063 20.4831C2.24558 20.3672 2.20427 20.2395 2.18913 20.1075C2.17399 19.9754 2.18532 19.8417 2.22245 19.7141C2.25958 19.5865 2.32178 19.4676 2.4054 19.3643C2.48902 19.261 2.5924 19.1754 2.70947 19.1125C2.82655 19.0497 2.95499 19.0107 3.08728 18.9981C3.21957 18.9854 3.35306 18.9992 3.47995 19.0388L12.9799 21.805L16.2912 18.5L10.9249 16.9613C10.7986 16.9251 10.6807 16.8645 10.5778 16.7828C10.4749 16.7011 10.3891 16.5999 10.3253 16.4851C10.1965 16.2531 10.1651 15.9795 10.2381 15.7244C10.2742 15.5981 10.3348 15.4801 10.4165 15.3772C10.4982 15.2743 10.5994 15.1886 10.7143 15.1248C10.9462 14.996 11.2198 14.9646 11.4749 15.0375L18.4749 17.0375C18.6424 17.0853 18.7945 17.176 18.9161 17.3007C19.0378 17.4253 19.1247 17.5796 19.1684 17.7482C19.2121 17.9168 19.211 18.0939 19.1652 18.2619C19.1195 18.4299 19.0306 18.5831 18.9074 18.7063L15.1699 22.4438L23.0187 24.7288C23.9623 25.0051 24.9551 25.0711 25.927 24.9221C26.8989 24.773 27.8262 24.4126 28.6437 23.8663C28.7529 23.7934 28.8755 23.7427 29.0043 23.7172C29.1331 23.6917 29.2657 23.6917 29.3945 23.7175C29.5233 23.7432 29.6457 23.794 29.7549 23.867C29.864 23.9401 29.9577 24.0339 30.0306 24.1431C30.1035 24.2524 30.1541 24.3749 30.1796 24.5037C30.2052 24.6325 30.2051 24.7651 30.1794 24.8939C30.1537 25.0227 30.1028 25.1451 30.0298 25.2543C29.9568 25.3634 29.8629 25.4571 29.7537 25.53H29.7549Z" fill="currentColor" style="fill:currentColor;fill:currentColor;fill-opacity:1;"/>
</svg>
