<svg width="32" height="32" viewBox="0 0 32 32" fill="none" xmlns="http://www.w3.org/2000/svg">
<path d="M9.29297 15.2842C9.6964 14.9595 10.2748 14.9995 10.6309 15.3604L10.6992 15.4365L10.8838 15.6748C11.7672 16.8638 12.0549 17.9917 11.9121 19.0918C11.7709 20.1799 11.2109 21.1271 10.7871 21.8643C10.3218 22.6736 9.99215 23.2734 9.91113 23.8975C9.84571 24.4023 9.93627 25.0249 10.5654 25.8682L10.6992 26.04L10.7588 26.123C11.0352 26.548 10.9503 27.1216 10.5469 27.4463C10.1436 27.7708 9.56505 27.7317 9.20898 27.3711L9.14062 27.2939L8.95605 27.0557C8.07283 25.8671 7.785 24.7395 7.92773 23.6396C8.06897 22.5517 8.629 21.6043 9.05273 20.8672C9.51795 20.0579 9.84769 19.4582 9.92871 18.834C9.99417 18.3289 9.90372 17.7059 9.27441 16.8623L9.14062 16.6904L9.08105 16.6074C8.80472 16.1825 8.88957 15.6088 9.29297 15.2842ZM15.373 15.2842C15.7765 14.9595 16.3549 14.9994 16.7109 15.3604L16.7793 15.4365L16.9639 15.6748C17.8472 16.8638 18.1349 17.9918 17.9922 19.0918C17.851 20.1798 17.291 21.1271 16.8672 21.8643C16.4019 22.6736 16.0722 23.2734 15.9912 23.8975C15.9258 24.4023 16.0163 25.0249 16.6455 25.8682L16.7793 26.04L16.8389 26.123C17.1153 26.548 17.0303 27.1216 16.627 27.4463C16.2237 27.7709 15.6451 27.7317 15.2891 27.3711L15.2207 27.2939L15.0361 27.0557C14.1529 25.8671 13.8651 24.7395 14.0078 23.6396C14.149 22.5517 14.7091 21.6043 15.1328 20.8672C15.598 20.0579 15.9278 19.4582 16.0088 18.834C16.0742 18.3289 15.9838 17.7059 15.3545 16.8623L15.2207 16.6904L15.1611 16.6074C14.8848 16.1825 14.9696 15.6088 15.373 15.2842ZM21.4531 15.2842C21.8566 14.9596 22.435 14.9994 22.791 15.3604L22.8594 15.4365L23.0439 15.6748C23.9273 16.8638 24.215 17.9918 24.0723 19.0918C23.931 20.1798 23.371 21.1271 22.9473 21.8643C22.482 22.6736 22.1523 23.2734 22.0713 23.8975C22.0059 24.4023 22.0964 25.0249 22.7256 25.8682L22.8594 26.04L22.9189 26.123C23.1953 26.548 23.1104 27.1216 22.707 27.4463C22.3038 27.7709 21.7252 27.7316 21.3691 27.3711L21.3008 27.2939L21.1162 27.0557C20.2329 25.8671 19.9451 24.7395 20.0879 23.6396C20.2291 22.5517 20.7892 21.6043 21.2129 20.8672C21.6781 20.0579 22.0078 19.4582 22.0889 18.834C22.1543 18.3289 22.0638 17.7059 21.4346 16.8623L21.3008 16.6904L21.2412 16.6074C20.9648 16.1825 21.0497 15.6088 21.4531 15.2842ZM24 4.33398C24.5523 4.33398 25 4.7817 25 5.33398C25 5.88627 24.5523 6.33398 24 6.33398H23.1719C23.0035 8.01601 22.4084 9.61998 21.3867 10.8828C20.1468 12.4152 18.309 13.4033 16 13.4033C13.6912 13.4033 11.8533 12.4161 10.6133 10.8838C9.59134 9.62095 8.99646 8.01656 8.82812 6.33398H8C7.44772 6.33398 7 5.88627 7 5.33398C7 4.7817 7.44772 4.33398 8 4.33398H24ZM10.8398 6.33398C10.9993 7.60176 11.4604 8.75168 12.168 9.62598C13.0406 10.7042 14.3143 11.4033 16 11.4033C17.6857 11.4033 18.9593 10.7036 19.832 9.625C20.5395 8.75062 21.0007 7.60122 21.1602 6.33398H10.8398Z" fill="currentColor" style="fill:currentColor;fill:currentColor;fill-opacity:1;"/>
</svg>
