<svg width="32" height="32" viewBox="0 0 32 32" fill="none" xmlns="http://www.w3.org/2000/svg">
<path fill-rule="evenodd" clip-rule="evenodd" d="M16 12.332C19.4975 12.3322 22.3338 15.1675 22.334 18.665C22.334 22.1627 19.4976 24.9989 16 24.999C12.5023 24.9988 9.66699 22.1627 9.66699 18.665C9.66717 15.1676 12.5024 12.3322 16 12.332ZM16 14.332C13.607 14.3322 11.6672 16.2721 11.667 18.665C11.667 21.0581 13.6069 22.9988 16 22.999C18.3931 22.9989 20.334 21.0581 20.334 18.665C20.3338 16.2721 18.393 14.3322 16 14.332Z" fill="currentColor" style="fill:currentColor;fill:currentColor;fill-opacity:1;"/>
<path d="M18.7686 7.00391C19.2728 7.05509 19.666 7.48124 19.666 7.99902C19.666 8.51681 19.2728 8.94296 18.7686 8.99414L18.666 8.99902H13.333C12.7808 8.99889 12.333 8.55123 12.333 7.99902C12.333 7.44682 12.7808 6.99916 13.333 6.99902H18.666L18.7686 7.00391Z" fill="currentColor" style="fill:currentColor;fill:currentColor;fill-opacity:1;"/>
<path fill-rule="evenodd" clip-rule="evenodd" d="M16 1.66602C18.4856 1.66602 20.451 1.66386 21.9854 1.87012C23.548 2.08025 24.8129 2.52328 25.8105 3.52051C26.8084 4.51832 27.2517 5.78444 27.4619 7.34766C27.6682 8.88208 27.666 10.8473 27.666 13.333V18.666C27.666 21.1519 27.6682 23.1169 27.4619 24.6514C27.2649 26.1167 26.8636 27.3203 25.9922 28.2871L25.8115 28.4775C24.8138 29.4753 23.5484 29.9187 21.9854 30.1289C20.451 30.3352 18.4856 30.333 16 30.333C13.5144 30.333 11.549 30.3352 10.0146 30.1289C8.45153 29.9187 7.18527 29.4753 6.1875 28.4775C5.19032 27.4799 4.74721 26.2141 4.53711 24.6514C4.33082 23.1169 4.33301 21.1518 4.33301 18.666V13.333C4.33301 10.8473 4.33086 8.88206 4.53711 7.34766C4.74727 5.78449 5.19075 4.51929 6.18848 3.52149L6.37793 3.34082C7.34486 2.46902 8.54903 2.06719 10.0146 1.87012C11.549 1.66387 13.5144 1.66602 16 1.66602ZM16 3.66602C13.458 3.66602 11.6514 3.66838 10.2813 3.85254C9.10748 4.01037 8.3685 4.28909 7.82422 4.73438L7.60254 4.93555C7.03833 5.49982 6.69987 6.27291 6.51953 7.61426C6.33537 8.98442 6.33301 10.7909 6.33301 13.333V18.666C6.33301 21.2083 6.33533 23.0146 6.51953 24.3848C6.67737 25.5588 6.95602 26.2975 7.40137 26.8418L7.60254 27.0635L7.82422 27.2646C8.36848 27.7099 9.10761 27.9887 10.2813 28.1465C11.6514 28.3306 13.458 28.333 16 28.333C18.5421 28.333 20.3486 28.3307 21.7188 28.1465C23.06 27.9661 23.8333 27.6276 24.3975 27.0635L24.5986 26.8418C25.0439 26.2975 25.3226 25.5586 25.4805 24.3848C25.6647 23.0146 25.666 21.2083 25.666 18.666V13.333C25.666 10.7909 25.6646 8.98441 25.4805 7.61426C25.3227 6.44061 25.0438 5.70151 24.5986 5.15723L24.3975 4.93555C23.8333 4.3714 23.06 4.03289 21.7188 3.85254C20.3486 3.66836 18.5421 3.66602 16 3.66602Z" fill="currentColor" style="fill:currentColor;fill:currentColor;fill-opacity:1;"/>
</svg>
