<svg width="32" height="32" viewBox="0 0 32 32" fill="none" xmlns="http://www.w3.org/2000/svg">
<path d="M27.0001 4H4.99999C4.4477 4 4 4.4477 4 4.99998V27C4 27.5523 4.4477 28 4.99999 28H27C27.5523 28 28 27.5523 28 27V4.99998C28 4.4477 27.5523 4 27.0001 4ZM26 26H6.00002V6.00002H26.0001L26 26Z" fill="currentColor" style="fill:currentColor;fill:currentColor;fill-opacity:1;"/>
<path d="M11 15C13.2093 15 15 13.2093 15 11C15 8.79077 13.2093 7 11 7C8.79068 7 7.00001 8.79072 7.00001 11C7.00001 13.2092 8.79073 15 11 15ZM11 9.00002C12.1047 9.00002 13 9.89528 13 11C13 12.1048 12.1047 13 11 13C9.89525 13 8.99998 12.1047 8.99998 11C8.99998 9.89523 9.89529 9.00002 11 9.00002Z" fill="currentColor" style="fill:currentColor;fill:currentColor;fill-opacity:1;"/>
<path d="M21 15C23.2093 15 25 13.2093 25 11C25 8.79077 23.2093 7 21 7C18.7908 7 17.0001 8.79072 17.0001 11C17.0001 13.2092 18.7907 15 21 15ZM21 9.00002C22.1048 9.00002 23.0001 9.89528 23.0001 11C23.0001 12.1048 22.1048 13 21 13C19.8953 13 19 12.1047 19 11C19 9.89523 19.8953 9.00002 21 9.00002Z" fill="currentColor" style="fill:currentColor;fill:currentColor;fill-opacity:1;"/>
<path d="M11 16C9.34273 16 7.99999 17.3427 7.99999 19C7.99999 20.6573 9.34273 22 11 22C12.6573 22 14 20.6573 14 19C14 17.3427 12.6573 16 11 16ZM11 20C10.4473 20 10 19.5527 10 19C10 18.4473 10.4473 18 11 18C11.5527 18 12 18.4473 12 19C12 19.5527 11.5527 20 11 20Z" fill="currentColor" style="fill:currentColor;fill:currentColor;fill-opacity:1;"/>
<path d="M21 16C19.3428 16 18 17.3427 18 19C18 20.6573 19.3428 22 21 22C22.6573 22 24.0001 20.6573 24.0001 19C24.0001 17.3427 22.6573 16 21 16ZM21 20C20.4473 20 20.0001 19.5527 20.0001 19C20.0001 18.4473 20.4473 18 21 18C21.5528 18 22 18.4473 22 19C22 19.5527 21.5528 20 21 20Z" fill="currentColor" style="fill:currentColor;fill:currentColor;fill-opacity:1;"/>
<path d="M12 23H10C9.44773 23 9.00003 23.4477 9.00003 24C9.00003 24.5522 9.44773 25 10 25H12C12.5523 25 13 24.5523 13 24C13 23.4477 12.5523 23 12 23Z" fill="currentColor" style="fill:currentColor;fill:currentColor;fill-opacity:1;"/>
<path d="M22 23H20C19.4477 23 19 23.4477 19 24C19 24.5522 19.4477 25 20 25H22C22.5523 25 23 24.5523 23 24C23 23.4477 22.5523 23 22 23Z" fill="currentColor" style="fill:currentColor;fill:currentColor;fill-opacity:1;"/>
</svg>
