<svg width="32" height="32" viewBox="0 0 32 32" fill="none" xmlns="http://www.w3.org/2000/svg">
<path fill-rule="evenodd" clip-rule="evenodd" d="M4.87213 8.00149C5.38288 7.98709 5.89172 8.07708 6.36871 8.26971C6.79984 8.4439 7.198 8.69681 7.54302 9.01688L7.68706 9.15865L7.69561 9.16631L7.70293 9.17525L11.503 13.2228H24.75H27.25C27.7396 13.2215 28.2252 13.322 28.6782 13.5165C29.1343 13.7125 29.5498 14.0004 29.8989 14.3646C30.2481 14.7289 30.5254 15.1627 30.7144 15.6393C30.9024 16.1137 30.9992 16.6226 31 17.1362L30.9841 17.5232C30.9496 17.9083 30.86 18.2867 30.7192 18.6458C30.5315 19.1248 30.2545 19.5604 29.905 19.9269C29.5557 20.2932 29.1404 20.5841 28.6831 20.7813C28.2288 20.9772 27.7413 21.0751 27.25 21.0738V23.6921C27.2499 24.4141 26.69 24.9997 26 25C25.3098 24.9999 24.7502 24.4143 24.75 23.6921V21.0751H17.25V23.6921C17.2499 24.4141 16.69 24.9997 16 25C15.3098 24.9999 14.7502 24.4143 14.75 23.6921V21.0751H9.75005V23.6921C9.74989 24.4141 9.19005 24.9997 8.50005 25C7.80985 24.9999 7.25021 24.4143 7.25005 23.6921V20.3062L2.13898 14.947L2.1402 14.9457C1.77679 14.5663 1.48728 14.1154 1.29181 13.6187C1.09614 13.1211 0.99711 12.5871 1.00006 12.049C1.00207 10.9769 1.40905 9.94849 2.13287 9.1893C2.84668 8.44085 3.81167 8.01666 4.82086 8.00277C4.82416 8.00256 4.82856 8.00164 4.83184 8.00149C4.84491 8.00136 4.85905 8.00149 4.87213 8.00149ZM4.89654 10.616H4.87213C4.50958 10.616 4.16025 10.7666 3.90289 11.0362C3.64547 11.3062 3.50013 11.6736 3.50006 12.0567V12.0643C3.49901 12.2561 3.53414 12.4466 3.60382 12.6237C3.65607 12.7565 3.72721 12.8801 3.81378 12.9903L3.90533 13.0963L3.90777 13.0989L9.02129 18.4606H27.2525L27.3757 18.4555C27.4969 18.4435 27.6166 18.4122 27.7297 18.3636C27.881 18.2983 28.0203 18.2016 28.1362 18.08C28.2521 17.9584 28.3435 17.8129 28.406 17.6534C28.4685 17.4939 28.5008 17.3228 28.5 17.1502V17.1425L28.4939 17.0148C28.4819 16.8869 28.4519 16.761 28.4048 16.6419C28.3419 16.4833 28.2495 16.3387 28.1338 16.2178C28.0179 16.097 27.8794 16.0004 27.7285 15.9356C27.6154 15.887 27.4957 15.8568 27.3745 15.8449L27.2525 15.8385H27.25V15.8449H24.75V15.8385H10.4556L5.93536 11.0247L5.83038 10.9276C5.7213 10.8364 5.59949 10.762 5.46905 10.7092C5.29504 10.6389 5.10833 10.607 4.92217 10.6147L4.89654 10.616Z" fill="currentColor" style="fill:currentColor;fill:currentColor;fill-opacity:1;"/>
</svg>
