<svg width="32" height="32" viewBox="0 0 32 32" fill="none" xmlns="http://www.w3.org/2000/svg">
<path fill-rule="evenodd" clip-rule="evenodd" d="M26.5 4C27.3284 4 28 4.67157 28 5.5C28 6.00678 27.7481 6.45404 27.3633 6.72559L30.5381 13.0752C31.381 13.3104 32 14.082 32 15C32 16.1046 31.1046 17 30 17C29.2601 17 28.6155 16.5973 28.2695 16H28V25.333H25.333V21.333H6.66699V25.333H4V16H3.73047C3.38454 16.5973 2.73993 17 2 17C0.89543 17 0 16.1046 0 15C0 14.0824 0.61844 13.3107 1.46094 13.0752L4.63574 6.72559C4.2513 6.45399 4 6.0065 4 5.5C4 4.67157 4.67157 4 5.5 4C6.27196 4 6.90715 4.5832 6.99023 5.33301H25.0098C25.0928 4.5832 25.728 4 26.5 4ZM6.66699 18.666H25.333V16H6.66699V18.666ZM4.32031 13.333H27.6797L25.0137 8H6.98633L4.32031 13.333Z" fill="currentColor" style="fill:currentColor;fill:currentColor;fill-opacity:1;"/>
</svg>
