<svg width="32" height="32" viewBox="0 0 32 32" fill="none" xmlns="http://www.w3.org/2000/svg">
<path d="M15.293 15.293C15.6591 14.9269 16.2381 14.9043 16.6309 15.2246L16.707 15.293L27.374 25.96L27.4424 26.0352C27.7629 26.4279 27.7402 27.0078 27.374 27.374C27.0078 27.7402 26.4279 27.7629 26.0352 27.4424L25.96 27.374L15.293 16.707L15.2246 16.6309C14.9043 16.2381 14.9269 15.6591 15.293 15.293ZM11 20V17.333C11.0002 16.7809 11.4478 16.333 12 16.333C12.5522 16.333 12.9998 16.7809 13 17.333V20C13 20.5523 12.5523 21 12 21C11.4477 21 11 20.5523 11 20ZM7.95996 14.626C8.3505 14.2358 8.98359 14.2356 9.37402 14.626C9.76446 15.0164 9.76426 15.6495 9.37402 16.04L6.5459 18.8691L6.46973 18.9375C6.07696 19.258 5.49705 19.2353 5.13086 18.8691C4.74052 18.4787 4.74068 17.8456 5.13086 17.4551L7.95996 14.626ZM6.66699 11L6.76855 11.0049C7.27299 11.0559 7.66699 11.4821 7.66699 12C7.66699 12.5179 7.27299 12.9441 6.76855 12.9951L6.66699 13H4C3.44772 13 3 12.5523 3 12C3 11.4477 3.44772 11 4 11H6.66699ZM20 11C20.5523 11 21 11.4477 21 12C21 12.5523 20.5523 13 20 13H17.333C16.7809 12.9998 16.333 12.5522 16.333 12C16.333 11.4478 16.7809 11.0002 17.333 11H20ZM5.13086 5.13086C5.49703 4.76469 6.07695 4.74201 6.46973 5.0625L6.54492 5.13086L9.37402 7.95996L9.44238 8.03516C9.76296 8.42793 9.74022 9.00783 9.37402 9.37402C9.00782 9.7402 8.42793 9.76296 8.03516 9.44238L7.95996 9.37402L5.13086 6.54492L5.0625 6.46973C4.74201 6.07696 4.76471 5.49703 5.13086 5.13086ZM17.4551 5.13086C17.8456 4.74069 18.4787 4.74045 18.8691 5.13086C19.2595 5.52127 19.2593 6.15438 18.8691 6.54492L16.04 9.37402C15.6495 9.7642 15.0164 9.76442 14.626 9.37402C14.2356 8.98361 14.2358 8.35051 14.626 7.95996L17.4551 5.13086ZM11 6.66699V4C11 3.44772 11.4477 3 12 3C12.5523 3 13 3.44772 13 4V6.66699C12.9998 7.21913 12.5522 7.66699 12 7.66699C11.4478 7.66699 11.0002 7.21913 11 6.66699Z" fill="currentColor" style="fill:currentColor;fill:currentColor;fill-opacity:1;"/>
</svg>
