<svg width="32" height="32" viewBox="0 0 32 32" fill="none" xmlns="http://www.w3.org/2000/svg">
<path d="M23.0002 9.00019H9.00024V21.5998C9.00024 22.7363 9.00065 23.5289 9.05103 24.1457C9.10047 24.7508 9.19318 25.0991 9.32739 25.3625C9.61499 25.9269 10.0735 26.3854 10.6379 26.673L10.7415 26.7219C10.9926 26.83 11.3248 26.9062 11.8538 26.9494C12.4706 26.9998 13.2632 27.0002 14.3997 27.0002H17.5999C18.7365 27.0002 19.5289 26.9998 20.1458 26.9494C20.7507 26.9 21.0982 26.8072 21.3616 26.673L21.5686 26.5578C22.0385 26.2696 22.4214 25.8564 22.6731 25.3625L22.7209 25.259C22.8292 25.0077 22.9052 24.6752 22.9485 24.1457C22.9989 23.5289 23.0002 22.7363 23.0002 21.5998V9.00019ZM14.3323 5.0041C13.8291 5.01189 13.5871 5.03271 13.4114 5.08222L13.3118 5.11543C13.1171 5.19197 12.9396 5.30491 12.7874 5.44648L12.6438 5.59785C12.4832 5.78993 12.3707 6.06095 12.0549 7.00019H19.9446C19.6713 6.18746 19.551 5.87475 19.4192 5.68086L19.3567 5.59785C19.2225 5.43741 19.0596 5.30396 18.8772 5.20429L18.6877 5.11543C18.4992 5.04137 18.2715 5.01345 17.6672 5.0041L16.925 5.00019H15.0754L14.3323 5.0041ZM25.0002 21.5998C25.0002 22.7034 25.0002 23.5916 24.9417 24.3088C24.8895 24.9467 24.787 25.5167 24.5598 26.0461L24.4553 26.2697C24.006 27.1517 23.3056 27.8801 22.4446 28.3625L22.2698 28.4553C21.6776 28.757 21.0375 28.883 20.3088 28.9426C19.5917 29.0012 18.7035 29.0002 17.5999 29.0002H14.3997C13.2964 29.0002 12.4087 29.0011 11.6917 28.9426C11.054 28.8905 10.4836 28.7878 9.95435 28.5607L9.72974 28.4553C8.84779 28.0059 8.12039 27.3055 7.63794 26.4445L7.54517 26.2697C7.24348 25.6775 7.1174 25.0376 7.05786 24.3088C6.99927 23.5916 7.00024 22.7034 7.00024 21.5998V9.00019H5.33325C4.78097 9.00019 4.33325 8.55248 4.33325 8.00019C4.33325 7.44791 4.78097 7.00019 5.33325 7.00019H9.94556L10.0784 6.60175L10.3088 5.91523C10.5326 5.26929 10.7531 4.74094 11.1096 4.31464L11.262 4.14277C11.6303 3.75454 12.0805 3.45162 12.5803 3.25507L12.843 3.16621C13.4693 2.98761 14.1823 3.00019 15.0754 3.00019H16.925L17.6477 3.00214C18.3316 3.01012 18.9028 3.05162 19.4202 3.25507L19.6311 3.34492C20.116 3.57164 20.5463 3.90263 20.8909 4.31464L21.0579 4.53632C21.4252 5.07394 21.6387 5.7544 21.9211 6.60175L22.054 7.00019H26.6663L26.7688 7.00507C27.2731 7.05626 27.6663 7.4824 27.6663 8.00019C27.6663 8.51798 27.2731 8.94413 26.7688 8.99531L26.6663 9.00019H25.0002V21.5998Z" fill="currentColor" style="fill:currentColor;fill:currentColor;fill-opacity:1;"/>
<path d="M16.9998 19.5861L16.9998 14.0002C16.9998 13.4479 16.5521 13.0002 15.9998 13.0002C15.4476 13.0004 14.9998 13.448 14.9998 14.0002L14.9998 19.5861L14.0408 18.6262L13.9646 18.5578C13.572 18.2375 12.9929 18.2604 12.6267 18.6262C12.2606 18.9923 12.237 19.5723 12.5574 19.965L12.6267 20.0402L15.2927 22.7072C15.659 23.0735 16.2388 23.0963 16.6316 22.7756L16.7068 22.7072L19.3738 20.0402C19.7641 19.6497 19.7643 19.0166 19.3738 18.6262C18.9833 18.2359 18.3502 18.2359 17.9597 18.6262L16.9998 19.5861Z" fill="currentColor" style="fill:currentColor;fill:currentColor;fill-opacity:1;"/>
</svg>
