<svg width="32" height="32" viewBox="0 0 32 32" fill="none" xmlns="http://www.w3.org/2000/svg">
<path fill-rule="evenodd" clip-rule="evenodd" d="M2 6.5C2 5.11929 3.11929 4 4.5 4H27.5C28.8807 4 30 5.11929 30 6.5V21.5C30 22.8807 28.8807 24 27.5 24H19V26H24C24.5523 26 25 26.4477 25 27C25 27.5523 24.5523 28 24 28H8C7.44772 28 7 27.5523 7 27C7 26.4477 7.44772 26 8 26H13V24H4.5C3.11929 24 2 22.8807 2 21.5V6.5ZM15 24V26H17V24H15ZM4.5 22C4.22386 22 4 21.7761 4 21.5V6.5C4 6.22386 4.22386 6 4.5 6H27.5C27.7761 6 28 6.22386 28 6.5V21.5C28 21.7761 27.7761 22 27.5 22H4.5Z" fill="currentColor" style="fill:currentColor;fill:currentColor;fill-opacity:1;"/>
</svg>
