<svg width="32" height="32" viewBox="0 0 32 32" fill="none" xmlns="http://www.w3.org/2000/svg">
<path d="M27 5.33301C27 4.89098 26.8243 4.46686 26.5117 4.1543C26.1992 3.84174 25.775 3.66602 25.333 3.66602H6.66699C6.22496 3.66602 5.80084 3.84174 5.48828 4.1543C5.17572 4.46686 5 4.89098 5 5.33301V26.666C5 27.108 5.17572 27.5322 5.48828 27.8447C5.80083 28.1572 6.22504 28.333 6.66699 28.333H25.333C25.775 28.333 26.1992 28.1572 26.5117 27.8447C26.8243 27.5322 27 27.108 27 26.666V5.33301ZM23 17.333C23 15.4766 22.2628 13.6956 20.9502 12.3828C19.7194 11.152 18.077 10.4265 16.3467 10.3408L16 10.333C14.1435 10.333 12.3626 11.0701 11.0498 12.3828C9.73715 13.6956 9 15.4766 9 17.333L9.00879 17.6797C9.09459 19.4097 9.81927 21.0515 11.0498 22.2822C12.3626 23.595 14.1435 24.333 16 24.333L16.3467 24.3242C18.077 24.2385 19.7194 23.513 20.9502 22.2822C22.2627 20.9696 22.9999 19.1893 23 17.333ZM11 17.333C11 16.7807 11.4477 16.333 12 16.333C12.5523 16.333 13 16.7807 13 17.333C13.0001 18.1285 13.3164 18.8916 13.8789 19.4541C14.4415 20.0166 15.2044 20.333 16 20.333C16.5523 20.333 17 20.7807 17 21.333C16.9998 21.8851 16.5522 22.333 16 22.333C14.674 22.333 13.4025 21.8057 12.4648 20.8682C11.5272 19.9306 11.0001 18.659 11 17.333ZM23.2734 5.99219C23.6449 5.58361 24.2769 5.55351 24.6855 5.9248C25.0942 6.29629 25.1244 6.92826 24.7529 7.33691L24.7402 7.35156L24.667 7.42383C24.2899 7.76249 23.7103 7.76723 23.3271 7.41895C22.9188 7.04748 22.8886 6.41541 23.2598 6.00684L23.2734 5.99219ZM25 17.333C24.9999 19.7197 24.0518 22.0086 22.3643 23.6963C20.7819 25.2786 18.6707 26.2109 16.4463 26.3213L16 26.333C13.6131 26.333 11.3236 25.3841 9.63574 23.6963C8.05368 22.1141 7.12116 20.0035 7.01074 17.7793L7 17.333C7 14.9461 7.94802 12.6566 9.63574 10.9688C11.3236 9.28092 13.6131 8.33301 16 8.33301L16.4463 8.34375C18.6708 8.45411 20.7819 9.38641 22.3643 10.9688C24.052 12.6566 25 14.9461 25 17.333ZM29 26.666C29 27.6385 28.6134 28.5712 27.9258 29.2588C27.2382 29.9463 26.3054 30.333 25.333 30.333H6.66699C5.69461 30.333 4.76184 29.9463 4.07422 29.2588C3.38659 28.5712 3 27.6385 3 26.666V5.33301C3 4.36055 3.38659 3.42787 4.07422 2.74023C4.76185 2.0526 5.69453 1.66602 6.66699 1.66602H25.333C26.3055 1.66602 27.2381 2.0526 27.9258 2.74023C28.6134 3.42787 29 4.36055 29 5.33301V26.666Z" fill="currentColor" style="fill:currentColor;fill:currentColor;fill-opacity:1;"/>
</svg>
