<svg width="32" height="32" viewBox="0 0 32 32" fill="none" xmlns="http://www.w3.org/2000/svg">
<path d="M20.3311 23.7635C20.6822 23.5616 21.1171 23.5612 21.4668 23.7654C22.9709 24.6446 24.6356 25.1209 26.2998 25.1209H28C28.5523 25.1209 29 25.5686 29 26.1209V26.6932C28.9999 27.2454 28.5522 27.6932 28 27.6932H26.2998C24.5989 27.6931 22.9204 27.3176 21.3467 26.616C21.0626 26.4894 20.7373 26.4906 20.4531 26.617C17.322 28.0091 13.678 28.0091 10.5469 26.617C10.2627 26.4906 9.93744 26.4896 9.65332 26.616C8.0777 27.3176 6.38885 27.6931 4.7002 27.6932H3C2.44778 27.6932 2.00011 27.2454 2 26.6932V26.1209C2 25.5686 2.44772 25.1209 3 25.1209H4.7002C6.36443 25.1209 8.02908 24.6446 9.5332 23.7654C9.88294 23.5612 10.3178 23.5616 10.6689 23.7635C13.6763 25.492 17.3237 25.492 20.3311 23.7635Z" fill="currentColor" style="fill:currentColor;fill:currentColor;fill-opacity:1;"/>
<path d="M20.3311 16.0457C20.6822 15.844 21.1171 15.8444 21.4668 16.0486C22.9709 16.9278 24.6356 17.4031 26.2998 17.4031H28C28.5521 17.4031 28.9998 17.8511 29 18.4031V18.9764C28.9998 19.5285 28.5521 19.9764 28 19.9764H26.2998C24.5989 19.9763 22.9204 19.6008 21.3467 18.8992C21.0626 18.7726 20.7373 18.7729 20.4531 18.8992C17.3219 20.2915 13.6781 20.2915 10.5469 18.8992C10.2627 18.7729 9.93746 18.7727 9.65332 18.8992C8.0777 19.6008 6.38885 19.9763 4.7002 19.9764H3C2.44786 19.9764 2.00024 19.5285 2 18.9764V18.4031C2.00025 17.8511 2.44787 17.4031 3 17.4031H4.7002C6.36443 17.4031 8.02908 16.9278 9.5332 16.0486C9.88287 15.8444 10.3178 15.844 10.6689 16.0457C13.6763 17.7743 17.3237 17.7743 20.3311 16.0457Z" fill="currentColor" style="fill:currentColor;fill:currentColor;fill-opacity:1;"/>
<path d="M10.4346 4.97051C10.7245 4.62373 11.1832 4.60258 11.4941 4.90606L11.5547 4.97051L17.2607 11.7986H24.2832C25.5314 11.7986 25.5774 11.8857 26.2061 11.7986H28.4131C28.8504 11.7986 29.2051 12.2227 29.2051 12.7459C29.2048 13.2689 28.8502 13.6932 28.4131 13.6932H25.8193C25.0773 13.9248 24.5772 13.5461 23.835 13.6932H17.2607C16.8933 13.6931 16.5386 13.5398 16.2568 13.2635L16.1406 13.1385L10.4346 6.31035L10.3809 6.23809C10.1273 5.86612 10.145 5.31739 10.4346 4.97051Z" fill="currentColor" style="fill:currentColor;fill:currentColor;fill-opacity:1;"/>
<path d="M3.30859 4.97051C3.59846 4.62366 4.05718 4.60259 4.36816 4.90606L4.42871 4.97051L9.01562 10.4588C10.0124 11.6525 9.30591 13.693 7.89551 13.6932H3.86914C3.43201 13.6932 3.07738 13.2689 3.07715 12.7459C3.07715 12.2227 3.43186 11.7986 3.86914 11.7986H7.89551L3.30859 6.31035L3.25488 6.23809C3.00135 5.86611 3.01903 5.31738 3.30859 4.97051Z" fill="currentColor" style="fill:currentColor;fill:currentColor;fill-opacity:1;"/>
</svg>
