<svg width="32" height="32" viewBox="0 0 32 32" fill="none" xmlns="http://www.w3.org/2000/svg">
<path fill-rule="evenodd" clip-rule="evenodd" d="M28.7279 12.2721C21.6985 5.24264 10.3015 5.24264 3.27205 12.2721C2.88152 12.6626 2.24836 12.6626 1.85783 12.2721C1.46731 11.8816 1.46731 11.2484 1.85783 10.8579C9.66832 3.04738 22.3316 3.04738 30.1421 10.8579C30.5326 11.2484 30.5326 11.8816 30.1421 12.2721C29.7516 12.6626 29.1184 12.6626 28.7279 12.2721ZM24.4853 16.5148C19.799 11.8285 12.201 11.8285 7.51469 16.5148C7.12416 16.9053 6.491 16.9053 6.10047 16.5148C5.70995 16.1243 5.70995 15.4911 6.10047 15.1006C11.5678 9.63324 20.4321 9.63324 25.8995 15.1006C26.29 15.4911 26.29 16.1243 25.8995 16.5148C25.5089 16.9053 24.8758 16.9053 24.4853 16.5148ZM20.2426 20.7575C17.8995 18.4144 14.1005 18.4144 11.7573 20.7575C11.3668 21.148 10.7336 21.148 10.3431 20.7575C9.95259 20.367 9.95259 19.7338 10.3431 19.3433C13.4673 16.2191 18.5326 16.2191 21.6568 19.3433C22.0473 19.7338 22.0473 20.367 21.6568 20.7575C21.2663 21.148 20.6331 21.148 20.2426 20.7575ZM14.5858 23.5859C15.3668 22.8048 16.6331 22.8048 17.4142 23.5859C17.8047 23.9764 17.8047 24.6095 17.4142 25.0001L16.7071 25.7072C16.5195 25.8947 16.2652 26.0001 16 26.0001C15.7348 26.0001 15.4804 25.8947 15.2929 25.7072L14.5858 25.0001C14.1952 24.6095 14.1952 23.9764 14.5858 23.5859Z" fill="currentColor" style="fill:currentColor;fill:currentColor;fill-opacity:1;"/>
</svg>
