<svg width="32" height="32" viewBox="0 0 32 32" fill="none" xmlns="http://www.w3.org/2000/svg">
<path fill-rule="evenodd" clip-rule="evenodd" d="M9 5H7V13H9V15H7V23H15V15H13V13H15V5H13V3H19V5H17V13H19V15H17V23H25V15H23V13H25V5H23V3H27V23H29V29H3V23H5V3H9V5ZM5 27H27V25H5V27Z" fill="currentColor" style="fill:currentColor;fill:currentColor;fill-opacity:1;"/>
<path d="M10 2C10 1.44772 10.4477 1 11 1C11.5523 1 12 1.44772 12 2V23H10V2Z" fill="currentColor" style="fill:currentColor;fill:currentColor;fill-opacity:1;"/>
<path d="M20 2C20 1.44772 20.4477 1 21 1C21.5523 1 22 1.44772 22 2V23H20V2Z" fill="currentColor" style="fill:currentColor;fill:currentColor;fill-opacity:1;"/>
</svg>
