<svg width="32" height="32" viewBox="0 0 32 32" fill="none" xmlns="http://www.w3.org/2000/svg">
<path fill-rule="evenodd" clip-rule="evenodd" d="M22.0801 4.67969C22.5443 4.67989 22.8395 4.97048 22.9854 5.25195C23.1204 5.51261 23.1601 5.80776 23.1602 6.04102V11.5889C23.1601 15.1575 20.556 17.9996 17.0801 18.0371V25.1592H20.8008C21.485 25.1596 22.04 25.715 22.04 26.3994C22.04 27.0837 21.485 27.6392 20.8008 27.6396H11.5205C10.8359 27.6396 10.2803 27.084 10.2803 26.3994C10.2803 25.7148 10.8359 25.1592 11.5205 25.1592H14.6006V18.1045C13.1917 17.9132 11.845 17.1909 10.8154 16.1592C9.64196 14.9831 8.83988 13.366 8.83984 11.5889V6.04102C8.83992 5.63152 9.07993 5.2935 9.29688 5.08984C9.51664 4.88366 9.85686 4.67976 10.2402 4.67969H22.0801ZM21.4404 26.3994C21.4404 26.4849 21.4221 26.5661 21.3916 26.6406C21.4064 26.6045 21.4197 26.5674 21.4277 26.5283L21.4404 26.3994ZM14.3994 17.4639C14.6647 17.515 14.9326 17.5459 15.2002 17.5537L14.9297 17.5381C14.7523 17.523 14.5754 17.4978 14.3994 17.4639ZM11.3203 11.5889C11.3204 13.7189 13.3349 15.5593 15.5078 15.5596H17.0107C19.0403 15.5593 20.6806 13.8425 20.6807 11.5889V7.15918H11.3203V11.5889ZM14.918 16.1182C15.0372 16.134 15.1569 16.1471 15.2773 16.1533L15.0615 16.1367C15.0135 16.1319 14.9658 16.1245 14.918 16.1182ZM22.5322 12.1904C22.5411 12.0929 22.5492 11.9946 22.5537 11.8955L22.5605 11.5889C22.5605 11.7924 22.5502 11.993 22.5322 12.1904ZM10.7197 11.5889C10.7197 11.6886 10.7252 11.7875 10.7324 11.8857C10.7308 11.8643 10.7288 11.8428 10.7275 11.8213L10.7197 11.5889ZM10.1035 5.29785C9.96562 5.33353 9.82374 5.41778 9.70703 5.52734L9.83203 5.42676C9.94049 5.35157 10.0596 5.29953 10.1729 5.28418L10.1035 5.29785ZM20.7998 25.7598C20.8859 25.7598 20.968 25.7768 21.043 25.8076C21.0067 25.7927 20.9689 25.7806 20.9297 25.7725L20.7998 25.7598Z" fill="currentColor" style="fill:currentColor;fill:currentColor;fill-opacity:1;"/>
</svg>
