<svg width="32" height="32" viewBox="0 0 32 32" fill="none" xmlns="http://www.w3.org/2000/svg">
<path fill-rule="evenodd" clip-rule="evenodd" d="M16 5C9.92487 5 5 9.92487 5 16C5 18.8985 6.12005 21.5343 7.95321 23.5001C9.96014 21.3479 12.8228 20 16 20C19.1772 20 22.0399 21.3479 24.0468 23.5001C25.8799 21.5343 27 18.8985 27 16C27 9.92487 22.0751 5 16 5ZM22.5559 24.8339C20.9134 23.0881 18.5839 22 16 22C13.4161 22 11.0866 23.0881 9.4441 24.8339C11.2751 26.1952 13.5427 27 16 27C18.4573 27 20.7249 26.1952 22.5559 24.8339ZM3 16C3 8.8203 8.8203 3 16 3C23.1797 3 29 8.8203 29 16C29 19.8631 27.3137 23.3337 24.6403 25.7134C22.3442 27.7571 19.316 29 16 29C12.684 29 9.65583 27.7571 7.35974 25.7134C4.68631 23.3337 3 19.8631 3 16ZM16 10C14.3431 10 13 11.3431 13 13C13 14.6569 14.3431 16 16 16C17.6569 16 19 14.6569 19 13C19 11.3431 17.6569 10 16 10ZM11 13C11 10.2386 13.2386 8 16 8C18.7614 8 21 10.2386 21 13C21 15.7614 18.7614 18 16 18C13.2386 18 11 15.7614 11 13Z" fill="currentColor" style="fill:currentColor;fill:currentColor;fill-opacity:1;"/>
</svg>
