<svg width="32" height="32" viewBox="0 0 32 32" fill="none" xmlns="http://www.w3.org/2000/svg">
<path fill-rule="evenodd" clip-rule="evenodd" d="M14.7993 3C15.462 3 15.9989 3.52899 15.999 4.18158V12.4553H23.2V11.5524C23.2 10.3236 23.8461 9.19246 24.8901 8.54867C24.9484 8.51276 25.0078 8.47847 25.0685 8.44567C25.1089 8.42382 25.1492 8.40115 25.1907 8.38074L26.2639 7.85184C26.3457 7.8116 26.43 7.78154 26.5152 7.76095C27.0473 7.63269 27.6178 7.87783 27.8731 8.38074C28.1695 8.96455 27.9289 9.67468 27.3361 9.96657L26.263 10.4946C25.8564 10.6948 25.5994 11.1047 25.5994 11.5524V13.6368C25.5994 15.7407 24.966 17.7972 23.7792 19.5465C23.15 20.4737 22.3803 21.2924 21.5019 21.9772C23.1536 22.2991 24.3996 23.734 24.3997 25.4553C24.3997 26.5779 23.8693 27.5782 23.0426 28.2279C22.9561 28.2958 22.8665 28.36 22.7737 28.42C22.5742 28.5491 22.3609 28.6587 22.1365 28.7472C22.0677 28.7743 21.9981 28.7996 21.9273 28.8225C21.5725 28.9378 21.1936 29 20.7996 29C18.8116 28.9997 17.2005 27.4133 17.2005 25.4553C17.2005 24.9063 17.3268 24.3861 17.5529 23.9222C17.4542 23.9479 17.3543 23.9721 17.255 23.9949C17.0562 24.0406 16.8563 24.0808 16.6556 24.1153C16.0528 24.2188 15.4421 24.272 14.8301 24.2737C14.3043 24.2751 13.7777 24.2375 13.2542 24.1629C13.0853 24.1388 12.9168 24.1109 12.7488 24.0789C12.7304 24.0754 12.7118 24.073 12.6934 24.0694C12.585 24.0482 12.4766 24.0255 12.3691 24.001L12.0474 23.9222C12.2737 24.3861 12.3989 24.9063 12.399 25.4553C12.399 25.868 12.3267 26.2641 12.1951 26.6325C12.128 26.8203 12.0458 27.0009 11.949 27.1727C11.8979 27.2634 11.8433 27.3519 11.7846 27.4375C11.7049 27.5538 11.6172 27.6641 11.5245 27.7699C11.4969 27.8014 11.4696 27.833 11.441 27.8634C11.3894 27.9183 11.3351 27.9703 11.2801 28.0218C11.2181 28.08 11.1555 28.1377 11.0894 28.1915C10.9734 28.2858 10.8504 28.3716 10.7229 28.4512C10.5936 28.5319 10.4592 28.6051 10.3195 28.6693C10.1877 28.7299 10.0515 28.7822 9.91165 28.8269C9.5612 28.9389 9.18733 29 8.79895 29C6.81113 28.9995 5.19979 27.4132 5.19979 25.4553C5.1998 25.3357 5.20651 25.2177 5.21825 25.1012C5.24411 24.8446 5.29715 24.5961 5.37557 24.3585C5.53826 23.8657 5.80957 23.4222 6.15869 23.0505C6.32126 22.8775 6.49858 22.718 6.69307 22.5796C7.10436 22.2869 7.58134 22.0778 8.09757 21.9772C7.77156 21.7231 7.45931 21.4499 7.16329 21.1583C5.65287 19.6707 4.62423 17.775 4.2075 15.7117C3.79088 13.6486 4.00461 11.5101 4.82186 9.56665C5.63928 7.62311 7.02385 5.96148 8.79982 4.79272C10.5757 3.6241 12.6635 3.00013 14.7993 3ZM8.79895 24.265C8.13138 24.2652 7.59057 24.7978 7.59044 25.4553C7.59044 26.113 8.1313 26.6462 8.79895 26.6464C9.46664 26.6462 10.0092 26.113 10.0092 25.4553C10.0091 24.962 9.70414 24.5391 9.27004 24.3585C9.16149 24.3133 9.04489 24.2833 8.92287 24.2711L8.79895 24.265ZM20.7996 24.265C20.1319 24.265 19.5904 24.7977 19.5903 25.4553C19.5903 26.1131 20.1318 26.6464 20.7996 26.6464C21.1989 26.6462 21.5518 26.4539 21.7717 26.1599C21.7902 26.1351 21.8079 26.1099 21.8245 26.0837C21.9401 25.901 22.009 25.6864 22.009 25.4553C22.009 25.1457 21.8882 24.8645 21.6917 24.6528C21.6482 24.6059 21.6009 24.5626 21.5502 24.523C21.454 24.4478 21.3462 24.3866 21.2294 24.3429C21.1788 24.3239 21.1266 24.3084 21.073 24.2962C20.9854 24.2763 20.8934 24.2651 20.7996 24.265ZM6.53926 14.8184C6.56005 14.9594 6.58476 15.1007 6.61309 15.2408C6.93519 16.8354 7.73016 18.2999 8.89738 19.4495C10.0646 20.599 11.5517 21.382 13.1707 21.6993C13.6767 21.7984 14.1889 21.8509 14.7 21.8568C15.0066 21.8605 15.3129 21.8474 15.6176 21.8179C15.807 21.7995 15.9957 21.7737 16.1836 21.7426C16.2132 21.7377 16.2428 21.7322 16.2724 21.727C16.4574 21.6943 16.6416 21.6569 16.8243 21.6119L17.1214 21.5331C17.4167 21.4489 17.7082 21.3485 17.9941 21.2319C19.5193 20.6096 20.823 19.5558 21.7401 18.2039C22.4333 17.1822 22.8824 16.0247 23.0602 14.8184H6.53926ZM13.5996 5.50166C12.3748 5.67691 11.1995 6.11915 10.1621 6.80184C8.78954 7.70514 7.71944 8.98903 7.0877 10.4911C6.82148 11.1242 6.63822 11.7843 6.53926 12.4553H13.6005L13.5996 5.50166Z" fill="currentColor" style="fill:currentColor;fill:currentColor;fill-opacity:1;"/>
</svg>
