<svg width="32" height="32" viewBox="0 0 32 32" fill="none" xmlns="http://www.w3.org/2000/svg">
<path fill-rule="evenodd" clip-rule="evenodd" d="M26.6022 2.20166C26.8527 2.39062 27 2.68622 27 3.00001V7.97788C27.0003 7.993 27.0003 8.00809 27 8.02313V21.7371C27 23.523 25.8161 25.0926 24.0989 25.5832L22.3389 26.0861C20.1645 26.7073 18 25.0746 18 22.8132C18 21.2935 19.0075 19.9579 20.4687 19.5404L23.5494 18.6602C24.408 18.4148 25 17.6301 25 16.7371V9.32574L13 12.7543V25.7371C13 27.523 11.8161 29.0926 10.0989 29.5832L8.33891 30.0861C6.1645 30.7073 4 29.0746 4 26.8132C4 25.2935 5.00745 23.9579 6.46871 23.5404L9.54944 22.6602C10.408 22.4148 11 21.6301 11 20.7371V12.0221C10.9997 12.007 10.9997 11.9919 11 11.9769V7.00001C11 6.55353 11.296 6.16114 11.7253 6.03849L25.7253 2.03848C26.027 1.95228 26.3517 2.0127 26.6022 2.20166ZM13 10.6743L25 7.24571V4.32574L13 7.75431V10.6743ZM11 24.2016C10.721 24.3626 10.4192 24.4917 10.0989 24.5832L7.01815 25.4634C6.4155 25.6356 6 26.1864 6 26.8132C6 27.7459 6.89269 28.4192 7.78947 28.163L9.54944 27.6602C10.408 27.4148 11 26.6301 11 25.7371V24.2016ZM25 20.2016C24.721 20.3626 24.4192 20.4917 24.0989 20.5832L21.0182 21.4634C20.4155 21.6356 20 22.1864 20 22.8132C20 23.7459 20.8927 24.4192 21.7895 24.163L23.5494 23.6602C24.408 23.4148 25 22.6301 25 21.7371V20.2016Z" fill="currentColor" style="fill:currentColor;fill:currentColor;fill-opacity:1;"/>
</svg>
