<svg width="32" height="32" viewBox="0 0 32 32" fill="none" xmlns="http://www.w3.org/2000/svg">
<path fill-rule="evenodd" clip-rule="evenodd" d="M16 5C9.92487 5 5 9.92487 5 16C5 22.0751 9.92487 27 16 27C22.0751 27 27 22.0751 27 16C27 9.92487 22.0751 5 16 5ZM3 16C3 8.8203 8.8203 3 16 3C23.1797 3 29 8.8203 29 16C29 23.1797 23.1797 29 16 29C8.8203 29 3 23.1797 3 16ZM16 11C16.5523 11 17 11.4477 17 12V17C17 17.5523 16.5523 18 16 18C15.4477 18 15 17.5523 15 17V12C15 11.4477 15.4477 11 16 11ZM15 21C15 20.4477 15.4477 20 16 20H16.01C16.5623 20 17.01 20.4477 17.01 21V21.01C17.01 21.5623 16.5623 22.01 16.01 22.01H16C15.4477 22.01 15 21.5623 15 21.01V21Z" fill="currentColor" style="fill:currentColor;fill:currentColor;fill-opacity:1;"/>
</svg>
