<svg width="32" height="32" viewBox="0 0 32 32" fill="none" xmlns="http://www.w3.org/2000/svg">
<path fill-rule="evenodd" clip-rule="evenodd" d="M15.3124 2.89307C15.698 2.52783 16.302 2.52783 16.6876 2.89307C19.3766 5.4397 23.005 7.00014 27 7.00014C27.0636 7.00014 27.127 6.99975 27.1904 6.99896C27.6269 6.99354 28.0164 7.27187 28.1528 7.68655C28.7028 9.35957 29 11.1462 29 13.0002C29 20.9229 23.5813 27.5774 16.2493 29.4646C16.0858 29.5067 15.9143 29.5067 15.7507 29.4646C8.41874 27.5774 3 20.9229 3 13.0002C3 11.1462 3.29716 9.35957 3.84722 7.68655C3.98356 7.27187 4.37312 6.99354 4.80961 6.99896C4.87298 6.99975 4.93644 7.00014 5 7.00014C8.99499 7.00014 12.6234 5.4397 15.3124 2.89307ZM5.54133 8.99168C5.18867 10.2667 5 11.6107 5 13.0002C5 19.8982 9.65706 25.7109 16 27.4612C22.3429 25.7109 27 19.8982 27 13.0002C27 11.6107 26.8113 10.2667 26.4587 8.99168C22.4755 8.867 18.8363 7.37122 16 4.96203C13.1637 7.37122 9.52454 8.867 5.54133 8.99168ZM20.5812 12.1864C21.0307 12.5074 21.1347 13.132 20.8137 13.5814L15.8137 20.5814C15.6429 20.8206 15.3754 20.9725 15.0825 20.9967C14.7895 21.021 14.5007 20.9151 14.2929 20.7072L11.2929 17.7072C10.9024 17.3167 10.9024 16.6835 11.2929 16.293C11.6834 15.9025 12.3166 15.9025 12.7071 16.293L14.8724 18.4583L19.1863 12.4189C19.5073 11.9695 20.1318 11.8654 20.5812 12.1864Z" fill="currentColor" style="fill:currentColor;fill:currentColor;fill-opacity:1;"/>
</svg>
