<svg width="32" height="32" viewBox="0 0 32 32" fill="none" xmlns="http://www.w3.org/2000/svg">
<path d="M18.8947 23.9331L17.48 27.5771C17.4249 27.7015 17.3418 27.8028 17.2307 27.8811C17.1196 27.9593 16.9907 27.9988 16.844 27.9997C16.604 27.9997 16.4183 27.902 16.2867 27.7064C16.1552 27.5109 16.1347 27.302 16.2254 27.0797L21.5227 13.7304C21.5832 13.606 21.6645 13.5082 21.7667 13.4371C21.8698 13.3677 21.9863 13.3331 22.116 13.3331H22.6027C22.7325 13.3331 22.8489 13.3682 22.952 13.4384C23.0543 13.5086 23.1352 13.606 23.1947 13.7304L28.492 27.0877C28.5845 27.3046 28.5658 27.5109 28.436 27.7064C28.3063 27.902 28.1214 27.9997 27.8814 27.9997C27.7303 27.9997 27.6 27.9602 27.4907 27.8811C27.3823 27.8028 27.2978 27.6988 27.2374 27.5691L25.824 23.9331H18.8947ZM11.888 17.6077L5.83071 23.6824C5.70627 23.8246 5.55471 23.8966 5.37604 23.8984C5.19738 23.9002 5.03471 23.8282 4.88804 23.6824C4.74582 23.5402 4.67471 23.3828 4.67471 23.2104C4.67471 23.038 4.74582 22.8806 4.88804 22.7384L10.944 16.6557C10.1832 15.878 9.42627 14.9206 8.67338 13.7837C7.92049 12.6468 7.36271 11.6077 7.00004 10.6664H8.44004C8.76538 11.4131 9.25738 12.2708 9.91604 13.2397C10.5738 14.2095 11.2312 15.034 11.888 15.7131C13.048 14.5344 14.0783 13.2415 14.9787 11.8344C15.8783 10.4264 16.4765 9.14818 16.7734 7.99974H3.84671C3.65649 7.99974 3.49782 7.93618 3.37071 7.80907C3.24271 7.68107 3.17871 7.5224 3.17871 7.33307C3.17871 7.14374 3.24271 6.98507 3.37071 6.85707C3.49782 6.72996 3.65604 6.6664 3.84538 6.6664H11.3334V5.69307C11.3334 5.50285 11.3969 5.34374 11.524 5.21574C11.6512 5.08774 11.8098 5.02463 12 5.0264C12.1903 5.02818 12.3489 5.09174 12.476 5.21707C12.6032 5.3424 12.6667 5.50107 12.6667 5.69307V6.6664H20.1547C20.344 6.6664 20.5023 6.72996 20.6294 6.85707C20.7574 6.98507 20.8214 7.14374 20.8214 7.33307C20.8214 7.5224 20.7574 7.68107 20.6294 7.80907C20.5023 7.93618 20.344 7.99974 20.1547 7.99974H18.1587C17.7605 9.39529 17.0818 10.8815 16.1227 12.4584C15.1636 14.0362 14.0663 15.4406 12.8307 16.6717L16.2107 20.1437L15.6974 21.5171L11.888 17.6077ZM19.344 22.7277H25.3747L22.3587 14.9797L19.344 22.7277Z" fill="currentColor" style="fill:currentColor;fill:currentColor;fill-opacity:1;"/>
</svg>
