<svg width="32" height="32" viewBox="0 0 32 32" fill="none" xmlns="http://www.w3.org/2000/svg">
<path fill-rule="evenodd" clip-rule="evenodd" d="M10.25 6C7.31164 6 5 8.27666 5 11C5 15.3939 7.74958 19.1454 10.6819 21.8788C12.1317 23.2303 13.5857 24.2945 14.6786 25.0211C15.2241 25.3837 15.6772 25.6606 15.9915 25.8455C15.9943 25.8472 15.9972 25.8488 16 25.8505C16.0028 25.8488 16.0057 25.8472 16.0085 25.8455C16.3228 25.6606 16.7759 25.3837 17.3214 25.0211C18.4143 24.2945 19.8683 23.2303 21.3181 21.8788C24.2504 19.1454 27 15.3939 27 11C27 8.27666 24.6884 6 21.75 6C19.5603 6 17.7051 7.2727 16.9136 9.05117C16.753 9.41204 16.395 9.64456 16 9.64456C15.605 9.64456 15.247 9.41204 15.0864 9.05117C14.2949 7.2727 12.4397 6 10.25 6ZM16 27C15.531 27.8832 15.5307 27.883 15.5303 27.8828L15.5266 27.8809L15.5179 27.8762L15.4877 27.8599C15.462 27.8459 15.4252 27.8257 15.3781 27.7994C15.2839 27.7469 15.1483 27.6699 14.9773 27.5693C14.6353 27.3681 14.1509 27.0719 13.5714 26.6866C12.4143 25.9175 10.8683 24.7868 9.31813 23.3418C6.25042 20.4821 3 16.2335 3 11C3 7.09593 6.2848 4 10.25 4C12.5818 4 14.6698 5.06545 16 6.73546C17.3302 5.06545 19.4182 4 21.75 4C25.7152 4 29 7.09593 29 11C29 16.2335 25.7496 20.4821 22.6819 23.3418C21.1317 24.7868 19.5857 25.9175 18.4286 26.6866C17.8491 27.0719 17.3647 27.3681 17.0227 27.5693C16.8517 27.6699 16.7161 27.7469 16.6219 27.7994C16.5748 27.8257 16.538 27.8459 16.5123 27.8599L16.4821 27.8762L16.4734 27.8809L16.4706 27.8823C16.4703 27.8825 16.469 27.8832 16 27ZM16 27L16.469 27.8832C16.1757 28.0389 15.8236 28.0386 15.5303 27.8828L16 27Z" fill="currentColor" style="fill:currentColor;fill:currentColor;fill-opacity:1;"/>
</svg>
