<svg width="32" height="32" viewBox="0 0 32 32" fill="none" xmlns="http://www.w3.org/2000/svg">
<path d="M23.9265 19.0363C23.4479 17.3014 22.4134 15.7714 20.9815 14.6811C19.5497 13.5908 17.7997 13.0003 16 13.0003C14.2002 13.0003 12.4502 13.5908 11.0184 14.6811C9.58655 15.7714 8.55198 17.3014 8.07339 19.0363L6.93289 23.1707C6.72812 23.913 6.69757 24.6926 6.84362 25.4487C6.98967 26.2047 7.30838 26.9169 7.7749 27.5295C8.24142 28.1421 8.84314 28.6387 9.53314 28.9806C10.2231 29.3225 10.9828 29.5003 11.7528 29.5003H20.2471C21.0171 29.5003 21.7768 29.3225 22.4668 28.9806C23.1568 28.6387 23.7585 28.1421 24.225 27.5295C24.6915 26.9169 25.0102 26.2047 25.1563 25.4487C25.3023 24.6926 25.2718 23.913 25.067 23.1707L23.9265 19.0363ZM22.6339 26.3176C22.3552 26.6865 21.9944 26.9855 21.5801 27.1908C21.1658 27.396 20.7094 27.502 20.2471 27.5003H11.7528C11.2908 27.5003 10.835 27.3936 10.421 27.1885C10.007 26.9834 9.64595 26.6854 9.36603 26.3178C9.08611 25.9502 8.89488 25.523 8.80725 25.0693C8.71962 24.6157 8.73796 24.1479 8.86083 23.7025L10.0013 19.5682C10.3635 18.2553 11.1465 17.0974 12.23 16.2723C13.3136 15.4471 14.638 15.0003 16 15.0003C17.3619 15.0003 18.6863 15.4471 19.7699 16.2723C20.8534 17.0974 21.6364 18.2553 21.9986 19.5682L23.1391 23.7025C23.2637 24.1477 23.2829 24.6159 23.1952 25.0698C23.1076 25.5238 22.9154 25.951 22.6339 26.3178V26.3176ZM9.1312 14.3947C9.3052 13.3072 9.07445 12.143 8.4812 11.1158C7.88795 10.0885 6.99495 9.30658 5.96639 8.91351C4.86489 8.49283 3.74139 8.55983 2.80177 9.10208C0.933829 10.1806 0.442267 12.8386 1.7062 15.0274C2.29927 16.0546 3.19233 16.8368 4.22089 17.2296C4.6765 17.4073 5.16082 17.4999 5.64983 17.5028C6.25904 17.505 6.85795 17.3457 7.38552 17.041C8.32458 16.4987 8.94458 15.5589 9.1312 14.3947ZM7.1562 14.0786C7.06683 14.6366 6.79308 15.0736 6.38539 15.309C5.9777 15.5443 5.46245 15.5628 4.93433 15.3613C4.33352 15.1318 3.80214 14.6581 3.43802 14.0274C2.73802 12.8149 2.90439 11.3524 3.80177 10.8341C4.02737 10.7062 4.28285 10.6402 4.5422 10.643C4.78549 10.6456 5.02627 10.6926 5.2527 10.7816C5.85352 11.0111 6.38489 11.4848 6.74902 12.1155C7.11314 12.7462 7.2577 13.4435 7.1562 14.0786ZM9.34783 10.2514C10.058 10.8191 10.8689 11.1147 11.689 11.1146C11.9346 11.1145 12.1795 11.0881 12.4195 11.0358C14.5272 10.5776 15.8051 8.19564 15.2683 5.72595C15.0164 4.56683 14.404 3.54989 13.544 2.86233C12.6231 2.12608 11.5322 1.84739 10.4723 2.07789C8.3647 2.53601 7.08677 4.91802 7.62358 7.3877C7.87552 8.54689 8.48789 9.56383 9.34783 10.2514ZM10.8971 4.03226C10.9943 4.01133 11.0934 4.00085 11.1928 4.00101C11.5646 4.00101 11.947 4.14645 12.2951 4.42483C12.7975 4.82639 13.1593 5.43945 13.3139 6.15114C13.6114 7.51958 13.0073 8.86164 11.9947 9.08176C11.5346 9.18176 11.0381 9.04252 10.5968 8.68958C10.0945 8.28795 9.73264 7.67489 9.57802 6.96326C9.28045 5.59445 9.88458 4.25239 10.8971 4.03226ZM29.1981 9.10208C28.2589 8.55983 27.1348 8.49283 26.0335 8.91351C25.005 9.30645 24.1119 10.0885 23.5188 11.1158C22.9258 12.143 22.695 13.3075 22.8688 14.3947C23.0552 15.5589 23.6751 16.4987 24.6145 17.041C25.142 17.3458 25.741 17.5051 26.3502 17.5028C26.8392 17.4999 27.3235 17.4073 27.7791 17.2296C28.8077 16.8368 29.7008 16.0546 30.2938 15.0274C31.5576 12.8386 31.0661 10.1806 29.1981 9.10208ZM28.5619 14.0274C28.1978 14.6581 27.6664 15.1318 27.0656 15.3613C26.5377 15.563 26.0223 15.5445 25.6146 15.309C25.207 15.0735 24.9334 14.6366 24.8438 14.0786C24.7422 13.4435 24.8867 12.7465 25.2509 12.1161C25.6151 11.4857 26.1464 11.0117 26.7472 10.7821C26.9736 10.693 27.2144 10.646 27.4577 10.6433C27.7171 10.6405 27.9725 10.7065 28.1981 10.8345C29.0955 11.3523 29.2621 12.8146 28.5619 14.0274ZM19.5804 11.0358C19.8204 11.0881 20.0653 11.1145 20.311 11.1146C21.131 11.1146 21.9422 10.8191 22.6521 10.2514C23.512 9.56389 24.1244 8.54689 24.3763 7.38776C24.9131 4.91808 23.6352 2.53608 21.5276 2.07795C20.4678 1.84758 19.3768 2.12608 18.4559 2.86239C17.5959 3.54989 16.9835 4.56689 16.7316 5.72595C16.1948 8.19564 17.4727 10.5776 19.5804 11.0358ZM18.686 6.15083C18.8406 5.43914 19.2025 4.82583 19.7048 4.42452C20.053 4.14614 20.4353 4.0007 20.8071 4.0007C20.9065 4.00054 21.0056 4.01102 21.1028 4.03195C22.1153 4.25208 22.7195 5.59445 22.422 6.96258C22.2673 7.67427 21.9055 8.28758 21.4033 8.68895C20.962 9.04183 20.4658 9.18108 20.0053 9.08114C18.9926 8.86133 18.3885 7.51908 18.686 6.15083Z" fill="currentColor" style="fill:currentColor;fill:currentColor;fill-opacity:1;"/>
</svg>
