<svg width="32" height="32" viewBox="0 0 32 32" fill="none" xmlns="http://www.w3.org/2000/svg">
<path fill-rule="evenodd" clip-rule="evenodd" d="M15.5997 3.7399C15.855 3.62837 16.1452 3.62837 16.4005 3.7399C21.3589 5.90633 26.0583 8.55467 30.4394 11.6256C30.7564 11.8478 30.9167 12.2331 30.8508 12.6146C30.7849 12.9962 30.5047 13.3054 30.1315 13.4084C29.2182 13.6605 28.3128 13.9314 27.4157 14.2207C27.7223 16.7685 27.9106 19.3524 27.975 21.9668C27.9852 22.3791 27.7412 22.7554 27.3606 22.9143C23.5591 24.5014 19.9432 26.4449 16.5546 28.7031C16.2188 28.9269 15.7813 28.9269 15.4455 28.7031C13.4028 27.3418 11.2774 26.0949 9.07862 24.9714C8.65389 25.8352 8.08233 26.6451 7.36399 27.3635C6.97347 27.754 6.3403 27.754 5.94978 27.3635C5.55926 26.9729 5.55926 26.3398 5.94978 25.9492C6.50862 25.3904 6.95318 24.7609 7.28351 24.0895C6.41273 23.6785 5.5312 23.2866 4.63946 22.9143C4.25888 22.7554 4.01488 22.3791 4.02504 21.9668C4.08945 19.3524 4.27777 16.7684 4.58439 14.2207C3.68729 13.9314 2.78192 13.6605 1.86873 13.4084C1.4955 13.3054 1.21528 12.9962 1.14939 12.6146C1.08349 12.2331 1.24377 11.8478 1.56082 11.6256C5.94194 8.55466 10.6413 5.90632 15.5997 3.7399ZM6.52082 14.8782C6.27617 17.0065 6.11609 19.1607 6.04403 21.3373C6.66842 21.6057 7.28784 21.8835 7.90209 22.1704C7.96739 21.7832 8.00003 21.3914 8.00003 20.9995V20.7319C7.40223 20.3861 7.00003 19.7398 7.00003 18.9995C7.00003 18.2592 7.40223 17.6129 8.00003 17.2671V15.4259C7.50971 15.2377 7.01661 15.0551 6.52082 14.8782ZM11.567 14.7268C13.1524 13.8119 14.7753 12.9549 16.433 12.1586C16.9308 11.9195 17.1406 11.3221 16.9014 10.8243C16.6623 10.3264 16.0649 10.1167 15.5671 10.3558C13.404 11.3948 11.2986 12.5344 9.25677 13.7686C8.18332 13.3462 7.09672 12.9499 5.99774 12.5805C5.48328 12.4076 4.96611 12.2405 4.44631 12.0795C8.09666 9.66276 11.9593 7.54124 16.0001 5.74886C20.0409 7.54124 23.9035 9.66277 27.5539 12.0795C27.034 12.2406 26.5168 12.4076 26.0023 12.5805C22.537 13.7453 19.1948 15.1776 16.0001 16.8529C14.552 16.0935 13.0735 15.384 11.567 14.7268ZM10 16.2309V17.2671C10.5978 17.6129 11 18.2592 11 18.9995C11 19.7398 10.5978 20.3861 10 20.7319V20.9995C10 21.6957 9.91964 22.3921 9.75887 23.0736C11.9096 24.1619 13.9927 25.3645 16 26.6732C19.1433 24.6238 22.4722 22.8349 25.956 21.3373C25.884 19.1607 25.7239 17.0065 25.4793 14.8783C22.3638 15.9899 19.3547 17.3257 16.4714 18.8664C16.1769 19.0237 15.8233 19.0237 15.5288 18.8664C13.7331 17.9069 11.8886 17.0268 10 16.2309Z" fill="currentColor" style="fill:currentColor;fill:currentColor;fill-opacity:1;"/>
</svg>
