<svg width="32" height="32" viewBox="0 0 32 32" fill="none" xmlns="http://www.w3.org/2000/svg">
<path fill-rule="evenodd" clip-rule="evenodd" d="M4 3C4.55228 3 5 3.44772 5 4V4.71922L7.45092 4.10649C10.4615 3.35385 13.642 3.70298 16.4177 5.09079L16.5613 5.16261C18.8629 6.31342 21.4952 6.62089 24.0001 6.0315L28.1462 5.05594C28.4621 4.98162 28.7943 5.06518 29.0375 5.28006C29.2806 5.49495 29.4044 5.81445 29.3694 6.13704C29.1253 8.39084 29 10.6806 29 13C29 15.3387 29.1274 17.6473 29.3756 19.9193C29.4304 20.4214 29.1022 20.8856 28.6105 21.0013L24.4581 21.9783C21.4978 22.6749 18.387 22.3115 15.6669 20.9515L15.5232 20.8797C13.1746 19.7053 10.4834 19.4099 7.93599 20.0468L5 20.7808V28C5 28.5523 4.55228 29 4 29C3.44772 29 3 28.5523 3 28V4C3 3.44772 3.44772 3 4 3ZM5 18.7192L7.45092 18.1065C10.4615 17.3538 13.642 17.703 16.4177 19.0908L16.5613 19.1626C18.8629 20.3134 21.4952 20.6209 24.0001 20.0315L27.2972 19.2557C27.1006 17.1967 27 15.11 27 13C27 11.0874 27.0826 9.1938 27.2446 7.32271L24.4581 7.97833C21.4978 8.67488 18.387 8.31152 15.6669 6.95147L15.5232 6.87965C13.1746 5.70535 10.4834 5.40992 7.93599 6.04678L5 6.78078V18.7192Z" fill="currentColor" style="fill:currentColor;fill:currentColor;fill-opacity:1;"/>
</svg>
