<svg width="32" height="32" viewBox="0 0 32 32" fill="none" xmlns="http://www.w3.org/2000/svg">
<path fill-rule="evenodd" clip-rule="evenodd" d="M8.6717 6.33301C8.10556 6.33301 7.61137 6.55876 7.31083 6.93194C5.23927 9.50421 4 12.7725 4 16.333C4 16.8764 4.02886 17.4128 4.08506 17.9407C4.16637 18.7043 4.87732 19.333 5.8297 19.333L12.9333 19.333C13.4856 19.333 13.9333 19.7807 13.9333 20.333C13.9333 20.8853 13.4856 21.333 12.9333 21.333L12.0721 21.333C12.1042 21.7084 12.044 22.1014 11.8675 22.4723C11.3116 23.641 11 24.9492 11 26.333C11 27.4376 11.8954 28.333 13 28.333L13 27.4885C13 26.598 13.1699 25.7156 13.5007 24.8888C14.0193 23.5923 15.0622 22.6761 16.1626 22.0901C17.5238 21.3652 18.7154 20.362 19.661 19.1563C20.442 18.1605 21.6347 17.3761 23.0399 17.3347C23.6566 15.9616 24 14.4386 24 12.833C24 11.228 23.6569 9.70557 23.0407 8.33301L21.9737 8.33301C21.2213 8.33301 20.4738 8.21171 19.7601 7.97379L15.6075 6.58959C15.0976 6.41965 14.5637 6.33301 14.0263 6.33301L8.6717 6.33301ZM22.8786 6.33301L21.9737 6.33301C21.4363 6.33301 20.9024 6.24637 20.3925 6.07643L16.2399 4.69223C15.5262 4.4543 14.7787 4.33301 14.0263 4.33301L8.6717 4.33301C7.58992 4.33301 6.48623 4.76722 5.75316 5.67748C3.40575 8.59227 2 12.2998 2 16.333C2 16.9473 2.03262 17.5543 2.0963 18.1524C2.30483 20.111 4.04438 21.333 5.8297 21.333L9.99999 21.333C9.99947 21.3327 10.0001 21.3331 9.99999 21.333C10.0061 21.337 10.0261 21.3531 10.0457 21.3887C10.0901 21.4699 10.0874 21.5586 10.0615 21.6132C9.38056 23.0446 9 24.6458 9 26.333C9 28.5421 10.7909 30.333 13 30.333C14.1046 30.333 15 29.4376 15 28.333L15 27.4885C15 26.8524 15.1214 26.2221 15.3576 25.6315C15.6493 24.9023 16.2774 24.2949 17.1027 23.8554C18.7117 22.9985 20.1186 21.8138 21.2347 20.3906C21.5023 20.0495 21.8162 19.7812 22.1518 19.6002C22.2035 20.4875 22.8567 21.333 23.9305 21.333L25.3342 21.333C26.7865 21.333 28.2409 20.5372 28.8217 19.0635C29.5826 17.1329 30 15.0305 30 12.833C30 11.1063 29.7422 9.43788 29.2624 7.86523C28.7676 6.24345 27.2259 5.33301 25.6762 5.33301L24.4658 5.33301C23.7097 5.33301 23.1544 5.76732 22.8786 6.33301ZM24.7824 7.33301C25.5639 9.00452 26 10.8691 26 12.833C26 14.9788 25.4794 17.0058 24.5566 18.792C24.4621 18.9749 24.3634 19.1553 24.2606 19.333L25.3342 19.333C26.1006 19.333 26.7283 18.9207 26.961 18.3302C27.6313 16.6293 28 14.7754 28 12.833C28 11.3062 27.7722 9.83446 27.3495 8.4489C27.1527 7.80395 26.4963 7.33301 25.6762 7.33301L24.7824 7.33301Z" fill="currentColor" style="fill:currentColor;fill:currentColor;fill-opacity:1;"/>
</svg>
