<svg width="32" height="32" viewBox="0 0 32 32" fill="none" xmlns="http://www.w3.org/2000/svg">
<path fill-rule="evenodd" clip-rule="evenodd" d="M16 5C14.6481 5 13.4525 5.66976 12.7268 6.70006C12.5042 7.01619 12.1192 7.17563 11.7383 7.10952C10.4966 6.89406 9.17758 7.26588 8.2216 8.22187C7.26563 9.17783 6.8938 10.4969 7.10925 11.7385C7.17535 12.1194 7.01593 12.5043 6.69983 12.727C5.66966 13.4526 5 14.6482 5 16C5 17.3518 5.6696 18.5473 6.69971 19.2729C7.0158 19.4956 7.17521 19.8805 7.10908 20.2615C6.89352 21.5032 7.26533 22.8224 8.22138 23.7784C9.17744 24.7345 10.4966 25.1063 11.7383 24.8907C12.1193 24.8246 12.5043 24.984 12.7269 25.3001C13.4526 26.3303 14.6481 27 16 27C17.3519 27 18.5475 26.3303 19.2731 25.3C19.4957 24.9839 19.8806 24.8245 20.2616 24.8905C21.5031 25.1059 22.822 24.734 23.7779 23.7781C24.7338 22.8222 25.1056 21.5033 24.8903 20.2618C24.8242 19.8808 24.9836 19.4959 25.2998 19.2733C26.3302 18.5477 27 17.352 27 16C27 14.6482 26.3304 13.4527 25.3003 12.7271C24.9842 12.5044 24.8248 12.1195 24.8909 11.7385C25.1065 10.4968 24.7347 9.17768 23.7786 8.22164C22.8226 7.26559 21.5034 6.89378 20.2617 7.10935C19.8807 7.17549 19.4957 7.01606 19.2731 6.69993C18.5474 5.6697 17.3519 5 16 5ZM11.4705 5.06501C12.5694 3.80124 14.1911 3 16 3C17.8088 3 19.4304 3.80116 20.5293 5.06482C22.2001 4.94808 23.9136 5.52821 25.1928 6.80743C26.472 8.08664 27.0522 9.80012 26.9355 11.4709C28.199 12.5698 29 14.1913 29 16C29 17.809 28.1987 19.4308 26.9348 20.5297C27.0512 22.2002 26.4711 23.9133 25.1921 25.1923C23.9131 26.4713 22.2 27.0515 20.5295 26.935C19.4306 28.1988 17.8089 29 16 29C14.1912 29 12.5696 28.1989 11.4707 26.9352C9.79989 27.052 8.08639 26.4718 6.80716 25.1926C5.52794 23.9134 4.94781 22.1999 5.06455 20.5291C3.80105 19.4302 3 17.8087 3 16C3 14.1912 3.80113 12.5696 5.06474 11.4707C4.94813 9.80007 5.52827 8.08676 6.80739 6.80765C8.0865 5.52853 9.79982 4.94839 11.4705 5.06501ZM20.5812 12.1863C21.0307 12.5073 21.1347 13.1318 20.8137 13.5812L15.8137 20.5812C15.6429 20.8204 15.3754 20.9723 15.0825 20.9966C14.7895 21.0208 14.5007 20.915 14.2929 20.7071L11.2929 17.7071C10.9024 17.3166 10.9024 16.6834 11.2929 16.2929C11.6834 15.9024 12.3166 15.9024 12.7071 16.2929L14.8724 18.4582L19.1863 12.4188C19.5073 11.9693 20.1318 11.8653 20.5812 12.1863Z" fill="currentColor" style="fill:currentColor;fill:currentColor;fill-opacity:1;"/>
</svg>
