<svg width="32" height="32" viewBox="0 0 32 32" fill="none" xmlns="http://www.w3.org/2000/svg">
<path d="M8.34702 27.7676C9.7459 27.7676 11.1589 27.9139 12.5199 28.1943L12.9398 28.2754C15.0455 28.659 17.2437 28.6865 19.3558 28.3447C19.7644 28.2786 20.1496 28.5564 20.2162 28.9648C20.2823 29.3736 20.0047 29.7588 19.596 29.8252C17.3131 30.1946 14.9422 30.165 12.6703 29.751L12.2171 29.6631C10.955 29.403 9.64342 29.2676 8.34702 29.2676H5.33335C4.91914 29.2676 4.58335 28.9318 4.58335 28.5176C4.58368 28.1037 4.91934 27.7676 5.33335 27.7676H8.34702Z" fill="currentColor" style="fill:currentColor;fill:currentColor;fill-opacity:1;"/>
<path d="M11.6263 19.5098C14.0808 19.0343 16.6738 19.1487 18.7562 20.3906L18.9652 20.5244C19.1692 20.6664 19.3601 20.8327 19.5316 21.0254L19.7083 21.2451C20.1469 21.8483 20.3156 22.5816 20.2103 23.2812C20.615 23.0532 21.0127 22.7807 21.4115 22.4795L23.8207 20.6592L24.0355 20.5107C25.1389 19.8185 26.6376 19.8686 27.6849 20.6592L27.8695 20.8105C28.6973 21.5514 29.0156 22.7093 28.5062 23.7393L28.3841 23.958C27.8179 24.8658 26.9786 26.0976 26.1361 26.8779L26.0775 26.9277C25.774 27.1564 25.3404 27.1225 25.0765 26.8379C24.7953 26.534 24.8128 26.0587 25.1165 25.7773L25.3753 25.5205C25.9843 24.8775 26.6204 23.9517 27.1117 23.1641L27.1546 23.0879C27.3354 22.7268 27.2636 22.2763 26.8705 21.9287L26.7806 21.8555C26.2348 21.4437 25.4168 21.4186 24.8373 21.7793L24.7249 21.8564L22.3148 23.6758L22.3158 23.6768C21.3609 24.3981 20.217 25.142 18.8119 25.3662L18.8128 25.3672C18.656 25.3922 18.4919 25.4148 18.3216 25.4346C18.2732 25.4426 18.2234 25.4481 18.1722 25.4512L18.1654 25.4521C17.5148 25.5189 16.7709 25.5412 15.9535 25.4854L15.599 25.457L15.5228 25.4453C15.1499 25.3715 14.8857 25.0263 14.9222 24.6396C14.9589 24.2534 15.2826 23.9629 15.6624 23.96L15.7396 23.9639L16.056 23.9893C16.7834 24.039 17.4416 24.0185 18.0121 23.96L18.0892 23.9502C18.1193 23.9395 18.1947 23.906 18.3109 23.8047L18.4046 23.7139C18.8177 23.2736 18.8536 22.6183 18.4945 22.126L18.4115 22.0225C18.3243 21.9246 18.2229 21.8359 18.1078 21.7559L17.9876 21.6787C16.3403 20.6963 14.1671 20.5454 11.9115 20.9824C9.66519 21.4176 7.43622 22.4188 5.76694 23.6025C5.42924 23.8418 4.96167 23.7622 4.72202 23.4248C4.48258 23.0869 4.56194 22.6185 4.89975 22.3789C6.73632 21.0765 9.1623 19.9871 11.6263 19.5098Z" fill="currentColor" style="fill:currentColor;fill:currentColor;fill-opacity:1;"/>
<path fill-rule="evenodd" clip-rule="evenodd" d="M5.5062 8.59766C5.89144 8.6607 6.13772 8.92525 6.27573 9.10547C6.43302 9.31087 6.59075 9.5969 6.74741 9.87793L6.83432 10.0342L6.86557 10.0908C6.88117 10.0944 6.89865 10.0991 6.91831 10.1035L7.08823 10.1416L7.5394 10.248C7.68579 10.2856 7.82453 10.3267 7.94467 10.374C8.16719 10.4617 8.47191 10.6269 8.63803 10.9668L8.70053 11.124L8.73764 11.2852C8.79409 11.654 8.64539 11.9627 8.51987 12.1621C8.45081 12.2717 8.36299 12.388 8.26694 12.5068L7.96128 12.8691L7.84604 13.0049C7.82626 13.028 7.80953 13.0476 7.79526 13.0645C7.79743 13.0882 7.79986 13.1163 7.80307 13.1494L7.82065 13.3291L7.86362 13.8086C7.87444 13.9629 7.88013 14.1094 7.87436 14.2393C7.86269 14.5003 7.79939 14.9171 7.42514 15.2012C7.0387 15.4941 6.61306 15.4272 6.35581 15.3535C6.23205 15.318 6.09674 15.2664 5.95737 15.207L5.53256 15.0156L5.37436 14.9424C5.35946 14.9355 5.34474 14.9295 5.33237 14.9238L5.29233 14.9424L5.13315 15.0156C4.85025 15.1459 4.5574 15.2826 4.30991 15.3535C4.05248 15.4272 3.62698 15.4945 3.24057 15.2012C2.86636 14.9171 2.80302 14.5003 2.79135 14.2393C2.77981 13.9796 2.81362 13.6536 2.84506 13.3291L2.86264 13.1494L2.86948 13.0635L2.70444 12.8691C2.49714 12.6267 2.28513 12.3817 2.14682 12.1621C2.00345 11.9344 1.82862 11.5639 1.96518 11.124L2.02768 10.9668C2.19369 10.627 2.49853 10.4618 2.72104 10.374C2.96123 10.2794 3.2761 10.21 3.57846 10.1416L3.74741 10.1035L3.79917 10.0908C3.80841 10.0744 3.81951 10.0555 3.83139 10.0342L3.91831 9.87793L4.15366 9.46289C4.23209 9.33077 4.31146 9.20808 4.38999 9.10547C4.54761 8.89964 4.84762 8.58413 5.33335 8.58398L5.5062 8.59766ZM5.22885 10.6084L5.14194 10.7646C5.08638 10.8644 4.98099 11.0755 4.8021 11.2432L4.72104 11.3125C4.60412 11.4011 4.47362 11.4573 4.35776 11.4951L4.07846 11.5664L3.90952 11.6045C3.81273 11.6264 3.72702 11.6471 3.65073 11.665C3.70716 11.7324 3.77029 11.8082 3.84409 11.8945L3.9603 12.0293L4.14292 12.2549C4.19531 12.3284 4.2476 12.414 4.28842 12.5098L4.32553 12.6094L4.35092 12.7109C4.37157 12.812 4.37829 12.9118 4.37729 13.002L4.35581 13.2939L4.33823 13.4746C4.32873 13.5726 4.32092 13.6603 4.31381 13.7393C4.372 13.7128 4.43653 13.6854 4.5062 13.6533L4.66538 13.5801L4.93003 13.4658C5.04605 13.4249 5.18572 13.3907 5.33335 13.3906L5.44174 13.3965C5.69106 13.4235 5.90326 13.5349 6.00131 13.5801L6.15952 13.6533L6.3519 13.7393L6.32846 13.4746L6.31088 13.2939C6.29774 13.1583 6.2564 12.8793 6.34018 12.6094L6.37729 12.5098C6.47237 12.2866 6.63054 12.1189 6.70639 12.0303L6.82163 11.8945L7.01401 11.665L6.75717 11.6045L6.58725 11.5664C6.4805 11.5423 6.24776 11.5018 6.03452 11.373L5.94467 11.3125C5.82991 11.2254 5.74071 11.1165 5.67221 11.0156L5.52475 10.7646L5.43686 10.6084C5.39957 10.5415 5.36398 10.481 5.33237 10.4248L5.22885 10.6084Z" fill="currentColor" style="fill:currentColor;fill:currentColor;fill-opacity:1;"/>
<path fill-rule="evenodd" clip-rule="evenodd" d="M26.8402 8.59766C27.2252 8.66081 27.4717 8.9253 27.6097 9.10547C27.6882 9.20807 27.7676 9.33075 27.846 9.46289L28.0814 9.87793L28.1673 10.0342C28.1791 10.0553 28.1904 10.0745 28.1996 10.0908C28.2151 10.0944 28.2327 10.0991 28.2523 10.1035L28.4222 10.1416L28.8734 10.248C29.0197 10.2856 29.1586 10.3267 29.2787 10.374C29.5011 10.4617 29.806 10.627 29.972 10.9668L30.0345 11.124L30.0716 11.2852C30.128 11.6539 29.9794 11.9627 29.8539 12.1621C29.7848 12.2718 29.697 12.3879 29.6009 12.5068L29.2953 12.8691L29.18 13.0049C29.1601 13.0281 29.1436 13.0475 29.1292 13.0645C29.1314 13.0882 29.1338 13.1163 29.1371 13.1494L29.1546 13.3291L29.1976 13.8086C29.2084 13.9629 29.2141 14.1095 29.2083 14.2393C29.1967 14.5003 29.1334 14.917 28.7591 15.2012C28.3728 15.4943 27.9471 15.4272 27.6898 15.3535C27.5661 15.318 27.4307 15.2664 27.2914 15.207L26.8665 15.0156L26.7083 14.9424C26.6935 14.9356 26.6787 14.9295 26.6664 14.9238L26.6263 14.9424L26.4671 15.0156C26.1842 15.1459 25.8915 15.2825 25.6439 15.3535C25.3866 15.4272 24.9611 15.4943 24.5746 15.2012C24.2003 14.917 24.137 14.5003 24.1253 14.2393C24.1138 13.9796 24.1476 13.6536 24.179 13.3291L24.1966 13.1494L24.2035 13.0645C24.1893 13.0477 24.1732 13.0278 24.1537 13.0049L24.0384 12.8691C23.831 12.6267 23.6181 12.3818 23.4798 12.1621C23.3364 11.9342 23.1626 11.5638 23.2992 11.124L23.3617 10.9668C23.5278 10.6268 23.8325 10.4617 24.055 10.374C24.2953 10.2794 24.6101 10.21 24.9124 10.1416L25.0814 10.1035L25.1332 10.0908C25.1424 10.0743 25.1534 10.0556 25.1654 10.0342L25.2523 9.87793L25.4876 9.46289C25.5662 9.33064 25.6454 9.20813 25.724 9.10547C25.8816 8.89958 26.1814 8.58398 26.6673 8.58398L26.8402 8.59766ZM26.5628 10.6084L26.5619 10.6074L26.4759 10.7646C26.4125 10.8784 26.2843 11.1384 26.055 11.3125L26.054 11.3115C25.9371 11.4002 25.8076 11.4573 25.6917 11.4951L25.4124 11.5664L25.2425 11.6035L25.2435 11.6045C25.1467 11.6264 25.061 11.6471 24.9847 11.665C25.0411 11.7323 25.1044 11.8084 25.1781 11.8945L25.2943 12.0293L25.4769 12.2549C25.5292 12.3283 25.5816 12.4141 25.6224 12.5098L25.6595 12.6084L25.6859 12.7109C25.7065 12.8119 25.7123 12.9119 25.7113 13.002L25.6898 13.2939L25.6722 13.4736C25.6627 13.5716 25.6549 13.6602 25.6478 13.7393C25.7061 13.7128 25.7704 13.6855 25.8402 13.6533L25.9994 13.5801L26.264 13.4658C26.3801 13.4249 26.5196 13.3906 26.6673 13.3906L26.7757 13.3965C27.0251 13.4236 27.2374 13.535 27.3353 13.5801L27.4935 13.6523L27.6849 13.7393L27.6615 13.4746L27.6449 13.2939C27.6317 13.1582 27.5905 12.8792 27.6742 12.6094L27.6751 12.6084L27.7113 12.5098C27.8064 12.2865 27.9643 12.1192 28.0404 12.0303L28.1556 11.8945L28.348 11.665L28.0912 11.6045L27.9212 11.5664C27.7995 11.5389 27.5128 11.4892 27.2787 11.3115C27.164 11.2245 27.0747 11.1164 27.0062 11.0156L26.8587 10.7646L26.7708 10.6074C26.7336 10.5406 26.6979 10.4809 26.6664 10.4248C26.6348 10.4808 26.6 10.5417 26.5628 10.6084Z" fill="currentColor" style="fill:currentColor;fill:currentColor;fill-opacity:1;"/>
<path fill-rule="evenodd" clip-rule="evenodd" d="M16.1117 1.92188C16.6615 1.96601 17.0338 2.33005 17.2904 2.66504C17.5636 3.02175 17.8469 3.53547 18.1722 4.11914L18.348 4.43262L18.5521 4.78418C18.5918 4.84393 18.5993 4.84251 18.5843 4.83105C18.5685 4.81919 18.5655 4.8255 18.6263 4.84473C18.7016 4.86848 18.8066 4.89277 19.0042 4.9375L19.3441 5.01367L20.2279 5.22168C20.4982 5.29097 20.7418 5.36287 20.9486 5.44434C21.3499 5.60248 21.7823 5.86109 21.9818 6.36523L22.0189 6.46973L22.0472 6.5752C22.1679 7.097 21.9686 7.55744 21.7386 7.92285C21.4983 8.3046 21.1178 8.74608 20.6869 9.25L20.4554 9.52148L20.4544 9.52051C20.3202 9.67749 20.2487 9.76439 20.1996 9.83203L20.1634 9.88574C20.1668 9.8748 20.16 9.88398 20.1615 9.95801C20.1632 10.0447 20.1744 10.1603 20.1947 10.3691L20.2289 10.7305L20.3128 11.6699C20.3332 11.9575 20.3434 12.2176 20.3333 12.4443C20.3131 12.899 20.2062 13.44 19.7298 13.8018L19.7308 13.8027C19.2421 14.1736 18.6886 14.1113 18.2523 13.9863C18.0389 13.9252 17.8011 13.8337 17.5433 13.7236L16.7123 13.3486L16.3949 13.2021C16.2096 13.1169 16.1101 13.0721 16.0355 13.0449C16.0196 13.0392 16.0075 13.0356 15.9994 13.0332C15.9911 13.0357 15.9789 13.0392 15.9632 13.0449L15.6048 13.2021L15.2874 13.3486C14.6974 13.6203 14.1741 13.864 13.7474 13.9863C13.3111 14.1113 12.7576 14.1737 12.2689 13.8027C11.7927 13.441 11.6866 12.899 11.6664 12.4443C11.6462 11.9908 11.7046 11.4038 11.7699 10.7305L11.805 10.3691L11.8382 9.95801L11.8363 9.88574C11.8323 9.87849 11.8219 9.86199 11.8001 9.83203L11.5433 9.52051L11.3128 9.25C10.8818 8.74602 10.5014 8.30463 10.2611 7.92285C10.0157 7.53301 9.80508 7.03497 9.98081 6.46973L10.0179 6.36523C10.2173 5.86134 10.649 5.6025 11.0501 5.44434C11.4641 5.2812 12.0253 5.15628 12.6556 5.01367L12.9945 4.9375L13.3724 4.84473C13.4343 4.8252 13.4316 4.81873 13.4154 4.83105L13.4476 4.78418C13.4942 4.71401 13.5504 4.61436 13.6517 4.43262L13.8265 4.11914C14.1519 3.53538 14.4361 3.02183 14.7093 2.66504C14.9829 2.30792 15.3878 1.91728 15.9994 1.91699L16.1117 1.92188ZM15.8998 3.57715C15.8044 3.70163 15.7007 3.8629 15.5775 4.07129L15.1361 4.84961L14.9613 5.16309C14.8019 5.44892 14.6266 5.79446 14.3226 6.02539C14.0908 6.20116 13.8189 6.28466 13.5677 6.34473L13.3255 6.40039L12.9867 6.47656C12.3058 6.63062 11.8818 6.72923 11.6009 6.83984C11.5112 6.87523 11.4581 6.90469 11.4281 6.92383C11.441 6.96037 11.468 7.02446 11.5306 7.12402C11.6984 7.39052 11.9893 7.73378 12.4525 8.27539L12.6839 8.5459L12.849 8.74023C13.0167 8.94124 13.1827 9.16662 13.2679 9.44043L13.3031 9.57715C13.3496 9.80504 13.3414 10.036 13.3226 10.2559L13.2982 10.5137L13.263 10.875C13.1931 11.5967 13.1511 12.0563 13.1654 12.3779C13.1696 12.4728 13.1785 12.5362 13.1869 12.5771C13.2207 12.5718 13.2692 12.5626 13.3343 12.5439C13.6237 12.461 14.022 12.2799 14.6595 11.9863L14.9779 11.8398L15.2035 11.7363C15.4401 11.6307 15.7087 11.5304 15.9994 11.5303L16.1429 11.5381C16.4733 11.5739 16.7714 11.7246 17.0218 11.8398L17.3392 11.9863L18.1332 12.3447C18.3484 12.437 18.5207 12.5025 18.6654 12.5439C18.7294 12.5623 18.7771 12.5717 18.8109 12.5771C18.8192 12.5362 18.8301 12.4732 18.8343 12.3779C18.8415 12.2171 18.8344 12.0217 18.8167 11.7764L18.7357 10.875L18.7015 10.5137C18.6692 10.1799 18.6183 9.80231 18.7308 9.44043L18.7796 9.30762C18.9078 9.00589 19.1289 8.76442 19.3158 8.5459L19.5472 8.27539L20.1185 7.59668C20.2701 7.40988 20.3852 7.25728 20.4691 7.12402C20.5318 7.02444 20.5587 6.96035 20.5716 6.92383C20.5416 6.90467 20.4887 6.87528 20.3988 6.83984C20.2583 6.78453 20.0819 6.7324 19.8558 6.6748L19.013 6.47656L18.6742 6.40039C18.3661 6.33069 17.9858 6.26052 17.6771 6.02637C17.4493 5.85326 17.2932 5.61509 17.1624 5.38672L17.0374 5.16309L16.8626 4.84961C16.5129 4.22207 16.2896 3.82612 16.099 3.57715C16.0581 3.52384 16.0247 3.48642 15.9994 3.45996C15.974 3.48647 15.9405 3.52392 15.8998 3.57715Z" fill="currentColor" style="fill:currentColor;fill:currentColor;fill-opacity:1;"/>
</svg>
