<svg width="32" height="32" viewBox="0 0 32 32" fill="none" xmlns="http://www.w3.org/2000/svg">
<path fill-rule="evenodd" clip-rule="evenodd" d="M10 7C10 4.79086 11.7909 3 14 3H18C20.2091 3 22 4.79086 22 7V7.2733C23.2433 7.38712 24.4765 7.53595 25.6987 7.71882C27.6375 8.00891 29 9.69551 29 11.6076V16.6518C29 17.6338 28.6412 18.5754 28 19.286V24.5333C28 26.4692 26.6037 28.17 24.6358 28.4312C21.81 28.8064 18.9274 29 16 29C13.0726 29 10.19 28.8064 7.36418 28.4312C5.39632 28.17 4 26.4692 4 24.5333V19.286C3.35881 18.5753 3 17.6338 3 16.6518V11.6076C3 9.69551 4.36254 8.00891 6.30128 7.71882C7.52346 7.53595 8.7567 7.38712 10 7.2733V7ZM12 7.1211C13.3232 7.04075 14.6569 7 16 7C17.3431 7 18.6769 7.04075 20 7.1211V7C20 5.89543 19.1046 5 18 5H14C12.8954 5 12 5.89543 12 7V7.1211ZM6 20.4574V24.5333C6 25.516 6.70207 26.3258 7.62741 26.4486C10.3662 26.8123 13.1609 27 16 27C18.8391 27 21.6338 26.8123 24.3726 26.4486C25.2979 26.3258 26 25.516 26 24.5333V20.4574C22.8446 21.4596 19.4845 22 16 22C12.5156 22 9.15546 21.4596 6 20.4574ZM16 9C14.3431 9 12.7014 9.06394 11.077 9.18946C9.56815 9.30606 8.07426 9.4758 6.59723 9.6968C5.6852 9.83327 5 10.6372 5 11.6076V16.6518C5 17.2362 5.25031 17.7659 5.64873 18.1055C5.81133 18.2441 6.00038 18.353 6.21267 18.4236C9.28796 19.446 12.5783 20 16 20C19.4217 20 22.7121 19.446 25.7873 18.4236C25.9996 18.353 26.1887 18.2441 26.3513 18.1055C26.7497 17.7659 27 17.2362 27 16.6518V11.6076C27 10.6372 26.3148 9.83327 25.4028 9.6968C23.9257 9.4758 22.4318 9.30606 20.923 9.18946C19.2986 9.06394 17.6569 9 16 9ZM15 17C15 16.4477 15.4477 16 16 16H16.01C16.5623 16 17.01 16.4477 17.01 17V17.01C17.01 17.5623 16.5623 18.01 16.01 18.01H16C15.4477 18.01 15 17.5623 15 17.01V17Z" fill="currentColor" style="fill:currentColor;fill:currentColor;fill-opacity:1;"/>
</svg>
