<svg width="32" height="32" viewBox="0 0 32 32" fill="none" xmlns="http://www.w3.org/2000/svg">
<path d="M25.8496 16.7626C26.2152 16.3821 26.8082 16.3821 27.1738 16.7626L27.2383 16.8368C27.5382 17.22 27.5164 17.7853 27.1738 18.1425L24.6816 20.7392L27.1738 23.3349C27.5392 23.7159 27.5393 24.3328 27.1738 24.7138C26.8082 25.0947 26.2154 25.0945 25.8496 24.7138L23.3574 22.1181L20.8672 24.7138C20.5014 25.0945 19.9086 25.0947 19.543 24.7138C19.1774 24.3328 19.1776 23.7159 19.543 23.3349L22.0352 20.7392L19.543 18.1425C19.2004 17.7853 19.1786 17.22 19.4785 16.8368L19.543 16.7626L19.6133 16.6962C19.981 16.3838 20.5243 16.4057 20.8672 16.7626L23.3574 19.3593L25.8496 16.7626Z" fill="currentColor" style="fill:currentColor;fill:currentColor;fill-opacity:1;"/>
<path d="M15.1377 20.5663C15.4784 20.5666 15.7549 21.0244 15.7549 21.5888C15.7548 22.1531 15.4784 22.61 15.1377 22.6103H3.61719C3.27639 22.6103 3.00008 22.1532 3 21.5888C3 21.0242 3.27634 20.5663 3.61719 20.5663H15.1377Z" fill="currentColor" style="fill:currentColor;fill:currentColor;fill-opacity:1;"/>
<path d="M27.3887 6.2929C27.7134 5.94687 28.2442 5.90154 28.623 6.18841L28.6982 6.24993C29.0255 6.55568 29.0985 7.06255 28.8594 7.45208L28.8027 7.53411L23.4062 14.5761C23.2399 14.793 22.9916 14.9247 22.7295 14.9423C22.5003 14.9574 22.2709 14.886 22.0889 14.7402L22.0146 14.6738L18.9785 11.6542C18.6043 11.2816 18.6043 10.6674 18.9785 10.2949L19.0488 10.2324C19.4135 9.93555 19.9473 9.9559 20.2881 10.2949L22.5742 12.5693L27.3262 6.36712L27.3887 6.2929Z" fill="currentColor" style="fill:currentColor;fill:currentColor;fill-opacity:1;"/>
<path d="M15.1377 11.3661C15.4784 11.3664 15.7549 11.8242 15.7549 12.3886C15.7549 12.953 15.4784 13.4108 15.1377 13.4111H3.61719C3.27634 13.4111 3 12.9532 3 12.3886C3.00001 11.8241 3.27635 11.3661 3.61719 11.3661H15.1377Z" fill="currentColor" style="fill:currentColor;fill:currentColor;fill-opacity:1;"/>
</svg>
