<svg width="32" height="32" viewBox="0 0 32 32" fill="none" xmlns="http://www.w3.org/2000/svg">
<path d="M27.3334 12.5742L27.3191 12.2695C27.2893 11.9656 27.2136 11.6674 27.0964 11.3841C26.9402 11.0066 26.7121 10.6626 26.4233 10.3737C26.1344 10.0847 25.7903 9.85561 25.4128 9.69922C25.1297 9.58198 24.8313 9.50777 24.5274 9.47786L24.2227 9.46224H22.3308C21.52 9.46224 20.7445 9.13828 20.172 8.56771L20.1694 8.56641L18.6368 7.03255C18.539 6.9346 18.4222 6.85642 18.2944 6.80339C18.1986 6.76367 18.0977 6.73806 17.9949 6.72786L17.8907 6.72266H14.1095C13.8303 6.72266 13.5633 6.83327 13.3621 7.03385L11.8295 8.56771C11.2554 9.14153 10.4785 9.46224 9.66935 9.46224H7.77742C7.36905 9.46224 6.96463 9.54299 6.58732 9.69922C6.20985 9.85561 5.86577 10.0847 5.5769 10.3737C5.28808 10.6626 5.05998 11.0066 4.90373 11.3841C4.74754 11.7615 4.66663 12.1658 4.66675 12.5742V22.1667C4.66675 22.9917 4.99485 23.7825 5.57821 24.3659C6.16157 24.9492 6.95243 25.2773 7.77742 25.2773H24.2227L24.53 25.2617C25.2422 25.191 25.9115 24.8764 26.422 24.3659C27.0053 23.7825 27.3334 22.9917 27.3334 22.1667V12.5742ZM20.4819 16.6849C20.4817 15.4967 20.0094 14.3572 19.1694 13.5169C18.3816 12.7291 17.3302 12.2647 16.2227 12.2096L16.0001 12.2044C14.8116 12.2044 13.6712 12.6765 12.8308 13.5169C11.9908 14.3572 11.5184 15.4967 11.5183 16.6849C11.5183 17.8733 11.9905 19.0138 12.8308 19.8542C13.6712 20.6946 14.8116 21.1667 16.0001 21.1667C17.1886 21.1667 18.3289 20.6946 19.1694 19.8542C20.0096 19.0138 20.4819 17.8733 20.4819 16.6849ZM29.3269 22.4206C29.2641 23.6836 28.7344 24.8815 27.836 25.7799C26.9376 26.6784 25.7396 27.2081 24.4766 27.2708L24.2227 27.2773H7.77742C6.422 27.2773 5.12258 26.7384 4.16414 25.7799C3.20571 24.8215 2.66675 23.5221 2.66675 22.1667V12.5742C2.66663 11.9032 2.79813 11.2385 3.05477 10.6185C3.31151 9.99824 3.68825 9.43438 4.16284 8.95964C4.6374 8.48496 5.2016 8.10848 5.8217 7.85156C6.44173 7.59475 7.10631 7.46224 7.77742 7.46224H9.66935C9.91294 7.46224 10.1488 7.37828 10.3373 7.22396L10.4154 7.15234L11.9506 5.61719L12.1733 5.41536C12.7157 4.97109 13.3968 4.72266 14.1095 4.72266H17.8907L18.1902 4.73698C18.4888 4.76639 18.7818 4.84042 19.06 4.95573C19.4308 5.10951 19.7685 5.33437 20.0522 5.61849L20.0509 5.61979L21.5821 7.15104C21.7829 7.35113 22.0536 7.46224 22.3308 7.46224H24.2227L24.474 7.46875C25.0593 7.49756 25.6359 7.62685 26.1785 7.85156C26.7986 8.10848 27.3628 8.48496 27.8373 8.95964C28.3119 9.43438 28.6887 9.99824 28.9454 10.6185C29.202 11.2385 29.3335 11.9032 29.3334 12.5742V22.1667L29.3269 22.4206ZM22.4819 16.6849C22.4819 18.4038 21.7988 20.0528 20.5834 21.2682C19.3679 22.4837 17.719 23.1667 16.0001 23.1667C14.2811 23.1667 12.6322 22.4837 11.4167 21.2682C10.2014 20.0528 9.51831 18.4038 9.51831 16.6849C9.51842 14.9663 10.2016 13.3182 11.4167 12.1029C12.6322 10.8874 14.2811 10.2044 16.0001 10.2044L16.3217 10.2122C17.9236 10.2918 19.444 10.9634 20.5834 12.1029C21.7985 13.3182 22.4817 14.9663 22.4819 16.6849Z" fill="currentColor" style="fill:currentColor;fill:currentColor;fill-opacity:1;"/>
</svg>
