<svg width="32" height="32" viewBox="0 0 32 32" fill="none" xmlns="http://www.w3.org/2000/svg">
<path d="M29.0002 3.50019C29.3981 3.88302 29.4105 4.51597 29.0278 4.914L5.414 29.4723C5.03113 29.8705 4.39788 29.8828 3.9998 29.4998V29.4998C3.60188 29.117 3.5895 28.484 3.97222 28.086L27.586 3.52767C27.9689 3.12949 28.6021 3.11721 29.0002 3.50019V3.50019Z" fill="currentColor" style="fill:currentColor;fill:currentColor;fill-opacity:1;"/>
<path d="M26.4668 8.84204C26.7776 8.51925 27.2806 8.45513 27.616 8.75213C27.6917 8.81907 27.7653 8.88836 27.8369 8.95996C28.3114 9.43463 28.6886 9.99804 28.9453 10.6182C29.202 11.2382 29.3331 11.9032 29.333 12.5742V22.167L29.3271 22.4209C29.2643 23.6838 28.7343 24.8819 27.8359 25.7803C26.9375 26.6786 25.7395 27.2077 24.4766 27.2705L24.2227 27.2773H11.078C10.1964 27.2773 9.74612 26.2194 10.3573 25.5841V25.5841C10.5458 25.3881 10.806 25.2773 11.078 25.2773H24.2227L24.5303 25.2617C25.2422 25.191 25.9115 24.8765 26.4219 24.3662C27.0052 23.7829 27.3329 22.9919 27.333 22.167V12.5742L27.3193 12.2695C27.2895 11.9656 27.2139 11.667 27.0967 11.3838C26.9404 11.0064 26.7116 10.6629 26.4229 10.374V10.374C26.0578 10.0089 25.9389 9.39054 26.297 9.01854L26.4668 8.84204Z" fill="currentColor" style="fill:currentColor;fill:currentColor;fill-opacity:1;"/>
<path d="M18.1904 4.7373C18.4889 4.76672 18.7815 4.84083 19.0596 4.95605C19.4299 5.10963 19.7676 5.33381 20.051 5.61739C20.0514 5.61785 20.0516 5.61856 20.0513 5.61914V5.61914C20.051 5.61972 20.0511 5.62043 20.0516 5.62089L21.582 7.15137V7.15137C21.7937 7.36226 21.9363 7.78018 21.7291 7.99556L21.1412 8.60687C20.912 8.84522 20.5407 8.90012 20.293 8.68105C20.252 8.6448 20.212 8.60729 20.173 8.56847C20.1722 8.56776 20.1714 8.56722 20.1704 8.5669V8.5669C20.1694 8.56657 20.1686 8.56603 20.1679 8.56531L18.6367 7.03223C18.539 6.93437 18.4217 6.85671 18.2939 6.80371C18.1983 6.76408 18.0978 6.73774 17.9951 6.72754L17.8906 6.72266H14.1094C13.8302 6.72268 13.5636 6.83362 13.3623 7.03418L11.8291 8.56738C11.255 9.14118 10.478 9.46191 9.66895 9.46191H7.77734C7.36899 9.46192 6.96419 9.543 6.58691 9.69922C6.20958 9.8556 5.86592 10.0852 5.57715 10.374C5.28838 10.6629 5.05956 11.0064 4.90332 11.3838C4.74714 11.7612 4.66687 12.1658 4.66699 12.5742V22.167C4.66708 22.9919 4.99484 23.7829 5.57812 24.3662V24.3662C5.68775 24.4758 5.69949 24.6537 5.592 24.7654L4.62803 25.7674C4.5018 25.8986 4.2928 25.909 4.16406 25.7803V25.7803C3.20571 24.8219 2.66708 23.5223 2.66699 22.167V12.5742C2.66687 11.9032 2.79805 11.2382 3.05469 10.6182C3.31142 9.99803 3.68858 9.43463 4.16309 8.95996C4.63756 8.48537 5.20133 8.10847 5.82129 7.85156C6.44129 7.59476 7.10626 7.46192 7.77734 7.46191H9.66895C9.9125 7.46191 10.1484 7.37791 10.3369 7.22363L10.415 7.15234L11.9502 5.61719L12.1729 5.41504C12.7152 4.97078 13.3968 4.72268 14.1094 4.72266H17.8906L18.1904 4.7373Z" fill="currentColor" style="fill:currentColor;fill:currentColor;fill-opacity:1;"/>
<path d="M20.7946 14.7373C21.2705 14.2429 22.0909 14.3699 22.2664 15.0333C22.4078 15.5676 22.4814 16.1222 22.4814 16.6846C22.4814 18.4034 21.7984 20.0531 20.583 21.2686C19.3676 22.4838 17.7188 23.167 16 23.167C15.5216 23.167 15.0487 23.1138 14.5891 23.0109C13.9193 22.861 13.761 22.0459 14.237 21.5514L14.3569 21.4268C14.6133 21.1605 14.9945 21.0667 15.3602 21.1202C15.5709 21.151 15.7846 21.167 16 21.167C17.1884 21.167 18.3286 20.6947 19.1689 19.8545C20.0092 19.0141 20.4814 17.873 20.4814 16.6846C20.4814 16.4113 20.4561 16.1408 20.4071 15.8759C20.3399 15.5122 20.4191 15.1274 20.6756 14.861L20.7946 14.7373Z" fill="currentColor" style="fill:currentColor;fill:currentColor;fill-opacity:1;"/>
<path d="M16.3213 10.2119C16.7795 10.2347 17.231 10.3062 17.6689 10.4232C18.3184 10.5968 18.4582 11.3951 17.9919 11.8795L17.8896 11.9858C17.6203 12.2656 17.2149 12.3543 16.8333 12.2823C16.6326 12.2445 16.4286 12.2202 16.2227 12.21L16 12.2041C14.8116 12.2041 13.6714 12.6764 12.8311 13.5166C11.9911 14.3568 11.5188 15.4965 11.5186 16.6846C11.5186 17.0248 11.5573 17.3611 11.6323 17.6875C11.7193 18.0661 11.6462 18.4748 11.3768 18.7546L11.2743 18.8611C10.8082 19.3454 10.0053 19.2363 9.80696 18.5941C9.61759 17.981 9.51855 17.3379 9.51855 16.6846C9.51875 14.9661 10.202 13.3178 11.417 12.1025C12.6324 10.8873 14.2812 10.2041 16 10.2041L16.3213 10.2119Z" fill="currentColor" style="fill:currentColor;fill:currentColor;fill-opacity:1;"/>
</svg>
