<svg width="32" height="32" viewBox="0 0 32 32" fill="none" xmlns="http://www.w3.org/2000/svg">
<path d="M16.595 6.33371C16.4637 6.33266 16.3335 6.35748 16.2117 6.40677C16.09 6.45605 15.9792 6.52883 15.8856 6.62095C15.792 6.71306 15.7174 6.82271 15.6662 6.94364C15.615 7.06456 15.5881 7.19439 15.587 7.32571C15.586 7.45703 15.6108 7.58727 15.6601 7.709C15.7094 7.83073 15.7821 7.94156 15.8743 8.03516C15.9664 8.12876 16.076 8.2033 16.1969 8.25453C16.3179 8.30575 16.4477 8.33266 16.579 8.33371C17.3737 8.34373 18.133 8.66386 18.6949 9.22582C19.2569 9.78777 19.577 10.5471 19.587 11.3417C19.5891 11.6069 19.6965 11.8604 19.8856 12.0465C20.0746 12.2325 20.3298 12.3358 20.595 12.3337C20.8602 12.3316 21.1137 12.2242 21.2998 12.0352C21.4858 11.8461 21.5891 11.5909 21.587 11.3257C21.5728 10.0062 21.0423 8.74467 20.1092 7.81155C19.1761 6.87843 17.9146 6.34793 16.595 6.33371Z" fill="currentColor" style="fill:currentColor;fill:currentColor;fill-opacity:1;"/>
<path fill-rule="evenodd" clip-rule="evenodd" d="M5.00035 12.247C4.95235 6.01904 9.81768 0.94971 15.9284 1.00038C22.0257 1.05104 26.9524 6.18038 27.0004 12.3977C27.0404 17.6084 23.5004 22.5764 18.6737 23.9577C18.7306 24.0715 18.7759 24.1813 18.8097 24.287C19.2524 25.703 18.335 27.1284 16.9204 27.4164V29.3337C16.9204 29.5989 16.815 29.8533 16.6275 30.0408C16.4399 30.2284 16.1856 30.3337 15.9204 30.3337C15.6551 30.3337 15.4008 30.2284 15.2132 30.0408C15.0257 29.8533 14.9204 29.5989 14.9204 29.3337V27.4164C13.507 27.1284 12.5884 25.703 13.031 24.287C13.0692 24.1688 13.1208 24.0457 13.1857 23.9177C8.39635 22.4644 5.04169 17.423 5.00169 12.247M15.9137 3.00038C10.9804 2.96038 6.96169 7.05904 7.00302 12.231C7.04302 17.523 11.0804 22.2937 15.9297 22.3337C20.803 22.3737 25.043 17.6524 25.0017 12.4137C24.9617 7.22971 20.8617 3.04171 15.9137 3.00038ZM15.9137 24.3337C16.1448 24.3355 16.3732 24.3293 16.599 24.315L16.635 24.3844L16.8537 24.7844L16.903 24.887C16.9697 25.111 16.8364 25.3937 16.5217 25.4564C16.5217 25.4564 16.491 25.4617 16.3937 25.4644L15.9204 25.467C15.7004 25.467 15.5564 25.467 15.4497 25.4644C15.351 25.4617 15.3204 25.4564 15.3204 25.4564C15.0044 25.3937 14.8724 25.1097 14.939 24.887C14.9417 24.8804 14.9537 24.8524 14.9884 24.7844C15.0364 24.6924 15.103 24.571 15.2084 24.3844L15.2484 24.3044C15.467 24.3222 15.6897 24.3319 15.9137 24.3337Z" fill="currentColor" style="fill:currentColor;fill:currentColor;fill-opacity:1;"/>
</svg>
