<svg width="32" height="32" viewBox="0 0 32 32" fill="none" xmlns="http://www.w3.org/2000/svg">
<path fill-rule="evenodd" clip-rule="evenodd" d="M25.5055 9.4657C25.8359 10.553 26.0097 11.7119 26.0004 12.914H25.9991C25.9591 18.09 22.6044 23.1314 17.8151 24.5847C17.88 24.7127 17.9316 24.8358 17.9698 24.954C18.4124 26.37 17.4938 27.7954 16.0804 28.0834V30.0007C16.0804 30.2659 15.9751 30.5203 15.7876 30.7078C15.6 30.8953 15.3457 31.0007 15.0805 31.0007C14.8152 31.0007 14.5609 30.8953 14.3733 30.7078C14.1858 30.5203 14.0805 30.2659 14.0805 30.0007V28.0834C12.6658 27.7954 11.7485 26.37 12.1911 24.954C12.2249 24.8483 12.2702 24.7385 12.3271 24.6247C11.8311 24.4827 11.3487 24.3029 10.8823 24.0888L12.4218 22.5494C13.2666 22.8484 14.1578 23.0082 15.0711 23.0007C19.9205 22.9607 23.9578 18.19 23.9978 12.898C24.0026 12.2896 23.9513 11.696 23.8489 11.1223L25.5055 9.4657ZM14.4018 24.982C14.6276 24.9963 14.856 25.0025 15.0871 25.0007C15.3111 24.9989 15.5338 24.9891 15.7524 24.9714L15.7924 25.0514C15.8978 25.238 15.9644 25.3594 16.0124 25.4514C16.0471 25.5194 16.0591 25.5474 16.0618 25.554C16.1284 25.7767 15.9964 26.0607 15.6804 26.1234C15.6804 26.1234 15.6498 26.1287 15.5511 26.1314C15.4444 26.134 15.3005 26.134 15.0805 26.134L14.6071 26.1314C14.5098 26.1287 14.4791 26.1234 14.4791 26.1234C14.1644 26.0607 14.0311 25.778 14.0978 25.554L14.1471 25.4514L14.3658 25.0514L14.4018 24.982Z" fill="currentColor" style="fill:currentColor;fill:currentColor;fill-opacity:1;"/>
<path d="M23.8652 6.15319L22.4285 7.58983C20.8191 5.1892 18.1267 3.64272 15.0871 3.66737C10.1391 3.7087 6.03911 7.8967 5.99911 13.0807C5.97587 16.0274 7.30721 18.8104 9.34391 20.6744L7.92721 22.0911C5.50162 19.8251 3.9741 16.4976 4.00045 13.0647C4.04845 6.84737 8.97512 1.71804 15.0725 1.66737C18.6964 1.63732 21.8823 3.40801 23.8652 6.15319Z" fill="currentColor" style="fill:currentColor;fill:currentColor;fill-opacity:1;"/>
<path d="M14.7891 7.07376C14.6673 7.02448 14.5371 6.99965 14.4058 7.0007C13.0862 7.01492 11.8247 7.54543 10.8916 8.47854C9.95851 9.41166 9.428 10.6732 9.41378 11.9927C9.41166 12.2579 9.51498 12.5131 9.70102 12.7022C9.88706 12.8912 10.1406 12.9986 10.4058 13.0007C10.671 13.0028 10.9262 12.8995 11.1152 12.7135C11.3043 12.5274 11.4117 12.2739 11.4138 12.0087C11.4238 11.214 11.7439 10.4548 12.3059 9.89281C12.8678 9.33086 13.6271 9.01073 14.4218 9.0007C14.5531 8.99965 14.6829 8.97275 14.8039 8.92152C14.9248 8.8703 15.0344 8.79575 15.1265 8.70215C15.2187 8.60855 15.2914 8.49772 15.3407 8.37599C15.39 8.25427 15.4148 8.12402 15.4138 7.9927C15.4127 7.86138 15.3858 7.73155 15.3346 7.61063C15.2834 7.4897 15.2088 7.38005 15.1152 7.28794C15.0216 7.19582 14.9108 7.12305 14.7891 7.07376Z" fill="currentColor" style="fill:currentColor;fill:currentColor;fill-opacity:1;"/>
<path fill-rule="evenodd" clip-rule="evenodd" d="M27.7872 4.70793C27.3967 4.31741 26.7635 4.31741 26.373 4.70793L4.92618 26.1547C4.53566 26.5452 4.53566 27.1784 4.92618 27.5689C5.31671 27.9595 5.94987 27.9595 6.34039 27.5689L27.7872 6.12215C28.1777 5.73162 28.1777 5.09846 27.7872 4.70793Z" fill="currentColor" style="fill:currentColor;fill:currentColor;fill-opacity:1;"/>
</svg>
