<svg width="32" height="32" viewBox="0 0 32 32" fill="none" xmlns="http://www.w3.org/2000/svg">
<g clip-path="url(#clip0_3014_48516)">
<path d="M12.334 0L12.3486 0.834961C12.4911 5.00124 13.7014 9.06369 15.8672 12.6309L16.0967 13.001L16.1025 13.0107L16.1396 13.0693L16.1494 13.0869L16.2158 13.2119L16.2197 13.2188L16.2236 13.2266C16.2955 13.387 16.334 13.5624 16.334 13.7412C16.334 14.3927 15.8385 14.9284 15.2041 14.9932L15.0752 15H12.334V22.333C12.334 23.3685 11.5465 24.2197 10.5381 24.3223L10.334 24.333H6C4.92283 24.3331 3.88663 24.7344 3.0918 25.4541L2.93652 25.6025C2.12384 26.4152 1.66699 27.5178 1.66699 28.667V32.25H-0.333008V28.667C-0.333008 26.9872 0.334759 25.3762 1.52246 24.1885L1.75 23.9717C2.91157 22.92 4.42551 22.3331 6 22.333H10.334V15C10.334 13.8954 11.2294 13 12.334 13H13.7686C11.5222 9.04237 10.3335 4.56484 10.334 0V-0.25H12.334V0Z" fill="currentColor" style="fill:currentColor;fill:currentColor;fill-opacity:1;"/>
<path d="M22.667 13C23.5874 13.0001 24.334 13.7466 24.334 14.667V20.3477C24.7884 20.3827 25.2356 20.4881 25.6582 20.6631L25.8525 20.75C26.3017 20.9624 26.7122 21.2503 27.0645 21.6025L27.25 21.7998C27.3973 21.9668 27.5298 22.1459 27.6494 22.333H28C29.1492 22.3331 30.2519 22.79 31.0645 23.6025L31.2129 23.7578C31.9327 24.5527 32.334 25.5895 32.334 26.667V32.25H30.334V26.667C30.334 26.1255 30.1459 25.6028 29.8057 25.1875L29.6504 25.0166C29.2897 24.6559 28.8223 24.4278 28.3223 24.3584C28.3299 24.4607 28.334 24.5637 28.334 24.667V26.917H26.334V24.667C26.334 24.3608 26.2726 24.0567 26.1553 23.7734C26.0673 23.5615 25.9486 23.3632 25.8037 23.1865L25.6504 23.0166C25.434 22.8002 25.1766 22.6281 24.8936 22.5107C24.7144 22.4365 24.5261 22.3876 24.334 22.3604V26.917H22.334V15.0273C21.9105 15.088 21.5111 15.2626 21.1807 15.5352L21.0166 15.6836C20.5794 16.121 20.3341 16.7143 20.334 17.333V32.25H18.334V26.6797L18.3223 26.4355L18.2939 26.2373C18.2203 25.8439 18.0462 25.4745 17.7871 25.166L17.6504 25.0166C17.2926 24.6589 16.8298 24.4316 16.334 24.3604V32.25H14.334V24C14.334 23.0798 15.0796 22.3332 16 22.333H16.0059L16.209 22.3379H16.2158L16.5605 22.3691C17.1939 22.4517 17.7984 22.676 18.334 23.0186V17.333C18.3341 16.1841 18.7901 15.0821 19.6025 14.2695L19.7578 14.1211C20.5527 13.4013 21.5895 13 22.667 13Z" fill="currentColor" style="fill:currentColor;fill:currentColor;fill-opacity:1;"/>
</g>
<defs>
<clipPath id="clip0_3014_48516">
<rect width="32" height="32" fill="currentColor" style="fill:currentColor;fill-opacity:1;"/>
</clipPath>
</defs>
</svg>
