<svg width="32" height="32" viewBox="0 0 32 32" fill="none" xmlns="http://www.w3.org/2000/svg">
<path d="M8 19.3432C8 19.6084 7.89464 19.8627 7.70711 20.0503V20.0503C7.07714 20.6802 6 20.2341 6 19.3432V16C6 15.4477 6.44772 15 7 15V15C7.55228 15 8 15.4477 8 16V19.3432ZM4.5 16C4.5 15.4477 4.05228 15 3.5 15V15C2.94772 15 2.5 15.4477 2.5 16V21.5C2.5 22.0523 2.94772 22.5 3.5 22.5V22.5C4.05228 22.5 4.5 22.0523 4.5 21.5V16ZM9.28431 7.12844C9.84849 7.7903 10.182 8.61777 10.2344 9.48587C10.2868 10.354 10.0553 11.2156 9.57487 11.9405L9.49874 12.0547C9.31328 12.3329 9.00103 12.5 8.66668 12.5V12.5C7.86798 12.5 7.39156 11.6099 7.83459 10.9453L7.91063 10.8313C8.1504 10.4695 8.26593 10.0396 8.23977 9.60643C8.21362 9.17325 8.04718 8.76036 7.76562 8.43013C7.18363 7.75323 6.84583 6.90049 6.8064 6.00866C6.76697 5.11684 7.0282 4.23761 7.54819 3.512L7.61482 3.41872C7.80253 3.15595 8.10559 3 8.42853 3H10.1661C10.1881 3 10.2097 3.00689 10.2276 3.01972V3.01972C10.2752 3.0537 10.2862 3.11982 10.2522 3.16739L9.17575 4.67438C8.91632 5.03646 8.78599 5.47518 8.80568 5.92018C8.82537 6.36518 8.99392 6.79067 9.28431 7.12844ZM4.78431 7.12844C5.34849 7.7903 5.68197 8.61777 5.73439 9.48587C5.7868 10.354 5.55531 11.2156 5.07487 11.9405L4.99874 12.0547C4.81328 12.3329 4.50103 12.5 4.16668 12.5V12.5C3.36798 12.5 2.89156 11.6099 3.33459 10.9453L3.41063 10.8313C3.6504 10.4695 3.76593 10.0396 3.73977 9.60643C3.71362 9.17325 3.54718 8.76036 3.26562 8.43013C2.68363 7.75323 2.34583 6.90049 2.3064 6.00866C2.26697 5.11684 2.5282 4.23761 3.04819 3.512L3.11482 3.41872C3.30253 3.15595 3.60559 3 3.92853 3H5.66608C5.68814 3 5.70965 3.00689 5.72761 3.01972V3.01972C5.77518 3.0537 5.7862 3.11982 5.75222 3.16739L4.67575 4.67438C4.41632 5.03646 4.28599 5.47518 4.30568 5.92018C4.32537 6.36518 4.49392 6.79067 4.78431 7.12844ZM15.5858 15L29.2929 1.29289C29.4805 1.10535 29.7348 1 30 1V1C30.5523 1 31 1.44771 31 1.99998V1.99998C31 2.26519 30.8946 2.51954 30.7071 2.70708L20.1213 13.2929C19.4913 13.9229 19.9375 15 20.8284 15H30C30.5523 15 31 15.4477 31 16V21.5C31 22.0523 30.5523 22.5 30 22.5H11.3284C11.0632 22.5 10.8088 22.6054 10.6213 22.7929L2.70708 30.7071C2.51954 30.8946 2.26519 31 1.99998 31V31C1.44771 31 1 30.5523 1 30V30C1 29.7348 1.10535 29.4805 1.29289 29.2929L15.5858 15ZM28 20.5C28.5523 20.5 29 20.0523 29 19.5V18C29 17.4477 28.5523 17 28 17H16.8284C16.5632 17 16.3088 17.1054 16.1213 17.2929L14.6213 18.7929C13.9913 19.4229 14.4375 20.5 15.3284 20.5H28Z" fill="currentColor" style="fill:currentColor;fill:currentColor;fill-opacity:1;"/>
</svg>
