<svg width="32" height="32" viewBox="0 0 32 32" fill="none" xmlns="http://www.w3.org/2000/svg">
<path d="M28.7019 15C29.2542 15 29.7019 15.4477 29.7019 16V21.5C29.7019 22.0523 29.2542 22.5 28.7019 22.5H9.2019C8.64962 22.5 8.2019 22.0523 8.2019 21.5V16C8.2019 15.4477 8.64962 15 9.2019 15H28.7019ZM10.2019 19.5C10.2019 20.0523 10.6496 20.5 11.2019 20.5H26.7019C27.2542 20.5 27.7019 20.0523 27.7019 19.5V18C27.7019 17.4477 27.2542 17 26.7019 17H11.2019C10.6496 17 10.2019 17.4477 10.2019 18V19.5ZM6.7019 16C6.7019 15.4477 6.25419 15 5.7019 15V15C5.14962 15 4.7019 15.4477 4.7019 16V21.5C4.7019 22.0523 5.14962 22.5 5.7019 22.5V22.5C6.25419 22.5 6.7019 22.0523 6.7019 21.5V16ZM3.2019 16C3.2019 15.4477 2.75419 15 2.2019 15V15C1.64962 15 1.2019 15.4477 1.2019 16V21.5C1.2019 22.0523 1.64962 22.5 2.2019 22.5V22.5C2.75419 22.5 3.2019 22.0523 3.2019 21.5V16ZM6.61265 10.8313C6.85243 10.4695 6.96796 10.0396 6.9418 9.60643C6.91564 9.17325 6.74921 8.76036 6.46766 8.43013C5.88566 7.75323 5.54785 6.90049 5.50842 6.00866C5.469 5.11684 5.73023 4.23761 6.25022 3.512L6.31673 3.41886C6.50444 3.15601 6.80754 3 7.13053 3H8.86798C8.89004 3 8.91156 3.00689 8.92951 3.01972V3.01972C8.97709 3.0537 8.98811 3.11982 8.95412 3.16739L7.87772 4.67438C7.61827 5.03645 7.48794 5.47517 7.50762 5.92017C7.52729 6.36517 7.69583 6.79067 7.98622 7.12844C8.55039 7.7903 8.88387 8.61777 8.93629 9.48587C8.98871 10.354 8.75722 11.2156 8.27678 11.9405L8.20064 12.0547C8.01518 12.3329 7.70295 12.5 7.36861 12.5V12.5C6.56991 12.5 6.09354 11.6098 6.53661 10.9453L6.61265 10.8313ZM2.11265 10.8313C2.35243 10.4695 2.46796 10.0396 2.4418 9.60643C2.41564 9.17325 2.24921 8.76036 1.96766 8.43013C1.38566 7.75323 1.04785 6.90049 1.00842 6.00866C0.968996 5.11684 1.23023 4.23761 1.75022 3.512L1.81673 3.41886C2.00444 3.15601 2.30754 3 2.63053 3H4.36798C4.39004 3 4.41156 3.00689 4.42951 3.01972V3.01972C4.47709 3.0537 4.48811 3.11982 4.45412 3.16739L3.37772 4.67438C3.11827 5.03645 2.98794 5.47517 3.00762 5.92017C3.02729 6.36517 3.19583 6.79067 3.48622 7.12844C4.05039 7.7903 4.38387 8.61777 4.43629 9.48587C4.48871 10.354 4.25722 11.2156 3.77678 11.9405L3.70064 12.0547C3.51518 12.3329 3.20295 12.5 2.86861 12.5V12.5C2.06991 12.5 1.59354 11.6098 2.03661 10.9453L2.11265 10.8313Z" fill="currentColor" style="fill:currentColor;fill:currentColor;fill-opacity:1;"/>
</svg>
