<svg width="32" height="32" viewBox="0 0 32 32" fill="none" xmlns="http://www.w3.org/2000/svg">
<path d="M20.4394 14.3022C20.6245 14.4209 20.8054 14.5471 20.9814 14.6811C22.4132 15.7714 23.4481 17.3016 23.9267 19.0366L25.0673 23.1713C25.2719 23.9134 25.3022 24.6928 25.1562 25.4487C25.0101 26.2047 24.691 26.9171 24.2245 27.5297C23.758 28.1423 23.1566 28.6391 22.4667 28.9809C21.7767 29.3227 21.017 29.5004 20.247 29.5004H11.7528C10.9828 29.5004 10.2231 29.3227 9.53312 28.9809C8.84322 28.6391 8.2418 28.1422 7.77531 27.5297C7.58841 27.2843 7.42586 27.0223 7.288 26.7485L8.85246 25.267C8.95288 25.647 9.12723 26.0041 9.36613 26.3178C9.64604 26.6854 10.0068 26.9838 10.4208 27.1889C10.8348 27.394 11.2908 27.5004 11.7528 27.5004H20.247C20.7093 27.5021 21.1657 27.3961 21.58 27.1908C21.9425 27.0112 22.2639 26.7598 22.5253 26.4526L22.6337 26.3178C22.9152 25.951 23.1075 25.5237 23.1952 25.0698C23.2829 24.6159 23.2632 24.1477 23.1386 23.7026L21.9989 19.5688C21.6368 18.2558 20.853 17.098 19.7694 16.2729C19.5022 16.0694 19.2202 15.8893 18.9267 15.7328L20.4394 14.3022Z" fill="currentColor" style="fill:currentColor;fill:currentColor;fill-opacity:1;"/>
<path d="M13.1523 15.6908C12.8302 15.8566 12.5216 16.0511 12.2304 16.2729C11.5813 16.7672 11.0402 17.3807 10.6327 18.0756L7.52628 21.0151L8.07316 19.0366C8.55175 17.3016 9.58664 15.7714 11.0185 14.6811C12.4492 13.5916 14.1977 13.0013 15.996 13.0004L13.1523 15.6908Z" fill="currentColor" style="fill:currentColor;fill:currentColor;fill-opacity:1;"/>
<path fill-rule="evenodd" clip-rule="evenodd" d="M2.80168 9.10198C3.74128 8.55979 4.86526 8.49283 5.96671 8.9135C6.99512 9.30659 7.88817 10.0886 8.48136 11.1157C9.07461 12.1429 9.30478 13.3074 9.13078 14.3949C8.94413 15.559 8.32465 16.4991 7.38566 17.0414C6.8581 17.3461 6.25855 17.5056 5.64933 17.5033C5.16046 17.5003 4.6761 17.4075 4.22062 17.2299C3.19214 16.837 2.29901 16.0549 1.70597 15.0278C0.442035 12.839 0.933738 10.1805 2.80168 9.10198ZM4.54191 10.643C4.28262 10.6402 4.02722 10.7065 3.80168 10.8344C2.90434 11.3527 2.73841 12.8153 3.43839 14.0278C3.80251 14.6583 4.33379 15.1324 4.93449 15.3617C5.4625 15.5632 5.97805 15.5443 6.38566 15.309C6.79318 15.0736 7.06681 14.6365 7.15617 14.0785C7.25761 13.4435 7.11303 12.7463 6.74894 12.1157C6.38485 11.485 5.85358 11.0113 5.25285 10.7817C5.02641 10.6926 4.7852 10.6456 4.54191 10.643Z" fill="currentColor" style="fill:currentColor;fill:currentColor;fill-opacity:1;"/>
<path fill-rule="evenodd" clip-rule="evenodd" d="M26.1923 8.85686C27.2424 8.50092 28.304 8.58578 29.1982 9.10198C31.0661 10.1805 31.5577 12.839 30.2939 15.0278C29.7008 16.0549 28.8077 16.837 27.7792 17.2299C27.3237 17.4075 26.8394 17.5004 26.3505 17.5033C25.7413 17.5056 25.1417 17.3462 24.6142 17.0414C23.6748 16.4991 23.0555 15.559 22.8691 14.3949C22.724 13.4879 22.8602 12.5271 23.2538 11.6371L26.1923 8.85686ZM27.4579 10.644C27.2146 10.6466 26.9734 10.6935 26.747 10.7826C26.1463 11.0122 25.615 11.4863 25.2509 12.1166C24.8869 12.7469 24.7421 13.4436 24.8437 14.0785C24.9332 14.6365 25.2067 15.0735 25.6142 15.309C26.0218 15.5445 26.5376 15.5634 27.0653 15.3617C27.6661 15.1323 28.1973 14.6583 28.5614 14.0278C29.2616 12.8149 29.0955 11.3522 28.1982 10.8344C27.9726 10.7065 27.7172 10.6412 27.4579 10.644Z" fill="currentColor" style="fill:currentColor;fill:currentColor;fill-opacity:1;"/>
<path fill-rule="evenodd" clip-rule="evenodd" d="M10.4726 2.07757C11.5323 1.84723 12.623 2.12657 13.5439 2.86272C14.4038 3.55028 15.0166 4.56693 15.2685 5.726C15.8053 8.19551 14.5272 10.5771 12.4198 11.0356C12.1798 11.0879 11.934 11.1146 11.6884 11.1147C10.8685 11.1146 10.0576 10.819 9.34757 10.2514C8.48781 9.5639 7.87591 8.54708 7.62394 7.38811C7.08713 4.91843 8.36495 2.53569 10.4726 2.07757ZM11.1923 4.00139C11.0931 4.00127 10.9943 4.01179 10.8974 4.03264C9.8849 4.25276 9.28053 5.59453 9.57804 6.96331C9.73267 7.67493 10.0943 8.28825 10.5966 8.68987C11.038 9.0428 11.535 9.18147 11.995 9.08147C13.0072 8.86104 13.6107 7.51987 13.3134 6.15179C13.1588 5.4401 12.7972 4.82679 12.2948 4.42522C11.9467 4.14686 11.564 4.00139 11.1923 4.00139Z" fill="currentColor" style="fill:currentColor;fill:currentColor;fill-opacity:1;"/>
<path d="M18.456 2.86272C19.3769 2.12645 20.4675 1.84822 21.5273 2.07854C22.9538 2.38863 23.9994 3.57994 24.3603 5.08343L22.4306 6.9096C22.7014 5.55986 22.102 4.24897 21.1025 4.03167C21.0054 4.01079 20.9058 4.00026 20.8066 4.00042C20.4351 4.00053 20.053 4.14619 19.705 4.42425C19.2027 4.82554 18.8401 5.43915 18.6855 6.15081C18.388 7.51888 18.9923 8.8614 20.0048 9.08147C20.0421 9.08956 20.0804 9.09311 20.1181 9.09807L18.5234 10.6078C17.0699 9.71136 16.2917 7.74848 16.7314 5.726C16.9832 4.56697 17.596 3.55021 18.456 2.86272Z" fill="currentColor" style="fill:currentColor;fill:currentColor;fill-opacity:1;"/>
<path d="M29.3124 1.7736C29.7135 1.39404 30.3469 1.41157 30.7265 1.81266C31.106 2.21379 31.0885 2.84712 30.6874 3.22672L2.68742 29.7267C2.28629 30.1063 1.65296 30.0888 1.27336 29.6877C0.893795 29.2865 0.911322 28.6532 1.31242 28.2736L29.3124 1.7736Z" fill="currentColor" style="fill:currentColor;fill:currentColor;fill-opacity:1;"/>
</svg>
